<svg width="24" height="24" viewBox="0 0 24 24" fill="none" xmlns="http://www.w3.org/2000/svg">
<path fill-rule="evenodd" clip-rule="evenodd" d="M19.2 11.2H16.664L18.696 9.168C19.008 8.856 19.008 8.352 18.696 8.04C18.384 7.728 17.872 7.728 17.56 8.04L14.4 11.2H12.8V9.6L15.96 6.44C16.272 6.128 16.272 5.616 15.96 5.304C15.8105 5.1542 15.6076 5.07001 15.396 5.07001C15.1844 5.07001 14.9815 5.1542 14.832 5.304L12.8 7.336V4.8C12.8 4.36 12.44 4 12 4C11.56 4 11.2 4.36 11.2 4.8V7.336L9.168 5.304C9.01853 5.1542 8.81561 5.07001 8.604 5.07001C8.39239 5.07001 8.18947 5.1542 8.04 5.304C7.728 5.616 7.728 6.128 8.04 6.44L11.2 9.6V11.2H9.6L6.44 8.04C6.128 7.728 5.616 7.728 5.304 8.04C4.992 8.352 4.992 8.856 5.304 9.168L7.336 11.2H4.8C4.36 11.2 4 11.56 4 12C4 12.44 4.36 12.8 4.8 12.8H7.336L5.304 14.832C4.992 15.144 4.992 15.648 5.304 15.96C5.616 16.272 6.128 16.272 6.44 15.96L9.6 12.8H11.2V14.4L8.04 17.56C7.728 17.872 7.728 18.384 8.04 18.696C8.352 19.008 8.856 19.008 9.168 18.696L11.2 16.664V19.2C11.2 19.64 11.56 20 12 20C12.44 20 12.8 19.64 12.8 19.2V16.664L14.832 18.696C15.144 19.008 15.648 19.008 15.96 18.696C16.272 18.384 16.272 17.872 15.96 17.56L12.8 14.4V12.8H14.4L17.56 15.96C17.872 16.272 18.384 16.272 18.696 15.96C19.008 15.648 19.008 15.144 18.696 14.832L16.664 12.8H19.2C19.64 12.8 20 12.44 20 12C20 11.56 19.64 11.2 19.2 11.2Z" fill="#808080"/>
</svg>
