<svg width="24" height="24" viewBox="0 0 24 24" fill="none" xmlns="http://www.w3.org/2000/svg">
<path fill-rule="evenodd" clip-rule="evenodd" d="M16 4C15.1164 4 14.4 4.71634 14.4 5.6C14.4 6.48366 15.1164 7.2 16 7.2C16.8837 7.2 17.6 6.48366 17.6 5.6C17.6 4.71634 16.8837 4 16 4ZM13.6 15.568H12C12 16.888 10.92 17.968 9.60001 17.968C8.28001 17.968 7.20001 16.888 7.20001 15.568C7.20001 14.248 8.28001 13.168 9.60001 13.168V11.568C7.39201 11.568 5.60001 13.36 5.60001 15.568C5.60001 17.776 7.39201 19.568 9.60001 19.568C11.808 19.568 13.6 17.776 13.6 15.568ZM16 12.768H14.512L15.848 9.832C16.336 8.768 15.552 7.568 14.368 7.568H10.208C9.56001 7.568 8.97601 7.944 8.71201 8.528L8.48801 9.136C8.32001 9.584 8.57601 10.072 9.03201 10.2C9.42401 10.312 9.83201 10.112 9.99201 9.736L10.232 9.168H12L10.536 12.448C10.056 13.512 10.848 14.768 12.016 14.768H16V17.968C16 18.408 16.36 18.768 16.8 18.768C17.24 18.768 17.6 18.408 17.6 17.968V14.368C17.6 13.488 16.88 12.768 16 12.768Z" fill="#808080"/>
</svg>
