<svg width="24" height="24" viewBox="0 0 24 24" fill="none" xmlns="http://www.w3.org/2000/svg">
<path fill-rule="evenodd" clip-rule="evenodd" d="M12 4C11.1163 4 10.4 4.71634 10.4 5.6C10.4 6.48366 11.1163 7.2 12 7.2C12.8836 7.2 13.6 6.48366 13.6 5.6C13.6 4.71634 12.8836 4 12 4ZM17.6 11.92C17.6 11.528 17.312 11.208 16.928 11.144C15.928 10.976 14.984 10.44 14.344 9.736L13.312 8.592C13.176 8.44 13.008 8.32 12.824 8.232C12.816 8.232 12.816 8.224 12.808 8.224H12.8C12.504 8.056 12.176 7.976 11.8 8.024C10.984 8.12 10.4 8.856 10.4 9.68V14.4C10.4 15.28 11.12 16 12 16H16V19.2C16 19.64 16.36 20 16.8 20C17.24 20 17.6 19.64 17.6 19.2V15.6C17.6 14.72 16.88 14 16 14H13.6V11.24C14.4 11.904 15.52 12.472 16.64 12.696C17.136 12.8 17.6 12.424 17.6 11.92ZM12.664 16.8C12.336 17.728 11.448 18.4 10.4 18.4C9.07199 18.4 7.99999 17.328 7.99999 16C7.99999 14.952 8.67199 14.072 9.59999 13.736V12.08C7.77599 12.448 6.39999 14.064 6.39999 16C6.39999 18.208 8.19199 20 10.4 20C12.336 20 13.952 18.624 14.32 16.8H12.664Z" fill="#808080"/>
</svg>
