<svg width="24" height="24" viewBox="0 0 24 24" fill="none" xmlns="http://www.w3.org/2000/svg">
<path fill-rule="evenodd" clip-rule="evenodd" d="M12 4C12.88 4 13.6 4.72 13.6 5.6C13.6 6.48 12.88 7.2 12 7.2C11.12 7.2 10.4 6.48 10.4 5.6C10.4 4.72 11.12 4 12 4ZM18.4 9.6H14.4V19.2C14.4 19.64 14.04 20 13.6 20C13.16 20 12.8 19.64 12.8 19.2V15.2H11.2V19.2C11.2 19.64 10.84 20 10.4 20C9.96 20 9.6 19.64 9.6 19.2V9.6H5.6C5.16 9.6 4.8 9.24 4.8 8.8C4.8 8.36 5.16 8 5.6 8H18.4C18.84 8 19.2 8.36 19.2 8.8C19.2 9.24 18.84 9.6 18.4 9.6Z" fill="#808080"/>
</svg>
