<svg width="24" height="24" viewBox="0 0 24 24" fill="none" xmlns="http://www.w3.org/2000/svg">
<path fill-rule="evenodd" clip-rule="evenodd" d="M18.8252 7.992C18.7132 7.552 18.2732 7.296 17.8332 7.392C15.9292 7.816 13.8092 8 11.8252 8C9.84122 8 7.72122 7.816 5.81722 7.392C5.37722 7.296 4.93722 7.552 4.82522 7.992C4.71322 8.44 4.98522 8.896 5.42522 9C6.71322 9.288 8.10522 9.488 9.42522 9.6V19.2C9.42522 19.64 9.78522 20 10.2252 20C10.6652 20 11.0252 19.64 11.0252 19.2V15.2H12.6252V19.2C12.6252 19.64 12.9852 20 13.4252 20C13.8652 20 14.2252 19.64 14.2252 19.2V9.6C15.5452 9.488 16.9372 9.288 18.2172 9C18.6652 8.896 18.9372 8.44 18.8252 7.992ZM11.8252 7.2C12.7052 7.2 13.4252 6.48 13.4252 5.6C13.4252 4.72 12.7052 4 11.8252 4C10.9452 4 10.2252 4.72 10.2252 5.6C10.2252 6.48 10.9452 7.2 11.8252 7.2Z" fill="#808080"/>
</svg>
