<svg width="24" height="24" viewBox="0 0 24 24" fill="none" xmlns="http://www.w3.org/2000/svg">
<path fill-rule="evenodd" clip-rule="evenodd" d="M10.4 15.2V8.8C10.4 7.92 11.112 7.2 12 7.2H19.2V6.4C19.2 5.52 18.48 4.8 17.6 4.8H6.39999C5.51199 4.8 4.79999 5.52 4.79999 6.4V17.6C4.79999 18.48 5.51199 19.2 6.39999 19.2H17.6C18.48 19.2 19.2 18.48 19.2 17.6V16.8H12C11.112 16.8 10.4 16.08 10.4 15.2ZM12.8 8.8C12.36 8.8 12 9.16 12 9.6V14.4C12 14.84 12.36 15.2 12.8 15.2H20V8.8H12.8ZM15.2 13.2C14.536 13.2 14 12.664 14 12C14 11.336 14.536 10.8 15.2 10.8C15.864 10.8 16.4 11.336 16.4 12C16.4 12.664 15.864 13.2 15.2 13.2Z" fill="#808080"/>
</svg>
