<svg width="24" height="24" viewBox="0 0 24 24" fill="none" xmlns="http://www.w3.org/2000/svg">
<path fill-rule="evenodd" clip-rule="evenodd" d="M6.39999 12.194V15.394C6.39999 16.058 6.93599 16.594 7.59999 16.594C8.26399 16.594 8.79999 16.058 8.79999 15.394V12.194C8.79999 11.53 8.26399 10.994 7.59999 10.994C6.93599 10.994 6.39999 11.53 6.39999 12.194ZM11.2 12.194V15.394C11.2 16.058 11.736 16.594 12.4 16.594C13.064 16.594 13.6 16.058 13.6 15.394V12.194C13.6 11.53 13.064 10.994 12.4 10.994C11.736 10.994 11.2 11.53 11.2 12.194ZM5.99999 20.594H18.8C19.464 20.594 20 20.058 20 19.394C20 18.73 19.464 18.194 18.8 18.194H5.99999C5.33599 18.194 4.79999 18.73 4.79999 19.394C4.79999 20.058 5.33599 20.594 5.99999 20.594ZM16 12.194V15.394C16 16.058 16.536 16.594 17.2 16.594C17.864 16.594 18.4 16.058 18.4 15.394V12.194C18.4 11.53 17.864 10.994 17.2 10.994C16.536 10.994 16 11.53 16 12.194ZM11.656 4.186L5.33599 7.514C5.00799 7.682 4.79999 8.026 4.79999 8.394C4.79999 8.946 5.24799 9.394 5.79999 9.394H19.008C19.552 9.394 20 8.946 20 8.394C20 8.026 19.792 7.682 19.464 7.514L13.144 4.186C12.68 3.938 12.12 3.938 11.656 4.186Z" fill="#808080"/>
</svg>
