<svg width="24" height="24" viewBox="0 0 24 24" fill="none" xmlns="http://www.w3.org/2000/svg">
<path fill-rule="evenodd" clip-rule="evenodd" d="M4.79999 6.4V17.6C4.79999 18.48 5.51199 19.2 6.39999 19.2H17.6C18.48 19.2 19.2 18.48 19.2 17.6V6.4C19.2 5.52 18.48 4.8 17.6 4.8H6.39999C5.51199 4.8 4.79999 5.52 4.79999 6.4ZM14.4 9.6C14.4 10.928 13.328 12 12 12C10.672 12 9.59999 10.928 9.59999 9.6C9.59999 8.272 10.672 7.2 12 7.2C13.328 7.2 14.4 8.272 14.4 9.6ZM7.19999 16C7.19999 14.4 10.4 13.52 12 13.52C13.6 13.52 16.8 14.4 16.8 16V16.8H7.19999V16Z" fill="#808080"/>
</svg>
