<svg width="24" height="24" viewBox="0 0 24 24" fill="none" xmlns="http://www.w3.org/2000/svg">
<path fill-rule="evenodd" clip-rule="evenodd" d="M6.3999 14.848C6.3999 17.944 8.9039 20.448 11.9999 20.448C15.0959 20.448 17.5999 17.944 17.5999 14.848V11.648H6.3999V14.848ZM15.2959 5.54401L16.9759 3.86401L16.3199 3.20001L14.4799 5.04801C13.7279 4.67201 12.8959 4.44801 11.9999 4.44801C11.1039 4.44801 10.2719 4.67201 9.5279 5.04801L7.6799 3.20001L7.0239 3.86401L8.7039 5.54401C7.3119 6.56001 6.3999 8.19201 6.3999 10.048V10.848H17.5999V10.048C17.5999 8.19201 16.6879 6.56001 15.2959 5.54401ZM9.5999 9.24801C9.1599 9.24801 8.7999 8.88801 8.7999 8.44801C8.7999 8.00801 9.1599 7.64801 9.5999 7.64801C10.0399 7.64801 10.3999 8.00801 10.3999 8.44801C10.3999 8.88801 10.0399 9.24801 9.5999 9.24801ZM14.3999 9.24801C13.9599 9.24801 13.5999 8.88801 13.5999 8.44801C13.5999 8.00801 13.9599 7.64801 14.3999 7.64801C14.8399 7.64801 15.1999 8.00801 15.1999 8.44801C15.1999 8.88801 14.8399 9.24801 14.3999 9.24801Z" fill="#808080"/>
</svg>
