<svg width="24" height="24" viewBox="0 0 24 24" fill="none" xmlns="http://www.w3.org/2000/svg">
<path fill-rule="evenodd" clip-rule="evenodd" d="M16.8 12.8H12.8V16.8C12.8 17.24 12.44 17.6 12 17.6C11.56 17.6 11.2 17.24 11.2 16.8V12.8H7.20002C6.76002 12.8 6.40002 12.44 6.40002 12C6.40002 11.56 6.76002 11.2 7.20002 11.2H11.2V7.19999C11.2 6.75999 11.56 6.39999 12 6.39999C12.44 6.39999 12.8 6.75999 12.8 7.19999V11.2H16.8C17.24 11.2 17.6 11.56 17.6 12C17.6 12.44 17.24 12.8 16.8 12.8Z" fill="#808080"/>
</svg>
