<svg width="24" height="24" viewBox="0 0 24 24" fill="none" xmlns="http://www.w3.org/2000/svg">
<path fill-rule="evenodd" clip-rule="evenodd" d="M13.5869 8.79999H15.1869V10.4C15.1869 10.84 15.5469 11.2 15.9869 11.2C16.4269 11.2 16.7869 10.84 16.7869 10.4V8.79999H18.3869C18.8269 8.79999 19.1869 8.43999 19.1869 7.99999C19.1869 7.55999 18.8269 7.19999 18.3869 7.19999H16.7869V5.59999C16.7869 5.15999 16.4269 4.79999 15.9869 4.79999C15.5469 4.79999 15.1869 5.15999 15.1869 5.59999V7.19999H13.5869C13.1469 7.19999 12.7869 7.55999 12.7869 7.99999C12.7869 8.43999 13.1469 8.79999 13.5869 8.79999ZM17.7549 14.616L15.7229 14.384C15.2349 14.328 14.7549 14.496 14.4109 14.84L12.9389 16.312C10.6749 15.16 8.81893 13.312 7.66693 11.04L9.14693 9.55999C9.49093 9.21599 9.65893 8.72799 9.60293 8.24799L9.37093 6.23199C9.28293 5.42399 8.59493 4.80799 7.78693 4.80799H6.40293C5.49893 4.80799 4.74693 5.55999 4.80293 6.46399C5.22693 13.296 10.6909 18.752 17.5149 19.176C18.4189 19.232 19.1709 18.48 19.1709 17.576V16.192C19.1789 15.392 18.5629 14.704 17.7549 14.616Z" fill="#808080"/>
</svg>
