<svg width="24" height="24" viewBox="0 0 24 24" fill="none" xmlns="http://www.w3.org/2000/svg">
<path fill-rule="evenodd" clip-rule="evenodd" d="M12.8 10.4C13.24 10.4 13.6 10.04 13.6 9.6V8H15.2C15.64 8 16 7.64 16 7.2C16 6.76 15.64 6.4 15.2 6.4H13.6V4.8C13.6 4.36 13.24 4 12.8 4C12.36 4 12 4.36 12 4.8V6.4H10.4C9.96 6.4 9.6 6.76 9.6 7.2C9.6 7.64 9.96 8 10.4 8H12V9.6C12 10.04 12.36 10.4 12.8 10.4ZM8.8 17.6C7.92 17.6 7.208 18.32 7.208 19.2C7.208 20.08 7.92 20.8 8.8 20.8C9.68 20.8 10.4 20.08 10.4 19.2C10.4 18.32 9.68 17.6 8.8 17.6ZM16.8 17.6C15.92 17.6 15.208 18.32 15.208 19.2C15.208 20.08 15.92 20.8 16.8 20.8C17.68 20.8 18.4 20.08 18.4 19.2C18.4 18.32 17.68 17.6 16.8 17.6ZM9.68 13.6H15.64C16.24 13.6 16.768 13.272 17.04 12.776L19.744 7.872C19.96 7.488 19.816 7 19.432 6.784C19.048 6.576 18.56 6.712 18.352 7.096L15.64 12H10.024L6.832 5.256C6.704 4.976 6.416 4.8 6.112 4.8H4.8C4.36 4.8 4 5.16 4 5.6C4 6.04 4.36 6.4 4.8 6.4H5.6L8.48 12.472L7.4 14.424C6.816 15.496 7.584 16.8 8.8 16.8H17.6C18.04 16.8 18.4 16.44 18.4 16C18.4 15.56 18.04 15.2 17.6 15.2H8.8L9.68 13.6Z" fill="#808080"/>
</svg>
