<svg width="24" height="24" viewBox="0 0 24 24" fill="none" xmlns="http://www.w3.org/2000/svg">
<path fill-rule="evenodd" clip-rule="evenodd" d="M19.216 7.2H17.6V5.584C17.6 5.152 17.248 4.8 16.816 4.8H16.792C16.352 4.8 16 5.152 16 5.584V7.2H14.392C13.96 7.2 13.608 7.552 13.6 7.984V8.008C13.6 8.448 13.952 8.8 14.392 8.8H16V10.408C16 10.84 16.352 11.2 16.792 11.192H16.816C17.248 11.192 17.6 10.84 17.6 10.408V8.8H19.216C19.648 8.8 20 8.448 20 8.016V7.984C20 7.552 19.648 7.2 19.216 7.2ZM15.2 10.408V9.6H14.392C13.968 9.6 13.568 9.432 13.264 9.136C12.968 8.832 12.8 8.432 12.8 7.984C12.8 7.696 12.88 7.432 13.016 7.2H6.40005C5.52005 7.2 4.80005 7.92 4.80005 8.8V18.4C4.80005 19.28 5.52005 20 6.40005 20H16C16.88 20 17.6 19.28 17.6 18.4V11.776C17.36 11.912 17.088 12 16.784 12C15.912 11.992 15.2 11.28 15.2 10.408ZM15.168 18.4H7.20005C6.87205 18.4 6.68005 18.024 6.88005 17.76L8.46405 15.656C8.63205 15.432 8.96005 15.448 9.12005 15.672L10.4 17.6L12.488 14.816C12.648 14.608 12.96 14.6 13.12 14.808L15.48 17.752C15.688 18.016 15.504 18.4 15.168 18.4Z" fill="#808080"/>
</svg>
