<svg width="24" height="24" viewBox="0 0 24 24" fill="none" xmlns="http://www.w3.org/2000/svg">
<path fill-rule="evenodd" clip-rule="evenodd" d="M17.274 3.20801L9.27398 3.20001C8.39398 3.20001 7.67398 3.92001 7.67398 4.80001V7.20001C7.67398 7.64001 8.03398 8.00001 8.47398 8.00001C8.91398 8.00001 9.27398 7.64001 9.27398 7.20001V6.40001H17.274V17.6H9.27398V16.8C9.27398 16.36 8.91398 16 8.47398 16C8.03398 16 7.67398 16.36 7.67398 16.8V19.2C7.67398 20.08 8.39398 20.8 9.27398 20.8H17.274C18.154 20.8 18.874 20.08 18.874 19.2V4.80001C18.874 3.92001 18.154 3.20801 17.274 3.20801ZM11.674 14.4C12.114 14.4 12.474 14.04 12.474 13.6V9.60001C12.474 9.16001 12.114 8.80001 11.674 8.80001H7.67398C7.23398 8.80001 6.87398 9.16001 6.87398 9.60001C6.87398 10.04 7.23398 10.4 7.67398 10.4H9.74598L5.83398 14.312C5.52198 14.624 5.52198 15.128 5.83398 15.44C6.14598 15.752 6.64998 15.752 6.96198 15.44L10.874 11.528V13.6C10.874 14.04 11.234 14.4 11.674 14.4Z" fill="#808080"/>
</svg>
