<svg width="24" height="24" viewBox="0 0 24 24" fill="none" xmlns="http://www.w3.org/2000/svg">
<path fill-rule="evenodd" clip-rule="evenodd" d="M12 4C7.584 4 4 7.584 4 12C4 16.416 7.584 20 12 20C16.416 20 20 16.416 20 12C20 7.584 16.416 4 12 4ZM15.2 12.8H12.8V15.2C12.8 15.64 12.44 16 12 16C11.56 16 11.2 15.64 11.2 15.2V12.8H8.8C8.36 12.8 8 12.44 8 12C8 11.56 8.36 11.2 8.8 11.2H11.2V8.8C11.2 8.36 11.56 8 12 8C12.44 8 12.8 8.36 12.8 8.8V11.2H15.2C15.64 11.2 16 11.56 16 12C16 12.44 15.64 12.8 15.2 12.8Z" fill="#808080"/>
</svg>
