<svg width="24" height="24" viewBox="0 0 24 24" fill="none" xmlns="http://www.w3.org/2000/svg">
<path fill-rule="evenodd" clip-rule="evenodd" d="M11.9999 4C8.9119 4 6.3999 6.512 6.3999 9.6C6.3999 12.936 9.9359 17.536 11.3919 19.288C11.7119 19.672 12.2959 19.672 12.6159 19.288C14.0639 17.536 17.5999 12.936 17.5999 9.6C17.5999 6.512 15.0879 4 11.9999 4ZM14.3999 10.4H12.7999V12C12.7999 12.44 12.4399 12.8 11.9999 12.8C11.5599 12.8 11.1999 12.44 11.1999 12V10.4H9.5999C9.1599 10.4 8.7999 10.04 8.7999 9.6C8.7999 9.16 9.1599 8.8 9.5999 8.8H11.1999V7.2C11.1999 6.76 11.5599 6.4 11.9999 6.4C12.4399 6.4 12.7999 6.76 12.7999 7.2V8.8H14.3999C14.8399 8.8 15.1999 9.16 15.1999 9.6C15.1999 10.04 14.8399 10.4 14.3999 10.4Z" fill="#808080"/>
</svg>
