<svg width="24" height="24" viewBox="0 0 24 24" fill="none" xmlns="http://www.w3.org/2000/svg">
<path fill-rule="evenodd" clip-rule="evenodd" d="M5.59995 9.6C5.59995 10.04 5.95995 10.4 6.39995 10.4C6.83995 10.4 7.19995 10.04 7.19995 9.6V8H8.79995C9.23995 8 9.59995 7.64 9.59995 7.2C9.59995 6.76 9.23995 6.4 8.79995 6.4H7.19995V4.8C7.19995 4.36 6.83995 4 6.39995 4C5.95995 4 5.59995 4.36 5.59995 4.8V6.4H3.99995C3.55995 6.4 3.19995 6.76 3.19995 7.2C3.19995 7.64 3.55995 8 3.99995 8H5.59995V9.6ZM13.6 12C12.7425 12 11.9502 12.4574 11.5215 13.2C11.0928 13.9426 11.0928 14.8574 11.5215 15.6C11.9502 16.3426 12.7425 16.8 13.6 16.8C14.4574 16.8 15.2497 16.3426 15.6784 15.6C16.1071 14.8574 16.1071 13.9426 15.6784 13.2C15.2497 12.4574 14.4574 12 13.6 12ZM20 8H17.464L16.472 6.92C16.176 6.592 15.744 6.4 15.296 6.4H10.176C10.312 6.64 10.4 6.904 10.4 7.2C10.4 8.08 9.67995 8.8 8.79995 8.8H7.99995V9.6C7.99995 10.48 7.27995 11.2 6.39995 11.2C6.10395 11.2 5.83995 11.112 5.59995 10.976V19.2C5.59995 20.08 6.31995 20.8 7.19995 20.8H20C20.88 20.8 21.6 20.08 21.6 19.2V9.6C21.6 8.72 20.88 8 20 8ZM13.6 18.4C11.392 18.4 9.59995 16.608 9.59995 14.4C9.59995 12.192 11.392 10.4 13.6 10.4C15.808 10.4 17.6 12.192 17.6 14.4C17.6 16.608 15.808 18.4 13.6 18.4Z" fill="#808080"/>
</svg>
