<svg width="24" height="24" viewBox="0 0 24 24" fill="none" xmlns="http://www.w3.org/2000/svg">
<path fill-rule="evenodd" clip-rule="evenodd" d="M20 5.6C20 4.72 19.28 4 18.4 4H5.6C4.72 4 4 4.72 4 5.6V15.2C4 16.08 4.72 16.8 5.6 16.8H16.8L20 20V5.6ZM15.2 11.2H12.8V13.6C12.8 14.04 12.44 14.4 12 14.4C11.56 14.4 11.2 14.04 11.2 13.6V11.2H8.8C8.36 11.2 8 10.84 8 10.4C8 9.96 8.36 9.6 8.8 9.6H11.2V7.2C11.2 6.76 11.56 6.4 12 6.4C12.44 6.4 12.8 6.76 12.8 7.2V9.6H15.2C15.64 9.6 16 9.96 16 10.4C16 10.84 15.64 11.2 15.2 11.2Z" fill="#808080"/>
</svg>
