<svg width="24" height="24" viewBox="0 0 24 24" fill="none" xmlns="http://www.w3.org/2000/svg">
<path fill-rule="evenodd" clip-rule="evenodd" d="M12 4C7.592 4 4 7.592 4 12C4 16.408 7.592 20 12 20C16.408 20 20 16.408 20 12C20 7.592 16.408 4 12 4ZM12 18.4C8.472 18.4 5.6 15.528 5.6 12C5.6 8.472 8.472 5.6 12 5.6C15.528 5.6 18.4 8.472 18.4 12C18.4 15.528 15.528 18.4 12 18.4ZM14.4 12C14.4 13.328 13.328 14.4 12 14.4C10.672 14.4 9.6 13.328 9.6 12C9.6 10.672 10.672 9.6 12 9.6C13.328 9.6 14.4 10.672 14.4 12Z" fill="#808080"/>
</svg>
