<svg width="24" height="24" viewBox="0 0 24 24" fill="none" xmlns="http://www.w3.org/2000/svg">
<path fill-rule="evenodd" clip-rule="evenodd" d="M19.1761 17.76C19.3201 18.528 18.7361 19.2 18.0001 19.2H15.8481C14.8081 19.2 14.0401 18.224 14.2961 17.208L15.2001 13.6H10.4001C9.0801 13.6 8.0001 12.52 8.0001 11.2V4.79999H12.8001V9.59999H16.8001C17.6801 9.59999 18.4001 10.32 18.4001 11.2L16.8001 16.8H17.9521C18.5361 16.8 19.0641 17.192 19.1761 17.76ZM7.2001 12V5.59999C7.2001 5.15999 6.8401 4.79999 6.4001 4.79999C5.9601 4.79999 5.6001 5.15999 5.6001 5.59999V12C5.6001 14.208 7.3921 16 9.6001 16H12.0001C12.4401 16 12.8001 15.64 12.8001 15.2C12.8001 14.76 12.4401 14.4 12.0001 14.4H9.6001C8.2721 14.4 7.2001 13.328 7.2001 12Z" fill="#808080"/>
</svg>
