<svg width="24" height="24" viewBox="0 0 24 24" fill="none" xmlns="http://www.w3.org/2000/svg">
<path fill-rule="evenodd" clip-rule="evenodd" d="M6.40005 12V5.59999C6.40005 5.15999 6.04005 4.79999 5.60005 4.79999C5.16005 4.79999 4.80005 5.15999 4.80005 5.59999V12C4.80005 14.208 6.59205 16 8.80005 16H12.8C13.24 16 13.6 15.64 13.6 15.2C13.6 14.76 13.24 14.4 12.8 14.4H8.80005C7.47205 14.4 6.40005 13.328 6.40005 12ZM18.8 16.8H17.6V11.2C17.6 10.32 16.88 9.59999 16 9.59999H12V4.79999H7.20005V11.2C7.20005 12.52 8.28005 13.6 9.60005 13.6H15.2V17.6C15.2 18.48 15.92 19.2 16.8 19.2H18.8C19.464 19.2 20 18.664 20 18C20 17.336 19.464 16.8 18.8 16.8Z" fill="#808080"/>
</svg>
