<svg width="24" height="24" viewBox="0 0 24 24" fill="none" xmlns="http://www.w3.org/2000/svg">
<path fill-rule="evenodd" clip-rule="evenodd" d="M20 11.2V12.8H9.6V9.6C9.6 8.72 10.32 8 11.2 8H16.8C18.568 8 20 9.432 20 11.2ZM4 14.4C4 14.84 4.36 15.2 4.8 15.2H8.8V16C8.8 16.44 9.16 16.8 9.6 16.8H14.4C14.84 16.8 15.2 16.44 15.2 16V15.2H19.2C19.64 15.2 20 14.84 20 14.4C20 13.96 19.64 13.6 19.2 13.6H4.8C4.36 13.6 4 13.96 4 14.4ZM8.112 12.08C9.04 11.128 9.024 9.616 8.08 8.688C7.128 7.76 5.616 7.776 4.688 8.72C3.76 9.672 3.776 11.184 4.72 12.112C5.672 13.04 7.184 13.024 8.112 12.08Z" fill="#808080"/>
</svg>
