<svg width="24" height="24" viewBox="0 0 24 24" fill="none" xmlns="http://www.w3.org/2000/svg">
<path fill-rule="evenodd" clip-rule="evenodd" d="M4.79995 12V5.59999C4.79995 5.15999 4.43995 4.79999 3.99995 4.79999C3.55995 4.79999 3.19995 5.15999 3.19995 5.59999V12C3.19995 14.208 4.99195 16 7.19995 16H11.2C11.64 16 12 15.64 12 15.2C12 14.76 11.64 14.4 11.2 14.4H7.19995C5.87195 14.4 4.79995 13.328 4.79995 12ZM19.864 16.192C19.56 15.616 18.832 15.416 18.24 15.688L17.368 16.088L14.64 10.504C14.368 9.95999 13.816 9.59999 13.208 9.59999H10.4V4.79999H5.59995V11.2C5.59995 12.528 6.67195 13.6 7.99995 13.6H13.6L15.648 17.8C16.032 18.584 16.96 18.912 17.752 18.552L19.312 17.84C19.92 17.552 20.184 16.8 19.864 16.192Z" fill="#808080"/>
</svg>
