<svg width="24" height="24" viewBox="0 0 24 24" fill="none" xmlns="http://www.w3.org/2000/svg">
<path fill-rule="evenodd" clip-rule="evenodd" d="M7.99995 12.8C9.31995 12.8 10.4 11.72 10.4 10.4C10.4 9.08 9.31995 8 7.99995 8C6.67995 8 5.59995 9.08 5.59995 10.4C5.59995 11.72 6.67995 12.8 7.99995 12.8ZM17.6 8H12.8C11.92 8 11.2 8.72 11.2 9.6V13.6H4.79995V8.8C4.79995 8.36 4.43995 8 3.99995 8C3.55995 8 3.19995 8.36 3.19995 8.8V14.4C3.19995 15.28 3.91995 16 4.79995 16H19.2C20.08 16 20.8 15.28 20.8 14.4V11.2C20.8 9.432 19.368 8 17.6 8Z" fill="#808080"/>
</svg>
