<svg width="24" height="24" viewBox="0 0 24 24" fill="none" xmlns="http://www.w3.org/2000/svg">
<path fill-rule="evenodd" clip-rule="evenodd" d="M20.3726 14.2304L19.8206 15.7424L9.93257 12.1664L11.0446 9.13443C11.3486 8.31043 12.2606 7.88643 13.0926 8.18243L18.4446 10.1104C20.1246 10.7184 20.9886 12.5584 20.3726 14.2304ZM4.53257 12.7824L8.97257 14.3824V17.1984C8.97257 17.6384 9.33257 17.9984 9.77257 17.9984H14.5726C15.0126 17.9984 15.3726 17.6384 15.3726 17.1984V16.6944L18.2366 17.7264C18.6526 17.8784 19.1166 17.6624 19.2686 17.2464C19.4206 16.8304 19.2046 16.3664 18.7886 16.2144L5.07657 11.2704C4.66057 11.1184 4.19657 11.3344 4.04457 11.7504C3.90057 12.1664 4.11657 12.6304 4.53257 12.7824ZM8.41257 10.9584C9.60457 10.3824 10.1086 8.95043 9.54057 7.75843C8.96457 6.56643 7.53257 6.06243 6.33257 6.63843C5.14057 7.20643 4.63657 8.63843 5.21257 9.83843C5.78057 11.0304 7.21257 11.5344 8.41257 10.9584Z" fill="#808080"/>
</svg>
