<svg width="24" height="24" viewBox="0 0 24 24" fill="none" xmlns="http://www.w3.org/2000/svg">
<path fill-rule="evenodd" clip-rule="evenodd" d="M6.50329 7.71149C5.78329 7.19949 5.60729 6.20749 6.11129 5.47949C6.61529 4.75949 7.61529 4.58349 8.34329 5.08749C9.06329 5.59949 9.23929 6.59149 8.73529 7.31949C8.22329 8.03949 7.23129 8.21549 6.50329 7.71149ZM15.0233 19.1995C15.0233 18.7595 14.6633 18.3995 14.2233 18.3995H9.36729C8.18329 18.3995 7.17529 17.5355 6.99929 16.3675L5.55129 9.42349C5.47929 9.06349 5.15929 8.79949 4.78329 8.79949C4.28729 8.79949 3.91929 9.25549 4.01529 9.74349L5.41529 16.6075C5.71929 18.5595 7.39929 19.9995 9.37529 19.9995H14.2233C14.6633 19.9995 15.0233 19.6395 15.0233 19.1995ZM14.6553 15.1995H11.3033L10.4793 11.9195C11.5033 12.4955 12.5833 12.9435 13.7593 12.9595C14.2233 12.9675 14.5993 12.5675 14.5993 12.1035C14.5993 11.6315 14.2073 11.2715 13.7353 11.2555C12.6873 11.2235 11.6313 10.8075 10.8473 10.1915L9.53529 9.17549C9.35129 9.03149 9.14329 8.93549 8.92729 8.87149C8.67129 8.79949 8.39929 8.77549 8.13529 8.82349H8.11929C7.13529 8.99949 6.47929 9.93549 6.64729 10.9115L7.72729 15.6475C7.95129 16.7835 8.93529 17.5995 10.0873 17.5995H15.5673L18.0393 19.5355C18.3753 19.7995 18.8553 19.7675 19.1513 19.4715C19.5113 19.1115 19.4713 18.5275 19.0713 18.2155L15.6393 15.5355C15.3593 15.3195 15.0153 15.1995 14.6553 15.1995Z" fill="#808080"/>
</svg>
