<svg width="24" height="24" viewBox="0 0 24 24" fill="none" xmlns="http://www.w3.org/2000/svg">
<path fill-rule="evenodd" clip-rule="evenodd" d="M8.4721 6.732C7.8481 6.108 7.8481 5.092 8.4721 4.468C9.0961 3.844 10.1121 3.844 10.7361 4.468C11.3601 5.092 11.3601 6.108 10.7361 6.732C10.1041 7.364 9.0961 7.364 8.4721 6.732ZM7.2001 15.204V8.804C7.2001 8.364 6.8401 8.004 6.4001 8.004C5.9601 8.004 5.6001 8.364 5.6001 8.804V15.204C5.6001 17.412 7.3921 19.204 9.6001 19.204H13.6001C14.0401 19.204 14.4001 18.844 14.4001 18.404C14.4001 17.964 14.0401 17.604 13.6001 17.604H9.6001C8.2721 17.604 7.2001 16.532 7.2001 15.204ZM17.8241 17.884L14.8081 14.868C14.5121 14.572 14.1041 14.404 13.6801 14.404H11.6001V11.46C12.4721 12.172 13.7281 12.82 14.9601 13.076C15.4961 13.188 16.0001 12.788 16.0001 12.244C16.0001 11.82 15.6881 11.476 15.2641 11.404C14.1281 11.212 12.9601 10.596 12.2641 9.828L11.1441 8.588C10.9921 8.42 10.8001 8.284 10.5921 8.188C10.3601 8.076 10.0961 8.004 9.8241 8.004H9.8001C8.8081 8.004 8.0001 8.812 8.0001 9.804V14.404C8.0001 15.732 9.0721 16.804 10.4001 16.804H14.4561L16.6801 19.028C16.9921 19.34 17.5121 19.34 17.8241 19.028C18.1441 18.716 18.1441 18.204 17.8241 17.884Z" fill="#808080"/>
</svg>
