<svg width="24" height="24" viewBox="0 0 24 24" fill="none" xmlns="http://www.w3.org/2000/svg">
<path fill-rule="evenodd" clip-rule="evenodd" d="M18.912 14.864C19.448 15.032 20 14.632 20 14.064C20 13.776 19.848 13.512 19.608 13.352L13.6 9.6V5.2C13.6 4.536 13.064 4 12.4 4C11.736 4 11.2 4.536 11.2 5.2V7.688L18.12 14.608L18.912 14.864ZM18.184 19.2L19.312 18.072L6.72805 5.488L5.60005 6.616L9.59205 10.608L5.19205 13.36C4.95205 13.504 4.80005 13.776 4.80005 14.064C4.80005 14.624 5.34405 15.032 5.88805 14.864L11.2 13.2V17.6L9.76005 18.68C9.65605 18.752 9.60005 18.872 9.60005 19V19.472C9.60005 19.736 9.85605 19.928 10.112 19.856L12.4 19.2L14.688 19.856C14.944 19.928 15.2 19.736 15.2 19.472V19C15.2 18.872 15.144 18.752 15.04 18.68L13.6 17.6V14.616L18.184 19.2Z" fill="#808080"/>
</svg>
