<svg width="24" height="24" viewBox="0 0 24 24" fill="none" xmlns="http://www.w3.org/2000/svg">
<path fill-rule="evenodd" clip-rule="evenodd" d="M9.12801 20H14.864C15.576 20 15.936 19.136 15.432 18.632L12.56 15.76C12.4105 15.6102 12.2076 15.526 11.996 15.526C11.7844 15.526 11.5815 15.6102 11.432 15.76L8.56001 18.632C8.06401 19.136 8.41601 20 9.12801 20ZM19.2 4.79999H4.80001C3.92001 4.79999 3.20001 5.51999 3.20001 6.39999V16C3.20001 16.88 3.92001 17.6 4.80001 17.6H7.20001C7.64001 17.6 8.00001 17.24 8.00001 16.8C8.00001 16.36 7.64001 16 7.20001 16H5.60001C5.16001 16 4.80001 15.64 4.80001 15.2V7.19999C4.80001 6.75999 5.16001 6.39999 5.60001 6.39999H18.4C18.84 6.39999 19.2 6.75999 19.2 7.19999V15.2C19.2 15.64 18.84 16 18.4 16H16.8C16.36 16 16 16.36 16 16.8C16 17.24 16.36 17.6 16.8 17.6H19.2C20.08 17.6 20.8 16.88 20.8 16V6.39999C20.8 5.51999 20.08 4.79999 19.2 4.79999Z" fill="#808080"/>
</svg>
