<svg width="24" height="24" viewBox="0 0 24 24" fill="none" xmlns="http://www.w3.org/2000/svg">
<path fill-rule="evenodd" clip-rule="evenodd" d="M20.328 10.728L16.464 6.86402C16.168 6.56802 15.76 6.40002 15.336 6.40002H4.79995C3.91995 6.40002 3.19995 7.11202 3.19995 8.00002V13.6C3.19995 14.48 3.91995 15.2 4.79995 15.2C4.79995 16.528 5.87195 17.6 7.19995 17.6C8.52795 17.6 9.59995 16.528 9.59995 15.2H14.4C14.4 16.528 15.472 17.6 16.8 17.6C18.128 17.6 19.2 16.528 19.2 15.2C20.08 15.2 20.8 14.48 20.8 13.6V11.864C20.8 11.44 20.632 11.032 20.328 10.728ZM4.79995 10.4V8.80002C4.79995 8.36002 5.15995 8.00002 5.59995 8.00002H7.99995V11.2H5.59995C5.15995 11.2 4.79995 10.84 4.79995 10.4ZM7.19995 16.2C6.64795 16.2 6.19995 15.752 6.19995 15.2C6.19995 14.648 6.64795 14.2 7.19995 14.2C7.75195 14.2 8.19995 14.648 8.19995 15.2C8.19995 15.752 7.75195 16.2 7.19995 16.2ZM12.8 11.2H9.59995V8.00002H12.8V11.2ZM16.8 16.2C16.248 16.2 15.8 15.752 15.8 15.2C15.8 14.648 16.248 14.2 16.8 14.2C17.352 14.2 17.8 14.648 17.8 15.2C17.8 15.752 17.352 16.2 16.8 16.2ZM14.4 11.2V8.00002H15.2L18.4 11.2H14.4Z" fill="#808080"/>
</svg>
