<svg width="24" height="24" viewBox="0 0 24 24" fill="none" xmlns="http://www.w3.org/2000/svg">
<path fill-rule="evenodd" clip-rule="evenodd" d="M13.9811 10.3131L10.4611 13.8491L9.18111 12.5691C8.94911 12.3371 8.56511 12.3371 8.33311 12.5691C8.10111 12.8011 8.10111 13.1851 8.33311 13.4171L10.0291 15.1131C10.2611 15.3451 10.6451 15.3451 10.8771 15.1131L14.8291 11.1611C15.0611 10.9291 15.0611 10.5451 14.8291 10.3131C14.5971 10.0811 14.2131 10.0811 13.9811 10.3131ZM18.9731 6.23311L16.5091 4.18511C16.1731 3.90511 15.6691 3.94511 15.3811 4.28911C15.1011 4.62511 15.1491 5.12911 15.4851 5.41711L17.9411 7.46511C18.2771 7.74511 18.7811 7.70511 19.0691 7.36111C19.3571 7.02511 19.3091 6.52111 18.9731 6.23311ZM5.30911 7.46511L7.76511 5.41711C8.10911 5.12911 8.15711 4.62511 7.86911 4.28911C7.58911 3.94511 7.08511 3.90511 6.74911 4.18511L4.28511 6.23311C3.94911 6.52111 3.90111 7.02511 4.18911 7.36111C4.46911 7.70511 4.97311 7.74511 5.30911 7.46511ZM11.6291 5.42511C7.65311 5.42511 4.42911 8.64911 4.42911 12.6251C4.42911 16.6011 7.65311 19.8251 11.6291 19.8251C15.6051 19.8251 18.8291 16.6011 18.8291 12.6251C18.8291 8.64911 15.6051 5.42511 11.6291 5.42511ZM11.6291 18.2251C8.54111 18.2251 6.02911 15.7131 6.02911 12.6251C6.02911 9.53711 8.54111 7.02511 11.6291 7.02511C14.7171 7.02511 17.2291 9.53711 17.2291 12.6251C17.2291 15.7131 14.7171 18.2251 11.6291 18.2251Z" fill="#808080"/>
</svg>
