<svg width="24" height="24" viewBox="0 0 24 24" fill="none" xmlns="http://www.w3.org/2000/svg">
<path fill-rule="evenodd" clip-rule="evenodd" d="M10.426 7.26319C10.922 7.11919 11.45 7.03119 11.994 7.03119C15.082 7.03119 17.594 9.54319 17.594 12.6312C17.594 13.1752 17.506 13.7032 17.362 14.1992L18.61 15.4472C18.986 14.5832 19.194 13.6312 19.194 12.6312C19.194 8.65519 15.97 5.43119 11.994 5.43119C10.994 5.43119 10.042 5.63919 9.17 6.00719L10.426 7.26319ZM5.362 4.46319C5.058 4.15919 4.562 4.15919 4.25 4.46319L4.234 4.48719C3.922 4.79919 3.922 5.29519 4.234 5.59919L4.778 6.14319L4.642 6.25519C4.306 6.52719 4.266 7.02319 4.538 7.35919L4.562 7.38319C4.842 7.71919 5.33 7.75919 5.666 7.47919L5.914 7.27919L6.554 7.91919C5.458 9.18319 4.794 10.8312 4.794 12.6312C4.794 16.6072 8.018 19.8312 11.994 19.8312C13.794 19.8312 15.442 19.1672 16.706 18.0712L17.834 19.1992C18.138 19.5032 18.634 19.5032 18.946 19.1992L18.97 19.1752C19.274 18.8712 19.274 18.3752 18.97 18.0632L5.362 4.46319ZM11.994 18.2312C8.906 18.2312 6.394 15.7192 6.394 12.6312C6.394 11.2712 6.882 10.0232 7.69 9.05519L15.57 16.9352C14.602 17.7432 13.354 18.2312 11.994 18.2312ZM18.322 7.47919C18.658 7.75919 19.146 7.71119 19.426 7.38319L19.45 7.35919C19.73 7.02319 19.682 6.53519 19.354 6.25519L16.874 4.18319C16.538 3.90319 16.05 3.95119 15.77 4.27919L15.746 4.30319C15.466 4.63919 15.514 5.12719 15.842 5.40719L18.322 7.47919ZM8.338 5.17519C8.482 4.90319 8.458 4.55919 8.25 4.30319L8.226 4.27919C7.986 3.99119 7.586 3.93519 7.266 4.10319L8.338 5.17519Z" fill="#808080"/>
</svg>
