<svg width="24" height="24" viewBox="0 0 24 24" fill="none" xmlns="http://www.w3.org/2000/svg">
<path fill-rule="evenodd" clip-rule="evenodd" d="M18.9731 6.23311L16.5091 4.18511C16.1731 3.90511 15.6691 3.94511 15.3811 4.28911C15.1011 4.62511 15.1491 5.12911 15.4851 5.41711L17.9411 7.46511C18.2771 7.74511 18.7811 7.70511 19.0691 7.36111C19.3571 7.02511 19.3091 6.52111 18.9731 6.23311ZM5.30911 7.46511L7.76511 5.41711C8.10911 5.12911 8.15711 4.62511 7.86911 4.28911C7.58911 3.94511 7.08511 3.90511 6.74911 4.18511L4.28511 6.23311C3.94911 6.52111 3.90111 7.02511 4.18911 7.36111C4.46911 7.70511 4.97311 7.74511 5.30911 7.46511ZM11.6291 5.42511C7.65311 5.42511 4.42911 8.64911 4.42911 12.6251C4.42911 16.6011 7.65311 19.8251 11.6291 19.8251C15.6051 19.8251 18.8291 16.6011 18.8291 12.6251C18.8291 8.64911 15.6051 5.42511 11.6291 5.42511ZM11.6291 18.2251C8.54111 18.2251 6.02911 15.7131 6.02911 12.6251C6.02911 9.53711 8.54111 7.02511 11.6291 7.02511C14.7171 7.02511 17.2291 9.53711 17.2291 12.6251C17.2291 15.7131 14.7171 18.2251 11.6291 18.2251ZM14.0291 11.8251H12.4291V10.2251C12.4291 9.78511 12.0691 9.42511 11.6291 9.42511C11.1891 9.42511 10.8291 9.78511 10.8291 10.2251V11.8251H9.22911C8.78911 11.8251 8.42911 12.1851 8.42911 12.6251C8.42911 13.0651 8.78911 13.4251 9.22911 13.4251H10.8291V15.0251C10.8291 15.4651 11.1891 15.8251 11.6291 15.8251C12.0691 15.8251 12.4291 15.4651 12.4291 15.0251V13.4251H14.0291C14.4691 13.4251 14.8291 13.0651 14.8291 12.6251C14.8291 12.1851 14.4691 11.8251 14.0291 11.8251Z" fill="#808080"/>
</svg>
