<svg width="24" height="24" viewBox="0 0 24 24" fill="none" xmlns="http://www.w3.org/2000/svg">
<path fill-rule="evenodd" clip-rule="evenodd" d="M12 4C7.584 4 4 7.584 4 12C4 16.416 7.584 20 12 20C16.416 20 20 16.416 20 12C20 7.584 16.416 4 12 4ZM12 15.6C10.008 15.6 8.4 13.992 8.4 12C8.4 10.008 10.008 8.4 12 8.4C13.992 8.4 15.6 10.008 15.6 12C15.6 13.992 13.992 15.6 12 15.6ZM12 11.2C11.56 11.2 11.2 11.56 11.2 12C11.2 12.44 11.56 12.8 12 12.8C12.44 12.8 12.8 12.44 12.8 12C12.8 11.56 12.44 11.2 12 11.2Z" fill="#808080"/>
</svg>
