<svg width="24" height="24" viewBox="0 0 24 24" fill="none" xmlns="http://www.w3.org/2000/svg">
<path fill-rule="evenodd" clip-rule="evenodd" d="M17.6 4.8H6.39999C5.51999 4.8 4.79999 5.52 4.79999 6.4V12C4.79999 12.88 5.51999 13.6 6.39999 13.6H17.6C18.48 13.6 19.2 12.88 19.2 12V6.4C19.2 5.52 18.48 4.8 17.6 4.8ZM17.6 9.6H15.088C14.712 9.6 14.416 9.864 14.312 10.224C14.024 11.232 13.08 12 12 12C10.92 12 9.97599 11.232 9.68799 10.224C9.58399 9.864 9.28799 9.6 8.91199 9.6H6.39999V7.2C6.39999 6.76 6.75999 6.4 7.19999 6.4H16.8C17.24 6.4 17.6 6.76 17.6 7.2V9.6ZM15.096 15.2H18.4C18.84 15.2 19.2 15.56 19.2 16V17.6C19.2 18.48 18.48 19.2 17.6 19.2H6.39999C5.51999 19.2 4.79999 18.48 4.79999 17.6V16C4.79999 15.56 5.15999 15.2 5.59999 15.2H8.90399C9.27999 15.2 9.58399 15.472 9.68799 15.84C9.96799 16.856 10.896 17.6 12 17.6C13.104 17.6 14.032 16.856 14.312 15.84C14.416 15.472 14.72 15.2 15.096 15.2Z" fill="#808080"/>
</svg>
