<svg width="24" height="24" viewBox="0 0 24 24" fill="none" xmlns="http://www.w3.org/2000/svg">
<path fill-rule="evenodd" clip-rule="evenodd" d="M5.60001 6.00001V8.80001L8.80001 5.60001H6.00001C5.77601 5.60001 5.60001 5.77601 5.60001 6.00001ZM15.2 5.60001L18.4 8.80001V6.00001C18.4 5.77601 18.224 5.60001 18 5.60001H15.2ZM18.4 18V15.2L15.2 18.4H18C18.224 18.4 18.4 18.224 18.4 18ZM6.00001 18.4H8.80001L5.60001 15.2V18C5.60001 18.224 5.77601 18.4 6.00001 18.4ZM17.6 12C17.6 8.90401 15.096 6.40001 12 6.40001C8.90401 6.40001 6.40001 8.90401 6.40001 12C6.40001 15.096 8.90401 17.6 12 17.6C15.096 17.6 17.6 15.096 17.6 12ZM12 16C9.79201 16 8.00001 14.208 8.00001 12C8.00001 9.79201 9.79201 8.00001 12 8.00001C14.208 8.00001 16 9.79201 16 12C16 14.208 14.208 16 12 16Z" fill="#808080"/>
</svg>
