<svg width="24" height="24" viewBox="0 0 24 24" fill="none" xmlns="http://www.w3.org/2000/svg">
<path fill-rule="evenodd" clip-rule="evenodd" d="M18.5759 8.192C16.9759 7.712 15.3279 8.16 14.2639 9.224L11.9999 11.232L10.7839 12.304H10.7919L8.6399 14.216C7.9919 14.864 7.0799 15.136 6.1439 14.952C5.1439 14.752 4.3199 13.952 4.0879 12.96C3.6719 11.176 5.0159 9.6 6.7199 9.6C7.4479 9.6 8.1279 9.88 8.6719 10.424L9.0479 10.752C9.3519 11.024 9.8079 11.024 10.1119 10.752C10.4719 10.432 10.4719 9.872 10.1119 9.552L9.7759 9.264C8.9599 8.448 7.8719 8 6.7199 8C4.3359 8 2.3999 9.936 2.3999 12.304C2.3999 14.672 4.3359 16.608 6.7199 16.608C7.8719 16.608 8.9599 16.16 9.7359 15.384L11.9999 13.384L12.0079 13.392L13.2159 12.304H13.2079L15.3599 10.392C16.0079 9.744 16.9199 9.472 17.8559 9.656C18.8559 9.856 19.6799 10.656 19.9119 11.648C20.3279 13.432 18.9839 15.008 17.2799 15.008C16.5599 15.008 15.8719 14.728 15.3279 14.184L14.9439 13.848C14.6399 13.576 14.1839 13.576 13.8799 13.848C13.5199 14.168 13.5199 14.728 13.8799 15.048L14.2159 15.344C15.0319 16.152 16.1119 16.6 17.2719 16.6C19.8879 16.6 21.9599 14.28 21.5359 11.6C21.2959 10.008 20.1199 8.648 18.5759 8.192Z" fill="#808080"/>
</svg>
