<svg width="24" height="24" viewBox="0 0 24 24" fill="none" xmlns="http://www.w3.org/2000/svg">
<path fill-rule="evenodd" clip-rule="evenodd" d="M12.5725 4.02054C7.70054 3.67654 3.67654 7.70054 4.02054 12.5725C4.30854 16.8045 8.00454 19.9965 12.2445 19.9965H15.1965C15.6365 19.9965 15.9965 19.6365 15.9965 19.1965C15.9965 18.7565 15.6365 18.3965 15.1965 18.3965H12.2605C9.27654 18.3965 6.54054 16.4605 5.79654 13.5725C4.60454 8.93254 8.92454 4.60454 13.5645 5.80454C16.4605 6.54054 18.3965 9.27654 18.3965 12.2605V13.1405C18.3965 13.7725 17.8285 14.3965 17.1965 14.3965C16.5645 14.3965 15.9965 13.7725 15.9965 13.1405V12.1405C15.9965 10.1325 14.5725 8.32454 12.5885 8.04454C9.86854 7.65254 7.57254 10.0045 8.06054 12.7405C8.33254 14.2685 9.52454 15.5325 11.0365 15.8925C12.5085 16.2365 13.9085 15.7645 14.8285 14.8285C15.5405 15.8045 16.9645 16.3165 18.2685 15.7965C19.3405 15.3725 19.9965 14.2765 19.9965 13.1245V12.2525C19.9965 8.00454 16.8045 4.30854 12.5725 4.02054ZM11.9965 14.3965C10.6685 14.3965 9.59654 13.3245 9.59654 11.9965C9.59654 10.6685 10.6685 9.59654 11.9965 9.59654C13.3245 9.59654 14.3965 10.6685 14.3965 11.9965C14.3965 13.3245 13.3245 14.3965 11.9965 14.3965Z" fill="#808080"/>
</svg>
