<svg width="24" height="24" viewBox="0 0 24 24" fill="none" xmlns="http://www.w3.org/2000/svg">
<path fill-rule="evenodd" clip-rule="evenodd" d="M7.2 16.8C7.2 17.24 7.56 17.6 8 17.6H8.8V20.4C8.8 21.064 9.336 21.6 10 21.6C10.664 21.6 11.2 21.064 11.2 20.4V17.6H12.8V20.4C12.8 21.064 13.336 21.6 14 21.6C14.664 21.6 15.2 21.064 15.2 20.4V17.6H16C16.44 17.6 16.8 17.24 16.8 16.8V8.79999H7.2V16.8ZM5.2 8.79999C4.536 8.79999 4 9.33599 4 9.99999V15.6C4 16.264 4.536 16.8 5.2 16.8C5.864 16.8 6.4 16.264 6.4 15.6V9.99999C6.4 9.33599 5.864 8.79999 5.2 8.79999ZM18.8 8.79999C18.136 8.79999 17.6 9.33599 17.6 9.99999V15.6C17.6 16.264 18.136 16.8 18.8 16.8C19.464 16.8 20 16.264 20 15.6V9.99999C20 9.33599 19.464 8.79999 18.8 8.79999ZM14.824 4.12799L15.864 3.08799C16.024 2.92799 16.024 2.67999 15.864 2.51999C15.704 2.35999 15.456 2.35999 15.296 2.51999L14.112 3.70399C13.48 3.38399 12.76 3.19999 12 3.19999C11.232 3.19999 10.512 3.38399 9.872 3.70399L8.68 2.51999C8.52 2.35999 8.272 2.35999 8.112 2.51999C7.952 2.67999 7.952 2.92799 8.112 3.08799L9.16 4.13599C7.976 5.00799 7.2 6.40799 7.2 7.99999H16.8C16.8 6.40799 16.024 4.99999 14.824 4.12799ZM10.4 6.39999H9.6V5.59999H10.4V6.39999ZM14.4 6.39999H13.6V5.59999H14.4V6.39999Z" fill="#808080"/>
</svg>
