<svg width="24" height="24" viewBox="0 0 24 24" fill="none" xmlns="http://www.w3.org/2000/svg">
<path fill-rule="evenodd" clip-rule="evenodd" d="M18.832 6.584L17.72 5.24C17.504 4.968 17.176 4.8 16.8 4.8H7.20005C6.82405 4.8 6.49605 4.968 6.27205 5.24L5.16805 6.584C4.93605 6.856 4.80005 7.216 4.80005 7.6V17.6C4.80005 18.48 5.52005 19.2 6.40005 19.2H17.6C18.48 19.2 19.2 18.48 19.2 17.6V7.6C19.2 7.216 19.064 6.856 18.832 6.584ZM11.72 16.12L7.60005 12H10.4V10.4H13.6V12H16.4L12.28 16.12C12.128 16.272 11.872 16.272 11.72 16.12ZM6.49605 6.4L7.14405 5.6H16.744L17.496 6.4H6.49605Z" fill="#808080"/>
</svg>
