<svg width="24" height="24" viewBox="0 0 24 24" fill="none" xmlns="http://www.w3.org/2000/svg">
<path fill-rule="evenodd" clip-rule="evenodd" d="M6.4001 12.474H15.3361L11.4321 16.378C11.1201 16.69 11.1201 17.202 11.4321 17.514C11.7441 17.826 12.2481 17.826 12.5601 17.514L17.8321 12.242C18.1441 11.93 18.1441 11.426 17.8321 11.114L12.5681 5.83399C12.4186 5.68419 12.2157 5.60001 12.0041 5.60001C11.7925 5.60001 11.5896 5.68419 11.4401 5.83399C11.1281 6.14599 11.1281 6.64999 11.4401 6.96199L15.3361 10.874H6.4001C5.9601 10.874 5.6001 11.234 5.6001 11.674C5.6001 12.114 5.9601 12.474 6.4001 12.474Z" fill="#808080"/>
</svg>
