<svg width="24" height="24" viewBox="0 0 24 24" fill="none" xmlns="http://www.w3.org/2000/svg">
<path fill-rule="evenodd" clip-rule="evenodd" d="M12.4741 17.266V8.32999L16.3781 12.234C16.6901 12.546 17.2021 12.546 17.5141 12.234C17.8261 11.922 17.8261 11.418 17.5141 11.106L12.2421 5.83399C12.0926 5.68419 11.8897 5.60001 11.6781 5.60001C11.4665 5.60001 11.2636 5.68419 11.1141 5.83399L5.8341 11.098C5.5221 11.41 5.5221 11.914 5.8341 12.226C6.1461 12.538 6.6501 12.538 6.9621 12.226L10.8741 8.32999V17.266C10.8741 17.706 11.2341 18.066 11.6741 18.066C12.1141 18.066 12.4741 17.706 12.4741 17.266Z" fill="#808080"/>
</svg>
