<svg width="24" height="24" viewBox="0 0 24 24" fill="none" xmlns="http://www.w3.org/2000/svg">
<path fill-rule="evenodd" clip-rule="evenodd" d="M10.8741 6.40001V15.336L6.9701 11.432C6.6581 11.12 6.1461 11.12 5.8341 11.432C5.5221 11.744 5.5221 12.248 5.8341 12.56L11.1061 17.832C11.4181 18.144 11.9221 18.144 12.2341 17.832L17.5061 12.56C17.8181 12.248 17.8181 11.744 17.5061 11.432C17.3566 11.2822 17.1537 11.198 16.9421 11.198C16.7305 11.198 16.5276 11.2822 16.3781 11.432L12.4741 15.336V6.40001C12.4741 5.96001 12.1141 5.60001 11.6741 5.60001C11.2341 5.60001 10.8741 5.96001 10.8741 6.40001Z" fill="#808080"/>
</svg>
