<svg width="24" height="24" viewBox="0 0 24 24" fill="none" xmlns="http://www.w3.org/2000/svg">
<path fill-rule="evenodd" clip-rule="evenodd" d="M17.2661 10.874H8.3301L12.2341 6.96999C12.5461 6.65799 12.5461 6.14599 12.2341 5.83399C12.0846 5.68419 11.8817 5.60001 11.6701 5.60001C11.4585 5.60001 11.2556 5.68419 11.1061 5.83399L5.8341 11.106C5.5221 11.418 5.5221 11.922 5.8341 12.234L11.1061 17.506C11.4181 17.818 11.9221 17.818 12.2341 17.506C12.5461 17.194 12.5461 16.69 12.2341 16.378L8.3301 12.474H17.2661C17.7061 12.474 18.0661 12.114 18.0661 11.674C18.0661 11.234 17.7061 10.874 17.2661 10.874Z" fill="#808080"/>
</svg>
