<svg width="24" height="24" viewBox="0 0 24 24" fill="none" xmlns="http://www.w3.org/2000/svg">
<path fill-rule="evenodd" clip-rule="evenodd" d="M19.2 12.8H14.4C13.96 12.8 13.6 12.44 13.6 12C13.6 11.56 13.96 11.2 14.4 11.2H19.2C19.64 11.2 20 11.56 20 12C20 12.44 19.64 12.8 19.2 12.8ZM19.2 8H14.4C13.96 8 13.6 8.36 13.6 8.8C13.6 9.24 13.96 9.6 14.4 9.6H19.2C19.64 9.6 20 9.24 20 8.8C20 8.36 19.64 8 19.2 8ZM14.4 16H19.2C19.64 16 20 15.64 20 15.2C20 14.76 19.64 14.4 19.2 14.4H14.4C13.96 14.4 13.6 14.76 13.6 15.2C13.6 15.64 13.96 16 14.4 16ZM12 9.6V14.4C12 15.28 11.28 16 10.4 16H5.6C4.72 16 4 15.28 4 14.4V9.6C4 8.72 4.72 8 5.6 8H10.4C11.28 8 12 8.72 12 9.6ZM10.32 13.76L9.312 12.416C9.152 12.208 8.84 12.2 8.672 12.408L7.6 13.808L6.92 12.984C6.76 12.784 6.456 12.792 6.296 12.992L5.704 13.752C5.496 14.016 5.688 14.4 6.016 14.4H10C10.328 14.4 10.52 14.024 10.32 13.76Z" fill="#808080"/>
</svg>
