<svg width="24" height="24" viewBox="0 0 24 24" fill="none" xmlns="http://www.w3.org/2000/svg">
<path fill-rule="evenodd" clip-rule="evenodd" d="M16.8 12C16.36 12 16 12.36 16 12.8V14.4H14.4C13.96 14.4 13.6 14.76 13.6 15.2C13.6 15.64 13.96 16 14.4 16H16.8C17.24 16 17.6 15.64 17.6 15.2V12.8C17.6 12.36 17.24 12 16.8 12ZM8.00001 9.6H9.60001C10.04 9.6 10.4 9.24 10.4 8.8C10.4 8.36 10.04 8 9.60001 8H7.20001C6.76001 8 6.40001 8.36 6.40001 8.8V11.2C6.40001 11.64 6.76001 12 7.20001 12C7.64001 12 8.00001 11.64 8.00001 11.2V9.6ZM19.2 4.8H4.80001C3.92001 4.8 3.20001 5.52 3.20001 6.4V17.6C3.20001 18.48 3.92001 19.2 4.80001 19.2H19.2C20.08 19.2 20.8 18.48 20.8 17.6V6.4C20.8 5.52 20.08 4.8 19.2 4.8ZM18.4 17.608H5.60001C5.16001 17.608 4.80001 17.248 4.80001 16.808V7.192C4.80001 6.752 5.16001 6.392 5.60001 6.392H18.4C18.84 6.392 19.2 6.752 19.2 7.192V16.808C19.2 17.248 18.84 17.608 18.4 17.608Z" fill="#808080"/>
</svg>
