<svg width="24" height="24" viewBox="0 0 24 24" fill="none" xmlns="http://www.w3.org/2000/svg">
<path fill-rule="evenodd" clip-rule="evenodd" d="M17.6 4.79999H6.4C5.52 4.79999 4.8 5.51999 4.8 6.39999V17.6C4.8 18.48 5.52 19.2 6.4 19.2H17.6C18.48 19.2 19.2 18.48 19.2 17.6V6.39999C19.2 5.51999 18.48 4.79999 17.6 4.79999ZM8.8 16C8.36 16 8 15.64 8 15.2V11.2C8 10.76 8.36 10.4 8.8 10.4C9.24 10.4 9.6 10.76 9.6 11.2V15.2C9.6 15.64 9.24 16 8.8 16ZM12 16C11.56 16 11.2 15.64 11.2 15.2V8.79999C11.2 8.35999 11.56 7.99999 12 7.99999C12.44 7.99999 12.8 8.35999 12.8 8.79999V15.2C12.8 15.64 12.44 16 12 16ZM15.2 16C14.76 16 14.4 15.64 14.4 15.2V13.6C14.4 13.16 14.76 12.8 15.2 12.8C15.64 12.8 16 13.16 16 13.6V15.2C16 15.64 15.64 16 15.2 16Z" fill="#808080"/>
</svg>
