<svg width="24" height="24" viewBox="0 0 24 24" fill="none" xmlns="http://www.w3.org/2000/svg">
<path fill-rule="evenodd" clip-rule="evenodd" d="M17.6 5.6H14.256C13.92 4.672 13.04 4 12 4C10.96 4 10.08 4.672 9.74399 5.6H6.39999C5.51999 5.6 4.79999 6.32 4.79999 7.2V18.4C4.79999 19.28 5.51999 20 6.39999 20H17.6C18.48 20 19.2 19.28 19.2 18.4V7.2C19.2 6.32 18.48 5.6 17.6 5.6ZM12.8 17.6H11.2V16H12.8V17.6ZM12.8 13.6C12.8 14.04 12.44 14.4 12 14.4C11.56 14.4 11.2 14.04 11.2 13.6V10.4C11.2 9.96 11.56 9.6 12 9.6C12.44 9.6 12.8 9.96 12.8 10.4V13.6ZM12 7.2C11.56 7.2 11.2 6.84 11.2 6.4C11.2 5.96 11.56 5.6 12 5.6C12.44 5.6 12.8 5.96 12.8 6.4C12.8 6.84 12.44 7.2 12 7.2Z" fill="#808080"/>
</svg>
