<svg width="24" height="24" viewBox="0 0 24 24" fill="none" xmlns="http://www.w3.org/2000/svg">
<path fill-rule="evenodd" clip-rule="evenodd" d="M17.6 5.6H14.256C13.92 4.672 13.04 4 12 4C10.96 4 10.08 4.672 9.74399 5.6H6.39999C5.51999 5.6 4.79999 6.32 4.79999 7.2V18.4C4.79999 19.28 5.51999 20 6.39999 20H17.6C18.48 20 19.2 19.28 19.2 18.4V7.2C19.2 6.32 18.48 5.6 17.6 5.6ZM12 5.6C12.44 5.6 12.8 5.96 12.8 6.4C12.8 6.84 12.44 7.2 12 7.2C11.56 7.2 11.2 6.84 11.2 6.4C11.2 5.96 11.56 5.6 12 5.6ZM11.72 17.32L7.99999 13.6H10.4V10.4H13.6V13.6H16L12.28 17.32C12.128 17.472 11.872 17.472 11.72 17.32Z" fill="#808080"/>
</svg>
