<svg width="24" height="24" viewBox="0 0 24 24" fill="none" xmlns="http://www.w3.org/2000/svg">
<path fill-rule="evenodd" clip-rule="evenodd" d="M17.6 4H6.40005C5.52005 4 4.80005 4.72 4.80005 5.6V16.8C4.80005 17.68 5.52005 18.4 6.40005 18.4H9.60005L11.432 20.232C11.744 20.544 12.248 20.544 12.56 20.232L14.4 18.4H17.6C18.48 18.4 19.2 17.68 19.2 16.8V5.6C19.2 4.72 18.48 4 17.6 4ZM13.504 12.704L12 16L10.496 12.704L7.20005 11.2L10.496 9.696L12 6.4L13.504 9.696L16.8 11.2L13.504 12.704Z" fill="#808080"/>
</svg>
