<svg width="24" height="24" viewBox="0 0 24 24" fill="none" xmlns="http://www.w3.org/2000/svg">
<path fill-rule="evenodd" clip-rule="evenodd" d="M17.6 5.6H14.256C13.92 4.672 13.04 4 12 4C10.96 4 10.08 4.672 9.744 5.6H6.4C5.52 5.6 4.8 6.32 4.8 7.2V18.4C4.8 19.28 5.52 20 6.4 20H17.6C18.48 20 19.2 19.28 19.2 18.4V7.2C19.2 6.32 18.48 5.6 17.6 5.6ZM12 5.6C12.44 5.6 12.8 5.96 12.8 6.4C12.8 6.84 12.44 7.2 12 7.2C11.56 7.2 11.2 6.84 11.2 6.4C11.2 5.96 11.56 5.6 12 5.6ZM12 8.8C13.328 8.8 14.4 9.872 14.4 11.2C14.4 12.528 13.328 13.6 12 13.6C10.672 13.6 9.6 12.528 9.6 11.2C9.6 9.872 10.672 8.8 12 8.8ZM16.8 18.4H7.2V17.28C7.2 15.68 10.4 14.8 12 14.8C13.6 14.8 16.8 15.68 16.8 17.28V18.4Z" fill="#808080"/>
</svg>
