<svg width="24" height="24" viewBox="0 0 24 24" fill="none" xmlns="http://www.w3.org/2000/svg">
<path fill-rule="evenodd" clip-rule="evenodd" d="M17.6 5.6H14.256C13.92 4.672 13.04 4 12 4C10.96 4 10.08 4.672 9.744 5.6H6.4C5.52 5.6 4.8 6.32 4.8 7.2V18.4C4.8 19.28 5.52 20 6.4 20H17.6C18.48 20 19.2 19.28 19.2 18.4V7.2C19.2 6.32 18.48 5.6 17.6 5.6ZM12 5.6C12.44 5.6 12.8 5.96 12.8 6.4C12.8 6.84 12.44 7.2 12 7.2C11.56 7.2 11.2 6.84 11.2 6.4C11.2 5.96 11.56 5.6 12 5.6ZM12.8 16.8H8.8C8.36 16.8 8 16.44 8 16C8 15.56 8.36 15.2 8.8 15.2H12.8C13.24 15.2 13.6 15.56 13.6 16C13.6 16.44 13.24 16.8 12.8 16.8ZM15.2 13.6H8.8C8.36 13.6 8 13.24 8 12.8C8 12.36 8.36 12 8.8 12H15.2C15.64 12 16 12.36 16 12.8C16 13.24 15.64 13.6 15.2 13.6ZM15.2 10.4H8.8C8.36 10.4 8 10.04 8 9.6C8 9.16 8.36 8.8 8.8 8.8H15.2C15.64 8.8 16 9.16 16 9.6C16 10.04 15.64 10.4 15.2 10.4Z" fill="#808080"/>
</svg>
