<svg width="24" height="24" viewBox="0 0 24 24" fill="none" xmlns="http://www.w3.org/2000/svg">
<path fill-rule="evenodd" clip-rule="evenodd" d="M17.6 5.6H14.256C13.92 4.672 13.04 4 12 4C10.96 4 10.08 4.672 9.74399 5.6H6.39999C5.51999 5.6 4.79999 6.32 4.79999 7.2V18.4C4.79999 19.28 5.51999 20 6.39999 20H17.6C18.48 20 19.2 19.28 19.2 18.4V7.2C19.2 6.32 18.48 5.6 17.6 5.6ZM12 5.6C12.44 5.6 12.8 5.96 12.8 6.4C12.8 6.84 12.44 7.2 12 7.2C11.56 7.2 11.2 6.84 11.2 6.4C11.2 5.96 11.56 5.6 12 5.6ZM9.83199 16.232L7.75999 14.16C7.61019 14.0105 7.526 13.8076 7.526 13.596C7.526 13.3844 7.61019 13.1815 7.75999 13.032C8.07199 12.72 8.57599 12.72 8.88799 13.032L10.4 14.536L15.104 9.832C15.416 9.52 15.92 9.52 16.232 9.832C16.544 10.144 16.544 10.648 16.232 10.96L10.96 16.232C10.656 16.544 10.144 16.544 9.83199 16.232Z" fill="#808080"/>
</svg>
