<svg width="24" height="24" viewBox="0 0 24 24" fill="none" xmlns="http://www.w3.org/2000/svg">
<path fill-rule="evenodd" clip-rule="evenodd" d="M8.8 10.2C8.8 10.528 9.072 10.8 9.4 10.8H10.6V13.8C10.6 14.128 10.872 14.4 11.2 14.4C11.528 14.4 11.8 14.128 11.8 13.8V10.8H13C13.328 10.8 13.6 10.528 13.6 10.2C13.6 9.87198 13.328 9.59998 13 9.59998H9.4C9.072 9.59998 8.8 9.87198 8.8 10.2ZM7.2 9.59998H4.8C4.36 9.59998 4 9.95998 4 10.4V13.8C4 14.128 4.272 14.4 4.6 14.4C4.928 14.4 5.2 14.128 5.2 13.8V13.2H6.8V13.8C6.8 14.128 7.072 14.4 7.4 14.4C7.728 14.4 8 14.128 8 13.8V10.4C8 9.95998 7.64 9.59998 7.2 9.59998ZM6.8 12H5.2V10.8H6.8V12ZM19.2 9.59998H15.6C15.16 9.59998 14.8 9.95998 14.8 10.4V13.8C14.8 14.128 15.072 14.4 15.4 14.4C15.728 14.4 16 14.128 16 13.8V10.8H16.8V13C16.8 13.328 17.072 13.6 17.4 13.6C17.728 13.6 18 13.328 18 13V10.792H18.8V13.8C18.8 14.128 19.072 14.4 19.4 14.4C19.728 14.4 20 14.128 20 13.8V10.4C20 9.95998 19.64 9.59998 19.2 9.59998Z" fill="#808080"/>
</svg>
