<svg width="24" height="24" viewBox="0 0 24 24" fill="none" xmlns="http://www.w3.org/2000/svg">
<path fill-rule="evenodd" clip-rule="evenodd" d="M16.2031 15.6H7.73909C6.06709 15.6 4.57909 14.376 4.41909 12.712C4.23509 10.808 5.73109 9.2 7.60309 9.2H17.4911C18.5391 9.2 19.4911 9.952 19.5951 10.992C19.7151 12.192 18.7791 13.2 17.6031 13.2H9.20309C8.76309 13.2 8.40309 12.84 8.40309 12.4C8.40309 11.96 8.76309 11.6 9.20309 11.6H16.2031C16.5311 11.6 16.8031 11.328 16.8031 11C16.8031 10.672 16.5311 10.4 16.2031 10.4H9.31509C8.26709 10.4 7.31509 11.152 7.21109 12.192C7.09109 13.392 8.02709 14.4 9.20309 14.4H17.4671C19.1391 14.4 20.6271 13.176 20.7871 11.512C20.9711 9.6 19.4751 8 17.6031 8H7.78709C5.49109 8 3.43509 9.68 3.21909 11.968C2.97909 14.6 5.02709 16.8 7.60309 16.8H16.2031C16.5311 16.8 16.8031 16.528 16.8031 16.2C16.8031 15.872 16.5311 15.6 16.2031 15.6Z" fill="#808080"/>
</svg>
