<svg width="24" height="24" viewBox="0 0 24 24" fill="none" xmlns="http://www.w3.org/2000/svg">
<path fill-rule="evenodd" clip-rule="evenodd" d="M15.6 7.79933V16.2633C15.6 17.9353 14.376 19.4233 12.712 19.5833C10.8 19.7673 9.2 18.2713 9.2 16.3993V6.51133C9.2 5.46333 9.952 4.51133 10.992 4.40733C12.192 4.28733 13.2 5.22333 13.2 6.39933V14.7993C13.2 15.2393 12.84 15.5993 12.4 15.5993C11.96 15.5993 11.6 15.2393 11.6 14.7993V7.79933C11.6 7.47133 11.328 7.19933 11 7.19933C10.672 7.19933 10.4 7.47133 10.4 7.79933V14.6873C10.4 15.7353 11.152 16.6873 12.192 16.7913C13.392 16.9113 14.4 15.9753 14.4 14.7993V6.53533C14.4 4.86333 13.176 3.37533 11.512 3.21533C9.608 3.03133 8 4.52733 8 6.39933V16.2153C8 18.5113 9.68 20.5673 11.968 20.7833C14.6 21.0233 16.8 18.9753 16.8 16.3993V7.79933C16.8 7.47133 16.528 7.19933 16.2 7.19933C15.872 7.19933 15.6 7.47133 15.6 7.79933Z" fill="#808080"/>
</svg>
