<svg width="24" height="24" viewBox="0 0 24 24" fill="none" xmlns="http://www.w3.org/2000/svg">
<path fill-rule="evenodd" clip-rule="evenodd" d="M12.24 11.12C10.424 10.648 9.84 10.16 9.84 9.4C9.84 8.528 10.648 7.92 12 7.92C13.136 7.92 13.704 8.352 13.912 9.04C14.008 9.36 14.272 9.6 14.608 9.6H14.848C15.376 9.6 15.752 9.08 15.568 8.584C15.232 7.64 14.448 6.856 13.2 6.552V6C13.2 5.336 12.664 4.8 12 4.8C11.336 4.8 10.8 5.336 10.8 6V6.528C9.248 6.864 8 7.872 8 9.416C8 11.264 9.528 12.184 11.76 12.72C13.76 13.2 14.16 13.904 14.16 14.648C14.16 15.2 13.768 16.08 12 16.08C10.68 16.08 10 15.608 9.736 14.936C9.616 14.624 9.344 14.4 9.016 14.4H8.792C8.256 14.4 7.88 14.944 8.08 15.44C8.536 16.552 9.6 17.208 10.8 17.464V18C10.8 18.664 11.336 19.2 12 19.2C12.664 19.2 13.2 18.664 13.2 18V17.48C14.76 17.184 16 16.28 16 14.64C16 12.368 14.056 11.592 12.24 11.12Z" fill="#808080"/>
</svg>
