<svg width="24" height="24" viewBox="0 0 24 24" fill="none" xmlns="http://www.w3.org/2000/svg">
<path fill-rule="evenodd" clip-rule="evenodd" d="M12 9.2C11.272 9.2 9.8 9.568 9.8 10.304V13.6C9.8 13.824 9.976 14 10.2 14H11V16.6C11 17.152 11.448 17.6 12 17.6C12.552 17.6 13 17.152 13 16.6V14H13.8C14.024 14 14.2 13.824 14.2 13.6V10.304C14.2 9.576 12.728 9.2 12 9.2ZM12 4C7.576 4 4 7.576 4 12C4 16.424 7.576 20 12 20C16.424 20 20 16.416 20 12C20 7.584 16.416 4 12 4ZM12 18.4C8.464 18.4 5.6 15.536 5.6 12C5.6 8.464 8.464 5.6 12 5.6C15.536 5.6 18.4 8.464 18.4 12C18.4 15.536 15.536 18.4 12 18.4ZM12 6.4C11.3373 6.4 10.8 6.93726 10.8 7.6C10.8 8.26274 11.3373 8.8 12 8.8C12.6627 8.8 13.2 8.26274 13.2 7.6C13.2 6.93726 12.6627 6.4 12 6.4Z" fill="#808080"/>
</svg>
