<svg width="24" height="24" viewBox="0 0 24 24" fill="none" xmlns="http://www.w3.org/2000/svg">
<path fill-rule="evenodd" clip-rule="evenodd" d="M5.43003 2.08452C5.82056 1.69399 6.45372 1.694 6.84424 2.08452L12.6001 7.84042C12.8066 8.04684 12.9125 8.33315 12.8901 8.62422L12.7083 10.988C12.6704 11.4798 12.2797 11.8705 11.7879 11.9083L9.42414 12.0902C9.13308 12.1125 8.84676 12.0066 8.64034 11.8002L2.88445 6.04432C2.49392 5.65379 2.49392 5.02063 2.88445 4.6301L5.43003 2.08452ZM6.14001 10.5401L4.88788 14.144C4.83188 14.312 4.79988 14.488 4.79988 14.672V20.4C4.79988 21.064 5.33588 21.6 5.99988 21.6C6.66388 21.6 7.19988 21.064 7.19988 20.4V20H16.7999V20.4C16.7999 21.056 17.3359 21.6 17.9999 21.6C18.6559 21.6 19.1999 21.064 19.1999 20.4V14.672C19.1999 14.496 19.1679 14.312 19.1119 14.144L17.5359 9.60795C17.3759 9.13595 16.9279 8.79995 16.3999 8.79995H13.8332L13.7332 9.99995H15.8239C16.1679 9.99995 16.4719 10.224 16.5839 10.544L17.5999 13.6H6.39988L7.0985 11.4986L6.14001 10.5401ZM6.39988 16.4C6.39988 17.064 6.93588 17.6 7.59988 17.6C8.26388 17.6 8.79988 17.064 8.79988 16.4C8.79988 15.736 8.26388 15.2 7.59988 15.2C6.93588 15.2 6.39988 15.736 6.39988 16.4ZM15.1999 16.4C15.1999 17.064 15.7359 17.6 16.3999 17.6C17.0639 17.6 17.5999 17.064 17.5999 16.4C17.5999 15.736 17.0639 15.2 16.3999 15.2C15.7359 15.2 15.1999 15.736 15.1999 16.4ZM9.99988 7.99995C9.33714 7.99995 8.79988 8.53721 8.79988 9.19995C8.79988 9.86269 9.33714 10.4 9.99988 10.4C10.6626 10.4 11.1999 9.86269 11.1999 9.19995C11.1999 8.53721 10.6626 7.99995 9.99988 7.99995Z" fill="#808080"/>
</svg>
