<svg width="24" height="24" viewBox="0 0 24 24" fill="none" xmlns="http://www.w3.org/2000/svg">
<path fill-rule="evenodd" clip-rule="evenodd" d="M12 7.43569V8.86769C12 9.22769 12.432 9.40369 12.68 9.1477L14.912 6.91569C15.072 6.75569 15.072 6.50769 14.912 6.34769L12.68 4.11569C12.432 3.86769 12 4.04369 12 4.40369V5.83569C8.46401 5.83569 5.60001 8.6997 5.60001 12.2357C5.60001 13.0677 5.76001 13.8677 6.05601 14.5957C6.27201 15.1317 6.96001 15.2757 7.36801 14.8677C7.58401 14.6517 7.67201 14.3237 7.55201 14.0357C7.32001 13.4837 7.20001 12.8677 7.20001 12.2357C7.20001 9.5877 9.35201 7.43569 12 7.43569ZM16.632 9.60369C16.416 9.81969 16.328 10.1557 16.448 10.4357C16.672 10.9957 16.8 11.6037 16.8 12.2357C16.8 14.8837 14.648 17.0357 12 17.0357V15.6037C12 15.2437 11.568 15.0677 11.32 15.3237L9.08801 17.5557C8.92801 17.7157 8.92801 17.9637 9.08801 18.1237L11.32 20.3557C11.568 20.6037 12 20.4277 12 20.0757V18.6357C15.536 18.6357 18.4 15.7717 18.4 12.2357C18.4 11.4037 18.24 10.6037 17.944 9.87569C17.728 9.33969 17.04 9.19569 16.632 9.60369Z" fill="#808080"/>
</svg>
