<svg width="24" height="24" viewBox="0 0 24 24" fill="none" xmlns="http://www.w3.org/2000/svg">
<path fill-rule="evenodd" clip-rule="evenodd" d="M11.0001 4.80001C11.1106 4.80001 11.2001 4.88956 11.2001 5.00001V5.40001C11.2001 5.51047 11.2896 5.60001 11.4001 5.60001H12.6001C12.7106 5.60001 12.8001 5.51047 12.8001 5.40001V5.00001C12.8001 4.88956 12.8896 4.80001 13.0001 4.80001H14.7001C14.9762 4.80001 15.2001 4.57615 15.2001 4.30001V3.70001C15.2001 3.42387 14.9762 3.20001 14.7001 3.20001H9.3001C9.02396 3.20001 8.8001 3.42387 8.8001 3.70001V4.30001C8.8001 4.57615 9.02396 4.80001 9.3001 4.80001H11.0001ZM5.3001 8.80001C5.02395 8.80001 4.8001 9.02387 4.8001 9.30001V16.3C4.8001 16.5762 5.02396 16.8 5.3001 16.8H8.53251C8.69968 16.8 8.8558 16.8836 8.94853 17.0227L10.2517 18.9774C10.3444 19.1165 10.5005 19.2 10.6677 19.2H17.2616C17.466 19.2 17.6499 19.0755 17.7258 18.8857L19.0744 15.5143C19.1503 15.3245 19.3342 15.2 19.5386 15.2H21.1001C21.3762 15.2 21.6001 14.9762 21.6001 14.7V9.30001C21.6001 9.02387 21.3762 8.80001 21.1001 8.80001H17.0677C16.9005 8.80001 16.7444 8.71646 16.6517 8.57736L15.3485 6.62266C15.2558 6.48356 15.0997 6.40001 14.9325 6.40001H9.06769C8.90051 6.40001 8.7444 6.48356 8.65166 6.62266L7.34853 8.57736C7.2558 8.71646 7.09968 8.80001 6.93251 8.80001H5.3001ZM2.1001 16.8C1.82396 16.8 1.6001 16.5762 1.6001 16.3V10.9C1.6001 10.6239 1.82396 10.4 2.1001 10.4H2.7001C2.97624 10.4 3.2001 10.6239 3.2001 10.9V12.4C3.2001 12.6209 3.37918 12.8 3.6001 12.8C3.82101 12.8 4.0001 12.9791 4.0001 13.2V14C4.0001 14.2209 3.82101 14.4 3.6001 14.4C3.37918 14.4 3.2001 14.5791 3.2001 14.8V16.3C3.2001 16.5762 2.97624 16.8 2.7001 16.8H2.1001Z" fill="#808080"/>
</svg>
