<svg width="24" height="24" viewBox="0 0 24 24" fill="none" xmlns="http://www.w3.org/2000/svg">
<path fill-rule="evenodd" clip-rule="evenodd" d="M5.6001 15.8C5.6001 16.3523 6.04781 16.8 6.6001 16.8H14.4916C15.1812 16.8 15.8218 16.4451 16.1889 15.8613C16.8436 14.82 17.8777 13.1836 18.4001 12.4C18.9384 11.5926 19.6578 10.9662 20.0708 10.6428C20.2585 10.4959 20.5214 10.5213 20.6899 10.6898L21.0276 11.0275C21.1168 11.1167 21.2654 11.102 21.3354 10.997L21.9091 10.1364C21.962 10.0571 21.9516 9.95146 21.8842 9.88404L21.0186 9.01849C20.8847 8.88457 20.6866 8.83781 20.5069 8.8977L13.8933 11.1023C13.7136 11.1622 13.5155 11.1154 13.3816 10.9815L12.9465 10.5464C12.8528 10.4527 12.7256 10.4 12.593 10.4H10.6001C10.4896 10.4 10.4001 10.3104 10.4001 10.2V9.79998C10.4001 9.68952 10.4896 9.59998 10.6001 9.59998H10.7001C10.9762 9.59998 11.2001 9.37612 11.2001 9.09998V8.49998C11.2001 8.22384 10.9762 7.99998 10.7001 7.99998H8.5001C8.22396 7.99998 8.0001 8.22384 8.0001 8.49998V9.09998C8.0001 9.37612 8.22396 9.59998 8.5001 9.59998H8.6001C8.71055 9.59998 8.8001 9.68952 8.8001 9.79998V10.2C8.8001 10.3104 8.71055 10.4 8.6001 10.4H7.50911C7.31973 10.4 7.1466 10.293 7.0619 10.1236L6.58534 9.17046C6.46673 8.93325 6.25875 8.75286 6.00714 8.669L2.25821 7.41935C1.93445 7.31143 1.6001 7.55241 1.6001 7.89369V10.8615C1.6001 11.0659 1.72457 11.2498 1.9144 11.3257L5.28579 12.6743C5.47562 12.7502 5.6001 12.934 5.6001 13.1385V15.8ZM2.72454 10.5216C2.52938 10.4485 2.4001 10.2619 2.4001 10.0535V9.12148C2.4001 8.77238 2.74878 8.53074 3.07566 8.65332L5.27566 9.47832C5.47081 9.5515 5.6001 9.73806 5.6001 9.94648V10.8785C5.6001 11.2276 5.25141 11.4692 4.92454 11.3466L2.72454 10.5216ZM21.2001 15.2C20.4001 15.2 20.4001 14.4 20.4001 14C20.4001 13.6 21.2001 12 21.2001 12C21.2001 12 22.0001 13.6 22.0001 14C22.0001 14.4 22.0001 15.2 21.2001 15.2Z" fill="#808080"/>
</svg>
