<svg width="24" height="24" viewBox="0 0 24 24" fill="none" xmlns="http://www.w3.org/2000/svg">
<path fill-rule="evenodd" clip-rule="evenodd" d="M17.6103 3.3026C17.7275 3.41976 17.7275 3.60971 17.6103 3.72686L15.489 5.84818C15.3719 5.96534 15.3719 6.15529 15.489 6.27245L17.3275 8.11093C17.4447 8.22808 17.6346 8.22808 17.7518 8.11093L19.8731 5.9896C19.9902 5.87245 20.1802 5.87245 20.2973 5.9896L20.554 6.24624C20.664 7.28963 20.3192 8.37191 19.5195 9.17159C18.4214 10.2697 16.7903 10.5101 15.4589 9.89275C13.8677 11.71 7.84781 18.5806 7.35729 19.0711C6.79161 19.6368 5.37739 19.9196 4.52887 19.0711C3.68034 18.2226 3.96318 16.8083 4.52886 16.2427C5.01938 15.7521 11.8899 9.73228 13.7072 8.14107C13.0898 6.80961 13.3302 5.17855 14.4284 4.08042C15.228 3.28074 16.3103 2.93593 17.3537 3.04597L17.6103 3.3026ZM6.50876 17.0912C6.19634 16.7788 5.68981 16.7788 5.37739 17.0912C5.06497 17.4036 5.06497 17.9101 5.37739 18.2226C5.68981 18.535 6.19634 18.535 6.50876 18.2226C6.82118 17.9101 6.82118 17.4036 6.50876 17.0912ZM9.19577 10.7272C9.27387 10.8053 9.40051 10.8053 9.47861 10.7272L10.3271 9.87869C10.4052 9.80059 10.4052 9.67395 10.3271 9.59585L7.52422 6.79293C7.41444 6.68315 7.33173 6.54933 7.28264 6.40205L6.92259 5.3219C6.83872 5.0703 6.65834 4.86231 6.42112 4.7437L4.8512 3.95874C4.6587 3.86249 4.42622 3.90022 4.27404 4.0524L3.65232 4.67412C3.50014 4.8263 3.46241 5.05878 3.55866 5.25128L4.34362 6.8212C4.46223 7.05842 4.67021 7.2388 4.92182 7.32267L6.00197 7.68272C6.14924 7.73181 6.28307 7.81452 6.39284 7.9243L9.19577 10.7272ZM18.0346 20.2732C17.9174 20.3903 17.7275 20.3903 17.6103 20.2732L12.6383 15.3011C12.5302 15.1931 12.5207 15.021 12.6162 14.9016L14.5018 12.5446C14.6135 12.405 14.8218 12.3934 14.9482 12.5199L20.1559 17.7276C20.2731 17.8447 20.2731 18.0347 20.1559 18.1518L18.0346 20.2732Z" fill="#808080"/>
</svg>
