<svg width="24" height="24" viewBox="0 0 24 24" fill="none" xmlns="http://www.w3.org/2000/svg">
<path fill-rule="evenodd" clip-rule="evenodd" d="M19.836 4.8H7.83602C7.28402 4.8 6.85202 5.08 6.56402 5.504L2.53202 11.56C2.35602 11.832 2.35602 12.176 2.53202 12.448L6.56402 18.496C6.85202 18.912 7.28402 19.2 7.83602 19.2H19.836C20.716 19.2 21.436 18.48 21.436 17.6V6.4C21.436 5.52 20.716 4.8 19.836 4.8ZM16.876 15.44C16.564 15.752 16.06 15.752 15.748 15.44L13.436 13.128L11.124 15.44C10.812 15.752 10.308 15.752 9.99602 15.44C9.84622 15.2905 9.76204 15.0876 9.76204 14.876C9.76204 14.6644 9.84622 14.4615 9.99602 14.312L12.308 12L9.99602 9.688C9.84622 9.53854 9.76204 9.33562 9.76204 9.124C9.76204 8.91239 9.84622 8.70947 9.99602 8.56C10.308 8.248 10.812 8.248 11.124 8.56L13.436 10.872L15.748 8.56C16.06 8.248 16.564 8.248 16.876 8.56C17.188 8.872 17.188 9.376 16.876 9.688L14.564 12L16.876 14.312C17.18 14.616 17.18 15.128 16.876 15.44Z" fill="#808080"/>
</svg>
