<svg width="24" height="24" viewBox="0 0 24 24" fill="none" xmlns="http://www.w3.org/2000/svg">
<path fill-rule="evenodd" clip-rule="evenodd" d="M13.6 10H16C16.44 10 16.8 9.64 16.8 9.2C16.8 8.76 16.44 8.4 16 8.4H13.6C13.16 8.4 12.8 8.76 12.8 9.2C12.8 9.64 13.16 10 13.6 10ZM13.6 15.6H16C16.44 15.6 16.8 15.24 16.8 14.8C16.8 14.36 16.44 14 16 14H13.6C13.16 14 12.8 14.36 12.8 14.8C12.8 15.24 13.16 15.6 13.6 15.6ZM17.6 19.2H6.40005C5.52005 19.2 4.80005 18.48 4.80005 17.6V6.4C4.80005 5.52 5.52005 4.8 6.40005 4.8H17.6C18.48 4.8 19.2 5.52 19.2 6.4V17.6C19.2 18.48 18.48 19.2 17.6 19.2ZM8.00005 11.2H10.4C10.84 11.2 11.2 10.84 11.2 10.4V8C11.2 7.56 10.84 7.2 10.4 7.2H8.00005C7.56005 7.2 7.20005 7.56 7.20005 8V10.4C7.20005 10.84 7.56005 11.2 8.00005 11.2ZM8.00005 8H10.4V10.4H8.00005V8ZM8.00005 16.8H10.4C10.84 16.8 11.2 16.44 11.2 16V13.6C11.2 13.16 10.84 12.8 10.4 12.8H8.00005C7.56005 12.8 7.20005 13.16 7.20005 13.6V16C7.20005 16.44 7.56005 16.8 8.00005 16.8ZM8.00005 13.6H10.4V16H8.00005V13.6Z" fill="#808080"/>
</svg>
