<svg width="24" height="24" viewBox="0 0 24 24" fill="none" xmlns="http://www.w3.org/2000/svg">
<path fill-rule="evenodd" clip-rule="evenodd" d="M10 5C10 4.88954 10.0895 4.8 10.2 4.8H13.8C13.9105 4.8 14 4.88954 14 5V6.7378C14 7.04313 14.0583 7.34565 14.1717 7.62914L14.7524 9.08097C14.7841 9.16019 14.8221 9.23676 14.866 9.30993L15.43 10.25C15.803 10.8716 16 11.583 16 12.3079V12.64C16 12.7284 15.9284 12.8 15.84 12.8H11.36C11.2716 12.8 11.2 12.8716 11.2 12.96V19.04C11.2 19.1284 11.2716 19.2 11.36 19.2H15.84C15.9284 19.2 16 19.2716 16 19.36V20.2343C16 20.5965 15.8561 20.9439 15.6 21.2C15.3439 21.4561 14.9965 21.6 14.6343 21.6H9.36569C9.00348 21.6 8.65612 21.4561 8.4 21.2C8.14388 20.9439 8 20.5965 8 20.2343V12.3079C8 11.583 8.19703 10.8716 8.57003 10.25L9.13404 9.30993C9.17794 9.23676 9.21592 9.16019 9.24761 9.08097L9.82834 7.62914C9.94174 7.34565 10 7.04313 10 6.7378V5ZM10.2 4C10.0895 4 10 3.91046 10 3.8V2.8C10 2.35817 10.3582 2 10.8 2H13.2C13.6418 2 14 2.35817 14 2.8V3.8C14 3.91046 13.9105 4 13.8 4H10.2Z" fill="#808080"/>
</svg>
