<svg width="24" height="24" viewBox="0 0 24 24" fill="none" xmlns="http://www.w3.org/2000/svg">
<path fill-rule="evenodd" clip-rule="evenodd" d="M14.936 5.6H13.6V4.8C13.6 4.36 13.24 4 12.8 4H11.2C10.76 4 10.4 4.36 10.4 4.8V5.6H9.064C8.48 5.6 8 6.08 8 6.664V18.928C8 19.52 8.48 20 9.072 20H14.928C15.52 20 16 19.52 16 18.936V6.664C16 6.08 15.52 5.6 14.936 5.6ZM12.8 16.8H11.2V15.2H12.8V16.8ZM12.8 12.8C12.8 13.24 12.44 13.6 12 13.6C11.56 13.6 11.2 13.24 11.2 12.8V10.4C11.2 9.96 11.56 9.6 12 9.6C12.44 9.6 12.8 9.96 12.8 10.4V12.8Z" fill="#808080"/>
</svg>
