<svg width="24" height="24" viewBox="0 0 24 24" fill="none" xmlns="http://www.w3.org/2000/svg">
<path fill-rule="evenodd" clip-rule="evenodd" d="M14.936 5.6H13.6V4.8C13.6 4.36 13.24 4 12.8 4H11.2C10.76 4 10.4 4.36 10.4 4.8V5.6H9.064C8.48 5.6 8 6.08 8 6.664V18.928C8 19.52 8.48 20 9.072 20H14.928C15.52 20 16 19.52 16 18.936V6.664C16 6.08 15.52 5.6 14.936 5.6ZM12.8 16.8H11.2V15.2H12.8V16.8ZM13.84 12.552C13.84 12.552 13.536 12.888 13.304 13.12C13.192 13.232 13.088 13.368 12.992 13.496L12.92 13.616C12.856 13.712 12.808 13.816 12.768 13.912C12.696 14.088 12.64 14.256 12.64 14.4H11.36C11.36 14.064 11.456 13.76 11.592 13.496C11.64 13.408 11.696 13.328 11.752 13.248C11.776 13.208 11.8 13.16 11.832 13.12C11.92 13.008 12.016 12.896 12.104 12.8L12.848 12.048C13.064 11.832 13.2 11.528 13.2 11.2C13.2 10.536 12.664 10 12 10C11.48 10 11.032 10.328 10.872 10.792C10.784 11.04 10.56 11.2 10.304 11.2C9.888 11.2 9.6 10.784 9.736 10.392C10.072 9.464 10.952 8.8 12 8.8C13.328 8.8 14.4 9.872 14.4 11.2C14.4 11.728 14.184 12.208 13.84 12.552Z" fill="#808080"/>
</svg>
