<svg width="24" height="24" viewBox="0 0 24 24" fill="none" xmlns="http://www.w3.org/2000/svg">
<path fill-rule="evenodd" clip-rule="evenodd" d="M12.9059 14.0482L14.0499 12.9042L18.6339 17.4882C18.9459 17.8002 18.9459 18.3122 18.6339 18.6322C18.3219 18.9442 17.8099 18.9442 17.4899 18.6322L12.9059 14.0482ZM16.3379 9.46418L17.3539 8.44818C18.0659 7.73618 17.9699 6.50418 17.1059 5.98418C13.9939 4.08018 9.88185 4.47218 7.18585 7.16018C10.3299 6.12018 13.8339 6.96018 16.3379 9.46418ZM7.16185 7.18418C4.47385 9.88018 4.08185 13.9922 5.97785 17.1042C6.50585 17.9682 7.72985 18.0722 8.44185 17.3522L9.45785 16.3362C6.96185 13.8322 6.12185 10.3282 7.16185 7.18418ZM7.17785 7.16818L7.16985 7.17618C6.86585 9.58418 8.10585 12.6802 10.6099 15.1922L15.1939 10.6082C12.6899 8.10418 9.58585 6.86418 7.17785 7.16818Z" fill="#808080"/>
</svg>
