<svg width="24" height="24" viewBox="0 0 24 24" fill="none" xmlns="http://www.w3.org/2000/svg">
<path fill-rule="evenodd" clip-rule="evenodd" d="M17.6 3.19995H6.40005C5.52005 3.19995 4.80805 3.91995 4.80805 4.79995L4.80005 15.144C4.80005 15.696 5.08005 16.184 5.50405 16.472L11.56 20.504C11.832 20.68 12.176 20.68 12.448 20.504L18.496 16.472C18.92 16.184 19.2 15.696 19.2 15.144V4.79995C19.2 3.91995 18.48 3.19995 17.6 3.19995ZM17.04 8.55995L10.968 14.632C10.656 14.944 10.152 14.944 9.84005 14.632L6.96805 11.76C6.65605 11.448 6.65605 10.944 6.96805 10.632C7.28005 10.32 7.78405 10.32 8.09605 10.632L10.4 12.936L15.904 7.43195C16.216 7.11995 16.72 7.11995 17.032 7.43195C17.344 7.74395 17.352 8.24795 17.04 8.55995Z" fill="#808080"/>
</svg>
