<svg width="24" height="24" viewBox="0 0 24 24" fill="none" xmlns="http://www.w3.org/2000/svg">
<path fill-rule="evenodd" clip-rule="evenodd" d="M5.5999 18.4L7.07052 15.4587L4.33627 16.7258C3.93539 16.9116 3.45982 16.7372 3.27405 16.3363C3.10155 15.9641 3.23958 15.5275 3.58114 15.3182L3.66353 15.2741L8.21817 13.1634L9.00039 11.599L3.66353 9.12582L3.58115 9.08171C3.23958 8.8725 3.10155 8.43585 3.27405 8.06361C3.45982 7.66273 3.93539 7.48836 4.33627 7.67413L9.71624 10.1673L11.9999 5.59998L14.3588 10.3178L20.0635 7.67413C20.4644 7.48836 20.94 7.66273 21.1257 8.06361C21.2983 8.43585 21.1602 8.8725 20.8187 9.08171L20.7363 9.12582L15.0747 11.7495L15.661 12.9222L20.7363 15.2741L20.8187 15.3182C21.1602 15.5275 21.2983 15.9641 21.1257 16.3363C20.94 16.7372 20.4644 16.9116 20.0635 16.7258L16.8086 15.2175L18.3999 18.4H5.5999Z" fill="#808080"/>
</svg>
