<svg width="24" height="24" viewBox="0 0 24 24" fill="none" xmlns="http://www.w3.org/2000/svg">
<path fill-rule="evenodd" clip-rule="evenodd" d="M12 4C7.584 4 4 7.584 4 12C4 16.416 7.584 20 12 20C16.416 20 20 16.416 20 12C20 7.584 16.416 4 12 4ZM5.6 12C5.6 8.464 8.464 5.6 12 5.6C13.48 5.6 14.84 6.104 15.92 6.952L6.952 15.92C6.104 14.84 5.6 13.48 5.6 12ZM12 18.4C10.52 18.4 9.16 17.896 8.08 17.048L17.048 8.08C17.896 9.16 18.4 10.52 18.4 12C18.4 15.536 15.536 18.4 12 18.4Z" fill="#808080"/>
</svg>
