<svg width="24" height="24" viewBox="0 0 24 24" fill="none" xmlns="http://www.w3.org/2000/svg">
<path fill-rule="evenodd" clip-rule="evenodd" d="M7.52998 12.4692C7.96998 12.0292 7.96998 11.3172 7.52998 10.8772V10.8692C7.08998 10.4292 6.36998 10.4292 5.92998 10.8692C5.48998 11.3092 5.48998 12.0292 5.92998 12.4692C6.36998 12.9092 7.08998 12.9092 7.52998 12.4692ZM18.73 10.8692C18.282 10.4212 17.57 10.4212 17.13 10.8612V10.8692C16.69 11.3092 16.69 12.0212 17.13 12.4612V12.4692C17.57 12.9092 18.282 12.9092 18.722 12.4692H18.73C19.17 12.0292 19.17 11.3092 18.73 10.8692ZM16.33 7.66918L12.898 4.23718C12.394 3.73318 11.53 4.08518 11.53 4.79718V9.74118L8.41798 6.62918C8.26851 6.47938 8.06559 6.39519 7.85398 6.39519C7.64236 6.39519 7.43944 6.47938 7.28998 6.62918C6.97798 6.94118 6.97798 7.44518 7.28998 7.75718L11.202 11.6692L7.28998 15.5812C6.97798 15.8932 6.97798 16.3972 7.28998 16.7092C7.60198 17.0212 8.10598 17.0212 8.41798 16.7092L11.53 13.5972V18.5412C11.53 19.2532 12.394 19.6132 12.898 19.1092L16.33 15.6692C16.642 15.3572 16.642 14.8532 16.33 14.5332L13.458 11.6692L16.33 8.80518C16.642 8.49318 16.642 7.98118 16.33 7.66918ZM14.634 15.1012L13.13 16.6052V13.5972L14.634 15.1012ZM13.13 9.74118V6.73318L14.634 8.23718L13.13 9.74118Z" fill="#808080"/>
</svg>
