<svg width="24" height="24" viewBox="0 0 24 24" fill="none" xmlns="http://www.w3.org/2000/svg">
<path fill-rule="evenodd" clip-rule="evenodd" d="M16.474 7.66918L13.042 4.23718C12.538 3.73318 11.674 4.08518 11.674 4.79718V9.74118L8.56195 6.62918C8.41249 6.47938 8.20957 6.39519 7.99795 6.39519C7.78634 6.39519 7.58342 6.47938 7.43395 6.62918C7.12195 6.94118 7.12195 7.44518 7.43395 7.75718L11.346 11.6692L7.43395 15.5812C7.12195 15.8932 7.12195 16.3972 7.43395 16.7092C7.74595 17.0212 8.24995 17.0212 8.56195 16.7092L11.674 13.5972V18.5412C11.674 19.2532 12.538 19.6132 13.042 19.1092L16.474 15.6692C16.786 15.3572 16.786 14.8532 16.474 14.5412L13.602 11.6692L16.474 8.80518C16.786 8.49318 16.786 7.98118 16.474 7.66918ZM13.274 6.73318L14.778 8.23718L13.274 9.74118V6.73318ZM14.778 15.1012L13.274 16.6052V13.5972L14.778 15.1012Z" fill="#808080"/>
</svg>
