<svg width="24" height="24" viewBox="0 0 24 24" fill="none" xmlns="http://www.w3.org/2000/svg">
<path fill-rule="evenodd" clip-rule="evenodd" d="M14.858 10.2932L13.754 11.3972C13.594 11.5572 13.594 11.8052 13.754 11.9652L14.858 13.0692C15.082 13.2932 15.458 13.1892 15.538 12.8852C15.626 12.4852 15.674 12.0852 15.674 11.6692C15.674 11.2612 15.626 10.8612 15.53 10.4852C15.458 10.1812 15.082 10.0692 14.858 10.2932ZM18.154 8.29318C17.954 7.85318 17.37 7.75718 17.034 8.10118C16.826 8.30918 16.786 8.61318 16.898 8.88518C17.266 9.74118 17.474 10.6772 17.474 11.6612C17.474 12.6532 17.266 13.5972 16.89 14.4532C16.778 14.7092 16.818 15.0052 17.018 15.2052C17.346 15.5332 17.898 15.4372 18.098 15.0212C18.602 13.9812 18.882 12.8132 18.882 11.5812C18.874 10.4212 18.618 9.30118 18.154 8.29318ZM11.202 11.6692L14.074 8.80518C14.386 8.49318 14.386 7.98918 14.074 7.66918L10.642 4.23718C10.138 3.73318 9.27405 4.08518 9.27405 4.79718V9.74118L6.16205 6.62918C6.01258 6.47938 5.80966 6.39519 5.59805 6.39519C5.38643 6.39519 5.18351 6.47938 5.03405 6.62918C4.72205 6.94118 4.72205 7.44518 5.03405 7.75718L8.94605 11.6692L5.03405 15.5812C4.72205 15.8932 4.72205 16.3972 5.03405 16.7092C5.34605 17.0212 5.85005 17.0212 6.16205 16.7092L9.27405 13.5972V18.5412C9.27405 19.2532 10.138 19.6132 10.642 19.1092L14.074 15.6692C14.386 15.3572 14.386 14.8532 14.074 14.5332L11.202 11.6692ZM10.874 6.73318L12.378 8.23718L10.874 9.74118V6.73318ZM10.874 16.6052V13.5972L12.378 15.1012L10.874 16.6052Z" fill="#808080"/>
</svg>
