<svg width="24" height="24" viewBox="0 0 24 24" fill="none" xmlns="http://www.w3.org/2000/svg">
<path fill-rule="evenodd" clip-rule="evenodd" d="M14.874 10.2912L13.77 11.3952C13.61 11.5552 13.61 11.8032 13.77 11.9632L14.874 13.0672C15.098 13.2912 15.474 13.1872 15.554 12.8832C15.642 12.4832 15.69 12.0832 15.69 11.6672C15.69 11.2592 15.642 10.8592 15.546 10.4832C15.474 10.1792 15.098 10.0672 14.874 10.2912ZM18.17 8.29121C17.97 7.85121 17.386 7.75521 17.05 8.09921C16.842 8.30721 16.802 8.61121 16.914 8.88321C17.282 9.73921 17.49 10.6752 17.49 11.6592C17.49 12.6512 17.282 13.5952 16.906 14.4512C16.794 14.7072 16.834 15.0032 17.034 15.2032C17.362 15.5312 17.914 15.4352 18.114 15.0192C18.618 13.9792 18.898 12.8112 18.898 11.5792C18.89 10.4192 18.634 9.29921 18.17 8.29121ZM11.202 11.6672L14.074 8.80321C14.386 8.49121 14.386 7.98721 14.074 7.66721L10.642 4.23521C10.138 3.73121 9.27405 4.09121 9.27405 4.80321V9.74721L6.16205 6.62721C6.01258 6.47741 5.80966 6.39322 5.59805 6.39322C5.38643 6.39322 5.18351 6.47741 5.03405 6.62721C4.72205 6.93921 4.72205 7.44321 5.03405 7.75521L8.94605 11.6672L5.03405 15.5792C4.72205 15.8912 4.72205 16.3952 5.03405 16.7072C5.34605 17.0192 5.85005 17.0192 6.16205 16.7072L9.27405 13.5952V18.5392C9.27405 19.2512 10.138 19.6112 10.642 19.1072L14.082 15.6672C14.394 15.3552 14.394 14.8512 14.082 14.5312L11.202 11.6672ZM10.874 6.73121L12.378 8.23521L10.874 9.73921V6.73121ZM10.874 16.6032V13.5952L12.378 15.0992L10.874 16.6032Z" fill="#808080"/>
</svg>
