<svg width="24" height="24" viewBox="0 0 24 24" fill="none" xmlns="http://www.w3.org/2000/svg">
<path fill-rule="evenodd" clip-rule="evenodd" d="M17.506 16.3812L6.96198 5.82918C6.81251 5.67938 6.60959 5.59519 6.39798 5.59519C6.18636 5.59519 5.98344 5.67938 5.83398 5.82918C5.52198 6.14118 5.52198 6.64518 5.83398 6.95718L10.546 11.6692L6.63398 15.5812C6.32198 15.8932 6.32198 16.3972 6.63398 16.7092C6.94598 17.0212 7.44998 17.0212 7.76198 16.7092L10.874 13.5972V18.5412C10.874 19.2532 11.738 19.6132 12.242 19.1092L15.114 16.2372L16.386 17.5092C16.698 17.8212 17.202 17.8212 17.514 17.5092C17.818 17.1972 17.818 16.6852 17.506 16.3812ZM12.474 16.6052V13.5972L13.978 15.1012L12.474 16.6052ZM12.474 6.73318L13.978 8.23718L12.802 9.41318L13.93 10.5412L15.674 8.80518C15.986 8.49318 15.986 7.98918 15.674 7.66918L12.242 4.23718C11.738 3.73318 10.874 4.08518 10.874 4.79718V7.48518L12.474 9.08518V6.73318Z" fill="#808080"/>
</svg>
