<svg width="24" height="24" viewBox="0 0 24 24" fill="none" xmlns="http://www.w3.org/2000/svg">
<path fill-rule="evenodd" clip-rule="evenodd" d="M6.40005 16.4C7.06405 16.4 7.60005 15.864 7.60005 15.2C7.60005 14.536 7.06405 14 6.40005 14C5.73605 14 5.20005 14.536 5.20005 15.2C5.20005 15.864 5.73605 16.4 6.40005 16.4ZM9.60005 12.8C10.04 12.8 10.4 12.44 10.4 12C10.4 11.56 10.04 11.2 9.60005 11.2C9.16005 11.2 8.80005 11.56 8.80005 12C8.80005 12.44 9.16005 12.8 9.60005 12.8ZM9.60005 9.6C10.04 9.6 10.4 9.24 10.4 8.8C10.4 8.36 10.04 8 9.60005 8C9.16005 8 8.80005 8.36 8.80005 8.8C8.80005 9.24 9.16005 9.6 9.60005 9.6ZM5.60005 19.2H18.4C18.84 19.2 19.2 18.84 19.2 18.4C19.2 17.96 18.84 17.6 18.4 17.6H5.60005C5.16005 17.6 4.80005 17.96 4.80005 18.4C4.80005 18.84 5.16005 19.2 5.60005 19.2ZM6.40005 10C7.06405 10 7.60005 9.464 7.60005 8.8C7.60005 8.136 7.06405 7.6 6.40005 7.6C5.73605 7.6 5.20005 8.136 5.20005 8.8C5.20005 9.464 5.73605 10 6.40005 10ZM6.40005 13.2C7.06405 13.2 7.60005 12.664 7.60005 12C7.60005 11.336 7.06405 10.8 6.40005 10.8C5.73605 10.8 5.20005 11.336 5.20005 12C5.20005 12.664 5.73605 13.2 6.40005 13.2ZM9.60005 16C10.04 16 10.4 15.64 10.4 15.2C10.4 14.76 10.04 14.4 9.60005 14.4C9.16005 14.4 8.80005 14.76 8.80005 15.2C8.80005 15.64 9.16005 16 9.60005 16ZM16 15.6C16.224 15.6 16.4 15.424 16.4 15.2C16.4 14.976 16.224 14.8 16 14.8C15.776 14.8 15.6 14.976 15.6 15.2C15.6 15.424 15.776 15.6 16 15.6ZM4.80005 5.6C4.80005 6.04 5.16005 6.4 5.60005 6.4H18.4C18.84 6.4 19.2 6.04 19.2 5.6C19.2 5.16 18.84 4.8 18.4 4.8H5.60005C5.16005 4.8 4.80005 5.16 4.80005 5.6ZM16 9.2C16.224 9.2 16.4 9.024 16.4 8.8C16.4 8.576 16.224 8.4 16 8.4C15.776 8.4 15.6 8.576 15.6 8.8C15.6 9.024 15.776 9.2 16 9.2ZM16 12.4C16.224 12.4 16.4 12.224 16.4 12C16.4 11.776 16.224 11.6 16 11.6C15.776 11.6 15.6 11.776 15.6 12C15.6 12.224 15.776 12.4 16 12.4ZM12.8 9.6C13.24 9.6 13.6 9.24 13.6 8.8C13.6 8.36 13.24 8 12.8 8C12.36 8 12 8.36 12 8.8C12 9.24 12.36 9.6 12.8 9.6ZM12.8 12.8C13.24 12.8 13.6 12.44 13.6 12C13.6 11.56 13.24 11.2 12.8 11.2C12.36 11.2 12 11.56 12 12C12 12.44 12.36 12.8 12.8 12.8ZM12.8 16C13.24 16 13.6 15.64 13.6 15.2C13.6 14.76 13.24 14.4 12.8 14.4C12.36 14.4 12 14.76 12 15.2C12 15.64 12.36 16 12.8 16Z" fill="#808080"/>
</svg>
