<svg width="24" height="24" viewBox="0 0 24 24" fill="none" xmlns="http://www.w3.org/2000/svg">
<path fill-rule="evenodd" clip-rule="evenodd" d="M14 6.8C13.5582 6.8 13.2 7.15817 13.2 7.6C13.2 8.04183 13.5582 8.4 14 8.4C14.4419 8.4 14.8 8.04183 14.8 7.6C14.8 7.15817 14.4419 6.8 14 6.8ZM13.84 11.984L14 12C14.664 12 15.2 11.464 15.2 10.8C15.2 10.136 14.664 9.6 14 9.6C13.336 9.6 12.8 10.136 12.8 10.8L12.816 10.96C12.888 11.496 13.304 11.912 13.84 11.984ZM14 5.6C14.224 5.6 14.4 5.424 14.4 5.2C14.4 4.976 14.224 4.8 14 4.8C13.776 4.8 13.6 4.976 13.6 5.2C13.6 5.424 13.776 5.6 14 5.6ZM10.8 5.6C11.024 5.6 11.2 5.424 11.2 5.2C11.2 4.976 11.024 4.8 10.8 4.8C10.576 4.8 10.4 4.976 10.4 5.2C10.4 5.424 10.576 5.6 10.8 5.6ZM17.2 10C16.7582 10 16.4 10.3582 16.4 10.8C16.4 11.2418 16.7582 11.6 17.2 11.6C17.6419 11.6 18 11.2418 18 10.8C18 10.3582 17.6419 10 17.2 10ZM17.2 6.8C16.7582 6.8 16.4 7.15817 16.4 7.6C16.4 8.04183 16.7582 8.4 17.2 8.4C17.6419 8.4 18 8.04183 18 7.6C18 7.15817 17.6419 6.8 17.2 6.8ZM19.6 11.2C19.824 11.2 20 11.024 20 10.8C20 10.576 19.824 10.4 19.6 10.4C19.376 10.4 19.2 10.576 19.2 10.8C19.2 11.024 19.376 11.2 19.6 11.2ZM10.8 6.8C10.3582 6.8 10 7.15817 10 7.6C10 8.04183 10.3582 8.4 10.8 8.4C11.2419 8.4 11.6 8.04183 11.6 7.6C11.6 7.15817 11.2419 6.8 10.8 6.8ZM17.2 13.2C16.7582 13.2 16.4 13.5582 16.4 14C16.4 14.4418 16.7582 14.8 17.2 14.8C17.6419 14.8 18 14.4418 18 14C18 13.5582 17.6419 13.2 17.2 13.2ZM7.60005 16.4C7.15822 16.4 6.80005 16.7582 6.80005 17.2C6.80005 17.6418 7.15822 18 7.60005 18C8.04188 18 8.40005 17.6418 8.40005 17.2C8.40005 16.7582 8.04188 16.4 7.60005 16.4ZM14 19.2C13.776 19.2 13.6 19.376 13.6 19.6C13.6 19.824 13.776 20 14 20C14.224 20 14.4 19.824 14.4 19.6C14.4 19.376 14.224 19.2 14 19.2ZM19.6 13.6C19.376 13.6 19.2 13.776 19.2 14C19.2 14.224 19.376 14.4 19.6 14.4C19.824 14.4 20 14.224 20 14C20 13.776 19.824 13.6 19.6 13.6ZM5.20005 13.6C4.97605 13.6 4.80005 13.776 4.80005 14C4.80005 14.224 4.97605 14.4 5.20005 14.4C5.42405 14.4 5.60005 14.224 5.60005 14C5.60005 13.776 5.42405 13.6 5.20005 13.6ZM10.8 16.4C10.3582 16.4 10 16.7582 10 17.2C10 17.6418 10.3582 18 10.8 18C11.2419 18 11.6 17.6418 11.6 17.2C11.6 16.7582 11.2419 16.4 10.8 16.4ZM5.20005 10.4C4.97605 10.4 4.80005 10.576 4.80005 10.8C4.80005 11.024 4.97605 11.2 5.20005 11.2C5.42405 11.2 5.60005 11.024 5.60005 10.8C5.60005 10.576 5.42405 10.4 5.20005 10.4ZM10.8 19.2C10.576 19.2 10.4 19.376 10.4 19.6C10.4 19.824 10.576 20 10.8 20C11.024 20 11.2 19.824 11.2 19.6C11.2 19.376 11.024 19.2 10.8 19.2ZM7.60005 13.2C7.15822 13.2 6.80005 13.5582 6.80005 14C6.80005 14.4418 7.15822 14.8 7.60005 14.8C8.04188 14.8 8.40005 14.4418 8.40005 14C8.40005 13.5582 8.04188 13.2 7.60005 13.2ZM5.36805 6.448C5.05605 6.76 5.05605 7.264 5.36805 7.576L7.82405 10.032L7.60005 10C7.16005 10 6.80005 10.36 6.80005 10.8C6.80005 11.24 7.16005 11.6 7.60005 11.6C8.04005 11.6 8.40005 11.24 8.40005 10.8C8.40005 10.72 8.37605 10.648 8.35205 10.576L10.6 12.824C10.032 12.912 9.60005 13.408 9.60005 14C9.60005 14.664 10.136 15.2 10.8 15.2C11.392 15.2 11.888 14.768 11.976 14.2L14.224 16.448C14.152 16.424 14.08 16.4 14 16.4C13.56 16.4 13.2 16.76 13.2 17.2C13.2 17.64 13.56 18 14 18C14.44 18 14.8 17.64 14.8 17.2C14.8 17.12 14.776 17.048 14.752 16.976L17.216 19.432C17.528 19.744 18.032 19.744 18.344 19.432C18.656 19.12 18.656 18.616 18.344 18.296L6.49605 6.448C6.34658 6.2982 6.14366 6.21401 5.93205 6.21401C5.72043 6.21401 5.51751 6.2982 5.36805 6.448Z" fill="#808080"/>
</svg>
