<svg width="24" height="24" viewBox="0 0 24 24" fill="none" xmlns="http://www.w3.org/2000/svg">
<path fill-rule="evenodd" clip-rule="evenodd" d="M10.4 9.6C9.96 9.6 9.6 9.96 9.6 10.4C9.6 10.84 9.96 11.2 10.4 11.2C10.84 11.2 11.2 10.84 11.2 10.4C11.2 9.96 10.84 9.6 10.4 9.6ZM10.4 12.8C9.96 12.8 9.6 13.16 9.6 13.6C9.6 14.04 9.96 14.4 10.4 14.4C10.84 14.4 11.2 14.04 11.2 13.6C11.2 13.16 10.84 12.8 10.4 12.8ZM8 10C7.776 10 7.6 10.176 7.6 10.4C7.6 10.624 7.776 10.8 8 10.8C8.224 10.8 8.4 10.624 8.4 10.4C8.4 10.176 8.224 10 8 10ZM10.4 15.6C10.176 15.6 10 15.776 10 16C10 16.224 10.176 16.4 10.4 16.4C10.624 16.4 10.8 16.224 10.8 16C10.8 15.776 10.624 15.6 10.4 15.6ZM8 13.2C7.776 13.2 7.6 13.376 7.6 13.6C7.6 13.824 7.776 14 8 14C8.224 14 8.4 13.824 8.4 13.6C8.4 13.376 8.224 13.2 8 13.2ZM10.4 8.4C10.624 8.4 10.8 8.224 10.8 8C10.8 7.776 10.624 7.6 10.4 7.6C10.176 7.6 10 7.776 10 8C10 8.224 10.176 8.4 10.4 8.4ZM13.6 9.6C13.16 9.6 12.8 9.96 12.8 10.4C12.8 10.84 13.16 11.2 13.6 11.2C14.04 11.2 14.4 10.84 14.4 10.4C14.4 9.96 14.04 9.6 13.6 9.6ZM13.6 8.4C13.824 8.4 14 8.224 14 8C14 7.776 13.824 7.6 13.6 7.6C13.376 7.6 13.2 7.776 13.2 8C13.2 8.224 13.376 8.4 13.6 8.4ZM16 13.2C15.776 13.2 15.6 13.376 15.6 13.6C15.6 13.824 15.776 14 16 14C16.224 14 16.4 13.824 16.4 13.6C16.4 13.376 16.224 13.2 16 13.2ZM16 10C15.776 10 15.6 10.176 15.6 10.4C15.6 10.624 15.776 10.8 16 10.8C16.224 10.8 16.4 10.624 16.4 10.4C16.4 10.176 16.224 10 16 10ZM12 4C7.584 4 4 7.584 4 12C4 16.416 7.584 20 12 20C16.416 20 20 16.416 20 12C20 7.584 16.416 4 12 4ZM12 18.4C8.464 18.4 5.6 15.536 5.6 12C5.6 8.464 8.464 5.6 12 5.6C15.536 5.6 18.4 8.464 18.4 12C18.4 15.536 15.536 18.4 12 18.4ZM13.6 15.6C13.376 15.6 13.2 15.776 13.2 16C13.2 16.224 13.376 16.4 13.6 16.4C13.824 16.4 14 16.224 14 16C14 15.776 13.824 15.6 13.6 15.6ZM13.6 12.8C13.16 12.8 12.8 13.16 12.8 13.6C12.8 14.04 13.16 14.4 13.6 14.4C14.04 14.4 14.4 14.04 14.4 13.6C14.4 13.16 14.04 12.8 13.6 12.8Z" fill="#808080"/>
</svg>
