<svg width="24" height="24" viewBox="0 0 24 24" fill="none" xmlns="http://www.w3.org/2000/svg">
<path fill-rule="evenodd" clip-rule="evenodd" d="M7.60005 13.2C7.16005 13.2 6.80005 13.56 6.80005 14C6.80005 14.44 7.16005 14.8 7.60005 14.8C8.04005 14.8 8.40005 14.44 8.40005 14C8.40005 13.56 8.04005 13.2 7.60005 13.2ZM7.60005 16.4C7.16005 16.4 6.80005 16.76 6.80005 17.2C6.80005 17.64 7.16005 18 7.60005 18C8.04005 18 8.40005 17.64 8.40005 17.2C8.40005 16.76 8.04005 16.4 7.60005 16.4ZM7.60005 10C7.16005 10 6.80005 10.36 6.80005 10.8C6.80005 11.24 7.16005 11.6 7.60005 11.6C8.04005 11.6 8.40005 11.24 8.40005 10.8C8.40005 10.36 8.04005 10 7.60005 10ZM5.20005 10.4C4.97605 10.4 4.80005 10.576 4.80005 10.8C4.80005 11.024 4.97605 11.2 5.20005 11.2C5.42405 11.2 5.60005 11.024 5.60005 10.8C5.60005 10.576 5.42405 10.4 5.20005 10.4ZM7.60005 6.8C7.16005 6.8 6.80005 7.16 6.80005 7.6C6.80005 8.04 7.16005 8.4 7.60005 8.4C8.04005 8.4 8.40005 8.04 8.40005 7.6C8.40005 7.16 8.04005 6.8 7.60005 6.8ZM19.6 11.2C19.824 11.2 20 11.024 20 10.8C20 10.576 19.824 10.4 19.6 10.4C19.376 10.4 19.2 10.576 19.2 10.8C19.2 11.024 19.376 11.2 19.6 11.2ZM14 8.4C14.44 8.4 14.8 8.04 14.8 7.6C14.8 7.16 14.44 6.8 14 6.8C13.56 6.8 13.2 7.16 13.2 7.6C13.2 8.04 13.56 8.4 14 8.4ZM14 5.6C14.224 5.6 14.4 5.424 14.4 5.2C14.4 4.976 14.224 4.8 14 4.8C13.776 4.8 13.6 4.976 13.6 5.2C13.6 5.424 13.776 5.6 14 5.6ZM5.20005 13.6C4.97605 13.6 4.80005 13.776 4.80005 14C4.80005 14.224 4.97605 14.4 5.20005 14.4C5.42405 14.4 5.60005 14.224 5.60005 14C5.60005 13.776 5.42405 13.6 5.20005 13.6ZM10.8 19.2C10.576 19.2 10.4 19.376 10.4 19.6C10.4 19.824 10.576 20 10.8 20C11.024 20 11.2 19.824 11.2 19.6C11.2 19.376 11.024 19.2 10.8 19.2ZM10.8 5.6C11.024 5.6 11.2 5.424 11.2 5.2C11.2 4.976 11.024 4.8 10.8 4.8C10.576 4.8 10.4 4.976 10.4 5.2C10.4 5.424 10.576 5.6 10.8 5.6ZM10.8 8.4C11.24 8.4 11.6 8.04 11.6 7.6C11.6 7.16 11.24 6.8 10.8 6.8C10.36 6.8 10 7.16 10 7.6C10 8.04 10.36 8.4 10.8 8.4ZM10.8 12.8C10.136 12.8 9.60005 13.336 9.60005 14C9.60005 14.664 10.136 15.2 10.8 15.2C11.464 15.2 12 14.664 12 14C12 13.336 11.464 12.8 10.8 12.8ZM17.2 13.2C16.76 13.2 16.4 13.56 16.4 14C16.4 14.44 16.76 14.8 17.2 14.8C17.64 14.8 18 14.44 18 14C18 13.56 17.64 13.2 17.2 13.2ZM17.2 16.4C16.76 16.4 16.4 16.76 16.4 17.2C16.4 17.64 16.76 18 17.2 18C17.64 18 18 17.64 18 17.2C18 16.76 17.64 16.4 17.2 16.4ZM17.2 10C16.76 10 16.4 10.36 16.4 10.8C16.4 11.24 16.76 11.6 17.2 11.6C17.64 11.6 18 11.24 18 10.8C18 10.36 17.64 10 17.2 10ZM17.2 6.8C16.76 6.8 16.4 7.16 16.4 7.6C16.4 8.04 16.76 8.4 17.2 8.4C17.64 8.4 18 8.04 18 7.6C18 7.16 17.64 6.8 17.2 6.8ZM19.6 13.6C19.376 13.6 19.2 13.776 19.2 14C19.2 14.224 19.376 14.4 19.6 14.4C19.824 14.4 20 14.224 20 14C20 13.776 19.824 13.6 19.6 13.6ZM14 16.4C13.56 16.4 13.2 16.76 13.2 17.2C13.2 17.64 13.56 18 14 18C14.44 18 14.8 17.64 14.8 17.2C14.8 16.76 14.44 16.4 14 16.4ZM14 19.2C13.776 19.2 13.6 19.376 13.6 19.6C13.6 19.824 13.776 20 14 20C14.224 20 14.4 19.824 14.4 19.6C14.4 19.376 14.224 19.2 14 19.2ZM10.8 9.6C10.136 9.6 9.60005 10.136 9.60005 10.8C9.60005 11.464 10.136 12 10.8 12C11.464 12 12 11.464 12 10.8C12 10.136 11.464 9.6 10.8 9.6ZM10.8 16.4C10.36 16.4 10 16.76 10 17.2C10 17.64 10.36 18 10.8 18C11.24 18 11.6 17.64 11.6 17.2C11.6 16.76 11.24 16.4 10.8 16.4ZM14 12.8C13.336 12.8 12.8 13.336 12.8 14C12.8 14.664 13.336 15.2 14 15.2C14.664 15.2 15.2 14.664 15.2 14C15.2 13.336 14.664 12.8 14 12.8ZM14 9.6C13.336 9.6 12.8 10.136 12.8 10.8C12.8 11.464 13.336 12 14 12C14.664 12 15.2 11.464 15.2 10.8C15.2 10.136 14.664 9.6 14 9.6Z" fill="#808080"/>
</svg>
