<svg width="24" height="24" viewBox="0 0 24 24" fill="none" xmlns="http://www.w3.org/2000/svg">
<path fill-rule="evenodd" clip-rule="evenodd" d="M5.40704 15.5H2.0647V8.5H5.31972C6.69741 8.5 7.52693 9.16459 7.52693 10.2464C7.52693 11.0322 6.93511 11.658 6.15895 11.7647V11.8035C7.10489 11.8472 7.85195 12.5506 7.85195 13.482C7.85195 14.7093 6.906 15.5 5.40704 15.5ZM3.84509 9.76125V11.3524H4.76193C5.40711 11.3524 5.79519 11.0468 5.79519 10.5423C5.79519 10.0523 5.44592 9.76125 4.84925 9.76125H3.84509ZM4.90261 14.2387H3.84509V12.4342H4.89291C5.62541 12.4342 6.04259 12.7543 6.04259 13.3267C6.04259 13.9186 5.63511 14.2387 4.90261 14.2387ZM15.8089 15.5H14.242V11.1292H14.2081L12.4763 15.5H11.4576L9.73061 11.1292H9.6918V15.5H8.12493V8.5H10.1818L11.9475 13.0745H11.9863L13.7521 8.5H15.8089V15.5ZM16.3809 8.5H19.4127C20.9166 8.5 21.9353 9.47505 21.9353 10.9789C21.9353 12.473 20.8632 13.448 19.306 13.448H18.1612V15.5H16.3809V8.5ZM18.1613 9.86312V12.1091H18.9326C19.6893 12.1091 20.1356 11.7162 20.1356 10.9837C20.1356 10.2561 19.6893 9.86312 18.9423 9.86312H18.1613Z" fill="#808080"/>
</svg>
