<svg width="24" height="24" viewBox="0 0 24 24" fill="none" xmlns="http://www.w3.org/2000/svg">
<path fill-rule="evenodd" clip-rule="evenodd" d="M5.4976 15.5C6.35016 15.4936 6.99359 15.3181 7.42789 14.9736C7.86218 14.629 8.07933 14.1138 8.07933 13.4279C8.07933 13.0497 7.98157 12.7292 7.78606 12.4663C7.59055 12.2035 7.3101 12.024 6.94471 11.9279C7.26843 11.8061 7.51362 11.617 7.68029 11.3606C7.84696 11.1042 7.93029 10.7949 7.93029 10.4327C7.93029 9.80449 7.69551 9.32532 7.22596 8.99519C6.75641 8.66506 6.07131 8.5 5.17067 8.5H2.65625V15.5H5.4976ZM5.22356 11.4183H4.34375V9.80288H5.17067C5.54888 9.80288 5.82292 9.86779 5.99279 9.9976C6.16266 10.1274 6.2476 10.3397 6.2476 10.6346C6.2476 10.891 6.16907 11.0849 6.01202 11.2163C5.85497 11.3478 5.59215 11.4151 5.22356 11.4183ZM5.44952 14.2019H4.34375V12.524H5.52644C6.10657 12.5272 6.39663 12.8205 6.39663 13.4038C6.39663 13.6571 6.3149 13.8534 6.15144 13.9928C5.98798 14.1322 5.75401 14.2019 5.44952 14.2019ZM10.6947 15.5V11.1442L13.1755 15.5H14.8534V8.5H13.1707V12.8558L10.6947 8.5H9.00721V15.5H10.6947ZM18.762 15.5C19.6146 15.4936 20.258 15.3181 20.6923 14.9736C21.1266 14.629 21.3438 14.1138 21.3438 13.4279C21.3438 13.0497 21.246 12.7292 21.0505 12.4663C20.855 12.2035 20.5745 12.024 20.2091 11.9279C20.5329 11.8061 20.778 11.617 20.9447 11.3606C21.1114 11.1042 21.1947 10.7949 21.1947 10.4327C21.1947 9.80449 20.9599 9.32532 20.4904 8.99519C20.0208 8.66506 19.3357 8.5 18.4351 8.5H15.9207V15.5H18.762ZM18.488 11.4183H17.6082V9.80288H18.4351C18.8133 9.80288 19.0873 9.86779 19.2572 9.9976C19.4271 10.1274 19.512 10.3397 19.512 10.6346C19.512 10.891 19.4335 11.0849 19.2764 11.2163C19.1194 11.3478 18.8566 11.4151 18.488 11.4183ZM18.7139 14.2019H17.6082V12.524H18.7909C19.371 12.5272 19.6611 12.8205 19.6611 13.4038C19.6611 13.6571 19.5793 13.8534 19.4159 13.9928C19.2524 14.1322 19.0184 14.2019 18.7139 14.2019Z" fill="#808080"/>
</svg>
