<svg width="24" height="24" viewBox="0 0 24 24" fill="none" xmlns="http://www.w3.org/2000/svg">
<path fill-rule="evenodd" clip-rule="evenodd" d="M7.80307 15.8579C7.64927 16.4056 7.42459 17.2766 7.19991 18.4C6.91599 19.8196 5.01985 20.4331 3.94325 20.6696C3.59323 20.7465 3.31416 20.4191 3.41714 20.0759L5.38611 13.5126C5.51301 13.0896 5.90233 12.8 6.34394 12.8H7.34375C7.47387 12.8 7.56934 12.6777 7.53778 12.5515L7.27942 11.518C7.23114 11.3249 7.0729 11.1788 6.87654 11.1461L5.09685 10.8495C4.91417 10.819 4.76328 10.6901 4.70471 10.5144L2.55802 4.07432C2.4707 3.81235 2.61228 3.52919 2.87425 3.44187L7.92557 1.75809C8.18754 1.67077 8.4707 1.81235 8.55802 2.07432L10.7139 8.54193C10.7675 8.70283 10.7359 8.87995 10.63 9.01239L9.34546 10.618C9.25319 10.7334 9.21663 10.8836 9.2456 11.0284L9.52662 12.4335C9.55794 12.5902 9.7512 12.6487 9.86415 12.5357L10.3413 12.0586C10.3788 12.0211 10.4297 12 10.4827 12H13.3999C13.5104 12 13.5999 12.0895 13.5999 12.2V12.6C13.5999 12.7104 13.6895 12.8 13.7999 12.8H14.1999C14.3104 12.8 14.3999 12.8895 14.3999 13V15C14.3999 15.1104 14.3104 15.2 14.1999 15.2H13.7999C13.6895 15.2 13.5999 15.2895 13.5999 15.4V15.8C13.5999 15.9104 13.5104 16 13.3999 16H11.3235C11.2478 16 11.1785 15.9572 11.1446 15.8894L10.8552 15.3105C10.8213 15.2428 10.7521 15.2 10.6763 15.2H9.99991C9.99991 15.2 9.59991 15.6 9.99991 16.4C10.2087 16.8177 10.5266 17.1263 10.7828 17.3259C11.0006 17.4957 11.0998 17.8002 10.9763 18.0472L10.6532 18.6934C10.5187 18.9624 10.1803 19.0503 9.94565 18.8622C9.56219 18.5548 9.03861 18.0774 8.79991 17.6C8.56695 17.1341 8.33399 16.3968 8.18005 15.8623C8.12467 15.67 7.85716 15.6652 7.80307 15.8579ZM15.4518 12.656C15.2961 12.745 15.1999 12.9107 15.1999 13.0901V14.9098C15.1999 15.0892 15.2961 15.2549 15.4518 15.3439L20.0518 17.9725C20.3852 18.163 20.7999 17.9223 20.7999 17.5384V10.4616C20.7999 10.0777 20.3852 9.83698 20.0518 10.0274L15.4518 12.656Z" fill="#808080"/>
</svg>
