<svg width="24" height="24" viewBox="0 0 24 24" fill="none" xmlns="http://www.w3.org/2000/svg">
<path fill-rule="evenodd" clip-rule="evenodd" d="M16.5999 8.0014L13.5999 5.00171L5.7199 12.8809C5.6399 12.9609 5.5999 13.0569 5.5999 13.1689V15.6006C5.5999 15.8246 5.7759 16.0006 5.9999 16.0006H8.4319C8.5359 16.0006 8.6399 15.9606 8.7119 15.8806L16.5999 8.0014ZM18.9679 5.63365C19.2799 5.32168 19.2799 4.81773 18.9679 4.50576L17.0959 2.63396C16.9464 2.48417 16.7435 2.39999 16.5319 2.39999C16.3203 2.39999 16.1174 2.48417 15.9679 2.63396L14.3999 4.2018L17.3999 7.20149L18.9679 5.63365ZM3.9999 18.4003H19.9999C20.8799 18.4003 21.5999 19.1203 21.5999 20.0002C21.5999 20.8801 20.8799 21.6 19.9999 21.6H3.9999C3.1199 21.6 2.3999 20.8801 2.3999 20.0002C2.3999 19.1203 3.1199 18.4003 3.9999 18.4003Z" fill="#808080"/>
</svg>
