<svg width="24" height="24" viewBox="0 0 24 24" fill="none" xmlns="http://www.w3.org/2000/svg">
<path fill-rule="evenodd" clip-rule="evenodd" d="M4.80005 19.2H6.40005V17.6H4.80005V19.2ZM6.40005 8H4.80005V9.6H6.40005V8ZM4.80005 16H6.40005V14.4H4.80005V16ZM8.00005 19.2H9.60005V17.6H8.00005V19.2ZM6.40005 4.8H4.80005V6.4H6.40005V4.8ZM9.60005 4.8H8.00005V6.4H9.60005V4.8ZM16 4.8H14.4V6.4H16V4.8ZM12.8 8H11.2V9.6H12.8V8ZM12.8 4.8H11.2V6.4H12.8V4.8ZM17.6 16H19.2V14.4H17.6V16ZM11.2 19.2H12.8V17.6H11.2V19.2ZM5.60005 12.8H18.4C18.84 12.8 19.2 12.44 19.2 12C19.2 11.56 18.84 11.2 18.4 11.2H5.60005C5.16005 11.2 4.80005 11.56 4.80005 12C4.80005 12.44 5.16005 12.8 5.60005 12.8ZM17.6 4.8V6.4H19.2V4.8H17.6ZM17.6 9.6H19.2V8H17.6V9.6ZM11.2 16H12.8V14.4H11.2V16ZM14.4 19.2H16V17.6H14.4V19.2ZM17.6 19.2H19.2V17.6H17.6V19.2Z" fill="#808080"/>
</svg>
