<svg width="24" height="24" viewBox="0 0 24 24" fill="none" xmlns="http://www.w3.org/2000/svg">
<path fill-rule="evenodd" clip-rule="evenodd" d="M4.80005 9.6H6.40005V8H4.80005V9.6ZM4.80005 6.4H6.40005V4.8H4.80005V6.4ZM8.00005 19.2H9.60005V17.6H8.00005V19.2ZM8.00005 12.8H9.60005V11.2H8.00005V12.8ZM4.80005 12.8H6.40005V11.2H4.80005V12.8ZM4.80005 19.2H6.40005V17.6H4.80005V19.2ZM4.80005 16H6.40005V14.4H4.80005V16ZM8.00005 6.4H9.60005V4.8H8.00005V6.4ZM17.6 16H19.2V14.4H17.6V16ZM12 19.2C12.44 19.2 12.8 18.84 12.8 18.4V5.6C12.8 5.16 12.44 4.8 12 4.8C11.56 4.8 11.2 5.16 11.2 5.6V18.4C11.2 18.84 11.56 19.2 12 19.2ZM17.6 19.2H19.2V17.6H17.6V19.2ZM17.6 12.8H19.2V11.2H17.6V12.8ZM17.6 4.8V6.4H19.2V4.8H17.6ZM17.6 9.6H19.2V8H17.6V9.6ZM14.4 6.4H16V4.8H14.4V6.4ZM14.4 19.2H16V17.6H14.4V19.2ZM14.4 12.8H16V11.2H14.4V12.8Z" fill="#808080"/>
</svg>
