<svg width="24" height="24" viewBox="0 0 24 24" fill="none" xmlns="http://www.w3.org/2000/svg">
<path fill-rule="evenodd" clip-rule="evenodd" d="M12.8 8H11.2V9.6H12.8V8ZM12.8 11.2H11.2V12.8H12.8V11.2ZM16 11.2H14.4V12.8H16V11.2ZM4.80005 6.4V17.6C4.80005 18.48 5.52005 19.2 6.40005 19.2H17.6C18.48 19.2 19.2 18.48 19.2 17.6V6.4C19.2 5.52 18.48 4.8 17.6 4.8H6.40005C5.52005 4.8 4.80005 5.52 4.80005 6.4ZM16.8 17.6H7.20005C6.76005 17.6 6.40005 17.24 6.40005 16.8V7.2C6.40005 6.76 6.76005 6.4 7.20005 6.4H16.8C17.24 6.4 17.6 6.76 17.6 7.2V16.8C17.6 17.24 17.24 17.6 16.8 17.6ZM12.8 14.4H11.2V16H12.8V14.4ZM9.60005 11.2H8.00005V12.8H9.60005V11.2Z" fill="#808080"/>
</svg>
