<svg width="24" height="24" viewBox="0 0 24 24" fill="none" xmlns="http://www.w3.org/2000/svg">
<path fill-rule="evenodd" clip-rule="evenodd" d="M9.60005 11.2H8.00005V12.8H9.60005V11.2ZM12.8 14.4H11.2V16H12.8V14.4ZM9.60005 4.8H8.00005V6.4H9.60005V4.8ZM12.8 11.2H11.2V12.8H12.8V11.2ZM6.40005 4.8H4.80005V6.4H6.40005V4.8ZM12.8 8H11.2V9.6H12.8V8ZM16 11.2H14.4V12.8H16V11.2ZM12.8 4.8H11.2V6.4H12.8V4.8ZM16 4.8H14.4V6.4H16V4.8ZM17.6 12.8H19.2V11.2H17.6V12.8ZM17.6 16H19.2V14.4H17.6V16ZM6.40005 8H4.80005V9.6H6.40005V8ZM17.6 4.8V6.4H19.2V4.8H17.6ZM17.6 9.6H19.2V8H17.6V9.6ZM6.40005 11.2H4.80005V12.8H6.40005V11.2ZM5.60005 19.2H18.4C18.84 19.2 19.2 18.84 19.2 18.4C19.2 17.96 18.84 17.6 18.4 17.6H5.60005C5.16005 17.6 4.80005 17.96 4.80005 18.4C4.80005 18.84 5.16005 19.2 5.60005 19.2ZM6.40005 14.4H4.80005V16H6.40005V14.4Z" fill="#808080"/>
</svg>
