<svg width="24" height="24" viewBox="0 0 24 24" fill="none" xmlns="http://www.w3.org/2000/svg">
<path fill-rule="evenodd" clip-rule="evenodd" d="M14.4 19.2H16V17.6H14.4V19.2ZM17.6 19.2H19.2V17.6H17.6V19.2ZM8.00005 19.2H9.60005V17.6H8.00005V19.2ZM11.2 19.2H12.8V17.6H11.2V19.2ZM17.6 16H19.2V14.4H17.6V16ZM17.6 12.8H19.2V11.2H17.6V12.8ZM4.80005 6.4V18.4C4.80005 18.84 5.16005 19.2 5.60005 19.2C6.04005 19.2 6.40005 18.84 6.40005 18.4V7.2C6.40005 6.76 6.76005 6.4 7.20005 6.4H18.4C18.84 6.4 19.2 6.04 19.2 5.6C19.2 5.16 18.84 4.8 18.4 4.8H6.40005C5.52005 4.8 4.80005 5.52 4.80005 6.4ZM17.6 9.6H19.2V8H17.6V9.6Z" fill="#808080"/>
</svg>
