<svg width="24" height="24" viewBox="0 0 24 24" fill="none" xmlns="http://www.w3.org/2000/svg">
<path fill-rule="evenodd" clip-rule="evenodd" d="M4.80005 6.4V17.6C4.80005 18.48 5.52005 19.2 6.40005 19.2H17.6C18.48 19.2 19.2 18.48 19.2 17.6V6.4C19.2 5.52 18.48 4.8 17.6 4.8H6.40005C5.52005 4.8 4.80005 5.52 4.80005 6.4ZM11.2 17.6H7.20005C6.76005 17.6 6.40005 17.24 6.40005 16.8V12.8H10.4C10.84 12.8 11.2 13.16 11.2 13.6V17.6ZM10.4 11.2H6.40005V7.2C6.40005 6.76 6.76005 6.4 7.20005 6.4H11.2V10.4C11.2 10.84 10.84 11.2 10.4 11.2ZM16.8 17.6H12.8V13.6C12.8 13.16 13.16 12.8 13.6 12.8H17.6V16.8C17.6 17.24 17.24 17.6 16.8 17.6ZM17.6 11.2H13.6C13.16 11.2 12.8 10.84 12.8 10.4V6.4H16.8C17.24 6.4 17.6 6.76 17.6 7.2V11.2Z" fill="#808080"/>
</svg>
