<svg width="24" height="24" viewBox="0 0 24 24" fill="none" xmlns="http://www.w3.org/2000/svg">
<path fill-rule="evenodd" clip-rule="evenodd" d="M8.00005 6.4H9.60005V4.8H8.00005V6.4ZM8.00005 12.8H9.60005V11.2H8.00005V12.8ZM8.00005 19.2H9.60005V17.6H8.00005V19.2ZM11.2 16H12.8V14.4H11.2V16ZM11.2 19.2H12.8V17.6H11.2V19.2ZM4.80005 19.2H6.40005V17.6H4.80005V19.2ZM4.80005 16H6.40005V14.4H4.80005V16ZM4.80005 12.8H6.40005V11.2H4.80005V12.8ZM4.80005 9.6H6.40005V8H4.80005V9.6ZM4.80005 6.4H6.40005V4.8H4.80005V6.4ZM11.2 12.8H12.8V11.2H11.2V12.8ZM17.6 16H19.2V14.4H17.6V16ZM17.6 12.8H19.2V11.2H17.6V12.8ZM17.6 19.2H19.2V17.6H17.6V19.2ZM17.6 9.6H19.2V8H17.6V9.6ZM11.2 9.6H12.8V8H11.2V9.6ZM17.6 4.8V6.4H19.2V4.8H17.6ZM11.2 6.4H12.8V4.8H11.2V6.4ZM14.4 19.2H16V17.6H14.4V19.2ZM14.4 12.8H16V11.2H14.4V12.8ZM14.4 6.4H16V4.8H14.4V6.4Z" fill="#808080"/>
</svg>
