<svg width="24" height="24" viewBox="0 0 24 24" fill="none" xmlns="http://www.w3.org/2000/svg">
<path fill-rule="evenodd" clip-rule="evenodd" d="M19.2 4.79999H4.80001C3.92001 4.79999 3.20001 5.51999 3.20001 6.39999V17.6C3.20001 18.48 3.92001 19.2 4.80001 19.2H19.2C20.08 19.2 20.8 18.48 20.8 17.6V6.39999C20.8 5.51999 20.08 4.79999 19.2 4.79999ZM18.4 17.6H12.8C12.36 17.6 12 17.24 12 16.8V13.6C12 13.16 12.36 12.8 12.8 12.8H18.4C18.84 12.8 19.2 13.16 19.2 13.6V16.8C19.2 17.24 18.84 17.6 18.4 17.6Z" fill="#808080"/>
</svg>
