<svg width="24" height="24" viewBox="0 0 24 24" fill="none" xmlns="http://www.w3.org/2000/svg">
<path fill-rule="evenodd" clip-rule="evenodd" d="M11.468 12.908H13.308L12.388 9.988L11.468 12.908ZM18.788 9.74V7.588C18.788 6.708 18.068 5.988 17.188 5.988H15.036L13.516 4.468C12.892 3.844 11.876 3.844 11.252 4.468L9.74 5.988H7.588C6.708 5.988 5.988 6.708 5.988 7.588V9.74L4.468 11.26C3.844 11.884 3.844 12.9 4.468 13.524L5.988 15.044V17.188C5.988 18.068 6.708 18.788 7.588 18.788H9.74L11.26 20.308C11.884 20.932 12.9 20.932 13.524 20.308L15.044 18.788H17.188C18.068 18.788 18.788 18.068 18.788 17.188V15.036L20.308 13.516C20.932 12.892 20.932 11.876 20.308 11.252L18.788 9.74ZM14.06 15.108L13.668 13.988H11.108L10.716 15.108C10.612 15.396 10.348 15.588 10.044 15.588C9.548 15.588 9.204 15.1 9.372 14.636L11.324 9.148C11.484 8.692 11.908 8.388 12.388 8.388C12.868 8.388 13.292 8.692 13.46 9.14L15.412 14.628C15.58 15.092 15.236 15.58 14.74 15.58C14.428 15.588 14.164 15.396 14.06 15.108Z" fill="#808080"/>
</svg>
