<svg width="24" height="24" viewBox="0 0 24 24" fill="none" xmlns="http://www.w3.org/2000/svg">
<path fill-rule="evenodd" clip-rule="evenodd" d="M20.394 11.346L18.314 9.26599V6.31399C18.314 5.87399 17.954 5.51399 17.514 5.51399H14.562L12.482 3.43399C12.3325 3.28418 12.1296 3.2 11.918 3.2C11.7063 3.2 11.5034 3.28418 11.354 3.43399L9.26595 5.51399H6.31395C5.87395 5.51399 5.51395 5.87399 5.51395 6.31399V9.26599L3.43395 11.346C3.12195 11.658 3.12195 12.162 3.43395 12.474L5.51395 14.554V17.514C5.51395 17.954 5.87395 18.314 6.31395 18.314H9.26595L11.346 20.394C11.658 20.706 12.162 20.706 12.474 20.394L14.554 18.314H17.514C17.954 18.314 18.314 17.954 18.314 17.514V14.562L20.394 12.482C20.706 12.17 20.706 11.658 20.394 11.346ZM16.65 12.698C16.378 14.394 15.17 15.85 13.546 16.426C12.578 16.77 11.618 16.786 10.746 16.57C10.418 16.49 10.362 16.05 10.642 15.85C11.898 14.986 12.714 13.546 12.714 11.914C12.714 10.282 11.898 8.84199 10.65 7.97799C10.37 7.78598 10.418 7.34598 10.754 7.25799C11.626 7.04199 12.586 7.05799 13.554 7.40199C15.17 7.97799 16.386 9.43399 16.658 11.13C16.698 11.394 16.714 11.658 16.714 11.914C16.706 12.17 16.69 12.434 16.65 12.698Z" fill="#808080"/>
</svg>
