<svg width="24" height="24" viewBox="0 0 24 24" fill="none" xmlns="http://www.w3.org/2000/svg">
<path fill-rule="evenodd" clip-rule="evenodd" d="M18.314 14.562L20.394 12.482C20.706 12.17 20.706 11.666 20.394 11.354L18.314 9.26599V6.31399C18.314 5.87399 17.954 5.51399 17.514 5.51399H14.562L12.482 3.43399C12.3325 3.28418 12.1296 3.2 11.918 3.2C11.7063 3.2 11.5034 3.28418 11.354 3.43399L9.26595 5.51399H6.31395C5.87395 5.51399 5.51395 5.87399 5.51395 6.31399V9.26599L3.43395 11.346C3.12195 11.658 3.12195 12.162 3.43395 12.474L5.51395 14.554V17.514C5.51395 17.954 5.87395 18.314 6.31395 18.314H9.26595L11.346 20.394C11.658 20.706 12.162 20.706 12.474 20.394L14.554 18.314H17.514C17.954 18.314 18.314 17.954 18.314 17.514V14.562ZM11.914 15.834V7.99399C11.914 7.50599 12.354 7.10599 12.834 7.20199C15.042 7.63399 16.714 9.57799 16.714 11.914C16.714 14.25 15.042 16.194 12.834 16.626C12.354 16.722 11.914 16.322 11.914 15.834Z" fill="#808080"/>
</svg>
