<svg width="24" height="24" viewBox="0 0 24 24" fill="none" xmlns="http://www.w3.org/2000/svg">
<path fill-rule="evenodd" clip-rule="evenodd" d="M18.314 9.26599V6.31399C18.314 5.87399 17.954 5.51399 17.514 5.51399H14.562L12.482 3.43399C12.3325 3.28418 12.1296 3.2 11.918 3.2C11.7063 3.2 11.5034 3.28418 11.354 3.43399L9.26595 5.51399H6.31395C5.87395 5.51399 5.51395 5.87399 5.51395 6.31399V9.26599L3.43395 11.346C3.12195 11.658 3.12195 12.162 3.43395 12.474L5.51395 14.554V17.514C5.51395 17.954 5.87395 18.314 6.31395 18.314H9.26595L11.346 20.394C11.658 20.706 12.162 20.706 12.474 20.394L14.554 18.314H17.514C17.954 18.314 18.314 17.954 18.314 17.514V14.562L20.394 12.482C20.706 12.17 20.706 11.666 20.394 11.354L18.314 9.26599ZM11.914 16.714C9.26595 16.714 7.11395 14.562 7.11395 11.914C7.11395 9.26599 9.26595 7.11399 11.914 7.11399C14.562 7.11399 16.714 9.26599 16.714 11.914C16.714 14.562 14.562 16.714 11.914 16.714ZM11.914 8.71399C10.146 8.71399 8.71395 10.146 8.71395 11.914C8.71395 13.682 10.146 15.114 11.914 15.114C13.682 15.114 15.114 13.682 15.114 11.914C15.114 10.146 13.682 8.71399 11.914 8.71399Z" fill="#808080"/>
</svg>
