<svg width="24" height="24" viewBox="0 0 24 24" fill="none" xmlns="http://www.w3.org/2000/svg">
<path fill-rule="evenodd" clip-rule="evenodd" d="M16.5564 10.696C15.9564 6.888 12.5564 4.016 8.70042 4C8.30842 4 7.92442 4.024 7.54842 4.08C7.14842 4.136 7.06842 4.664 7.43642 4.848C10.0604 6.152 11.8604 8.864 11.8604 12C11.8604 15.136 10.0604 17.848 7.43642 19.16C7.07642 19.344 7.14842 19.872 7.54842 19.928C7.92442 19.976 8.30842 20 8.70042 20C12.5564 19.984 15.9564 17.112 16.5564 13.304C16.6284 12.864 16.6444 12.432 16.6444 12C16.6444 11.568 16.6284 11.136 16.5564 10.696Z" fill="#808080"/>
</svg>
