<svg width="24" height="24" viewBox="0 0 24 24" fill="none" xmlns="http://www.w3.org/2000/svg">
<path fill-rule="evenodd" clip-rule="evenodd" d="M18.788 15.036L20.308 13.516C20.932 12.892 20.932 11.876 20.308 11.252L18.788 9.74V7.588C18.788 6.708 18.068 5.988 17.188 5.988H15.036L13.516 4.468C12.892 3.844 11.876 3.844 11.252 4.468L9.74 5.988H7.588C6.708 5.988 5.988 6.708 5.988 7.588V9.74L4.468 11.26C3.844 11.884 3.844 12.9 4.468 13.524L5.988 15.044V17.188C5.988 18.068 6.708 18.788 7.588 18.788H9.74L11.26 20.308C11.884 20.932 12.9 20.932 13.524 20.308L15.044 18.788H17.188C18.068 18.788 18.788 18.068 18.788 17.188V15.036ZM12.388 17.188C9.74 17.188 7.588 15.036 7.588 12.388C7.588 9.74 9.74 7.588 12.388 7.588C15.036 7.588 17.188 9.74 17.188 12.388C17.188 15.036 15.036 17.188 12.388 17.188Z" fill="#808080"/>
</svg>
