<svg width="24" height="24" viewBox="0 0 24 24" fill="none" xmlns="http://www.w3.org/2000/svg">
<path fill-rule="evenodd" clip-rule="evenodd" d="M19.2 6.4V11.672L17.368 9.832C17.056 9.52 16.544 9.52 16.232 9.832L13.6 12.472L10.968 9.84C10.8186 9.6902 10.6157 9.60601 10.404 9.60601C10.1924 9.60601 9.98951 9.6902 9.84005 9.84L7.20005 12.472L4.80005 10.064V6.4C4.80005 5.52 5.52005 4.8 6.40005 4.8H17.6C18.48 4.8 19.2 5.52 19.2 6.4ZM16.8 11.536L19.2 13.944V17.6C19.2 18.48 18.48 19.2 17.6 19.2H6.40005C5.52005 19.2 4.80005 18.48 4.80005 17.6V12.336L6.63205 14.168C6.94405 14.48 7.44805 14.48 7.76005 14.168L10.4 11.528L13.032 14.16C13.344 14.472 13.848 14.472 14.16 14.16L16.8 11.536Z" fill="#808080"/>
</svg>
