<svg width="24" height="24" viewBox="0 0 24 24" fill="none" xmlns="http://www.w3.org/2000/svg">
<path fill-rule="evenodd" clip-rule="evenodd" d="M8 13.602C6.672 13.602 5.6 14.674 5.6 16.002C5.6 17.05 4.672 17.602 4 17.602C4.736 18.578 5.992 19.202 7.2 19.202C8.968 19.202 10.4 17.77 10.4 16.002C10.4 14.674 9.328 13.602 8 13.602ZM18.968 6.10599L17.896 5.03399C17.7465 4.88419 17.5436 4.8 17.332 4.8C17.1204 4.8 16.9175 4.88419 16.768 5.03399L9.6 12.202L11.8 14.402L18.968 7.23399C19.28 6.92199 19.28 6.41799 18.968 6.10599Z" fill="#808080"/>
</svg>
