<svg width="24" height="24" viewBox="0 0 24 24" fill="none" xmlns="http://www.w3.org/2000/svg">
<path fill-rule="evenodd" clip-rule="evenodd" d="M5.89536 15.4065C6.72458 15.4002 7.35038 15.2296 7.77278 14.8945C8.19518 14.5593 8.40638 14.0582 8.40638 13.3911C8.40638 13.0233 8.31131 12.7115 8.12115 12.4559C7.93099 12.2003 7.65822 12.0257 7.30284 11.9322C7.6177 11.8137 7.85617 11.6298 8.01828 11.3804C8.18038 11.131 8.26143 10.8302 8.26143 10.478C8.26143 9.86696 8.03308 9.40091 7.57639 9.07983C7.1197 8.75874 6.45337 8.5982 5.57739 8.5982H3.13184V15.4065H5.89536ZM4.77312 11.4365V9.8654H5.57739C5.94524 9.8654 6.21177 9.92852 6.37699 10.0548C6.54221 10.181 6.62482 10.3876 6.62482 10.6743C6.62482 10.9237 6.54845 11.1123 6.3957 11.2401C6.24295 11.368 5.98732 11.4334 5.62883 11.4365H4.77312ZM4.77312 14.144V12.512H5.92342C6.48766 12.5151 6.76978 12.8004 6.76978 13.3677C6.76978 13.614 6.69029 13.8049 6.5313 13.9405C6.37232 14.0762 6.14475 14.144 5.8486 14.144H4.77312ZM12.6101 15.4065V9.8654H14.6535V8.5982H8.96283V9.8654H10.9688V15.4065H12.6101ZM18.039 15.5C18.5814 15.5 19.0638 15.4002 19.4862 15.2007C19.9086 15.0012 20.2367 14.7199 20.4705 14.3567C20.7043 13.9935 20.8321 13.575 20.8539 13.1012H19.222C19.2095 13.4878 19.1036 13.7699 18.904 13.9476C18.7045 14.1253 18.4162 14.2141 18.039 14.2141C17.5932 14.2141 17.2791 14.0582 17.0968 13.7465C16.9144 13.4348 16.8232 12.9157 16.8232 12.1894V11.7077C16.8326 11.0375 16.9323 10.5497 17.1225 10.2442C17.3126 9.93866 17.6119 9.78591 18.0203 9.78591C18.4224 9.78591 18.7217 9.87631 18.9181 10.0571C19.1145 10.2379 19.2189 10.5356 19.2314 10.9502H20.868C20.7994 10.1865 20.5142 9.58717 20.0123 9.1523C19.5104 8.71743 18.8464 8.5 18.0203 8.5C17.4467 8.5 16.9417 8.63638 16.5052 8.90915C16.0688 9.18192 15.7345 9.56847 15.5022 10.0688C15.27 10.5691 15.1539 11.1529 15.1539 11.82V12.1566C15.1539 13.2197 15.4111 14.0426 15.9254 14.6256C16.4398 15.2085 17.1443 15.5 18.039 15.5Z" fill="#808080"/>
</svg>
