<svg width="24" height="24" viewBox="0 0 24 24" fill="none" xmlns="http://www.w3.org/2000/svg">
<path fill-rule="evenodd" clip-rule="evenodd" d="M8.1601 11.36C7.2455 11.36 6.40037 11.8479 5.94307 12.64C5.48577 13.4321 5.48577 14.4079 5.94307 15.2C6.40037 15.9921 7.2455 16.48 8.1601 16.48C9.0747 16.48 9.91982 15.9921 10.3771 15.2C10.8344 14.4079 10.8344 13.4321 10.3771 12.64C9.91982 11.8479 9.0747 11.36 8.1601 11.36ZM14.2401 15.2C13.3564 15.2 12.6401 15.9164 12.6401 16.8C12.6401 17.6837 13.3564 18.4 14.2401 18.4C15.1238 18.4 15.8401 17.6837 15.8401 16.8C15.8401 15.9164 15.1238 15.2 14.2401 15.2ZM14.5601 5.60001C12.4393 5.60001 10.7201 7.31923 10.7201 9.44001C10.7201 11.5608 12.4393 13.28 14.5601 13.28C16.6809 13.28 18.4001 11.5608 18.4001 9.44001C18.4001 7.31923 16.6809 5.60001 14.5601 5.60001Z" fill="#808080"/>
</svg>
