<svg width="24" height="24" viewBox="0 0 24 24" fill="none" xmlns="http://www.w3.org/2000/svg">
<path fill-rule="evenodd" clip-rule="evenodd" d="M17.6 8.47398H16.152C15.792 7.84998 15.296 7.31398 14.696 6.90598L15.44 6.16198C15.752 5.84998 15.752 5.34598 15.44 5.03398C15.2905 4.88417 15.0876 4.79999 14.876 4.79999C14.6644 4.79999 14.4615 4.88417 14.312 5.03398L13.136 6.20998C12.768 6.12198 12.392 6.07398 12 6.07398C11.608 6.07398 11.232 6.12198 10.872 6.20998L9.68801 5.03398C9.53854 4.88417 9.33562 4.79999 9.12401 4.79999C8.91239 4.79999 8.70947 4.88417 8.56001 5.03398C8.24801 5.34598 8.24801 5.84998 8.56001 6.16198L9.29601 6.90598C8.70401 7.31398 8.20801 7.84998 7.84801 8.47398H6.40001C5.96001 8.47398 5.60001 8.83398 5.60001 9.27398C5.60001 9.71398 5.96001 10.074 6.40001 10.074H7.27201C7.23201 10.338 7.20001 10.602 7.20001 10.874V11.674H6.40001C5.96001 11.674 5.60001 12.034 5.60001 12.474C5.60001 12.914 5.96001 13.274 6.40001 13.274H7.20001V14.074C7.20001 14.346 7.23201 14.61 7.27201 14.874H6.40001C5.96001 14.874 5.60001 15.234 5.60001 15.674C5.60001 16.114 5.96001 16.474 6.40001 16.474H7.84801C8.68001 17.906 10.224 18.874 12 18.874C13.776 18.874 15.32 17.906 16.152 16.474H17.6C18.04 16.474 18.4 16.114 18.4 15.674C18.4 15.234 18.04 14.874 17.6 14.874H16.728C16.768 14.61 16.8 14.346 16.8 14.074V13.274H17.6C18.04 13.274 18.4 12.914 18.4 12.474C18.4 12.034 18.04 11.674 17.6 11.674H16.8V10.874C16.8 10.602 16.768 10.338 16.728 10.074H17.6C18.04 10.074 18.4 9.71398 18.4 9.27398C18.4 8.83398 18.04 8.47398 17.6 8.47398ZM12.8 14.874H11.2C10.76 14.874 10.4 14.514 10.4 14.074C10.4 13.634 10.76 13.274 11.2 13.274H12.8C13.24 13.274 13.6 13.634 13.6 14.074C13.6 14.514 13.24 14.874 12.8 14.874ZM12.8 11.674H11.2C10.76 11.674 10.4 11.314 10.4 10.874C10.4 10.434 10.76 10.074 11.2 10.074H12.8C13.24 10.074 13.6 10.434 13.6 10.874C13.6 11.314 13.24 11.674 12.8 11.674Z" fill="#808080"/>
</svg>
