<svg width="24" height="24" viewBox="0 0 24 24" fill="none" xmlns="http://www.w3.org/2000/svg">
<path fill-rule="evenodd" clip-rule="evenodd" d="M12.071 4.71704C10.463 3.10904 8.05504 2.78104 6.11904 3.72504L9.02304 6.62904C9.33504 6.94104 9.33504 7.44504 9.02304 7.75704L7.75104 9.02904C7.43904 9.34904 6.93504 9.34904 6.62304 9.02904L3.71904 6.12504C2.78304 8.06904 3.11104 10.461 4.71904 12.069C6.20704 13.557 8.38304 13.949 10.231 13.253L16.599 19.621C17.423 20.445 18.751 20.445 19.567 19.621C20.391 18.797 20.391 17.469 19.567 16.653L13.231 10.309C13.967 8.43704 13.583 6.22904 12.071 4.71704Z" fill="#808080"/>
</svg>
