<svg width="24" height="24" viewBox="0 0 24 24" fill="none" xmlns="http://www.w3.org/2000/svg">
<path fill-rule="evenodd" clip-rule="evenodd" d="M3.15604 9.43565C2.79809 10.2709 3.41074 11.2 4.31943 11.2H19.6804C20.5891 11.2 21.2017 10.2709 20.8438 9.43565C19.8465 7.10871 17.5585 5.59998 15.0268 5.59998H8.97299C6.44135 5.59998 4.1533 7.10871 3.15604 9.43565ZM6.3999 7.99998C6.3999 7.55815 6.75807 7.19998 7.1999 7.19998C7.64173 7.19998 7.9999 7.55815 7.9999 7.99998C7.9999 8.4418 7.64173 8.79998 7.1999 8.79998C6.75807 8.79998 6.3999 8.4418 6.3999 7.99998ZM10.3999 7.99998C9.95808 7.99998 9.5999 8.35815 9.5999 8.79998C9.5999 9.2418 9.95808 9.59998 10.3999 9.59998C10.8417 9.59998 11.1999 9.2418 11.1999 8.79998C11.1999 8.35815 10.8417 7.99998 10.3999 7.99998ZM12.7999 7.99998C12.7999 7.55815 13.1581 7.19998 13.5999 7.19998C14.0417 7.19998 14.3999 7.55815 14.3999 7.99998C14.3999 8.4418 14.0417 8.79998 13.5999 8.79998C13.1581 8.79998 12.7999 8.4418 12.7999 7.99998ZM16.7999 7.99998C16.3581 7.99998 15.9999 8.35815 15.9999 8.79998C15.9999 9.2418 16.3581 9.59998 16.7999 9.59998C17.2417 9.59998 17.5999 9.2418 17.5999 8.79998C17.5999 8.35815 17.2417 7.99998 16.7999 7.99998ZM3.73218 17.4204C3.14585 16.4432 3.84976 15.2 4.98938 15.2H19.0104C20.15 15.2 20.854 16.4432 20.2676 17.4204C19.6052 18.5245 18.4121 19.2 17.1246 19.2H6.87519C5.58769 19.2 4.39459 18.5245 3.73218 17.4204ZM3.5999 12C2.93716 12 2.3999 12.5372 2.3999 13.2C2.3999 13.8627 2.93716 14.4 3.5999 14.4H20.3999C21.0626 14.4 21.5999 13.8627 21.5999 13.2C21.5999 12.5372 21.0626 12 20.3999 12H3.5999Z" fill="#808080"/>
</svg>
