<svg width="24" height="24" viewBox="0 0 24 24" fill="none" xmlns="http://www.w3.org/2000/svg">
<path fill-rule="evenodd" clip-rule="evenodd" d="M3.99995 6.39999C4.43995 6.39999 4.79995 6.75999 4.79995 7.19999V16.8C4.79995 17.24 4.43995 17.6 3.99995 17.6C3.55995 17.6 3.19995 17.24 3.19995 16.8V7.19999C3.19995 6.75999 3.55995 6.39999 3.99995 6.39999ZM7.19995 6.39999C7.63995 6.39999 7.99995 6.75999 7.99995 7.19999V16.8C7.99995 17.24 7.63995 17.6 7.19995 17.6C6.75995 17.6 6.39995 17.24 6.39995 16.8V7.19999C6.39995 6.75999 6.75995 6.39999 7.19995 6.39999ZM20 6.39999H10.4C9.95995 6.39999 9.59995 6.75999 9.59995 7.19999V16.8C9.59995 17.24 9.95995 17.6 10.4 17.6H20C20.44 17.6 20.8 17.24 20.8 16.8V7.19999C20.8 6.75999 20.44 6.39999 20 6.39999ZM11.712 15.352L12.888 13.864C13.048 13.664 13.344 13.664 13.512 13.856L14.632 15.2L16.312 13.032C16.472 12.824 16.784 12.824 16.944 13.032L18.712 15.352C18.912 15.616 18.728 15.992 18.392 15.992H12.024C11.696 16 11.504 15.616 11.712 15.352Z" fill="#808080"/>
</svg>
