<svg width="24" height="24" viewBox="0 0 24 24" fill="none" xmlns="http://www.w3.org/2000/svg">
<path fill-rule="evenodd" clip-rule="evenodd" d="M5.07773 14.557C5.70117 14.5524 6.17168 14.424 6.48926 14.1721C6.80684 13.9201 6.96563 13.5434 6.96563 13.0418C6.96563 12.7652 6.89414 12.5309 6.75117 12.3387C6.6082 12.1465 6.40313 12.0152 6.13594 11.9449C6.37266 11.8559 6.55195 11.7176 6.67383 11.5301C6.7957 11.3426 6.85664 11.1164 6.85664 10.8516C6.85664 10.3922 6.68496 10.0418 6.3416 9.8004C5.99824 9.559 5.49727 9.43829 4.83867 9.43829H3V14.557H5.07773ZM4.87734 11.5723H4.23398V10.391H4.83867C5.11523 10.391 5.31562 10.4385 5.43984 10.5334C5.56406 10.6283 5.62617 10.7836 5.62617 10.9992C5.62617 11.1867 5.56875 11.3285 5.45391 11.4246C5.33906 11.5207 5.14687 11.5699 4.87734 11.5723ZM5.04258 13.6078H4.23398V12.3809H5.09883C5.52305 12.3832 5.73516 12.5977 5.73516 13.0242C5.73516 13.2094 5.67539 13.3529 5.55586 13.4549C5.43633 13.5568 5.26523 13.6078 5.04258 13.6078ZM9.64805 14.6274C10.0605 14.6274 10.418 14.5547 10.7203 14.4094C11.0227 14.2641 11.2547 14.0526 11.4164 13.7748C11.5781 13.4971 11.659 13.1684 11.659 12.7887V9.43829H10.425V12.7817C10.425 13.0981 10.3594 13.3266 10.2281 13.4672C10.0969 13.6078 9.90352 13.6781 9.64805 13.6781C9.1418 13.6781 8.88164 13.3981 8.86758 12.8379V9.43829H7.62656V12.8133C7.63359 13.3758 7.81641 13.8188 8.175 14.1422C8.53359 14.4656 9.02461 14.6274 9.64805 14.6274ZM14.4082 14.6274C14.9965 14.6274 15.4594 14.4996 15.7969 14.2442C16.1344 13.9887 16.3031 13.6371 16.3031 13.1895C16.3031 12.6293 16.0266 12.1899 15.4734 11.8711C15.2461 11.7399 14.9555 11.6174 14.6016 11.5037C14.2477 11.3901 14.0004 11.2799 13.8598 11.1733C13.7191 11.0666 13.6488 10.9477 13.6488 10.8164C13.6488 10.6664 13.7127 10.5428 13.8404 10.4455C13.9682 10.3483 14.1422 10.2996 14.3625 10.2996C14.5805 10.2996 14.7533 10.357 14.8811 10.4719C15.0088 10.5867 15.0727 10.7484 15.0727 10.957H16.3031C16.3031 10.6453 16.2223 10.3682 16.0605 10.1256C15.8988 9.88302 15.6721 9.69611 15.3803 9.56486C15.0885 9.43361 14.7586 9.36798 14.3906 9.36798C14.0133 9.36798 13.6734 9.42833 13.3711 9.54904C13.0687 9.66974 12.835 9.83849 12.6697 10.0553C12.5045 10.2721 12.4219 10.5223 12.4219 10.8059C12.4219 11.3754 12.7535 11.8231 13.4168 12.1488C13.6207 12.2496 13.8832 12.3539 14.2043 12.4617C14.5254 12.5695 14.7498 12.6738 14.8775 12.7746C15.0053 12.8754 15.0691 13.016 15.0691 13.1965C15.0691 13.3559 15.01 13.4795 14.8916 13.5674C14.7732 13.6553 14.6121 13.6992 14.4082 13.6992C14.0895 13.6992 13.8592 13.6342 13.7174 13.5041C13.5756 13.374 13.5047 13.1719 13.5047 12.8977H12.2672C12.2672 13.2352 12.3521 13.5334 12.5221 13.7924C12.692 14.0514 12.9451 14.2553 13.2814 14.4041C13.6178 14.5529 13.9934 14.6274 14.4082 14.6274ZM18.6199 14.557C19.0629 14.5547 19.4643 14.4486 19.824 14.2389C20.1838 14.0291 20.4627 13.7385 20.6607 13.367C20.8588 12.9955 20.9578 12.5754 20.9578 12.1067V11.8711C20.9555 11.407 20.8529 10.9881 20.6502 10.6143C20.4475 10.2404 20.1656 9.95099 19.8047 9.74591C19.4438 9.54083 19.0371 9.43829 18.5848 9.43829H16.9359V14.557H18.6199ZM18.5988 13.6078H18.1699V10.391H18.5848C18.948 10.391 19.2246 10.5164 19.4145 10.7672C19.6043 11.018 19.6992 11.3906 19.6992 11.8852V12.1067C19.6992 12.6035 19.6043 12.9779 19.4145 13.2299C19.2246 13.4818 18.9527 13.6078 18.5988 13.6078Z" fill="#808080"/>
</svg>
