<svg width="24" height="24" viewBox="0 0 24 24" fill="none" xmlns="http://www.w3.org/2000/svg">
<path fill-rule="evenodd" clip-rule="evenodd" d="M12.8 15.2H11.2C10.76 15.2 10.4 14.84 10.4 14.4H4.808V17.6C4.808 18.48 5.528 19.2 6.408 19.2H17.6C18.48 19.2 19.2 18.48 19.2 17.6V14.4H13.6C13.6 14.84 13.24 15.2 12.8 15.2ZM18.4 7.99999H15.2C15.2 6.23199 13.768 4.79999 12 4.79999C10.232 4.79999 8.8 6.23199 8.8 7.99999H5.6C4.72 7.99999 4 8.71999 4 9.59999V12C4 12.888 4.712 13.6 5.6 13.6H10.4V12.8C10.4 12.36 10.76 12 11.2 12H12.8C13.24 12 13.6 12.36 13.6 12.8V13.6H18.4C19.28 13.6 20 12.88 20 12V9.59999C20 8.71999 19.28 7.99999 18.4 7.99999ZM10.4 7.99999C10.4 7.11999 11.12 6.39999 12 6.39999C12.88 6.39999 13.6 7.11999 13.6 7.99999H10.392H10.4Z" fill="#808080"/>
</svg>
