<svg width="24" height="24" viewBox="0 0 24 24" fill="none" xmlns="http://www.w3.org/2000/svg">
<path fill-rule="evenodd" clip-rule="evenodd" d="M12 7.99999V6.39999C12 5.51999 11.28 4.79999 10.4 4.79999H5.6C4.72 4.79999 4 5.51999 4 6.39999V17.6C4 18.48 4.72 19.2 5.6 19.2H18.4C19.28 19.2 20 18.48 20 17.6V9.59999C20 8.71999 19.28 7.99999 18.4 7.99999H12ZM7.2 17.6H5.6V16H7.2V17.6ZM7.2 14.4H5.6V12.8H7.2V14.4ZM7.2 11.2H5.6V9.59999H7.2V11.2ZM7.2 7.99999H5.6V6.39999H7.2V7.99999ZM10.4 17.6H8.8V16H10.4V17.6ZM10.4 14.4H8.8V12.8H10.4V14.4ZM10.4 11.2H8.8V9.59999H10.4V11.2ZM10.4 7.99999H8.8V6.39999H10.4V7.99999ZM17.6 17.6H12V16H13.6V14.4H12V12.8H13.6V11.2H12V9.59999H17.6C18.04 9.59999 18.4 9.95999 18.4 10.4V16.8C18.4 17.24 18.04 17.6 17.6 17.6ZM16.8 11.2H15.2V12.8H16.8V11.2ZM16.8 14.4H15.2V16H16.8V14.4Z" fill="#808080"/>
</svg>
