<svg width="24" height="24" viewBox="0 0 24 24" fill="none" xmlns="http://www.w3.org/2000/svg">
<path fill-rule="evenodd" clip-rule="evenodd" d="M17.5532 9.08001L15.3212 11.312C15.0652 11.568 15.2412 12 15.6012 12H17.0332C17.0332 14.648 14.8812 16.8 12.2332 16.8C11.6012 16.8 10.9852 16.68 10.4332 16.448C10.1452 16.328 9.81723 16.416 9.60123 16.632C9.19323 17.04 9.33723 17.728 9.87323 17.944C10.6012 18.24 11.4012 18.4 12.2332 18.4C15.7692 18.4 18.6332 15.536 18.6332 12H20.0652C20.4252 12 20.6012 11.568 20.3452 11.32L18.1132 9.08801C17.9612 8.92801 17.7052 8.92801 17.5532 9.08001ZM7.43323 12C7.43323 9.35201 9.58523 7.20001 12.2332 7.20001C12.8652 7.20001 13.4812 7.32001 14.0332 7.55201C14.3212 7.67201 14.6492 7.58401 14.8652 7.36801C15.2732 6.96001 15.1292 6.27201 14.5932 6.05601C13.8652 5.76001 13.0652 5.60001 12.2332 5.60001C8.69723 5.60001 5.83323 8.46401 5.83323 12H4.40123C4.04123 12 3.86523 12.432 4.12123 12.68L6.35323 14.912C6.51323 15.072 6.76123 15.072 6.92123 14.912L9.15323 12.68C9.40123 12.432 9.22523 12 8.86523 12H7.43323Z" fill="#808080"/>
</svg>
