<svg width="24" height="24" viewBox="0 0 24 24" fill="none" xmlns="http://www.w3.org/2000/svg">
<path fill-rule="evenodd" clip-rule="evenodd" d="M12.544 7.50195C13.104 7.30995 13.52 6.78195 13.584 6.18995C13.624 5.81395 13.544 5.46195 13.36 5.17395L12.336 3.39795C12.184 3.13395 11.8 3.13395 11.64 3.39795L10.616 5.17395C10.48 5.41395 10.4 5.69395 10.4 5.99795C10.4 7.05395 11.44 7.87795 12.544 7.50195ZM15.624 15.534L14.824 14.734L13.96 15.59C12.92 16.63 11.096 16.638 10.048 15.59L9.19205 14.734L8.32005 15.59C7.80005 16.11 7.10405 16.398 6.36805 16.398C5.78405 16.398 5.24805 16.214 4.80005 15.91V18.798C4.80005 19.6779 5.52005 20.398 6.40005 20.398H17.6C18.48 20.398 19.2 19.6779 19.2 18.798V15.91C18.6 16.318 17.832 16.51 17.008 16.326C16.48 16.214 16.008 15.918 15.624 15.534ZM16.8 9.99795H12.8V9.19795C12.8 8.75795 12.44 8.39795 12 8.39795C11.56 8.39795 11.2 8.75795 11.2 9.19795V9.99795H7.20005C5.87205 9.99795 4.80005 11.07 4.80005 12.398V13.566C4.80005 14.246 5.20005 14.902 5.84805 15.118C6.43205 15.31 7.06405 15.166 7.47205 14.75L9.18405 13.046L10.888 14.75C11.496 15.358 12.496 15.358 13.104 14.75L14.816 13.046L16.52 14.75C16.864 15.094 17.344 15.254 17.84 15.19C18.632 15.086 19.192 14.342 19.192 13.542V12.406C19.2 11.07 18.128 9.99795 16.8 9.99795Z" fill="#808080"/>
</svg>
