<svg width="24" height="24" viewBox="0 0 24 24" fill="none" xmlns="http://www.w3.org/2000/svg">
<path fill-rule="evenodd" clip-rule="evenodd" d="M5.59999 16H18.4C18.84 16 19.2 16.36 19.2 16.8C19.2 17.24 18.84 17.6 18.4 17.6H5.59999C5.15999 17.6 4.79999 17.24 4.79999 16.8C4.79999 16.36 5.15999 16 5.59999 16ZM5.59999 10.4H18.4C18.84 10.4 19.2 10.76 19.2 11.2V13.6C19.2 14.04 18.84 14.4 18.4 14.4H5.59999C5.15999 14.4 4.79999 14.04 4.79999 13.6V11.2C4.79999 10.76 5.15999 10.4 5.59999 10.4ZM5.59999 7.20001H18.4C18.84 7.20001 19.2 7.56001 19.2 8.00001C19.2 8.44001 18.84 8.80001 18.4 8.80001H5.59999C5.15999 8.80001 4.79999 8.44001 4.79999 8.00001C4.79999 7.56001 5.15999 7.20001 5.59999 7.20001Z" fill="#808080"/>
</svg>
