<svg width="24" height="24" viewBox="0 0 24 24" fill="none" xmlns="http://www.w3.org/2000/svg">
<path fill-rule="evenodd" clip-rule="evenodd" d="M18.4 4.80001H17.6V4.00001C17.6 3.56001 17.24 3.20001 16.8 3.20001C16.36 3.20001 16 3.56001 16 4.00001V4.80001H8V4.00001C8 3.56001 7.64 3.20001 7.2 3.20001C6.76 3.20001 6.4 3.56001 6.4 4.00001V4.80001H5.6C4.72 4.80001 4 5.52001 4 6.40001V19.2C4 20.08 4.72 20.8 5.6 20.8H18.4C19.28 20.8 20 20.08 20 19.2V6.40001C20 5.52001 19.28 4.80001 18.4 4.80001ZM17.6 19.2H6.4C5.96 19.2 5.6 18.84 5.6 18.4V8.80001H18.4V18.4C18.4 18.84 18.04 19.2 17.6 19.2Z" fill="#808080"/>
</svg>
