<svg width="24" height="24" viewBox="0 0 24 24" fill="none" xmlns="http://www.w3.org/2000/svg">
<path fill-rule="evenodd" clip-rule="evenodd" d="M5.97114 15.596L7.57114 14.324C7.95514 14.02 8.17914 13.556 8.17914 13.068V10.988C10.5951 10.204 13.2111 10.196 15.6351 10.988V13.076C15.6351 13.564 15.8591 14.028 16.2431 14.332L17.8351 15.596C18.4751 16.1 19.3871 16.052 19.9631 15.476L20.9391 14.5C21.5791 13.86 21.5791 12.796 20.8991 12.196C15.7711 7.66799 8.04314 7.66799 2.91514 12.196C2.23514 12.796 2.23514 13.86 2.87514 14.5L3.85114 15.476C4.41914 16.052 5.33114 16.1 5.97114 15.596Z" fill="#808080"/>
</svg>
