<svg width="24" height="24" viewBox="0 0 24 24" fill="none" xmlns="http://www.w3.org/2000/svg">
<path fill-rule="evenodd" clip-rule="evenodd" d="M16.562 18.392C16.874 18.08 16.874 17.576 16.562 17.264L14.402 15.104L13.274 16.232L15.434 18.392C15.746 18.704 16.258 18.704 16.562 18.392ZM9.36995 9.03198H11.202V13.504L7.43395 17.264C7.12195 17.576 7.12195 18.08 7.43395 18.392C7.74595 18.704 8.24995 18.704 8.56195 18.392L12.802 14.152V9.03198H14.634C14.994 9.03198 15.17 8.59998 14.914 8.35198L12.282 5.71998C12.122 5.55998 11.874 5.55998 11.714 5.71998L9.08195 8.35198C8.83395 8.59998 9.00995 9.03198 9.36995 9.03198Z" fill="#808080"/>
</svg>
