<svg width="24" height="24" viewBox="0 0 24 24" fill="none" xmlns="http://www.w3.org/2000/svg">
<path fill-rule="evenodd" clip-rule="evenodd" d="M17.512 8.56L12 14.072L7.52805 9.6H10.4C10.84 9.6 11.2 9.24 11.2 8.8C11.2 8.36 10.84 8 10.4 8H5.60005C5.16005 8 4.80005 8.36 4.80005 8.8V13.6C4.80005 14.04 5.16005 14.4 5.60005 14.4C6.04005 14.4 6.40005 14.04 6.40005 13.6V10.728L11.432 15.76C11.744 16.072 12.248 16.072 12.56 15.76L18.632 9.688C18.944 9.376 18.944 8.872 18.632 8.56C18.328 8.256 17.816 8.256 17.512 8.56Z" fill="#808080"/>
</svg>
