<svg width="24" height="24" viewBox="0 0 24 24" fill="none" xmlns="http://www.w3.org/2000/svg">
<path fill-rule="evenodd" clip-rule="evenodd" d="M19.2 4.79999H4.79995C3.91995 4.79999 3.19995 5.51999 3.19995 6.39999V17.6C3.19995 18.48 3.91995 19.2 4.79995 19.2H19.2C20.08 19.2 20.8 18.48 20.8 17.6V6.39999C20.8 5.51999 20.08 4.79999 19.2 4.79999ZM18.4 17.6H5.59995C5.15995 17.6 4.79995 17.24 4.79995 16.8V16C4.79995 15.56 5.15995 15.2 5.59995 15.2H18.4C18.84 15.2 19.2 15.56 19.2 16V16.8C19.2 17.24 18.84 17.6 18.4 17.6Z" fill="#808080"/>
</svg>
