<svg width="24" height="24" viewBox="0 0 24 24" fill="none" xmlns="http://www.w3.org/2000/svg">
<path fill-rule="evenodd" clip-rule="evenodd" d="M5.02805 9.688L11.1 15.76C11.412 16.072 11.916 16.072 12.228 15.76L17.268 10.72V13.6C17.268 14.04 17.628 14.4 18.068 14.4C18.508 14.4 18.868 14.04 18.868 13.6V8.8C18.868 8.36 18.508 8 18.068 8H13.268C12.828 8 12.468 8.36 12.468 8.8C12.468 9.24 12.828 9.6 13.268 9.6H16.14L11.668 14.072L6.15605 8.56C6.00658 8.4102 5.80366 8.32601 5.59205 8.32601C5.38043 8.32601 5.17751 8.4102 5.02805 8.56C4.72405 8.872 4.72405 9.384 5.02805 9.688Z" fill="#808080"/>
</svg>
