<svg width="24" height="24" viewBox="0 0 24 24" fill="none" xmlns="http://www.w3.org/2000/svg">
<path fill-rule="evenodd" clip-rule="evenodd" d="M14.28 6.27998L15.432 7.43198L13.128 9.73598L14.264 10.872L16.568 8.56798L17.72 9.71998C17.968 9.96798 18.4 9.79198 18.4 9.43198V5.99998C18.4 5.77598 18.224 5.59998 18 5.59998H14.568C14.208 5.59998 14.032 6.03198 14.28 6.27998ZM9.43198 5.59998H5.99998C5.77598 5.59998 5.59998 5.77598 5.59998 5.99998V9.43198C5.59998 9.79198 6.03198 9.96798 6.27998 9.71198L7.43198 8.55998L11.2 12.32V17.6C11.2 18.04 11.56 18.4 12 18.4C12.44 18.4 12.8 18.04 12.8 17.6V12C12.8 11.792 12.712 11.584 12.568 11.432L8.56798 7.42398L9.71998 6.27198C9.96798 6.03198 9.79198 5.59998 9.43198 5.59998Z" fill="#808080"/>
</svg>
