<svg width="24" height="24" viewBox="0 0 24 24" fill="none" xmlns="http://www.w3.org/2000/svg">
<path fill-rule="evenodd" clip-rule="evenodd" d="M17.84 6.63401C17.6906 6.48421 17.4876 6.40002 17.276 6.40002C17.0644 6.40002 16.8615 6.48421 16.712 6.63401L8.00002 15.338V10.866C8.00002 10.426 7.64002 10.066 7.20002 10.066C6.76002 10.066 6.40002 10.426 6.40002 10.866V17.266C6.40002 17.706 6.76002 18.066 7.20002 18.066H13.6C14.04 18.066 14.4 17.706 14.4 17.266C14.4 16.826 14.04 16.466 13.6 16.466H9.12802L17.84 7.75401C18.144 7.45001 18.144 6.93801 17.84 6.63401Z" fill="#808080"/>
</svg>
