<svg width="24" height="24" viewBox="0 0 24 24" fill="none" xmlns="http://www.w3.org/2000/svg">
<path fill-rule="evenodd" clip-rule="evenodd" d="M15.9999 2.39999H7.9999C7.1199 2.39999 6.3999 3.11999 6.3999 3.99999V15.2C6.3999 16.08 7.1199 16.8 7.9999 16.8H15.9999C16.8799 16.8 17.5999 16.08 17.5999 15.2V3.99999C17.5999 3.11999 16.8799 2.39999 15.9999 2.39999ZM15.9999 12.4C15.9999 11.064 13.3359 10.4 11.9999 10.4C10.6639 10.4 7.9999 11.064 7.9999 12.4V4.79999C7.9999 4.35999 8.3599 3.99999 8.7999 3.99999H15.1999C15.6399 3.99999 15.9999 4.35999 15.9999 4.79999V12.4ZM11.0799 17.48C10.8319 17.232 10.3999 17.408 10.3999 17.768V18.4H7.1999C6.7599 18.4 6.3999 18.76 6.3999 19.2C6.3999 19.64 6.7599 20 7.1999 20H10.3999V20.632C10.3999 20.992 10.8319 21.168 11.0799 20.912L12.5119 19.48C12.6719 19.32 12.6719 19.072 12.5119 18.912L11.0799 17.48ZM16.7999 18.4H14.3999C13.9599 18.4 13.5999 18.76 13.5999 19.2C13.5999 19.64 13.9599 20 14.3999 20H16.7999C17.2399 20 17.5999 19.64 17.5999 19.2C17.5999 18.76 17.2399 18.4 16.7999 18.4ZM11.9999 8.79999C12.8799 8.79999 13.5999 8.07999 13.5999 7.19999C13.5999 6.31999 12.8799 5.59999 11.9999 5.59999C11.1199 5.59999 10.4079 6.31999 10.4079 7.19999C10.4079 8.07999 11.1199 8.79999 11.9999 8.79999Z" fill="#808080"/>
</svg>
