<svg width="24" height="24" viewBox="0 0 24 24" fill="none" xmlns="http://www.w3.org/2000/svg">
<path fill-rule="evenodd" clip-rule="evenodd" d="M13.439 4.67296C13.575 4.43296 13.439 4.11296 13.159 4.08096C11.063 3.78496 8.91901 4.30496 7.20701 5.56896C7.05501 5.68896 7.00701 5.91296 7.11101 6.08896L9.51901 10.265C9.67101 10.529 10.055 10.529 10.215 10.265L13.439 4.67296ZM19.431 9.04896C18.647 7.07296 17.095 5.48096 15.151 4.64896C14.967 4.56896 14.751 4.64896 14.647 4.82496L12.239 8.99296C12.087 9.24896 12.279 9.58496 12.591 9.58496H19.055C19.335 9.58496 19.535 9.30496 19.431 9.04896ZM19.487 10.385H14.527C14.223 10.385 14.023 10.721 14.183 10.985L17.591 16.897C17.727 17.137 18.071 17.177 18.247 16.961C19.639 15.217 20.231 12.937 19.887 10.729C19.863 10.529 19.687 10.385 19.487 10.385ZM5.73501 7.01696C4.35101 8.76896 3.75101 11.033 4.09501 13.249C4.11901 13.441 4.29501 13.585 4.49501 13.585H9.45501C9.75901 13.585 9.95901 13.249 9.79901 12.985L6.39101 7.08096C6.24701 6.84096 5.90301 6.80096 5.73501 7.01696ZM4.55101 14.921C5.33501 16.897 6.88701 18.489 8.83101 19.321C9.01501 19.401 9.23101 19.321 9.33501 19.145L11.743 14.977C11.895 14.713 11.703 14.377 11.399 14.377H4.92701C4.64701 14.385 4.44701 14.665 4.55101 14.921ZM10.815 19.897C12.911 20.193 15.055 19.673 16.767 18.409C16.927 18.289 16.975 18.057 16.871 17.881L14.463 13.705C14.311 13.441 13.927 13.441 13.767 13.705L10.535 19.297C10.399 19.537 10.543 19.857 10.815 19.897Z" fill="#808080"/>
</svg>
