<svg width="24" height="24" viewBox="0 0 24 24" fill="none" xmlns="http://www.w3.org/2000/svg">
<path fill-rule="evenodd" clip-rule="evenodd" d="M13.6 7.2C13.6 6.32 12.88 5.6 12 5.6H11.2V4.8C11.2 4.36 10.84 4 10.4 4H7.2C6.76 4 6.4 4.36 6.4 4.8V5.6H5.6C4.72 5.6 4 6.32 4 7.2V19.2C4 20.08 4.72 20.8 5.6 20.8H12C12.88 20.8 13.6 20.08 13.6 19.2H18.4C19.28 19.2 20 18.48 20 17.6V8.8C20 7.92 19.28 7.2 18.4 7.2H13.6ZM12 17.6H10.4V16H12V17.6ZM12 10.4H10.4V8.8H12V10.4ZM15.2 17.6H13.6V16H15.2V17.6ZM15.2 10.4H13.6V8.8H15.2V10.4ZM18.4 17.6H16.8V16H18.4V17.6ZM18.4 10.4H16.8V8.8H18.4V10.4Z" fill="#808080"/>
</svg>
