<svg width="24" height="24" viewBox="0 0 24 24" fill="none" xmlns="http://www.w3.org/2000/svg">
<path fill-rule="evenodd" clip-rule="evenodd" d="M19.2 4.79999H4.80001C3.92001 4.79999 3.20001 5.51999 3.20001 6.39999V17.6C3.20001 18.48 3.92001 19.2 4.80001 19.2H19.2C20.08 19.2 20.8 18.48 20.8 17.6V6.39999C20.8 5.51999 20.08 4.79999 19.2 4.79999ZM19.2 16.8C19.2 17.24 18.84 17.6 18.4 17.6H5.60001C5.16001 17.6 4.80001 17.24 4.80001 16.8V7.19999C4.80001 6.75999 5.16001 6.39999 5.60001 6.39999H18.4C18.84 6.39999 19.2 6.75999 19.2 7.19999V16.8ZM14.632 9.35999C14.4825 9.21019 14.2796 9.126 14.068 9.126C13.8564 9.126 13.6535 9.21019 13.504 9.35999L12 10.872L10.488 9.35999C10.3385 9.21019 10.1356 9.126 9.92401 9.126C9.7124 9.126 9.50948 9.21019 9.36001 9.35999C9.04801 9.67199 9.04801 10.176 9.36001 10.488L10.872 12L9.36001 13.512C9.04801 13.824 9.04801 14.328 9.36001 14.64C9.67201 14.952 10.176 14.952 10.488 14.64L12 13.128L13.512 14.64C13.824 14.952 14.328 14.952 14.64 14.64C14.952 14.328 14.952 13.824 14.64 13.512L13.128 12L14.64 10.488C14.944 10.184 14.944 9.67199 14.632 9.35999Z" fill="#808080"/>
</svg>
