<svg width="24" height="24" viewBox="0 0 24 24" fill="none" xmlns="http://www.w3.org/2000/svg">
<path fill-rule="evenodd" clip-rule="evenodd" d="M18.4 7.99999H16.656C16.744 7.75199 16.8 7.47999 16.8 7.19999C16.8 5.87199 15.728 4.79999 14.4 4.79999C13.56 4.79999 12.832 5.23199 12.4 5.87999L12 6.41599L11.6 5.87199C11.168 5.23199 10.44 4.79999 9.6 4.79999C8.272 4.79999 7.2 5.87199 7.2 7.19999C7.2 7.47999 7.256 7.75199 7.344 7.99999H5.6C4.712 7.99999 4.008 8.71199 4.008 9.59999L4 18.4C4 19.288 4.712 20 5.6 20H18.4C19.288 20 20 19.288 20 18.4V9.59999C20 8.71199 19.288 7.99999 18.4 7.99999ZM14.4 6.39999C14.84 6.39999 15.2 6.75999 15.2 7.19999C15.2 7.63999 14.84 7.99999 14.4 7.99999C13.96 7.99999 13.6 7.63999 13.6 7.19999C13.6 6.75999 13.96 6.39999 14.4 6.39999ZM9.6 6.39999C10.04 6.39999 10.4 6.75999 10.4 7.19999C10.4 7.63999 10.04 7.99999 9.6 7.99999C9.16 7.99999 8.8 7.63999 8.8 7.19999C8.8 6.75999 9.16 6.39999 9.6 6.39999ZM18.4 18.4H5.6V16.8H18.4V18.4ZM18.4 14.4H5.6V10.4C5.6 9.95999 5.96 9.59999 6.4 9.59999H9.664L8.48 11.216C8.216 11.576 8.296 12.08 8.656 12.336C9.008 12.592 9.512 12.512 9.768 12.16L12 9.11999L14.232 12.16C14.488 12.512 14.992 12.592 15.344 12.336C15.704 12.08 15.784 11.576 15.52 11.216L14.336 9.59999H17.6C18.04 9.59999 18.4 9.95999 18.4 10.4V14.4Z" fill="#808080"/>
</svg>
