<svg width="24" height="24" viewBox="0 0 24 24" fill="none" xmlns="http://www.w3.org/2000/svg">
<path fill-rule="evenodd" clip-rule="evenodd" d="M18.4 7.99999H16V6.39999C16 5.51199 15.288 4.79999 14.4 4.79999H9.6C8.712 4.79999 8 5.51199 8 6.39999V7.99999H5.6C4.712 7.99999 4 8.71199 4 9.59999V18.4C4 19.288 4.712 20 5.6 20H18.4C19.288 20 20 19.288 20 18.4V9.59999C20 8.71199 19.288 7.99999 18.4 7.99999ZM9.6 6.39999H14.4V7.99999H9.6V6.39999ZM18.4 18.4H5.6V16.8H18.4V18.4ZM18.4 14.4H5.6V10.4C5.6 9.95999 5.96 9.59999 6.4 9.59999H8V10.4C8 10.84 8.36 11.2 8.8 11.2C9.24 11.2 9.6 10.84 9.6 10.4V9.59999H14.4V10.4C14.4 10.84 14.76 11.2 15.2 11.2C15.64 11.2 16 10.84 16 10.4V9.59999H17.6C18.04 9.59999 18.4 9.95999 18.4 10.4V14.4Z" fill="#808080"/>
</svg>
