<svg width="24" height="24" viewBox="0 0 24 24" fill="none" xmlns="http://www.w3.org/2000/svg">
<path fill-rule="evenodd" clip-rule="evenodd" d="M17.6 4.79999H6.40005C5.52005 4.79999 4.80005 5.51999 4.80005 6.39999V17.6C4.80005 18.48 5.52005 19.2 6.40005 19.2H17.6C18.48 19.2 19.2 18.48 19.2 17.6V6.39999C19.2 5.51999 18.48 4.79999 17.6 4.79999ZM8.40005 16.8C7.73605 16.8 7.20005 16.264 7.20005 15.6C7.20005 14.936 7.73605 14.4 8.40005 14.4C9.06405 14.4 9.60005 14.936 9.60005 15.6C9.60005 16.264 9.06405 16.8 8.40005 16.8ZM8.40005 9.59999C7.73605 9.59999 7.20005 9.06399 7.20005 8.39999C7.20005 7.73599 7.73605 7.19999 8.40005 7.19999C9.06405 7.19999 9.60005 7.73599 9.60005 8.39999C9.60005 9.06399 9.06405 9.59999 8.40005 9.59999ZM12 13.2C11.336 13.2 10.8 12.664 10.8 12C10.8 11.336 11.336 10.8 12 10.8C12.664 10.8 13.2 11.336 13.2 12C13.2 12.664 12.664 13.2 12 13.2ZM15.6 16.8C14.936 16.8 14.4 16.264 14.4 15.6C14.4 14.936 14.936 14.4 15.6 14.4C16.264 14.4 16.8 14.936 16.8 15.6C16.8 16.264 16.264 16.8 15.6 16.8ZM15.6 9.59999C14.936 9.59999 14.4 9.06399 14.4 8.39999C14.4 7.73599 14.936 7.19999 15.6 7.19999C16.264 7.19999 16.8 7.73599 16.8 8.39999C16.8 9.06399 16.264 9.59999 15.6 9.59999Z" fill="#808080"/>
</svg>
