<svg width="24" height="24" viewBox="0 0 24 24" fill="none" xmlns="http://www.w3.org/2000/svg">
<path fill-rule="evenodd" clip-rule="evenodd" d="M19.2 4.79999H4.79995C3.91995 4.79999 3.19995 5.51999 3.19995 6.39999V7.99999C3.19995 8.43999 3.55995 8.79999 3.99995 8.79999C4.43995 8.79999 4.79995 8.43999 4.79995 7.99999V7.19999C4.79995 6.75999 5.15995 6.39999 5.59995 6.39999H18.4C18.84 6.39999 19.2 6.75999 19.2 7.19999V16.8C19.2 17.24 18.84 17.6 18.4 17.6H14.4C13.96 17.6 13.6 17.96 13.6 18.4C13.6 18.84 13.96 19.2 14.4 19.2H19.2C20.08 19.2 20.8 18.48 20.8 17.6V6.39999C20.8 5.51999 20.08 4.79999 19.2 4.79999ZM4.11195 13.672C3.63195 13.592 3.19995 13.984 3.19995 14.472C3.19995 14.864 3.48795 15.192 3.87995 15.256C5.54395 15.544 6.85595 16.856 7.14395 18.52C7.20795 18.912 7.53595 19.2 7.92795 19.2C8.41595 19.2 8.79995 18.768 8.72795 18.288C8.34395 15.92 6.47195 14.056 4.11195 13.672ZM3.19995 16.8V19.2H5.59995C5.59995 17.872 4.52795 16.8 3.19995 16.8ZM4.07995 10.44C3.60795 10.4 3.19995 10.768 3.19995 11.24C3.19995 11.648 3.50395 11.992 3.90395 12.032C7.31995 12.36 10.04 15.08 10.368 18.496C10.408 18.896 10.752 19.192 11.16 19.192C11.64 19.192 12.008 18.776 11.96 18.304C11.536 14.152 8.23195 10.856 4.07995 10.44Z" fill="#808080"/>
</svg>
