<svg width="24" height="24" viewBox="0 0 24 24" fill="none" xmlns="http://www.w3.org/2000/svg">
<path fill-rule="evenodd" clip-rule="evenodd" d="M10.52 4.384L7.544 9.248C7.216 9.776 7.6 10.464 8.224 10.464H14.168C14.792 10.464 15.176 9.776 14.848 9.248L11.88 4.384C11.568 3.872 10.832 3.872 10.52 4.384ZM15.6 12.064C14.3138 12.064 13.1254 12.7502 12.4823 13.864C11.8392 14.9778 11.8392 16.3502 12.4823 17.464C13.1254 18.5778 14.3138 19.264 15.6 19.264C16.8862 19.264 18.0746 18.5778 18.7177 17.464C19.3608 16.3502 19.3608 14.9778 18.7177 13.864C18.0746 12.7502 16.8862 12.064 15.6 12.064ZM4.8 18.864H9.6C10.04 18.864 10.4 18.504 10.4 18.064V13.264C10.4 12.824 10.04 12.464 9.6 12.464H4.8C4.36 12.464 4 12.824 4 13.264V18.064C4 18.504 4.36 18.864 4.8 18.864Z" fill="#808080"/>
</svg>
