<svg width="24" height="24" viewBox="0 0 24 24" fill="none" xmlns="http://www.w3.org/2000/svg">
<path fill-rule="evenodd" clip-rule="evenodd" d="M5.71929 15.5C3.69384 15.5 2.43262 14.2106 2.43262 11.9977C2.43262 9.78935 3.70321 8.5 5.71929 8.5C7.43061 8.5 8.72934 9.60181 8.78091 11.2006H7.12585C7.04146 10.4035 6.47414 9.87843 5.71929 9.87843C4.78158 9.87843 4.18613 10.6802 4.18613 11.993C4.18613 13.3198 4.77689 14.1216 5.72398 14.1216C6.47883 14.1216 7.02739 13.6246 7.13523 12.8322H8.79029C8.71058 14.4404 7.46343 15.5 5.71929 15.5ZM12.0934 8.59601H9.34588V15.3616H12.0934C14.1329 15.3616 15.3378 14.1004 15.3378 11.9389C15.3378 9.78221 14.1376 8.59601 12.0934 8.59601ZM11.0668 13.9738V9.98381H11.8685C12.9562 9.98381 13.5892 10.673 13.5892 11.9436C13.5892 13.2939 12.9891 13.9738 11.8685 13.9738H11.0668ZM17.5965 12.9939V15.3616H15.8759V8.59601H18.7734C20.4613 8.59601 21.3708 9.43057 21.3708 10.8278C21.3708 11.6576 20.9535 12.4172 20.2128 12.7407L21.5677 15.3616H19.6361L18.4733 12.9939H17.5965ZM17.5964 9.89473V11.817H18.6045C19.2374 11.817 19.6125 11.4466 19.6125 10.8606C19.6125 10.2839 19.214 9.89473 18.5998 9.89473H17.5964Z" fill="#808080"/>
</svg>
