<svg width="24" height="24" viewBox="0 0 24 24" fill="none" xmlns="http://www.w3.org/2000/svg">
<path fill-rule="evenodd" clip-rule="evenodd" d="M8.0553 19.2021H17.3273C18.2073 19.2021 18.9273 18.4821 18.9273 17.6021V8.31408C18.9273 7.60208 18.0633 7.24208 17.5593 7.74608L7.4873 17.8341C6.9833 18.3381 7.3433 19.2021 8.0553 19.2021ZM7.4953 17.8341C6.9913 18.3381 7.3433 19.2021 8.0553 19.2021H15.7273V9.58608L7.4953 17.8341ZM8.5833 10.4581L10.1273 12.0021L11.6713 10.4581C10.8153 9.61008 9.4393 9.61008 8.5833 10.4581ZM8.0233 9.04208C9.2793 8.14608 10.9833 8.14608 12.2393 9.04208C12.5273 9.25008 12.9193 9.21808 13.1673 8.96208C13.4793 8.65008 13.4473 8.11408 13.0873 7.85808C11.3273 6.60208 8.9353 6.60208 7.1673 7.85808C6.8073 8.11408 6.7673 8.65008 7.0873 8.96208C7.3433 9.21808 7.7353 9.25008 8.0233 9.04208ZM14.2953 6.95408C14.5673 7.17808 14.9593 7.17808 15.2073 6.93008L15.3033 6.83408C15.5833 6.55408 15.5513 6.09808 15.2393 5.84208C12.3033 3.40208 8.0233 3.38608 5.0793 5.79408C4.7353 6.07408 4.7033 6.58608 5.0153 6.89008C5.2713 7.15408 5.6873 7.18608 5.9673 6.95408C8.3753 4.97008 11.8873 4.97008 14.2953 6.95408Z" fill="#808080"/>
</svg>
