<svg width="24" height="24" viewBox="0 0 24 24" fill="none" xmlns="http://www.w3.org/2000/svg">
<path fill-rule="evenodd" clip-rule="evenodd" d="M12 4C7.584 4 4 7.584 4 12C4 16.416 7.584 20 12 20C16.416 20 20 16.416 20 12C20 7.584 16.416 4 12 4ZM12 18.4C8.472 18.4 5.6 15.528 5.6 12C5.6 8.472 8.472 5.6 12 5.6C15.528 5.6 18.4 8.472 18.4 12C18.4 15.528 15.528 18.4 12 18.4ZM15.104 9.032L10.4 13.736L8.896 12.232C8.74653 12.0822 8.54361 11.998 8.332 11.998C8.12039 11.998 7.91747 12.0822 7.768 12.232C7.456 12.544 7.456 13.048 7.768 13.36L9.84 15.432C10.152 15.744 10.656 15.744 10.968 15.432L16.24 10.16C16.552 9.848 16.552 9.344 16.24 9.032C15.928 8.72 15.416 8.72 15.104 9.032Z" fill="#808080"/>
</svg>
