<svg width="24" height="24" viewBox="0 0 24 24" fill="none" xmlns="http://www.w3.org/2000/svg">
<path fill-rule="evenodd" clip-rule="evenodd" d="M17.6 4.80005H6.40005C5.52005 4.80005 4.80005 5.52005 4.80005 6.40005V17.6C4.80005 18.48 5.52005 19.2 6.40005 19.2H17.6C18.48 19.2 19.2 18.48 19.2 17.6V6.40005C19.2 5.52005 18.48 4.80005 17.6 4.80005ZM10.968 15.432C10.656 15.744 10.152 15.744 9.84005 15.432L6.96805 12.56C6.81825 12.4106 6.73406 12.2077 6.73406 11.996C6.73406 11.7844 6.81825 11.5815 6.96805 11.432C7.28005 11.12 7.78405 11.12 8.09605 11.432L10.4 13.736L15.904 8.23205C16.216 7.92005 16.72 7.92005 17.032 8.23205C17.344 8.54405 17.344 9.04805 17.032 9.36005L10.968 15.432Z" fill="#808080"/>
</svg>
