<svg width="24" height="24" viewBox="0 0 24 24" fill="none" xmlns="http://www.w3.org/2000/svg">
<path fill-rule="evenodd" clip-rule="evenodd" d="M12.9657 20.4243L10.9139 19.4667C11.6966 18.95 11.6966 18.342 10.9139 17.6429C10.1312 16.9437 9.55363 17.1033 9.18113 18.1216C8.13239 17.3009 7.18241 16.3965 6.3312 15.4085C5.47998 14.4205 4.87968 13.235 4.53027 11.852L13.1708 8.06731C12.8973 9.16171 13.1937 9.54169 14.0601 9.20725C14.9266 8.87281 14.9266 8.34087 14.0601 7.61143L19.6457 5.17188L18.3235 8.22699C17.7307 7.58863 17.2671 7.58863 16.9327 8.22699C16.5983 8.86536 16.8415 9.32133 17.6623 9.59492L16.2488 13.1515C15.6713 12.6044 15.1849 12.6727 14.7897 13.3567C14.3945 14.0407 14.5921 14.6106 15.3825 15.0666L12.9657 20.4243ZM10.7999 11.2C10.1371 11.2 9.59988 11.7372 9.59988 12.4C9.59988 13.0627 10.1371 13.6 10.7999 13.6C11.4626 13.6 11.9999 13.0627 11.9999 12.4C11.9999 11.7372 11.4626 11.2 10.7999 11.2Z" fill="#808080"/>
</svg>
