<svg width="24" height="24" viewBox="0 0 24 24" fill="none" xmlns="http://www.w3.org/2000/svg">
<path fill-rule="evenodd" clip-rule="evenodd" d="M13.6 4.80871V10.3447H20C20 7.12071 17.616 4.44871 14.512 4.00871C14.032 3.93671 13.6 4.32071 13.6 4.80871ZM18.656 15.0567C19.496 13.9767 20 12.6167 20 11.1447H8.35205L7.80805 10.0007C7.68005 9.72071 7.39205 9.54471 7.08805 9.54471H5.60005C5.16005 9.54471 4.80005 9.90471 4.80005 10.3447C4.80005 10.7847 5.16005 11.1447 5.60005 11.1447H6.57605C6.57605 11.1447 8.08805 14.4007 8.27205 14.6807C7.20805 15.2487 6.56005 16.4967 6.88005 17.8327C7.12005 18.8407 7.95205 19.6487 8.96005 19.8727C10.64 20.2407 12.144 19.1047 12.36 17.5447H14.024C14.24 19.0967 15.736 20.2327 17.4 19.8807C18.416 19.6647 19.248 18.8647 19.504 17.8567C19.784 16.7447 19.392 15.7127 18.656 15.0567ZM9.60005 18.3447C8.93605 18.3447 8.40005 17.8087 8.40005 17.1447C8.40005 16.4807 8.93605 15.9447 9.60005 15.9447C10.264 15.9447 10.8 16.4807 10.8 17.1447C10.8 17.8087 10.264 18.3447 9.60005 18.3447ZM16.8 18.3447C16.136 18.3447 15.6 17.8087 15.6 17.1447C15.6 16.4807 16.136 15.9447 16.8 15.9447C17.464 15.9447 18 16.4807 18 17.1447C18 17.8087 17.464 18.3447 16.8 18.3447Z" fill="#808080"/>
</svg>
