<svg width="24" height="24" viewBox="0 0 24 24" fill="none" xmlns="http://www.w3.org/2000/svg">
<path fill-rule="evenodd" clip-rule="evenodd" d="M14 9.79999C13.4477 9.79999 13 10.2477 13 10.8C13 11.3523 13.4477 11.8 14 11.8C14.5522 11.8 15 11.3523 15 10.8C15 10.2477 14.5522 9.79999 14 9.79999ZM9.99995 9.79999C9.44767 9.79999 8.99995 10.2477 8.99995 10.8C8.99995 11.3523 9.44767 11.8 9.99995 11.8C10.5522 11.8 11 11.3523 11 10.8C11 10.2477 10.5522 9.79999 9.99995 9.79999ZM15.28 13.6H8.71995C8.56795 13.6 8.46395 13.76 8.53595 13.896C9.19995 15.152 10.504 16 12 16C13.496 16 14.8 15.152 15.464 13.896C15.528 13.76 15.424 13.6 15.28 13.6ZM20.752 11.472C20.552 10.264 19.6639 9.27999 18.504 8.93599C18.08 8.03999 17.48 7.25599 16.752 6.60799C15.488 5.47999 13.824 4.79999 12 4.79999C10.176 4.79999 8.51195 5.47999 7.24795 6.60799C6.51195 7.25599 5.91195 8.04799 5.49595 8.93599C4.33595 9.27999 3.44795 10.256 3.24795 11.472C3.21595 11.64 3.19995 11.816 3.19995 12C3.19995 12.184 3.21595 12.36 3.24795 12.528C3.44795 13.736 4.33595 14.72 5.49595 15.064C5.91195 15.952 6.51195 16.736 7.23195 17.376C8.49595 18.512 10.168 19.2 12 19.2C13.832 19.2 15.504 18.512 16.776 17.376C17.496 16.736 18.096 15.944 18.512 15.064C19.664 14.72 20.552 13.744 20.752 12.528C20.784 12.36 20.8 12.184 20.8 12C20.8 11.816 20.784 11.64 20.752 11.472ZM17.6 13.6C17.5199 13.6 17.448 13.584 17.368 13.576C17.208 14.112 16.976 14.608 16.68 15.064C15.68 16.592 13.96 17.6 12 17.6C10.04 17.6 8.31995 16.592 7.31995 15.064C7.02395 14.608 6.79195 14.112 6.63195 13.576C6.55195 13.584 6.47995 13.6 6.39995 13.6C5.51995 13.6 4.79995 12.88 4.79995 12C4.79995 11.12 5.51995 10.4 6.39995 10.4C6.47995 10.4 6.55195 10.416 6.63195 10.424C6.79195 9.88799 7.02395 9.39199 7.31995 8.93599C8.31995 7.40799 10.04 6.39999 12 6.39999C13.96 6.39999 15.68 7.40799 16.68 8.93599C16.976 9.39199 17.208 9.88799 17.368 10.424C17.448 10.416 17.5199 10.4 17.6 10.4C18.4799 10.4 19.2 11.12 19.2 12C19.2 12.88 18.4799 13.6 17.6 13.6Z" fill="#808080"/>
</svg>
