<svg width="24" height="24" viewBox="0 0 24 24" fill="none" xmlns="http://www.w3.org/2000/svg">
<path fill-rule="evenodd" clip-rule="evenodd" d="M11.1236 8.15276C10.7911 8.81766 11.2746 9.59998 12.018 9.59998H12.1819C12.5607 9.59998 12.907 9.38597 13.0763 9.04719L16.0763 3.04719C16.4088 2.38229 15.9253 1.59998 15.1819 1.59998H15.018C14.6392 1.59998 14.2929 1.81398 14.1236 2.15276L11.1236 8.15276ZM4.19995 10.4C3.64767 10.4 3.19995 10.8477 3.19995 11.4V12H21.6V11.4C21.6 10.8477 21.1522 10.4 20.6 10.4H4.19995ZM21.6 12.8H3.19995C3.19995 12.8 3.19995 15.2 4.79995 17.6C6.39995 20 8.79995 20 8.79995 20L9.32356 21.0472C9.49295 21.386 9.83921 21.6 10.218 21.6H14.5819C14.9607 21.6 15.307 21.386 15.4763 21.0472L16 20C16 20 18.4 20 20 17.6C21.6 15.2 21.6 12.8 21.6 12.8ZM15.218 9.59998C14.4746 9.59998 13.9911 8.81766 14.3236 8.15276L17.3236 2.15276C17.4929 1.81398 17.8392 1.59998 18.218 1.59998H18.3819C19.1253 1.59998 19.6088 2.38229 19.2763 3.04719L16.2763 9.04719C16.107 9.38597 15.7607 9.59998 15.3819 9.59998H15.218Z" fill="#808080"/>
</svg>
