<svg width="24" height="24" viewBox="0 0 24 24" fill="none" xmlns="http://www.w3.org/2000/svg">
<path fill-rule="evenodd" clip-rule="evenodd" d="M11.8206 11.1972C11.1485 11.1759 10.5351 11.0359 10.0951 10.8158C9.74183 10.6392 9.60005 10.4716 9.60005 10.4C9.60005 10.0249 9.47097 9.67997 9.25481 9.40716L8.86977 5.00615C8.83127 4.566 9.15686 4.17798 9.597 4.13947L10.394 4.06974C10.8341 4.03123 11.2221 4.35683 11.2606 4.79697L11.8206 11.1972ZM14.4 10.4C14.4 9.89257 14.6363 9.4403 15.0048 9.14718L15.3671 5.00615C15.4056 4.566 15.08 4.17798 14.6398 4.13947L13.8429 4.06974C13.4027 4.03123 13.0147 4.35683 12.9762 4.79697L12.4174 11.1846C12.9955 11.1413 13.5175 11.0096 13.905 10.8158C14.2583 10.6392 14.4 10.4716 14.4 10.4ZM17.7119 8.80002H16C15.6937 8.80002 15.4074 8.88612 15.1642 9.03544L15.8777 6.37276C15.992 5.94599 16.4307 5.69272 16.8575 5.80707L17.6302 6.01413C18.057 6.12848 18.3102 6.56715 18.1959 6.99392L17.7119 8.80002ZM18.4 9.60002C18.8419 9.60002 19.2 9.95819 19.2 10.4C19.2 11.1916 16.7866 19.347 16.7866 19.347C16.7176 19.7186 16.3917 20 16 20H8.00005C7.60873 20 7.28303 19.7191 7.21368 19.3479C7.21368 19.3479 4.80005 11.1967 4.80005 10.4C4.80005 9.95819 5.15822 9.60002 5.60005 9.60002H8.00005C8.44188 9.60002 8.80005 9.95819 8.80005 10.4C8.80005 11.2837 10.2327 12 12 12C13.7674 12 15.2 11.2837 15.2 10.4C15.2 9.95819 15.5582 9.60002 16 9.60002H18.4ZM8.00005 8.80002C8.30785 8.80002 8.59536 8.88694 8.83936 9.03757L8.12533 6.37276C8.01097 5.94599 7.5723 5.69272 7.14553 5.80707L6.37279 6.01413C5.94602 6.12848 5.69275 6.56715 5.8071 6.99392L6.29105 8.80002H8.00005Z" fill="#808080"/>
</svg>
