<svg width="24" height="24" viewBox="0 0 24 24" fill="none" xmlns="http://www.w3.org/2000/svg">
<path fill-rule="evenodd" clip-rule="evenodd" d="M19.2 5.60001H4.80001C3.92001 5.60001 3.20001 6.32001 3.20001 7.20001V17.6C3.20001 18.48 3.92001 19.2 4.80001 19.2H19.2C20.08 19.2 20.8 18.48 20.8 17.6V7.20001C20.8 6.32001 20.08 5.60001 19.2 5.60001ZM19.2 16.8C19.2 17.24 18.84 17.6 18.4 17.6H12V7.20001H18.4C18.84 7.20001 19.2 7.56001 19.2 8.00001V16.8ZM17.8 10H13.4C13.072 10 12.8 10.272 12.8 10.6C12.8 10.928 13.072 11.2 13.4 11.2H17.8C18.128 11.2 18.4 10.928 18.4 10.6C18.4 10.272 18.128 10 17.8 10ZM17.8 12H13.4C13.072 12 12.8 12.272 12.8 12.6C12.8 12.928 13.072 13.2 13.4 13.2H17.8C18.128 13.2 18.4 12.928 18.4 12.6C18.4 12.272 18.128 12 17.8 12ZM17.8 14H13.4C13.072 14 12.8 14.272 12.8 14.6C12.8 14.928 13.072 15.2 13.4 15.2H17.8C18.128 15.2 18.4 14.928 18.4 14.6C18.4 14.272 18.128 14 17.8 14Z" fill="#808080"/>
</svg>
