<svg width="24" height="24" viewBox="0 0 24 24" fill="none" xmlns="http://www.w3.org/2000/svg">
<path fill-rule="evenodd" clip-rule="evenodd" d="M19.5999 14.4C19.459 15.7817 19.459 16.8484 19.5999 17.6C19.7408 18.3517 20.1408 19.4184 20.7999 20.8H15.9999C15.1999 20.2667 14.6666 19.7334 14.3999 19.2C14.1332 18.6667 13.9999 17.8667 13.9999 16.8C13.1999 17.0667 12.3999 17.2 11.5999 17.2C10.7999 17.2 9.9999 17.0667 9.1999 16.8C9.1999 17.8667 9.06657 18.6667 8.7999 19.2C8.56657 19.6667 8.23115 20.1334 7.79365 20.6L7.5999 20.8H2.3999L2.65138 20.2552C3.16577 19.1142 3.48194 18.2292 3.5999 17.6C3.73601 16.8741 3.73601 15.8074 3.5999 14.4L3.72652 14.4004C3.96991 14.9736 4.53796 15.3755 5.1999 15.3755C5.86189 15.3755 6.42997 14.9735 6.67333 14.4003L6.9265 14.4003C7.16987 14.9735 7.73794 15.3755 8.3999 15.3755C9.06189 15.3755 9.62997 14.9735 9.87333 14.4003L10.1265 14.4003C10.3699 14.9735 10.9379 15.3755 11.5999 15.3755C12.2619 15.3755 12.83 14.9735 13.0733 14.4003L13.3265 14.4003C13.5699 14.9735 14.1379 15.3755 14.7999 15.3755C15.4619 15.3755 16.03 14.9735 16.2733 14.4003L16.5265 14.4003C16.7699 14.9735 17.3379 15.3755 17.9999 15.3755C18.6618 15.3755 19.2298 14.9736 19.4732 14.4005L19.5999 14.4ZM12.0997 6.39983L19.5999 12.4C19.6216 12.4 19.5995 12.4426 19.5987 12.4637C19.5652 13.3179 18.8622 14 17.9999 14C17.1564 14 16.4654 13.3473 16.4043 12.5194L16.3999 12.4064L16.3955 12.5194C16.3344 13.3473 15.6434 14 14.7999 14C13.9564 14 13.2654 13.3473 13.2043 12.5194L13.1999 12.4064L13.1955 12.5194C13.1344 13.3473 12.4434 14 11.5999 14C10.7564 14 10.0654 13.3473 10.0043 12.5194L9.9999 12.4064L9.99551 12.5194C9.93443 13.3473 9.24339 14 8.3999 14C7.55641 14 6.86537 13.3473 6.80429 12.5194L6.7999 12.4064L6.79551 12.5194C6.73443 13.3473 6.04339 14 5.1999 14C4.38209 14 3.70758 13.3864 3.61161 12.5945L3.60033 12.4373L3.5999 12.4L11.1001 6.39983C11.3923 6.16609 11.8075 6.16609 12.0997 6.39983ZM15.5999 2.40002C16.1332 2.40002 16.5332 3.06669 16.7999 4.40002C16.5332 4.13336 16.1332 4.00002 15.5999 4.00002C14.7999 4.00002 15.1999 4.80002 14.3999 4.80002C13.5999 4.80002 13.9999 4.40002 13.1999 4.40002C12.438 4.40002 12.7645 5.12565 11.7607 5.19475L11.5999 5.20002V2.80002C11.8666 2.53336 12.2666 2.40002 12.7999 2.40002C13.5999 2.40002 13.9999 2.80002 14.3999 2.80002C14.7999 2.80002 14.7999 2.40002 15.5999 2.40002Z" fill="#808080"/>
</svg>
