<svg width="24" height="24" viewBox="0 0 24 24" fill="none" xmlns="http://www.w3.org/2000/svg">
<path fill-rule="evenodd" clip-rule="evenodd" d="M7.20005 12.8H16.8C17.24 12.8 17.6 12.44 17.6 12C17.6 11.56 17.24 11.2 16.8 11.2H7.20005C6.76005 11.2 6.40005 11.56 6.40005 12C6.40005 12.44 6.76005 12.8 7.20005 12.8ZM5.60005 16H15.2C15.64 16 16 15.64 16 15.2C16 14.76 15.64 14.4 15.2 14.4H5.60005C5.16005 14.4 4.80005 14.76 4.80005 15.2C4.80005 15.64 5.16005 16 5.60005 16ZM8.00005 8.8C8.00005 9.24 8.36005 9.6 8.80005 9.6H18.4C18.84 9.6 19.2 9.24 19.2 8.8C19.2 8.36 18.84 8 18.4 8H8.80005C8.36005 8 8.00005 8.36 8.00005 8.8Z" fill="#808080"/>
</svg>
