<svg width="24" height="24" viewBox="0 0 24 24" fill="none" xmlns="http://www.w3.org/2000/svg">
<path fill-rule="evenodd" clip-rule="evenodd" d="M11.0619 6.34481C11.152 6.38083 11.2506 6.38988 11.3457 6.37086L15.0515 5.6297C15.1483 5.61034 15.2372 5.56277 15.307 5.49296L15.7451 5.05484C15.8973 4.90266 15.935 4.67017 15.8388 4.47768L15.3381 3.47641C15.2535 3.30701 15.0803 3.20001 14.8909 3.20001H7.69995C7.42381 3.20001 7.19995 3.42387 7.19995 3.70001V4.4615C7.19995 4.66595 7.32443 4.8498 7.51426 4.92573L11.0619 6.34481ZM7.99995 20.3C7.99995 20.5762 8.22381 20.8 8.49995 20.8H16.3C16.5761 20.8 16.8 20.5762 16.8 20.3V10.4963C16.8 10.4327 16.7878 10.3697 16.7642 10.3106L15.3544 6.78617C15.2649 6.56238 15.0285 6.43431 14.7921 6.48158L11.6019 7.11962C11.3682 7.16637 11.2 7.37157 11.2 7.60991V10.15C11.2 10.3074 11.1259 10.4556 11 10.55L8.19995 12.65C8.07405 12.7444 7.99995 12.8926 7.99995 13.05V20.3ZM7.37884 8.88945C7.28004 8.84006 7.24 8.71992 7.28939 8.62113L7.99995 7.20001L7.46828 6.13667C7.38232 5.96476 7.5647 5.78238 7.73661 5.86834L10.1973 7.09869C10.3049 7.15249 10.341 7.28842 10.2743 7.38852L8.89789 9.45311C8.84194 9.53703 8.73225 9.56616 8.64203 9.52105L7.37884 8.88945Z" fill="#808080"/>
</svg>
