<svg width="24" height="24" viewBox="0 0 24 24" fill="none" xmlns="http://www.w3.org/2000/svg">
<path fill-rule="evenodd" clip-rule="evenodd" d="M16.714 6.64198C16.5646 6.49218 16.3616 6.40799 16.15 6.40799C15.9384 6.40799 15.7355 6.49218 15.586 6.64198L11.674 10.546L7.76202 6.63398C7.61256 6.48418 7.40964 6.39999 7.19802 6.39999C6.98641 6.39999 6.78349 6.48418 6.63402 6.63398C6.32202 6.94598 6.32202 7.44998 6.63402 7.76198L10.546 11.674L6.63402 15.586C6.32202 15.898 6.32202 16.402 6.63402 16.714C6.94602 17.026 7.45002 17.026 7.76202 16.714L11.674 12.802L15.586 16.714C15.898 17.026 16.402 17.026 16.714 16.714C17.026 16.402 17.026 15.898 16.714 15.586L12.802 11.674L16.714 7.76198C17.018 7.45798 17.018 6.94598 16.714 6.64198Z" fill="#808080"/>
</svg>
