<svg width="24" height="24" viewBox="0 0 24 24" fill="none" xmlns="http://www.w3.org/2000/svg">
<path fill-rule="evenodd" clip-rule="evenodd" d="M17.6 5.60001H6.40005C5.51205 5.60001 4.80005 6.32001 4.80005 7.20001V16.8C4.80005 17.68 5.51205 18.4 6.40005 18.4H17.6C18.48 18.4 19.2 17.68 19.2 16.8V7.20001C19.2 6.32001 18.48 5.60001 17.6 5.60001ZM11.2 10.8C11.2 11.024 11.024 11.2 10.8 11.2H10.4C10.176 11.2 10 11.024 10 10.8H8.40005V13.2H10C10 12.976 10.176 12.8 10.4 12.8H10.8C11.024 12.8 11.2 12.976 11.2 13.2V13.6C11.2 14.04 10.84 14.4 10.4 14.4H8.00005C7.56005 14.4 7.20005 14.04 7.20005 13.6V10.4C7.20005 9.96001 7.56005 9.60001 8.00005 9.60001H10.4C10.84 9.60001 11.2 9.96001 11.2 10.4V10.8ZM16.8 10.8C16.8 11.024 16.624 11.2 16.4 11.2H16C15.776 11.2 15.6 11.024 15.6 10.8H14V13.2H15.6C15.6 12.976 15.776 12.8 16 12.8H16.4C16.624 12.8 16.8 12.976 16.8 13.2V13.6C16.8 14.04 16.44 14.4 16 14.4H13.6C13.16 14.4 12.8 14.04 12.8 13.6V10.4C12.8 9.96001 13.16 9.60001 13.6 9.60001H16C16.44 9.60001 16.8 9.96001 16.8 10.4V10.8Z" fill="#808080"/>
</svg>
