<svg width="24" height="24" viewBox="0 0 24 24" fill="none" xmlns="http://www.w3.org/2000/svg">
<path fill-rule="evenodd" clip-rule="evenodd" d="M16.7139 6.64198C16.5644 6.49218 16.3615 6.40799 16.1499 6.40799C15.9383 6.40799 15.7354 6.49218 15.5859 6.64198L11.6739 10.546L7.7619 6.63398C7.61244 6.48418 7.40952 6.39999 7.1979 6.39999C6.98629 6.39999 6.78337 6.48418 6.6339 6.63398C6.3219 6.94598 6.3219 7.44998 6.6339 7.76198L10.5459 11.674L6.6339 15.586C6.3219 15.898 6.3219 16.402 6.6339 16.714C6.9459 17.026 7.4499 17.026 7.7619 16.714L11.6739 12.802L15.5859 16.714C15.8979 17.026 16.4019 17.026 16.7139 16.714C17.0259 16.402 17.0259 15.898 16.7139 15.586L12.8019 11.674L16.7139 7.76198C17.0179 7.45798 17.0179 6.94598 16.7139 6.64198Z" fill="#808080"/>
</svg>
