<svg width="24" height="24" viewBox="0 0 24 24" fill="none" xmlns="http://www.w3.org/2000/svg">
<path fill-rule="evenodd" clip-rule="evenodd" d="M21.5977 13.6C21.5977 11.488 19.9577 9.77599 17.8777 9.63199C17.3337 6.87199 14.9097 4.79999 11.9977 4.79999C10.9337 4.79999 9.94174 5.08799 9.07774 5.57599L10.2697 6.76799C10.8057 6.53599 11.3817 6.39999 11.9977 6.39999C14.4297 6.39999 16.3977 8.36799 16.3977 10.8V11.2H17.5977C18.9257 11.2 19.9977 12.272 19.9977 13.6C19.9977 14.392 19.6137 15.08 19.0297 15.52L20.1577 16.648C21.0297 15.912 21.5977 14.832 21.5977 13.6ZM5.36574 5.24799C5.05374 5.55999 5.05374 6.06399 5.36574 6.37599L7.01374 8.02399H6.67774C4.05374 8.30399 2.06974 10.696 2.44574 13.456C2.76574 15.872 4.94974 17.6 7.37374 17.6H16.5817L17.6137 18.632C17.9257 18.944 18.4297 18.944 18.7417 18.632C19.0537 18.32 19.0537 17.816 18.7417 17.504L6.49374 5.24799C6.34428 5.09819 6.14136 5.014 5.92974 5.014C5.71813 5.014 5.51521 5.09819 5.36574 5.24799ZM7.19774 16C5.42974 16 3.99774 14.568 3.99774 12.8C3.99774 11.032 5.42974 9.59999 7.19774 9.59999H8.58174L14.9817 16H7.19774Z" fill="#808080"/>
</svg>
