<svg width="24" height="24" viewBox="0 0 24 24" fill="none" xmlns="http://www.w3.org/2000/svg">
<path fill-rule="evenodd" clip-rule="evenodd" d="M17.8799 10.432C17.3359 7.67198 14.9119 5.59998 11.9999 5.59998C9.6879 5.59998 7.6799 6.91198 6.6799 8.83198C4.2719 9.08798 2.3999 11.128 2.3999 13.6C2.3999 16.248 4.5519 18.4 7.1999 18.4H17.5999C19.8079 18.4 21.5999 16.608 21.5999 14.4C21.5999 12.288 19.9599 10.576 17.8799 10.432ZM10.9679 15.432C10.6559 15.744 10.1519 15.744 9.8399 15.432L8.1599 13.76C8.0101 13.6105 7.92591 13.4076 7.92591 13.196C7.92591 12.9844 8.0101 12.7814 8.1599 12.632C8.4719 12.32 8.9759 12.32 9.2879 12.632L10.3999 13.744L13.9839 10.16C14.2959 9.84798 14.7999 9.84798 15.1119 10.16C15.4239 10.472 15.4239 10.976 15.1119 11.288L10.9679 15.432Z" fill="#808080"/>
</svg>
