<svg width="24" height="24" viewBox="0 0 24 24" fill="none" xmlns="http://www.w3.org/2000/svg">
<path fill-rule="evenodd" clip-rule="evenodd" d="M17.8799 10.432C17.3359 7.67198 14.9119 5.59998 11.9999 5.59998C9.6879 5.59998 7.6799 6.91198 6.6799 8.83198C4.2719 9.08798 2.3999 11.128 2.3999 13.6C2.3999 16.248 4.5519 18.4 7.1999 18.4H17.5999C19.8079 18.4 21.5999 16.608 21.5999 14.4C21.5999 12.288 19.9599 10.576 17.8799 10.432ZM17.5999 16.8H7.1999C5.4319 16.8 3.9999 15.368 3.9999 13.6C3.9999 11.832 5.4319 10.4 7.1999 10.4H7.7679C8.2959 8.55198 9.9839 7.19998 11.9999 7.19998C14.4319 7.19998 16.3999 9.16798 16.3999 11.6V12H17.5999C18.9279 12 19.9999 13.072 19.9999 14.4C19.9999 15.728 18.9279 16.8 17.5999 16.8Z" fill="#808080"/>
</svg>
