<svg width="24" height="24" viewBox="0 0 24 24" fill="none" xmlns="http://www.w3.org/2000/svg">
<path fill-rule="evenodd" clip-rule="evenodd" d="M9.026 14.794L5.906 11.674L9.026 8.55402C9.338 8.24202 9.338 7.74602 9.026 7.43402C8.87812 7.2843 8.67644 7.20003 8.466 7.20003C8.25556 7.20003 8.05388 7.2843 7.906 7.43402L4.234 11.106C3.922 11.418 3.922 11.922 4.234 12.234L7.906 15.914C8.218 16.226 8.714 16.226 9.026 15.914C9.338 15.602 9.338 15.106 9.026 14.794ZM14.306 14.794L17.426 11.674L14.306 8.55401C14.1563 8.40613 14.072 8.20445 14.072 7.99401C14.072 7.78357 14.1563 7.5819 14.306 7.43401C14.618 7.12201 15.114 7.12201 15.426 7.43401L19.098 11.106C19.41 11.418 19.41 11.922 19.098 12.234L15.426 15.914C15.114 16.226 14.618 16.226 14.306 15.914C14.1563 15.7661 14.072 15.5645 14.072 15.354C14.072 15.1436 14.1563 14.9419 14.306 14.794Z" fill="#808080"/>
</svg>
