<svg width="24" height="24" viewBox="0 0 24 24" fill="none" xmlns="http://www.w3.org/2000/svg">
<path fill-rule="evenodd" clip-rule="evenodd" d="M20 15.2V5.6C20 4.72 19.28 4 18.4 4H8.8C7.92 4 7.2 4.72 7.2 5.6V15.2C7.2 16.08 7.92 16.8 8.8 16.8H18.4C19.28 16.8 20 16.08 20 15.2ZM11.52 12.424L12.824 14.168L14.888 11.592C15.048 11.392 15.352 11.392 15.512 11.592L17.88 14.552C18.088 14.816 17.904 15.2 17.568 15.2H9.6C9.272 15.2 9.08 14.824 9.28 14.56L10.88 12.424C11.04 12.216 11.36 12.216 11.52 12.424ZM4 8V18.4C4 19.28 4.72 20 5.6 20H16C16.44 20 16.8 19.64 16.8 19.2C16.8 18.76 16.44 18.4 16 18.4H6.4C5.96 18.4 5.6 18.04 5.6 17.6V8C5.6 7.56 5.24 7.2 4.8 7.2C4.36 7.2 4 7.56 4 8Z" fill="#808080"/>
</svg>
