<svg width="24" height="24" viewBox="0 0 24 24" fill="none" xmlns="http://www.w3.org/2000/svg">
<path fill-rule="evenodd" clip-rule="evenodd" d="M18.968 6.90598L17.096 5.03398C16.9466 4.88417 16.7437 4.79999 16.532 4.79999C16.3204 4.79999 16.1175 4.88417 15.968 5.03398L13.472 7.52998L12.488 6.56198C12.176 6.24998 11.672 6.25798 11.36 6.56198C11.048 6.87398 11.048 7.37798 11.36 7.68998L11.936 8.26598L4.92005 15.282C4.84005 15.362 4.80005 15.458 4.80005 15.57V18.802C4.80005 19.026 4.97605 19.202 5.20005 19.202H8.43205C8.53605 19.202 8.64005 19.162 8.71205 19.082L15.728 12.066L16.304 12.642C16.616 12.954 17.12 12.954 17.432 12.642C17.744 12.33 17.744 11.826 17.432 11.514L16.456 10.538L18.952 8.04198C19.28 7.72198 19.28 7.21798 18.968 6.90598ZM7.93605 17.602L6.40005 16.066L12.848 9.61798L14.384 11.154L7.93605 17.602Z" fill="#808080"/>
</svg>
