<svg width="24" height="24" viewBox="0 0 24 24" fill="none" xmlns="http://www.w3.org/2000/svg">
<path fill-rule="evenodd" clip-rule="evenodd" d="M12.4001 4C14.2179 4 15.7328 4.21333 16.9447 4.64C18.1565 5.06667 18.8635 5.70667 19.0654 6.56C19.4694 9.54667 18.9645 12.5333 17.5506 15.52C16.1367 18.5067 14.4199 20 12.4001 20L12.4 19.9968C10.4334 20 8.75403 18.5842 7.36185 15.7527L7.2496 15.52C5.83574 12.5333 5.33079 9.54667 5.73475 6.56C5.93673 5.70667 6.64366 5.06667 7.85554 4.64C9.06742 4.21333 10.5823 4 12.4001 4ZM15.2001 13.6L14.736 13.8513C14.2362 14.1104 13.5255 14.4 12.4001 14.4C10.8728 14.4 10.1092 13.8667 9.6001 13.6C9.93949 14.3111 10.2789 14.8444 10.6183 15.2C10.9577 15.5556 11.6365 16 12.4001 16C13.1637 16 13.8425 15.5556 14.1819 15.2C14.5213 14.8444 14.8607 14.3111 15.2001 13.6ZM11.4912 8.48C10.6833 8.48 9.97634 8.58667 9.37039 8.8C8.76445 9.01333 8.15851 9.33333 7.55257 9.76C8.36049 10.8267 9.16841 11.1467 9.97634 10.72C10.7843 10.2933 11.2892 9.54667 11.4912 8.48ZM13.309 8.48C13.511 9.54667 14.0159 10.2933 14.8239 10.72C15.6318 11.1467 16.4397 10.8267 17.2476 9.76C16.6417 9.33333 16.0357 9.01333 15.4298 8.8C14.8239 8.58667 14.1169 8.48 13.309 8.48Z" fill="#808080"/>
</svg>
