<svg width="24" height="24" viewBox="0 0 24 24" fill="none" xmlns="http://www.w3.org/2000/svg">
<path fill-rule="evenodd" clip-rule="evenodd" d="M12 5.60001H6.4C5.072 5.60001 4 6.67201 4 8.00001V14.4C4 15.728 5.072 16.8 6.4 16.8L5.784 17.416C5.56 17.64 5.56 17.992 5.784 18.216C6.008 18.44 6.36 18.44 6.584 18.216L8 16.8H9.6V12.8H6C5.776 12.8 5.6 12.624 5.6 12.4V7.60001C5.6 7.37601 5.776 7.20001 6 7.20001H12.4C12.624 7.20001 12.8 7.37601 12.8 7.60001V8.80001H14.4V8.00001C14.4 6.67201 13.328 5.60001 12 5.60001ZM6.4 13.6C6.84 13.6 7.2 13.96 7.2 14.4C7.2 14.84 6.84 15.2 6.4 15.2C5.96 15.2 5.6 14.84 5.6 14.4C5.6 13.96 5.96 13.6 6.4 13.6ZM18.856 10.128C18.744 9.80801 18.44 9.60001 18.08 9.60001H12.328C11.96 9.60001 11.664 9.80801 11.544 10.128L10.408 13.416V17.608C10.408 18.048 10.768 18.4 11.208 18.4C11.648 18.4 12.008 18.04 12.008 17.6V16.8H18.408V17.6C18.408 18.04 18.768 18.4 19.208 18.4C19.648 18.4 20 18.048 20.008 17.608L20 13.416L18.856 10.128ZM12.616 10.4H17.8C17.968 10.4 18.12 10.512 18.176 10.672L18.728 12.272C18.816 12.528 18.624 12.8 18.352 12.8H12.072C11.8 12.8 11.608 12.528 11.696 12.272L12.248 10.672C12.288 10.512 12.44 10.4 12.616 10.4ZM12 15.2C11.56 15.2 11.2 14.84 11.2 14.4C11.2 13.96 11.56 13.6 12 13.6C12.44 13.6 12.8 13.96 12.8 14.4C12.8 14.84 12.44 15.2 12 15.2ZM18.4 15.2C17.96 15.2 17.6 14.84 17.6 14.4C17.6 13.96 17.96 13.6 18.4 13.6C18.84 13.6 19.2 13.96 19.2 14.4C19.2 14.84 18.84 15.2 18.4 15.2Z" fill="#808080"/>
</svg>
