<svg width="24" height="24" viewBox="0 0 24 24" fill="none" xmlns="http://www.w3.org/2000/svg">
<path fill-rule="evenodd" clip-rule="evenodd" d="M10.4 4.80001H6.40005C5.52005 4.80001 4.80005 5.52001 4.80005 6.40001V17.6C4.80005 18.48 5.52005 19.2 6.40005 19.2H10.4V20C10.4 20.44 10.76 20.8 11.2 20.8C11.64 20.8 12 20.44 12 20V4.00001C12 3.56001 11.64 3.20001 11.2 3.20001C10.76 3.20001 10.4 3.56001 10.4 4.00001V4.80001ZM10.4 16.8H6.40005L10.4 12V16.8ZM17.6 4.80001H13.6V6.40001H16.8C17.24 6.40001 17.6 6.76001 17.6 7.20001V16.8L13.6 12V19.2H17.6C18.48 19.2 19.2 18.48 19.2 17.6V6.40001C19.2 5.52001 18.48 4.80001 17.6 4.80001Z" fill="#808080"/>
</svg>
