<svg width="24" height="24" viewBox="0 0 24 24" fill="none" xmlns="http://www.w3.org/2000/svg">
<path fill-rule="evenodd" clip-rule="evenodd" d="M11.6429 12.8C9.87556 12.8 8.44287 14.2327 8.44287 16C8.44287 17.7674 9.87556 19.2 11.6429 19.2C13.4102 19.2 14.8429 17.7674 14.8429 16C14.8429 14.2327 13.4102 12.8 11.6429 12.8ZM11.6429 4.80005C8.83487 4.80005 6.26687 5.83205 4.28287 7.52805C3.93087 7.83205 3.89887 8.37605 4.23487 8.71205L7.11487 11.592C7.40287 11.88 7.85087 11.904 8.17087 11.656C9.13087 10.904 10.3389 10.456 11.6429 10.456C12.9549 10.456 14.1549 10.904 15.1149 11.648C15.4349 11.896 15.8829 11.872 16.1629 11.584L19.0429 8.70405C19.3789 8.36805 19.3469 7.82405 18.9869 7.52005C17.0189 5.82405 14.4509 4.80005 11.6429 4.80005Z" fill="#808080"/>
</svg>
