<svg width="24" height="24" viewBox="0 0 24 24" fill="none" xmlns="http://www.w3.org/2000/svg">
<path fill-rule="evenodd" clip-rule="evenodd" d="M18.3999 16.8C19.2799 16.8 19.9919 16.08 19.9919 15.2L19.9999 7.19998C19.9999 6.31998 19.2799 5.59998 18.3999 5.59998H5.5999C4.7199 5.59998 3.9999 6.31998 3.9999 7.19998V15.2C3.9999 16.08 4.7199 16.8 5.5999 16.8H3.1999C2.7599 16.8 2.3999 17.16 2.3999 17.6C2.3999 18.04 2.7599 18.4 3.1999 18.4H20.7999C21.2399 18.4 21.5999 18.04 21.5999 17.6C21.5999 17.16 21.2399 16.8 20.7999 16.8H18.3999ZM6.3999 7.19998H17.5999C18.0399 7.19998 18.3999 7.55998 18.3999 7.99998V14.4C18.3999 14.84 18.0399 15.2 17.5999 15.2H6.3999C5.9599 15.2 5.5999 14.84 5.5999 14.4V7.99998C5.5999 7.55998 5.9599 7.19998 6.3999 7.19998Z" fill="#808080"/>
</svg>
