<svg width="24" height="24" viewBox="0 0 24 24" fill="none" xmlns="http://www.w3.org/2000/svg">
<path fill-rule="evenodd" clip-rule="evenodd" d="M9.608 13.8332H4.8C4.36 13.8332 4 14.1932 4 14.6332C4 15.0732 4.36 15.4332 4.8 15.4332H9.608V16.8652C9.608 17.2252 10.04 17.4012 10.288 17.1452L12.512 14.9132C12.664 14.7532 12.664 14.5052 12.512 14.3452L10.288 12.1132C10.04 11.8572 9.608 12.0412 9.608 12.3932V13.8332ZM14.392 12.0652V10.6332H19.2C19.64 10.6332 20 10.2732 20 9.83324C20 9.39324 19.64 9.03324 19.2 9.03324H14.392V7.60124C14.392 7.24124 13.96 7.06524 13.712 7.32124L11.488 9.55324C11.336 9.71324 11.336 9.96124 11.488 10.1212L13.712 12.3532C13.96 12.6012 14.392 12.4252 14.392 12.0652Z" fill="#808080"/>
</svg>
