<svg width="24" height="24" viewBox="0 0 24 24" fill="none" xmlns="http://www.w3.org/2000/svg">
<path fill-rule="evenodd" clip-rule="evenodd" d="M20 9.23198V7.19998C20 6.31998 19.28 5.59998 18.4 5.59998H5.6C4.72 5.59998 4.008 6.31198 4.008 7.19998V9.23198C4.008 9.78398 4.272 10.328 4.76 10.584C5.264 10.864 5.6 11.392 5.6 12C5.6 12.608 5.256 13.144 4.752 13.408C4.272 13.672 4 14.216 4 14.768V16.8C4 17.68 4.72 18.4 5.6 18.4H18.4C19.28 18.4 20 17.68 20 16.8V14.768C20 14.216 19.728 13.672 19.248 13.408C18.744 13.136 18.4 12.608 18.4 12C18.4 11.392 18.744 10.864 19.248 10.592C19.728 10.328 20 9.78398 20 9.23198ZM12.8 16.4H11.2V14.8H12.8V16.4ZM12.8 12.8H11.2V11.2H12.8V12.8ZM12.8 9.19998H11.2V7.59998H12.8V9.19998Z" fill="#808080"/>
</svg>
