<svg width="24" height="24" viewBox="0 0 24 24" fill="none" xmlns="http://www.w3.org/2000/svg">
<path fill-rule="evenodd" clip-rule="evenodd" d="M14.3999 8.79999C13.9599 8.79999 13.5999 9.15999 13.5999 9.59999V11.2H11.9999C11.5599 11.2 11.1999 11.56 11.1999 12C11.1999 12.44 11.5599 12.8 11.9999 12.8H13.5999V14.4C13.5999 14.84 13.9599 15.2 14.3999 15.2C14.8399 15.2 15.1999 14.84 15.1999 14.4V12.8H16.7999C17.2399 12.8 17.5999 12.44 17.5999 12C17.5999 11.56 17.2399 11.2 16.7999 11.2H15.1999V9.59999C15.1999 9.15999 14.8399 8.79999 14.3999 8.79999ZM3.9999 12C3.9999 9.93599 5.1199 8.13599 6.7839 7.16799C7.0399 7.01599 7.2079 6.75999 7.2079 6.46399C7.2079 5.84799 6.5359 5.46399 5.9999 5.77599C3.8559 7.02399 2.3999 9.34399 2.3999 12C2.3999 14.656 3.8559 16.976 5.9999 18.224C6.5359 18.536 7.2079 18.152 7.2079 17.536C7.2079 17.24 7.0399 16.984 6.7839 16.832C5.1199 15.864 3.9999 14.064 3.9999 12ZM14.3999 4.79999C10.4319 4.79999 7.1999 8.03199 7.1999 12C7.1999 15.968 10.4319 19.2 14.3999 19.2C18.3679 19.2 21.5999 15.968 21.5999 12C21.5999 8.03199 18.3679 4.79999 14.3999 4.79999ZM14.3999 17.6C11.3119 17.6 8.7999 15.088 8.7999 12C8.7999 8.91199 11.3119 6.39999 14.3999 6.39999C17.4879 6.39999 19.9999 8.91199 19.9999 12C19.9999 15.088 17.4879 17.6 14.3999 17.6Z" fill="#808080"/>
</svg>
