<svg width="24" height="24" viewBox="0 0 24 24" fill="none" xmlns="http://www.w3.org/2000/svg">
<path fill-rule="evenodd" clip-rule="evenodd" d="M20 4.79999H4.00002C3.12002 4.79999 2.40002 5.51999 2.40002 6.39999V17.6C2.40002 18.48 3.12002 19.2 4.00002 19.2H20C20.88 19.2 21.592 18.48 21.592 17.6L21.6 6.39999C21.6 5.51999 20.88 4.79999 20 4.79999ZM8.80002 7.19999C10.128 7.19999 11.2 8.27199 11.2 9.59999C11.2 10.928 10.128 12 8.80002 12C7.47202 12 6.40002 10.928 6.40002 9.59999C6.40002 8.27199 7.47202 7.19999 8.80002 7.19999ZM13.6 16.8H4.00002V16C4.00002 14.4 7.20002 13.52 8.80002 13.52C10.4 13.52 13.6 14.4 13.6 16V16.8ZM16.68 13.6H17.792C17.92 13.6 18.032 13.656 18.112 13.76L18.992 14.92C19.112 15.08 19.096 15.304 18.952 15.44L17.864 16.528C17.72 16.672 17.48 16.688 17.328 16.56C16.4125 15.7818 15.7497 14.7485 15.424 13.592C15.28 13.088 15.2 12.552 15.2 12C15.2 11.448 15.28 10.912 15.424 10.4C15.752 9.22399 16.424 8.19999 17.328 7.43199C17.488 7.29599 17.72 7.31999 17.864 7.46399L18.952 8.55199C19.096 8.69599 19.112 8.91999 18.992 9.07199L18.112 10.232C18.04 10.336 17.92 10.392 17.792 10.392H16.68C16.504 10.896 16.4 11.432 16.4 11.992C16.4 12.552 16.504 13.096 16.68 13.6Z" fill="#808080"/>
</svg>
