<svg width="24" height="24" viewBox="0 0 24 24" fill="none" xmlns="http://www.w3.org/2000/svg">
<path fill-rule="evenodd" clip-rule="evenodd" d="M5.794 9.55399L4.234 11.114C3.922 11.426 3.922 11.93 4.234 12.242L5.794 13.802C6.186 14.194 6.818 14.194 7.21 13.802C7.594 13.41 7.594 12.786 7.21 12.394L6.506 11.674L7.21 10.962C7.594 10.57 7.594 9.94599 7.21 9.55399C6.826 9.16199 6.186 9.16199 5.794 9.55399ZM16.138 9.55399C15.754 9.94599 15.754 10.57 16.138 10.962L16.842 11.674L16.138 12.386C15.754 12.778 15.754 13.402 16.138 13.794C16.53 14.186 17.162 14.186 17.554 13.794L19.114 12.234C19.426 11.922 19.426 11.418 19.114 11.106L17.554 9.54599C17.162 9.16199 16.522 9.16199 16.138 9.55399ZM11.674 16.842L10.962 16.138C10.57 15.754 9.946 15.754 9.554 16.138C9.162 16.53 9.162 17.162 9.554 17.554L11.114 19.114C11.426 19.426 11.93 19.426 12.242 19.114L13.802 17.554C14.194 17.162 14.194 16.53 13.802 16.138C13.41 15.754 12.786 15.754 12.394 16.138L11.674 16.842ZM9.554 7.20999C9.946 7.59399 10.57 7.59399 10.962 7.20999L11.674 6.50599L12.386 7.20999C12.778 7.59399 13.402 7.59399 13.794 7.20999C14.186 6.81799 14.186 6.18599 13.794 5.79399L12.234 4.23399C12.0845 4.08419 11.8816 4 11.67 4C11.4584 4 11.2555 4.08419 11.106 4.23399L9.554 5.79399C9.162 6.18599 9.162 6.82599 9.554 7.20999ZM11.674 9.27399C10.3485 9.27399 9.274 10.3485 9.274 11.674C9.274 12.9995 10.3485 14.074 11.674 14.074C12.9995 14.074 14.074 12.9995 14.074 11.674C14.074 10.3485 12.9995 9.27399 11.674 9.27399Z" fill="#808080"/>
</svg>
