<svg width="24" height="24" viewBox="0 0 24 24" fill="none" xmlns="http://www.w3.org/2000/svg">
<path fill-rule="evenodd" clip-rule="evenodd" d="M17.6 2.40002H6.4C5.96 2.40002 5.6 2.76002 5.6 3.20002C5.6 3.64002 5.96 4.00002 6.4 4.00002H17.6C18.04 4.00002 18.4 3.64002 18.4 3.20002C18.4 2.76002 18.04 2.40002 17.6 2.40002ZM6.4 21.6H17.6C18.04 21.6 18.4 21.24 18.4 20.8C18.4 20.36 18.04 20 17.6 20H6.4C5.96 20 5.6 20.36 5.6 20.8C5.6 21.24 5.96 21.6 6.4 21.6ZM18.4 5.60002H5.6C4.72 5.60002 4 6.32002 4 7.20002V16.8C4 17.68 4.72 18.4 5.6 18.4H18.4C19.28 18.4 20 17.68 20 16.8V7.20002C20 6.32002 19.28 5.60002 18.4 5.60002ZM12 7.80002C12.992 7.80002 13.8 8.60802 13.8 9.60002C13.8 10.592 12.992 11.4 12 11.4C11.008 11.4 10.2 10.592 10.2 9.60002C10.2 8.60802 11.008 7.80002 12 7.80002ZM16 16H8V14.8C8 13.464 10.664 12.8 12 12.8C13.336 12.8 16 13.464 16 14.8V16Z" fill="#808080"/>
</svg>
