<svg width="24" height="24" viewBox="0 0 24 24" fill="none" xmlns="http://www.w3.org/2000/svg">
<path fill-rule="evenodd" clip-rule="evenodd" d="M12.4 4C8.648 4 5.6 7.048 5.6 10.8C5.6 14.552 8.648 17.6 12.4 17.6H12.8V20C16.688 18.128 19.2 14.4 19.2 10.8C19.2 7.048 16.152 4 12.4 4ZM13.2 15.6H11.6V14H13.2V15.6ZM13.52 11.776C13.512 11.784 13.504 11.8 13.496 11.816C13.456 11.88 13.416 11.944 13.384 12.008C13.368 12.032 13.36 12.064 13.352 12.096C13.328 12.152 13.304 12.208 13.288 12.264C13.232 12.432 13.208 12.608 13.208 12.808H11.6C11.6 12.4 11.664 12.056 11.76 11.768C11.76 11.76 11.76 11.752 11.768 11.744C11.776 11.712 11.8 11.696 11.808 11.664C11.856 11.536 11.912 11.424 11.984 11.312C12.008 11.272 12.04 11.232 12.064 11.192C12.088 11.16 12.104 11.12 12.128 11.096L12.136 11.104C12.808 10.224 13.904 9.952 13.992 8.96C14.064 8.176 13.504 7.416 12.736 7.256C11.904 7.08 11.152 7.568 10.896 8.28C10.784 8.568 10.52 8.8 10.192 8.8H10.032C9.552 8.8 9.2 8.328 9.336 7.864C9.776 6.408 11.232 5.392 12.88 5.632C14.232 5.832 15.312 6.944 15.544 8.296C15.896 10.248 14.24 10.72 13.52 11.776Z" fill="#808080"/>
</svg>
