<svg width="24" height="24" viewBox="0 0 24 24" fill="none" xmlns="http://www.w3.org/2000/svg">
<path fill-rule="evenodd" clip-rule="evenodd" d="M19.2 8.79999V7.99999L16.8 9.59999L14.4 7.99999V8.79999L16.576 10.256C16.712 10.344 16.888 10.344 17.016 10.256L19.2 8.79999ZM20 4.79999H4.00002C3.12002 4.79999 2.40002 5.51999 2.40002 6.39999V17.6C2.40002 18.48 3.12002 19.2 4.00002 19.2H20C20.88 19.2 21.592 18.48 21.592 17.6L21.6 6.39999C21.6 5.51999 20.88 4.79999 20 4.79999ZM8.80002 7.19999C10.128 7.19999 11.2 8.27199 11.2 9.59999C11.2 10.928 10.128 12 8.80002 12C7.47202 12 6.40002 10.928 6.40002 9.59999C6.40002 8.27199 7.47202 7.19999 8.80002 7.19999ZM13.6 16.8H4.00002V16C4.00002 14.4 7.20002 13.52 8.80002 13.52C10.4 13.52 13.6 14.4 13.6 16V16.8ZM19.6 12H14C13.776 12 13.6 11.824 13.6 11.6V7.59999C13.6 7.37599 13.776 7.19999 14 7.19999H19.6C19.824 7.19999 20 7.37599 20 7.59999V11.6C20 11.824 19.824 12 19.6 12Z" fill="#808080"/>
</svg>
