<svg width="24" height="24" viewBox="0 0 24 24" fill="none" xmlns="http://www.w3.org/2000/svg">
<path fill-rule="evenodd" clip-rule="evenodd" d="M16.8 5.59998C17.1675 5.59998 17.4833 5.84941 17.5741 6.19777L17.5919 6.28684L19.1919 17.4868C19.2565 17.9387 18.9318 18.3459 18.4899 18.395L18.4 18.4H4.39998C3.85393 18.4 3.46836 17.865 3.64103 17.347C4.17914 15.7327 4.71779 14.2514 5.2572 12.9029C5.86185 11.3912 6.94108 10.423 8.43658 10.0611L8.64309 10.0155L8.79998 9.99998H16.5064L16.1064 7.19998H7.99998C7.58971 7.19998 7.25157 6.89114 7.20536 6.49327L7.19998 6.39998C7.19998 5.98971 7.50881 5.65157 7.90668 5.60536L7.99998 5.59998H16.8ZM16.7344 11.6H8.88558L8.77275 11.6262C7.87005 11.8557 7.23519 12.4006 6.82238 13.3103L6.74276 13.4971C6.41322 14.3209 6.08339 15.1971 5.75331 16.1255L5.51678 16.8H17.4776L16.7344 11.6ZM12 13.2C11.3372 13.2 10.8 13.7372 10.8 14.4C10.8 15.0627 11.3372 15.6 12 15.6C12.6627 15.6 13.2 15.0627 13.2 14.4C13.2 13.7372 12.6627 13.2 12 13.2Z" fill="#808080"/>
</svg>
