<svg width="24" height="24" viewBox="0 0 24 24" fill="none" xmlns="http://www.w3.org/2000/svg">
<path fill-rule="evenodd" clip-rule="evenodd" d="M15.2 3.2H6.40005C5.52005 3.2 4.80005 3.92 4.80005 4.8V15.2C4.80005 15.64 5.16005 16 5.60005 16C6.04005 16 6.40005 15.64 6.40005 15.2V5.6C6.40005 5.16 6.76005 4.8 7.20005 4.8H15.2C15.64 4.8 16 4.44 16 4C16 3.56 15.64 3.2 15.2 3.2ZM18.4 6.4H9.60005C8.72005 6.4 8.00005 7.12 8.00005 8V19.2C8.00005 20.08 8.72005 20.8 9.60005 20.8H18.4C19.28 20.8 20 20.08 20 19.2V8C20 7.12 19.28 6.4 18.4 6.4ZM17.6 19.2H10.4C9.96005 19.2 9.60005 18.84 9.60005 18.4V8.8C9.60005 8.36 9.96005 8 10.4 8H17.6C18.04 8 18.4 8.36 18.4 8.8V18.4C18.4 18.84 18.04 19.2 17.6 19.2Z" fill="#808080"/>
</svg>
