<svg width="24" height="24" viewBox="0 0 24 24" fill="none" xmlns="http://www.w3.org/2000/svg">
<path fill-rule="evenodd" clip-rule="evenodd" d="M10.464 11.088C10.504 10.824 10.592 10.592 10.704 10.392C10.816 10.192 10.976 10.024 11.176 9.896C11.368 9.776 11.608 9.72 11.904 9.712C12.088 9.72 12.256 9.752 12.408 9.816C12.568 9.888 12.712 9.984 12.824 10.104C12.936 10.224 13.024 10.368 13.096 10.528C13.168 10.688 13.2 10.864 13.208 11.04H14.64C14.624 10.664 14.552 10.32 14.416 10.008C14.28 9.696 14.096 9.424 13.856 9.2C13.616 8.976 13.328 8.8 12.992 8.672C12.656 8.544 12.288 8.488 11.88 8.488C11.36 8.488 10.904 8.576 10.52 8.76C10.136 8.944 9.816 9.184 9.56 9.496C9.304 9.808 9.112 10.168 8.992 10.584C8.872 11 8.8 11.432 8.8 11.896V12.112C8.8 12.576 8.864 13.008 8.984 13.424C9.104 13.84 9.296 14.2 9.552 14.504C9.808 14.808 10.128 15.056 10.512 15.232C10.896 15.408 11.352 15.504 11.872 15.504C12.248 15.504 12.6 15.44 12.928 15.32C13.256 15.2 13.544 15.032 13.792 14.816C14.04 14.6 14.24 14.352 14.384 14.064C14.528 13.776 14.616 13.472 14.624 13.144H13.192C13.184 13.312 13.144 13.464 13.072 13.608C13 13.752 12.904 13.872 12.784 13.976C12.664 14.08 12.528 14.16 12.368 14.216C12.216 14.272 12.056 14.288 11.888 14.296C11.6 14.288 11.36 14.232 11.176 14.112C10.976 13.984 10.816 13.816 10.704 13.616C10.592 13.416 10.504 13.176 10.464 12.912C10.424 12.648 10.4 12.376 10.4 12.112V11.896C10.4 11.616 10.424 11.352 10.464 11.088ZM12 4C7.584 4 4 7.584 4 12C4 16.416 7.584 20 12 20C16.416 20 20 16.416 20 12C20 7.584 16.416 4 12 4ZM12 18.4C8.472 18.4 5.6 15.528 5.6 12C5.6 8.472 8.472 5.6 12 5.6C15.528 5.6 18.4 8.472 18.4 12C18.4 15.528 15.528 18.4 12 18.4Z" fill="#808080"/>
</svg>
