<svg width="24" height="24" viewBox="0 0 24 24" fill="none" xmlns="http://www.w3.org/2000/svg">
<path fill-rule="evenodd" clip-rule="evenodd" d="M18.4 7.19998H12L10.872 6.07198C10.568 5.76798 10.16 5.59998 9.736 5.59998H5.6C4.712 5.59998 4.008 6.31198 4.008 7.19998L4 16.8C4 17.688 4.712 18.4 5.6 18.4H18.4C19.28 18.4 20 17.68 20 16.8V8.79998C20 7.91998 19.28 7.19998 18.4 7.19998ZM16.8 13.6H15.2V15.2C15.2 15.64 14.84 16 14.4 16C13.96 16 13.6 15.64 13.6 15.2V13.6H12C11.56 13.6 11.2 13.24 11.2 12.8C11.2 12.36 11.56 12 12 12H13.6V10.4C13.6 9.95998 13.96 9.59998 14.4 9.59998C14.84 9.59998 15.2 9.95998 15.2 10.4V12H16.8C17.24 12 17.6 12.36 17.6 12.8C17.6 13.24 17.24 13.6 16.8 13.6Z" fill="#808080"/>
</svg>
