<svg width="24" height="24" viewBox="0 0 24 24" fill="none" xmlns="http://www.w3.org/2000/svg">
<path fill-rule="evenodd" clip-rule="evenodd" d="M17.6 8H6.40005C5.52005 8 4.80005 8.72 4.80005 9.6V14.4C4.80005 15.28 5.52005 16 6.40005 16H17.6C18.48 16 19.2 15.28 19.2 14.4V9.6C19.2 8.72 18.48 8 17.6 8ZM16.8 14.4H7.20005C6.76005 14.4 6.40005 14.04 6.40005 13.6V10.4C6.40005 9.96 6.76005 9.6 7.20005 9.6H16.8C17.24 9.6 17.6 9.96 17.6 10.4V13.6C17.6 14.04 17.24 14.4 16.8 14.4Z" fill="#808080"/>
</svg>
