<svg width="24" height="24" viewBox="0 0 24 24" fill="none" xmlns="http://www.w3.org/2000/svg">
<path fill-rule="evenodd" clip-rule="evenodd" d="M17.6 5.60001H6.40005C5.52005 5.60001 4.80005 6.32001 4.80005 7.20001V16.8C4.80005 17.68 5.52005 18.4 6.40005 18.4H17.6C18.48 18.4 19.2 17.68 19.2 16.8V7.20001C19.2 6.32001 18.48 5.60001 17.6 5.60001ZM16.8 16.8H7.20005C6.76005 16.8 6.40005 16.44 6.40005 16V8.00001C6.40005 7.56001 6.76005 7.20001 7.20005 7.20001H16.8C17.24 7.20001 17.6 7.56001 17.6 8.00001V16C17.6 16.44 17.24 16.8 16.8 16.8Z" fill="#808080"/>
</svg>
