<svg width="24" height="24" viewBox="0 0 24 24" fill="none" xmlns="http://www.w3.org/2000/svg">
<path fill-rule="evenodd" clip-rule="evenodd" d="M17.6 4.79999H6.40005C5.52005 4.79999 4.80005 5.51999 4.80005 6.39999V17.6C4.80005 18.48 5.52005 19.2 6.40005 19.2H17.6C18.48 19.2 19.2 18.48 19.2 17.6V6.39999C19.2 5.51999 18.48 4.79999 17.6 4.79999ZM16.8 17.6H7.20005C6.76005 17.6 6.40005 17.24 6.40005 16.8V7.19999C6.40005 6.75999 6.76005 6.39999 7.20005 6.39999H16.8C17.24 6.39999 17.6 6.75999 17.6 7.19999V16.8C17.6 17.24 17.24 17.6 16.8 17.6ZM13.248 12.648L11.368 15.064L10.12 13.56C9.96005 13.36 9.65605 13.368 9.49605 13.568L8.10405 15.352C7.89605 15.616 8.08805 16 8.41605 16H15.6C15.928 16 16.12 15.624 15.92 15.36L13.88 12.648C13.728 12.44 13.408 12.44 13.248 12.648Z" fill="#808080"/>
</svg>
