<svg width="24" height="24" viewBox="0 0 24 24" fill="none" xmlns="http://www.w3.org/2000/svg">
<path fill-rule="evenodd" clip-rule="evenodd" d="M15.9999 4.79999H7.9999C7.1199 4.79999 6.3999 5.51999 6.3999 6.39999V17.6C6.3999 18.48 7.1199 19.2 7.9999 19.2H15.9999C16.8799 19.2 17.5999 18.48 17.5999 17.6V6.39999C17.5999 5.51999 16.8799 4.79999 15.9999 4.79999ZM15.1999 17.6H8.7999C8.3599 17.6 7.9999 17.24 7.9999 16.8V7.19999C7.9999 6.75999 8.3599 6.39999 8.7999 6.39999H15.1999C15.6399 6.39999 15.9999 6.75999 15.9999 7.19999V16.8C15.9999 17.24 15.6399 17.6 15.1999 17.6Z" fill="#808080"/>
</svg>
