<svg width="24" height="24" viewBox="0 0 24 24" fill="none" xmlns="http://www.w3.org/2000/svg">
<path fill-rule="evenodd" clip-rule="evenodd" d="M16 14.4H17.6V8.00001C17.6 7.12001 16.88 6.40001 16 6.40001H9.59995V8.00001H15.2C15.64 8.00001 16 8.36001 16 8.80001V14.4ZM8.79995 16C8.35995 16 7.99995 15.64 7.99995 15.2V4.00001C7.99995 3.56001 7.63995 3.20001 7.19995 3.20001C6.75995 3.20001 6.39995 3.56001 6.39995 4.00001V6.40001H3.99995C3.55995 6.40001 3.19995 6.76001 3.19995 7.20001C3.19995 7.64001 3.55995 8.00001 3.99995 8.00001H6.39995V16C6.39995 16.88 7.11995 17.6 7.99995 17.6H16V20C16 20.44 16.36 20.8 16.8 20.8C17.24 20.8 17.6 20.44 17.6 20V17.6H20C20.44 17.6 20.8 17.24 20.8 16.8C20.8 16.36 20.44 16 20 16H8.79995Z" fill="#808080"/>
</svg>
