<svg width="24" height="24" viewBox="0 0 24 24" fill="none" xmlns="http://www.w3.org/2000/svg">
<path fill-rule="evenodd" clip-rule="evenodd" d="M16.8001 5.60001H7.2001C6.3201 5.60001 5.6001 6.32001 5.6001 7.20001V16.8C5.6001 17.68 6.3201 18.4 7.2001 18.4H16.8001C17.6801 18.4 18.4001 17.68 18.4001 16.8V7.20001C18.4001 6.32001 17.6801 5.60001 16.8001 5.60001ZM16.0001 16.8H8.0001C7.5601 16.8 7.2001 16.44 7.2001 16V8.00001C7.2001 7.56001 7.5601 7.20001 8.0001 7.20001H16.0001C16.4401 7.20001 16.8001 7.56001 16.8001 8.00001V16C16.8001 16.44 16.4401 16.8 16.0001 16.8Z" fill="#808080"/>
</svg>
