<svg width="24" height="24" viewBox="0 0 24 24" fill="none" xmlns="http://www.w3.org/2000/svg">
<path fill-rule="evenodd" clip-rule="evenodd" d="M15.1285 9.5852V13.5848H16.7285V8.78528C16.7285 7.90536 16.0085 7.18544 15.1285 7.18544H10.3285V8.78528H14.3285C14.7685 8.78528 15.1285 9.14524 15.1285 9.5852ZM17.5285 15.1846H9.52849C9.08849 15.1846 8.72849 14.8247 8.72849 14.3847V6.38552C8.72849 5.94556 8.36849 5.5856 7.92849 5.5856C7.48849 5.5856 7.12849 5.94556 7.12849 6.38552V7.18544H6.32849C5.88849 7.18544 5.52849 7.5454 5.52849 7.98536C5.52849 8.42531 5.88849 8.78528 6.32849 8.78528H7.12849V15.1846C7.12849 16.0645 7.84849 16.7845 8.72849 16.7845H15.1285V17.5844C15.1285 18.0244 15.4885 18.3843 15.9285 18.3843C16.3685 18.3843 16.7285 18.0244 16.7285 17.5844V16.7845H17.5285C17.9685 16.7845 18.3285 16.4245 18.3285 15.9846C18.3285 15.5446 17.9685 15.1846 17.5285 15.1846ZM16.4565 3.5058C15.1205 2.79388 13.3925 2.29792 11.4405 2.41791L14.4885 5.46561L15.5525 4.40171C18.0245 5.5696 19.8245 7.89736 20.2645 10.6891C20.3125 11.0171 20.6165 11.241 20.9525 11.185C21.2805 11.137 21.5045 10.8251 21.4485 10.4971C20.9685 7.45741 19.0805 4.89766 16.4565 3.5058ZM8.30449 19.5762C5.83249 18.4083 4.03249 16.0805 3.59249 13.2888C3.54449 12.9609 3.24049 12.7369 2.90449 12.7929C2.57649 12.8409 2.35249 13.1528 2.40849 13.4808C2.88849 16.5285 4.77649 19.0882 7.40049 20.4801C8.73649 21.192 10.4645 21.688 12.4165 21.568L9.36849 18.5123L8.30449 19.5762Z" fill="#808080"/>
</svg>
