<svg width="24" height="24" viewBox="0 0 24 24" fill="none" xmlns="http://www.w3.org/2000/svg">
<path fill-rule="evenodd" clip-rule="evenodd" d="M4.80005 6.39999V8.79999C4.80005 9.23999 5.16005 9.59999 5.60005 9.59999C6.04005 9.59999 6.40005 9.23999 6.40005 8.79999V7.19999C6.40005 6.75999 6.76005 6.39999 7.20005 6.39999H8.80005C9.24005 6.39999 9.60005 6.03999 9.60005 5.59999C9.60005 5.15999 9.24005 4.79999 8.80005 4.79999H6.40005C5.52005 4.79999 4.80005 5.51999 4.80005 6.39999ZM5.60005 14.4C5.16005 14.4 4.80005 14.76 4.80005 15.2V17.6C4.80005 18.48 5.52005 19.2 6.40005 19.2H8.80005C9.24005 19.2 9.60005 18.84 9.60005 18.4C9.60005 17.96 9.24005 17.6 8.80005 17.6H7.20005C6.76005 17.6 6.40005 17.24 6.40005 16.8V15.2C6.40005 14.76 6.04005 14.4 5.60005 14.4ZM17.6 16.8C17.6 17.24 17.24 17.6 16.8 17.6H15.2C14.76 17.6 14.4 17.96 14.4 18.4C14.4 18.84 14.76 19.2 15.2 19.2H17.6C18.48 19.2 19.2 18.48 19.2 17.6V15.2C19.2 14.76 18.84 14.4 18.4 14.4C17.96 14.4 17.6 14.76 17.6 15.2V16.8ZM17.6 4.79999H15.2C14.76 4.79999 14.4 5.15999 14.4 5.59999C14.4 6.03999 14.76 6.39999 15.2 6.39999H16.8C17.24 6.39999 17.6 6.75999 17.6 7.19999V8.79999C17.6 9.23999 17.96 9.59999 18.4 9.59999C18.84 9.59999 19.2 9.23999 19.2 8.79999V6.39999C19.2 5.51999 18.48 4.79999 17.6 4.79999Z" fill="#808080"/>
</svg>
