<svg width="24" height="24" viewBox="0 0 24 24" fill="none" xmlns="http://www.w3.org/2000/svg">
<path fill-rule="evenodd" clip-rule="evenodd" d="M17.6 6.39999H6.40005C5.52005 6.39999 4.80005 7.11999 4.80005 7.99999V16C4.80005 16.88 5.52005 17.6 6.40005 17.6H17.6C18.48 17.6 19.2 16.88 19.2 16V7.99999C19.2 7.11999 18.48 6.39999 17.6 6.39999ZM16.8 16H7.20005C6.76005 16 6.40005 15.64 6.40005 15.2V8.79999C6.40005 8.35999 6.76005 7.99999 7.20005 7.99999H16.8C17.24 7.99999 17.6 8.35999 17.6 8.79999V15.2C17.6 15.64 17.24 16 16.8 16Z" fill="#808080"/>
</svg>
