<svg width="24" height="24" viewBox="0 0 24 24" fill="none" xmlns="http://www.w3.org/2000/svg">
<path fill-rule="evenodd" clip-rule="evenodd" d="M17.6 7.20001H6.40005C5.52005 7.20001 4.80005 7.92001 4.80005 8.80001V15.2C4.80005 16.08 5.52005 16.8 6.40005 16.8H17.6C18.48 16.8 19.2 16.08 19.2 15.2V8.80001C19.2 7.92001 18.48 7.20001 17.6 7.20001ZM16.8 15.2H7.20005C6.76005 15.2 6.40005 14.84 6.40005 14.4V9.60001C6.40005 9.16001 6.76005 8.80001 7.20005 8.80001H16.8C17.24 8.80001 17.6 9.16001 17.6 9.60001V14.4C17.6 14.84 17.24 15.2 16.8 15.2Z" fill="#808080"/>
</svg>
