<svg width="24" height="24" viewBox="0 0 24 24" fill="none" xmlns="http://www.w3.org/2000/svg">
<path fill-rule="evenodd" clip-rule="evenodd" d="M5.85088 15.5C3.82543 15.5 2.56421 14.2106 2.56421 11.9977C2.56421 9.78935 3.83481 8.5 5.85088 8.5C7.5622 8.5 8.86093 9.60181 8.9125 11.2006H7.25744C7.17305 10.4035 6.60574 9.87843 5.85088 9.87843C4.91317 9.87843 4.31773 10.6802 4.31773 11.993C4.31773 13.3198 4.90848 14.1216 5.85557 14.1216C6.61042 14.1216 7.15898 13.6246 7.26682 12.8322H8.92188C8.84217 14.4404 7.59502 15.5 5.85088 15.5ZM9.50795 13.3902H11.1067C11.1864 13.8731 11.7069 14.1544 12.368 14.1544C13.0384 14.1544 13.4745 13.8543 13.4745 13.4417C13.4745 13.0666 13.1838 12.8744 12.382 12.7197L11.6881 12.5884C10.3378 12.3352 9.63923 11.6741 9.63923 10.6427C9.63923 9.33925 10.7692 8.5 12.3258 8.5C14.0277 8.5 15.0311 9.33456 15.0498 10.6239H13.451C13.4229 10.1363 12.9634 9.84561 12.3398 9.84561C11.7163 9.84561 11.3459 10.1269 11.3459 10.5255C11.3459 10.8818 11.6553 11.0787 12.3914 11.2194L13.0853 11.3506C14.5294 11.6273 15.1858 12.2133 15.1858 13.2776C15.1858 14.6373 14.1215 15.5 12.3351 15.5C10.6473 15.5 9.53139 14.7217 9.50795 13.3902ZM15.7578 13.3902H17.3566C17.4363 13.8731 17.9567 14.1544 18.6178 14.1544C19.2883 14.1544 19.7243 13.8543 19.7243 13.4417C19.7243 13.0666 19.4336 12.8744 18.6319 12.7197L17.938 12.5884C16.5877 12.3352 15.8891 11.6741 15.8891 10.6427C15.8891 9.33925 17.019 8.5 18.5756 8.5C20.2775 8.5 21.2809 9.33456 21.2996 10.6239H19.7008C19.6727 10.1363 19.2132 9.84561 18.5897 9.84561C17.9661 9.84561 17.5957 10.1269 17.5957 10.5255C17.5957 10.8818 17.9051 11.0787 18.6412 11.2194L19.3351 11.3506C20.7792 11.6273 21.4356 12.2133 21.4356 13.2776C21.4356 14.6373 20.3713 15.5 18.585 15.5C16.8971 15.5 15.7812 14.7217 15.7578 13.3902Z" fill="#808080"/>
</svg>
