<svg width="24" height="24" viewBox="0 0 24 24" fill="none" xmlns="http://www.w3.org/2000/svg">
<path fill-rule="evenodd" clip-rule="evenodd" d="M10.1137 8.5176C10.3457 8.0216 10.4497 7.4536 10.3857 6.8456C10.2337 5.4616 9.15375 4.2856 7.77775 4.0536C5.56175 3.6696 3.66575 5.5656 4.04975 7.7736C4.28975 9.1496 5.45775 10.2296 6.84175 10.3816C7.44975 10.4456 8.00975 10.3416 8.51375 10.1096L10.4017 12.0056L8.51375 13.8936C8.01775 13.6616 7.44975 13.5576 6.84175 13.6216C5.45775 13.7736 4.28175 14.8536 4.04975 16.2296C3.66575 18.4456 5.56175 20.3336 7.76975 19.9496C9.14575 19.7096 10.2257 18.5416 10.3777 17.1576C10.4417 16.5496 10.3377 15.9896 10.1057 15.4856L12.0017 13.6056L18.0738 19.6776C18.7858 20.3896 20.0018 19.8856 20.0018 18.8776V18.8696C20.0018 18.5736 19.8818 18.2856 19.6738 18.0696L10.1137 8.5176ZM7.20175 8.8056C6.32175 8.8056 5.60175 8.0936 5.60175 7.2056C5.60175 6.3176 6.32175 5.6056 7.20175 5.6056C8.08175 5.6056 8.80175 6.3176 8.80175 7.2056C8.80175 8.0936 8.08175 8.8056 7.20175 8.8056ZM7.20175 18.4056C6.32175 18.4056 5.60175 17.6936 5.60175 16.8056C5.60175 15.9176 6.32175 15.2056 7.20175 15.2056C8.08175 15.2056 8.80175 15.9176 8.80175 16.8056C8.80175 17.6936 8.08175 18.4056 7.20175 18.4056ZM12.0017 12.4056C11.7777 12.4056 11.6017 12.2296 11.6017 12.0056C11.6017 11.7816 11.7777 11.6056 12.0017 11.6056C12.2257 11.6056 12.4017 11.7816 12.4017 12.0056C12.4017 12.2296 12.2257 12.4056 12.0017 12.4056ZM18.0737 4.3336L12.8017 9.6056L14.4017 11.2056L19.6737 5.9336C19.8817 5.7256 20.0017 5.4376 20.0017 5.1336V5.1256C20.0017 4.1256 18.7857 3.6216 18.0737 4.3336Z" fill="#808080"/>
</svg>
