<svg width="24" height="24" viewBox="0 0 24 24" fill="none" xmlns="http://www.w3.org/2000/svg">
<path fill-rule="evenodd" clip-rule="evenodd" d="M5.59999 12.8H10.4C10.84 12.8 11.2 12.44 11.2 12V5.59999C11.2 5.15999 10.84 4.79999 10.4 4.79999H5.59999C5.15999 4.79999 4.79999 5.15999 4.79999 5.59999V12C4.79999 12.44 5.15999 12.8 5.59999 12.8ZM5.59999 19.2H10.4C10.84 19.2 11.2 18.84 11.2 18.4V15.2C11.2 14.76 10.84 14.4 10.4 14.4H5.59999C5.15999 14.4 4.79999 14.76 4.79999 15.2V18.4C4.79999 18.84 5.15999 19.2 5.59999 19.2ZM13.6 19.2H18.4C18.84 19.2 19.2 18.84 19.2 18.4V12C19.2 11.56 18.84 11.2 18.4 11.2H13.6C13.16 11.2 12.8 11.56 12.8 12V18.4C12.8 18.84 13.16 19.2 13.6 19.2ZM12.8 5.59999V8.79999C12.8 9.23999 13.16 9.59999 13.6 9.59999H18.4C18.84 9.59999 19.2 9.23999 19.2 8.79999V5.59999C19.2 5.15999 18.84 4.79999 18.4 4.79999H13.6C13.16 4.79999 12.8 5.15999 12.8 5.59999Z" fill="#808080"/>
</svg>
