<svg width="24" height="24" viewBox="0 0 24 24" fill="none" xmlns="http://www.w3.org/2000/svg">
<path fill-rule="evenodd" clip-rule="evenodd" d="M12.8019 5.20335V5.21935C12.8019 5.75535 13.1619 6.20335 13.6659 6.36335C15.9459 7.07535 17.6019 9.19535 17.6019 11.7073C17.6019 12.1233 17.5539 12.5153 17.4659 12.8993C17.3539 13.4113 17.5619 13.9393 18.0179 14.2113L18.0259 14.2193C18.7139 14.6193 19.6099 14.2593 19.7939 13.4913C19.9299 12.9153 20.0019 12.3153 20.0019 11.7073C20.0019 8.10735 17.6179 5.05135 14.3379 4.05135C13.5779 3.81935 12.8019 4.40335 12.8019 5.20335ZM11.1539 17.2433C8.76188 16.8993 6.81788 14.9553 6.46588 12.5713C6.03388 9.69135 7.79388 7.15535 10.3299 6.36335C10.8419 6.21135 11.2019 5.75535 11.2019 5.21935V5.20335C11.2019 4.40335 10.4259 3.81935 9.65788 4.05135C6.04988 5.15535 3.52988 8.73935 4.07388 12.8193C4.54588 16.3233 7.37788 19.1553 10.8819 19.6273C13.3939 19.9633 15.7139 19.1393 17.3859 17.6033C17.9779 17.0593 17.8739 16.0913 17.1779 15.6913C16.7139 15.4193 16.1379 15.5073 15.7379 15.8673C14.5619 16.9393 12.9299 17.5073 11.1539 17.2433Z" fill="#808080"/>
</svg>
