<svg width="24" height="24" viewBox="0 0 24 24" fill="none" xmlns="http://www.w3.org/2000/svg">
<path fill-rule="evenodd" clip-rule="evenodd" d="M4 16C4 16.44 4.36 16.8 4.8 16.8H19.2C19.64 16.8 20 16.44 20 16C20 15.56 19.64 15.2 19.2 15.2H4.8C4.36 15.2 4 15.56 4 16ZM4 12C4 12.44 4.36 12.8 4.8 12.8H19.2C19.64 12.8 20 12.44 20 12C20 11.56 19.64 11.2 19.2 11.2H4.8C4.36 11.2 4 11.56 4 12ZM4 8.00001C4 8.44001 4.36 8.80001 4.8 8.80001H19.2C19.64 8.80001 20 8.44001 20 8.00001C20 7.56001 19.64 7.20001 19.2 7.20001H4.8C4.36 7.20001 4 7.56001 4 8.00001Z" fill="#808080"/>
</svg>
