<svg width="24" height="24" viewBox="0 0 24 24" fill="none" xmlns="http://www.w3.org/2000/svg">
<path fill-rule="evenodd" clip-rule="evenodd" d="M15.2 15.2H16.8C17.24 15.2 17.6 15.56 17.6 16C17.6 16.44 17.24 16.8 16.8 16.8H15.2C14.76 16.8 14.4 16.44 14.4 16C14.4 15.56 14.76 15.2 15.2 15.2ZM15.2 8.80001H19.2C19.64 8.80001 20 9.16001 20 9.60001C20 10.04 19.64 10.4 19.2 10.4H15.2C14.76 10.4 14.4 10.04 14.4 9.60001C14.4 9.16001 14.76 8.80001 15.2 8.80001ZM15.2 12H18.4C18.84 12 19.2 12.36 19.2 12.8C19.2 13.24 18.84 13.6 18.4 13.6H15.2C14.76 13.6 14.4 13.24 14.4 12.8C14.4 12.36 14.76 12 15.2 12ZM4.8 16.8C4.8 17.68 5.52 18.4 6.4 18.4H11.2C12.08 18.4 12.8 17.68 12.8 16.8V8.80001H4.8V16.8ZM12.8 6.40001H11.2L10.632 5.83201C10.488 5.68801 10.28 5.60001 10.072 5.60001H7.528C7.32 5.60001 7.112 5.68801 6.968 5.83201L6.4 6.40001H4.8C4.36 6.40001 4 6.76001 4 7.20001C4 7.64001 4.36 8.00001 4.8 8.00001H12.8C13.24 8.00001 13.6 7.64001 13.6 7.20001C13.6 6.76001 13.24 6.40001 12.8 6.40001Z" fill="#808080"/>
</svg>
