<svg width="24" height="24" viewBox="0 0 24 24" fill="none" xmlns="http://www.w3.org/2000/svg">
<path fill-rule="evenodd" clip-rule="evenodd" d="M7.19999 17.6C7.19999 18.48 7.91999 19.2 8.79999 19.2H15.2C16.08 19.2 16.8 18.48 16.8 17.6V9.59999C16.8 8.71999 16.08 7.99999 15.2 7.99999H8.79999C7.91999 7.99999 7.19999 8.71999 7.19999 9.59999V17.6ZM16.8 5.59999H14.8L14.232 5.03199C14.088 4.88799 13.88 4.79999 13.672 4.79999H10.328C10.12 4.79999 9.91199 4.88799 9.76799 5.03199L9.19999 5.59999H7.19999C6.75999 5.59999 6.39999 5.95999 6.39999 6.39999C6.39999 6.83999 6.75999 7.19999 7.19999 7.19999H16.8C17.24 7.19999 17.6 6.83999 17.6 6.39999C17.6 5.95999 17.24 5.59999 16.8 5.59999Z" fill="#808080"/>
</svg>
