<svg width="24" height="24" viewBox="0 0 24 24" fill="none" xmlns="http://www.w3.org/2000/svg">
<path fill-rule="evenodd" clip-rule="evenodd" d="M7.19999 17.6C7.19999 18.48 7.91999 19.2 8.79999 19.2H15.2C16.08 19.2 16.8 18.48 16.8 17.6V9.59999C16.8 8.71999 16.08 7.99999 15.2 7.99999H8.79999C7.91999 7.99999 7.19999 8.71999 7.19999 9.59999V17.6ZM9.73599 11.336C10.048 11.024 10.552 11.024 10.864 11.336L12 12.472L13.136 11.336C13.448 11.024 13.952 11.024 14.264 11.336C14.576 11.648 14.576 12.152 14.264 12.464L13.128 13.6L14.264 14.736C14.576 15.048 14.576 15.552 14.264 15.864C13.952 16.176 13.448 16.176 13.136 15.864L12 14.728L10.864 15.864C10.552 16.176 10.048 16.176 9.73599 15.864C9.58619 15.7145 9.50201 15.5116 9.50201 15.3C9.50201 15.0884 9.58619 14.8855 9.73599 14.736L10.872 13.6L9.73599 12.464C9.42399 12.16 9.42399 11.648 9.73599 11.336ZM14.8 5.59999L14.232 5.03199C14.088 4.88799 13.88 4.79999 13.672 4.79999H10.328C10.12 4.79999 9.91199 4.88799 9.76799 5.03199L9.19999 5.59999H7.19999C6.75999 5.59999 6.39999 5.95999 6.39999 6.39999C6.39999 6.83999 6.75999 7.19999 7.19999 7.19999H16.8C17.24 7.19999 17.6 6.83999 17.6 6.39999C17.6 5.95999 17.24 5.59999 16.8 5.59999H14.8Z" fill="#808080"/>
</svg>
