<svg width="24" height="24" viewBox="0 0 24 24" fill="none" xmlns="http://www.w3.org/2000/svg">
<path fill-rule="evenodd" clip-rule="evenodd" d="M13.3117 11.6163V6.25188C13.3117 4.8547 12.8689 4.48049 11.9677 4.64717C11.569 4.72091 11.1086 5.10817 10.6192 5.84288C11.2636 6.48191 11.1921 7.36007 10.6192 7.96886L7.48094 5.66047C7.96695 4.91577 8.52886 4.49611 9.43615 5.07252C10.128 4.03069 10.8742 3.41372 11.711 3.25895C13.4851 2.93081 14.7235 3.97733 14.7235 6.25188V11.3476C14.7385 11.354 14.7533 11.3608 14.7679 11.368L19.2997 13.1853C19.7028 13.2917 20 13.6588 20 14.0953C20 14.6151 19.5786 15.0365 19.0588 15.0365C18.8948 15.0365 18.7406 14.9946 18.6064 14.9208L14.361 13.2244L10.5882 14.7329V15.0365H14.3529C14.5904 15.0365 14.8073 15.1244 14.9729 15.2695C15.0151 15.3087 15.0226 15.3163 15.0301 15.324L17.7934 18.0904C17.8271 18.1197 17.8587 18.1513 17.8879 18.1851C18.0333 18.3559 18.1176 18.5687 18.1176 18.8012C18.1176 19.321 17.6963 19.7424 17.1765 19.7424H7.76471C7.24491 19.7424 6.82353 19.321 6.82353 18.8012C6.82353 18.2814 7.24491 17.86 7.76471 17.86H14.9043L13.9605 16.9189H9.64706C9.12726 16.9189 8.70588 16.4975 8.70588 15.9777V14.4346L4.26502 9.12497C4.10531 8.9434 4 8.70814 4 8.44828C4 7.92848 4.42138 7.50711 4.94118 7.50711C5.28589 7.50711 5.58731 7.69242 5.75127 7.96886L9.93022 12.9651L13.3117 11.6163Z" fill="#808080"/>
</svg>
