<svg width="24" height="24" viewBox="0 0 24 24" fill="none" xmlns="http://www.w3.org/2000/svg">
<path fill-rule="evenodd" clip-rule="evenodd" d="M16.272 3.3008C13.92 2.8608 11.768 3.9008 10.576 5.6368C10.584 5.6288 10.584 5.6208 10.592 5.6128C10.272 5.5968 9.93595 5.5968 9.59995 5.5968C6.06395 5.5968 3.19995 5.9968 3.19995 8.7968V16.7968C3.19995 17.5008 3.51195 18.1328 3.99995 18.5728V19.5968C3.99995 20.2608 4.53595 20.7968 5.19995 20.7968C5.86395 20.7968 6.39995 20.2608 6.39995 19.5968V19.1968H12.8V19.5968C12.8 20.2528 13.336 20.7968 14 20.7968C14.656 20.7968 15.2 20.2608 15.2 19.5968V18.5728C15.688 18.1328 16 17.5008 16 16.7968V14.3328C18.976 13.9008 21.1999 11.1488 20.736 7.9568C20.4 5.6368 18.576 3.7248 16.272 3.3008ZM5.99995 17.5968C5.33595 17.5968 4.79995 17.0608 4.79995 16.3968C4.79995 15.7328 5.33595 15.1968 5.99995 15.1968C6.66395 15.1968 7.19995 15.7328 7.19995 16.3968C7.19995 17.0608 6.66395 17.5968 5.99995 17.5968ZM4.79995 12.7968V8.7968H9.59995C9.59995 10.3648 10.248 11.7808 11.288 12.7968H4.79995ZM13.2 17.5968C12.536 17.5968 12 17.0608 12 16.3968C12 15.7328 12.536 15.1968 13.2 15.1968C13.864 15.1968 14.4 15.7328 14.4 16.3968C14.4 17.0608 13.864 17.5968 13.2 17.5968ZM15.2 12.7968C12.992 12.7968 11.2 11.0048 11.2 8.7968C11.2 6.5888 12.992 4.7968 15.2 4.7968C17.408 4.7968 19.2 6.5888 19.2 8.7968C19.2 11.0048 17.408 12.7968 15.2 12.7968ZM15 5.5968C14.672 5.5968 14.4 5.8688 14.4 6.1968V9.1408C14.4 9.4208 14.552 9.6848 14.792 9.8288L16.808 11.0368C17.08 11.1968 17.432 11.1088 17.592 10.8448C17.76 10.5728 17.672 10.2128 17.392 10.0528L15.6 8.9968V6.1968C15.6 5.8688 15.328 5.5968 15 5.5968Z" fill="#808080"/>
</svg>
