<svg width="24" height="24" viewBox="0 0 24 24" fill="none" xmlns="http://www.w3.org/2000/svg">
<path fill-rule="evenodd" clip-rule="evenodd" d="M14.072 4.472C13.768 4.168 13.36 4 12.936 4H7.20001C6.32001 4 5.60001 4.72 5.60001 5.6V18.4C5.60001 19.28 6.31201 20 7.19201 20H16.8C17.68 20 18.4 19.28 18.4 18.4V9.464C18.4 9.04 18.232 8.632 17.928 8.336L14.072 4.472ZM14.4 16.8H9.60001C9.16001 16.8 8.80001 16.44 8.80001 16C8.80001 15.56 9.16001 15.2 9.60001 15.2H14.4C14.84 15.2 15.2 15.56 15.2 16C15.2 16.44 14.84 16.8 14.4 16.8ZM14.4 13.6H9.60001C9.16001 13.6 8.80001 13.24 8.80001 12.8C8.80001 12.36 9.16001 12 9.60001 12H14.4C14.84 12 15.2 12.36 15.2 12.8C15.2 13.24 14.84 13.6 14.4 13.6ZM12.8 8.8V5.2L17.2 9.6H13.6C13.16 9.6 12.8 9.24 12.8 8.8Z" fill="#808080"/>
</svg>
