<svg width="24" height="24" viewBox="0 0 24 24" fill="none" xmlns="http://www.w3.org/2000/svg">
<path fill-rule="evenodd" clip-rule="evenodd" d="M19.2 4H4.79995C3.91995 4 3.19995 4.72 3.19995 5.6V15.2C3.19995 16.08 3.91995 16.8 4.79995 16.8H10.4L9.09595 18.76C8.74395 19.288 9.11995 20 9.75995 20H14.24C14.88 20 15.264 19.288 14.904 18.76L13.6 16.8H19.2C20.08 16.8 20.8 16.08 20.8 15.2V5.6C20.8 4.72 20.08 4 19.2 4ZM19.2 13.6H4.79995V6.4C4.79995 5.96 5.15995 5.6 5.59995 5.6H18.4C18.84 5.6 19.2 5.96 19.2 6.4V13.6Z" fill="#808080"/>
</svg>
