<svg width="24" height="24" viewBox="0 0 24 24" fill="none" xmlns="http://www.w3.org/2000/svg">
<path fill-rule="evenodd" clip-rule="evenodd" d="M3.43401 3.434C3.12201 3.746 3.12201 4.25 3.43401 4.562L3.98601 5.106V14.634C3.98601 15.514 4.70601 16.234 5.58601 16.234H11.186V17.834H10.386C9.94601 17.834 9.58601 18.194 9.58601 18.634C9.58601 19.074 9.94601 19.434 10.386 19.434H15.186C15.626 19.434 15.986 19.074 15.986 18.634C15.986 18.194 15.626 17.834 15.186 17.834H14.386V16.234H15.106L19.338 20.466C19.65 20.778 20.154 20.778 20.466 20.466C20.778 20.154 20.778 19.65 20.466 19.338L4.56201 3.434C4.41255 3.2842 4.20963 3.20001 3.99801 3.20001C3.7864 3.20001 3.58348 3.2842 3.43401 3.434ZM5.57801 13.834V6.706L13.506 14.634H6.37801C5.93801 14.634 5.57801 14.274 5.57801 13.834ZM6.82601 3.434L8.42601 5.034H19.186C19.626 5.034 19.986 5.394 19.986 5.834V13.834C19.986 14.274 19.626 14.634 19.186 14.634H18.026L19.626 16.234H19.978C20.858 16.234 21.578 15.514 21.578 14.634V5.034C21.578 4.154 20.858 3.434 19.978 3.434H6.82601Z" fill="#808080"/>
</svg>
