<svg width="24" height="24" viewBox="0 0 24 24" fill="none" xmlns="http://www.w3.org/2000/svg">
<path fill-rule="evenodd" clip-rule="evenodd" d="M19.2 4H4.79995C3.91995 4 3.19995 4.72 3.19995 5.6V15.2C3.19995 16.08 3.91995 16.8 4.79995 16.8H10.4V18.4H9.59995C9.15995 18.4 8.79995 18.76 8.79995 19.2C8.79995 19.64 9.15995 20 9.59995 20H14.4C14.84 20 15.2 19.64 15.2 19.2C15.2 18.76 14.84 18.4 14.4 18.4H13.6V16.8H19.2C20.08 16.8 20.8 16.08 20.8 15.2V5.6C20.8 4.72 20.08 4 19.2 4ZM18.4 15.2H5.59995C5.15995 15.2 4.79995 14.84 4.79995 14.4V6.4C4.79995 5.96 5.15995 5.6 5.59995 5.6H18.4C18.84 5.6 19.2 5.96 19.2 6.4V14.4C19.2 14.84 18.84 15.2 18.4 15.2Z" fill="#808080"/>
</svg>
