<svg width="24" height="24" viewBox="0 0 24 24" fill="none" xmlns="http://www.w3.org/2000/svg">
<path fill-rule="evenodd" clip-rule="evenodd" d="M20 8.79999C20 8.35999 19.64 7.99999 19.2 7.99999H18.4V6.39999C18.4 5.51999 17.68 4.79999 16.8 4.79999H5.6C4.72 4.79999 4 5.51999 4 6.39999V17.6C4 18.48 4.72 19.2 5.6 19.2H16.8C17.68 19.2 18.4 18.48 18.4 17.6V16H19.2C19.64 16 20 15.64 20 15.2C20 14.76 19.64 14.4 19.2 14.4H18.4V12.8H19.2C19.64 12.8 20 12.44 20 12C20 11.56 19.64 11.2 19.2 11.2H18.4V9.59999H19.2C19.64 9.59999 20 9.23999 20 8.79999ZM16 17.6H6.4C5.96 17.6 5.6 17.24 5.6 16.8V7.19999C5.6 6.75999 5.96 6.39999 6.4 6.39999H16C16.44 6.39999 16.8 6.75999 16.8 7.19999V16.8C16.8 17.24 16.44 17.6 16 17.6ZM7.6 12.8H10.8C11.024 12.8 11.2 12.976 11.2 13.2V15.6C11.2 15.824 11.024 16 10.8 16H7.6C7.376 16 7.2 15.824 7.2 15.6V13.2C7.2 12.976 7.376 12.8 7.6 12.8ZM12.4 7.99999H14.8C15.024 7.99999 15.2 8.17599 15.2 8.39999V9.99999C15.2 10.224 15.024 10.4 14.8 10.4H12.4C12.176 10.4 12 10.224 12 9.99999V8.39999C12 8.17599 12.176 7.99999 12.4 7.99999ZM7.6 7.99999H10.8C11.024 7.99999 11.2 8.17599 11.2 8.39999V11.6C11.2 11.824 11.024 12 10.8 12H7.6C7.376 12 7.2 11.824 7.2 11.6V8.39999C7.2 8.17599 7.376 7.99999 7.6 7.99999ZM12.4 11.2H14.8C15.024 11.2 15.2 11.376 15.2 11.6V15.6C15.2 15.824 15.024 16 14.8 16H12.4C12.176 16 12 15.824 12 15.6V11.6C12 11.376 12.176 11.2 12.4 11.2Z" fill="#808080"/>
</svg>
