<svg width="24" height="24" viewBox="0 0 24 24" fill="none" xmlns="http://www.w3.org/2000/svg">
<path fill-rule="evenodd" clip-rule="evenodd" d="M7.67398 6.40001H15.674V7.20001C15.674 7.64001 16.034 8.00001 16.474 8.00001C16.914 8.00001 17.274 7.64001 17.274 7.20001V4.80001C17.274 3.92001 16.554 3.20801 15.674 3.20801L7.67398 3.20001C6.79398 3.20001 6.07398 3.92001 6.07398 4.80001V7.20001C6.07398 7.64001 6.43398 8.00001 6.87398 8.00001C7.31398 8.00001 7.67398 7.64001 7.67398 7.20001V6.40001ZM14.97 15.104L17.506 12.568C17.818 12.256 17.818 11.752 17.506 11.44L14.97 8.90401C14.658 8.59201 14.146 8.59201 13.834 8.90401C13.522 9.21601 13.522 9.72001 13.834 10.032L15.81 12L13.834 13.976C13.522 14.288 13.522 14.792 13.834 15.104C14.146 15.416 14.658 15.416 14.97 15.104ZM9.50598 13.968L7.53798 12L9.50598 10.032C9.81798 9.72001 9.81798 9.21601 9.50598 8.90401C9.19398 8.59201 8.68198 8.59201 8.36998 8.90401L5.83398 11.44C5.52198 11.752 5.52198 12.256 5.83398 12.568L8.36998 15.104C8.68198 15.416 9.19398 15.416 9.50598 15.104C9.82598 14.792 9.81798 14.28 9.50598 13.968ZM15.674 17.6H7.67398V16.8C7.67398 16.36 7.31398 16 6.87398 16C6.43398 16 6.07398 16.36 6.07398 16.8V19.2C6.07398 20.08 6.79398 20.8 7.67398 20.8H15.674C16.554 20.8 17.274 20.08 17.274 19.2V16.8C17.274 16.36 16.914 16 16.474 16C16.034 16 15.674 16.36 15.674 16.8V17.6Z" fill="#808080"/>
</svg>
