<svg width="24" height="24" viewBox="0 0 24 24" fill="none" xmlns="http://www.w3.org/2000/svg">
<path fill-rule="evenodd" clip-rule="evenodd" d="M5.60002 7.99998C5.60002 7.55998 5.96002 7.19998 6.40002 7.19998H19.2C19.64 7.19998 20 6.83998 20 6.39998C20 5.95998 19.64 5.59998 19.2 5.59998H5.60002C4.72002 5.59998 4.00002 6.31998 4.00002 7.19998V16H3.60002C2.93602 16 2.40002 16.536 2.40002 17.2C2.40002 17.864 2.93602 18.4 3.60002 18.4H13.6V16H5.60002V7.99998ZM20.8 8.79998H16C15.56 8.79998 15.2 9.15998 15.2 9.59998V17.6C15.2 18.04 15.56 18.4 16 18.4H20.8C21.24 18.4 21.6 18.04 21.6 17.6V9.59998C21.6 9.15998 21.24 8.79998 20.8 8.79998ZM20 16H16.8V10.4H20V16Z" fill="#808080"/>
</svg>
