<svg width="24" height="24" viewBox="0 0 24 24" fill="none" xmlns="http://www.w3.org/2000/svg">
<path fill-rule="evenodd" clip-rule="evenodd" d="M8.80005 16.8C9.24005 16.8 9.60005 16.44 9.60005 16V8C9.60005 7.56 9.24005 7.2 8.80005 7.2C8.36005 7.2 8.00005 7.56 8.00005 8V16C8.00005 16.44 8.36005 16.8 8.80005 16.8ZM12 20C12.44 20 12.8 19.64 12.8 19.2V4.8C12.8 4.36 12.44 4 12 4C11.56 4 11.2 4.36 11.2 4.8V19.2C11.2 19.64 11.56 20 12 20ZM5.60005 13.6C6.04005 13.6 6.40005 13.24 6.40005 12.8V11.2C6.40005 10.76 6.04005 10.4 5.60005 10.4C5.16005 10.4 4.80005 10.76 4.80005 11.2V12.8C4.80005 13.24 5.16005 13.6 5.60005 13.6ZM15.2 16.8C15.64 16.8 16 16.44 16 16V8C16 7.56 15.64 7.2 15.2 7.2C14.76 7.2 14.4 7.56 14.4 8V16C14.4 16.44 14.76 16.8 15.2 16.8ZM17.6 11.2V12.8C17.6 13.24 17.96 13.6 18.4 13.6C18.84 13.6 19.2 13.24 19.2 12.8V11.2C19.2 10.76 18.84 10.4 18.4 10.4C17.96 10.4 17.6 10.76 17.6 11.2Z" fill="#808080"/>
</svg>
