<svg width="24" height="24" viewBox="0 0 24 24" fill="none" xmlns="http://www.w3.org/2000/svg">
<path fill-rule="evenodd" clip-rule="evenodd" d="M15.9999 3.20001H7.9999C7.1199 3.20001 6.3999 3.92001 6.3999 4.80001V19.2C6.3999 20.08 7.1199 20.8 7.9999 20.8H15.9999C16.8799 20.8 17.5999 20.08 17.5999 19.2V4.80001C17.5999 3.92001 16.8799 3.20001 15.9999 3.20001ZM15.9999 17.6H7.9999V6.40001H15.9999V17.6ZM11.1999 15.2H12.7999V16.8H11.1999V15.2ZM10.0159 10.552H10.1199C10.3839 10.552 10.5919 10.368 10.6799 10.12C10.8719 9.56801 11.4079 9.15201 12.0079 9.15201C12.7519 9.15201 13.4079 9.80801 13.4079 10.552C13.4079 11.608 12.2159 11.792 11.6239 12.808H11.6159C11.5519 12.92 11.5039 13.04 11.4559 13.168C11.4479 13.184 11.4399 13.192 11.4399 13.208C11.4319 13.224 11.4319 13.24 11.4319 13.248C11.3519 13.496 11.3039 13.776 11.3039 14.112H12.7119C12.7119 13.912 12.7439 13.736 12.8079 13.576C13.2399 12.4 15.0239 12.088 14.7919 10.232C14.6399 8.99201 13.6479 7.96001 12.4079 7.80001C10.9919 7.61601 9.7759 8.42401 9.3599 9.64001C9.1999 10.088 9.5439 10.552 10.0159 10.552Z" fill="#808080"/>
</svg>
