<svg width="24" height="24" viewBox="0 0 24 24" fill="none" xmlns="http://www.w3.org/2000/svg">
<path fill-rule="evenodd" clip-rule="evenodd" d="M4.79995 7.99998C4.79995 7.55998 5.15995 7.19998 5.59995 7.19998H18.4C18.84 7.19998 19.2 6.83998 19.2 6.39998C19.2 5.95998 18.84 5.59998 18.4 5.59998H4.79995C3.91995 5.59998 3.19995 6.31998 3.19995 7.19998V16.8C3.19995 17.68 3.91995 18.4 4.79995 18.4H7.19995C7.63995 18.4 7.99995 18.04 7.99995 17.6C7.99995 17.16 7.63995 16.8 7.19995 16.8H5.59995C5.15995 16.8 4.79995 16.44 4.79995 16V7.99998ZM12 12H10.4C9.95995 12 9.59995 12.36 9.59995 12.8V13.424C9.11195 13.864 8.79995 14.488 8.79995 15.2C8.79995 15.912 9.11195 16.536 9.59995 16.976V17.6C9.59995 18.04 9.95995 18.4 10.4 18.4H12C12.44 18.4 12.8 18.04 12.8 17.6V16.976C13.288 16.536 13.6 15.904 13.6 15.2C13.6 14.496 13.288 13.864 12.8 13.424V12.8C12.8 12.36 12.44 12 12 12ZM11.2 16.4C10.536 16.4 9.99995 15.864 9.99995 15.2C9.99995 14.536 10.536 14 11.2 14C11.864 14 12.4 14.536 12.4 15.2C12.4 15.864 11.864 16.4 11.2 16.4ZM20 8.79998H15.2C14.8 8.79998 14.4 9.19998 14.4 9.59998V17.6C14.4 18 14.8 18.4 15.2 18.4H20C20.4 18.4 20.8 18 20.8 17.6V9.59998C20.8 9.19998 20.4 8.79998 20 8.79998ZM19.2 16.8H16V10.4H19.2V16.8Z" fill="#808080"/>
</svg>
