<svg width="24" height="24" viewBox="0 0 24 24" fill="none" xmlns="http://www.w3.org/2000/svg">
<path fill-rule="evenodd" clip-rule="evenodd" d="M16 15.2017L12.8 12.0017V9.45773C13.88 9.06573 14.608 7.94573 14.344 6.68973C14.144 5.74573 13.36 4.99373 12.408 4.83373C10.904 4.58573 9.60005 5.73773 9.60005 7.20173C9.60005 8.24173 10.272 9.12173 11.2 9.45773V12.0017L8.00005 15.2017H5.60005C5.16005 15.2017 4.80005 15.5617 4.80005 16.0017V18.4017C4.80005 18.8417 5.16005 19.2017 5.60005 19.2017H8.00005C8.44005 19.2017 8.80005 18.8417 8.80005 18.4017V16.7617L12 13.4017L15.2 16.7617V18.4017C15.2 18.8417 15.56 19.2017 16 19.2017H18.4C18.84 19.2017 19.2 18.8417 19.2 18.4017V16.0017C19.2 15.5617 18.84 15.2017 18.4 15.2017H16Z" fill="#808080"/>
</svg>
