<svg width="24" height="24" viewBox="0 0 24 24" fill="none" xmlns="http://www.w3.org/2000/svg">
<path fill-rule="evenodd" clip-rule="evenodd" d="M15.5869 8.79999C15.8109 8.79999 15.9869 8.62399 15.9869 8.39999V5.19999C15.9869 4.97599 15.8109 4.79999 15.5869 4.79999C15.3629 4.79999 15.1869 4.97599 15.1869 5.19999V8.39999C15.1869 8.62399 15.3629 8.79999 15.5869 8.79999ZM12.3869 7.99999C12.1629 7.99999 11.9869 8.17599 11.9869 8.39999C11.9869 8.62399 12.1629 8.79999 12.3869 8.79999H13.9469C14.1869 8.79999 14.3869 8.59999 14.3869 8.35999V6.83999C14.3869 6.59999 14.1869 6.39999 13.9469 6.39999H12.7869V5.59999H13.9869C14.2109 5.59999 14.3869 5.42399 14.3869 5.19999C14.3869 4.97599 14.2109 4.79999 13.9869 4.79999H12.4269C12.1869 4.79999 11.9869 4.99999 11.9869 5.23999V6.75199C11.9869 6.99999 12.1869 7.19999 12.4269 7.19999H13.5869V7.99999H12.3869ZM18.7469 4.79999H17.2349C16.9869 4.79999 16.7869 4.99999 16.7869 5.23999V8.39999C16.7869 8.62399 16.9629 8.79999 17.1869 8.79999C17.4109 8.79999 17.5869 8.62399 17.5869 8.39999V7.19999H18.7469C18.9869 7.19999 19.1869 6.99999 19.1869 6.75999V5.23999C19.1869 4.99999 18.9869 4.79999 18.7469 4.79999ZM18.3869 6.39999H17.5869V5.59999H18.3869V6.39999ZM17.7549 14.616L15.7229 14.384C15.2349 14.328 14.7549 14.496 14.4109 14.84L12.9389 16.312C10.6749 15.16 8.81893 13.312 7.66693 11.04L9.14693 9.55999C9.49093 9.21599 9.65893 8.72799 9.60293 8.24799L9.37093 6.23199C9.28293 5.42399 8.59493 4.80799 7.78693 4.80799H6.40293C5.49893 4.80799 4.74693 5.55999 4.80293 6.46399C5.22693 13.296 10.6909 18.752 17.5149 19.176C18.4189 19.232 19.1709 18.48 19.1709 17.576V16.192C19.1789 15.392 18.5629 14.704 17.7549 14.616Z" fill="#808080"/>
</svg>
