<svg width="24" height="24" viewBox="0 0 24 24" fill="none" xmlns="http://www.w3.org/2000/svg">
<path fill-rule="evenodd" clip-rule="evenodd" d="M12 17.6C11.12 17.6 10.4 18.32 10.4 19.2C10.4 20.08 11.12 20.8 12 20.8C12.88 20.8 13.6 20.08 13.6 19.2C13.6 18.32 12.88 17.6 12 17.6ZM7.19998 3.20001C6.31998 3.20001 5.59998 3.92001 5.59998 4.80001C5.59998 5.68001 6.31998 6.40001 7.19998 6.40001C8.07998 6.40001 8.79998 5.68001 8.79998 4.80001C8.79998 3.92001 8.07998 3.20001 7.19998 3.20001ZM7.19998 8.00001C6.31998 8.00001 5.59998 8.72001 5.59998 9.60001C5.59998 10.48 6.31998 11.2 7.19998 11.2C8.07998 11.2 8.79998 10.48 8.79998 9.60001C8.79998 8.72001 8.07998 8.00001 7.19998 8.00001ZM7.19998 12.8C6.31998 12.8 5.59998 13.52 5.59998 14.4C5.59998 15.28 6.31998 16 7.19998 16C8.07998 16 8.79998 15.28 8.79998 14.4C8.79998 13.52 8.07998 12.8 7.19998 12.8ZM16.8 6.40001C17.68 6.40001 18.4 5.68001 18.4 4.80001C18.4 3.92001 17.68 3.20001 16.8 3.20001C15.92 3.20001 15.2 3.92001 15.2 4.80001C15.2 5.68001 15.92 6.40001 16.8 6.40001ZM12 12.8C11.12 12.8 10.4 13.52 10.4 14.4C10.4 15.28 11.12 16 12 16C12.88 16 13.6 15.28 13.6 14.4C13.6 13.52 12.88 12.8 12 12.8ZM16.8 12.8C15.92 12.8 15.2 13.52 15.2 14.4C15.2 15.28 15.92 16 16.8 16C17.68 16 18.4 15.28 18.4 14.4C18.4 13.52 17.68 12.8 16.8 12.8ZM16.8 8.00001C15.92 8.00001 15.2 8.72001 15.2 9.60001C15.2 10.48 15.92 11.2 16.8 11.2C17.68 11.2 18.4 10.48 18.4 9.60001C18.4 8.72001 17.68 8.00001 16.8 8.00001ZM12 8.00001C11.12 8.00001 10.4 8.72001 10.4 9.60001C10.4 10.48 11.12 11.2 12 11.2C12.88 11.2 13.6 10.48 13.6 9.60001C13.6 8.72001 12.88 8.00001 12 8.00001ZM12 3.20001C11.12 3.20001 10.4 3.92001 10.4 4.80001C10.4 5.68001 11.12 6.40001 12 6.40001C12.88 6.40001 13.6 5.68001 13.6 4.80001C13.6 3.92001 12.88 3.20001 12 3.20001Z" fill="#808080"/>
</svg>
