<svg width="24" height="24" viewBox="0 0 24 24" fill="none" xmlns="http://www.w3.org/2000/svg">
<path fill-rule="evenodd" clip-rule="evenodd" d="M13.2 6.39995C14.08 6.39995 14.8 5.67995 14.8 4.79995C14.8 3.91995 14.08 3.19995 13.2 3.19995C12.32 3.19995 11.6 3.91995 11.6 4.79995C11.6 5.67995 12.32 6.39995 13.2 6.39995ZM10.24 9.11995L8.19195 19.448C8.08795 19.9359 8.47195 20.4 8.97595 20.4H9.03995C9.41595 20.4 9.73595 20.144 9.82395 19.776L11.12 14L12.8 15.6V19.5999C12.8 20.0399 13.16 20.4 13.6 20.4C14.04 20.4 14.4 20.0399 14.4 19.5999V15.088C14.4 14.648 14.224 14.232 13.904 13.928L12.72 12.8L13.2 10.4C14.056 11.392 15.296 12.104 16.688 12.328C17.168 12.4 17.6 12.016 17.6 11.528C17.6 11.136 17.312 10.808 16.92 10.744C15.704 10.544 14.696 9.82395 14.16 8.87995L13.36 7.59995C12.912 6.88795 12.016 6.59995 11.24 6.92795L8.17595 8.22395C7.58395 8.47995 7.19995 9.05595 7.19995 9.70395V11.6C7.19995 12.04 7.55995 12.4 7.99995 12.4C8.43995 12.4 8.79995 12.04 8.79995 11.6V9.67995L10.24 9.11995Z" fill="#808080"/>
</svg>
