<svg width="24" height="24" viewBox="0 0 24 24" fill="none" xmlns="http://www.w3.org/2000/svg">
<path fill-rule="evenodd" clip-rule="evenodd" d="M14.7999 7.2C15.6799 7.2 16.3999 6.48 16.3999 5.6C16.3999 4.72 15.6799 4 14.7999 4C13.9199 4 13.1999 4.72 13.1999 5.6C13.1999 6.48 13.9199 7.2 14.7999 7.2ZM6.3999 12.4C4.1599 12.4 2.3999 14.16 2.3999 16.4C2.3999 18.64 4.1599 20.4 6.3999 20.4C8.6399 20.4 10.3999 18.64 10.3999 16.4C10.3999 14.16 8.6399 12.4 6.3999 12.4ZM6.3999 19.2C4.8799 19.2 3.5999 17.92 3.5999 16.4C3.5999 14.88 4.8799 13.6 6.3999 13.6C7.9199 13.6 9.1999 14.88 9.1999 16.4C9.1999 17.92 7.9199 19.2 6.3999 19.2ZM11.0399 11.2L12.9599 9.28L13.5999 9.92C14.4479 10.768 15.5039 11.344 16.7679 11.536C17.2479 11.608 17.6799 11.224 17.6799 10.736C17.6799 10.344 17.3839 10.008 16.9999 9.944C16.1119 9.8 15.3839 9.376 14.7999 8.8L13.2799 7.28C12.8799 6.96 12.4799 6.8 11.9999 6.8C11.5199 6.8 11.1199 6.96 10.8799 7.28L8.6399 9.52C8.3199 9.84 8.1599 10.24 8.1599 10.64C8.1599 11.12 8.3199 11.52 8.6399 11.76L11.1999 14V17.2C11.1999 17.64 11.5599 18 11.9999 18C12.4399 18 12.7999 17.64 12.7999 17.2V13.68C12.7999 13.264 12.6399 12.872 12.3599 12.576L11.0399 11.2ZM17.5999 12.4C15.3599 12.4 13.5999 14.16 13.5999 16.4C13.5999 18.64 15.3599 20.4 17.5999 20.4C19.8399 20.4 21.5999 18.64 21.5999 16.4C21.5999 14.16 19.8399 12.4 17.5999 12.4ZM17.5999 19.2C16.0799 19.2 14.7999 17.92 14.7999 16.4C14.7999 14.88 16.0799 13.6 17.5999 13.6C19.1199 13.6 20.3999 14.88 20.3999 16.4C20.3999 17.92 19.1199 19.2 17.5999 19.2Z" fill="#808080"/>
</svg>
