<svg width="24" height="24" viewBox="0 0 24 24" fill="none" xmlns="http://www.w3.org/2000/svg">
<path fill-rule="evenodd" clip-rule="evenodd" d="M12.0001 4.80005C8.4641 4.80005 5.6001 5.20005 5.6001 8.00005V15.6C5.6001 17.144 6.8561 18.4 8.4001 18.4L7.4801 19.32C7.2321 19.568 7.4081 20 7.7681 20H16.2401C16.6001 20 16.7761 19.568 16.5201 19.32L15.6001 18.4C17.1441 18.4 18.4001 17.144 18.4001 15.6V8.00005C18.4001 5.20005 15.5361 4.80005 12.0001 4.80005ZM8.4001 16.8C7.7361 16.8 7.2001 16.264 7.2001 15.6C7.2001 14.936 7.7361 14.4 8.4001 14.4C9.0641 14.4 9.6001 14.936 9.6001 15.6C9.6001 16.264 9.0641 16.8 8.4001 16.8ZM11.2001 12H7.2001V8.00005H11.2001V12ZM15.6001 16.8C14.9361 16.8 14.4001 16.264 14.4001 15.6C14.4001 14.936 14.9361 14.4 15.6001 14.4C16.2641 14.4 16.8001 14.936 16.8001 15.6C16.8001 16.264 16.2641 16.8 15.6001 16.8ZM16.8001 12H12.8001V8.00005H16.8001V12Z" fill="#808080"/>
</svg>
