<svg width="24" height="24" viewBox="0 0 24 24" fill="none" xmlns="http://www.w3.org/2000/svg">
<path fill-rule="evenodd" clip-rule="evenodd" d="M18.4019 19.2C17.3699 19.2 16.3379 18.872 15.4099 18.288C15.2819 18.208 15.1139 18.208 14.9859 18.288C13.1379 19.464 10.8579 19.464 9.00986 18.288C8.88186 18.208 8.71386 18.208 8.58586 18.288C7.66586 18.872 6.63386 19.2 5.60186 19.2H4.80186C4.36186 19.2 4.00186 19.56 4.00186 20C4.00186 20.44 4.36186 20.8 4.80186 20.8H5.60186C6.70586 20.8 7.79386 20.52 8.80186 20.008C10.8179 21.04 13.1859 21.04 15.2019 20.008C16.2099 20.528 17.2979 20.8 18.4019 20.8H19.2019C19.6419 20.8 20.0019 20.44 20.0019 20C20.0019 19.56 19.6419 19.2 19.2019 19.2H18.4019ZM5.56186 17.6H5.60186C6.73786 17.6 7.76186 17.04 8.52986 16.288C8.68186 16.144 8.92986 16.144 9.08186 16.288C9.84186 17.04 10.8659 17.6 12.0019 17.6C13.1379 17.6 14.1619 17.04 14.9299 16.288C15.0819 16.136 15.3219 16.136 15.4819 16.288C16.2419 17.04 17.2659 17.6 18.4019 17.6H18.4419L19.9539 12.2559C20.0179 12.048 20.0019 11.824 19.9059 11.632C19.8099 11.44 19.6339 11.296 19.4259 11.232L18.4019 10.896V7.19995C18.4019 6.31995 17.6819 5.59995 16.8019 5.59995H14.4019V3.99995C14.4019 3.55995 14.0419 3.19995 13.6019 3.19995H10.4019C9.96186 3.19995 9.60186 3.55995 9.60186 3.99995V5.59995H7.20186C6.32186 5.59995 5.60186 6.31995 5.60186 7.19995V10.896L4.56986 11.232C4.36186 11.296 4.18586 11.44 4.08986 11.632C3.99386 11.824 3.96986 12.048 4.04186 12.2559L5.56186 17.6ZM8.00186 7.19995H16.0019C16.4419 7.19995 16.8019 7.55995 16.8019 7.99995V10.376L12.4979 8.95995C12.1699 8.85595 11.8259 8.85595 11.4979 8.95995L7.20186 10.376V7.99995C7.20186 7.55995 7.56186 7.19995 8.00186 7.19995Z" fill="#808080"/>
</svg>
