<svg width="24" height="24" viewBox="0 0 24 24" fill="none" xmlns="http://www.w3.org/2000/svg">
<path fill-rule="evenodd" clip-rule="evenodd" d="M5.6001 16C5.6001 16.704 5.9121 17.336 6.4001 17.776V18.8C6.4001 19.464 6.9361 20 7.6001 20C8.2641 20 8.8001 19.464 8.8001 18.8V18.4H15.2001V18.8C15.2001 19.456 15.7361 20 16.4001 20C17.0561 20 17.6001 19.464 17.6001 18.8V17.776C18.0881 17.336 18.4001 16.704 18.4001 16V8.00005C18.4001 5.20005 15.5361 4.80005 12.0001 4.80005C8.4641 4.80005 5.6001 5.20005 5.6001 8.00005V16ZM8.4001 16.8C7.7361 16.8 7.2001 16.264 7.2001 15.6C7.2001 14.936 7.7361 14.4 8.4001 14.4C9.0641 14.4 9.6001 14.936 9.6001 15.6C9.6001 16.264 9.0641 16.8 8.4001 16.8ZM15.6001 16.8C14.9361 16.8 14.4001 16.264 14.4001 15.6C14.4001 14.936 14.9361 14.4 15.6001 14.4C16.2641 14.4 16.8001 14.936 16.8001 15.6C16.8001 16.264 16.2641 16.8 15.6001 16.8ZM16.8001 12H7.2001V8.00005H16.8001V12Z" fill="#808080"/>
</svg>
