<svg width="24" height="24" viewBox="0 0 24 24" fill="none" xmlns="http://www.w3.org/2000/svg">
<path fill-rule="evenodd" clip-rule="evenodd" d="M17.536 6.40798C17.376 5.93598 16.928 5.59998 16.4 5.59998H7.60005C7.07205 5.59998 6.63205 5.93598 6.46405 6.40798L4.88805 10.944C4.83205 11.112 4.80005 11.288 4.80005 11.472V17.2C4.80005 17.864 5.33605 18.4 6.00005 18.4C6.66405 18.4 7.20005 17.864 7.20005 17.2V16.8H16.8V17.2C16.8 17.856 17.336 18.4 18 18.4C18.656 18.4 19.2 17.864 19.2 17.2V11.472C19.2 11.296 19.168 11.112 19.112 10.944L17.536 6.40798ZM7.60005 14.4C6.93605 14.4 6.40005 13.864 6.40005 13.2C6.40005 12.536 6.93605 12 7.60005 12C8.26405 12 8.80005 12.536 8.80005 13.2C8.80005 13.864 8.26405 14.4 7.60005 14.4ZM16.4 14.4C15.736 14.4 15.2 13.864 15.2 13.2C15.2 12.536 15.736 12 16.4 12C17.064 12 17.6 12.536 17.6 13.2C17.6 13.864 17.064 14.4 16.4 14.4ZM6.40005 10.4L7.41605 7.34398C7.52805 7.02398 7.83205 6.79998 8.17605 6.79998H15.824C16.168 6.79998 16.472 7.02398 16.584 7.34398L17.6 10.4H6.40005Z" fill="#808080"/>
</svg>
