<svg width="24" height="24" viewBox="0 0 24 24" fill="none" xmlns="http://www.w3.org/2000/svg">
<path fill-rule="evenodd" clip-rule="evenodd" d="M19.762 11.434L12.562 4.23399C12.4125 4.08419 12.2096 4 11.998 4C11.7864 4 11.5835 4.08419 11.434 4.23399L4.234 11.434C3.922 11.746 3.922 12.25 4.234 12.562L11.434 19.762C11.746 20.074 12.25 20.074 12.562 19.762L19.762 12.562C20.074 12.258 20.074 11.754 19.762 11.434ZM13.594 14.002V12.002H10.394V13.602C10.394 14.042 10.034 14.402 9.594 14.402C9.154 14.402 8.794 14.042 8.794 13.602V11.202C8.794 10.762 9.154 10.402 9.594 10.402H13.594V8.40199L16.114 10.922C16.274 11.082 16.274 11.33 16.114 11.49L13.594 14.002Z" fill="#808080"/>
</svg>
