<svg width="24" height="24" viewBox="0 0 24 24" fill="none" xmlns="http://www.w3.org/2000/svg">
<path fill-rule="evenodd" clip-rule="evenodd" d="M13.9363 6.39995C14.8163 6.39995 15.5363 5.67995 15.5363 4.79995C15.5363 3.91995 14.8163 3.19995 13.9363 3.19995C13.0563 3.19995 12.3363 3.91995 12.3363 4.79995C12.3363 5.67995 13.0563 6.39995 13.9363 6.39995ZM11.4003 16L11.8563 14L13.5363 15.6V19.6C13.5363 20.04 13.8963 20.4 14.3363 20.4C14.7763 20.4 15.1363 20.04 15.1363 19.6V15.088C15.1363 14.648 14.9603 14.232 14.6403 13.928L13.4563 12.8L13.9363 10.4C14.7923 11.392 16.0323 12.104 17.4243 12.328C17.9043 12.4 18.3363 12.016 18.3363 11.528C18.3363 11.136 18.0483 10.808 17.6563 10.744C16.4403 10.544 15.4323 9.82395 14.8963 8.87995L14.0963 7.59995C13.7763 7.11995 13.2963 6.79995 12.7363 6.79995C12.4963 6.79995 12.3363 6.87995 12.0963 6.87995L8.91227 8.22395C8.32027 8.47995 7.93627 9.05595 7.93627 9.70395V11.6C7.93627 12.04 8.29627 12.4 8.73627 12.4C9.17627 12.4 9.53627 12.04 9.53627 11.6V9.67995L10.9763 9.11995L9.69627 15.6L6.56027 14.96C6.12827 14.872 5.70427 15.152 5.61627 15.584V15.616C5.52827 16.048 5.80827 16.472 6.24027 16.56L9.52827 17.216C10.3763 17.384 11.2083 16.848 11.4003 16Z" fill="#808080"/>
</svg>
