<svg width="24" height="24" viewBox="0 0 24 24" fill="none" xmlns="http://www.w3.org/2000/svg">
<path fill-rule="evenodd" clip-rule="evenodd" d="M18.4 15.2H20V13.6H18.4V15.2ZM18.4 8.79998V11.2C18.4 11.64 18.76 12 19.2 12C19.64 12 20 11.64 20 11.2V8.79998C20 8.35998 19.64 7.99998 19.2 7.99998C18.76 7.99998 18.4 8.35998 18.4 8.79998ZM10.4 5.59998C6.864 5.59998 4 8.46398 4 12C4 15.536 6.864 18.4 10.4 18.4C13.936 18.4 16.8 15.536 16.8 12C16.8 8.46398 13.936 5.59998 10.4 5.59998ZM10.4 13.6C9.52 13.6 8.8 12.88 8.8 12C8.8 11.12 9.52 10.4 10.4 10.4C11.28 10.4 12 11.12 12 12C12 12.88 11.28 13.6 10.4 13.6Z" fill="#808080"/>
</svg>
