<svg width="24" height="24" viewBox="0 0 24 24" fill="none" xmlns="http://www.w3.org/2000/svg">
<path fill-rule="evenodd" clip-rule="evenodd" d="M17.6 12.8H6.39999C5.51999 12.8 4.79999 13.52 4.79999 14.4V17.6C4.79999 18.48 5.51999 19.2 6.39999 19.2H17.6C18.48 19.2 19.2 18.48 19.2 17.6V14.4C19.2 13.52 18.48 12.8 17.6 12.8ZM7.99999 17.6C7.11999 17.6 6.39999 16.88 6.39999 16C6.39999 15.12 7.11999 14.4 7.99999 14.4C8.87999 14.4 9.59999 15.12 9.59999 16C9.59999 16.88 8.87999 17.6 7.99999 17.6ZM17.6 4.79999H6.39999C5.51999 4.79999 4.79999 5.51999 4.79999 6.39999V9.59999C4.79999 10.48 5.51999 11.2 6.39999 11.2H17.6C18.48 11.2 19.2 10.48 19.2 9.59999V6.39999C19.2 5.51999 18.48 4.79999 17.6 4.79999ZM7.99999 9.59999C7.11999 9.59999 6.39999 8.87999 6.39999 7.99999C6.39999 7.11999 7.11999 6.39999 7.99999 6.39999C8.87999 6.39999 9.59999 7.11999 9.59999 7.99999C9.59999 8.87999 8.87999 9.59999 7.99999 9.59999Z" fill="#808080"/>
</svg>
