<svg width="24" height="24" viewBox="0 0 24 24" fill="none" xmlns="http://www.w3.org/2000/svg">
<path fill-rule="evenodd" clip-rule="evenodd" d="M16.466 11.2V12.8H15.762L19.226 16.264C20.01 15.032 20.466 13.568 20.466 12C20.466 7.584 16.882 4 12.466 4C10.898 4 9.434 4.456 8.202 5.24L14.162 11.2H16.466ZM19.802 19.104L5.362 4.664C5.21253 4.5142 5.00961 4.43001 4.798 4.43001C4.58639 4.43001 4.38347 4.5142 4.234 4.664C3.922 4.976 3.922 5.48 4.234 5.792L5.89 7.448C4.994 8.744 4.466 10.312 4.466 12C4.466 16.416 8.05 20 12.466 20C14.154 20 15.722 19.472 17.01 18.576L18.666 20.232C18.978 20.544 19.482 20.544 19.794 20.232C20.114 19.92 20.114 19.416 19.802 19.104ZM8.466 12.8V11.2H9.634L11.234 12.8H8.466Z" fill="#808080"/>
</svg>
