<svg width="24" height="24" viewBox="0 0 24 24" fill="none" xmlns="http://www.w3.org/2000/svg">
<path fill-rule="evenodd" clip-rule="evenodd" d="M12 4C7.584 4 4 7.584 4 12C4 16.416 7.584 20 12 20C16.416 20 20 16.416 20 12C20 7.584 16.416 4 12 4ZM12 18.4C8.464 18.4 5.6 15.536 5.6 12C5.6 10.52 6.104 9.16 6.952 8.08L15.92 17.048C14.84 17.896 13.48 18.4 12 18.4ZM17.048 15.92L8.08 6.952C9.16 6.104 10.52 5.6 12 5.6C15.536 5.6 18.4 8.464 18.4 12C18.4 13.48 17.896 14.84 17.048 15.92Z" fill="#808080"/>
</svg>
