<svg width="24" height="24" viewBox="0 0 24 24" fill="none" xmlns="http://www.w3.org/2000/svg">
<path fill-rule="evenodd" clip-rule="evenodd" d="M15.1797 12.0023C15.1797 9.84561 13.8903 8.5 11.8414 8.5C9.79255 8.5 8.49851 9.84561 8.49851 12.0023C8.49851 14.1591 9.78786 15.5 11.8414 15.5C13.8903 15.5 15.1797 14.1591 15.1797 12.0023ZM10.252 12.0023C10.252 10.713 10.8803 9.89719 11.8414 9.89719C12.8026 9.89719 13.4308 10.713 13.4308 12.0023C13.4308 13.287 12.8026 14.1028 11.8414 14.1028C10.8756 14.1028 10.252 13.287 10.252 12.0023ZM4.79925 8.61721H2.05176V15.3828H4.79925C6.83876 15.3828 8.04372 14.1216 8.04372 11.9601C8.04372 9.80342 6.84345 8.61721 4.79925 8.61721ZM3.77245 13.995V10.005H4.5742C5.66194 10.005 6.29489 10.6943 6.29489 11.9649C6.29489 13.3152 5.69476 13.995 4.5742 13.995H3.77245ZM15.5905 11.9977C15.5905 14.2106 16.8517 15.5 18.8772 15.5C20.6213 15.5 21.8685 14.4404 21.9482 12.8322H20.2931C20.1853 13.6246 19.6367 14.1216 18.8819 14.1216C17.9348 14.1216 17.344 13.3198 17.344 11.993C17.344 10.6802 17.9395 9.87843 18.8772 9.87843C19.632 9.87843 20.1994 10.4035 20.2838 11.2006H21.9388C21.8872 9.60181 20.5885 8.5 18.8772 8.5C16.8611 8.5 15.5905 9.78935 15.5905 11.9977Z" fill="#808080"/>
</svg>
