<svg width="24" height="24" viewBox="0 0 24 24" fill="none" xmlns="http://www.w3.org/2000/svg">
<path fill-rule="evenodd" clip-rule="evenodd" d="M9.59995 20.8H14.4C14.84 20.8 15.2 20.44 15.2 20C15.2 19.56 14.84 19.2 14.4 19.2H9.59995C9.15995 19.2 8.79995 19.56 8.79995 20C8.79995 20.44 9.15995 20.8 9.59995 20.8ZM15.2 3.20801L8.79995 3.20001C7.91995 3.20001 7.19995 3.92001 7.19995 4.80001V16C7.19995 16.88 7.91995 17.6 8.79995 17.6H15.2C16.08 17.6 16.8 16.88 16.8 16V4.80001C16.8 3.92001 16.08 3.20801 15.2 3.20801ZM15.2 14.4H8.79995V6.40001H15.2V14.4Z" fill="#808080"/>
</svg>
