<svg width="24" height="24" viewBox="0 0 24 24" fill="none" xmlns="http://www.w3.org/2000/svg">
<path fill-rule="evenodd" clip-rule="evenodd" d="M4.64395 14.5606C5.08691 14.5582 5.48828 14.4522 5.84805 14.2424C6.20781 14.0326 6.48672 13.742 6.68477 13.3705C6.88281 12.999 6.98184 12.5789 6.98184 12.1102V11.8746C6.97949 11.4106 6.87695 10.9916 6.67422 10.6178C6.47148 10.244 6.18965 9.9545 5.82871 9.74943C5.46777 9.54435 5.06113 9.44181 4.60879 9.44181H2.95996V14.5606H4.64395ZM4.62285 13.6113H4.19395V10.3945H4.60879C4.97207 10.3945 5.24863 10.5199 5.43848 10.7707C5.62832 11.0215 5.72324 11.3942 5.72324 11.8887V12.1102C5.72324 12.607 5.62832 12.9815 5.43848 13.2334C5.24863 13.4854 4.97676 13.6113 4.62285 13.6113ZM9.71699 14.6309C10.1529 14.6309 10.5414 14.5272 10.8824 14.3197C11.2234 14.1123 11.4865 13.8164 11.6717 13.432C11.8568 13.0477 11.9494 12.6059 11.9494 12.1067V11.8711C11.9471 11.3789 11.8516 10.9424 11.6629 10.5615C11.4742 10.1807 11.21 9.88712 10.8701 9.68087C10.5303 9.47462 10.1436 9.3715 9.70996 9.3715C9.27168 9.3715 8.88086 9.47579 8.5375 9.68439C8.19414 9.89298 7.93047 10.1889 7.74648 10.5721C7.5625 10.9553 7.47051 11.3977 7.47051 11.8992V12.1875C7.47988 12.6703 7.57891 13.0981 7.76758 13.4707C7.95625 13.8434 8.21934 14.1299 8.55684 14.3303C8.89434 14.5307 9.28105 14.6309 9.71699 14.6309ZM9.71699 13.6676C9.38887 13.6676 9.1416 13.5328 8.9752 13.2633C8.80879 12.9938 8.72559 12.6082 8.72559 12.1067L8.7291 11.7305C8.76426 10.8024 9.09121 10.3383 9.70996 10.3383C10.0264 10.3383 10.2695 10.4701 10.4395 10.7338C10.6094 10.9975 10.6943 11.3836 10.6943 11.8922V12.1277C10.692 12.6246 10.6064 13.0055 10.4377 13.2703C10.2689 13.5352 10.0287 13.6676 9.71699 13.6676ZM14.7408 14.6309C15.1768 14.6309 15.5775 14.5664 15.9432 14.4375C16.3088 14.3086 16.5865 14.1387 16.7764 13.9277V11.8254H14.6846V12.6727H15.5424V13.4672C15.3854 13.6102 15.1463 13.6817 14.8252 13.6817C14.4502 13.6817 14.1754 13.5533 14.0008 13.2967C13.8262 13.0401 13.7389 12.6563 13.7389 12.1453V11.8359C13.7412 11.3484 13.8268 10.9734 13.9955 10.7109C14.1643 10.4484 14.4033 10.3172 14.7127 10.3172C14.9705 10.3172 15.1697 10.3781 15.3104 10.5C15.451 10.6219 15.5424 10.8258 15.5846 11.1117H16.7729C16.7143 10.5328 16.5086 10.0975 16.1559 9.80568C15.8031 9.51388 15.308 9.36798 14.6705 9.36798C14.2346 9.36798 13.8508 9.46935 13.5191 9.67208C13.1875 9.87482 12.9326 10.1643 12.7545 10.5404C12.5764 10.9166 12.4873 11.3567 12.4873 11.8606L12.4908 12.3035C12.5189 13.0348 12.7334 13.6055 13.1342 14.0156C13.535 14.4258 14.0705 14.6309 14.7408 14.6309ZM21.0197 14.5606V13.6113H18.7275V12.3914H20.6682V11.4738H18.7275V10.3945H21.0268V9.44181H17.4936V14.5606H21.0197Z" fill="#808080"/>
</svg>
