<svg width="24" height="24" viewBox="0 0 24 24" fill="none" xmlns="http://www.w3.org/2000/svg">
<path fill-rule="evenodd" clip-rule="evenodd" d="M3.43401 3.434C3.12201 3.746 3.12201 4.25 3.43401 4.562L4.46601 5.602V16.722C4.46601 17.602 5.18601 18.322 6.06601 18.322H17.186L19.018 20.154C19.33 20.466 19.834 20.466 20.146 20.154C20.458 19.842 20.458 19.338 20.146 19.026L4.56201 3.434C4.41255 3.2842 4.20963 3.20001 3.99801 3.20001C3.7864 3.20001 3.58348 3.2842 3.43401 3.434ZM7.66601 16.722H6.06601V15.122H7.66601V16.722ZM7.66601 13.522H6.06601V11.922H7.66601V13.522ZM6.06601 10.322V8.722H7.66601V10.322H6.06601ZM10.866 16.722H9.26601V15.122H10.866V16.722ZM9.26601 13.522V11.922H10.866V13.522H9.26601ZM12.466 16.722V15.122H13.986L15.586 16.722H12.466ZM9.26601 5.522H10.866V7.122H10.506L12.466 9.082V8.722H18.066C18.506 8.722 18.866 9.082 18.866 9.522V15.482L20.466 17.082V8.722C20.466 7.842 19.746 7.122 18.866 7.122H12.466V5.522C12.466 4.642 11.746 3.922 10.866 3.922H7.30601L9.26601 5.882V5.522ZM15.666 10.322H17.266V11.922H15.666V10.322Z" fill="#808080"/>
</svg>
