<svg width="24" height="24" viewBox="0 0 24 24" fill="none" xmlns="http://www.w3.org/2000/svg">
<path fill-rule="evenodd" clip-rule="evenodd" d="M12 8.00005V6.40005C12 5.52005 11.28 4.80005 10.4 4.80005H5.6C4.72 4.80005 4 5.52005 4 6.40005V17.6C4 18.48 4.72 19.2 5.6 19.2H18.4C19.28 19.2 20 18.48 20 17.6V9.60005C20 8.72005 19.28 8.00005 18.4 8.00005H12ZM7.2 17.6H5.6V16H7.2V17.6ZM7.2 14.4H5.6V12.8H7.2V14.4ZM7.2 11.2H5.6V9.60005H7.2V11.2ZM7.2 8.00005H5.6V6.40005H7.2V8.00005ZM10.4 17.6H8.8V16H10.4V17.6ZM10.4 14.4H8.8V12.8H10.4V14.4ZM10.4 11.2H8.8V9.60005H10.4V11.2ZM10.4 8.00005H8.8V6.40005H10.4V8.00005ZM17.6 17.6H12V16H13.6V14.4H12V12.8H13.6V11.2H12V9.60005H17.6C18.04 9.60005 18.4 9.96005 18.4 10.4V16.8C18.4 17.24 18.04 17.6 17.6 17.6ZM16.8 11.2H15.2V12.8H16.8V11.2ZM16.8 14.4H15.2V16H16.8V14.4Z" fill="#808080"/>
</svg>
