<svg width="24" height="24" viewBox="0 0 24 24" fill="none" xmlns="http://www.w3.org/2000/svg">
<path fill-rule="evenodd" clip-rule="evenodd" d="M16.378 7.44102C16.2285 7.29122 16.0256 7.20703 15.814 7.20703C15.6024 7.20703 15.3995 7.29122 15.25 7.44102L10.738 11.953L11.866 13.081L16.378 8.56102C16.682 8.25702 16.682 7.74502 16.378 7.44102ZM19.77 7.43302L11.866 15.337L9.082 12.561C8.93253 12.4112 8.72961 12.327 8.518 12.327C8.30638 12.327 8.10346 12.4112 7.954 12.561C7.642 12.873 7.642 13.377 7.954 13.689L11.298 17.033C11.61 17.345 12.114 17.345 12.426 17.033L20.898 8.56902C21.21 8.25702 21.21 7.75302 20.898 7.44102H20.89C20.586 7.12102 20.082 7.12102 19.77 7.43302ZM3.434 13.697L6.778 17.041C7.09 17.353 7.594 17.353 7.906 17.041L8.466 16.481L4.562 12.561C4.41253 12.4112 4.20961 12.327 3.998 12.327C3.78638 12.327 3.58346 12.4112 3.434 12.561C3.122 12.873 3.122 13.385 3.434 13.697Z" fill="#808080"/>
</svg>
