<svg width="24" height="24" viewBox="0 0 24 24" fill="none" xmlns="http://www.w3.org/2000/svg">
<path fill-rule="evenodd" clip-rule="evenodd" d="M18.916 6.96399C19.228 7.27599 19.228 7.77199 18.916 8.08399L9.844 17.156C9.532 17.468 9.036 17.468 8.724 17.156L5.364 13.796C5.21428 13.6481 5.13001 13.4464 5.13001 13.236C5.13001 13.0255 5.21428 12.8239 5.364 12.676C5.676 12.364 6.172 12.364 6.484 12.676L9.284 15.476L17.796 6.96399C18.108 6.65199 18.604 6.65199 18.916 6.96399ZM17.228 5.26799L9.284 13.212L7.052 10.98C6.428 10.356 5.412 10.356 4.788 10.98L3.668 12.1C3.044 12.724 3.044 13.74 3.668 14.364L8.148 18.844C8.772 19.468 9.788 19.468 10.412 18.844L20.612 8.65199C21.236 8.02799 21.236 7.01199 20.612 6.38799L19.492 5.26799C18.86 4.64399 17.852 4.64399 17.228 5.26799Z" fill="#808080"/>
</svg>
