<svg width="24" height="24" viewBox="0 0 24 24" fill="none" xmlns="http://www.w3.org/2000/svg">
<path fill-rule="evenodd" clip-rule="evenodd" d="M13.656 6.36384C15.408 6.90784 16.8 8.29984 17.344 10.0518C17.496 10.5558 17.952 10.9078 18.472 10.9078H18.504C19.304 10.9078 19.88 10.1398 19.648 9.37984C18.872 6.83584 16.864 4.82784 14.32 4.05184C13.568 3.81984 12.8 4.39584 12.8 5.19584V5.22784C12.8 5.75584 13.152 6.21184 13.656 6.36384ZM17.344 13.3638C16.8 15.1238 15.408 16.5078 13.656 17.0518C13.152 17.2038 12.8 17.6598 12.8 18.1798V18.2118C12.8 19.0118 13.568 19.5878 14.328 19.3558C16.872 18.5798 18.88 16.5718 19.656 14.0278C19.888 13.2678 19.312 12.4998 18.52 12.4998H18.48C17.952 12.5078 17.496 12.8598 17.344 13.3638ZM11.2 18.1958C11.2 17.6598 10.84 17.2038 10.328 17.0438C8.056 16.3318 6.4 14.2118 6.4 11.7078C6.4 9.20384 8.056 7.08384 10.328 6.37184C10.84 6.21184 11.2 5.75584 11.2 5.21984V5.21184C11.2 4.41184 10.424 3.81984 9.656 4.05984C6.384 5.05984 4 8.10784 4 11.7078C4 15.3078 6.384 18.3558 9.656 19.3558C10.424 19.5958 11.2 19.0038 11.2 18.1958Z" fill="#808080"/>
</svg>
