<svg width="24" height="24" viewBox="0 0 24 24" fill="none" xmlns="http://www.w3.org/2000/svg">
<path fill-rule="evenodd" clip-rule="evenodd" d="M5.16148 15.4064C5.75105 15.4033 6.28525 15.2621 6.76408 14.983C7.24292 14.7038 7.61413 14.317 7.87772 13.8225C8.14131 13.3281 8.27311 12.7689 8.27311 12.1451V11.8316C8.26999 11.2139 8.13351 10.6563 7.86368 10.1588C7.59385 9.66121 7.21874 9.27596 6.73835 9.00301C6.25796 8.73006 5.71673 8.59358 5.11468 8.59358H2.92017V15.4064H5.16148ZM5.1334 14.143H4.56255V9.86163H5.11468C5.5982 9.86163 5.96629 10.0285 6.21896 10.3623C6.47164 10.6961 6.59797 11.1921 6.59797 11.8503V12.1451C6.59797 12.8064 6.47164 13.3047 6.21896 13.64C5.96629 13.9754 5.60444 14.143 5.1334 14.143ZM11.9135 15.5C12.4937 15.5 13.0107 15.362 13.4646 15.0859C13.9185 14.8098 14.2687 14.416 14.5151 13.9044C14.7615 13.3928 14.8847 12.8048 14.8847 12.1404V11.8269C14.8816 11.1718 14.7545 10.5908 14.5034 10.0839C14.2523 9.57698 13.9006 9.18627 13.4482 8.91176C12.9959 8.63725 12.4812 8.5 11.9041 8.5C11.3208 8.5 10.8006 8.63881 10.3436 8.91644C9.88663 9.19407 9.5357 9.5879 9.29082 10.0979C9.04595 10.608 8.92351 11.1967 8.92351 11.8643V12.248C8.93599 12.8906 9.06778 13.4599 9.3189 13.9559C9.57001 14.4519 9.92017 14.8332 10.3694 15.0999C10.8186 15.3666 11.3333 15.5 11.9135 15.5ZM11.9135 14.2179C11.4768 14.2179 11.1477 14.0385 10.9262 13.6798C10.7047 13.3211 10.594 12.8079 10.594 12.1404L10.5986 11.6397C10.6454 10.4044 11.0806 9.78676 11.9041 9.78676C12.3252 9.78676 12.6489 9.96223 12.875 10.3132C13.1012 10.6641 13.2143 11.178 13.2143 11.8549V12.1684C13.2112 12.8298 13.0973 13.3367 12.8727 13.6892C12.6481 14.0417 12.3284 14.2179 11.9135 14.2179ZM19.0351 15.4064V9.86163H21.0799V8.59358H15.3854V9.86163H17.3928V15.4064H19.0351Z" fill="#808080"/>
</svg>
