<svg width="24" height="24" viewBox="0 0 24 24" fill="none" xmlns="http://www.w3.org/2000/svg">
<path fill-rule="evenodd" clip-rule="evenodd" d="M7.60144 15.9465C7.60144 15.9465 5.16655 17.7282 4.72027 18.0864C4.27398 18.4447 3.43007 19.5571 4.57475 20.4715C5.71944 21.3859 6.94177 19.755 6.94177 19.755L8.82381 17.1532L9.43494 17.7848C9.43494 17.7848 10.0072 18.3598 10.8416 17.5302C11.6759 16.7007 17.5888 10.7981 17.5888 10.7981C17.5888 10.7981 18.3636 9.94291 17.9211 9.50758C17.4786 9.07225 17.1999 8.80679 17.1999 8.80679L19.3874 7.17229C19.3874 7.17229 20.1574 6.67363 20.37 6.42567C20.5826 6.17771 20.8 5.8425 20.8 5.34199C20.8 4.84147 20.4739 4.25827 19.9022 4.09298C19.3304 3.92769 18.7822 3.9598 18.4042 4.37768C18.0262 4.79555 15.999 7.54606 15.999 7.54606C15.999 7.54606 15.6447 7.17414 15.4509 7.00424C15.2572 6.83434 14.7469 6.51291 14.3169 6.917C13.8868 7.32108 7.09823 14.1195 7.09823 14.1195C7.09823 14.1195 6.82919 14.4062 6.80002 14.7558C6.77085 15.1055 6.9848 15.326 7.13714 15.4835C7.28948 15.641 7.60144 15.9465 7.60144 15.9465Z" fill="#808080"/>
</svg>
