<svg width="24" height="24" viewBox="0 0 24 24" fill="none" xmlns="http://www.w3.org/2000/svg">
<path fill-rule="evenodd" clip-rule="evenodd" d="M7.20002 16.348H16.8C17.24 16.348 17.6 16.708 17.6 17.148C17.6 17.588 17.24 17.948 16.8 17.948H7.20002C6.76002 17.948 6.40002 17.588 6.40002 17.148C6.40002 16.708 6.76002 16.348 7.20002 16.348ZM11.208 13.068C10.584 13.684 9.57602 13.684 8.95202 13.06L7.20002 11.308C6.76002 10.868 6.76802 10.156 7.22402 9.73198C7.65602 9.31598 8.34402 9.33198 8.76002 9.74798L10.08 11.068L15.224 5.92398C15.656 5.49198 16.352 5.49198 16.784 5.92398L16.816 5.95598C17.248 6.38798 17.248 7.09198 16.808 7.52398L11.208 13.068Z" fill="#808080"/>
</svg>
