<svg width="24" height="24" viewBox="0 0 24 24" fill="none" xmlns="http://www.w3.org/2000/svg">
<path fill-rule="evenodd" clip-rule="evenodd" d="M19.992 10.15C19.992 9.574 19.696 9.07 19.24 8.79L12.808 5.022C12.312 4.726 11.688 4.726 11.192 5.022L4.76 8.79C4.304 9.07 4 9.574 4 10.15V18.15C4 19.03 4.72 19.75 5.6 19.75H18.4C19.28 19.75 20 19.03 20 18.15L19.992 10.15ZM11.152 13.622L5.392 10.022L11.192 6.622C11.688 6.326 12.312 6.326 12.808 6.622L18.608 10.022L12.848 13.622C12.328 13.942 11.672 13.942 11.152 13.622Z" fill="#808080"/>
</svg>
