<svg width="24" height="24" viewBox="0 0 24 24" fill="none" xmlns="http://www.w3.org/2000/svg">
<path fill-rule="evenodd" clip-rule="evenodd" d="M11.2 16.8C11.2 17.68 10.48 18.4 9.6 18.4C8.72 18.4 8 17.68 8 16.8C8 15.92 8.72 15.2 9.6 15.2C10.48 15.2 11.2 15.92 11.2 16.8ZM9.6 10.4C8.72 10.4 8 11.12 8 12C8 12.88 8.72 13.6 9.6 13.6C10.48 13.6 11.2 12.88 11.2 12C11.2 11.12 10.48 10.4 9.6 10.4ZM9.6 5.60001C8.72 5.60001 8 6.32001 8 7.20001C8 8.08001 8.72 8.80001 9.6 8.80001C10.48 8.80001 11.2 8.08001 11.2 7.20001C11.2 6.32001 10.48 5.60001 9.6 5.60001ZM14.4 8.80001C15.28 8.80001 16 8.08001 16 7.20001C16 6.32001 15.28 5.60001 14.4 5.60001C13.52 5.60001 12.8 6.32001 12.8 7.20001C12.8 8.08001 13.52 8.80001 14.4 8.80001ZM14.4 10.4C13.52 10.4 12.8 11.12 12.8 12C12.8 12.88 13.52 13.6 14.4 13.6C15.28 13.6 16 12.88 16 12C16 11.12 15.28 10.4 14.4 10.4ZM14.4 15.2C13.52 15.2 12.8 15.92 12.8 16.8C12.8 17.68 13.52 18.4 14.4 18.4C15.28 18.4 16 17.68 16 16.8C16 15.92 15.28 15.2 14.4 15.2Z" fill="#808080"/>
</svg>
