<svg width="24" height="24" viewBox="0 0 24 24" fill="none" xmlns="http://www.w3.org/2000/svg">
<path fill-rule="evenodd" clip-rule="evenodd" d="M7.36185 15.7527C8.75403 18.5842 10.4334 20 12.4 19.9968L12.4001 20C14.4199 20 16.1367 18.5067 17.5506 15.52C18.9645 12.5333 19.4694 9.54667 19.0654 6.56C18.8635 5.70667 18.1565 5.06667 16.9447 4.64C15.7328 4.21333 14.2179 4 12.4001 4C10.5823 4 9.06742 4.21333 7.85554 4.64C6.64366 5.06667 5.93673 5.70667 5.73475 6.56C5.33079 9.54667 5.83574 12.5333 7.2496 15.52L7.36185 15.7527ZM10.6183 14.4C10.2789 14.7556 9.93949 15.2889 9.6001 16C9.65932 15.969 9.722 15.9343 9.78891 15.8974L9.7892 15.8972L9.78922 15.8972C10.2975 15.6163 11.0507 15.2 12.4 15.2H12.4001C13.7494 15.2 14.5027 15.6163 15.011 15.8972L15.011 15.8972C15.078 15.9342 15.1408 15.9689 15.2001 16C14.8607 15.2889 14.5213 14.7556 14.1819 14.4C13.8425 14.0444 13.1637 13.6 12.4001 13.6H12.4C11.6364 13.6 10.9577 14.0445 10.6183 14.4ZM7.55244 9.76008C7.55244 9.76008 8.76432 11.3601 9.9762 10.7201C11.1881 10.0801 11.4911 8.48008 11.4911 8.48008C11.4911 8.48008 10.2792 8.48008 9.37026 8.80008C8.46135 9.12008 7.55244 9.76008 7.55244 9.76008ZM14.824 10.7201C16.0359 11.3601 17.2478 9.76008 17.2478 9.76008C17.2478 9.76008 16.3388 9.12008 15.4299 8.80008C14.521 8.48008 13.3091 8.48008 13.3091 8.48008C13.3091 8.48008 13.6121 10.0801 14.824 10.7201Z" fill="#808080"/>
</svg>
