<svg width="24" height="24" viewBox="0 0 24 24" fill="none" xmlns="http://www.w3.org/2000/svg">
<path fill-rule="evenodd" clip-rule="evenodd" d="M19.6887 5.07757C20.0806 4.88373 20.5456 5.06568 20.7273 5.48397C20.8959 5.87238 20.761 6.32799 20.427 6.5463L20.3464 6.59232L17.7557 7.87358C18.6624 9.07803 19.2 10.5762 19.2 12.2C19.2 12.2799 19.1986 12.3595 19.1961 12.4388L20.3464 13.0077L20.427 13.0537C20.761 13.272 20.8959 13.7276 20.7273 14.116C20.5456 14.5343 20.0806 14.7163 19.6887 14.5224L18.9331 14.1488C18.0833 17.1784 15.3011 19.4 12 19.4C8.69884 19.4 5.91661 17.1784 5.06679 14.1488L4.31123 14.5224C3.91927 14.7163 3.45428 14.5343 3.27264 14.116C3.10398 13.7276 3.23894 13.272 3.5729 13.0537L3.65346 13.0077L4.80384 12.4388C4.80125 12.3595 4.79995 12.2799 4.79995 12.2C4.79995 10.5762 5.33746 9.07803 6.24425 7.87358L3.65346 6.59232L3.5729 6.5463C3.23894 6.32799 3.10398 5.87238 3.27264 5.48397C3.45428 5.06568 3.91927 4.88373 4.31123 5.07757L7.44218 6.62596C8.68353 5.60974 10.2705 5 12 5C13.7294 5 15.3164 5.60974 16.5577 6.62596L19.6887 5.07757ZM7.7111 8.599C7.00652 9.43729 6.5432 10.4851 6.42805 11.6355L10.1396 9.8L7.7111 8.599ZM12 8.87998L9.06615 7.42909C9.91934 6.90331 10.9242 6.6 12 6.6C13.0757 6.6 14.0806 6.90331 14.9338 7.42909L12 8.87998ZM12 10.72L6.53394 13.4232C7.09195 15.9277 9.3273 17.8 12 17.8C14.6726 17.8 16.908 15.9277 17.466 13.4232L12 10.72ZM17.5719 11.6355L13.8603 9.8L16.2888 8.599C16.9934 9.43729 17.4567 10.4851 17.5719 11.6355Z" fill="#808080"/>
</svg>
