<svg width="24" height="24" viewBox="0 0 24 24" fill="none" xmlns="http://www.w3.org/2000/svg">
<path fill-rule="evenodd" clip-rule="evenodd" d="M12.8 6.77523C13.134 6.83168 13.4634 6.92375 13.7826 7.05142L19.2913 9.25488C20.2025 9.61936 20.8 10.5019 20.8 11.4832V11.6C20.8 12.7045 19.9045 13.6 18.8 13.6H16.8V19.8C16.8 20.3523 16.3522 20.8 15.8 20.8H8.19995C7.64767 20.8 7.19995 20.3523 7.19995 19.8V13.6H5.19995C4.09538 13.6 3.19995 12.7045 3.19995 11.6V11.4832C3.19995 10.5019 3.79743 9.61936 4.70861 9.25488L10.2173 7.05142C10.5365 6.92375 10.8659 6.83168 11.2 6.77523V6.26341C10.2678 5.93394 9.59995 5.04495 9.59995 3.99998C9.59995 2.67449 10.6745 1.59998 12 1.59998C13.3254 1.59998 14.4 2.67449 14.4 3.99998C14.4 4.4418 14.0418 4.79998 13.6 4.79998C13.1581 4.79998 12.8 4.4418 12.8 3.99998C12.8 3.55815 12.4418 3.19998 12 3.19998C11.5581 3.19998 11.2 3.55815 11.2 3.99998C11.2 4.4418 11.5581 4.79998 12 4.79998C12.4418 4.79998 12.8 5.15815 12.8 5.59998V6.77523ZM16.8 12V11.4C16.8 10.8477 16.3522 10.4 15.8 10.4H8.19995C7.64767 10.4 7.19995 10.8477 7.19995 11.4V12H5.19995C4.97904 12 4.79995 11.8209 4.79995 11.6V11.4832C4.79995 11.1561 4.99911 10.8619 5.30284 10.7404L10.8115 8.53698C11.5744 8.23182 12.4255 8.23182 13.1884 8.53698L18.6971 10.7404C19.0008 10.8619 19.2 11.1561 19.2 11.4832V11.6C19.2 11.8209 19.0209 12 18.8 12H16.8Z" fill="#808080"/>
</svg>
