<svg width="24" height="24" viewBox="0 0 24 24" fill="none" xmlns="http://www.w3.org/2000/svg">
<path fill-rule="evenodd" clip-rule="evenodd" d="M19.2 4.79999H4.79995C3.91995 4.79999 3.19995 5.51999 3.19995 6.39999V16C3.19995 16.88 3.91995 17.6 4.79995 17.6H8.79995V18.4C8.79995 18.84 9.15995 19.2 9.59995 19.2H14.4C14.84 19.2 15.2 18.84 15.2 18.4V17.6H19.2C20.08 17.6 20.8 16.88 20.8 16V6.39999C20.8 5.51999 20.08 4.79999 19.2 4.79999ZM18.4 16H5.59995C5.15995 16 4.79995 15.64 4.79995 15.2V7.19999C4.79995 6.75999 5.15995 6.39999 5.59995 6.39999H18.4C18.84 6.39999 19.2 6.75999 19.2 7.19999V15.2C19.2 15.64 18.84 16 18.4 16ZM16.8 8.79999H9.59995C9.15995 8.79999 8.79995 9.15999 8.79995 9.59999C8.79995 10.04 9.15995 10.4 9.59995 10.4H16.8C17.24 10.4 17.6 10.04 17.6 9.59999C17.6 9.15999 17.24 8.79999 16.8 8.79999ZM16.8 12H9.59995C9.15995 12 8.79995 12.36 8.79995 12.8C8.79995 13.24 9.15995 13.6 9.59995 13.6H16.8C17.24 13.6 17.6 13.24 17.6 12.8C17.6 12.36 17.24 12 16.8 12ZM7.99995 8.79999H6.39995V10.4H7.99995V8.79999ZM7.99995 12H6.39995V13.6H7.99995V12Z" fill="#808080"/>
</svg>
