<svg width="24" height="24" viewBox="0 0 24 24" fill="none" xmlns="http://www.w3.org/2000/svg">
<path fill-rule="evenodd" clip-rule="evenodd" d="M16.504 8H7.496C5.568 8 4 9.792 4 12C4 14.208 5.568 16 7.496 16H16.504C18.432 16 20 14.208 20 12C20 9.792 18.432 8 16.504 8ZM11.288 10.88L8.48 13.688C8.4 13.768 8.296 13.808 8.2 13.808C8.104 13.808 7.992 13.768 7.92 13.688L6.432 12.2C6.272 12.04 6.272 11.792 6.432 11.632C6.592 11.472 6.84 11.472 7 11.632L8.208 12.84L10.736 10.312C10.896 10.152 11.144 10.152 11.304 10.312C11.464 10.472 11.44 10.72 11.288 10.88Z" fill="#808080"/>
</svg>
