<svg width="24" height="24" viewBox="0 0 24 24" fill="none" xmlns="http://www.w3.org/2000/svg">
<path fill-rule="evenodd" clip-rule="evenodd" d="M11.9999 4C8.9119 4 6.3999 6.512 6.3999 9.6C6.3999 12.936 9.9359 17.536 11.3919 19.288C11.7119 19.672 12.2959 19.672 12.6159 19.288C14.0639 17.536 17.5999 12.936 17.5999 9.6C17.5999 6.512 15.0879 4 11.9999 4ZM10.3599 12.392H9.2079V11.24L12.3519 8.104L13.4959 9.248L10.3599 12.392ZM14.6319 8.12L14.0719 8.68L12.9199 7.528L13.4799 6.968C13.5999 6.848 13.7919 6.848 13.9119 6.968L14.6319 7.688C14.7519 7.808 14.7519 8 14.6319 8.12Z" fill="#808080"/>
</svg>
