<svg width="24" height="24" viewBox="0 0 24 24" fill="none" xmlns="http://www.w3.org/2000/svg">
<path fill-rule="evenodd" clip-rule="evenodd" d="M3.5535 18.0465C3.35824 18.2417 3.35824 18.5583 3.5535 18.7536L5.2464 20.4465C5.44166 20.6417 5.75824 20.6417 5.9535 20.4465L9.2464 17.1536C9.44166 16.9583 9.75824 16.9583 9.9535 17.1536L11.2928 18.4929C11.6834 18.8834 12.3165 18.8834 12.7071 18.4929L16.8 14.4L18.0464 15.6465C18.2417 15.8417 18.5582 15.8417 18.7535 15.6465L19.6464 14.7536C19.8417 14.5583 19.8417 14.2417 19.6464 14.0465L17.6 12L20.4464 9.15357C20.6417 8.9583 20.6417 8.64172 20.4464 8.44646L19.5535 7.55357C19.3582 7.3583 19.0417 7.3583 18.8464 7.55357L16 10.4L13.6 8.00001L16.4464 5.15357C16.6417 4.9583 16.6417 4.64172 16.4464 4.44646L15.5535 3.55357C15.3582 3.3583 15.0417 3.3583 14.8464 3.55357L12 6.40001L9.9535 4.35357C9.75824 4.1583 9.44166 4.1583 9.2464 4.35357L8.3535 5.24646C8.15824 5.44172 8.15824 5.7583 8.3535 5.95357L9.59995 7.20001L5.50706 11.2929C5.11653 11.6834 5.11653 12.3166 5.50706 12.7071L6.8464 14.0465C7.04166 14.2417 7.04166 14.5583 6.8464 14.7536L3.5535 18.0465Z" fill="#808080"/>
</svg>
