<svg width="24" height="24" viewBox="0 0 24 24" fill="none" xmlns="http://www.w3.org/2000/svg">
<path fill-rule="evenodd" clip-rule="evenodd" d="M18.4 5.59998H5.6C4.72 5.59998 4.008 6.31998 4.008 7.19998L4 16.8C4 17.68 4.72 18.4 5.6 18.4H18.4C19.28 18.4 20 17.68 20 16.8V7.19998C20 6.31998 19.28 5.59998 18.4 5.59998ZM18.08 8.99998L12.424 12.536C12.168 12.696 11.832 12.696 11.576 12.536L5.92 8.99998C5.72 8.87198 5.6 8.65598 5.6 8.42398C5.6 7.88798 6.184 7.56798 6.64 7.84798L12 11.2L17.36 7.84798C17.816 7.56798 18.4 7.88798 18.4 8.42398C18.4 8.65598 18.28 8.87198 18.08 8.99998Z" fill="#808080"/>
</svg>
