<svg width="24" height="24" viewBox="0 0 24 24" fill="none" xmlns="http://www.w3.org/2000/svg">
<path fill-rule="evenodd" clip-rule="evenodd" d="M16.8001 9.6H16.0001V8C16.0001 5.792 14.2081 4 12.0001 4C9.7921 4 8.0001 5.792 8.0001 8V9.6H7.2001C6.3201 9.6 5.6001 10.32 5.6001 11.2V19.2C5.6001 20.08 6.3201 20.8 7.2001 20.8H16.8001C17.6801 20.8 18.4001 20.08 18.4001 19.2V11.2C18.4001 10.32 17.6801 9.6 16.8001 9.6ZM9.5201 8C9.5201 6.632 10.6321 5.52 12.0001 5.52C13.3681 5.52 14.4801 6.632 14.4801 8V9.6H9.5201V8ZM14.4001 16H12.8001V17.6C12.8001 18.04 12.4401 18.4 12.0001 18.4C11.5601 18.4 11.2001 18.04 11.2001 17.6V16H9.6001C9.1601 16 8.8001 15.64 8.8001 15.2C8.8001 14.76 9.1601 14.4 9.6001 14.4H11.2001V12.8C11.2001 12.36 11.5601 12 12.0001 12C12.4401 12 12.8001 12.36 12.8001 12.8V14.4H14.4001C14.8401 14.4 15.2001 14.76 15.2001 15.2C15.2001 15.64 14.8401 16 14.4001 16Z" fill="#808080"/>
</svg>
