<svg width="24" height="24" viewBox="0 0 24 24" fill="none" xmlns="http://www.w3.org/2000/svg">
<path fill-rule="evenodd" clip-rule="evenodd" d="M8.0381 13.995V15.3828H3.40112V8.61721H8.0381V10.005H5.12182V11.3506H7.86462V12.6165H5.12182V13.995H8.0381ZM9.00862 8.61721H11.939C13.3924 8.61721 14.377 9.55961 14.377 11.0131C14.377 12.4571 13.3408 13.3995 11.8358 13.3995H10.7293V15.3828H9.00862V8.61721ZM10.7293 9.9347V12.1055H11.4748C12.2062 12.1055 12.6376 11.7257 12.6376 11.0177C12.6376 10.3145 12.2062 9.9347 11.4842 9.9347H10.7293ZM14.9209 13.3902H16.5197C16.5994 13.8731 17.1198 14.1544 17.7809 14.1544C18.4514 14.1544 18.8874 13.8543 18.8874 13.4417C18.8874 13.0666 18.5967 12.8744 17.795 12.7197L17.1011 12.5884C15.7508 12.3352 15.0522 11.6741 15.0522 10.6427C15.0522 9.33925 16.1821 8.5 17.7387 8.5C19.4406 8.5 20.444 9.33456 20.4627 10.6239H18.8639C18.8358 10.1363 18.3763 9.84561 17.7528 9.84561C17.1292 9.84561 16.7588 10.1269 16.7588 10.5255C16.7588 10.8818 17.0682 11.0787 17.8043 11.2194L18.4982 11.3506C19.9423 11.6273 20.5987 12.2133 20.5987 13.2776C20.5987 14.6373 19.5344 15.5 17.7481 15.5C16.0602 15.5 14.9443 14.7217 14.9209 13.3902Z" fill="#808080"/>
</svg>
