<svg width="24" height="24" viewBox="0 0 24 24" fill="none" xmlns="http://www.w3.org/2000/svg">
<path fill-rule="evenodd" clip-rule="evenodd" d="M12 18.4C12.88 18.4 13.6 17.68 13.6 16.8V7.20001C13.6 6.32001 12.88 5.60001 12 5.60001C11.12 5.60001 10.4 6.32001 10.4 7.20001V16.8C10.4 17.68 11.12 18.4 12 18.4ZM7.19998 18.4C8.07998 18.4 8.79998 17.68 8.79998 16.8V13.6C8.79998 12.72 8.07998 12 7.19998 12C6.31998 12 5.59998 12.72 5.59998 13.6V16.8C5.59998 17.68 6.31998 18.4 7.19998 18.4ZM15.2 11.2V16.8C15.2 17.68 15.92 18.4 16.8 18.4C17.68 18.4 18.4 17.68 18.4 16.8V11.2C18.4 10.32 17.68 9.60001 16.8 9.60001C15.92 9.60001 15.2 10.32 15.2 11.2Z" fill="#808080"/>
</svg>
