<svg width="24" height="24" viewBox="0 0 24 24" fill="none" xmlns="http://www.w3.org/2000/svg">
<path fill-rule="evenodd" clip-rule="evenodd" d="M12 8C12.44 8 12.8 8.36 12.8 8.8V12C12.8 12.44 12.44 12.8 12 12.8C11.56 12.8 11.2 12.44 11.2 12V8.8C11.2 8.36 11.56 8 12 8ZM11.992 4C7.576 4 4 7.584 4 12C4 16.416 7.576 20 11.992 20C16.416 20 20 16.416 20 12C20 7.584 16.416 4 11.992 4ZM12 18.4C8.464 18.4 5.6 15.536 5.6 12C5.6 8.464 8.464 5.6 12 5.6C15.536 5.6 18.4 8.464 18.4 12C18.4 15.536 15.536 18.4 12 18.4ZM12.8 16H11.2V14.4H12.8V16Z" fill="#808080"/>
</svg>
