<svg width="24" height="24" viewBox="0 0 24 24" fill="none" xmlns="http://www.w3.org/2000/svg">
<path fill-rule="evenodd" clip-rule="evenodd" d="M14.4 17.2C12.392 17.2 10.656 16.064 9.79199 14.4H13.6C14.04 14.4 14.4 14.04 14.4 13.6C14.4 13.16 14.04 12.8 13.6 12.8H9.26399C9.22399 12.536 9.19999 12.272 9.19999 12C9.19999 11.728 9.22399 11.464 9.26399 11.2H13.6C14.04 11.2 14.4 10.84 14.4 10.4C14.4 9.95999 14.04 9.59999 13.6 9.59999H9.79199C10.656 7.93599 12.4 6.79999 14.4 6.79999C15.4 6.79999 16.336 7.08799 17.136 7.57599C17.536 7.82399 18.056 7.78399 18.392 7.44799C18.856 6.98399 18.752 6.22399 18.192 5.87999C17.088 5.19999 15.784 4.79999 14.4 4.79999C11.264 4.79999 8.60799 6.80799 7.61599 9.59999H5.59999C5.15999 9.59999 4.79999 9.95999 4.79999 10.4C4.79999 10.84 5.15999 11.2 5.59999 11.2H7.24799C7.21599 11.464 7.19999 11.728 7.19999 12C7.19999 12.272 7.21599 12.536 7.24799 12.8H5.59999C5.15999 12.8 4.79999 13.16 4.79999 13.6C4.79999 14.04 5.15999 14.4 5.59999 14.4H7.61599C8.60799 17.192 11.264 19.2 14.4 19.2C15.792 19.2 17.088 18.808 18.192 18.12C18.744 17.776 18.848 17.008 18.384 16.544C18.048 16.208 17.528 16.168 17.128 16.424C16.336 16.92 15.408 17.2 14.4 17.2Z" fill="#808080"/>
</svg>
