<svg width="24" height="24" viewBox="0 0 24 24" fill="none" xmlns="http://www.w3.org/2000/svg">
<path fill-rule="evenodd" clip-rule="evenodd" d="M15.2 11.624C14.968 11.392 14.584 11.392 14.352 11.624L10.872 15.104L9.60005 13.832C9.36805 13.6 8.98405 13.6 8.75205 13.832C8.52005 14.064 8.52005 14.448 8.75205 14.68L10.304 16.232C10.616 16.544 11.12 16.544 11.432 16.232L15.192 12.472C15.432 12.24 15.432 11.856 15.2 11.624ZM17.6 5.6H16.8V4.8C16.8 4.36 16.44 4 16 4C15.56 4 15.2 4.36 15.2 4.8V5.6H8.80005V4.8C8.80005 4.36 8.44005 4 8.00005 4C7.56005 4 7.20005 4.36 7.20005 4.8V5.6H6.40005C5.51205 5.6 4.80805 6.32 4.80805 7.2L4.80005 18.4C4.80005 19.28 5.51205 20 6.40005 20H17.6C18.48 20 19.2 19.28 19.2 18.4V7.2C19.2 6.32 18.48 5.6 17.6 5.6ZM16.8 18.4H7.20005C6.76005 18.4 6.40005 18.04 6.40005 17.6V9.6H17.6V17.6C17.6 18.04 17.24 18.4 16.8 18.4Z" fill="#808080"/>
</svg>
