<svg width="24" height="24" viewBox="0 0 24 24" fill="none" xmlns="http://www.w3.org/2000/svg">
<path fill-rule="evenodd" clip-rule="evenodd" d="M6.8 19.2C7.464 19.2 8 18.664 8 18V16.8H16V18C16 18.664 16.536 19.2 17.2 19.2C17.864 19.2 18.4 18.664 18.4 18V16C18.4 15.12 17.68 14.4 16.8 14.4H7.2C6.32 14.4 5.6 15.12 5.6 16V18C5.6 18.664 6.136 19.2 6.8 19.2ZM18.4 10.4H19.2C19.64 10.4 20 10.76 20 11.2V12C20 12.44 19.64 12.8 19.2 12.8H18.4C17.96 12.8 17.6 12.44 17.6 12V11.2C17.6 10.76 17.96 10.4 18.4 10.4ZM4.8 10.4H5.6C6.04 10.4 6.4 10.76 6.4 11.2V12C6.4 12.44 6.04 12.8 5.6 12.8H4.8C4.36 12.8 4 12.44 4 12V11.2C4 10.76 4.36 10.4 4.8 10.4ZM16 12.8H8V6.39999C8 5.51999 8.72 4.79999 9.6 4.79999H14.4C15.28 4.79999 16 5.51999 16 6.39999V12.8Z" fill="#808080"/>
</svg>
