<svg width="24" height="24" viewBox="0 0 24 24" fill="none" xmlns="http://www.w3.org/2000/svg">
<path fill-rule="evenodd" clip-rule="evenodd" d="M10.272 16.376L11.8 14.848L13.328 16.376C13.56 16.608 13.944 16.608 14.176 16.376C14.408 16.144 14.408 15.76 14.176 15.528L12.648 14L14.176 12.472C14.408 12.24 14.408 11.856 14.176 11.624C13.944 11.392 13.56 11.392 13.328 11.624L11.8 13.152L10.272 11.624C10.04 11.392 9.65605 11.392 9.42405 11.624C9.19205 11.856 9.19205 12.24 9.42405 12.472L10.952 14L9.42405 15.528C9.19205 15.76 9.19205 16.144 9.42405 16.376C9.65605 16.608 10.04 16.608 10.272 16.376ZM17.6 5.6H16.8V4.8C16.8 4.36 16.44 4 16 4C15.56 4 15.2 4.36 15.2 4.8V5.6H8.80005V4.8C8.80005 4.36 8.44005 4 8.00005 4C7.56005 4 7.20005 4.36 7.20005 4.8V5.6H6.40005C5.51205 5.6 4.80805 6.32 4.80805 7.2L4.80005 18.4C4.80005 19.28 5.51205 20 6.40005 20H17.6C18.48 20 19.2 19.28 19.2 18.4V7.2C19.2 6.32 18.48 5.6 17.6 5.6ZM16.8 18.4H7.20005C6.76005 18.4 6.40005 18.04 6.40005 17.6V9.6H17.6V17.6C17.6 18.04 17.24 18.4 16.8 18.4Z" fill="#808080"/>
</svg>
