<svg width="24" height="24" viewBox="0 0 24 24" fill="none" xmlns="http://www.w3.org/2000/svg">
<path fill-rule="evenodd" clip-rule="evenodd" d="M11.032 15.432C11.344 15.744 11.848 15.744 12.16 15.432L15.032 12.56C15.344 12.248 15.344 11.744 15.032 11.432L12.16 8.55999C12.0105 8.41019 11.8076 8.326 11.596 8.326C11.3844 8.326 11.1815 8.41019 11.032 8.55999C10.72 8.87199 10.72 9.37599 11.032 9.68799L12.536 11.2H5.6C5.16 11.2 4.8 11.56 4.8 12C4.8 12.44 5.16 12.8 5.6 12.8H12.536L11.032 14.304C10.72 14.616 10.728 15.128 11.032 15.432ZM17.6 4.79999H6.4C5.512 4.79999 4.8 5.51999 4.8 6.39999V8.79999C4.8 9.23999 5.16 9.59999 5.6 9.59999C6.04 9.59999 6.4 9.23999 6.4 8.79999V7.19999C6.4 6.75999 6.76 6.39999 7.2 6.39999H16.8C17.24 6.39999 17.6 6.75999 17.6 7.19999V16.8C17.6 17.24 17.24 17.6 16.8 17.6H7.2C6.76 17.6 6.4 17.24 6.4 16.8V15.2C6.4 14.76 6.04 14.4 5.6 14.4C5.16 14.4 4.8 14.76 4.8 15.2V17.6C4.8 18.48 5.52 19.2 6.4 19.2H17.6C18.48 19.2 19.2 18.48 19.2 17.6V6.39999C19.2 5.51999 18.48 4.79999 17.6 4.79999Z" fill="#808080"/>
</svg>
