<svg width="24" height="24" viewBox="0 0 24 24" fill="none" xmlns="http://www.w3.org/2000/svg">
<path fill-rule="evenodd" clip-rule="evenodd" d="M16.8011 7.2L14.4731 12.208L18.6731 16.408C19.5131 15.144 20.0011 13.632 20.0011 12C20.0011 7.584 16.4171 4 12.0011 4C10.3691 4 8.85712 4.488 7.59312 5.328L11.7931 9.528L16.8011 7.2ZM4.64912 6.912L5.32912 7.592C4.23312 9.248 3.72912 11.336 4.14512 13.552C4.74512 16.712 7.28112 19.256 10.4491 19.856C12.6651 20.272 14.7531 19.776 16.4091 18.672L17.0891 19.352C17.4011 19.664 17.9051 19.664 18.2171 19.352C18.5291 19.04 18.5291 18.536 18.2171 18.224L5.77712 5.776C5.62765 5.6262 5.42473 5.54201 5.21312 5.54201C5.0015 5.54201 4.79858 5.6262 4.64912 5.776C4.33712 6.088 4.33712 6.6 4.64912 6.912ZM9.52912 11.792L12.2091 14.472L7.20112 16.8L9.52912 11.792Z" fill="#808080"/>
</svg>
