<svg width="24" height="24" viewBox="0 0 24 24" fill="none" xmlns="http://www.w3.org/2000/svg">
<path fill-rule="evenodd" clip-rule="evenodd" d="M17.6 4.79999H6.39999C5.51999 4.79999 4.79999 5.51999 4.79999 6.39999V17.6C4.79999 18.48 5.51999 19.2 6.39999 19.2H17.6C18.48 19.2 19.2 18.48 19.2 17.6V6.39999C19.2 5.51999 18.48 4.79999 17.6 4.79999ZM13.6 9.59999H11.2V11.2H13.6C14.04 11.2 14.4 11.56 14.4 12C14.4 12.44 14.04 12.8 13.6 12.8H11.2V14.4H13.6C14.04 14.4 14.4 14.76 14.4 15.2C14.4 15.64 14.04 16 13.6 16H10.4C9.95999 16 9.59999 15.64 9.59999 15.2V8.79999C9.59999 8.35999 9.95999 7.99999 10.4 7.99999H13.6C14.04 7.99999 14.4 8.35999 14.4 8.79999C14.4 9.23999 14.04 9.59999 13.6 9.59999Z" fill="#808080"/>
</svg>
