<svg width="24" height="24" viewBox="0 0 24 24" fill="none" xmlns="http://www.w3.org/2000/svg">
<path fill-rule="evenodd" clip-rule="evenodd" d="M15.24 16.232L17.528 13.776C17.832 13.464 18.104 13.144 18.36 12.832C18.616 12.52 18.832 12.208 19.016 11.896C19.2 11.584 19.344 11.272 19.448 10.96C19.552 10.648 19.6 10.328 19.6 10.016C19.6 9.59201 19.528 9.20001 19.384 8.84801C19.24 8.49601 19.032 8.20001 18.76 7.96001C18.488 7.71201 18.144 7.52801 17.752 7.39201C17.344 7.26401 16.888 7.20001 16.376 7.20001C15.824 7.20001 15.328 7.28801 14.896 7.45601C14.464 7.62401 14.096 7.86401 13.808 8.16001C13.512 8.45601 13.288 8.80001 13.136 9.20001C12.992 9.57601 12.92 9.97601 12.912 10.4H14.624C14.632 10.152 14.664 9.92001 14.728 9.70401C14.8 9.47201 14.912 9.27201 15.048 9.10401C15.192 8.93601 15.376 8.80801 15.592 8.71201C15.808 8.61601 16.072 8.56801 16.36 8.56801C16.608 8.56801 16.824 8.60801 17.008 8.68801C17.192 8.76801 17.352 8.88801 17.48 9.03201C17.608 9.17601 17.704 9.35201 17.776 9.55201C17.84 9.75201 17.88 9.96801 17.88 10.2C17.88 10.376 17.856 10.544 17.816 10.72C17.768 10.896 17.696 11.08 17.584 11.28C17.472 11.48 17.328 11.704 17.136 11.944C16.952 12.184 16.72 12.464 16.432 12.768L13.096 16.408V17.6H20V16.232H15.24ZM4.80005 12.8C4.80005 13.24 5.16005 13.6 5.60005 13.6H10.4C10.84 13.6 11.2 13.24 11.2 12.8C11.2 12.36 10.84 12 10.4 12H5.60005C5.16005 12 4.80005 12.36 4.80005 12.8Z" fill="#808080"/>
</svg>
