<svg width="24" height="24" viewBox="0 0 24 24" fill="none" xmlns="http://www.w3.org/2000/svg">
<path fill-rule="evenodd" clip-rule="evenodd" d="M15.424 13.2C15.424 14 15.344 14.68 15.184 15.24C15.024 15.8 14.8 16.256 14.52 16.6C14.232 16.952 13.888 17.2 13.48 17.36C13.072 17.52 12.624 17.6 12.12 17.6C11.624 17.6 11.176 17.52 10.768 17.36C10.36 17.2 10.008 16.952 9.72005 16.6C9.43205 16.248 9.20005 15.792 9.04005 15.24C8.88005 14.68 8.80005 14 8.80005 13.2V11.568C8.80005 10.768 8.88005 10.088 9.04005 9.52801C9.20005 8.96801 9.42405 8.52001 9.71205 8.17601C10 7.83201 10.352 7.58401 10.76 7.43201C11.16 7.28001 11.616 7.20001 12.112 7.20001C12.616 7.20001 13.064 7.28001 13.472 7.43201C13.88 7.58401 14.232 7.83201 14.52 8.17601C14.808 8.52001 15.032 8.96801 15.192 9.52801C15.352 10.088 15.432 10.76 15.432 11.568V13.2H15.424ZM13.736 11.312C13.736 10.8 13.696 10.368 13.632 10.016C13.56 9.66401 13.456 9.38401 13.312 9.16801C13.176 8.95201 13 8.80001 12.8 8.70401C12.6 8.60001 12.368 8.55201 12.112 8.55201C11.856 8.55201 11.624 8.60001 11.424 8.69601C11.224 8.79201 11.048 8.94401 10.912 9.16001C10.776 9.37601 10.664 9.65601 10.592 10.008C10.52 10.36 10.488 10.792 10.488 11.304V13.44C10.488 13.952 10.528 14.384 10.6 14.736C10.672 15.096 10.784 15.384 10.92 15.608C11.056 15.832 11.232 15.992 11.432 16.096C11.632 16.2 11.864 16.248 12.128 16.248C12.392 16.248 12.624 16.2 12.824 16.096C13.024 15.992 13.192 15.832 13.328 15.608C13.464 15.384 13.568 15.096 13.64 14.736C13.712 14.376 13.744 13.944 13.744 13.44V11.312H13.736Z" fill="#808080"/>
</svg>
