<svg width="24" height="24" viewBox="0 0 24 24" fill="none" xmlns="http://www.w3.org/2000/svg">
<path fill-rule="evenodd" clip-rule="evenodd" d="M9.6001 8.80001C9.1601 8.80001 8.8001 9.16001 8.8001 9.60001V12H6.4001C5.9601 12 5.6001 12.36 5.6001 12.8C5.6001 13.24 5.9601 13.6 6.4001 13.6H8.8001V16C8.8001 16.44 9.1601 16.8 9.6001 16.8C10.0401 16.8 10.4001 16.44 10.4001 16V13.6H12.8001C13.2401 13.6 13.6001 13.24 13.6001 12.8C13.6001 12.36 13.2401 12 12.8001 12H10.4001V9.60001C10.4001 9.16001 10.0401 8.80001 9.6001 8.80001ZM18.4001 17.6H16.8001V9.10401L14.4001 9.92001V8.56001L18.1601 7.20001H18.4001V17.6Z" fill="#808080"/>
</svg>
