<svg width="24" height="24" viewBox="0 0 24 24" fill="none" xmlns="http://www.w3.org/2000/svg">
<path fill-rule="evenodd" clip-rule="evenodd" d="M17.6 4.79999H6.40005C5.52005 4.79999 4.80005 5.51999 4.80005 6.39999V17.6C4.80005 18.48 5.52005 19.2 6.40005 19.2H17.6C18.48 19.2 19.2 18.48 19.2 17.6V6.39999C19.2 5.51999 18.48 4.79999 17.6 4.79999ZM7.80005 7.99999H10.6C10.928 7.99999 11.2 8.27199 11.2 8.59999C11.2 8.92799 10.928 9.19999 10.6 9.19999H7.80005C7.47205 9.19999 7.20005 8.92799 7.20005 8.59999C7.20005 8.27199 7.47205 7.99999 7.80005 7.99999ZM16.8 17.6H6.40005L17.6 6.39999V16.8C17.6 17.24 17.24 17.6 16.8 17.6ZM14 15.2V16.2C14 16.528 14.272 16.8 14.6 16.8C14.928 16.8 15.2 16.528 15.2 16.2V15.2H16.2C16.528 15.2 16.8 14.928 16.8 14.6C16.8 14.272 16.528 14 16.2 14H15.2V13C15.2 12.672 14.928 12.4 14.6 12.4C14.272 12.4 14 12.672 14 13V14H13C12.672 14 12.4 14.272 12.4 14.6C12.4 14.928 12.672 15.2 13 15.2H14Z" fill="#808080"/>
</svg>
