<svg width="24" height="24" viewBox="0 0 24 24" fill="none" xmlns="http://www.w3.org/2000/svg">
<path fill-rule="evenodd" clip-rule="evenodd" d="M10.6 12.8C10.6 13.352 10.152 13.8 9.6 13.8C9.048 13.8 8.6 13.352 8.6 12.8C8.6 12.248 9.048 11.8 9.6 11.8C10.152 11.8 10.6 12.248 10.6 12.8ZM14.4 11.8C13.848 11.8 13.4 12.248 13.4 12.8C13.4 13.352 13.848 13.8 14.4 13.8C14.952 13.8 15.4 13.352 15.4 12.8C15.4 12.248 14.952 11.8 14.4 11.8ZM20 12C20 16.416 16.416 20 12 20C7.584 20 4 16.416 4 12C4 7.584 7.584 4 12 4C16.416 4 20 7.584 20 12ZM10.928 5.696C12.048 7.552 14.08 8.8 16.4 8.8C16.768 8.8 17.128 8.76 17.472 8.704C16.352 6.848 14.32 5.6 12 5.6C11.632 5.6 11.272 5.64 10.928 5.696ZM5.936 9.976C7.304 9.2 8.36 7.936 8.864 6.424C7.496 7.2 6.44 8.464 5.936 9.976ZM18.4 12C18.4 11.376 18.304 10.776 18.136 10.208C17.576 10.328 17 10.4 16.4 10.4C13.896 10.4 11.664 9.248 10.192 7.448C9.352 9.496 7.68 11.104 5.6 11.888C5.608 11.92 5.6 11.96 5.6 12C5.6 15.528 8.472 18.4 12 18.4C15.528 18.4 18.4 15.528 18.4 12Z" fill="#808080"/>
</svg>
