<svg width="24" height="24" viewBox="0 0 24 24" fill="none" xmlns="http://www.w3.org/2000/svg">
<path fill-rule="evenodd" clip-rule="evenodd" d="M3.19995 20.8C3.19995 20.8 3.19995 18 5.19995 16.8C7.19995 15.6 9.59995 15.2 11.2 14.4C12.8 13.6 13.6 12 12.8 11.2C12 10.4 10.4 10.8 9.99995 11.2C9.59995 11.6 9.19995 12.8 8.39995 12.8C7.59995 12.8 7.19995 11.6 7.19995 11.6H8.39995L7.99995 11.2L9.19995 10.8V9.99995H9.99995L8.79995 9.59995V10.4L7.99995 9.99995V10.4H7.19995L7.59995 10.8C7.59995 10.8 6.39995 11.2 5.99995 10.8C5.59995 10.4 5.59995 9.59995 6.39995 9.19995C7.19995 8.79995 8.79995 7.99995 9.19995 7.19995C9.59995 6.39995 9.59995 6.79995 10.8 5.99995C12 5.19995 12.8 3.19995 12.8 3.19995L13.6 5.59995C13.6 5.59995 14.8 6.79995 16.8 6.39995C18.8 5.99995 21.2 4.39995 21.2 4.39995C21.2 4.39995 20.4 6.79995 19.2 7.19995C18 7.59995 16.8 7.59995 16.8 7.59995C16.8 7.59995 17.6 7.99995 18 8.39995C18.4 8.79995 20.8 7.99995 20.8 7.99995C20.8 7.99995 18.8 9.99995 17.6 9.19995C16.4 8.39995 16.4 8.79995 16.4 8.79995C16.4 8.79995 18 9.59995 18.4 10.8C18.8 12 18.4 13.2 18.4 13.2C18.4 13.2 18 11.2 17.2 10.8C16.4 10.4 17.6 14.4 17.6 15.6C17.6 16.8 16 19.2 16 19.2C16 19.2 16.4 17.2 16.4 16.8C16.4 16.4 16.4 15.6 16.4 15.6C16.4 15.6 16 18.4 15.2 19.2C14.4 20 14 20.4 14 20.4C14 20.4 14.4 20 14.4 19.2C14.4 18.4 14 18 14 18C14 18 13.2 20 11.2 20C9.19995 20 7.99995 19.6 5.99995 20C3.99995 20.4 3.19995 20.8 3.19995 20.8Z" fill="#808080"/>
</svg>
