<svg width="24" height="24" viewBox="0 0 24 24" fill="none" xmlns="http://www.w3.org/2000/svg">
<path fill-rule="evenodd" clip-rule="evenodd" d="M19.92 6.39995H16.8V3.99995C16.8 3.55995 16.44 3.19995 16 3.19995C15.56 3.19995 15.2 3.55995 15.2 3.99995V6.39995H12.08C11.608 6.39995 11.24 6.80795 11.28 7.27995L11.376 8.24795C14.32 8.92795 16.8 11.016 16.8 14.4L16.816 20.8H18.176C18.848 20.8 19.4 20.28 19.4799 19.624L20.712 7.27995C20.76 6.80795 20.392 6.39995 19.92 6.39995ZM14.4 19.2H3.99995C3.55995 19.2 3.19995 19.56 3.19995 20C3.19995 20.44 3.55995 20.8 3.99995 20.8H14.4C14.84 20.8 15.2 20.44 15.2 20C15.2 19.56 14.84 19.2 14.4 19.2ZM4.07995 14.4H14.32C14.816 14.4 15.208 13.952 15.112 13.472C14.592 10.888 11.896 9.59195 9.19995 9.59195C6.50395 9.59195 3.81595 10.888 3.28795 13.472C3.19195 13.952 3.59195 14.4 4.07995 14.4ZM14.4 16H3.99995C3.55995 16 3.19995 16.36 3.19995 16.8C3.19995 17.24 3.55995 17.6 3.99995 17.6H14.4C14.84 17.6 15.2 17.24 15.2 16.8C15.2 16.36 14.84 16 14.4 16Z" fill="#808080"/>
</svg>
