<svg width="24" height="24" viewBox="0 0 24 24" fill="none" xmlns="http://www.w3.org/2000/svg">
<path fill-rule="evenodd" clip-rule="evenodd" d="M18.1313 6.3925C16.0193 4.9525 13.4113 5.6245 12.0033 7.2725C10.5953 5.6245 7.9873 4.9445 5.8753 6.3925C4.7553 7.1605 4.0513 8.4565 4.0033 9.8245C3.8913 12.9285 6.6433 15.4165 10.8433 19.2325L10.9233 19.3045C11.5313 19.8565 12.4673 19.8565 13.0753 19.2965L13.1633 19.2165C17.3633 15.4085 20.1073 12.9205 20.0033 9.8165C19.9553 8.4565 19.2513 7.1605 18.1313 6.3925ZM12.0833 18.0405L12.0033 18.1205L11.9233 18.0405C8.1153 14.5925 5.6033 12.3125 5.6033 10.0005C5.6033 8.4005 6.8033 7.2005 8.4033 7.2005C9.6353 7.2005 10.8353 7.9925 11.2593 9.0885H12.7553C13.1713 7.9925 14.3713 7.2005 15.6033 7.2005C17.2033 7.2005 18.4033 8.4005 18.4033 10.0005C18.4033 12.3125 15.8913 14.5925 12.0833 18.0405Z" fill="#808080"/>
</svg>
