<svg width="24" height="24" viewBox="0 0 24 24" fill="none" xmlns="http://www.w3.org/2000/svg">
<path fill-rule="evenodd" clip-rule="evenodd" d="M19.2 4.79999H4.80001C3.92001 4.79999 3.20001 5.51999 3.20001 6.39999V17.6C3.20001 18.48 3.92001 19.2 4.80001 19.2H19.2C20.08 19.2 20.8 18.48 20.8 17.6V6.39999C20.8 5.51999 20.08 4.79999 19.2 4.79999ZM11.2 11.2H5.60001C5.16001 11.2 4.80001 10.84 4.80001 10.4C4.80001 9.95999 5.16001 9.59999 5.60001 9.59999H11.2C11.64 9.59999 12 9.95999 12 10.4C12 10.84 11.64 11.2 11.2 11.2ZM11.2 7.99999H5.60001C5.16001 7.99999 4.80001 7.63999 4.80001 7.19999C4.80001 6.75999 5.16001 6.39999 5.60001 6.39999H11.2C11.64 6.39999 12 6.75999 12 7.19999C12 7.63999 11.64 7.99999 11.2 7.99999Z" fill="#808080"/>
</svg>
