<svg width="24" height="24" viewBox="0 0 24 24" fill="none" xmlns="http://www.w3.org/2000/svg">
<path fill-rule="evenodd" clip-rule="evenodd" d="M18.4 5.60001H5.6C4.712 5.60001 4.008 6.31201 4.008 7.20001L4 16.8C4 17.688 4.712 18.4 5.6 18.4H18.4C19.288 18.4 20 17.688 20 16.8V7.20001C20 6.31201 19.288 5.60001 18.4 5.60001ZM9.6 11.6C9.6 12.264 9.064 12.8 8.4 12.8H6.8V13.8C6.8 14.128 6.528 14.4 6.2 14.4C5.872 14.4 5.6 14.128 5.6 13.8V10.4C5.6 9.96001 5.96 9.60001 6.4 9.60001H8.4C9.064 9.60001 9.6 10.136 9.6 10.8V11.6ZM12.4 13.8C12.4 14.128 12.128 14.4 11.8 14.4C11.472 14.4 11.2 14.128 11.2 13.8V10.2C11.2 9.87201 11.472 9.60001 11.8 9.60001C12.128 9.60001 12.4 9.87201 12.4 10.2V13.8ZM18.4 13.768C18.4 14.12 18.12 14.4 17.768 14.4C17.568 14.4 17.376 14.304 17.256 14.136L15.408 11.6V13.904C15.408 14.176 15.184 14.4 14.912 14.4H14.904C14.624 14.4 14.4 14.176 14.4 13.904V10.264C14.4 9.89601 14.696 9.60001 15.064 9.60001C15.28 9.60001 15.48 9.70401 15.6 9.88001L17.4 12.4V10.096C17.4 9.82401 17.624 9.60001 17.896 9.60001H17.904C18.176 9.60001 18.4 9.82401 18.4 10.096V13.768ZM6.8 10.8H8.4V11.6H6.8V10.8Z" fill="#808080"/>
</svg>
