<svg width="24" height="24" viewBox="0 0 24 24" fill="none" xmlns="http://www.w3.org/2000/svg">
<path fill-rule="evenodd" clip-rule="evenodd" d="M18.4 5.60001H5.6C4.712 5.60001 4.008 6.31201 4.008 7.20001L4 16.8C4 17.688 4.712 18.4 5.6 18.4H18.4C19.288 18.4 20 17.688 20 16.8V7.20001C20 6.31201 19.288 5.60001 18.4 5.60001ZM9.2 13.768C9.2 14.112 8.912 14.4 8.568 14.4C8.368 14.4 8.176 14.304 8.056 14.136L6.2 11.6V13.904C6.2 14.184 5.976 14.4 5.704 14.4C5.432 14.4 5.2 14.176 5.2 13.904V10.232C5.2 9.88801 5.488 9.60001 5.832 9.60001H5.872C6.08 9.60001 6.272 9.69601 6.392 9.86401L8.2 12.4V10.096C8.2 9.82401 8.424 9.60001 8.704 9.60001C8.984 9.60001 9.2 9.82401 9.2 10.096V13.768ZM13.2 10.112C13.2 10.392 12.976 10.608 12.704 10.608H11.2V11.504H12.704C12.984 11.504 13.2 11.728 13.2 12V12.008C13.2 12.288 12.976 12.504 12.704 12.504H11.2V13.392H12.704C12.984 13.392 13.2 13.616 13.2 13.888C13.2 14.168 12.976 14.384 12.704 14.384H10.68C10.304 14.384 10 14.08 10 13.704V10.264C10 9.90401 10.304 9.60001 10.68 9.60001H12.704C12.984 9.60001 13.2 9.82401 13.2 10.096V10.112ZM18.8 13.6C18.8 14.04 18.44 14.4 18 14.4H14.8C14.36 14.4 14 14.04 14 13.6V10.096C14 9.82401 14.224 9.60001 14.496 9.60001C14.768 9.60001 14.992 9.82401 14.992 10.096V13.208H15.896V10.888C15.896 10.608 16.12 10.392 16.392 10.392C16.664 10.392 16.888 10.616 16.888 10.888V13.2H17.784V10.096C17.784 9.81601 18.008 9.60001 18.28 9.60001C18.552 9.60001 18.776 9.82401 18.776 10.096V13.6H18.8Z" fill="#808080"/>
</svg>
