<svg width="24" height="24" viewBox="0 0 24 24" fill="none" xmlns="http://www.w3.org/2000/svg">
<path fill-rule="evenodd" clip-rule="evenodd" d="M6.00001 10.8H7.60001V13.2H6.00001V10.8ZM16.4 10.8H18V11.6H16.4V10.8ZM19.2 4.79999H4.80001C3.91201 4.79999 3.20001 5.51199 3.20001 6.39999V17.6C3.20001 18.48 3.91201 19.2 4.80001 19.2H19.2C20.088 19.2 20.8 18.48 20.8 17.6V6.39999C20.8 5.51199 20.088 4.79999 19.2 4.79999ZM8.80001 13.2C8.80001 13.864 8.26401 14.4 7.60001 14.4H5.20001C4.97601 14.4 4.80001 14.224 4.80001 14V9.99999C4.80001 9.77599 4.97601 9.59999 5.20001 9.59999H7.60001C8.26401 9.59999 8.80001 10.136 8.80001 10.8V13.2ZM13.68 10.336L12.664 13.824C12.568 14.168 12.248 14.4 11.896 14.4C11.544 14.4 11.224 14.168 11.128 13.824L10.112 10.336C10 9.96799 10.28 9.59999 10.664 9.59999C10.92 9.59999 11.144 9.76799 11.216 10.016L11.896 12.344L12.576 10.016C12.648 9.76799 12.872 9.59999 13.128 9.59999C13.512 9.59999 13.792 9.96799 13.68 10.336ZM19.2 11.6C19.2 12.08 18.88 12.52 18.48 12.72L18.984 13.904C19.136 14.264 18.872 14.672 18.48 14.672C18.256 14.672 18.056 14.544 17.976 14.336L17.32 12.8H16.4V13.848C16.4 14.152 16.152 14.4 15.848 14.4H15.752C15.448 14.4 15.2 14.152 15.2 13.848V10.112C15.2 9.83199 15.432 9.59999 15.712 9.59999H18C18.664 9.59999 19.2 10.136 19.2 10.8V11.6Z" fill="#808080"/>
</svg>
