<svg width="24" height="24" viewBox="0 0 24 24" fill="none" xmlns="http://www.w3.org/2000/svg">
<path fill-rule="evenodd" clip-rule="evenodd" d="M9.59995 5.60001C6.06533 5.60001 3.19995 8.46538 3.19995 12C3.19995 15.5346 6.06533 18.4 9.59995 18.4C13.1346 18.4 16 15.5346 16 12C16 8.46538 13.1346 5.60001 9.59995 5.60001ZM16 6.84001V6.98401C16 7.28001 16.184 7.53601 16.456 7.66401C18.08 8.43201 19.2 10.088 19.2 12C19.2 13.912 18.08 15.568 16.456 16.336C16.184 16.464 16 16.712 16 17.008V17.152C16 17.696 16.568 18.04 17.056 17.808C19.264 16.808 20.8 14.584 20.8 12C20.8 9.41601 19.264 7.19201 17.056 6.18401C16.568 5.96001 16 6.29601 16 6.84001Z" fill="#808080"/>
</svg>
