<svg width="24" height="24" viewBox="0 0 24 24" fill="none" xmlns="http://www.w3.org/2000/svg">
<path fill-rule="evenodd" clip-rule="evenodd" d="M15.2 3.2H6.40005C5.52005 3.2 4.80005 3.92 4.80005 4.8V15.2C4.80005 15.64 5.16005 16 5.60005 16C6.04005 16 6.40005 15.64 6.40005 15.2V5.6C6.40005 5.16 6.76005 4.8 7.20005 4.8H15.2C15.64 4.8 16 4.44 16 4C16 3.56 15.64 3.2 15.2 3.2ZM15.672 6.872L19.536 10.736C19.832 11.032 20 11.44 20 11.864V19.2C20 20.08 19.28 20.8 18.4 20.8H9.59205C8.71205 20.8 8.00005 20.08 8.00005 19.2L8.00805 8C8.00805 7.12 8.72005 6.4 9.60005 6.4H14.536C14.96 6.4 15.368 6.568 15.672 6.872ZM15.2 12H18.8L14.4 7.6V11.2C14.4 11.64 14.76 12 15.2 12Z" fill="#808080"/>
</svg>
