<svg width="24" height="24" viewBox="0 0 24 24" fill="none" xmlns="http://www.w3.org/2000/svg">
<path fill-rule="evenodd" clip-rule="evenodd" d="M18.4 6.066H15.2L12.568 3.434C12.4185 3.2842 12.2156 3.20001 12.004 3.20001C11.7924 3.20001 11.5895 3.2842 11.44 3.434L8.8 6.066H5.6C4.72 6.066 4 6.786 4 7.666V18.866C4 19.746 4.72 20.466 5.6 20.466H18.4C19.28 20.466 20 19.746 20 18.866V7.666C20 6.786 19.28 6.066 18.4 6.066ZM17.6 18.866H6.4C5.96 18.866 5.6 18.506 5.6 18.066V8.466C5.6 8.026 5.96 7.666 6.4 7.666H9.216L12.032 4.866L14.816 7.666H17.6C18.04 7.666 18.4 8.026 18.4 8.466V18.066C18.4 18.506 18.04 18.866 17.6 18.866ZM16 9.266H8C7.56 9.266 7.2 9.626 7.2 10.066V16.466C7.2 16.906 7.56 17.266 8 17.266H16C16.44 17.266 16.8 16.906 16.8 16.466V10.066C16.8 9.626 16.44 9.266 16 9.266Z" fill="#808080"/>
</svg>
