<svg width="24" height="24" viewBox="0 0 24 24" fill="none" xmlns="http://www.w3.org/2000/svg">
<path fill-rule="evenodd" clip-rule="evenodd" d="M17.12 12.472C16.896 12.344 16.664 12.24 16.432 12.152C16.664 12.064 16.896 11.96 17.12 11.832C18.656 10.944 19.512 9.33601 19.52 7.68001C18.088 6.85601 16.264 6.79201 14.72 7.68001C14.496 7.80801 14.288 7.96001 14.096 8.11201C14.136 7.86401 14.16 7.60801 14.16 7.35201C14.16 5.57601 13.192 4.03201 11.76 3.20001C10.328 4.03201 9.36 5.57601 9.36 7.35201C9.36 7.60801 9.384 7.86401 9.424 8.11201C9.232 7.95201 9.024 7.80001 8.8 7.67201C7.264 6.78401 5.44 6.84801 4 7.67201C4 9.32801 4.856 10.936 6.4 11.824C6.624 11.952 6.856 12.056 7.088 12.144C6.856 12.232 6.624 12.336 6.4 12.464C4.864 13.352 4.008 14.96 4 16.616C5.432 17.44 7.256 17.504 8.8 16.616C9.024 16.488 9.232 16.336 9.424 16.184C9.384 16.44 9.36 16.696 9.36 16.952C9.36 18.728 10.328 20.272 11.76 21.104C13.192 20.272 14.16 18.728 14.16 16.952C14.16 16.696 14.136 16.44 14.096 16.192C14.288 16.352 14.496 16.496 14.72 16.624C16.256 17.512 18.08 17.448 19.52 16.624C19.512 14.968 18.656 13.36 17.12 12.472ZM11.76 15.352C9.992 15.352 8.56 13.92 8.56 12.152C8.56 10.384 9.992 8.95201 11.76 8.95201C13.528 8.95201 14.96 10.384 14.96 12.152C14.96 13.92 13.528 15.352 11.76 15.352Z" fill="#808080"/>
</svg>
