<svg width="24" height="24" viewBox="0 0 24 24" fill="none" xmlns="http://www.w3.org/2000/svg">
<path fill-rule="evenodd" clip-rule="evenodd" d="M3.99995 6.40001C3.55995 6.40001 3.19995 6.76001 3.19995 7.20001V19.2C3.19995 20.08 3.91995 20.8 4.79995 20.8H16.8C17.24 20.8 17.5999 20.44 17.5999 20C17.5999 19.56 17.24 19.2 16.8 19.2H5.59995C5.15995 19.2 4.79995 18.84 4.79995 18.4V7.20001C4.79995 6.76001 4.43995 6.40001 3.99995 6.40001ZM19.2 3.20001H7.99995C7.11995 3.20001 6.39995 3.92001 6.39995 4.80001V16C6.39995 16.88 7.11995 17.6 7.99995 17.6H19.2C20.08 17.6 20.7999 16.88 20.7999 16V4.80001C20.7999 3.92001 20.08 3.20001 19.2 3.20001ZM18.4 16H8.79995C8.35995 16 7.99995 15.64 7.99995 15.2V5.60001C7.99995 5.16001 8.35995 4.80001 8.79995 4.80001H18.4C18.84 4.80001 19.2 5.16001 19.2 5.60001V15.2C19.2 15.64 18.84 16 18.4 16ZM12.8 14.4H14.4C15.28 14.4 16 13.68 16 12.8V11.2C16 10.32 15.28 9.60001 14.4 9.60001H12.8V8.00001H15.2C15.64 8.00001 16 7.64001 16 7.20001C16 6.76001 15.64 6.40001 15.2 6.40001H12.8C11.92 6.40001 11.2 7.12001 11.2 8.00001V12.8C11.2 13.68 11.92 14.4 12.8 14.4ZM12.8 11.2H14.4V12.8H12.8V11.2Z" fill="#808080"/>
</svg>
