<svg width="24" height="24" viewBox="0 0 24 24" fill="none" xmlns="http://www.w3.org/2000/svg">
<path fill-rule="evenodd" clip-rule="evenodd" d="M11.0272 4.81123C11.0272 4.29923 10.5552 3.90723 10.0592 4.01923C9.16323 4.22723 8.31523 4.57923 7.56323 5.05923C7.13923 5.33123 7.07523 5.93923 7.43523 6.29923C7.69123 6.55523 8.09923 6.61923 8.40323 6.42723C9.01923 6.03523 9.69923 5.74723 10.4352 5.58723C10.7872 5.50723 11.0272 5.17923 11.0272 4.81123ZM16.0912 5.06723C15.3392 4.58723 14.4912 4.23523 13.5952 4.02723C13.0992 3.91523 12.6272 4.29923 12.6272 4.81123C12.6272 5.17123 12.8672 5.50723 13.2192 5.57923C13.9472 5.73923 14.6352 6.03523 15.2432 6.41923C15.5552 6.61123 15.9552 6.55523 16.2112 6.29123C16.5792 5.93923 16.5232 5.33923 16.0912 5.06723ZM18.8432 11.0272C19.3552 11.0272 19.7472 10.5552 19.6352 10.0592C19.4272 9.16323 19.0752 8.31523 18.5952 7.56323C18.3232 7.13923 17.7152 7.07523 17.3552 7.43523C17.0992 7.69123 17.0352 8.09923 17.2272 8.40323C17.6192 9.01923 17.9072 9.69923 18.0672 10.4272C18.1472 10.7872 18.4752 11.0272 18.8432 11.0272ZM6.30723 7.43523C5.93923 7.07523 5.33923 7.13123 5.06723 7.56323C4.58723 8.31523 4.23523 9.16323 4.02723 10.0592C3.91523 10.5552 4.29923 11.0272 4.81123 11.0272C5.17123 11.0272 5.50723 10.7872 5.57923 10.4352C5.73923 9.70723 6.03523 9.01923 6.41923 8.41123C6.62723 8.09923 6.56323 7.69123 6.30723 7.43523ZM4.81123 12.6272C4.29923 12.6272 3.90723 13.0992 4.01923 13.5952C4.22723 14.4912 4.57923 15.3312 5.05923 16.0912C5.33123 16.5232 5.93923 16.5792 6.29923 16.2192C6.55523 15.9632 6.61923 15.5552 6.41923 15.2512C6.02723 14.6432 5.73923 13.9632 5.57923 13.2272C5.50723 12.8672 5.17923 12.6272 4.81123 12.6272ZM14.2272 11.8272C14.2272 10.4992 13.1552 9.42723 11.8272 9.42723C10.4992 9.42723 9.42723 10.4992 9.42723 11.8272C9.42723 13.1552 10.4992 14.2272 11.8272 14.2272C13.1552 14.2272 14.2272 13.1552 14.2272 11.8272ZM17.3472 16.2192C17.7072 16.5792 18.3152 16.5232 18.5872 16.0992C19.0672 15.3472 19.4192 14.4992 19.6272 13.6112C19.7392 13.1152 19.3472 12.6432 18.8432 12.6432C18.4832 12.6432 18.1472 12.8832 18.0752 13.2352C17.9152 13.9632 17.6192 14.6432 17.2352 15.2592C17.0272 15.5552 17.0912 15.9632 17.3472 16.2192ZM12.6272 18.8432C12.6272 19.3552 13.0992 19.7472 13.5952 19.6352C14.4912 19.4272 15.3312 19.0752 16.0912 18.5952C16.5232 18.3232 16.5792 17.7152 16.2192 17.3552C15.9632 17.0992 15.5552 17.0352 15.2512 17.2352C14.6432 17.6272 13.9632 17.9152 13.2272 18.0752C12.8672 18.1472 12.6272 18.4752 12.6272 18.8432ZM7.56323 18.5872C8.32323 19.0672 9.16323 19.4192 10.0592 19.6272C10.5552 19.7392 11.0272 19.3472 11.0272 18.8432C11.0272 18.4832 10.7872 18.1472 10.4352 18.0752C9.70723 17.9152 9.01923 17.6192 8.41123 17.2352C8.09923 17.0432 7.69923 17.0992 7.44323 17.3632C7.07523 17.7152 7.13123 18.3152 7.56323 18.5872Z" fill="#808080"/>
</svg>
