<svg width="24" height="24" viewBox="0 0 24 24" fill="none" xmlns="http://www.w3.org/2000/svg">
<path fill-rule="evenodd" clip-rule="evenodd" d="M11.2 16.8H12.8C13.24 16.8 13.6 16.44 13.6 16C13.6 15.56 13.24 15.2 12.8 15.2H11.2C10.76 15.2 10.4 15.56 10.4 16C10.4 16.44 10.76 16.8 11.2 16.8ZM4.80005 8C4.80005 8.44 5.16005 8.8 5.60005 8.8H18.4C18.84 8.8 19.2 8.44 19.2 8C19.2 7.56 18.84 7.2 18.4 7.2H5.60005C5.16005 7.2 4.80005 7.56 4.80005 8ZM8.00005 12.8H16C16.44 12.8 16.8 12.44 16.8 12C16.8 11.56 16.44 11.2 16 11.2H8.00005C7.56005 11.2 7.20005 11.56 7.20005 12C7.20005 12.44 7.56005 12.8 8.00005 12.8Z" fill="#808080"/>
</svg>
