<svg width="24" height="24" viewBox="0 0 24 24" fill="none" xmlns="http://www.w3.org/2000/svg">
<path fill-rule="evenodd" clip-rule="evenodd" d="M17.8799 10.432C17.3359 7.67201 14.9119 5.60001 11.9999 5.60001C9.6879 5.60001 7.6879 6.91201 6.6879 8.83201C4.2799 9.08801 2.3999 11.12 2.3999 13.6C2.3999 16.248 4.5519 18.4 7.1999 18.4H17.5999C19.8079 18.4 21.5999 16.608 21.5999 14.4C21.5999 12.288 19.9599 10.576 17.8799 10.432ZM17.5999 16.8H7.3359C5.6639 16.8 4.1759 15.576 4.0159 13.912C3.8319 12.008 5.3279 10.4 7.1999 10.4C8.7359 10.4 10.0239 11.488 10.3279 12.936C10.4079 13.32 10.7279 13.6 11.1119 13.6C11.5999 13.6 11.9999 13.16 11.9039 12.68C11.5599 10.888 10.2159 9.45601 8.4719 8.97601C9.3519 7.80801 10.7839 7.08001 12.3839 7.21601C14.6879 7.41601 16.3919 9.47201 16.3919 11.784V12H17.4879C18.6479 12 19.7199 12.776 19.9439 13.92C20.2559 15.448 19.0799 16.8 17.5999 16.8Z" fill="#808080"/>
</svg>
