<svg width="24" height="24" viewBox="0 0 24 24" fill="none" xmlns="http://www.w3.org/2000/svg">
<path fill-rule="evenodd" clip-rule="evenodd" d="M18.4 18.072V9.464C18.4 9.04 18.232 8.632 17.928 8.336L14.064 4.472C13.768 4.168 13.36 4 12.936 4H7.19998C6.31998 4 5.60798 4.72 5.60798 5.6L5.59998 18.4C5.59998 19.28 6.31198 20 7.19198 20H16.8C17.16 20 17.48 19.88 17.752 19.68L14.208 16.136C13.52 16.584 12.696 16.84 11.808 16.792C9.91198 16.704 8.28798 15.224 8.03198 13.344C7.67998 10.664 9.99198 8.4 12.696 8.856C14.256 9.12 15.552 10.336 15.896 11.88C16.16 13.048 15.904 14.136 15.336 15L18.4 18.072ZM9.59998 12.8C9.59998 14.128 10.672 15.2 12 15.2C13.328 15.2 14.4 14.128 14.4 12.8C14.4 11.472 13.328 10.4 12 10.4C10.672 10.4 9.59998 11.472 9.59998 12.8Z" fill="#808080"/>
</svg>
