<svg width="24" height="24" viewBox="0 0 24 24" fill="none" xmlns="http://www.w3.org/2000/svg">
<path fill-rule="evenodd" clip-rule="evenodd" d="M10.4 6.39999C11.504 6.39999 12.504 6.84799 13.232 7.56799L11.88 8.91999C11.632 9.16799 11.808 9.59999 12.168 9.59999H15.6C15.824 9.59999 16 9.42399 16 9.19999V5.76799C16 5.40799 15.568 5.23199 15.32 5.48799L14.36 6.44799C13.344 5.42399 11.944 4.79999 10.4 4.79999C7.968 4.79999 5.904 6.35199 5.136 8.51199C4.944 9.03999 5.32 9.59999 5.88 9.59999C6.216 9.59999 6.512 9.39199 6.624 9.07199C7.168 7.51999 8.656 6.39999 10.4 6.39999ZM14.912 13.712C15.232 13.28 15.488 12.792 15.672 12.272C15.856 11.752 15.472 11.2 14.92 11.2C14.584 11.2 14.288 11.408 14.176 11.728C13.632 13.28 12.144 14.4 10.4 14.4C9.296 14.4 8.296 13.952 7.568 13.232L8.92 11.88C9.168 11.632 8.992 11.2 8.632 11.2H5.2C4.976 11.2 4.8 11.376 4.8 11.6V15.032C4.8 15.392 5.232 15.568 5.48 15.312L6.44 14.352C7.456 15.376 8.856 16 10.4 16C11.64 16 12.784 15.592 13.712 14.912L17 18.2C17.328 18.528 17.864 18.528 18.192 18.2C18.52 17.872 18.52 17.336 18.192 17.008L14.912 13.712Z" fill="#808080"/>
</svg>
