<svg width="24" height="24" viewBox="0 0 24 24" fill="none" xmlns="http://www.w3.org/2000/svg">
<path fill-rule="evenodd" clip-rule="evenodd" d="M16.6505 5.976C16.5865 5.976 16.5225 5.96 16.4665 5.928C14.9305 5.136 13.6025 4.8 12.0105 4.8C10.4265 4.8 8.92253 5.176 7.55453 5.928C7.36253 6.032 7.12253 5.96 7.01053 5.768C6.90653 5.576 6.97853 5.328 7.17053 5.224C8.65853 4.416 10.2905 4 12.0105 4C13.7145 4 15.2025 4.376 16.8345 5.216C17.0345 5.32 17.1065 5.56 17.0025 5.752C16.9305 5.896 16.7945 5.976 16.6505 5.976ZM5.20253 10.176C5.12253 10.176 5.04253 10.152 4.97053 10.104C4.78653 9.976 4.74653 9.728 4.87453 9.544C5.66653 8.424 6.67453 7.544 7.87453 6.928C10.3865 5.632 13.6025 5.624 16.1225 6.92C17.3225 7.536 18.3305 8.408 19.1225 9.52C19.2505 9.696 19.2105 9.952 19.0265 10.08C18.8425 10.208 18.5945 10.168 18.4665 9.984C17.7465 8.976 16.8345 8.184 15.7545 7.632C13.4585 6.456 10.5225 6.456 8.23453 7.64C7.14653 8.2 6.23453 9 5.51453 10.008C5.45053 10.12 5.33053 10.176 5.20253 10.176ZM10.2025 19.832C10.0985 19.832 9.99453 19.792 9.92253 19.712C9.22653 19.016 8.85053 18.568 8.31453 17.6C7.76253 16.616 7.47453 15.416 7.47453 14.128C7.47453 11.752 9.50653 9.816 12.0025 9.816C14.4985 9.816 16.5305 11.752 16.5305 14.128C16.5305 14.352 16.3545 14.528 16.1305 14.528C15.9065 14.528 15.7305 14.352 15.7305 14.128C15.7305 12.192 14.0585 10.616 12.0025 10.616C9.94653 10.616 8.27453 12.192 8.27453 14.128C8.27453 15.28 8.53053 16.344 9.01853 17.208C9.53053 18.128 9.88253 18.52 10.4985 19.144C10.6505 19.304 10.6505 19.552 10.4985 19.712C10.4105 19.792 10.3065 19.832 10.2025 19.832ZM15.9385 18.352C14.9865 18.352 14.1465 18.112 13.4585 17.64C12.2665 16.832 11.5545 15.52 11.5545 14.128C11.5545 13.904 11.7305 13.728 11.9545 13.728C12.1785 13.728 12.3545 13.904 12.3545 14.128C12.3545 15.256 12.9305 16.32 13.9065 16.976C14.4745 17.36 15.1385 17.544 15.9385 17.544C16.1305 17.544 16.4505 17.52 16.7705 17.464C16.9865 17.424 17.1945 17.568 17.2345 17.792C17.2745 18.008 17.1305 18.216 16.9065 18.256C16.4505 18.344 16.0505 18.352 15.9385 18.352ZM14.3305 20C14.2985 20 14.2585 19.992 14.2265 19.984C12.9545 19.632 12.1225 19.16 11.2505 18.304C10.1305 17.192 9.51453 15.712 9.51453 14.128C9.51453 12.832 10.6185 11.776 11.9785 11.776C13.3385 11.776 14.4425 12.832 14.4425 14.128C14.4425 14.984 15.1865 15.68 16.1065 15.68C17.0265 15.68 17.7705 14.984 17.7705 14.128C17.7705 11.112 15.1705 8.664 11.9705 8.664C9.69853 8.664 7.61853 9.928 6.68253 11.888C6.37053 12.536 6.21053 13.296 6.21053 14.128C6.21053 14.752 6.26653 15.736 6.74653 17.016C6.82653 17.224 6.72253 17.456 6.51453 17.528C6.30653 17.608 6.07453 17.496 6.00253 17.296C5.61053 16.248 5.41853 15.208 5.41853 14.128C5.41853 13.168 5.60253 12.296 5.96253 11.536C7.02653 9.304 9.38653 7.856 11.9705 7.856C15.6105 7.856 18.5705 10.664 18.5705 14.12C18.5705 15.416 17.4665 16.472 16.1065 16.472C14.7465 16.472 13.6425 15.416 13.6425 14.12C13.6425 13.264 12.8985 12.568 11.9785 12.568C11.0585 12.568 10.3145 13.264 10.3145 14.12C10.3145 15.488 10.8425 16.768 11.8105 17.728C12.5705 18.48 13.2985 18.896 14.4265 19.208C14.6425 19.264 14.7625 19.488 14.7065 19.696C14.6665 19.88 14.4985 20 14.3305 20Z" fill="#808080"/>
</svg>
