<svg width="24" height="24" viewBox="0 0 24 24" fill="none" xmlns="http://www.w3.org/2000/svg">
<path fill-rule="evenodd" clip-rule="evenodd" d="M16.56 15.112L13.456 12L16.568 8.888C16.88 8.576 16.88 8.072 16.568 7.76C16.4185 7.6102 16.2156 7.52601 16.004 7.52601C15.7923 7.52601 15.5894 7.6102 15.44 7.76L11.768 11.432C11.456 11.744 11.456 12.248 11.768 12.56L15.44 16.232C15.752 16.544 16.256 16.544 16.568 16.232C16.872 15.928 16.872 15.416 16.56 15.112ZM7.99995 7.2C8.43995 7.2 8.79995 7.56 8.79995 8V16C8.79995 16.44 8.43995 16.8 7.99995 16.8C7.55995 16.8 7.19995 16.44 7.19995 16V8C7.19995 7.56 7.55995 7.2 7.99995 7.2Z" fill="#808080"/>
</svg>
