<svg width="24" height="24" viewBox="0 0 24 24" fill="none" xmlns="http://www.w3.org/2000/svg">
<path fill-rule="evenodd" clip-rule="evenodd" d="M18.522 13.954L19.098 13.378C19.41 13.066 19.41 12.562 19.098 12.25L19.082 12.234C18.9325 12.0842 18.7296 12 18.518 12C18.3064 12 18.1035 12.0842 17.954 12.234L15.666 14.522L8.81 7.666L11.098 5.378C11.41 5.066 11.41 4.562 11.098 4.25L11.082 4.234C10.9325 4.0842 10.7296 4.00001 10.518 4.00001C10.3064 4.00001 10.1035 4.0842 9.954 4.234L9.378 4.81L8.802 4.234C8.49 3.922 7.978 3.922 7.666 4.234L6.522 5.378L5.946 4.802C5.634 4.49 5.114 4.49 4.802 4.802C4.49 5.114 4.49 5.634 4.802 5.946L5.378 6.522L4.234 7.666C3.922 7.978 3.922 8.482 4.234 8.794L4.81 9.37L4.234 9.954C3.922 10.266 3.922 10.77 4.234 11.082L4.25 11.098C4.562 11.41 5.066 11.41 5.378 11.098L7.666 8.81L14.522 15.666L12.234 17.954C11.922 18.266 11.922 18.77 12.234 19.082L12.25 19.098C12.562 19.41 13.066 19.41 13.378 19.098L13.954 18.522L14.53 19.098C14.842 19.41 15.346 19.41 15.658 19.098L16.802 17.954L17.378 18.53C17.69 18.842 18.21 18.842 18.522 18.53C18.834 18.218 18.834 17.698 18.522 17.386L17.946 16.81L19.098 15.666C19.41 15.354 19.41 14.85 19.098 14.538L18.522 13.954Z" fill="#808080"/>
</svg>
