<svg width="24" height="24" viewBox="0 0 24 24" fill="none" xmlns="http://www.w3.org/2000/svg">
<path fill-rule="evenodd" clip-rule="evenodd" d="M7.19995 11.2H3.99995C3.55995 11.2 3.19995 11.56 3.19995 12C3.19995 12.44 3.55995 12.8 3.99995 12.8H7.19995C7.63995 12.8 7.99995 12.44 7.99995 12C7.99995 11.56 7.63995 11.2 7.19995 11.2ZM9.17595 8.04801L8.59995 7.47201C8.45049 7.32221 8.24757 7.23802 8.03595 7.23802C7.82434 7.23802 7.62142 7.32221 7.47195 7.47201C7.15995 7.78401 7.15995 8.28801 7.47195 8.60001L8.03995 9.16801C8.35195 9.48001 8.85595 9.48001 9.16795 9.16801C9.47995 8.86401 9.47995 8.35201 9.17595 8.04801ZM12 3.20001C11.552 3.20001 11.2 3.56001 11.2 4.00001V7.20001C11.2 7.64001 11.56 8.00001 12 8.00001C12.44 8.00001 12.8 7.64001 12.8 7.20001V4.00001C12.8 3.56001 12.44 3.20001 12 3.20001ZM16.528 7.48001C16.3785 7.33021 16.1756 7.24602 15.964 7.24602C15.7523 7.24602 15.5494 7.33021 15.4 7.48001L14.832 8.04801C14.52 8.36001 14.52 8.86401 14.832 9.17601C15.144 9.48801 15.648 9.48801 15.96 9.17601L16.528 8.60801C16.832 8.29601 16.832 7.78401 16.528 7.48001ZM16 12C16 12.448 16.36 12.8 16.8 12.8H20C20.44 12.8 20.8 12.44 20.8 12C20.8 11.56 20.44 11.2 20 11.2H16.8C16.36 11.2 16 11.56 16 12ZM12 9.60001C10.672 9.60001 9.59995 10.672 9.59995 12C9.59995 13.328 10.672 14.4 12 14.4C13.328 14.4 14.4 13.328 14.4 12C14.4 10.672 13.328 9.60001 12 9.60001ZM14.824 15.952L15.392 16.52C15.704 16.832 16.208 16.832 16.52 16.52C16.832 16.208 16.832 15.704 16.52 15.392L15.952 14.824C15.8025 14.6742 15.5996 14.59 15.388 14.59C15.1763 14.59 14.9734 14.6742 14.824 14.824C14.52 15.136 14.52 15.648 14.824 15.952ZM7.47195 16.52C7.78395 16.832 8.28795 16.832 8.59995 16.52L9.16795 15.952C9.47995 15.64 9.47995 15.136 9.16795 14.824C9.01849 14.6742 8.81557 14.59 8.60395 14.59C8.39234 14.59 8.18942 14.6742 8.03995 14.824L7.47195 15.392C7.16795 15.704 7.16795 16.216 7.47195 16.52ZM12 20.8C12.448 20.8 12.8 20.44 12.8 20V16.8C12.8 16.36 12.44 16 12 16C11.56 16 11.2 16.36 11.2 16.8V20C11.2 20.44 11.56 20.8 12 20.8Z" fill="#808080"/>
</svg>
