<svg width="24" height="24" viewBox="0 0 24 24" fill="none" xmlns="http://www.w3.org/2000/svg">
<path fill-rule="evenodd" clip-rule="evenodd" d="M4.80005 4.8V12.8C4.80005 13.24 5.16005 13.6 5.60005 13.6H7.20005V19.32C7.20005 19.728 7.73605 19.872 7.94405 19.52L12.096 12.4C12.408 11.864 12.024 11.2 11.408 11.2H9.60005L12.304 5.128C12.536 4.592 12.144 4 11.568 4H5.60005C5.16005 4 4.80005 4.36 4.80005 4.8ZM16.8 4C16.32 4 15.896 4.304 15.728 4.752L13.776 10.24C13.616 10.712 13.96 11.2 14.456 11.2C14.76 11.2 15.032 11.008 15.128 10.72L15.52 9.6H18.08L18.472 10.72C18.576 11.008 18.84 11.2 19.144 11.2C19.64 11.2 19.984 10.712 19.816 10.248L17.864 4.76C17.704 4.304 17.28 4 16.8 4ZM15.88 8.52L16.8 5.6L17.72 8.52H15.88Z" fill="#808080"/>
</svg>
