<svg width="24" height="24" viewBox="0 0 24 24" fill="none" xmlns="http://www.w3.org/2000/svg">
<path fill-rule="evenodd" clip-rule="evenodd" d="M16.5621 12.4C16.8741 11.864 16.4901 11.2 15.8741 11.2H14.3781L16.2021 13.024L16.5621 12.4ZM16.6901 5.95999C16.9541 5.42399 16.5701 4.79999 15.9701 4.79999H10.0661C9.6261 4.79999 9.2661 5.15999 9.2661 5.59999V6.08799L14.1701 10.992L16.6901 5.95999ZM18.4181 17.504L6.9621 6.04799C6.81263 5.89819 6.60971 5.814 6.3981 5.814C6.18648 5.814 5.98356 5.89819 5.8341 6.04799C5.5221 6.35999 5.5221 6.86399 5.8341 7.17599L9.2661 10.616V12.8C9.2661 13.24 9.6261 13.6 10.0661 13.6H11.6661V19.32C11.6661 19.728 12.2021 19.872 12.4101 19.52L14.5301 15.88L17.2821 18.632C17.5941 18.944 18.0981 18.944 18.4101 18.632C18.7301 18.32 18.7301 17.816 18.4181 17.504Z" fill="#808080"/>
</svg>
