<svg width="24" height="24" viewBox="0 0 24 24" fill="none" xmlns="http://www.w3.org/2000/svg">
<path fill-rule="evenodd" clip-rule="evenodd" d="M18.7127 17.0479H5.11268C4.67268 17.0479 4.31268 17.4079 4.31268 17.8479C4.31268 18.2879 4.67268 18.6479 5.11268 18.6479H18.7127C19.1527 18.6479 19.5127 18.2879 19.5127 17.8479C19.5127 17.4079 19.1527 17.0479 18.7127 17.0479ZM19.9687 9.55986C19.7927 8.91986 19.1367 8.54386 18.4967 8.71186L14.2487 9.84786L9.08068 5.03186C8.86468 4.82386 8.55268 4.75186 8.26468 4.83186C7.72068 4.98386 7.46468 5.60786 7.74468 6.09586L10.4967 10.8639L6.52068 11.9279L5.26468 10.9359C5.06468 10.7839 4.80868 10.7279 4.56068 10.7919L4.29668 10.8639C4.04068 10.9279 3.92068 11.2239 4.05668 11.4479L5.56068 14.0479C5.74468 14.3599 6.11268 14.5119 6.45668 14.4239L19.1127 11.0319C19.7527 10.8559 20.1367 10.1999 19.9687 9.55986Z" fill="#808080"/>
</svg>
