<svg width="24" height="24" viewBox="0 0 24 24" fill="none" xmlns="http://www.w3.org/2000/svg">
<path fill-rule="evenodd" clip-rule="evenodd" d="M19.2 18.1491H5.6C5.16 18.1491 4.8 18.5091 4.8 18.9491C4.8 19.3891 5.16 19.7491 5.6 19.7491H19.2C19.64 19.7491 20 19.3891 20 18.9491C20 18.5091 19.64 18.1491 19.2 18.1491ZM5.608 12.2371L18.272 15.6291C18.912 15.7971 19.568 15.4211 19.744 14.7811C19.912 14.1411 19.536 13.4851 18.896 13.3091L14.648 12.1731L12.584 5.4131C12.496 5.1251 12.272 4.9091 11.984 4.8291C11.44 4.6851 10.904 5.0931 10.904 5.6611V11.1651L6.92 10.1091L6.32 8.6211C6.224 8.3891 6.032 8.2131 5.784 8.1491L5.52 8.0771C5.264 8.0051 5.016 8.1971 5.016 8.4611V11.4611C5.016 11.8291 5.256 12.1411 5.608 12.2371Z" fill="#808080"/>
</svg>
