<svg width="24" height="24" viewBox="0 0 24 24" fill="none" xmlns="http://www.w3.org/2000/svg">
<path fill-rule="evenodd" clip-rule="evenodd" d="M9.59999 7.99999H7.99999V9.59999H9.59999V7.99999ZM9.59999 11.2H7.99999V12.8H9.59999V11.2ZM9.59999 4.79999C8.71199 4.79999 7.99999 5.51999 7.99999 6.39999H9.59999V4.79999ZM12.8 14.4H11.2V16H12.8V14.4ZM17.6 4.79999V6.39999H19.2C19.2 5.51999 18.48 4.79999 17.6 4.79999ZM12.8 4.79999H11.2V6.39999H12.8V4.79999ZM9.59999 16V14.4H7.99999C7.99999 15.28 8.71199 16 9.59999 16ZM17.6 12.8H19.2V11.2H17.6V12.8ZM17.6 9.59999H19.2V7.99999H17.6V9.59999ZM17.6 16C18.48 16 19.2 15.28 19.2 14.4H17.6V16ZM5.59999 7.99999C5.15999 7.99999 4.79999 8.35999 4.79999 8.79999V17.6C4.79999 18.48 5.51999 19.2 6.39999 19.2H15.2C15.64 19.2 16 18.84 16 18.4C16 17.96 15.64 17.6 15.2 17.6H7.19999C6.75999 17.6 6.39999 17.24 6.39999 16.8V8.79999C6.39999 8.35999 6.03999 7.99999 5.59999 7.99999ZM14.4 6.39999H16V4.79999H14.4V6.39999ZM14.4 16H16V14.4H14.4V16Z" fill="#808080"/>
</svg>
