<svg width="24" height="24" viewBox="0 0 24 24" fill="none" xmlns="http://www.w3.org/2000/svg">
<path fill-rule="evenodd" clip-rule="evenodd" d="M4.79999 12.8H6.39999V11.2H4.79999V12.8ZM4.79999 16H6.39999V14.4H4.79999V16ZM6.39999 19.2V17.6H4.79999C4.79999 18.48 5.51199 19.2 6.39999 19.2ZM4.79999 9.59999H6.39999V7.99999H4.79999V9.59999ZM14.4 19.2H16V17.6H14.4V19.2ZM17.6 4.79999H9.59999C8.71199 4.79999 7.99999 5.51999 7.99999 6.39999V14.4C7.99999 15.28 8.71199 16 9.59999 16H17.6C18.48 16 19.2 15.28 19.2 14.4V6.39999C19.2 5.51999 18.48 4.79999 17.6 4.79999ZM16.8 14.4H10.4C9.95999 14.4 9.59999 14.04 9.59999 13.6V7.19999C9.59999 6.75999 9.95999 6.39999 10.4 6.39999H16.8C17.24 6.39999 17.6 6.75999 17.6 7.19999V13.6C17.6 14.04 17.24 14.4 16.8 14.4ZM11.2 19.2H12.8V17.6H11.2V19.2ZM7.99999 19.2H9.59999V17.6H7.99999V19.2Z" fill="#808080"/>
</svg>
