<svg width="24" height="24" viewBox="0 0 24 24" fill="none" xmlns="http://www.w3.org/2000/svg">
<path fill-rule="evenodd" clip-rule="evenodd" d="M14.4 19.2H16V17.6H14.4V19.2ZM17.6 9.60001H19.2V8.00001H17.6V9.60001ZM4.80005 6.40001V17.6C4.80005 18.48 5.52005 19.2 6.40005 19.2H8.80005C9.24005 19.2 9.60005 18.84 9.60005 18.4C9.60005 17.96 9.24005 17.6 8.80005 17.6H7.20005C6.76005 17.6 6.40005 17.24 6.40005 16.8V7.20001C6.40005 6.76001 6.76005 6.40001 7.20005 6.40001H8.80005C9.24005 6.40001 9.60005 6.04001 9.60005 5.60001C9.60005 5.16001 9.24005 4.80001 8.80005 4.80001H6.40005C5.52005 4.80001 4.80005 5.52001 4.80005 6.40001ZM17.6 4.80001V6.40001H19.2C19.2 5.52001 18.48 4.80001 17.6 4.80001ZM12 20.8C12.44 20.8 12.8 20.44 12.8 20V4.00001C12.8 3.56001 12.44 3.20001 12 3.20001C11.56 3.20001 11.2 3.56001 11.2 4.00001V20C11.2 20.44 11.56 20.8 12 20.8ZM17.6 16H19.2V14.4H17.6V16ZM14.4 6.40001H16V4.80001H14.4V6.40001ZM17.6 12.8H19.2V11.2H17.6V12.8ZM17.6 19.2C18.48 19.2 19.2 18.48 19.2 17.6H17.6V19.2Z" fill="#808080"/>
</svg>
