<svg width="24" height="24" viewBox="0 0 24 24" fill="none" xmlns="http://www.w3.org/2000/svg">
<path fill-rule="evenodd" clip-rule="evenodd" d="M18.4 7.19998H12L10.872 6.07198C10.568 5.76798 10.16 5.59998 9.736 5.59998H5.6C4.72 5.59998 4.008 6.31998 4.008 7.19998L4 16.8C4 17.68 4.72 18.4 5.6 18.4H18.4C19.28 18.4 20 17.68 20 16.8V8.79998C20 7.91998 19.28 7.19998 18.4 7.19998ZM14.4 9.59998C15.28 9.59998 16 10.32 16 11.2C16 12.08 15.28 12.8 14.4 12.8C13.52 12.8 12.8 12.08 12.8 11.2C12.8 10.32 13.52 9.59998 14.4 9.59998ZM17.6 16H11.2V15.2C11.2 14.136 13.336 13.6 14.4 13.6C15.464 13.6 17.6 14.136 17.6 15.2V16Z" fill="#808080"/>
</svg>
