<svg width="24" height="24" viewBox="0 0 24 24" fill="none" xmlns="http://www.w3.org/2000/svg">
<path fill-rule="evenodd" clip-rule="evenodd" d="M18.4 7.19998H12L10.872 6.07198C10.568 5.76798 10.16 5.59998 9.736 5.59998H5.6C4.72 5.59998 4.008 6.31998 4.008 7.19998L4 16.8C4 17.68 4.72 18.4 5.6 18.4H18.4C19.28 18.4 20 17.68 20 16.8V8.79998C20 7.91998 19.28 7.19998 18.4 7.19998ZM17.6 16.8H6.4C5.96 16.8 5.6 16.44 5.6 16V9.59998C5.6 9.15998 5.96 8.79998 6.4 8.79998H17.6C18.04 8.79998 18.4 9.15998 18.4 9.59998V16C18.4 16.44 18.04 16.8 17.6 16.8Z" fill="#808080"/>
</svg>
