<svg width="24" height="24" viewBox="0 0 24 24" fill="none" xmlns="http://www.w3.org/2000/svg">
<path fill-rule="evenodd" clip-rule="evenodd" d="M18.4 7.19998H12L10.872 6.07198C10.568 5.76798 10.16 5.59998 9.736 5.59998H5.6C4.72 5.59998 4 6.31998 4 7.19998V16.8C4 17.68 4.72 18.4 5.6 18.4H18.4C19.28 18.4 20 17.68 20 16.8V8.79998C20 7.91998 19.28 7.19998 18.4 7.19998ZM15.952 15.528L14.4 14.624L12.848 15.528C12.544 15.704 12.176 15.432 12.256 15.088L12.664 13.328L11.312 12.16C11.048 11.928 11.184 11.488 11.536 11.456L13.32 11.304L14.024 9.65598C14.16 9.33598 14.624 9.33598 14.76 9.65598L15.464 11.304L17.248 11.456C17.6 11.488 17.744 11.928 17.472 12.16L16.12 13.328L16.528 15.088C16.616 15.432 16.248 15.704 15.952 15.528Z" fill="#808080"/>
</svg>
