<svg width="24" height="24" viewBox="0 0 24 24" fill="none" xmlns="http://www.w3.org/2000/svg">
<path fill-rule="evenodd" clip-rule="evenodd" d="M10.344 13.2H13.656L12 8.784L10.344 13.2ZM18.4 4H5.6C4.72 4 4 4.72 4 5.6V18.4C4 19.28 4.72 20 5.6 20H18.4C19.28 20 20 19.28 20 18.4V5.6C20 4.72 19.28 4 18.4 4ZM14.968 16.704L14.248 14.8H9.736L9.024 16.696C8.912 17 8.624 17.2 8.296 17.2C7.752 17.2 7.376 16.648 7.576 16.144L10.976 7.496C11.152 7.072 11.552 6.8 12 6.8C12.448 6.8 12.848 7.072 13.016 7.496L16.416 16.144C16.616 16.648 16.24 17.2 15.696 17.2C15.376 17.2 15.088 17 14.968 16.704Z" fill="#808080"/>
</svg>
