<svg width="24" height="24" viewBox="0 0 24 24" fill="none" xmlns="http://www.w3.org/2000/svg">
<path fill-rule="evenodd" clip-rule="evenodd" d="M10.232 10.4V13.6C10.232 14.04 10.592 14.4 11.032 14.4C11.472 14.4 11.832 14.04 11.832 13.6V5.6H13.432V13.6C13.432 14.04 13.792 14.4 14.232 14.4C14.672 14.4 15.032 14.04 15.032 13.6V5.6H15.832C16.272 5.6 16.632 5.24 16.632 4.8C16.632 4.36 16.272 4 15.832 4H10.368C8.69598 4 7.20798 5.224 7.04798 6.888C6.86398 8.792 8.35998 10.4 10.232 10.4ZM8.63198 16V14.568C8.63198 14.208 8.19998 14.032 7.95198 14.288L5.71998 16.52C5.55998 16.68 5.55998 16.928 5.71998 17.088L7.95198 19.32C8.19998 19.568 8.63198 19.392 8.63198 19.032V17.6H17.432C17.872 17.6 18.232 17.24 18.232 16.8C18.232 16.36 17.872 16 17.432 16H8.63198Z" fill="#808080"/>
</svg>
