<svg width="24" height="24" viewBox="0 0 24 24" fill="none" xmlns="http://www.w3.org/2000/svg">
<path fill-rule="evenodd" clip-rule="evenodd" d="M3.9999 17.6H19.9999C20.8799 17.6 21.5999 18.32 21.5999 19.2C21.5999 20.08 20.8799 20.8 19.9999 20.8H3.9999C3.1199 20.8 2.3999 20.08 2.3999 19.2C2.3999 18.32 3.1199 17.6 3.9999 17.6ZM10.9039 4.744L7.2479 14.064C7.0319 14.608 7.4319 15.2 8.0239 15.2C8.3679 15.2 8.6799 14.984 8.8079 14.656L9.4959 12.8H14.4959L15.1919 14.656C15.3119 14.984 15.6239 15.2 15.9759 15.2C16.5599 15.2 16.9679 14.608 16.7519 14.064L13.0959 4.744C12.9119 4.296 12.4799 4 11.9999 4C11.5199 4 11.0799 4.296 10.9039 4.744ZM10.0959 11.2L11.9999 6.136L13.9039 11.2H10.0959Z" fill="#808080"/>
</svg>
