<svg width="24" height="24" viewBox="0 0 24 24" fill="none" xmlns="http://www.w3.org/2000/svg">
<path fill-rule="evenodd" clip-rule="evenodd" d="M20.8 7.20001V4.00001C20.8 3.56001 20.44 3.20001 20 3.20001H16.8C16.36 3.20001 16 3.56001 16 4.00001V4.80001H7.99995V4.00001C7.99995 3.56001 7.63995 3.20001 7.19995 3.20001H3.99995C3.55995 3.20001 3.19995 3.56001 3.19995 4.00001V7.20001C3.19995 7.64001 3.55995 8.00001 3.99995 8.00001H4.79995V16H3.99995C3.55995 16 3.19995 16.36 3.19995 16.8V20C3.19995 20.44 3.55995 20.8 3.99995 20.8H7.19995C7.63995 20.8 7.99995 20.44 7.99995 20V19.2H16V20C16 20.44 16.36 20.8 16.8 20.8H20C20.44 20.8 20.8 20.44 20.8 20V16.8C20.8 16.36 20.44 16 20 16H19.2V8.00001H20C20.44 8.00001 20.8 7.64001 20.8 7.20001ZM4.79995 4.80001H6.39995V6.40001H4.79995V4.80001ZM6.39995 19.2H4.79995V17.6H6.39995V19.2ZM16 17.6H7.99995V16.8C7.99995 16.36 7.63995 16 7.19995 16H6.39995V8.00001H7.19995C7.63995 8.00001 7.99995 7.64001 7.99995 7.20001V6.40001H16V7.20001C16 7.64001 16.36 8.00001 16.8 8.00001H17.6V16H16.8C16.36 16 16 16.36 16 16.8V17.6ZM19.2 19.2H17.6V17.6H19.2V19.2ZM17.6 6.40001V4.80001H19.2V6.40001H17.6ZM12.752 8.52001C12.632 8.20801 12.328 8.00001 11.992 8.00001C11.656 8.00001 11.352 8.20801 11.24 8.52001L9.02395 14.384C8.87195 14.776 9.15995 15.2 9.58395 15.2C9.83995 15.2 10.064 15.04 10.152 14.8L10.592 13.6H13.384L13.832 14.808C13.92 15.04 14.144 15.2 14.4 15.2H14.408C14.832 15.2 15.12 14.776 14.976 14.384L12.752 8.52001ZM10.952 12.592L12 9.52801L13.04 12.592H10.952Z" fill="#808080"/>
</svg>
