<svg width="24" height="24" viewBox="0 0 24 24" fill="none" xmlns="http://www.w3.org/2000/svg">
<path fill-rule="evenodd" clip-rule="evenodd" d="M6.3999 8.39998C6.3999 6.85358 7.65351 5.59998 9.1999 5.59998H16.0999C16.2656 5.59998 16.3999 5.73429 16.3999 5.89998V7.29998C16.3999 7.46566 16.2656 7.59998 16.0999 7.59998H15.1999V17.3C15.1999 17.4657 15.0656 17.6 14.8999 17.6H13.4999C13.3342 17.6 13.1999 17.4657 13.1999 17.3V7.59998H11.9999C11.9999 7.99998 12.0007 10.4454 12.0007 10.7473C12.0005 12.6802 12.0001 16.2489 11.9999 17.3008C11.9999 17.4664 11.8656 17.6 11.6999 17.6H10.2999C10.1342 17.6 9.9999 17.4657 9.9999 17.3V11.2H9.1999C7.65351 11.2 6.3999 9.94637 6.3999 8.39998Z" fill="#808080"/>
</svg>
