<svg width="24" height="24" viewBox="0 0 24 24" fill="none" xmlns="http://www.w3.org/2000/svg">
<path fill-rule="evenodd" clip-rule="evenodd" d="M8.0677 8.24001C8.42769 8.24001 8.60369 7.80801 8.34769 7.56001L6.51569 5.72001C6.35569 5.56001 6.10769 5.56001 5.94769 5.72001L4.11569 7.56001C3.86769 7.80801 4.04369 8.24001 4.40369 8.24001H5.43569V16.24H4.40369C4.04369 16.24 3.86769 16.672 4.12369 16.92L5.95569 18.752C6.11569 18.912 6.36369 18.912 6.52369 18.752L8.35569 16.92C8.60369 16.672 8.42769 16.24 8.0677 16.24H7.03569V8.24001H8.0677ZM11.0357 8.24001H19.0357C19.4757 8.24001 19.8357 7.88001 19.8357 7.44001C19.8357 7.00001 19.4757 6.64001 19.0357 6.64001H11.0357C10.5957 6.64001 10.2357 7.00001 10.2357 7.44001C10.2357 7.88001 10.5957 8.24001 11.0357 8.24001ZM19.0357 16.24H11.0357C10.5957 16.24 10.2357 16.6 10.2357 17.04C10.2357 17.48 10.5957 17.84 11.0357 17.84H19.0357C19.4757 17.84 19.8357 17.48 19.8357 17.04C19.8357 16.6 19.4757 16.24 19.0357 16.24ZM19.0357 11.44H11.0357C10.5957 11.44 10.2357 11.8 10.2357 12.24C10.2357 12.68 10.5957 13.04 11.0357 13.04H19.0357C19.4757 13.04 19.8357 12.68 19.8357 12.24C19.8357 11.8 19.4757 11.44 19.0357 11.44Z" fill="#808080"/>
</svg>
