<svg width="24" height="24" viewBox="0 0 24 24" fill="none" xmlns="http://www.w3.org/2000/svg">
<path fill-rule="evenodd" clip-rule="evenodd" d="M5.60005 19.2H18.4C18.84 19.2 19.2 18.84 19.2 18.4C19.2 17.96 18.84 17.6 18.4 17.6H5.60005C5.16005 17.6 4.80005 17.96 4.80005 18.4C4.80005 18.84 5.16005 19.2 5.60005 19.2ZM10.4 16H18.4C18.84 16 19.2 15.64 19.2 15.2C19.2 14.76 18.84 14.4 18.4 14.4H10.4C9.96005 14.4 9.60005 14.76 9.60005 15.2C9.60005 15.64 9.96005 16 10.4 16ZM5.60005 12.8H18.4C18.84 12.8 19.2 12.44 19.2 12C19.2 11.56 18.84 11.2 18.4 11.2H5.60005C5.16005 11.2 4.80005 11.56 4.80005 12C4.80005 12.44 5.16005 12.8 5.60005 12.8ZM10.4 9.59999H18.4C18.84 9.59999 19.2 9.23999 19.2 8.79999C19.2 8.35999 18.84 7.99999 18.4 7.99999H10.4C9.96005 7.99999 9.60005 8.35999 9.60005 8.79999C9.60005 9.23999 9.96005 9.59999 10.4 9.59999ZM4.80005 5.59999C4.80005 6.03999 5.16005 6.39999 5.60005 6.39999H18.4C18.84 6.39999 19.2 6.03999 19.2 5.59999C19.2 5.15999 18.84 4.79999 18.4 4.79999H5.60005C5.16005 4.79999 4.80005 5.15999 4.80005 5.59999Z" fill="#808080"/>
</svg>
