<svg width="24" height="24" viewBox="0 0 24 24" fill="none" xmlns="http://www.w3.org/2000/svg">
<path fill-rule="evenodd" clip-rule="evenodd" d="M12.632 15.96C15.056 15.648 16.8 13.472 16.8 11.032V5.79999C16.8 5.24799 16.352 4.79999 15.8 4.79999C15.248 4.79999 14.8 5.24799 14.8 5.79999V11.12C14.8 12.456 13.896 13.672 12.584 13.936C10.784 14.312 9.20002 12.936 9.20002 11.2V5.79999C9.20002 5.24799 8.75202 4.79999 8.20002 4.79999C7.64802 4.79999 7.20002 5.24799 7.20002 5.79999V11.2C7.20002 14.056 9.70402 16.336 12.632 15.96ZM6.40002 18.4C6.40002 18.84 6.76002 19.2 7.20002 19.2H16.8C17.24 19.2 17.6 18.84 17.6 18.4C17.6 17.96 17.24 17.6 16.8 17.6H7.20002C6.76002 17.6 6.40002 17.96 6.40002 18.4Z" fill="#808080"/>
</svg>
