<svg width="24" height="24" viewBox="0 0 24 24" fill="none" xmlns="http://www.w3.org/2000/svg">
<path fill-rule="evenodd" clip-rule="evenodd" d="M10.4 7.59999C10.4 8.26399 10.936 8.79999 11.6 8.79999H12.168L9.43195 15.2H8.39995C7.73595 15.2 7.19995 15.736 7.19995 16.4C7.19995 17.064 7.73595 17.6 8.39995 17.6H12.4C13.064 17.6 13.6 17.064 13.6 16.4C13.6 15.736 13.064 15.2 12.4 15.2H11.832L14.568 8.79999H15.6C16.264 8.79999 16.8 8.26399 16.8 7.59999C16.8 6.93599 16.264 6.39999 15.6 6.39999H11.6C10.936 6.39999 10.4 6.93599 10.4 7.59999Z" fill="#808080"/>
</svg>
