<svg width="24" height="24" viewBox="0 0 24 24" fill="none" xmlns="http://www.w3.org/2000/svg">
<path fill-rule="evenodd" clip-rule="evenodd" d="M15.6479 9.22598L9.0559 2.63398C8.90644 2.48418 8.70352 2.39999 8.4919 2.39999C8.28029 2.39999 8.07737 2.48418 7.9279 2.63398C7.6159 2.94598 7.6159 3.44998 7.9279 3.76198L9.2719 5.10598L5.1519 9.22598C4.6799 9.69798 4.6799 10.458 5.1519 10.922L9.5519 15.322C9.7839 15.554 10.0959 15.674 10.3999 15.674C10.7039 15.674 11.0159 15.554 11.2479 15.322L15.6479 10.922C16.1199 10.458 16.1199 9.69798 15.6479 9.22598ZM6.5679 10.074L10.3999 6.24198L14.2319 10.074H6.5679ZM17.5999 11.274C17.5999 11.274 15.9999 13.01 15.9999 14.074C15.9999 14.954 16.7199 15.674 17.5999 15.674C18.4799 15.674 19.1999 14.954 19.1999 14.074C19.1999 13.01 17.5999 11.274 17.5999 11.274ZM3.9999 18.074H19.9999C20.8799 18.074 21.5999 18.794 21.5999 19.674C21.5999 20.554 20.8799 21.274 19.9999 21.274H3.9999C3.1199 21.274 2.3999 20.554 2.3999 19.674C2.3999 18.794 3.1199 18.074 3.9999 18.074Z" fill="#808080"/>
</svg>
