<svg width="24" height="24" viewBox="0 0 24 24" fill="none" xmlns="http://www.w3.org/2000/svg">
<path fill-rule="evenodd" clip-rule="evenodd" d="M17.666 8.00001C18.33 8.00001 18.866 7.46401 18.866 6.80001C18.866 6.13601 18.33 5.60001 17.666 5.60001H7.97805L10.378 8.00001H11.842L11.402 9.02401L13.074 10.696L14.234 8.00001H17.666ZM16.818 16.704L6.16205 6.04801C6.01258 5.8982 5.80966 5.81402 5.59805 5.81402C5.38643 5.81402 5.18351 5.8982 5.03405 6.04801C4.72205 6.36001 4.72205 6.86401 5.03405 7.17601L10.042 12.184L8.72205 15.256C8.41005 15.992 8.94605 16.8 9.73805 16.8C10.178 16.8 10.578 16.536 10.754 16.128L11.722 13.864L15.682 17.824C15.994 18.136 16.498 18.136 16.81 17.824C17.13 17.52 17.13 17.016 16.818 16.704Z" fill="#808080"/>
</svg>
