<svg width="24" height="24" viewBox="0 0 24 24" fill="none" xmlns="http://www.w3.org/2000/svg">
<path fill-rule="evenodd" clip-rule="evenodd" d="M16.4661 13.79C16.4661 11.318 13.5861 7.48601 12.2821 5.89401C11.9621 5.50201 11.3621 5.50201 11.0421 5.89401C10.6741 6.35001 10.1781 6.98201 9.6581 7.71001L16.4101 14.462C16.4421 14.238 16.4661 14.014 16.4661 13.79ZM17.4981 17.798L6.9621 7.26201C6.81263 7.1122 6.60971 7.02802 6.3981 7.02802C6.18648 7.02802 5.98356 7.1122 5.8341 7.26201C5.5221 7.57401 5.5221 8.07801 5.8341 8.39001L7.9221 10.478C7.3061 11.654 6.8661 12.822 6.8661 13.79C6.8661 16.438 9.0181 18.59 11.6661 18.59C12.8821 18.59 13.9861 18.134 14.8261 17.39L16.3621 18.926C16.6741 19.238 17.1781 19.238 17.4901 18.926C17.8101 18.622 17.8101 18.11 17.4981 17.798Z" fill="#808080"/>
</svg>
