<svg width="24" height="24" viewBox="0 0 24 24" fill="none" xmlns="http://www.w3.org/2000/svg">
<path fill-rule="evenodd" clip-rule="evenodd" d="M14.88 11.832C15.656 11.296 16.2 10.416 16.2 9.59999C16.2 7.79199 14.8 6.39999 13 6.39999H8.8C8.36 6.39999 8 6.75999 8 7.19999V16.8C8 17.24 8.36 17.6 8.8 17.6H13.424C15.08 17.6 16.592 16.248 16.6 14.584C16.608 13.36 15.92 12.312 14.88 11.832ZM10.4 8.39999H12.8C13.464 8.39999 14 8.93599 14 9.59999C14 10.264 13.464 10.8 12.8 10.8H10.4V8.39999ZM13.2 15.6H10.4V13.2H13.2C13.864 13.2 14.4 13.736 14.4 14.4C14.4 15.064 13.864 15.6 13.2 15.6Z" fill="#808080"/>
</svg>
