<svg width="24" height="24" viewBox="0 0 24 24" fill="none" xmlns="http://www.w3.org/2000/svg">
<path fill-rule="evenodd" clip-rule="evenodd" d="M19.6 15.2H18C17.776 15.2 17.6 15.376 17.6 15.6C17.6 15.824 17.776 16 18 16H19.2V16.4H18.8C18.576 16.4 18.4 16.576 18.4 16.8C18.4 17.024 18.576 17.2 18.8 17.2H19.2V17.6H18C17.776 17.6 17.6 17.776 17.6 18C17.6 18.224 17.776 18.4 18 18.4H19.6C19.824 18.4 20 18.224 20 18V15.6C20 15.376 19.824 15.2 19.6 15.2ZM18 6.40001H18.4V8.40001C18.4 8.62401 18.576 8.80001 18.8 8.80001C19.024 8.80001 19.2 8.62401 19.2 8.40001V6.00001C19.2 5.77601 19.024 5.60001 18.8 5.60001H18C17.776 5.60001 17.6 5.77601 17.6 6.00001C17.6 6.22401 17.776 6.40001 18 6.40001ZM20 10.976V10.8C20 10.576 19.824 10.4 19.6 10.4H18C17.776 10.4 17.6 10.576 17.6 10.8C17.6 11.024 17.776 11.2 18 11.2H19.04L17.696 12.768C17.632 12.84 17.6 12.936 17.6 13.024V13.2C17.6 13.424 17.776 13.6 18 13.6H19.6C19.824 13.6 20 13.424 20 13.2C20 12.976 19.824 12.8 19.6 12.8H18.56L19.904 11.232C19.968 11.16 20 11.064 20 10.976ZM15.2 6.40001H5.60005C5.16005 6.40001 4.80005 6.76001 4.80005 7.20001C4.80005 7.64001 5.16005 8.00001 5.60005 8.00001H15.2C15.64 8.00001 16 7.64001 16 7.20001C16 6.76001 15.64 6.40001 15.2 6.40001ZM15.2 16H5.60005C5.16005 16 4.80005 16.36 4.80005 16.8C4.80005 17.24 5.16005 17.6 5.60005 17.6H15.2C15.64 17.6 16 17.24 16 16.8C16 16.36 15.64 16 15.2 16ZM15.2 11.2H5.60005C5.16005 11.2 4.80005 11.56 4.80005 12C4.80005 12.44 5.16005 12.8 5.60005 12.8H15.2C15.64 12.8 16 12.44 16 12C16 11.56 15.64 11.2 15.2 11.2Z" fill="#808080"/>
</svg>
