<svg width="24" height="24" viewBox="0 0 24 24" fill="none" xmlns="http://www.w3.org/2000/svg">
<path fill-rule="evenodd" clip-rule="evenodd" d="M9.60005 7.59999C9.60005 8.26399 10.136 8.79999 10.8 8.79999H13.6V17.2C13.6 17.864 14.136 18.4 14.8 18.4C15.464 18.4 16 17.864 16 17.2V8.79999H18.8C19.464 8.79999 20 8.26399 20 7.59999C20 6.93599 19.464 6.39999 18.8 6.39999H10.8C10.136 6.39999 9.60005 6.93599 9.60005 7.59999ZM6.00005 12.8H7.20005V17.2C7.20005 17.864 7.73605 18.4 8.40005 18.4C9.06405 18.4 9.60005 17.864 9.60005 17.2V12.8H10.8C11.464 12.8 12 12.264 12 11.6C12 10.936 11.464 10.4 10.8 10.4H6.00005C5.33605 10.4 4.80005 10.936 4.80005 11.6C4.80005 12.264 5.33605 12.8 6.00005 12.8Z" fill="#808080"/>
</svg>
