<svg width="24" height="24" viewBox="0 0 24 24" fill="none" xmlns="http://www.w3.org/2000/svg">
<path fill-rule="evenodd" clip-rule="evenodd" d="M16.8001 5.6V4.8C16.8001 4.36 16.4401 4 16.0001 4H6.4001C5.9601 4 5.6001 4.36 5.6001 4.8V8C5.6001 8.44 5.9601 8.8 6.4001 8.8H16.0001C16.4401 8.8 16.8001 8.44 16.8001 8V7.2H17.6001V10.4H10.4001C9.9601 10.4 9.6001 10.76 9.6001 11.2V19.2C9.6001 19.64 9.9601 20 10.4001 20H12.0001C12.4401 20 12.8001 19.64 12.8001 19.2V12H18.4001C18.8401 12 19.2001 11.64 19.2001 11.2V6.4C19.2001 5.96 18.8401 5.6 18.4001 5.6H16.8001Z" fill="#808080"/>
</svg>
