<svg width="24" height="24" viewBox="0 0 24 24" fill="none" xmlns="http://www.w3.org/2000/svg">
<path fill-rule="evenodd" clip-rule="evenodd" d="M12 18.4C12.88 18.4 13.6 17.68 13.6 16.8V16H10.4V16.8C10.4 17.68 11.12 18.4 12 18.4ZM6.40005 7.59999C6.40005 8.26399 6.93605 8.79999 7.60005 8.79999H10.4V11.2H13.6V8.79999H16.4C17.064 8.79999 17.6 8.26399 17.6 7.59999C17.6 6.93599 17.064 6.39999 16.4 6.39999H7.60005C6.93605 6.39999 6.40005 6.93599 6.40005 7.59999ZM5.60005 14.4H18.4C18.84 14.4 19.2 14.04 19.2 13.6C19.2 13.16 18.84 12.8 18.4 12.8H5.60005C5.16005 12.8 4.80005 13.16 4.80005 13.6C4.80005 14.04 5.16005 14.4 5.60005 14.4Z" fill="#808080"/>
</svg>
