<svg width="24" height="24" viewBox="0 0 24 24" fill="none" xmlns="http://www.w3.org/2000/svg">
<path fill-rule="evenodd" clip-rule="evenodd" d="M8.80026 10.4V13.6C8.80026 14.04 9.16026 14.4 9.60026 14.4C10.0403 14.4 10.4003 14.04 10.4003 13.6V5.6H12.0003V13.6C12.0003 14.04 12.3603 14.4 12.8003 14.4C13.2403 14.4 13.6003 14.04 13.6003 13.6V5.6H14.4003C14.8403 5.6 15.2003 5.24 15.2003 4.8C15.2003 4.36 14.8403 4 14.4003 4H8.93626C7.26426 4 5.77626 5.224 5.61626 6.888C5.43226 8.792 6.92826 10.4 8.80026 10.4ZM18.1201 16.52L15.8881 14.288C15.6321 14.032 15.2001 14.208 15.2001 14.568V16H6.4001C5.9601 16 5.6001 16.36 5.6001 16.8C5.6001 17.24 5.9601 17.6 6.4001 17.6H15.2001V19.032C15.2001 19.392 15.6321 19.568 15.8801 19.312L18.1121 17.08C18.2721 16.928 18.2721 16.672 18.1201 16.52Z" fill="#808080"/>
</svg>
