<svg width="24" height="24" viewBox="0 0 24 24" fill="none" xmlns="http://www.w3.org/2000/svg">
<path fill-rule="evenodd" clip-rule="evenodd" d="M6.00005 11.2C5.33605 11.2 4.80005 11.736 4.80005 12.4C4.80005 13.064 5.33605 13.6 6.00005 13.6C6.66405 13.6 7.20005 13.064 7.20005 12.4C7.20005 11.736 6.66405 11.2 6.00005 11.2ZM6.00005 6.39999C5.33605 6.39999 4.80005 6.93599 4.80005 7.59999C4.80005 8.26399 5.33605 8.79999 6.00005 8.79999C6.66405 8.79999 7.20005 8.26399 7.20005 7.59999C7.20005 6.93599 6.66405 6.39999 6.00005 6.39999ZM6.00005 16C5.33605 16 4.80005 16.544 4.80005 17.2C4.80005 17.856 5.34405 18.4 6.00005 18.4C6.65605 18.4 7.20005 17.856 7.20005 17.2C7.20005 16.544 6.66405 16 6.00005 16ZM9.20005 18H18.8C19.24 18 19.6 17.64 19.6 17.2C19.6 16.76 19.24 16.4 18.8 16.4H9.20005C8.76005 16.4 8.40005 16.76 8.40005 17.2C8.40005 17.64 8.76005 18 9.20005 18ZM9.20005 13.2H18.8C19.24 13.2 19.6 12.84 19.6 12.4C19.6 11.96 19.24 11.6 18.8 11.6H9.20005C8.76005 11.6 8.40005 11.96 8.40005 12.4C8.40005 12.84 8.76005 13.2 9.20005 13.2ZM8.40005 7.59999C8.40005 8.03999 8.76005 8.39999 9.20005 8.39999H18.8C19.24 8.39999 19.6 8.03999 19.6 7.59999C19.6 7.15999 19.24 6.79999 18.8 6.79999H9.20005C8.76005 6.79999 8.40005 7.15999 8.40005 7.59999Z" fill="#808080"/>
</svg>
