<svg width="24" height="24" viewBox="0 0 24 24" fill="none" xmlns="http://www.w3.org/2000/svg">
<path fill-rule="evenodd" clip-rule="evenodd" d="M5.60005 19.2H18.4C18.84 19.2 19.2 18.84 19.2 18.4C19.2 17.96 18.84 17.6 18.4 17.6H5.60005C5.16005 17.6 4.80005 17.96 4.80005 18.4C4.80005 18.84 5.16005 19.2 5.60005 19.2ZM4.80005 9.76799V14.24C4.80005 14.6 5.23205 14.776 5.48005 14.52L7.71205 12.288C7.87205 12.128 7.87205 11.88 7.71205 11.72L5.48005 9.47999C5.23205 9.23199 4.80005 9.40799 4.80005 9.76799ZM12 16H18.4C18.84 16 19.2 15.64 19.2 15.2C19.2 14.76 18.84 14.4 18.4 14.4H12C11.56 14.4 11.2 14.76 11.2 15.2C11.2 15.64 11.56 16 12 16ZM4.80005 5.59999C4.80005 6.03999 5.16005 6.39999 5.60005 6.39999H18.4C18.84 6.39999 19.2 6.03999 19.2 5.59999C19.2 5.15999 18.84 4.79999 18.4 4.79999H5.60005C5.16005 4.79999 4.80005 5.15999 4.80005 5.59999ZM12 9.59999H18.4C18.84 9.59999 19.2 9.23999 19.2 8.79999C19.2 8.35999 18.84 7.99999 18.4 7.99999H12C11.56 7.99999 11.2 8.35999 11.2 8.79999C11.2 9.23999 11.56 9.59999 12 9.59999ZM12 12.8H18.4C18.84 12.8 19.2 12.44 19.2 12C19.2 11.56 18.84 11.2 18.4 11.2H12C11.56 11.2 11.2 11.56 11.2 12C11.2 12.44 11.56 12.8 12 12.8Z" fill="#808080"/>
</svg>
