<svg width="24" height="24" viewBox="0 0 24 24" fill="none" xmlns="http://www.w3.org/2000/svg">
<path fill-rule="evenodd" clip-rule="evenodd" d="M5.60005 19.2H18.4C18.84 19.2 19.2 18.84 19.2 18.4C19.2 17.96 18.84 17.6 18.4 17.6H5.60005C5.16005 17.6 4.80005 17.96 4.80005 18.4C4.80005 18.84 5.16005 19.2 5.60005 19.2ZM5.60005 16H18.4C18.84 16 19.2 15.64 19.2 15.2C19.2 14.76 18.84 14.4 18.4 14.4H5.60005C5.16005 14.4 4.80005 14.76 4.80005 15.2C4.80005 15.64 5.16005 16 5.60005 16ZM5.60005 12.8H18.4C18.84 12.8 19.2 12.44 19.2 12C19.2 11.56 18.84 11.2 18.4 11.2H5.60005C5.16005 11.2 4.80005 11.56 4.80005 12C4.80005 12.44 5.16005 12.8 5.60005 12.8ZM5.60005 9.6H18.4C18.84 9.6 19.2 9.24 19.2 8.8C19.2 8.36 18.84 8 18.4 8H5.60005C5.16005 8 4.80005 8.36 4.80005 8.8C4.80005 9.24 5.16005 9.6 5.60005 9.6ZM4.80005 5.6C4.80005 6.04 5.16005 6.4 5.60005 6.4H18.4C18.84 6.4 19.2 6.04 19.2 5.6C19.2 5.16 18.84 4.8 18.4 4.8H5.60005C5.16005 4.8 4.80005 5.16 4.80005 5.6Z" fill="#808080"/>
</svg>
