<svg width="24" height="24" viewBox="0 0 24 24" fill="none" xmlns="http://www.w3.org/2000/svg">
<path fill-rule="evenodd" clip-rule="evenodd" d="M9.60005 8.00001H19.2C19.64 8.00001 20 7.64001 20 7.20001C20 6.76001 19.64 6.40001 19.2 6.40001H9.60005C9.16005 6.40001 8.80005 6.76001 8.80005 7.20001C8.80005 7.64001 9.16005 8.00001 9.60005 8.00001ZM19.2 16H9.60005C9.16005 16 8.80005 16.36 8.80005 16.8C8.80005 17.24 9.16005 17.6 9.60005 17.6H19.2C19.64 17.6 20 17.24 20 16.8C20 16.36 19.64 16 19.2 16ZM19.2 11.2H9.60005C9.16005 11.2 8.80005 11.56 8.80005 12C8.80005 12.44 9.16005 12.8 9.60005 12.8H19.2C19.64 12.8 20 12.44 20 12C20 11.56 19.64 11.2 19.2 11.2ZM6.80005 15.2H5.20005C4.97605 15.2 4.80005 15.376 4.80005 15.6C4.80005 15.824 4.97605 16 5.20005 16H6.40005V16.4H6.00005C5.77605 16.4 5.60005 16.576 5.60005 16.8C5.60005 17.024 5.77605 17.2 6.00005 17.2H6.40005V17.6H5.20005C4.97605 17.6 4.80005 17.776 4.80005 18C4.80005 18.224 4.97605 18.4 5.20005 18.4H6.80005C7.02405 18.4 7.20005 18.224 7.20005 18V15.6C7.20005 15.376 7.02405 15.2 6.80005 15.2ZM5.20005 6.40001H5.60005V8.40001C5.60005 8.62401 5.77605 8.80001 6.00005 8.80001C6.22405 8.80001 6.40005 8.62401 6.40005 8.40001V6.00001C6.40005 5.77601 6.22405 5.60001 6.00005 5.60001H5.20005C4.97605 5.60001 4.80005 5.77601 4.80005 6.00001C4.80005 6.22401 4.97605 6.40001 5.20005 6.40001ZM6.80005 10.4H5.20005C4.97605 10.4 4.80005 10.576 4.80005 10.8C4.80005 11.024 4.97605 11.2 5.20005 11.2H6.24005L4.89605 12.768C4.83205 12.84 4.80005 12.936 4.80005 13.024V13.2C4.80005 13.424 4.97605 13.6 5.20005 13.6H6.80005C7.02405 13.6 7.20005 13.424 7.20005 13.2C7.20005 12.976 7.02405 12.8 6.80005 12.8H5.76005L7.10405 11.232C7.16805 11.16 7.20005 11.064 7.20005 10.976V10.8C7.20005 10.576 7.02405 10.4 6.80005 10.4Z" fill="#808080"/>
</svg>
