<svg width="24" height="24" viewBox="0 0 24 24" fill="none" xmlns="http://www.w3.org/2000/svg">
<path fill-rule="evenodd" clip-rule="evenodd" d="M8.1361 16C8.5441 16 8.9201 15.768 9.0961 15.408L10.2321 13.136C10.3441 12.912 10.4001 12.672 10.4001 12.424V8.8C10.4001 8.36 10.0401 8 9.6001 8H6.4001C5.9601 8 5.6001 8.36 5.6001 8.8V12C5.6001 12.44 5.9601 12.8 6.4001 12.8H8.0001L7.1761 14.448C6.8161 15.16 7.3361 16 8.1361 16ZM16.1361 16C16.5441 16 16.9201 15.768 17.0961 15.408L18.2321 13.136C18.3441 12.912 18.4001 12.672 18.4001 12.424V8.8C18.4001 8.36 18.0401 8 17.6001 8H14.4001C13.9601 8 13.6001 8.36 13.6001 8.8V12C13.6001 12.44 13.9601 12.8 14.4001 12.8H16.0001L15.1761 14.448C14.8161 15.16 15.3361 16 16.1361 16Z" fill="#808080"/>
</svg>
