<svg width="24" height="24" viewBox="0 0 24 24" fill="none" xmlns="http://www.w3.org/2000/svg">
<path fill-rule="evenodd" clip-rule="evenodd" d="M17.5339 13.0357C17.1339 13.0357 16.8059 13.3317 16.7499 13.7237C16.3659 16.4197 13.7339 18.3957 10.8139 17.6917C9.01392 17.2597 7.68592 15.8757 7.30192 14.0677C6.65392 10.9717 9.01392 8.23569 11.9979 8.23569V10.4677C11.9979 10.8277 12.4299 11.0037 12.6779 10.7477L15.7099 7.71569C15.8699 7.55569 15.8699 7.30769 15.7099 7.14769L12.6779 4.11569C12.4299 3.86769 11.9979 4.04369 11.9979 4.40369V6.63569C8.04592 6.63569 4.92592 10.2197 5.72592 14.3157C6.20592 16.8037 8.04592 18.7157 10.5179 19.2677C14.3819 20.1317 17.8379 17.5077 18.3339 13.9317C18.4059 13.4597 18.0139 13.0357 17.5339 13.0357ZM10.8299 14.8117C10.7819 14.8517 10.7339 14.8837 10.6699 14.9077C10.6059 14.9317 10.5339 14.9397 10.4539 14.9397C10.3819 14.9397 10.3179 14.9317 10.2539 14.9077C10.1899 14.8837 10.1419 14.8597 10.0939 14.8197C10.0459 14.7797 10.0139 14.7397 9.98992 14.6837C9.96592 14.6277 9.94992 14.5717 9.94992 14.5077H9.26992C9.26992 14.6757 9.30192 14.8197 9.36592 14.9477C9.42992 15.0757 9.51792 15.1717 9.62992 15.2517C9.74192 15.3317 9.86192 15.3957 9.99792 15.4357C10.1339 15.4757 10.2779 15.4917 10.4219 15.4917C10.5899 15.4917 10.7499 15.4677 10.9019 15.4277C11.0539 15.3877 11.1739 15.3157 11.2859 15.2357C11.3979 15.1557 11.4779 15.0437 11.5419 14.9237C11.6059 14.8037 11.6379 14.6597 11.6379 14.4997C11.6379 14.3157 11.5899 14.1477 11.4939 14.0117C11.3979 13.8757 11.2539 13.7717 11.0619 13.6997C11.1419 13.6597 11.2219 13.6197 11.2859 13.5637C11.3499 13.5077 11.4059 13.4517 11.4459 13.3877C11.4859 13.3237 11.5259 13.2597 11.5499 13.1877C11.5739 13.1157 11.5819 13.0437 11.5819 12.9717C11.5819 12.8117 11.5499 12.6757 11.4939 12.5477C11.4379 12.4197 11.3579 12.3237 11.2539 12.2437C11.1499 12.1637 11.0299 12.0997 10.8859 12.0597C10.7419 12.0197 10.5899 11.9957 10.4139 11.9957C10.2619 11.9957 10.1099 12.0197 9.98192 12.0597C9.85392 12.0997 9.72592 12.1637 9.62992 12.2437C9.53392 12.3237 9.44592 12.4197 9.38992 12.5397C9.33392 12.6597 9.30192 12.7797 9.30192 12.9237H9.98192C9.98192 12.8677 9.99792 12.8117 10.0219 12.7637C10.0459 12.7157 10.0779 12.6757 10.1179 12.6437C10.1579 12.6117 10.2059 12.5877 10.2619 12.5637C10.3179 12.5397 10.3739 12.5397 10.4379 12.5397C10.5179 12.5397 10.5819 12.5477 10.6379 12.5717C10.6939 12.5957 10.7419 12.6197 10.7819 12.6597C10.8219 12.6997 10.8459 12.7477 10.8699 12.7957C10.8939 12.8437 10.9019 12.9077 10.9019 12.9717C10.9019 13.1157 10.8619 13.2277 10.7739 13.3157C10.6859 13.4037 10.5659 13.4437 10.3899 13.4437H10.0459V13.9717H10.4059C10.4939 13.9717 10.5659 13.9797 10.6379 14.0037C10.7099 14.0277 10.7659 14.0517 10.8139 14.0917C10.8619 14.1317 10.9019 14.1877 10.9259 14.2517C10.9499 14.3157 10.9659 14.3957 10.9659 14.4837C10.9659 14.5557 10.9579 14.6197 10.9339 14.6757C10.9099 14.7317 10.8699 14.7637 10.8299 14.8117ZM13.9499 12.0597C13.8059 12.0037 13.6539 11.9797 13.4779 11.9797C13.3019 11.9797 13.1499 12.0037 13.0059 12.0597C12.8619 12.1157 12.7419 12.2037 12.6459 12.3237C12.5499 12.4437 12.4619 12.5957 12.4139 12.7797C12.3659 12.9637 12.3339 13.1797 12.3339 13.4357V14.0277C12.3339 14.2837 12.3659 14.5077 12.4219 14.6837C12.4779 14.8597 12.5579 15.0197 12.6619 15.1397C12.7659 15.2597 12.8859 15.3477 13.0299 15.4037C13.1739 15.4597 13.3259 15.4837 13.5019 15.4837C13.6779 15.4837 13.8299 15.4597 13.9739 15.4037C14.1179 15.3477 14.2379 15.2597 14.3339 15.1397C14.4299 15.0197 14.5099 14.8677 14.5659 14.6837C14.6219 14.4997 14.6459 14.2837 14.6459 14.0277V13.4357C14.6459 13.1797 14.6139 12.9557 14.5579 12.7797C14.5019 12.6037 14.4219 12.4437 14.3179 12.3237C14.2139 12.2037 14.0939 12.1157 13.9499 12.0597ZM13.9579 14.1157C13.9579 14.2677 13.9499 14.3957 13.9259 14.4997C13.9019 14.6037 13.8779 14.6917 13.8379 14.7557C13.7979 14.8197 13.7499 14.8677 13.6859 14.8917C13.6219 14.9157 13.5579 14.9317 13.4859 14.9317C13.4139 14.9317 13.3419 14.9157 13.2859 14.8917C13.2299 14.8677 13.1739 14.8197 13.1339 14.7557C13.0939 14.6917 13.0619 14.6037 13.0379 14.4997C13.0139 14.3957 13.0059 14.2677 13.0059 14.1157V13.3397C13.0059 13.1877 13.0139 13.0597 13.0379 12.9557C13.0619 12.8517 13.0859 12.7717 13.1339 12.7077C13.1819 12.6437 13.2219 12.5957 13.2859 12.5717C13.3499 12.5477 13.4139 12.5317 13.4859 12.5317C13.5579 12.5317 13.6299 12.5477 13.6859 12.5717C13.7419 12.5957 13.7979 12.6437 13.8379 12.7077C13.8779 12.7717 13.9099 12.8517 13.9339 12.9557C13.9579 13.0597 13.9659 13.1877 13.9659 13.3397V14.1157H13.9579Z" fill="#808080"/>
</svg>
