<svg width="24" height="24" viewBox="0 0 24 24" fill="none" xmlns="http://www.w3.org/2000/svg">
<path fill-rule="evenodd" clip-rule="evenodd" d="M17.5339 13.036C17.1339 13.036 16.8059 13.332 16.7499 13.724C16.3659 16.42 13.7339 18.396 10.8139 17.692C9.01392 17.26 7.68592 15.876 7.30192 14.068C6.65392 10.972 9.01392 8.23596 11.9979 8.23596V10.468C11.9979 10.828 12.4299 11.004 12.6779 10.748L15.7099 7.71596C15.8699 7.55596 15.8699 7.30796 15.7099 7.14796L12.6779 4.11596C12.4299 3.86796 11.9979 4.04396 11.9979 4.39596V6.63596C8.04592 6.63596 4.92592 10.22 5.72592 14.316C6.20592 16.804 8.04592 18.716 10.5179 19.268C14.3819 20.132 17.8379 17.508 18.3339 13.932C18.4059 13.46 18.0139 13.036 17.5339 13.036ZM12.3819 14.756C12.3419 14.812 12.2939 14.86 12.2379 14.892C12.1819 14.924 12.1019 14.94 12.0219 14.94C11.8859 14.94 11.7739 14.9 11.6859 14.82C11.5979 14.74 11.5499 14.628 11.5339 14.492H10.8619C10.8699 14.652 10.9019 14.788 10.9659 14.916C11.0299 15.044 11.1179 15.14 11.2219 15.228C11.3259 15.316 11.4539 15.38 11.5899 15.42C11.7259 15.46 11.8699 15.484 12.0139 15.484C12.2059 15.484 12.3819 15.452 12.5259 15.388C12.6699 15.324 12.7899 15.244 12.8859 15.14C12.9819 15.036 13.0539 14.916 13.1019 14.78C13.1499 14.644 13.1739 14.5 13.1739 14.348C13.1739 14.172 13.1499 14.004 13.1019 13.868C13.0539 13.732 12.9899 13.604 12.9019 13.508C12.8139 13.412 12.7019 13.332 12.5739 13.284C12.4459 13.236 12.3019 13.204 12.1339 13.204C12.0779 13.204 12.0219 13.212 11.9739 13.22C11.9259 13.228 11.8699 13.236 11.8299 13.252C11.7899 13.268 11.7499 13.276 11.7099 13.292C11.6699 13.308 11.6459 13.324 11.6219 13.332L11.7099 12.596H13.0699V12.028H11.1579L10.9579 13.764L11.4939 13.9C11.5179 13.876 11.5419 13.852 11.5739 13.828C11.6059 13.804 11.6299 13.788 11.6699 13.772C11.7099 13.756 11.7499 13.74 11.7899 13.732C11.8299 13.724 11.8939 13.716 11.9499 13.716C12.0459 13.716 12.1259 13.732 12.1899 13.756C12.2539 13.78 12.3179 13.828 12.3579 13.876C12.3979 13.924 12.4379 13.988 12.4619 14.068C12.4859 14.148 12.4939 14.22 12.4939 14.316C12.4939 14.412 12.4859 14.492 12.4699 14.564C12.4539 14.636 12.4219 14.7 12.3819 14.756Z" fill="#808080"/>
</svg>
