<svg width="24" height="24" viewBox="0 0 24 24" fill="none" xmlns="http://www.w3.org/2000/svg">
<path fill-rule="evenodd" clip-rule="evenodd" d="M17.5339 13.0357C17.1339 13.0357 16.8059 13.3317 16.7499 13.7237C16.3659 16.4197 13.7339 18.3957 10.8139 17.6917C9.01392 17.2597 7.68592 15.8757 7.30192 14.0677C6.65392 10.9717 9.01392 8.23569 11.9979 8.23569V10.4677C11.9979 10.8277 12.4299 11.0037 12.6779 10.7477L15.7099 7.71569C15.8699 7.55569 15.8699 7.30769 15.7099 7.14769L12.6779 4.11569C12.4299 3.86769 11.9979 4.04369 11.9979 4.40369V6.63569C8.04592 6.63569 4.92592 10.2197 5.72592 14.3157C6.20592 16.8037 8.04592 18.7157 10.5179 19.2677C14.3819 20.1317 17.8379 17.5077 18.3339 13.9317C18.4059 13.4597 18.0139 13.0357 17.5339 13.0357ZM11.1179 15.4357V12.0197H11.0459L9.62992 12.5237V13.0757L10.4379 12.8277V15.4357H11.1179ZM13.8539 12.0597C13.7099 12.0037 13.5579 11.9797 13.3819 11.9797C13.2059 11.9797 13.0539 12.0037 12.9099 12.0597C12.7659 12.1157 12.6459 12.2037 12.5499 12.3237C12.4539 12.4437 12.3659 12.5957 12.3179 12.7797C12.2699 12.9637 12.2379 13.1797 12.2379 13.4357V14.0277C12.2379 14.2837 12.2699 14.5077 12.3259 14.6837C12.3819 14.8597 12.4619 15.0197 12.5659 15.1397C12.6699 15.2597 12.7899 15.3477 12.9339 15.4037C13.0779 15.4597 13.2299 15.4837 13.4059 15.4837C13.5819 15.4837 13.7339 15.4597 13.8779 15.4037C14.0219 15.3477 14.1419 15.2597 14.2379 15.1397C14.3339 15.0197 14.4139 14.8677 14.4699 14.6837C14.5259 14.4997 14.5499 14.2837 14.5499 14.0277V13.4357C14.5499 13.1797 14.5179 12.9557 14.4619 12.7797C14.4059 12.6037 14.3259 12.4437 14.2219 12.3237C14.1179 12.2037 13.9899 12.1157 13.8539 12.0597ZM13.8619 14.1157C13.8619 14.2677 13.8539 14.3957 13.8299 14.4997C13.8059 14.6037 13.7819 14.6917 13.7419 14.7557C13.7019 14.8197 13.6539 14.8677 13.5899 14.8917C13.5259 14.9157 13.4619 14.9317 13.3899 14.9317C13.3179 14.9317 13.2459 14.9157 13.1899 14.8917C13.1339 14.8677 13.0779 14.8197 13.0379 14.7557C12.9979 14.6917 12.9659 14.6037 12.9419 14.4997C12.9179 14.3957 12.9099 14.2677 12.9099 14.1157V13.3397C12.9099 13.1877 12.9179 13.0597 12.9419 12.9557C12.9659 12.8517 12.9899 12.7717 13.0379 12.7077C13.0859 12.6437 13.1259 12.5957 13.1899 12.5717C13.2539 12.5477 13.3179 12.5317 13.3899 12.5317C13.4619 12.5317 13.5339 12.5477 13.5899 12.5717C13.6459 12.5957 13.7019 12.6437 13.7419 12.7077C13.7819 12.7717 13.8139 12.8517 13.8379 12.9557C13.8619 13.0597 13.8699 13.1877 13.8699 13.3397V14.1157H13.8619Z" fill="#808080"/>
</svg>
