<svg width="24" height="24" viewBox="0 0 24 24" fill="none" xmlns="http://www.w3.org/2000/svg">
<path fill-rule="evenodd" clip-rule="evenodd" d="M17.6 4.79999H6.39999C5.51999 4.79999 4.79999 5.51999 4.79999 6.39999V17.6C4.79999 18.48 5.51199 19.2 6.39999 19.2H17.6C18.48 19.2 19.2 18.48 19.2 17.6V6.39999C19.2 5.51999 18.488 4.79999 17.6 4.79999ZM12 12.608C12 12.936 11.728 13.208 11.4 13.208H11.2V13.8C11.2 14.128 10.928 14.4 10.6 14.4C10.272 14.4 9.99999 14.128 9.99999 13.8V13.2H8.39999C7.95999 13.2 7.59999 12.84 7.59999 12.4V10.2C7.59999 9.87199 7.87199 9.59999 8.19999 9.59999C8.52799 9.59999 8.79999 9.87199 8.79999 10.2V12H9.99999V10.2C9.99999 9.87199 10.272 9.59999 10.6 9.59999C10.928 9.59999 11.2 9.87199 11.2 10.2V12H11.4C11.728 12 12 12.272 12 12.6V12.608ZM16.376 13.52C16.552 13.784 16.48 14.136 16.216 14.304C16.12 14.368 16.008 14.4 15.904 14.4C15.72 14.4 15.544 14.312 15.432 14.144L14 12V13.792C14 14.12 13.728 14.392 13.4 14.392C13.072 14.4 12.8 14.128 12.8 13.8V10.2C12.8 9.87199 13.072 9.59999 13.4 9.59999C13.728 9.59999 14 9.87199 14 10.2V11.992L15.432 9.84799C15.608 9.58399 15.96 9.51999 16.216 9.68799C16.48 9.86399 16.544 10.216 16.376 10.472L15.36 12L16.376 13.52Z" fill="#808080"/>
</svg>
