<svg width="24" height="24" viewBox="0 0 24 24" fill="none" xmlns="http://www.w3.org/2000/svg">
<path fill-rule="evenodd" clip-rule="evenodd" d="M17.6 4.79999H6.40005C5.52005 4.79999 4.80005 5.51999 4.80005 6.39999V12.8C4.80005 14.568 6.23205 16 8.00005 16H12.8C14.568 16 16 14.568 16 12.8V10.4H17.6C18.488 10.4 19.2 9.67999 19.2 8.79999V6.39999C19.2 5.51999 18.48 4.79999 17.6 4.79999ZM17.6 8.79999H16V6.39999H17.6V8.79999ZM5.60005 17.6H16.8C17.24 17.6 17.6 17.96 17.6 18.4C17.6 18.84 17.24 19.2 16.8 19.2H5.60005C5.16005 19.2 4.80005 18.84 4.80005 18.4C4.80005 17.96 5.16005 17.6 5.60005 17.6Z" fill="#808080"/>
</svg>
