<svg width="24" height="24" viewBox="0 0 24 24" fill="none" xmlns="http://www.w3.org/2000/svg">
<path fill-rule="evenodd" clip-rule="evenodd" d="M7.1999 15.2H8.7999V16.8C8.7999 17.24 9.1599 17.6 9.5999 17.6C10.0399 17.6 10.3999 17.24 10.3999 16.8V14.4C10.3999 13.96 10.0399 13.6 9.5999 13.6H7.1999C6.7599 13.6 6.3999 13.96 6.3999 14.4C6.3999 14.84 6.7599 15.2 7.1999 15.2ZM8.7999 8.79999H7.1999C6.7599 8.79999 6.3999 9.15999 6.3999 9.59999C6.3999 10.04 6.7599 10.4 7.1999 10.4H9.5999C10.0399 10.4 10.3999 10.04 10.3999 9.59999V7.19999C10.3999 6.75999 10.0399 6.39999 9.5999 6.39999C9.1599 6.39999 8.7999 6.75999 8.7999 7.19999V8.79999ZM14.3999 17.6C14.8399 17.6 15.1999 17.24 15.1999 16.8V15.2H16.7999C17.2399 15.2 17.5999 14.84 17.5999 14.4C17.5999 13.96 17.2399 13.6 16.7999 13.6H14.3999C13.9599 13.6 13.5999 13.96 13.5999 14.4V16.8C13.5999 17.24 13.9599 17.6 14.3999 17.6ZM15.1999 8.79999V7.19999C15.1999 6.75999 14.8399 6.39999 14.3999 6.39999C13.9599 6.39999 13.5999 6.75999 13.5999 7.19999V9.59999C13.5999 10.04 13.9599 10.4 14.3999 10.4H16.7999C17.2399 10.4 17.5999 10.04 17.5999 9.59999C17.5999 9.15999 17.2399 8.79999 16.7999 8.79999H15.1999Z" fill="#808080"/>
</svg>
