<svg width="24" height="24" viewBox="0 0 24 24" fill="none" xmlns="http://www.w3.org/2000/svg">
<path fill-rule="evenodd" clip-rule="evenodd" d="M7.1999 13.6C6.7599 13.6 6.3999 13.96 6.3999 14.4V16.8C6.3999 17.24 6.7599 17.6 7.1999 17.6H9.5999C10.0399 17.6 10.3999 17.24 10.3999 16.8C10.3999 16.36 10.0399 16 9.5999 16H7.9999V14.4C7.9999 13.96 7.6399 13.6 7.1999 13.6ZM7.1999 10.4C7.6399 10.4 7.9999 10.04 7.9999 9.59999V7.99999H9.5999C10.0399 7.99999 10.3999 7.63999 10.3999 7.19999C10.3999 6.75999 10.0399 6.39999 9.5999 6.39999H7.1999C6.7599 6.39999 6.3999 6.75999 6.3999 7.19999V9.59999C6.3999 10.04 6.7599 10.4 7.1999 10.4ZM15.9999 16H14.3999C13.9599 16 13.5999 16.36 13.5999 16.8C13.5999 17.24 13.9599 17.6 14.3999 17.6H16.7999C17.2399 17.6 17.5999 17.24 17.5999 16.8V14.4C17.5999 13.96 17.2399 13.6 16.7999 13.6C16.3599 13.6 15.9999 13.96 15.9999 14.4V16ZM13.5999 7.19999C13.5999 7.63999 13.9599 7.99999 14.3999 7.99999H15.9999V9.59999C15.9999 10.04 16.3599 10.4 16.7999 10.4C17.2399 10.4 17.5999 10.04 17.5999 9.59999V7.19999C17.5999 6.75999 17.2399 6.39999 16.7999 6.39999H14.3999C13.9599 6.39999 13.5999 6.75999 13.5999 7.19999Z" fill="#808080"/>
</svg>
