<svg width="24" height="24" viewBox="0 0 24 24" fill="none" xmlns="http://www.w3.org/2000/svg">
<path fill-rule="evenodd" clip-rule="evenodd" d="M15.6 5.60001H8.44795C7.75995 5.60001 7.19995 6.16001 7.19995 6.84801C7.19995 7.07201 7.29595 7.28801 7.45595 7.44001L12.4 12L7.45595 16.56C7.29595 16.712 7.19995 16.928 7.19995 17.152C7.19995 17.84 7.75995 18.4 8.44795 18.4H15.6C16.264 18.4 16.8 17.864 16.8 17.2C16.8 16.536 16.264 16 15.6 16H11.2L14.072 13.128C14.696 12.504 14.696 11.488 14.072 10.864L11.2 8.00001H15.6C16.264 8.00001 16.8 7.46401 16.8 6.80001C16.8 6.13601 16.264 5.60001 15.6 5.60001Z" fill="#808080"/>
</svg>
