<svg width="24" height="24" viewBox="0 0 24 24" fill="none" xmlns="http://www.w3.org/2000/svg">
<path fill-rule="evenodd" clip-rule="evenodd" d="M18.4 6.4H11.104L10.4 4H5.6C4.72 4 4 4.72 4 5.6V16C4 16.88 4.72 17.6 5.6 17.6H11.2L12 20H18.4C19.28 20 20 19.28 20 18.4V8C20 7.12 19.28 6.4 18.4 6.4ZM8.136 14.072C6.336 14.072 4.864 12.608 4.864 10.8C4.864 8.992 6.328 7.528 8.136 7.528C8.968 7.528 9.728 7.824 10.328 8.384L10.384 8.432L9.4 9.376L9.352 9.336C9.12 9.12 8.728 8.864 8.136 8.864C7.088 8.864 6.232 9.736 6.232 10.8C6.232 11.864 7.088 12.736 8.136 12.736C9.232 12.736 9.704 12.04 9.832 11.568H8.064V10.328H11.224L11.232 10.384C11.264 10.552 11.272 10.704 11.272 10.872C11.272 12.752 9.984 14.072 8.136 14.072ZM12.96 12.704C13.224 13.184 13.552 13.648 13.912 14.064L13.48 14.488L12.96 12.704ZM13.576 12.096H12.784L12.536 11.264H15.728C15.728 11.264 15.456 12.312 14.48 13.456C14.064 12.96 13.768 12.472 13.576 12.096ZM19.2 18.4C19.2 18.84 18.84 19.2 18.4 19.2H12.8L14.4 17.6L13.752 15.384L14.488 14.648L16.632 16.8L17.216 16.216L15.048 14.072C15.768 13.248 16.328 12.272 16.584 11.264H17.6V10.432H14.688V9.6H13.856V10.432H12.288L11.344 7.2H18.4C18.84 7.2 19.2 7.56 19.2 8V18.4Z" fill="#808080"/>
</svg>
