<svg width="24" height="24" viewBox="0 0 24 24" fill="none" xmlns="http://www.w3.org/2000/svg">
<path fill-rule="evenodd" clip-rule="evenodd" d="M14.4 8.232V4.8C14.4 4.36 14.04 4 13.6 4H10.4C9.96 4 9.6 4.36 9.6 4.8V8.232C9.6 8.336 9.64 8.44 9.72 8.512L11.72 10.512C11.88 10.672 12.128 10.672 12.288 10.512L14.288 8.512C14.36 8.44 14.4 8.344 14.4 8.232ZM8.232 9.6H4.8C4.36 9.6 4 9.96 4 10.4V13.6C4 14.04 4.36 14.4 4.8 14.4H8.232C8.336 14.4 8.44 14.36 8.512 14.28L10.512 12.28C10.672 12.12 10.672 11.872 10.512 11.712L8.512 9.712C8.44 9.64 8.344 9.6 8.232 9.6ZM9.6 15.768V19.2C9.6 19.64 9.96 20 10.4 20H13.6C14.04 20 14.4 19.64 14.4 19.2V15.768C14.4 15.664 14.36 15.56 14.28 15.488L12.28 13.488C12.12 13.328 11.872 13.328 11.712 13.488L9.712 15.488C9.64 15.56 9.6 15.656 9.6 15.768ZM15.48 9.72L13.48 11.72C13.32 11.88 13.32 12.128 13.48 12.288L15.48 14.288C15.552 14.36 15.656 14.408 15.76 14.408H19.2C19.64 14.408 20 14.048 20 13.608V10.408C20 9.968 19.64 9.608 19.2 9.608H15.768C15.656 9.6 15.56 9.64 15.48 9.72Z" fill="#808080"/>
</svg>
