<svg width="24" height="24" viewBox="0 0 24 24" fill="none" xmlns="http://www.w3.org/2000/svg">
<path fill-rule="evenodd" clip-rule="evenodd" d="M4.8 18.539H12.8C13.24 18.539 13.6 18.899 13.6 19.339C13.6 19.779 13.24 20.139 12.8 20.139H4.8C4.36 20.139 4 19.779 4 19.339C4 18.899 4.36 18.539 4.8 18.539ZM7.392 8.19502L9.656 5.93102L19.84 16.115C20.464 16.739 20.464 17.755 19.84 18.379C19.216 19.003 18.2 19.003 17.576 18.379L7.392 8.19502ZM14.184 3.66702L16.448 5.93102C17.072 6.55502 17.072 7.57102 16.448 8.19502L15.312 9.33102L10.792 4.80302L11.92 3.67502C12.544 3.04302 13.56 3.04302 14.184 3.66702ZM6.264 9.32302L10.792 13.851L9.664 14.979C9.04 15.603 8.024 15.603 7.4 14.979L5.136 12.715C4.512 12.091 4.512 11.075 5.136 10.451L6.264 9.32302Z" fill="#808080"/>
</svg>
