<svg width="24" height="24" viewBox="0 0 24 24" fill="none" xmlns="http://www.w3.org/2000/svg">
<path fill-rule="evenodd" clip-rule="evenodd" d="M5.26405 7.23199C5.64005 7.59999 6.23205 7.61599 6.63205 7.27999C6.92805 7.02399 7.18405 6.87199 7.32805 6.93599C7.72805 7.09599 7.32805 7.75999 7.08805 8.15199C6.88805 8.48799 4.80005 11.264 4.80005 13.2C4.80005 14.224 5.18405 15.072 5.87205 15.584C6.47205 16.032 7.26405 16.168 7.98405 15.952C8.84005 15.704 9.54405 14.832 10.432 13.736C11.4 12.544 12.696 10.984 13.696 10.984C15 10.984 15.016 11.792 15.104 12.416C12.08 12.928 10.8 15.352 10.8 16.712C10.8 18.072 11.952 19.184 13.368 19.184C14.672 19.184 16.8 18.12 17.12 14.304H18.088C18.64 14.304 19.088 13.856 19.088 13.304C19.088 12.752 18.64 12.304 18.088 12.304H17.112C16.992 10.984 16.24 8.94399 13.888 8.94399C12.088 8.94399 10.544 10.472 9.93605 11.216C9.47205 11.8 8.28805 13.2 8.10405 13.392C7.90405 13.632 7.56005 14.064 7.21605 14.064C6.85605 14.064 6.64005 13.4 6.92805 12.528C7.20805 11.656 8.04805 10.24 8.40805 9.71199C9.03205 8.79999 9.44805 8.17599 9.44805 7.08799C9.44805 5.35199 8.13605 4.79999 7.44005 4.79999C6.56805 4.79999 5.80805 5.30399 5.28005 5.77599C4.85605 6.15999 4.85605 6.83199 5.26405 7.23199ZM13.392 17.24C13.144 17.24 12.8 17.032 12.8 16.664C12.8 16.184 13.384 14.904 15.096 14.456C14.856 16.608 13.952 17.24 13.392 17.24Z" fill="#808080"/>
</svg>
