<svg width="24" height="24" viewBox="0 0 24 24" fill="none" xmlns="http://www.w3.org/2000/svg">
<path fill-rule="evenodd" clip-rule="evenodd" d="M15.672 10.4H14.4V6.39998C14.4 5.95998 14.04 5.59998 13.6 5.59998H10.4C9.95999 5.59998 9.59999 5.95998 9.59999 6.39998V10.4H8.32799C7.61599 10.4 7.25599 11.264 7.75999 11.768L11.432 15.44C11.744 15.752 12.248 15.752 12.56 15.44L16.232 11.768C16.736 11.264 16.384 10.4 15.672 10.4ZM6.39999 18.4C6.39999 18.84 6.75999 19.2 7.19999 19.2H16.8C17.24 19.2 17.6 18.84 17.6 18.4C17.6 17.96 17.24 17.6 16.8 17.6H7.19999C6.75999 17.6 6.39999 17.96 6.39999 18.4Z" fill="#808080"/>
</svg>
