<svg width="24" height="24" viewBox="0 0 24 24" fill="none" xmlns="http://www.w3.org/2000/svg">
<path fill-rule="evenodd" clip-rule="evenodd" d="M12.2 9.59998C12.528 9.59998 12.8 9.87198 12.8 10.2V13.8C12.8 14.128 12.528 14.4 12.2 14.4C11.872 14.4 11.6 14.128 11.6 13.8V10.2C11.6 9.87198 11.872 9.59998 12.2 9.59998ZM10.4 10.2C10.4 9.87198 10.128 9.59998 9.80002 9.59998H7.20002C6.72002 9.59998 6.40002 9.99998 6.40002 10.4V13.6C6.40002 14 6.72002 14.4 7.20002 14.4H9.60002C10.08 14.4 10.4 14 10.4 13.6V12.6C10.4 12.272 10.128 12 9.80002 12C9.47202 12 9.20002 12.272 9.20002 12.6V13.2H7.60002V10.8H9.80002C10.128 10.8 10.4 10.528 10.4 10.2ZM17.6 10.2C17.6 9.87198 17.328 9.59998 17 9.59998H14.8C14.36 9.59998 14 9.95998 14 10.4V13.8C14 14.128 14.272 14.4 14.6 14.4C14.928 14.4 15.2 14.128 15.2 13.8V12.8H16.2C16.528 12.8 16.8 12.528 16.8 12.2C16.8 11.872 16.528 11.6 16.2 11.6H15.2V10.8H17C17.328 10.8 17.6 10.528 17.6 10.2Z" fill="#808080"/>
</svg>
