<svg width="24" height="24" viewBox="0 0 24 24" fill="none" xmlns="http://www.w3.org/2000/svg">
<path fill-rule="evenodd" clip-rule="evenodd" d="M11.1068 12.5228C11.1068 14.3701 9.9628 15.5 8.0358 15.5C5.9494 15.5 4.69287 14.2106 4.69287 11.9883C4.69287 9.79404 5.9494 8.5 7.99361 8.5C9.6346 8.5 10.863 9.47053 11.0365 10.849H9.33453C9.16574 10.2488 8.65938 9.88312 7.9983 9.88312C7.02308 9.88312 6.44639 10.6474 6.44639 11.9648C6.44639 13.3058 7.08403 14.1169 8.07331 14.1169C8.85161 14.1169 9.39548 13.6574 9.44237 12.9776L9.44706 12.8744H8.20928V11.6929H11.1068V12.5228ZM13.6808 15.3828H11.9601V8.61722H13.6808V15.3828ZM16.4236 15.3828H14.7029V8.61722H19.307V10.005H16.4236V11.5429H19.0445V12.8604H16.4236V15.3828Z" fill="#808080"/>
</svg>
