<svg width="24" height="24" viewBox="0 0 24 24" fill="none" xmlns="http://www.w3.org/2000/svg">
<path fill-rule="evenodd" clip-rule="evenodd" d="M18.0001 16.3168C17.3374 16.3168 16.8001 16.8541 16.8001 17.5168C16.8001 18.1796 17.3374 18.7168 18.0001 18.7168C18.6628 18.7168 19.2001 18.1796 19.2001 17.5168C19.2001 16.8541 18.6628 16.3168 18.0001 16.3168ZM11.2001 16.3408V9.10084L14.5761 7.38084C15.1601 7.08484 15.1601 6.23684 14.5681 5.94884L10.7601 4.08484C10.2241 3.82084 9.6001 4.20484 9.6001 4.79684V17.1168C9.6001 17.5568 9.2401 17.9168 8.8001 17.9168C8.3601 17.9168 8.0001 17.5568 8.0001 17.1168V16.5328C6.5681 16.8128 5.6001 17.3248 5.6001 17.9168C5.6001 18.7968 7.7521 19.5168 10.4001 19.5168C13.0481 19.5168 15.2001 18.7968 15.2001 17.9168C15.2001 17.1248 13.4721 16.4688 11.2001 16.3408Z" fill="#808080"/>
</svg>
