<svg width="24" height="24" viewBox="0 0 24 24" fill="none" xmlns="http://www.w3.org/2000/svg">
<path fill-rule="evenodd" clip-rule="evenodd" d="M19.152 11.2C18.784 7.86401 16.136 5.21601 12.8 4.84801V4.00001C12.8 3.56001 12.44 3.20001 12 3.20001C11.56 3.20001 11.2 3.56001 11.2 4.00001V4.84801C7.86395 5.21601 5.21595 7.86401 4.84795 11.2H3.99995C3.55995 11.2 3.19995 11.56 3.19995 12C3.19995 12.44 3.55995 12.8 3.99995 12.8H4.84795C5.21595 16.136 7.86395 18.784 11.2 19.152V20C11.2 20.44 11.56 20.8 12 20.8C12.44 20.8 12.8 20.44 12.8 20V19.152C16.136 18.784 18.784 16.136 19.152 12.8H20C20.44 12.8 20.8 12.44 20.8 12C20.8 11.56 20.44 11.2 20 11.2H19.152ZM12 17.6C8.90395 17.6 6.39995 15.096 6.39995 12C6.39995 8.90401 8.90395 6.40001 12 6.40001C15.096 6.40001 17.6 8.90401 17.6 12C17.6 15.096 15.096 17.6 12 17.6Z" fill="#808080"/>
</svg>
