<svg width="24" height="24" viewBox="0 0 24 24" fill="none" xmlns="http://www.w3.org/2000/svg">
<path fill-rule="evenodd" clip-rule="evenodd" d="M20 12.8C20.44 12.8 20.8 12.44 20.8 12C20.8 11.56 20.44 11.2 20 11.2H19.152C18.784 7.86401 16.136 5.21601 12.8 4.84801V4.00001C12.8 3.56001 12.44 3.20001 12 3.20001C11.56 3.20001 11.2 3.56001 11.2 4.00001V4.84801C10.416 4.93601 9.67195 5.15201 8.98395 5.47201L10.208 6.69601C10.768 6.50401 11.376 6.40001 12 6.40001C15.096 6.40001 17.6 8.90401 17.6 12C17.6 12.632 17.496 13.232 17.304 13.792L18.528 15.016C18.848 14.328 19.064 13.584 19.152 12.8H20ZM18.752 17.504L6.49595 5.24801C6.34649 5.09821 6.14356 5.01402 5.93195 5.01402C5.72034 5.01402 5.51742 5.09821 5.36795 5.24801C5.05595 5.56001 5.05595 6.06401 5.36795 6.37601L6.43195 7.44001C5.57595 8.49601 5.00795 9.78401 4.84795 11.2H3.99995C3.55995 11.2 3.19995 11.56 3.19995 12C3.19995 12.44 3.55995 12.8 3.99995 12.8H4.84795C5.21595 16.136 7.86395 18.784 11.2 19.152V20C11.2 20.44 11.56 20.8 12 20.8C12.44 20.8 12.8 20.44 12.8 20V19.152C14.216 18.992 15.504 18.424 16.552 17.568L17.616 18.632C17.928 18.944 18.432 18.944 18.744 18.632C19.064 18.32 19.064 17.816 18.752 17.504ZM12 17.6C8.90395 17.6 6.39995 15.096 6.39995 12C6.39995 10.712 6.83995 9.52801 7.56795 8.58401L15.416 16.432C14.472 17.16 13.288 17.6 12 17.6Z" fill="#808080"/>
</svg>
