<svg width="24" height="24" viewBox="0 0 24 24" fill="none" xmlns="http://www.w3.org/2000/svg">
<path fill-rule="evenodd" clip-rule="evenodd" d="M11.2 9.59999H12.8V11.2H11.2V9.59999ZM9.60005 11.2H11.2V12.8H9.60005V11.2ZM12.8 11.2H14.4V12.8H12.8V11.2ZM14.4 9.59999H16V11.2H14.4V9.59999ZM8.00005 9.59999H9.60005V11.2H8.00005V9.59999ZM17.6 4.79999H6.40005C5.52005 4.79999 4.80005 5.51999 4.80005 6.39999V17.6C4.80005 18.48 5.52005 19.2 6.40005 19.2H17.6C18.48 19.2 19.2 18.48 19.2 17.6V6.39999C19.2 5.51999 18.48 4.79999 17.6 4.79999ZM9.60005 16.8H8.00005V15.2H9.60005V16.8ZM12.8 16.8H11.2V15.2H12.8V16.8ZM16 16.8H14.4V15.2H16V16.8ZM17.6 11.2H16V12.8H17.6V14.4H16V12.8H14.4V14.4H12.8V12.8H11.2V14.4H9.60005V12.8H8.00005V14.4H6.40005V12.8H8.00005V11.2H6.40005V7.19999C6.40005 6.75999 6.76005 6.39999 7.20005 6.39999H16.8C17.24 6.39999 17.6 6.75999 17.6 7.19999V11.2Z" fill="#808080"/>
</svg>
