<svg width="24" height="24" viewBox="0 0 24 24" fill="none" xmlns="http://www.w3.org/2000/svg">
<path fill-rule="evenodd" clip-rule="evenodd" d="M10.4001 12C9.5201 12 8.8001 12.72 8.8001 13.6C8.8001 14.48 9.5201 15.2 10.4001 15.2C11.2801 15.2 12.0001 14.48 12.0001 13.6C12.0001 12.72 11.2801 12 10.4001 12ZM7.2001 8.79998C6.3201 8.79998 5.6001 9.51998 5.6001 10.4C5.6001 11.28 6.3201 12 7.2001 12C8.0801 12 8.8001 11.28 8.8001 10.4C8.8001 9.51998 8.0801 8.79998 7.2001 8.79998ZM7.2001 15.2C6.3201 15.2 5.6001 15.92 5.6001 16.8C5.6001 17.68 6.3201 18.4 7.2001 18.4C8.0801 18.4 8.8001 17.68 8.8001 16.8C8.8001 15.92 8.0801 15.2 7.2001 15.2ZM16.8001 8.79998C17.6801 8.79998 18.4001 8.07998 18.4001 7.19998C18.4001 6.31998 17.6801 5.59998 16.8001 5.59998C15.9201 5.59998 15.2001 6.31998 15.2001 7.19998C15.2001 8.07998 15.9201 8.79998 16.8001 8.79998ZM13.6001 15.2C12.7201 15.2 12.0001 15.92 12.0001 16.8C12.0001 17.68 12.7201 18.4 13.6001 18.4C14.4801 18.4 15.2001 17.68 15.2001 16.8C15.2001 15.92 14.4801 15.2 13.6001 15.2ZM16.8001 12C15.9201 12 15.2001 12.72 15.2001 13.6C15.2001 14.48 15.9201 15.2 16.8001 15.2C17.6801 15.2 18.4001 14.48 18.4001 13.6C18.4001 12.72 17.6801 12 16.8001 12ZM13.6001 8.79998C12.7201 8.79998 12.0001 9.51998 12.0001 10.4C12.0001 11.28 12.7201 12 13.6001 12C14.4801 12 15.2001 11.28 15.2001 10.4C15.2001 9.51998 14.4801 8.79998 13.6001 8.79998ZM10.4001 5.59998C9.5201 5.59998 8.8001 6.31998 8.8001 7.19998C8.8001 8.07998 9.5201 8.79998 10.4001 8.79998C11.2801 8.79998 12.0001 8.07998 12.0001 7.19998C12.0001 6.31998 11.2801 5.59998 10.4001 5.59998Z" fill="#808080"/>
</svg>
