<svg width="24" height="24" viewBox="0 0 24 24" fill="none" xmlns="http://www.w3.org/2000/svg">
<path fill-rule="evenodd" clip-rule="evenodd" d="M9.26595 5.162V5.874L10.866 7.474V5.162H14.066V8.362H11.754L13.354 9.962H14.066V10.674L15.666 12.274V9.962H18.866V13.162H16.554L18.154 14.762H18.866V15.474L20.466 17.074V5.162C20.466 4.282 19.746 3.562 18.866 3.562H6.95395L8.55395 5.162H9.26595ZM15.666 5.162H18.066C18.506 5.162 18.866 5.522 18.866 5.962V8.362H15.666V5.162ZM20.594 19.466L4.56195 3.434C4.41249 3.2842 4.20957 3.20001 3.99795 3.20001C3.78634 3.20001 3.58342 3.2842 3.43395 3.434C3.12195 3.746 3.12195 4.25 3.43395 4.562L4.46595 5.602V17.962C4.46595 18.842 5.18595 19.562 6.06595 19.562H18.426L19.466 20.602C19.778 20.914 20.282 20.914 20.594 20.602C20.906 20.29 20.906 19.778 20.594 19.466ZM10.866 12.002L12.026 13.162H10.866V12.002ZM6.06595 7.202L7.22595 8.362H6.06595V7.202ZM9.26595 17.962H6.86595C6.42595 17.962 6.06595 17.602 6.06595 17.162V14.762H9.26595V17.962ZM9.26595 13.162H6.06595V9.962H8.82595L9.26595 10.402V13.162ZM14.066 17.962H10.866V14.762H13.626L14.066 15.202V17.962ZM15.666 17.962V16.802L16.826 17.962H15.666Z" fill="#808080"/>
</svg>
