<svg width="24" height="24" viewBox="0 0 24 24" fill="none" xmlns="http://www.w3.org/2000/svg">
<path fill-rule="evenodd" clip-rule="evenodd" d="M18.4 4H5.6C4.72 4 4 4.72 4 5.6V18.4C4 19.28 4.72 20 5.6 20H18.4C19.28 20 20 19.28 20 18.4V5.6C20 4.72 19.28 4 18.4 4ZM8.8 18.4H6.4C5.96 18.4 5.6 18.04 5.6 17.6V15.2H8.8V18.4ZM8.8 13.6H5.6V10.4H8.8V13.6ZM8.8 8.8H5.6V6.4C5.6 5.96 5.96 5.6 6.4 5.6H8.8V8.8ZM13.6 18.4H10.4V15.2H13.6V18.4ZM13.6 13.6H10.4V10.4H13.6V13.6ZM13.6 8.8H10.4V5.6H13.6V8.8ZM17.6 18.4H15.2V15.2H18.4V17.6C18.4 18.04 18.04 18.4 17.6 18.4ZM18.4 13.6H15.2V10.4H18.4V13.6ZM18.4 8.8H15.2V5.6H17.6C18.04 5.6 18.4 5.96 18.4 6.4V8.8Z" fill="#808080"/>
</svg>
