<svg width="24" height="24" viewBox="0 0 24 24" fill="none" xmlns="http://www.w3.org/2000/svg">
<path fill-rule="evenodd" clip-rule="evenodd" d="M12 4C7.584 4 4 7.584 4 12C4 16.416 7.584 20 12 20C16.416 20 20 16.416 20 12C20 7.584 16.416 4 12 4ZM8.8 16.4C7.696 16.4 6.8 15.504 6.8 14.4C6.8 13.296 7.696 12.4 8.8 12.4C9.904 12.4 10.8 13.296 10.8 14.4C10.8 15.504 9.904 16.4 8.8 16.4ZM10 8.8C10 7.696 10.896 6.8 12 6.8C13.104 6.8 14 7.696 14 8.8C14 9.904 13.104 10.8 12 10.8C10.896 10.8 10 9.904 10 8.8ZM15.2 16.4C14.096 16.4 13.2 15.504 13.2 14.4C13.2 13.296 14.096 12.4 15.2 12.4C16.304 12.4 17.2 13.296 17.2 14.4C17.2 15.504 16.304 16.4 15.2 16.4Z" fill="#808080"/>
</svg>
