<svg width="24" height="24" viewBox="0 0 24 24" fill="none" xmlns="http://www.w3.org/2000/svg">
<path fill-rule="evenodd" clip-rule="evenodd" d="M7.9999 11.2H6.3999V9.59995C6.3999 9.15995 6.0399 8.79995 5.5999 8.79995C5.1599 8.79995 4.7999 9.15995 4.7999 9.59995V11.2H3.1999C2.7599 11.2 2.3999 11.56 2.3999 12C2.3999 12.44 2.7599 12.8 3.1999 12.8H4.7999V14.4C4.7999 14.84 5.1599 15.2 5.5999 15.2C6.0399 15.2 6.3999 14.84 6.3999 14.4V12.8H7.9999C8.4399 12.8 8.7999 12.44 8.7999 12C8.7999 11.56 8.4399 11.2 7.9999 11.2ZM16.7999 12C18.1279 12 19.1919 10.928 19.1919 9.59995C19.1919 8.27195 18.1279 7.19995 16.7999 7.19995C16.5439 7.19995 16.2959 7.23995 16.0719 7.31195C16.5279 7.95995 16.7919 8.74395 16.7919 9.59995C16.7919 10.456 16.5199 11.232 16.0719 11.888C16.2959 11.96 16.5439 12 16.7999 12ZM12.7999 12C14.1279 12 15.1919 10.928 15.1919 9.59995C15.1919 8.27195 14.1279 7.19995 12.7999 7.19995C11.4719 7.19995 10.3999 8.27195 10.3999 9.59995C10.3999 10.928 11.4719 12 12.7999 12ZM12.7999 13.6C11.1999 13.6 7.9999 14.4 7.9999 16V16.8C7.9999 17.24 8.3599 17.6 8.7999 17.6H16.7999C17.2399 17.6 17.5999 17.24 17.5999 16.8V16C17.5999 14.4 14.3999 13.6 12.7999 13.6ZM18.0959 13.728C18.7599 14.312 19.1999 15.056 19.1999 16V17.2C19.1999 17.336 19.1839 17.472 19.1599 17.6H21.1999C21.4239 17.6 21.5999 17.424 21.5999 17.2V16C21.5999 14.768 19.7039 14.008 18.0959 13.728Z" fill="#808080"/>
</svg>
