<svg width="24" height="24" viewBox="0 0 24 24" fill="none" xmlns="http://www.w3.org/2000/svg">
<path fill-rule="evenodd" clip-rule="evenodd" d="M5.50605 10.3296C5.56352 10.3818 5.63988 10.3999 5.71742 10.4035C6.10089 10.4213 7.33058 10.5306 8.00005 11.2C8.80005 12 8.80005 13.6 8.80005 13.6V17.9858C8.80005 18.251 8.90541 18.5054 9.09294 18.6929L9.4536 19.0536C9.54737 19.1473 9.60005 19.2745 9.60005 19.4071V20.6C9.60005 20.7105 9.68959 20.8 9.80005 20.8H10.2C10.3105 20.8 10.4 20.7105 10.4 20.6V19.509C10.4 19.3197 10.5071 19.1465 10.6764 19.0618L11.4473 18.6764C11.786 18.507 12 18.1608 12 17.782V12.8H12.5C12.6657 12.8 12.8 12.6657 12.8 12.5V11.5C12.8 11.3343 12.6657 11.2 12.5 11.2H11.4667L11.2 10.4L16.6196 9.04514C17.2557 8.88612 17.9263 8.93986 18.529 9.19813L20.1213 9.88055C20.2532 9.93711 20.4 9.8403 20.4 9.69672V5.50333C20.4 5.35975 20.2532 5.26294 20.1213 5.3195L18.5925 5.9747C17.951 6.24962 17.236 6.29246 16.5641 6.10373C14.5818 5.54696 10.3146 4.40002 8.80005 4.40002C6.99423 4.40002 5.84061 4.72612 5.63362 4.78944C5.61099 4.79637 5.58979 4.80506 5.57037 4.81858C5.42556 4.91943 4.80005 5.47784 4.80005 7.60002C4.80005 9.4871 5.29464 10.1377 5.50605 10.3296Z" fill="#808080"/>
</svg>
