<svg width="24" height="24" viewBox="0 0 24 24" fill="none" xmlns="http://www.w3.org/2000/svg">
<path fill-rule="evenodd" clip-rule="evenodd" d="M17.6 4.79999H6.39999C5.51199 4.79999 4.79999 5.51999 4.79999 6.39999V17.6C4.79999 18.48 5.51199 19.2 6.39999 19.2H17.6C18.48 19.2 19.2 18.48 19.2 17.6V6.39999C19.2 5.51999 18.48 4.79999 17.6 4.79999ZM10.6 14.4C10.272 14.4 9.99999 14.128 9.99999 13.8V12.8H8.39999V13.8C8.39999 14.128 8.12799 14.4 7.79999 14.4C7.47199 14.4 7.19999 14.128 7.19999 13.8V10.2C7.19999 9.87199 7.47199 9.59999 7.79999 9.59999C8.12799 9.59999 8.39999 9.87199 8.39999 10.2V11.6H9.99999V10.2C9.99999 9.87199 10.272 9.59999 10.6 9.59999C10.928 9.59999 11.2 9.87199 11.2 10.2V13.8C11.2 14.128 10.928 14.4 10.6 14.4ZM13.2 9.59999H16C16.44 9.59999 16.8 9.95999 16.8 10.4V13.6C16.8 14.04 16.44 14.4 16 14.4H13.2C12.976 14.4 12.8 14.224 12.8 14V9.99999C12.8 9.77599 12.976 9.59999 13.2 9.59999ZM14 13.2H15.6V10.8H14V13.2Z" fill="#808080"/>
</svg>
