<svg width="24" height="24" viewBox="0 0 24 24" fill="none" xmlns="http://www.w3.org/2000/svg">
<path fill-rule="evenodd" clip-rule="evenodd" d="M8.20005 9.59998C7.87205 9.59998 7.60005 9.87198 7.60005 10.2V11.2H6.00005V10.2C6.00005 9.87198 5.72805 9.59998 5.40005 9.59998C5.07205 9.59998 4.80005 9.87198 4.80005 10.2V13.8C4.80005 14.128 5.07205 14.4 5.40005 14.4C5.72805 14.4 6.00005 14.128 6.00005 13.8V12.4H7.60005V13.8C7.60005 14.128 7.87205 14.4 8.20005 14.4C8.52805 14.4 8.80005 14.128 8.80005 13.8V10.2C8.80005 9.87198 8.52805 9.59998 8.20005 9.59998ZM19.2 11.6V10.8C19.2 10.136 18.664 9.59998 18 9.59998H16C15.56 9.59998 15.2 9.95998 15.2 10.4V13.8C15.2 14.128 15.472 14.4 15.8 14.4C16.128 14.4 16.4 14.128 16.4 13.8V12.8H17.28L17.856 14.072C17.944 14.272 18.144 14.4 18.36 14.4C18.76 14.4 19.024 13.992 18.872 13.632L18.48 12.72C18.88 12.48 19.2 12.08 19.2 11.6ZM16.4 11.6V10.8H18V11.6H16.4ZM12.8 9.59998H10.4C10.176 9.59998 10 9.77598 10 9.99998V14C10 14.224 10.176 14.4 10.4 14.4H12.8C13.456 14.4 14 13.856 14 13.2V10.8C14 10.144 13.456 9.59998 12.8 9.59998ZM12.8 13.2H11.2V10.8H12.8V13.2Z" fill="#808080"/>
</svg>
