<svg width="24" height="24" viewBox="0 0 24 24" fill="none" xmlns="http://www.w3.org/2000/svg">
<path fill-rule="evenodd" clip-rule="evenodd" d="M16 7.20001C13.352 7.20001 11.2 9.35201 11.2 12C11.2 14.648 13.352 16.8 16 16.8C18.648 16.8 20.8 14.648 20.8 12C20.8 9.35201 18.648 7.20001 16 7.20001ZM6.39995 8.80001C4.63195 8.80001 3.19995 10.232 3.19995 12C3.19995 13.768 4.63195 15.2 6.39995 15.2C8.16795 15.2 9.59995 13.768 9.59995 12C9.59995 10.232 8.16795 8.80001 6.39995 8.80001ZM6.39995 13.6C5.51995 13.6 4.79995 12.88 4.79995 12C4.79995 11.12 5.51995 10.4 6.39995 10.4C7.27995 10.4 7.99995 11.12 7.99995 12C7.99995 12.88 7.27995 13.6 6.39995 13.6Z" fill="#808080"/>
</svg>
