<svg width="24" height="24" viewBox="0 0 24 24" fill="none" xmlns="http://www.w3.org/2000/svg">
<path fill-rule="evenodd" clip-rule="evenodd" d="M16.59 13.15V12.15H17.47L18.046 13.422C18.134 13.622 18.334 13.75 18.55 13.75C18.95 13.75 19.214 13.342 19.062 12.982L18.67 12.07C19.07 11.83 19.39 11.43 19.39 10.95V10.15C19.39 9.486 18.854 8.95 18.19 8.95H16.19C15.75 8.95 15.39 9.31 15.39 9.75V12.87L16.222 13.702C16.438 13.614 16.59 13.398 16.59 13.15ZM16.59 10.15H18.19V10.95H16.59V10.15ZM12.99 10.15V10.47L14.19 11.67V10.15C14.19 9.494 13.646 8.95 12.99 8.95H11.47L12.67 10.15H12.99ZM19.414 18.574L5.014 4.174C4.782 3.942 4.406 3.942 4.174 4.174C3.942 4.406 3.942 4.782 4.174 5.014L8.158 8.998C7.942 9.086 7.79 9.302 7.79 9.55V10.55H6.19V9.55C6.19 9.222 5.918 8.95 5.59 8.95C5.262 8.95 4.99 9.222 4.99 9.55V13.15C4.99 13.478 5.262 13.75 5.59 13.75C5.918 13.75 6.19 13.478 6.19 13.15V11.75H7.79V13.15C7.79 13.478 8.062 13.75 8.39 13.75C8.718 13.75 8.99 13.478 8.99 13.15V9.83L10.19 11.03V13.35C10.19 13.574 10.366 13.75 10.59 13.75H12.59C12.686 13.75 12.782 13.742 12.878 13.718L18.566 19.406C18.798 19.638 19.174 19.638 19.406 19.406C19.638 19.182 19.638 18.806 19.414 18.574Z" fill="#808080"/>
</svg>
