<svg width="24" height="24" viewBox="0 0 24 24" fill="none" xmlns="http://www.w3.org/2000/svg">
<path fill-rule="evenodd" clip-rule="evenodd" d="M11.52 4.81559C7.69605 5.06359 4.80005 8.41559 4.80005 12.2476V17.5996C4.80005 18.9276 5.87205 19.9996 7.20005 19.9996H8.00005C8.88005 19.9996 9.60005 19.2796 9.60005 18.3996V15.1996C9.60005 14.3196 8.88005 13.5996 8.00005 13.5996H6.40005V12.2316C6.40005 9.15959 8.76805 6.48759 11.832 6.39959C15.008 6.31159 17.6 8.84759 17.6 11.9996V13.5996H16C15.12 13.5996 14.4 14.3196 14.4 15.1996V18.3996C14.4 19.2796 15.12 19.9996 16 19.9996H16.8C18.128 19.9996 19.2 18.9276 19.2 17.5996V11.9996C19.2 7.86359 15.712 4.54359 11.52 4.81559Z" fill="#808080"/>
</svg>
