<svg width="24" height="24" viewBox="0 0 24 24" fill="none" xmlns="http://www.w3.org/2000/svg">
<path fill-rule="evenodd" clip-rule="evenodd" d="M11.52 3.21561C7.69605 3.46361 4.80005 6.81561 4.80005 10.6476V15.9996C4.80005 17.3276 5.87205 18.3996 7.20005 18.3996H8.00005C8.88005 18.3996 9.60005 17.6796 9.60005 16.7996V13.5996C9.60005 12.7196 8.88005 11.9996 8.00005 11.9996H6.40005V10.6316C6.40005 7.55961 8.76805 4.88761 11.832 4.79961C15.008 4.71161 17.6 7.24761 17.6 10.3996V11.9996H16C15.12 11.9996 14.4 12.7196 14.4 13.5996V16.7996C14.4 17.6796 15.12 18.3996 16 18.3996H17.6V19.1996H12.8C12.36 19.1996 12 19.5596 12 19.9996C12 20.4396 12.36 20.7996 12.8 20.7996H16.8C18.128 20.7996 19.2 19.7276 19.2 18.3996V10.3996C19.2 6.26361 15.712 2.94361 11.52 3.21561Z" fill="#808080"/>
</svg>
