<svg width="24" height="24" viewBox="0 0 24 24" fill="none" xmlns="http://www.w3.org/2000/svg">
<path fill-rule="evenodd" clip-rule="evenodd" d="M16.618 12.018L19.802 8.83399C20.114 8.52199 20.114 8.01799 19.802 7.70599L16.33 4.23399C16.1805 4.08419 15.9776 4 15.766 4C15.5544 4 15.3515 4.08419 15.202 4.23399L12.018 7.41799L8.834 4.23399C8.674 4.08199 8.474 4.00199 8.266 4.00199C8.066 4.00199 7.858 4.08199 7.706 4.23399L4.234 7.70599C3.922 8.01799 3.922 8.52199 4.234 8.83399L7.418 12.018L4.234 15.202C3.922 15.514 3.922 16.018 4.234 16.33L7.706 19.802C8.018 20.114 8.522 20.114 8.834 19.802L12.018 16.618L15.202 19.802C15.362 19.962 15.562 20.034 15.77 20.034C15.978 20.034 16.178 19.954 16.338 19.802L19.81 16.33C20.122 16.018 20.122 15.514 19.81 15.202L16.618 12.018ZM12.034 9.60199C12.474 9.60199 12.834 9.96199 12.834 10.402C12.834 10.842 12.474 11.202 12.034 11.202C11.594 11.202 11.234 10.842 11.234 10.402C11.234 9.96199 11.594 9.60199 12.034 9.60199ZM8.266 11.17L5.362 8.27399L8.266 5.36999L11.162 8.26599L8.266 11.17ZM10.434 12.802C9.994 12.802 9.634 12.442 9.634 12.002C9.634 11.562 9.994 11.202 10.434 11.202C10.874 11.202 11.234 11.562 11.234 12.002C11.234 12.442 10.874 12.802 10.434 12.802ZM12.034 14.402C11.594 14.402 11.234 14.042 11.234 13.602C11.234 13.162 11.594 12.802 12.034 12.802C12.474 12.802 12.834 13.162 12.834 13.602C12.834 14.042 12.474 14.402 12.034 14.402ZM13.634 11.202C14.074 11.202 14.434 11.562 14.434 12.002C14.434 12.442 14.074 12.802 13.634 12.802C13.194 12.802 12.834 12.442 12.834 12.002C12.834 11.562 13.194 11.202 13.634 11.202ZM15.762 18.674L12.858 15.778L15.762 12.874L18.658 15.77L15.762 18.674Z" fill="#808080"/>
</svg>
