<svg width="24" height="24" viewBox="0 0 24 24" fill="none" xmlns="http://www.w3.org/2000/svg">
<path fill-rule="evenodd" clip-rule="evenodd" d="M16 18.664C15.768 18.664 15.552 18.616 15.392 18.544C14.824 18.248 14.424 17.84 14.024 16.64C13.616 15.392 12.848 14.808 12.112 14.24C11.48 13.752 10.824 13.248 10.256 12.216C9.83199 11.448 9.59999 10.608 9.59999 9.86402C9.59999 7.62402 11.36 5.86402 13.6 5.86402C15.648 5.86402 17.304 7.34402 17.56 9.31202C17.608 9.63202 17.888 9.86402 18.216 9.86402H18.488C18.888 9.86402 19.2 9.51202 19.152 9.11202C18.792 6.33602 16.488 4.26402 13.6 4.26402C10.456 4.26402 7.99999 6.72002 7.99999 9.86402C7.99999 10.872 8.30399 11.984 8.85599 12.984C9.58399 14.304 10.44 14.968 11.136 15.504C11.784 16 12.248 16.36 12.504 17.144C12.984 18.6 13.6 19.416 14.688 19.984C15.096 20.168 15.544 20.264 16 20.264C17.472 20.264 18.712 19.272 19.088 17.92C19.2 17.488 18.888 17.064 18.44 17.064H18.16C17.856 17.064 17.616 17.28 17.512 17.568C17.304 18.2 16.704 18.664 16 18.664ZM7.97599 4.24002C7.63199 3.89602 7.07999 3.92802 6.77599 4.29602C5.54399 5.81602 4.79999 7.75202 4.79999 9.86402C4.79999 11.976 5.54399 13.912 6.77599 15.424C7.07999 15.792 7.63199 15.824 7.96799 15.488C8.25599 15.2 8.27999 14.744 8.02399 14.432C7.01599 13.192 6.39999 11.6 6.39999 9.86402C6.39999 8.12802 7.01599 6.53602 8.03199 5.30402C8.29599 4.98402 8.26399 4.52802 7.97599 4.24002ZM11.6 9.86402C11.6 10.968 12.496 11.864 13.6 11.864C14.704 11.864 15.6 10.968 15.6 9.86402C15.6 8.76002 14.704 7.86402 13.6 7.86402C12.496 7.86402 11.6 8.76002 11.6 9.86402Z" fill="#808080"/>
</svg>
