<svg width="24" height="24" viewBox="0 0 24 24" fill="none" xmlns="http://www.w3.org/2000/svg">
<path fill-rule="evenodd" clip-rule="evenodd" d="M17.6 5.60001H6.40005C5.51205 5.60001 4.80005 6.32001 4.80005 7.20001V16.8C4.80005 17.68 5.51205 18.4 6.40005 18.4H17.6C18.48 18.4 19.2 17.68 19.2 16.8V7.20001C19.2 6.32001 18.48 5.60001 17.6 5.60001ZM10.6 14.4C10.272 14.4 10 14.128 10 13.8V12.8H8.40005V13.8C8.40005 14.128 8.12805 14.4 7.80005 14.4C7.47205 14.4 7.20005 14.128 7.20005 13.8V10.2C7.20005 9.87201 7.47205 9.60001 7.80005 9.60001C8.12805 9.60001 8.40005 9.87201 8.40005 10.2V11.6H10V10.2C10 9.87201 10.272 9.60001 10.6 9.60001C10.928 9.60001 11.2 9.87201 11.2 10.2V13.8C11.2 14.128 10.928 14.4 10.6 14.4ZM16.8 13.6C16.8 14.04 16.44 14.4 16 14.4H15.4V15C15.4 15.328 15.128 15.6 14.8 15.6C14.472 15.6 14.2 15.328 14.2 15V14.4H13.6C13.16 14.4 12.8 14.04 12.8 13.6V10.4C12.8 9.96001 13.16 9.60001 13.6 9.60001H16C16.44 9.60001 16.8 9.96001 16.8 10.4V13.6ZM14 13.2H15.6V10.8H14V13.2Z" fill="#808080"/>
</svg>
