<svg width="24" height="24" viewBox="0 0 24 24" fill="none" xmlns="http://www.w3.org/2000/svg">
<path fill-rule="evenodd" clip-rule="evenodd" d="M7.49809 13.832L9.66609 16V19.2C9.66609 19.64 10.0261 20 10.4661 20H13.6661C14.1061 20 14.4661 19.64 14.4661 19.2V16L16.6341 13.832C16.7861 13.68 16.8661 13.48 16.8661 13.264V10.4C16.8661 9.96 16.5061 9.6 16.0661 9.6H8.06609C7.62609 9.6 7.26609 9.96 7.26609 10.4V13.272C7.26609 13.48 7.35409 13.688 7.49809 13.832ZM12.0661 4C12.5061 4 12.8661 4.36 12.8661 4.8V5.6C12.8661 6.04 12.5061 6.4 12.0661 6.4C11.6261 6.4 11.2661 6.04 11.2661 5.6V4.8C11.2661 4.36 11.6261 4 12.0661 4ZM5.83409 6.536C6.14609 6.224 6.65009 6.224 6.97009 6.536L7.53809 7.104C7.85009 7.416 7.85009 7.92 7.53809 8.232C7.22609 8.544 6.72209 8.544 6.41009 8.232L5.83409 7.664C5.68428 7.51453 5.6001 7.31161 5.6001 7.1C5.6001 6.88839 5.68428 6.68547 5.83409 6.536ZM16.6021 7.104L17.1701 6.536C17.4821 6.224 17.9861 6.224 18.2981 6.536C18.6101 6.848 18.6101 7.352 18.2981 7.664L17.7301 8.232C17.4181 8.544 16.9141 8.544 16.6021 8.232C16.4523 8.08253 16.3681 7.87961 16.3681 7.668C16.3681 7.45639 16.4523 7.25347 16.6021 7.104Z" fill="#808080"/>
</svg>
