<svg width="24" height="24" viewBox="0 0 24 24" fill="none" xmlns="http://www.w3.org/2000/svg">
<path fill-rule="evenodd" clip-rule="evenodd" d="M13.512 9.36L12 10.872L10.488 9.36C10.3385 9.2102 10.1356 9.12601 9.924 9.12601C9.71239 9.12601 9.50947 9.2102 9.36 9.36C9.048 9.672 9.048 10.176 9.36 10.488L10.872 12L9.36 13.512C9.048 13.824 9.048 14.328 9.36 14.64C9.672 14.952 10.176 14.952 10.488 14.64L12 13.128L13.512 14.64C13.824 14.952 14.328 14.952 14.64 14.64C14.952 14.328 14.952 13.824 14.64 13.512L13.128 12L14.64 10.488C14.952 10.176 14.952 9.672 14.64 9.36C14.328 9.056 13.816 9.056 13.512 9.36ZM12 4C7.576 4 4 7.576 4 12C4 16.424 7.576 20 12 20C16.424 20 20 16.424 20 12C20 7.576 16.424 4 12 4ZM12 18.4C8.472 18.4 5.6 15.528 5.6 12C5.6 8.472 8.472 5.6 12 5.6C15.528 5.6 18.4 8.472 18.4 12C18.4 15.528 15.528 18.4 12 18.4Z" fill="#808080"/>
</svg>
