<svg width="24" height="24" viewBox="0 0 24 24" fill="none" xmlns="http://www.w3.org/2000/svg">
<path fill-rule="evenodd" clip-rule="evenodd" d="M13.2412 4.80278C9.16923 4.69078 5.83323 7.96278 5.83323 12.0028H4.40123C4.04123 12.0028 3.86523 12.4348 4.12123 12.6828L6.35323 14.9228C6.51323 15.0828 6.76123 15.0828 6.92123 14.9228L9.15323 12.6828C9.40123 12.4348 9.22523 12.0028 8.86523 12.0028H7.43323C7.43323 8.88278 9.97723 6.36278 13.1132 6.40278C16.0892 6.44278 18.5932 8.94678 18.6332 11.9228C18.6732 15.0508 16.1532 17.6028 13.0332 17.6028C11.7452 17.6028 10.5532 17.1628 9.60923 16.4188C9.28923 16.1708 8.84123 16.1948 8.55323 16.4828C8.21723 16.8188 8.24123 17.3868 8.61723 17.6748C9.83323 18.6348 11.3612 19.2028 13.0332 19.2028C17.0732 19.2028 20.3452 15.8668 20.2332 11.7948C20.1292 8.04278 16.9932 4.90678 13.2412 4.80278ZM12.8332 8.80278C12.5052 8.80278 12.2332 9.07478 12.2332 9.40278V12.3468C12.2332 12.6268 12.3852 12.8908 12.6252 13.0348L15.1212 14.5148C15.4092 14.6828 15.7772 14.5868 15.9452 14.3068C16.1132 14.0188 16.0172 13.6508 15.7372 13.4828L13.4332 12.1148V9.39478C13.4332 9.07478 13.1612 8.80278 12.8332 8.80278Z" fill="#808080"/>
</svg>
