<svg width="24" height="24" viewBox="0 0 24 24" fill="none" xmlns="http://www.w3.org/2000/svg">
<path fill-rule="evenodd" clip-rule="evenodd" d="M12.0001 21.2C12.0001 21.2 10.4001 21.2 9.2001 20.8C8.0001 20.4 8.0001 20 8.0001 20V18C8.0001 18 6.8001 18 5.6001 17.2C4.4001 16.4 5.2001 14.8 5.2001 14.8C5.2001 14.8 3.6001 14 3.6001 9.59995C3.6001 5.19995 7.6001 3.19995 12.0001 3.19995C16.4001 3.19995 20.4001 5.19995 20.4001 9.59995C20.4001 14 18.8001 14.8 18.8001 14.8C18.8001 14.8 19.6001 16.4 18.4001 17.2C17.2001 18 16.0001 18 16.0001 18V20C16.0001 20 16.0001 20.4 14.8001 20.8C13.6001 21.2 12.0001 21.2 12.0001 21.2ZM10.4001 12.8C10.4001 13.6836 9.68375 14.4 8.8001 14.4C7.91644 14.4 7.2001 13.6836 7.2001 12.8C7.2001 11.9163 7.91644 11.2 8.8001 11.2C9.68375 11.2 10.4001 11.9163 10.4001 12.8ZM12.0503 15.21L12.0603 15.2V15.22L12.8403 16C13.2403 16.4 13.2403 17.2 12.8403 17.2C12.4773 17.2 12.1144 16.8707 12.0503 16.8096C11.9861 16.8707 11.6232 17.2 11.2603 17.2C10.8603 17.2 10.8603 16.4 11.2603 16L12.0403 15.22V15.2L12.0503 15.21ZM17.6001 12.8C17.6001 13.6836 16.8838 14.4 16.0001 14.4C15.1164 14.4 14.4001 13.6836 14.4001 12.8C14.4001 11.9163 15.1164 11.2 16.0001 11.2C16.8838 11.2 17.6001 11.9163 17.6001 12.8Z" fill="#808080"/>
</svg>
