<svg width="24" height="24" viewBox="0 0 24 24" fill="none" xmlns="http://www.w3.org/2000/svg">
<path fill-rule="evenodd" clip-rule="evenodd" d="M19.991 9.00883C19.7577 8.87589 19.4877 8.79995 19.2 8.79995H5.6C5.31228 8.79995 5.0423 8.87589 4.80901 9.00883C4.90523 7.99391 5.7599 7.19995 6.8 7.19995H18C19.0401 7.19995 19.8948 7.99391 19.991 9.00883ZM20.2827 12.378C19.7751 11.665 18.9419 11.2 18 11.2H6.8C5.85812 11.2 5.02487 11.665 4.51733 12.378C4.1993 12.0856 4 11.666 4 11.2C4 10.3163 4.71634 9.59995 5.6 9.59995H19.2C20.0837 9.59995 20.8 10.3163 20.8 11.2C20.8 11.666 20.6007 12.0856 20.2827 12.378ZM18 12H6.8C5.69543 12 4.8 12.8954 4.8 14V14.8C4.8 15.9045 5.69543 16.8 6.8 16.8H18C19.1046 16.8 20 15.9045 20 14.8V14C20 12.8954 19.1046 12 18 12Z" fill="#808080"/>
</svg>
