<svg width="24" height="24" viewBox="0 0 24 24" fill="none" xmlns="http://www.w3.org/2000/svg">
<path fill-rule="evenodd" clip-rule="evenodd" d="M8 5.59999C7.11634 5.59999 6.4 6.31633 6.4 7.19999C6.4 8.08364 7.11634 8.79999 8 8.79999C8.88366 8.79999 9.6 8.08364 9.6 7.19999C9.6 6.31633 8.88366 5.59999 8 5.59999ZM19.2 12H11.32C11.072 11.824 10.848 11.632 10.664 11.424L9.544 10.184C9.392 10.016 9.2 9.87999 8.992 9.78399C8.76 9.67199 8.496 9.59999 8.224 9.59999H8.2C7.208 9.59999 6.4 10.408 6.4 11.4V12H4.8C4.36 12 4 12.36 4 12.8V18.4C4 19.28 4.72 20 5.6 20H18.4C19.28 20 20 19.28 20 18.4V12.8C20 12.36 19.64 12 19.2 12ZM8 17.6C8 18.04 7.64 18.4 7.2 18.4C6.76 18.4 6.4 18.04 6.4 17.6V14.4C6.4 13.96 6.76 13.6 7.2 13.6C7.64 13.6 8 13.96 8 14.4V17.6ZM11.2 17.6C11.2 18.04 10.84 18.4 10.4 18.4C9.96 18.4 9.6 18.04 9.6 17.6V14.4C9.6 13.96 9.96 13.6 10.4 13.6C10.84 13.6 11.2 13.96 11.2 14.4V17.6ZM14.4 17.6C14.4 18.04 14.04 18.4 13.6 18.4C13.16 18.4 12.8 18.04 12.8 17.6V14.4C12.8 13.96 13.16 13.6 13.6 13.6C14.04 13.6 14.4 13.96 14.4 14.4V17.6ZM17.6 17.6C17.6 18.04 17.24 18.4 16.8 18.4C16.36 18.4 16 18.04 16 17.6V14.4C16 13.96 16.36 13.6 16.8 13.6C17.24 13.6 17.6 13.96 17.6 14.4V17.6ZM14.448 10.4C14.848 10.4 15.192 10.088 15.2 9.68799C15.232 8.56799 14.736 7.70399 14.12 7.08799C13.6 6.51199 13.48 6.07199 13.504 5.55999C13.52 5.14399 13.176 4.79999 12.752 4.79999C12.352 4.79999 12.008 5.11999 12 5.51999C11.976 6.55199 12.4 7.46399 13.08 8.11999C13.568 8.59199 13.704 9.13599 13.704 9.63199C13.696 10.048 14.024 10.4 14.448 10.4ZM17.648 10.4C18.048 10.4 18.392 10.088 18.4 9.68799C18.432 8.56799 17.936 7.70399 17.32 7.08799C16.8 6.51199 16.68 6.07199 16.704 5.55999C16.72 5.14399 16.376 4.79999 15.952 4.79999C15.552 4.79999 15.208 5.11999 15.2 5.51999C15.176 6.55199 15.6 7.46399 16.28 8.11999C16.768 8.59199 16.904 9.13599 16.904 9.63199C16.896 10.048 17.224 10.4 17.648 10.4Z" fill="#808080"/>
</svg>
