<svg width="24" height="24" viewBox="0 0 24 24" fill="none" xmlns="http://www.w3.org/2000/svg">
<path fill-rule="evenodd" clip-rule="evenodd" d="M7.20001 5.6V8.136C7.20001 8.56 7.36801 8.968 7.67201 9.272L10.4 12L7.66401 14.736C7.36801 15.04 7.20001 15.448 7.20001 15.872V18.4C7.20001 19.28 7.92001 20 8.80001 20H15.2C16.08 20 16.8 19.28 16.8 18.4V15.872C16.8 15.448 16.632 15.04 16.336 14.744L13.6 12L16.328 9.28C16.632 8.976 16.8 8.568 16.8 8.144V5.6C16.8 4.72 16.08 4 15.2 4H8.80001C7.92001 4 7.20001 4.72 7.20001 5.6Z" fill="#808080"/>
</svg>
