<svg width="24" height="24" viewBox="0 0 24 24" fill="none" xmlns="http://www.w3.org/2000/svg">
<path fill-rule="evenodd" clip-rule="evenodd" d="M7.1999 5.59998C6.75807 5.59998 6.3999 5.95815 6.3999 6.39998C6.3999 6.8418 6.75807 7.19998 7.1999 7.19998H8.06908C8.20088 8.8793 8.69163 11.4092 10.4076 12.3906C8.66464 13.3581 8.1684 15.9098 8.03575 17.6H7.1999C6.75807 17.6 6.3999 17.9581 6.3999 18.4C6.3999 18.8418 6.75807 19.2 7.1999 19.2L7.9999 19.2H15.9999L16.7999 19.2C17.2417 19.2 17.5999 18.8418 17.5999 18.4C17.5999 17.9581 17.2417 17.6 16.7999 17.6H15.9641C15.8323 15.9207 15.3415 13.3908 13.6255 12.4094C15.3685 11.4418 15.8647 8.89012 15.9974 7.19998H16.7999C17.2417 7.19998 17.5999 6.8418 17.5999 6.39998C17.5999 5.95815 17.2417 5.59998 16.7999 5.59998H16.0332H8.03324H7.1999Z" fill="#808080"/>
</svg>
