<svg width="24" height="24" viewBox="0 0 24 24" fill="none" xmlns="http://www.w3.org/2000/svg">
<path fill-rule="evenodd" clip-rule="evenodd" d="M12 18.4L11.312 17.712C10.368 16.768 10.376 15.232 11.328 14.304L12 13.648C11.688 13.616 11.456 13.6 11.2 13.6C9.06405 13.6 4.80005 14.672 4.80005 16.8V18.4H12ZM11.2 12C12.968 12 14.4 10.568 14.4 8.80001C14.4 7.03201 12.968 5.60001 11.2 5.60001C9.43205 5.60001 8.00005 7.03201 8.00005 8.80001C8.00005 10.568 9.43205 12 11.2 12ZM15.344 18.224C15.032 18.536 14.52 18.536 14.208 18.224L12.552 16.552C12.248 16.24 12.248 15.744 12.552 15.44L12.56 15.432C12.872 15.12 13.376 15.12 13.68 15.432L14.776 16.528L18.32 12.96C18.632 12.648 19.136 12.648 19.448 12.96L19.456 12.968C19.76 13.28 19.76 13.776 19.456 14.08L15.344 18.224Z" fill="#808080"/>
</svg>
