<svg width="24" height="24" viewBox="0 0 24 24" fill="none" xmlns="http://www.w3.org/2000/svg">
<path fill-rule="evenodd" clip-rule="evenodd" d="M11.472 14.417C11.784 14.729 12.288 14.729 12.6 14.417L17.688 9.32901C18 9.01701 18 8.51301 17.688 8.20101L13.728 4.24101C13.424 3.92101 12.92 3.92101 12.608 4.23301L7.51205 9.32901C7.20005 9.64101 7.20005 10.145 7.51205 10.457L11.472 14.417ZM13.168 5.92901L16 8.76101L12.04 12.721L9.20805 9.88901L13.168 5.92901ZM18.728 14.729L17.032 13.033C16.888 12.889 16.68 12.801 16.472 12.801H16.256L14.656 14.401H16.184L17.6 16.001H6.40005L7.82405 14.401H9.46405L7.86405 12.801H7.52805C7.31205 12.801 7.11205 12.889 6.96005 13.033L5.26405 14.729C4.96805 15.033 4.80005 15.441 4.80005 15.865V18.401C4.80005 19.281 5.52005 20.001 6.40005 20.001H17.6C18.48 20.001 19.2 19.289 19.2 18.401V15.865C19.2 15.441 19.032 15.033 18.728 14.729Z" fill="#808080"/>
</svg>
