<svg width="24" height="24" viewBox="0 0 24 24" fill="none" xmlns="http://www.w3.org/2000/svg">
<path fill-rule="evenodd" clip-rule="evenodd" d="M6 11.2H4.4V10.2C4.4 9.87198 4.128 9.59998 3.8 9.59998C3.472 9.59998 3.2 9.87198 3.2 10.2V13.8C3.2 14.128 3.472 14.4 3.8 14.4C4.128 14.4 4.4 14.128 4.4 13.8V12.4H6V13.8C6 14.128 6.272 14.4 6.6 14.4C6.928 14.4 7.2 14.128 7.2 13.8V10.2C7.2 9.87198 6.928 9.59998 6.6 9.59998C6.272 9.59998 6 9.87198 6 10.2V11.2ZM8.6 10.8H9.2V13.8C9.2 14.128 9.472 14.4 9.8 14.4C10.128 14.4 10.4 14.128 10.4 13.8V10.8H11C11.328 10.8 11.6 10.528 11.6 10.2C11.6 9.87198 11.328 9.59998 11 9.59998H8.6C8.272 9.59998 8 9.87198 8 10.2C8 10.528 8.272 10.8 8.6 10.8ZM13 10.8H13.6V13.8C13.6 14.128 13.872 14.4 14.2 14.4C14.528 14.4 14.8 14.128 14.8 13.8V10.8H15.4C15.728 10.8 16 10.528 16 10.2C16 9.87198 15.728 9.59998 15.4 9.59998H13C12.672 9.59998 12.4 9.87198 12.4 10.2C12.4 10.528 12.672 10.8 13 10.8ZM19.6 9.59998H17.6C17.16 9.59998 16.8 9.95998 16.8 10.4V13.8C16.8 14.128 17.072 14.4 17.4 14.4C17.728 14.4 18 14.128 18 13.8V12.8H19.6C20.264 12.8 20.8 12.256 20.8 11.6V10.8C20.8 10.144 20.264 9.59998 19.6 9.59998ZM19.6 11.6H18V10.8H19.6V11.6Z" fill="#808080"/>
</svg>
