<svg width="24" height="24" viewBox="0 0 24 24" fill="none" xmlns="http://www.w3.org/2000/svg">
<path fill-rule="evenodd" clip-rule="evenodd" d="M16.8 9.6H16V8C16 5.792 14.208 4 12 4C9.79201 4 8.00001 5.792 8.00001 8V9.6H7.20001C6.32001 9.6 5.60001 10.32 5.60001 11.2V19.2C5.60001 20.08 6.32001 20.8 7.20001 20.8H16.8C17.68 20.8 18.4 20.08 18.4 19.2V11.2C18.4 10.32 17.68 9.6 16.8 9.6ZM12 16.8C11.12 16.8 10.4 16.08 10.4 15.2C10.4 14.32 11.12 13.6 12 13.6C12.88 13.6 13.6 14.32 13.6 15.2C13.6 16.08 12.88 16.8 12 16.8ZM9.60001 9.6V8C9.60001 6.672 10.672 5.6 12 5.6C13.328 5.6 14.4 6.672 14.4 8V9.6H9.60001Z" fill="#808080"/>
</svg>
