<svg width="24" height="24" viewBox="0 0 24 24" fill="none" xmlns="http://www.w3.org/2000/svg">
<path fill-rule="evenodd" clip-rule="evenodd" d="M8.43337 9.01702L11.2001 10.6144V7.53138L9.73732 6.06864C9.4249 5.75622 9.4249 5.24969 9.73732 4.93727C10.0497 4.62485 10.5563 4.62485 10.8687 4.93727L11.2001 5.26864V4.00001C11.2001 3.55818 11.5582 3.20001 12.0001 3.20001C12.4419 3.20001 12.8001 3.55818 12.8001 4.00001V5.26864L13.1314 4.93727C13.4439 4.62485 13.9504 4.62485 14.2628 4.93727C14.5752 5.24969 14.5752 5.75622 14.2628 6.06864L12.8001 7.53138V10.6144L15.7317 8.92182L16.2485 6.99296C16.3628 6.56618 16.8015 6.31292 17.2283 6.42727C17.6551 6.54163 17.9083 6.98029 17.794 7.40707L17.6912 7.79045L18.5283 7.30719C18.9109 7.08628 19.4002 7.21738 19.6211 7.60001C19.842 7.98265 19.7109 8.47192 19.3283 8.69283L18.4034 9.22681L18.9253 9.36666C19.3521 9.48101 19.6054 9.91968 19.491 10.3465C19.3767 10.7732 18.938 11.0265 18.5112 10.9121L16.4438 10.3582L13.6001 12L16.6087 13.7371L18.5112 13.2273C18.938 13.1129 19.3767 13.3662 19.491 13.793C19.6054 14.2197 19.3521 14.6584 18.9253 14.7728L18.5683 14.8684L19.3283 15.3072C19.7109 15.5281 19.842 16.0174 19.6211 16.4C19.4002 16.7826 18.9109 16.9137 18.5283 16.6928L17.6471 16.1841L17.794 16.7323C17.9083 17.1591 17.6551 17.5978 17.2283 17.7121C16.8015 17.8265 16.3628 17.5732 16.2485 17.1465L15.6875 15.0527L12.8001 13.3857V16.2745L14.2628 17.7373C14.5752 18.0497 14.5752 18.5562 14.2628 18.8686C13.9504 19.1811 13.4439 19.1811 13.1314 18.8686L12.8001 18.5373V20C12.8001 20.4418 12.4419 20.8 12.0001 20.8C11.5582 20.8 11.2001 20.4418 11.2001 20V18.5373L10.8687 18.8686C10.5563 19.1811 10.0497 19.1811 9.73732 18.8686C9.4249 18.5562 9.4249 18.0497 9.73732 17.7373L11.2001 16.2745V13.3857L8.35076 15.0307L7.89103 16.7465C7.77667 17.1732 7.338 17.4265 6.91123 17.3121C6.48446 17.1978 6.23119 16.7591 6.34555 16.3323L6.39117 16.1621L5.47186 16.6928C5.08923 16.9137 4.59996 16.7826 4.37904 16.4C4.15813 16.0174 4.28923 15.5281 4.67186 15.3072L5.94922 14.5697L5.21418 14.3728C4.7874 14.2584 4.53414 13.8197 4.64849 13.393C4.76284 12.9662 5.20151 12.7129 5.62829 12.8273L7.90881 13.4383L10.4001 12L7.60051 10.3837L5.62829 10.9121C5.20151 11.0265 4.76284 10.7732 4.64849 10.3465C4.53414 9.91968 4.7874 9.48101 5.21418 9.36666L5.64091 9.25232L4.67186 8.69283C4.28923 8.47192 4.15813 7.98265 4.37904 7.60001C4.59996 7.21738 5.08923 7.08628 5.47186 7.30719L6.47378 7.88565L6.34555 7.40707C6.23119 6.98029 6.48446 6.54163 6.91123 6.42727C7.338 6.31292 7.77667 6.56618 7.89103 6.99296L8.43337 9.01702Z" fill="#808080"/>
</svg>
