<svg width="24" height="24" viewBox="0 0 24 24" fill="none" xmlns="http://www.w3.org/2000/svg">
<path fill-rule="evenodd" clip-rule="evenodd" d="M13.6 8.80001H13.9882L11.8225 10.9657L10.9656 11.8226L10.9648 11.8234L8.79995 13.9882V13.6C8.79995 13.16 8.43995 12.8 7.99995 12.8C7.55995 12.8 7.19995 13.16 7.19995 13.6V16C7.19995 16.44 7.55995 16.8 7.99995 16.8H10.4C10.84 16.8 11.2 16.44 11.2 16C11.2 15.56 10.84 15.2 10.4 15.2H9.85092L12.097 12.9539L12.9539 12.0971L12.9544 12.0965L15.2 9.85098V10.4C15.2 10.84 15.56 11.2 16 11.2C16.44 11.2 16.8 10.84 16.8 10.4V8.00001C16.8 7.56001 16.44 7.20001 16 7.20001H13.6C13.16 7.20001 12.8 7.56001 12.8 8.00001C12.8 8.44001 13.16 8.80001 13.6 8.80001Z" fill="#808080"/>
</svg>
