<svg width="24" height="24" viewBox="0 0 24 24" fill="none" xmlns="http://www.w3.org/2000/svg">
<path fill-rule="evenodd" clip-rule="evenodd" d="M15.1141 4C15.1141 4 13.682 4.00662 12.6519 5.36429C11.7359 6.57159 11.9691 7.60419 11.9691 7.60419C11.9691 7.60419 13.2111 7.81904 14.3038 6.50607C15.3271 5.27645 15.1141 4 15.1141 4ZM12.9217 8.25081C12.5846 8.38669 12.3076 8.49834 12.1002 8.49834C11.8415 8.49834 11.5295 8.37815 11.1669 8.23848C10.6641 8.04476 10.0639 7.81358 9.37399 7.81358C7.54745 7.81358 5.6001 9.44904 5.6001 12.5667C5.6001 15.7355 7.90075 19.6776 9.72183 19.6775C10.0051 19.6775 10.356 19.5503 10.745 19.4093C11.2289 19.234 11.7718 19.0372 12.317 19.0372C12.8059 19.0372 13.2298 19.1956 13.6482 19.3519C14.0558 19.5042 14.4582 19.6545 14.9102 19.6545C16.9045 19.6545 18.3809 15.4988 18.3809 15.4988C18.3809 15.4988 16.2688 14.681 16.2688 12.3082C16.2688 10.2048 17.9643 9.33791 17.9643 9.33791C17.9643 9.33791 17.0974 7.7699 14.8938 7.7699C14.1148 7.7699 13.4456 8.03962 12.9217 8.25081Z" fill="#808080"/>
</svg>
