<svg width="24" height="24" viewBox="0 0 24 24" fill="none" xmlns="http://www.w3.org/2000/svg">
<path fill-rule="evenodd" clip-rule="evenodd" d="M7.45186 8.45706C7.47977 6.45318 9.22877 4.81019 11.4738 4.59366H12.4826C14.7278 4.81026 16.4767 6.45332 16.5046 8.45706H7.45186ZM5.80358 9.46619C6.35787 9.46619 6.80728 9.9156 6.80728 10.47V14.7759C6.80728 15.3302 6.35787 15.7796 5.80358 15.7796C5.24921 15.7796 4.7998 15.3302 4.7998 14.7759V10.47C4.79973 9.91567 5.24914 9.46619 5.80358 9.46619ZM10.7179 16.7917H13.2389V19.3722C13.2389 19.9265 13.6883 20.3759 14.2426 20.3759C14.7969 20.3759 15.2463 19.9265 15.2463 19.3722V16.7917H15.2954C15.9849 16.7917 16.5402 16.2264 16.5402 15.5249V9.00105C16.5402 8.96215 16.5388 8.92352 16.5356 8.8856H7.42254C7.41922 8.92366 7.41633 8.96215 7.41633 9.00105V15.5249C7.41633 16.2265 7.97168 16.7917 8.66109 16.7917H8.71045V19.3722C8.71045 19.9265 9.15986 20.3759 9.71415 20.3759C10.2685 20.3759 10.7179 19.9265 10.7179 19.3722V16.7917ZM19.1568 10.47C19.1568 9.9156 18.7074 9.46619 18.1531 9.46619C17.5987 9.46619 17.1493 9.91567 17.1493 10.47V14.7759C17.1493 15.3302 17.5987 15.7796 18.1531 15.7796C18.7074 15.7796 19.1568 15.3302 19.1568 14.7759V10.47ZM14.5063 6.66125C14.5071 6.94136 14.2753 7.16909 13.9884 7.16987C13.7017 7.17057 13.4685 6.94418 13.4677 6.66407V6.66125C13.4669 6.38108 13.6987 6.15341 13.9855 6.15264C14.2723 6.15186 14.5054 6.37819 14.5063 6.65843V6.66125ZM10.6299 6.66125C10.6307 6.94136 10.3989 7.16909 10.1121 7.16987C9.82532 7.17057 9.59216 6.94418 9.59131 6.66407V6.66125C9.59054 6.38108 9.82236 6.15341 10.1092 6.15264C10.3959 6.15186 10.6291 6.37819 10.6299 6.65843V6.66125Z" fill="#808080"/>
</svg>
