<svg width="24" height="24" viewBox="0 0 24 24" fill="none" xmlns="http://www.w3.org/2000/svg">
<path fill-rule="evenodd" clip-rule="evenodd" d="M17.7539 7.29706C18.0651 6.98593 18.0651 6.47681 17.7539 6.16569C17.4428 5.85456 16.9337 5.85456 16.6226 6.16569L13.6 9.18823V8.8C13.6 8.36 13.24 8 12.8 8C12.36 8 12 8.36 12 8.8V11.2C12 11.64 12.36 12 12.8 12H15.2C15.64 12 16 11.64 16 11.2C16 10.76 15.64 10.4 15.2 10.4H14.651L17.7539 7.29706ZM10.4 15.2V14.651L7.29709 17.7539C6.98596 18.065 6.47685 18.065 6.16572 17.7539C5.85459 17.4428 5.85459 16.9337 6.16572 16.6225L9.18826 13.6H8.80003C8.36003 13.6 8.00003 13.24 8.00003 12.8C8.00003 12.36 8.36003 12 8.80003 12H11.2C11.64 12 12 12.36 12 12.8V15.2C12 15.64 11.64 16 11.2 16C10.76 16 10.4 15.64 10.4 15.2Z" fill="#808080"/>
</svg>
