<svg width="24" height="24" viewBox="0 0 24 24" fill="none" xmlns="http://www.w3.org/2000/svg">
<path fill-rule="evenodd" clip-rule="evenodd" d="M6.24624 18.4V19.2C6.24624 19.2 6.30333 20 7.08397 20C7.8646 20 7.8646 19.2 7.8646 19.2V18.4H15.1472V19.1853C15.1472 19.1853 15.1472 20 15.9564 20C16.7656 20 16.7656 19.1853 16.7656 19.1853V18.4C16.7656 18.4 17.7349 17.6343 18.384 16.8001C19.033 15.9659 19.1931 14.8929 19.1931 13.5048C19.1931 12.3472 20 12.8769 20 12.0002C20 11.3662 20 11.2002 19.1931 11.2002C18.3863 11.2002 5.43706 11.2002 5.43706 11.2002C5.43706 11.2002 5.43706 6.83351 5.43706 6.40038C5.43706 5.96725 6.36997 5.78022 6.36997 6.0903C6.36997 6.40038 5.92961 7.59237 6.90672 8.49379C7.64454 9.17446 8.59066 8.49379 9.32733 7.8487C9.83264 7.4062 10.4372 6.54436 10.1344 5.96695C9.8316 5.38953 8.74985 4.96176 8.23062 5.02592C7.71138 5.09009 7.45176 5.32537 7.45176 5.32537C7.45176 5.32537 6.91648 3.97569 5.77218 4.00045C4.62788 4.0252 3.8187 5.26855 3.8187 6.40038C3.8187 7.53221 3.8187 11.2002 3.8187 11.2002C3.8187 11.2002 2.93915 11.0868 3.00452 12C3.06989 12.9132 3.79706 12.4024 3.8187 13.6002C3.84033 14.798 3.8187 15.838 4.62788 16.8001C5.43706 17.7622 6.24624 18.4 6.24624 18.4Z" fill="#808080"/>
</svg>
