<svg width="24" height="24" viewBox="0 0 24 24" fill="none" xmlns="http://www.w3.org/2000/svg">
<path fill-rule="evenodd" clip-rule="evenodd" d="M8.40918 6.39999C8.9363 6.39999 9.41687 6.44646 9.85097 6.53956C10.2851 6.63258 10.6571 6.78517 10.9672 6.99681C11.2772 7.20871 11.5175 7.4904 11.6881 7.84187C11.8586 8.19335 11.9439 8.62736 11.9439 9.1441C11.9439 9.70228 11.8172 10.1674 11.5641 10.5393C11.3107 10.9114 10.9362 11.2162 10.4401 11.454C11.1222 11.6504 11.6312 11.9942 11.9672 12.4849C12.3028 12.976 12.4712 13.5678 12.4712 14.2601C12.4712 14.8182 12.3627 15.3015 12.1455 15.7098C11.9286 16.1182 11.6364 16.4514 11.2697 16.7095C10.9027 16.968 10.4841 17.159 10.0139 17.2833C9.54082 17.4076 9.05359 17.47 8.56441 17.4692H3.2002V6.39999H8.40918ZM8.09915 10.8805C8.53326 10.8805 8.88975 10.7772 9.16888 10.5704C9.44793 10.3638 9.58741 10.0278 9.58741 9.56271C9.58741 9.30443 9.54095 9.09244 9.44793 8.92709C9.35492 8.76183 9.23092 8.63238 9.07587 8.53954C8.92081 8.44643 8.74252 8.38211 8.541 8.34567C8.33372 8.30907 8.12361 8.29093 7.91312 8.29147H5.63419V10.8806H8.09915V10.8805ZM8.23864 15.5778C8.47624 15.5778 8.70372 15.5545 8.92072 15.508C9.13773 15.4614 9.32887 15.3839 9.4944 15.2753C9.65957 15.167 9.7914 15.0196 9.88969 14.8335C9.98781 14.6475 10.0369 14.4098 10.0369 14.1203C10.0369 13.5521 9.87658 13.1464 9.55635 12.9035C9.23585 12.6606 8.81213 12.539 8.2851 12.539H5.63419V15.5776L8.23864 15.5778ZM15.5342 15.3453C15.8649 15.666 16.3404 15.8259 16.9605 15.8259C17.4047 15.8259 17.7873 15.715 18.1076 15.4926C18.428 15.2707 18.6244 15.0353 18.6967 14.7872H20.6346C20.3246 15.7483 19.849 16.4358 19.2084 16.849C18.5674 17.2625 17.7922 17.4692 16.8828 17.4692C16.2524 17.4692 15.6838 17.3684 15.1774 17.1668C14.6709 16.9654 14.2419 16.6785 13.8908 16.3064C13.5393 15.9344 13.268 15.4903 13.0768 14.9733C12.8855 14.4567 12.7901 13.8881 12.7901 13.268C12.7901 12.6687 12.888 12.1106 13.0846 11.5938C13.2808 11.0771 13.5597 10.6301 13.9219 10.2526C14.2834 9.87555 14.715 9.57838 15.2163 9.36128C15.7175 9.14419 16.273 9.03577 16.8829 9.03577C17.5651 9.03577 18.1592 9.16751 18.6658 9.43107C19.1721 9.69454 19.5882 10.0489 19.9139 10.493C20.2394 10.9374 20.4743 11.444 20.6194 12.0122C20.764 12.5808 20.8155 13.1749 20.7744 13.7951H14.9918C15.0226 14.508 15.2032 15.0251 15.5342 15.3453ZM18.0224 11.1285C17.7589 10.8392 17.3583 10.6944 16.821 10.6944C16.4695 10.6944 16.1776 10.754 15.9451 10.8727C15.7126 10.9917 15.5264 11.1387 15.3869 11.3145C15.2475 11.4904 15.1491 11.6765 15.0924 11.8726C15.0355 12.069 15.0019 12.2448 14.9916 12.3997H18.5727C18.4694 11.8416 18.286 11.4179 18.0224 11.1285ZM14.6156 6.96205H19.0901V8.20267H14.6156V6.96205Z" fill="#808080"/>
</svg>
