<svg width="24" height="24" viewBox="0 0 24 24" fill="none" xmlns="http://www.w3.org/2000/svg">
<path fill-rule="evenodd" clip-rule="evenodd" d="M5.27119 7.67119C4.46678 8.919 4 10.405 4 12C4 16.4183 7.58172 20 12 20C13.595 20 15.081 19.5332 16.3288 18.7288L13.3621 15.7621C12.937 15.9161 12.4783 16 12 16C9.79086 16 8 14.2091 8 12C8 11.5217 8.08394 11.063 8.2379 10.6379L5.27119 7.67119ZM10.6379 8.2379L7.67119 5.27119C8.919 4.46678 10.405 4 12 4C16.4183 4 20 7.58172 20 12C20 13.595 19.5332 15.081 18.7288 16.3288L15.7621 13.3621C15.9161 12.937 16 12.4783 16 12C16 9.79086 14.2091 8 12 8C11.5217 8 11.063 8.08394 10.6379 8.2379Z" fill="#808080"/>
</svg>
