<svg width="24" height="24" viewBox="0 0 24 24" fill="none" xmlns="http://www.w3.org/2000/svg">
<path fill-rule="evenodd" clip-rule="evenodd" d="M8.07215 6.43325L15.885 6.39147C15.885 6.39147 16.7909 5.99427 16.7999 5.59826C16.8089 5.20226 15.921 4.80505 15.921 4.80505C15.921 4.80505 14.125 4 13.2926 4H10.6986C9.81774 4 8.07215 4.80505 8.07215 4.80505C8.07215 4.80505 7.20001 5.18149 7.20001 5.59826C7.20001 6.01504 8.07215 6.43325 8.07215 6.43325ZM8.81954 7.2C8.80664 7.33133 8.80001 7.4648 8.80001 7.6C8.80001 9.58822 10.2327 11.2 12 11.2C13.7673 11.2 15.2 9.58822 15.2 7.6C15.2 7.4648 15.1934 7.33133 15.1805 7.2H8.81954ZM9.60124 12.435C9.60656 12.2715 9.60998 12.1271 9.612 12H9.20001C8.09544 12 7.20001 12.8954 7.20001 14V18C7.20001 19.1046 8.09544 20 9.20001 20H14.8C15.9046 20 16.8 19.1046 16.8 18V14C16.8 12.8954 15.9046 12 14.8 12H14.4V12.435C14.4 12.9783 13.4838 13.6 13.4838 13.6C13.4838 13.6 14.4 14.2438 14.4 15.2C14.4 16.1562 13.4884 19.1736 12.0691 19.1736C10.6498 19.1736 9.60124 16.232 9.60124 15.2C9.60124 14.168 10.5588 13.6 10.5588 13.6C10.5588 13.6 9.57148 13.3488 9.60124 12.435ZM13.6 15.5026C13.6 16.0808 12.0138 18.3694 12.0138 18.3694C12.0138 18.3694 10.4277 16.1531 10.4277 15.4183C10.4277 14.6836 11.4655 13.5875 11.4655 13.5875C11.4655 13.5875 10.4277 13.3224 10.4277 12.7925C10.4277 12.2626 11.0346 12 12.0219 12C13.0092 12 13.6 12.2746 13.6 12.7925C13.6 13.3104 12.5479 13.5875 12.5479 13.5875C12.5479 13.5875 13.6 14.9245 13.6 15.5026Z" fill="#808080"/>
</svg>
