<svg width="24" height="24" viewBox="0 0 24 24" fill="none" xmlns="http://www.w3.org/2000/svg">
<path fill-rule="evenodd" clip-rule="evenodd" d="M3.2002 12C3.2002 10.4043 3.59327 8.93174 4.3794 7.5824C5.16553 6.23306 6.23327 5.16534 7.5826 4.3792C8.93193 3.59306 10.4045 3.2 12.0002 3.2C13.5959 3.2 15.0685 3.59306 16.4178 4.3792C17.7671 5.16534 18.8349 6.23306 19.621 7.5824C20.4071 8.93174 20.8002 10.4043 20.8002 12C20.8002 13.5957 20.4071 15.0683 19.621 16.4176C18.8349 17.7669 17.7671 18.8347 16.4178 19.6208C15.0685 20.4069 13.5959 20.8 12.0002 20.8C10.4045 20.8 8.93193 20.4069 7.5826 19.6208C6.23327 18.8347 5.16553 17.7669 4.3794 16.4176C3.59327 15.0683 3.2002 13.5957 3.2002 12ZM4.661 12C4.661 13.8304 5.277 15.4437 6.509 16.84C7.0722 15.7371 7.96393 14.6869 9.1842 13.6896C10.4045 12.6923 11.5954 12.0645 12.757 11.8064C12.581 11.3957 12.4109 11.0261 12.2466 10.6976C10.2285 11.3429 8.04607 11.6656 5.6994 11.6656C5.2418 11.6656 4.90153 11.6597 4.6786 11.648C4.6786 11.6949 4.67567 11.7536 4.6698 11.824C4.66393 11.8944 4.661 11.9531 4.661 12ZM4.8898 10.1872C5.14793 10.2107 5.52927 10.2224 6.0338 10.2224C7.99327 10.2224 9.853 9.9584 11.613 9.4304C10.7213 7.8464 9.74153 6.5264 8.6738 5.4704C7.74687 5.93974 6.95193 6.59094 6.289 7.424C5.62607 8.25706 5.15967 9.17814 4.8898 10.1872ZM7.5122 17.7904C8.83807 18.8229 10.3341 19.3392 12.0002 19.3392C12.8685 19.3392 13.7309 19.1749 14.5874 18.8464C14.3527 16.84 13.8951 14.8981 13.2146 13.0208C12.1351 13.2555 11.0469 13.848 9.9498 14.7984C8.85273 15.7488 8.04019 16.7461 7.5122 17.7904ZM10.205 4.9072C11.2375 5.97494 12.1938 7.30666 13.0738 8.9024C14.6695 8.2336 15.8722 7.38294 16.6818 6.3504C15.3207 5.224 13.7602 4.6608 12.0002 4.6608C11.4018 4.6608 10.8034 4.74294 10.205 4.9072ZM13.7074 10.152C13.8834 10.5275 14.0829 11.0027 14.3058 11.5776C15.1741 11.4955 16.1186 11.4544 17.1394 11.4544C17.8669 11.4544 18.5885 11.472 19.3042 11.5072C19.2103 9.91146 18.6354 8.49174 17.5794 7.248C16.8167 8.38614 15.5261 9.35414 13.7074 10.152ZM14.7458 12.8096C15.3442 14.5461 15.749 16.3296 15.9602 18.16C16.8871 17.5616 17.6439 16.7931 18.2306 15.8544C18.8173 14.9157 19.1693 13.9008 19.2866 12.8096C18.4301 12.7509 17.6498 12.7216 16.9458 12.7216C16.3005 12.7216 15.5671 12.7509 14.7458 12.8096Z" fill="#808080"/>
</svg>
