<svg width="24" height="24" viewBox="0 0 24 24" fill="none" xmlns="http://www.w3.org/2000/svg">
<path fill-rule="evenodd" clip-rule="evenodd" d="M10.3622 18.1866C10.3622 18.1866 6.3999 17.757 6.3999 14.3977C6.3999 11.0383 8.42855 9.65331 10.1159 8.81021C11.8033 7.96712 12.0665 5.59998 12.0665 5.59998C12.0665 5.59998 14.704 7.08698 15.0833 8.94947C15.4625 10.812 14.3127 12.3555 14.3127 12.3555C14.3127 12.3555 15.5836 12.2583 16.126 11.3341C16.6685 10.41 16.791 9.65331 16.791 9.65331C16.791 9.65331 19.2543 13.4403 17.9461 15.3724C16.6379 17.3045 14.7 18.4 14.7 18.4C14.7 18.4 12.3474 17.3414 11.7654 16.1557C11.1834 14.9701 11.6018 13.28 11.6018 13.28C11.6018 13.28 9.67987 13.8929 9.37652 15.3724C9.07317 16.852 10.3622 18.1866 10.3622 18.1866Z" fill="#808080"/>
</svg>
