<svg width="24" height="24" viewBox="0 0 24 24" fill="none" xmlns="http://www.w3.org/2000/svg">
<path fill-rule="evenodd" clip-rule="evenodd" d="M12.0002 4.00081C7.58231 4.00081 4.00098 7.58214 4.00098 12C4.00098 16.4179 7.58231 19.9992 12.0002 19.9992C16.418 19.9992 19.9994 16.4179 19.9994 12C19.9994 7.58214 16.418 4.00081 12.0002 4.00081ZM9.86597 15.8673H8.10967V10.1931H9.86597V15.8673ZM8.97945 9.45006C8.40586 9.45006 7.94086 8.98127 7.94086 8.40309C7.94086 7.82484 8.40592 7.35609 8.97945 7.35609C9.55298 7.35609 10.018 7.82484 10.018 8.40309C10.018 8.98131 9.55301 9.45006 8.97945 9.45006ZM16.4477 15.8673H14.6999V12.8888C14.6999 12.0719 14.3896 11.6159 13.7437 11.6159C13.0407 11.6159 12.6734 12.0908 12.6734 12.8888V15.8673H10.9889V10.1931H12.6734V10.9573C12.6734 10.9573 13.1801 10.0201 14.3833 10.0201C15.5865 10.0201 16.4478 10.7547 16.4478 12.2745L16.4477 15.8673Z" fill="#808080"/>
</svg>
