<svg width="24" height="24" viewBox="0 0 24 24" fill="none" xmlns="http://www.w3.org/2000/svg">
<path fill-rule="evenodd" clip-rule="evenodd" d="M12.3105 4.8C14.4074 4.80002 16.0799 5.40114 17.328 6.60338C18.576 7.80565 19.2 9.38377 19.2 11.3377C19.2 12.4486 18.8648 13.4749 18.1944 14.4168C17.4527 15.4431 16.5683 15.9563 15.5414 15.9563C15.1988 15.9563 14.8778 15.8474 14.5783 15.6296C14.2788 15.4119 14.0792 15.1412 13.9795 14.8177C13.6796 15.2395 13.2729 15.5663 12.7594 15.7983C12.246 16.0302 11.7111 16.1461 11.1548 16.1461C10.3277 16.1461 9.63944 15.8333 9.09008 15.2077C8.54071 14.5822 8.26602 13.8618 8.26605 13.0465C8.26602 11.8653 8.60841 10.8387 9.29316 9.96687C10.0349 9.02507 10.9765 8.55416 12.1179 8.55415C12.5171 8.55416 12.8985 8.64201 13.2622 8.81771C13.6259 8.99342 13.9149 9.24304 14.1291 9.56654L14.2786 8.78585H16.2042L15.4128 12.8142C15.3701 12.997 15.3345 13.1657 15.306 13.3204C15.2775 13.4751 15.2633 13.6228 15.2633 13.7635C15.2633 14.199 15.413 14.4168 15.7125 14.4168C16.2401 14.4168 16.6893 13.981 17.0602 13.1096C17.3597 12.3926 17.5095 11.7458 17.5095 11.1691C17.5095 9.70686 17.0316 8.56446 16.0759 7.74192C15.1202 6.91941 13.8864 6.50814 12.3745 6.50813C10.8052 6.50814 9.46074 7.07409 8.34112 8.20596C7.2215 9.33786 6.66168 10.642 6.66168 12.1184C6.66168 13.7772 7.1574 15.1374 8.14882 16.1989C9.14024 17.2604 10.4633 17.7912 12.1179 17.7912C12.8597 17.7912 13.5836 17.742 14.2897 17.6438C14.9957 17.5455 15.6912 17.3838 16.3759 17.1585L16.8252 18.8666C16.1548 19.0777 15.4024 19.2361 14.5679 19.3416C13.7334 19.4472 12.9167 19.4999 12.1179 19.4999C9.96396 19.4999 8.20585 18.7793 6.84353 17.3381C5.48121 15.8968 4.80005 14.157 4.80005 12.1184C4.80005 10.0795 5.54184 8.35003 7.02539 6.93001C8.50894 5.51002 10.2706 4.80002 12.3105 4.8V4.8ZM12.3105 10.5789C11.7825 10.5789 11.3402 10.8109 10.9837 11.2747C10.6272 11.7385 10.4489 12.2377 10.4489 12.7723C10.4489 13.1516 10.5701 13.489 10.8126 13.7844C11.0551 14.0798 11.3831 14.2275 11.7966 14.2275C12.3247 14.2275 12.7634 14.0025 13.1127 13.5524C13.4621 13.1023 13.6367 12.5398 13.6367 12.076C13.6367 11.6121 13.5155 11.2467 13.273 10.9796C13.0305 10.7125 12.7097 10.5789 12.3105 10.5789Z" fill="#808080"/>
</svg>
