<svg width="24" height="24" viewBox="0 0 24 24" fill="none" xmlns="http://www.w3.org/2000/svg">
<path fill-rule="evenodd" clip-rule="evenodd" d="M4 5.7815L13.2231 4L13.1911 19.9947L4 18.0874V5.7815ZM7.27028 14.0876C6.57277 13.2711 6.37839 11.9882 6.71228 10.9225C7.17652 9.44056 8.35428 8.93973 9.33994 9.28276C9.90252 9.47944 10.4034 9.95283 10.6709 10.6778C10.799 11.0254 10.8676 11.4233 10.8722 11.8281C10.8813 12.5553 10.6298 13.4106 10.1312 14.0075C9.36509 14.9223 8.06613 15.0161 7.27257 14.0876H7.27028ZM7.98837 13.3123C7.64534 12.8023 7.55157 12.0019 7.71394 11.3364C7.94035 10.4125 8.51894 10.0992 9.00147 10.3142C9.27819 10.4377 9.52289 10.7327 9.65324 11.1855C9.71499 11.4027 9.74929 11.6497 9.75158 11.9036C9.75616 12.3564 9.63266 12.8915 9.38796 13.2643C9.01291 13.836 8.37715 13.8932 7.98837 13.3146V13.3123ZM13.8246 7.37091H19.1782C19.4778 7.37091 19.7225 7.61561 19.7225 7.91519V8.11187L15.5146 10.9499C15.4597 10.9865 15.3248 11.0917 15.2127 11.1626C15.0481 11.2701 15.0366 11.2495 14.8628 11.1512C14.5953 11.0025 14.1333 10.6869 13.8223 10.472V7.37091H13.8246ZM19.7248 9.37195V15.0984C19.7248 15.5558 19.3497 15.9331 18.8901 15.9331H13.8246V11.6977C14.1287 11.899 14.5335 12.1643 14.7828 12.3175C14.984 12.441 15.0206 12.4982 15.2447 12.3678C15.3477 12.3083 15.4483 12.2306 15.5169 12.1849L19.7248 9.37424V9.37195Z" fill="#808080"/>
</svg>
