<svg width="24" height="24" viewBox="0 0 24 24" fill="none" xmlns="http://www.w3.org/2000/svg">
<path fill-rule="evenodd" clip-rule="evenodd" d="M12.6003 4.8C8.55257 4.8 6.3999 7.39419 6.3999 10.2221C6.3999 11.5335 7.13273 13.1698 8.30639 13.6886C8.48387 13.7685 8.5812 13.7343 8.62128 13.5689C8.65563 13.4435 8.81021 12.8391 8.88464 12.554C8.90754 12.4628 8.89609 12.383 8.82166 12.2975C8.43235 11.8471 8.12318 11.026 8.12318 10.2563C8.12318 8.28362 9.69189 6.36792 12.3598 6.36792C14.6671 6.36792 16.2816 7.86741 16.2816 10.0112C16.2816 12.4343 14.9991 14.1106 13.3331 14.1106C12.4114 14.1106 11.7243 13.3865 11.9419 12.4913C12.2052 11.4251 12.7205 10.2791 12.7205 9.50944C12.7205 8.81956 12.3312 8.24941 11.5354 8.24941C10.5965 8.24941 9.83502 9.17875 9.83502 10.4274C9.83502 11.2199 10.1156 11.7558 10.1156 11.7558C10.1156 11.7558 9.18807 15.5074 9.01631 16.2087C8.72433 17.3946 9.05639 19.316 9.08502 19.4814C9.10219 19.5726 9.20525 19.6011 9.2625 19.527C9.3541 19.4072 10.4762 17.8051 10.7911 16.6477C10.9056 16.2258 11.3751 14.5154 11.3751 14.5154C11.6843 15.0741 12.5774 15.5416 13.5278 15.5416C16.356 15.5416 18.3999 13.0558 18.3999 9.97126C18.3885 7.01218 15.8579 4.8 12.6003 4.8Z" fill="#808080"/>
</svg>
