<svg width="24" height="24" viewBox="0 0 24 24" fill="none" xmlns="http://www.w3.org/2000/svg">
<path fill-rule="evenodd" clip-rule="evenodd" d="M14.4178 19.7863C14.2041 19.7153 13.8841 19.6443 13.7065 19.573C13.4931 19.4667 13.2441 19.4667 12.4621 19.502C11.7155 19.5373 11.3241 19.502 10.7911 19.4307C7.94646 18.9333 5.67079 16.871 4.85313 14.0267C4.71079 13.4933 4.67546 13.209 4.67546 11.929C4.67546 10.542 4.63979 10.4357 4.46213 9.86666C3.43113 7.05766 5.52879 4.10666 8.51546 4.10666C9.11979 4.10666 9.86646 4.28466 10.2931 4.49766C10.5778 4.63999 10.7555 4.67533 11.8575 4.67533C12.8531 4.67533 13.2441 4.71099 13.7418 4.85333C15.9821 5.42233 17.7951 6.87999 18.7551 8.90666C19.3595 10.151 19.5731 11.4313 19.4305 12.8887C19.3595 13.6713 19.3595 13.7423 19.5371 14.2043C20.1061 15.8757 19.5728 17.7953 18.1861 18.9333C17.7591 19.289 16.9061 19.68 16.3728 19.8223C15.8391 19.929 14.9861 19.929 14.4525 19.7867H14.4178V19.7863ZM13.4575 17.0487C14.6311 16.8 15.6618 16.0887 16.0531 15.2357C16.5508 14.2043 16.4085 12.9953 15.7331 12.2487C15.1641 11.6087 14.3108 11.2533 12.2841 10.7557C10.9328 10.4357 10.6128 10.2933 10.3285 9.97333C10.0795 9.68866 10.0438 9.47566 10.2575 9.15566C10.4708 8.79999 11.0041 8.58666 11.7151 8.55133C12.7465 8.48033 13.2085 8.72899 13.8128 9.68899C14.2751 10.4003 14.7371 10.578 15.3421 10.2933C16.1241 9.90233 16.0531 8.62233 15.1995 7.87566C14.3818 7.20033 13.4931 6.91566 11.9995 6.91566C10.4351 6.91566 9.36813 7.23566 8.65713 7.94666C8.08813 8.51566 7.98179 8.83566 7.98179 9.72433C7.98179 10.6487 8.08846 10.933 8.69279 11.4667C9.33279 12.071 9.86613 12.2847 11.7858 12.7467C13.1371 13.0667 13.4928 13.2443 13.8125 13.6C13.9551 13.778 14.0261 13.92 14.0261 14.24C14.0261 14.5957 13.9905 14.6667 13.7061 14.9513C13.2795 15.3777 12.6395 15.5553 11.8218 15.5203C10.8618 15.449 10.4351 15.1647 9.93746 14.169C9.58179 13.4937 9.29746 13.2447 8.83513 13.2447C7.80379 13.2447 7.44846 14.098 7.98179 15.2C8.44413 16.1603 9.36846 16.8003 10.5418 17.049C11.2528 17.1913 12.8175 17.1913 13.4931 17.049H13.4575V17.0487Z" fill="#808080"/>
</svg>
