<svg width="24" height="24" viewBox="0 0 24 24" fill="none" xmlns="http://www.w3.org/2000/svg">
<path fill-rule="evenodd" clip-rule="evenodd" d="M11.5 4C10.1193 4 9 5.11929 9 6.5V14.0505C8.38141 14.6818 8 15.5463 8 16.5C8 18.433 9.567 20 11.5 20C13.433 20 15 18.433 15 16.5C15 15.5463 14.6186 14.6818 14 14.0505V6.5C14 5.11929 12.8807 4 11.5 4ZM11 6.5C11 6.22388 11.2238 6 11.5 6C11.7762 6 12 6.22388 12 6.5V15.0853C12.5826 15.2913 13 15.8469 13 16.5C13 17.3284 12.3284 18 11.5 18C10.6716 18 10 17.3284 10 16.5C10 15.8469 10.4174 15.2913 11 15.0853V6.5Z" fill="#808080"/>
</svg>
