<svg width="24" height="24" viewBox="0 0 24 24" fill="none" xmlns="http://www.w3.org/2000/svg">
<path fill-rule="evenodd" clip-rule="evenodd" d="M11.8286 16.2949H12.7834C12.7834 16.2949 13.0718 16.2631 13.2193 16.1045C13.3548 15.9587 13.3505 15.6851 13.3505 15.6851C13.3505 15.6851 13.3318 14.4038 13.9263 14.2151C14.5127 14.0292 15.2654 15.4534 16.0632 16.0011C16.6666 16.4154 17.1251 16.3248 17.1251 16.3248L19.2585 16.2949C19.2585 16.2949 20.3745 16.2261 19.8453 15.3486C19.802 15.277 19.537 14.6995 18.259 13.5132C16.9211 12.2716 17.1005 12.4725 18.7119 10.3247C19.6933 9.01675 20.0855 8.21826 19.9629 7.8763C19.8462 7.55049 19.1243 7.63655 19.1243 7.63655L16.7222 7.6514C16.7222 7.6514 16.544 7.62714 16.412 7.70611C16.2829 7.78337 16.2001 7.96384 16.2001 7.96384C16.2001 7.96384 15.8197 8.97593 15.3129 9.83676C14.2433 11.653 13.8155 11.7492 13.6406 11.6362C13.2339 11.3733 13.3355 10.5804 13.3355 10.0168C13.3355 8.25663 13.6025 7.52275 12.8156 7.33274C12.5545 7.26974 12.3622 7.22806 11.6944 7.22125C10.8372 7.21255 10.1119 7.22388 9.70116 7.42512C9.42787 7.55895 9.21702 7.85712 9.34551 7.87428C9.50429 7.89542 9.86376 7.97131 10.0544 8.23064C10.3006 8.56562 10.292 9.31764 10.292 9.31764C10.292 9.31764 10.4335 11.3897 9.96166 11.647C9.63791 11.8235 9.1937 11.4631 8.24008 9.81534C7.75154 8.97128 7.38257 8.0382 7.38257 8.0382C7.38257 8.0382 7.31152 7.86385 7.18461 7.77053C7.03069 7.65746 6.81561 7.62162 6.81561 7.62162L4.53291 7.63652C4.53291 7.63652 4.1903 7.6461 4.06442 7.79509C3.95242 7.92773 4.05547 8.20177 4.05547 8.20177C4.05547 8.20177 5.84246 12.3827 7.86607 14.4897C9.72175 16.4217 11.8286 16.2949 11.8286 16.2949Z" fill="#808080"/>
</svg>
