<svg width="24" height="24" viewBox="0 0 24 24" fill="none" xmlns="http://www.w3.org/2000/svg">
<path fill-rule="evenodd" clip-rule="evenodd" d="M11.9999 2.39999C6.69797 2.39999 2.3999 6.69806 2.3999 12C2.3999 17.3019 6.69797 21.6 11.9999 21.6C17.3018 21.6 21.5999 17.3019 21.5999 12C21.5999 6.69806 17.3018 2.39999 11.9999 2.39999ZM16.2036 14.0774C16.5363 14.3094 16.8695 14.5417 17.1847 14.7955C17.2474 14.846 17.3121 14.8954 17.3768 14.9449C17.8468 15.3041 18.3196 15.6654 18.0473 16.4342C17.7257 17.3434 16.6117 18.2595 15.6609 18.2499C15.6246 18.24 15.5787 18.2297 15.5264 18.218C15.3856 18.1865 15.1979 18.1445 15.0243 18.0698C10.8477 16.2714 7.81365 13.3248 6.08959 9.09227C5.51168 7.67359 6.11512 6.47543 7.572 5.98549C7.83356 5.89759 8.08959 5.89143 8.34668 5.98602C8.968 6.21459 10.5413 8.38012 10.5766 9.02812C10.6036 9.52509 10.2659 9.79421 9.93078 10.0217C9.29775 10.4517 9.29418 10.9969 9.56475 11.6049C10.1764 12.9793 11.2205 13.924 12.5727 14.5371C13.0632 14.7597 13.5323 14.7375 13.8674 14.2301C14.4641 13.3265 15.1956 13.3702 15.9952 13.9318C16.0645 13.9804 16.1339 14.0289 16.2034 14.0773L16.2036 14.0774ZM17.3521 11.4167C16.9633 8.34137 15.5551 6.88949 12.5018 6.41996C12.4517 6.41225 12.3963 6.40823 12.34 6.40413L12.34 6.40413L12.34 6.40413C12.1119 6.38754 11.8671 6.36973 11.8823 6.10162C11.9042 5.72224 12.1772 5.74097 12.4034 5.75649C12.4729 5.76126 12.538 5.76573 12.5901 5.75824C15.523 5.85724 18.0485 8.54231 18.0127 11.4387C18.0121 11.4854 18.0144 11.5358 18.0167 11.5873C18.0285 11.8498 18.0416 12.1428 17.6876 12.1361C17.3706 12.1299 17.3663 11.867 17.3622 11.6169C17.3611 11.5472 17.3599 11.4785 17.3521 11.4167ZM13.099 7.26318C13.0548 7.25785 13.0084 7.25019 12.9613 7.2424C12.6958 7.1985 12.4073 7.15082 12.349 7.49693C12.291 7.84336 12.5634 7.8807 12.8166 7.91541C12.876 7.92356 12.9343 7.93156 12.9871 7.94337C14.8729 8.36484 15.5296 9.05121 15.8401 10.9218C15.8491 10.976 15.8527 11.0362 15.8564 11.0972V11.0972C15.8715 11.3437 15.8874 11.6051 16.2588 11.5487C16.5184 11.5091 16.5109 11.2916 16.5042 11.096C16.502 11.0328 16.4999 10.9719 16.5069 10.92C16.5221 9.12406 14.9832 7.48943 13.099 7.26318ZM12.8117 8.96731C12.8837 8.75781 13.0762 8.73659 13.2722 8.73174C14.1081 8.71099 15.0877 9.71274 15.0739 10.5794C15.0825 10.8163 15.0571 11.0658 14.7768 11.0992C14.5746 11.1231 14.4417 10.9535 14.4208 10.7441C14.3436 9.97265 13.9364 9.51649 13.1628 9.39231C12.9311 9.35509 12.7035 9.28043 12.8117 8.96731Z" fill="#808080"/>
</svg>
