<svg width="24" height="24" viewBox="0 0 24 24" fill="none" xmlns="http://www.w3.org/2000/svg">
<path fill-rule="evenodd" clip-rule="evenodd" d="M11.9977 4C7.58742 4 4 7.58742 4 11.9977C4 13.7467 4.56422 15.3688 5.52334 16.6854L4.52653 19.6568L7.60148 18.6744C8.8662 19.5113 10.3755 19.9955 12.0023 19.9955C16.4126 19.9955 20 16.4079 20 11.9978C20 7.58755 16.4126 4.00013 12.0023 4.00013H11.9977V4ZM9.76428 8.06247C9.60916 7.69105 9.49159 7.67699 9.25659 7.66743C9.16735 7.66168 9.07797 7.65859 8.98855 7.65814C8.68282 7.65814 8.36315 7.74745 8.17035 7.9449C7.93534 8.18468 7.35228 8.74412 7.35228 9.89141C7.35228 11.0387 8.18919 12.1483 8.30198 12.3035C8.41955 12.4585 9.9336 14.847 12.2844 15.8205C14.1228 16.5822 14.6683 16.5116 15.0867 16.4223C15.6979 16.2906 16.4643 15.8391 16.6571 15.2938C16.8499 14.7483 16.8499 14.2828 16.7934 14.1841C16.737 14.0854 16.5818 14.0291 16.3468 13.9114C16.1118 13.7938 14.9691 13.2296 14.7528 13.1544C14.5412 13.0745 14.3391 13.1028 14.1793 13.3285C13.9536 13.6435 13.7327 13.9633 13.5539 14.156C13.4129 14.3064 13.1824 14.3253 12.9897 14.2453C12.7311 14.1373 12.0071 13.8831 11.1137 13.0886C10.4225 12.4727 9.95231 11.7064 9.81603 11.4761C9.67962 11.241 9.80197 11.1045 9.90998 10.9776C10.0276 10.8318 10.1403 10.7284 10.2579 10.592C10.3755 10.4558 10.4413 10.3852 10.5165 10.2253C10.5965 10.0701 10.54 9.91025 10.4836 9.79268C10.4272 9.67511 9.95709 8.52783 9.76428 8.06247Z" fill="#808080"/>
</svg>
