<svg width="24" height="24" viewBox="0 0 24 24" fill="none" xmlns="http://www.w3.org/2000/svg">
<path fill-rule="evenodd" clip-rule="evenodd" d="M10.168 12.976L9.12795 16.84C9.01595 17.272 8.57595 17.52 8.15195 17.408C7.71995 17.296 7.47195 16.856 7.59995 16.432L8.62395 12.568C8.73595 12.136 9.17595 11.888 9.59995 12C10.024 12.112 10.28 12.552 10.168 12.976ZM13.368 12.976L11.712 19.16C11.6 19.6 11.16 19.84 10.728 19.728C10.304 19.6 10.048 19.176 10.16 18.744L11.824 12.568C11.936 12.136 12.376 11.888 12.8 12C13.224 12.112 13.48 12.552 13.368 12.976ZM16.568 12.976L15.528 16.84C15.416 17.272 14.976 17.52 14.552 17.408C14.12 17.296 13.872 16.856 14 16.432L15.024 12.568C15.136 12.136 15.576 11.888 16 12C16.424 12.112 16.68 12.552 16.568 12.976ZM16 9.6C16 7.39086 14.2091 5.6 12 5.6C9.99995 5.6 8.35995 7.056 8.04795 8.952C7.78395 8.856 7.49595 8.8 7.19995 8.8C5.87447 8.8 4.79995 9.87452 4.79995 11.2C4.79995 12.088 5.27995 12.864 5.99995 13.28C6.39995 13.496 6.51195 14 6.29595 14.368C6.07195 14.744 5.59995 14.88 5.19995 14.656C3.99995 13.976 3.19995 12.68 3.19995 11.2C3.19995 8.99086 4.99081 7.2 7.19995 7.2C7.99995 5.32 9.83995 4 12 4C14.744 4 16.992 6.128 17.2 8.824L17.6 8.8C19.3673 8.8 20.8 10.2327 20.8 12C20.8 13.2 20.16 14.216 19.2 14.768C18.8 14.984 18.328 14.856 18.104 14.472C17.888 14.088 18 13.6 18.4 13.376C18.88 13.112 19.2 12.592 19.2 12C19.2 11.1163 18.4836 10.4 17.6 10.4H16V9.6Z" fill="#808080"/>
</svg>
