<svg width="24" height="24" viewBox="0 0 24 24" fill="none" xmlns="http://www.w3.org/2000/svg">
<path fill-rule="evenodd" clip-rule="evenodd" d="M7.19995 15.2C6.13909 15.2 5.12167 14.7786 4.37152 14.0284C3.62138 13.2783 3.19995 12.2609 3.19995 11.2C3.19995 8.99086 4.99081 7.2 7.19995 7.2C7.99995 5.32 9.83995 4 12 4C14.744 4 16.992 6.128 17.2 8.824L17.6 8.8C19.3673 8.8 20.8 10.2327 20.8 12C20.8 13.7673 19.3673 15.2 17.6 15.2H16.8C16.3581 15.2 16 14.8418 16 14.4C16 13.9582 16.3581 13.6 16.8 13.6H17.6C18.4836 13.6 19.2 12.8837 19.2 12C19.2 11.1163 18.4836 10.4 17.6 10.4H16V9.6C16 7.39086 14.2091 5.6 12 5.6C9.99995 5.6 8.35995 7.056 8.04795 8.952C7.78395 8.856 7.49595 8.8 7.19995 8.8C5.87447 8.8 4.79995 9.87452 4.79995 11.2C4.79995 12.5255 5.87447 13.6 7.19995 13.6H7.99995C8.44178 13.6 8.79995 13.9582 8.79995 14.4C8.79995 14.8418 8.44178 15.2 7.99995 15.2H7.19995ZM12 11.2H14.4L12.8 14.4H14.4L11.4 20L12 16H9.99995L12 11.2Z" fill="#808080"/>
</svg>
