<svg width="24" height="24" viewBox="0 0 24 24" fill="none" xmlns="http://www.w3.org/2000/svg">
<path fill-rule="evenodd" clip-rule="evenodd" d="M11.728 8C13.9372 8 15.728 9.79086 15.728 12C15.728 14.2091 13.9372 16 11.728 16C9.51891 16 7.72805 14.2091 7.72805 12C7.72805 9.79086 9.51891 8 11.728 8ZM11.728 9.6C10.4026 9.6 9.32805 10.6745 9.32805 12C9.32805 13.3255 10.4026 14.4 11.728 14.4C13.0535 14.4 14.128 13.3255 14.128 12C14.128 10.6745 13.0535 9.6 11.728 9.6ZM11.728 4L13.64 6.736C13.048 6.52 12.4 6.4 11.728 6.4C11.056 6.4 10.408 6.52 9.81605 6.736L11.728 4ZM4.80005 8L8.12805 7.72C7.64805 8.128 7.21605 8.624 6.88005 9.2C6.52805 9.792 6.32805 10.4 6.21605 11.032L4.80005 8ZM4.81605 16L6.22405 12.984C6.33605 13.6 6.55205 14.224 6.88805 14.8C7.22405 15.392 7.65605 15.888 8.12805 16.296L4.81605 16ZM18.648 8L17.232 11.032C17.12 10.4 16.904 9.784 16.568 9.2C16.232 8.624 15.808 8.12 15.328 7.712L18.648 8ZM18.64 16L15.328 16.288C15.8 15.88 16.224 15.376 16.56 14.8C16.896 14.216 17.112 13.6 17.224 12.968L18.64 16ZM11.728 20L9.80005 17.248C10.392 17.464 11.04 17.6 11.728 17.6C12.384 17.6 13.032 17.464 13.624 17.248L11.728 20Z" fill="#808080"/>
</svg>
