<svg width="24" height="24" viewBox="0 0 24 24" fill="none" xmlns="http://www.w3.org/2000/svg">
<path fill-rule="evenodd" clip-rule="evenodd" d="M17.2292 11.9837C17.2292 7.91036 14.018 4.8001 9.81454 4.8001V4.8C5.61112 4.8 2.3999 7.91036 2.3999 11.9837C2.3999 16.057 5.61112 19.1686 9.81454 19.1686C14.018 19.1686 17.2292 16.0571 17.2292 11.9837ZM9.56654 8.77491C9.53125 9.02301 9.51306 9.27101 9.49606 9.52032H9.49596C8.98037 9.5555 8.46618 9.59079 7.95178 9.64427C8.34099 10.122 8.73016 10.6039 9.11932 11.0858C9.51074 11.5705 9.90217 12.0553 10.2936 12.5357C10.6739 12.2083 11.0544 11.8854 11.4349 11.5625C11.8174 11.2379 12.1998 10.9134 12.582 10.5842C12.5474 10.5831 12.5129 10.582 12.4783 10.581C11.9278 10.5639 11.3764 10.5468 10.8262 10.5137V9.78531C12.3284 9.75182 13.8153 9.73472 15.316 9.71746L15.5438 9.71484V10.5843C15 10.6372 14.4728 10.6722 13.947 10.7071L13.9305 10.7082C12.9018 11.6312 11.8718 12.5527 10.8262 13.4756C10.8169 13.8381 10.8079 14.2049 10.7989 14.5715C10.7903 14.9232 10.7817 15.2747 10.7728 15.6218C10.8077 15.6228 10.8426 15.6239 10.8776 15.6249C11.4457 15.642 12.0138 15.6591 12.582 15.6934V16.3488H7.01186V15.6934C7.31421 15.6666 7.61653 15.6444 7.91885 15.6221C8.21962 15.6 8.52037 15.5779 8.82113 15.5512V13.5462C7.73897 12.2342 6.67509 10.9392 5.61122 9.64427C5.32654 9.62663 5.04613 9.60436 4.76587 9.58212C4.48708 9.55998 4.20844 9.53786 3.92589 9.52032V8.77491H9.56654ZM21.592 5.47145C21.8581 5.48471 22.1247 5.49799 22.3919 5.51132H22.392C22.2913 5.92946 22.1906 6.34762 22.0898 6.76583C21.3744 9.7358 20.6583 12.7082 19.9431 15.6934C19.531 15.6496 19.1119 15.6061 18.6945 15.5629C18.4297 15.5354 18.1655 15.508 17.9041 15.4806C17.9165 14.8842 17.9289 14.2872 17.9413 13.6899C17.9994 10.8935 18.0577 8.08969 18.1168 5.2974C19.2719 5.35583 20.4271 5.4134 21.592 5.47145ZM20.1559 19.1515H17.7083C17.6873 18.9299 17.6662 18.7082 17.645 18.486C17.5951 17.9619 17.545 17.435 17.4955 16.8997C18.3831 16.9701 19.2696 17.0407 20.1559 17.1123V19.1515Z" fill="#808080"/>
</svg>
