<svg width="24" height="24" viewBox="0 0 24 24" fill="none" xmlns="http://www.w3.org/2000/svg">
<path fill-rule="evenodd" clip-rule="evenodd" d="M11.3155 4.00182C10.3471 4.03459 8.29441 4.65008 7.86925 5.08827C7.7117 5.25086 7.63776 5.46554 7.68397 5.64283C7.76085 5.7987 11.0072 10.8944 11.0072 10.8944C11.4895 11.6741 11.8835 11.5511 12.0113 11.5099C12.1411 11.4721 12.5284 11.354 12.4839 10.4432C12.4381 9.37984 12.1327 4.65344 12.0936 4.43161C12.0411 4.23331 11.8684 4.07913 11.6437 4.02157C11.5584 4.00182 11.4533 3.99678 11.3155 4.00182ZM16.2176 8.65933C16.1209 8.66101 16.0352 8.68412 15.9499 8.74125C15.8483 8.80721 15.7697 8.9072 14.3303 10.8746C14.3303 10.8746 13.6821 11.7691 13.6737 11.7775C13.5014 11.9842 13.5065 12.2795 13.6737 12.5358C13.8476 12.7997 14.1253 12.9379 14.3908 12.8639C14.3908 12.8639 14.3942 12.8786 14.3908 12.8837C14.5257 12.8358 14.7618 12.7623 15.192 12.6585C17.88 12.0073 17.9783 11.9892 18.0833 11.9203C18.2459 11.8103 18.3232 11.6099 18.3102 11.3868C18.3102 11.3788 18.3131 11.3738 18.3102 11.367C18.2409 10.7074 17.0939 8.99753 16.5247 8.71983C16.4259 8.67067 16.3146 8.65597 16.2176 8.65933ZM7.19158 11.3049C6.99623 11.2965 6.81893 11.4015 6.6992 11.5918C6.44292 12.0023 6.34293 13.279 6.43158 14.1357C6.46603 14.4197 6.50216 14.6722 6.5761 14.8133C6.67777 15.007 6.85338 15.112 7.04874 15.1204C7.17352 15.1255 7.26847 15.099 9.63167 14.3407C9.63167 14.3407 10.674 14.0159 10.6786 14.0126C10.9399 13.9453 11.1122 13.7042 11.1303 13.3971C11.1483 13.082 10.9874 12.7997 10.7198 12.6997C10.7198 12.6997 9.98458 12.3913 9.98121 12.3913C7.44072 11.3427 7.3193 11.3082 7.19158 11.3049ZM14.4337 14.1966C14.2383 14.1915 14.0232 14.2852 13.8791 14.4638C13.6787 14.7066 13.659 15.0414 13.8165 15.2843L14.227 15.9624C15.6302 18.242 15.7466 18.3844 15.8483 18.4634C16.0041 18.5881 16.1961 18.6079 16.4028 18.5255C17.0002 18.2878 18.3001 16.6417 18.3921 16.0019C18.4232 15.78 18.361 15.5914 18.2081 15.47C18.1081 15.3944 18.0262 15.3633 15.6647 14.5869C15.6647 14.5869 14.6307 14.2457 14.6173 14.239C14.5551 14.2146 14.4976 14.1995 14.4337 14.1966ZM11.5617 14.9347C11.4222 14.9662 11.3025 15.0515 11.2122 15.1616C11.2122 15.1616 10.7017 15.7767 10.6984 15.7767C8.91788 17.866 8.8557 17.9512 8.81117 18.0743C8.7868 18.1466 8.76369 18.2432 8.77168 18.3205C8.78176 18.434 8.82923 18.5289 8.91452 18.6276C9.32834 19.1179 11.3206 19.8435 11.9508 19.7368C12.1705 19.6943 12.3116 19.5922 12.3822 19.4086C12.4217 19.2872 12.4347 19.2053 12.4431 16.7203C12.4431 16.7203 12.4431 15.6258 12.4431 15.6128C12.4612 15.3435 12.2969 15.0877 12.0113 14.9776C11.8655 14.92 11.6995 14.9053 11.5617 14.9347Z" fill="#808080"/>
</svg>
