<svg width="24" height="24" viewBox="0 0 24 24" fill="none" xmlns="http://www.w3.org/2000/svg">
<path fill-rule="evenodd" clip-rule="evenodd" d="M12.3545 17.5853L9.07189 17.5246C8.00906 17.5034 6.94359 17.5457 5.90161 17.3263C4.3165 16.9986 4.20421 15.3919 4.0867 14.0442C3.9248 12.1495 3.98747 10.2203 4.29302 8.34141C4.46551 7.28714 5.14432 6.65805 6.19408 6.58959C9.7378 6.34115 13.3051 6.37059 16.8409 6.4865C17.2144 6.49713 17.5904 6.5552 17.9586 6.62131C19.7762 6.94372 19.8205 8.76449 19.9384 10.2972C20.0559 11.8458 20.0063 13.4023 19.7817 14.9403C19.6015 16.2137 19.2568 17.2816 17.8019 17.3847C15.9791 17.5195 14.1981 17.6281 12.3701 17.5935C12.3702 17.5853 12.3597 17.5853 12.3545 17.5853ZM10.4 14.4C11.7444 13.5937 13.0632 12.8009 14.4 12C13.053 11.1937 11.7368 10.4009 10.4 9.59999V14.4Z" fill="#808080"/>
</svg>
