<svg width="24" height="24" viewBox="0 0 24 24" fill="none" xmlns="http://www.w3.org/2000/svg">
<path fill-rule="evenodd" clip-rule="evenodd" d="M15.6939 3H8.30614C5.38029 3 3 5.38029 3 8.30614V15.6939C3 18.6197 5.38029 21 8.30614 21H15.6939C18.6197 21 21 18.6197 21 15.6939V8.30614C21 5.38029 18.6197 3 15.6939 3ZM14.1429 14.3083C14.1429 14.6906 13.8334 15 13.4511 15H7.71643C6.76843 15 6 14.2316 6 13.2836V9.26271C6 8.88086 6.30943 8.57143 6.69171 8.57143H12.4269C13.3744 8.57143 14.1429 9.33986 14.1429 10.2879V14.3083ZM18 14.2269C18 14.5633 17.6297 14.7686 17.3443 14.5903L15.2014 13.251C15.0763 13.1726 15 13.0354 15 12.8876V10.6843C15 10.5364 15.0763 10.3993 15.2014 10.3209L17.3443 8.98157C17.6297 8.80286 18 9.00814 18 9.34457V14.2269Z" fill="#808080"/>
</svg>
