<svg width="24" height="24" viewBox="0 0 24 24" fill="none" xmlns="http://www.w3.org/2000/svg">
<path fill-rule="evenodd" clip-rule="evenodd" d="M16.8 14.3988V17.5988C16.8 18.0388 16.44 18.3988 16 18.3988H6.4C5.96 18.3988 5.6 18.0388 5.6 17.5988V7.99878C5.6 7.55878 5.96 7.19878 6.4 7.19878H8.816C9.256 7.19878 9.616 6.83878 9.616 6.39878C9.616 5.95878 9.256 5.59878 8.816 5.59878H5.6C4.72 5.59878 4 6.31878 4 7.19878V18.3988C4 19.2788 4.72 19.9988 5.6 19.9988H16.8C17.68 19.9988 18.4 19.2788 18.4 18.3988V14.3988C18.4 13.9588 18.04 13.5988 17.6 13.5988C17.16 13.5988 16.8 13.9588 16.8 14.3988ZM14.8 16.7988H7.616C7.28 16.7988 7.096 16.4148 7.304 16.1508L8.696 14.3668C8.856 14.1668 9.16 14.1588 9.32 14.3588L10.568 15.8628L12.448 13.4468C12.608 13.2388 12.928 13.2388 13.08 13.4548L15.12 16.1668C15.32 16.4228 15.128 16.7988 14.8 16.7988ZM17.84 9.51078C18.224 8.89478 18.44 8.17478 18.392 7.38278C18.288 5.66278 16.92 4.20678 15.216 4.02278C13.04 3.78278 11.2 5.47078 11.2 7.59878C11.2 9.59078 12.808 11.1988 14.792 11.1988C15.496 11.1988 16.152 10.9908 16.704 10.6388L18.632 12.5668C18.944 12.8788 19.456 12.8788 19.768 12.5668C20.08 12.2548 20.08 11.7428 19.768 11.4308L17.84 9.51078ZM14.8 9.59878C13.696 9.59878 12.8 8.70278 12.8 7.59878C12.8 6.49478 13.696 5.59878 14.8 5.59878C15.904 5.59878 16.8 6.49478 16.8 7.59878C16.8 8.70278 15.904 9.59878 14.8 9.59878Z" fill="#808080"/>
</svg>
