<svg width="24" height="24" viewBox="0 0 24 24" fill="none" xmlns="http://www.w3.org/2000/svg">
<path fill-rule="evenodd" clip-rule="evenodd" d="M15.2 10.4H13.6V12H15.2V10.4ZM15.2 13.6H13.6V15.2H15.2V13.6ZM8.8 10.4H7.2V12H8.8V10.4ZM12 10.4H10.4V12H12V10.4ZM18.4 5.59998H5.6C4.72 5.59998 4 6.31998 4 7.19998V16.8C4 17.68 4.72 18.4 5.6 18.4H18.4C19.28 18.4 20 17.68 20 16.8V7.19998C20 6.31998 19.28 5.59998 18.4 5.59998ZM17.6 16.8H6.4C5.96 16.8 5.6 16.44 5.6 16V7.99998C5.6 7.55998 5.96 7.19998 6.4 7.19998H17.6C18.04 7.19998 18.4 7.55998 18.4 7.99998V16C18.4 16.44 18.04 16.8 17.6 16.8Z" fill="#808080"/>
</svg>
