<svg width="24" height="24" viewBox="0 0 24 24" fill="none" xmlns="http://www.w3.org/2000/svg">
<path fill-rule="evenodd" clip-rule="evenodd" d="M16.4 5.59998C14.84 5.59998 13.16 5.91998 12 6.79998C10.84 5.91998 9.15995 5.59998 7.59995 5.59998C6.43995 5.59998 5.20795 5.77598 4.17595 6.23198C3.59195 6.49598 3.19995 7.06398 3.19995 7.71198V16.736C3.19995 17.776 4.17595 18.544 5.18395 18.288C5.96795 18.088 6.79995 18 7.59995 18C8.84795 18 10.176 18.208 11.248 18.736C11.728 18.976 12.272 18.976 12.744 18.736C13.816 18.2 15.144 18 16.392 18C17.1919 18 18.024 18.088 18.808 18.288C19.816 18.552 20.792 17.784 20.792 16.736V7.71198C20.792 7.06398 20.4 6.49598 19.816 6.23198C18.792 5.77598 17.56 5.59998 16.4 5.59998ZM19.2 15.784C19.2 16.288 18.736 16.656 18.24 16.568C17.64 16.456 17.016 16.408 16.4 16.408C15.04 16.408 13.08 16.928 12 17.608V8.39998C13.08 7.71998 15.04 7.19998 16.4 7.19998C17.136 7.19998 17.864 7.27198 18.56 7.42398C18.928 7.50398 19.2 7.83198 19.2 8.20798V15.784Z" fill="#808080"/>
</svg>
