<svg width="24" height="24" viewBox="0 0 24 24" fill="none" xmlns="http://www.w3.org/2000/svg">
<path fill-rule="evenodd" clip-rule="evenodd" d="M9.55318 4.91399L7.32118 7.14599C7.06518 7.39399 7.24118 7.82599 7.60118 7.82599H9.03318V12.634C9.03318 13.074 9.39318 13.434 9.83318 13.434C10.2732 13.434 10.6332 13.074 10.6332 12.634V7.82599H12.0652C12.4252 7.82599 12.6012 7.39399 12.3452 7.14599L10.1132 4.91399C9.96118 4.76199 9.70518 4.76199 9.55318 4.91399ZM15.4332 15.842V11.034C15.4332 10.594 15.0732 10.234 14.6332 10.234C14.1932 10.234 13.8332 10.594 13.8332 11.034V15.842H12.4012C12.0412 15.842 11.8652 16.274 12.1212 16.522L14.3532 18.746C14.5132 18.898 14.7612 18.898 14.9212 18.746L17.1532 16.522C17.4092 16.274 17.2252 15.842 16.8732 15.842H15.4332Z" fill="#808080"/>
</svg>
