<svg width="24" height="24" viewBox="0 0 24 24" fill="none" xmlns="http://www.w3.org/2000/svg">
<path fill-rule="evenodd" clip-rule="evenodd" d="M20.8 11.208L16.8 11.2C16.36 11.2 16 11.56 16 12V19.2C16 19.64 16.36 20 16.8 20H20.8C21.24 20 21.6 19.64 21.6 19.2V12C21.6 11.56 21.24 11.208 20.8 11.208ZM20.8 18.4H16.8V12.8H20.8V18.4ZM18.4 4H3.99999C3.11999 4 2.39999 4.72 2.39999 5.6V15.2C2.39999 16.08 3.11999 16.8 3.99999 16.8H9.59999V18.4H8.79999C8.35999 18.4 7.99999 18.76 7.99999 19.2C7.99999 19.64 8.35999 20 8.79999 20H13.6C14.04 20 14.4 19.64 14.4 19.2C14.4 18.76 14.04 18.4 13.6 18.4H12.8V16.8H13.6C14.04 16.8 14.4 16.44 14.4 16C14.4 15.56 14.04 15.2 13.6 15.2H4.79999C4.35999 15.2 3.99999 14.84 3.99999 14.4V6.4C3.99999 5.96 4.35999 5.6 4.79999 5.6H17.6C18.04 5.6 18.4 5.96 18.4 6.4V8.8C18.4 9.24 18.76 9.6 19.2 9.6C19.64 9.6 20 9.24 20 8.8V5.6C20 4.72 19.28 4 18.4 4ZM11.976 9.6L11.2 7.2L10.424 9.6H7.99999L9.97599 11.008L9.22399 13.336L11.2 11.896L13.176 13.336L12.424 11.008L14.4 9.6H11.976Z" fill="#808080"/>
</svg>
