<svg width="24" height="24" viewBox="0 0 24 24" fill="none" xmlns="http://www.w3.org/2000/svg">
<path fill-rule="evenodd" clip-rule="evenodd" d="M17.6 4.80005H6.40005C5.52005 4.80005 4.80005 5.52005 4.80005 6.40005V17.6C4.80005 18.48 5.52005 19.2 6.40005 19.2H17.6C18.48 19.2 19.2 18.48 19.2 17.6V6.40005C19.2 5.52005 18.48 4.80005 17.6 4.80005ZM15.2 12.8H8.80005C8.36005 12.8 8.00005 12.44 8.00005 12C8.00005 11.56 8.36005 11.2 8.80005 11.2H15.2C15.64 11.2 16 11.56 16 12C16 12.44 15.64 12.8 15.2 12.8Z" fill="#808080"/>
</svg>
