<svg width="24" height="24" viewBox="0 0 24 24" fill="none" xmlns="http://www.w3.org/2000/svg">
<path fill-rule="evenodd" clip-rule="evenodd" d="M19.2 4.79999H4.80001C3.92001 4.79999 3.20001 5.51999 3.20001 6.39999V8.79199C3.20001 9.23199 3.56001 9.59199 4.00001 9.59199C4.44001 9.59199 4.80001 9.23199 4.80001 8.79199V7.18399C4.80001 6.74399 5.16001 6.38399 5.60001 6.38399H18.4C18.84 6.38399 19.2 6.74399 19.2 7.18399V16.808C19.2 17.248 18.84 17.608 18.4 17.608H5.60001C5.16001 17.608 4.80001 17.248 4.80001 16.808V15.192C4.80001 14.752 4.44001 14.392 4.00001 14.392C3.56001 14.392 3.20001 14.752 3.20001 15.192V17.6C3.20001 18.472 3.91201 19.184 4.78401 19.184H19.2C20.08 19.184 20.8 18.464 20.8 17.584V6.39999C20.8 5.51999 20.08 4.79999 19.2 4.79999ZM11.88 14.512L14.112 12.28C14.272 12.12 14.272 11.872 14.112 11.712L11.88 9.47999C11.632 9.22399 11.2 9.39999 11.2 9.75999V11.192H4.00001C3.56001 11.192 3.20001 11.552 3.20001 11.992C3.20001 12.432 3.56001 12.792 4.00001 12.792H11.2V14.224C11.2 14.584 11.632 14.76 11.88 14.512Z" fill="#808080"/>
</svg>
