<svg width="24" height="24" viewBox="0 0 24 24" fill="none" xmlns="http://www.w3.org/2000/svg">
<path fill-rule="evenodd" clip-rule="evenodd" d="M5.56347 11.504C5.78747 10.328 6.89147 9.52 8.09147 9.52H10.4355C10.8515 9.52 11.1955 9.176 11.1955 8.76C11.1955 8.344 10.8515 8 10.4355 8H8.17147C6.08347 8 4.21947 9.528 4.01947 11.608C3.78747 13.992 5.65947 16 7.99547 16H10.4355C10.8515 16 11.1955 15.656 11.1955 15.24C11.1955 14.824 10.8515 14.48 10.4355 14.48H7.99547C6.46747 14.48 5.25947 13.088 5.56347 11.504ZM9.59547 12.8H14.3955C14.8355 12.8 15.1955 12.44 15.1955 12C15.1955 11.56 14.8355 11.2 14.3955 11.2H9.59547C9.15547 11.2 8.79547 11.56 8.79547 12C8.79547 12.44 9.15547 12.8 9.59547 12.8ZM15.8195 8H13.5555C13.1395 8 12.7955 8.344 12.7955 8.76C12.7955 9.176 13.1395 9.52 13.5555 9.52H15.8995C17.0995 9.52 18.2035 10.328 18.4275 11.504C18.7315 13.088 17.5235 14.48 15.9955 14.48H13.5555C13.1395 14.48 12.7955 14.824 12.7955 15.24C12.7955 15.656 13.1395 16 13.5555 16H15.9955C18.3315 16 20.2035 13.992 19.9795 11.608C19.7795 9.528 17.9075 8 15.8195 8Z" fill="#808080"/>
</svg>
