<svg width="24" height="24" viewBox="0 0 24 24" fill="none" xmlns="http://www.w3.org/2000/svg">
<path fill-rule="evenodd" clip-rule="evenodd" d="M15.2 12.8H12.8C12.36 12.8 12 13.16 12 13.6V16C12 16.44 12.36 16.8 12.8 16.8H15.2C15.64 16.8 16 16.44 16 16V13.6C16 13.16 15.64 12.8 15.2 12.8ZM15.2 4.8V5.6H8.80005V4.8C8.80005 4.36 8.44005 4 8.00005 4C7.56005 4 7.20005 4.36 7.20005 4.8V5.6H6.40005C5.51205 5.6 4.80805 6.32 4.80805 7.2L4.80005 18.4C4.80005 19.28 5.51205 20 6.40005 20H17.6C18.48 20 19.2 19.28 19.2 18.4V7.2C19.2 6.32 18.48 5.6 17.6 5.6H16.8V4.8C16.8 4.36 16.44 4 16 4C15.56 4 15.2 4.36 15.2 4.8ZM16.8 18.4H7.20005C6.76005 18.4 6.40005 18.04 6.40005 17.6V9.6H17.6V17.6C17.6 18.04 17.24 18.4 16.8 18.4Z" fill="#808080"/>
</svg>
