<svg width="24" height="24" viewBox="0 0 24 24" fill="none" xmlns="http://www.w3.org/2000/svg">
<path fill-rule="evenodd" clip-rule="evenodd" d="M18.4 4H5.6C4.72 4 4 4.72 4 5.6V15.2C4 16.08 4.72 16.8 5.6 16.8H16.8L20 20V5.6C20 4.72 19.28 4 18.4 4ZM16 13.6H8C7.56 13.6 7.2 13.24 7.2 12.8C7.2 12.36 7.56 12 8 12H16C16.44 12 16.8 12.36 16.8 12.8C16.8 13.24 16.44 13.6 16 13.6ZM16 11.2H8C7.56 11.2 7.2 10.84 7.2 10.4C7.2 9.96 7.56 9.6 8 9.6H16C16.44 9.6 16.8 9.96 16.8 10.4C16.8 10.84 16.44 11.2 16 11.2ZM16 8.8H8C7.56 8.8 7.2 8.44 7.2 8C7.2 7.56 7.56 7.2 8 7.2H16C16.44 7.2 16.8 7.56 16.8 8C16.8 8.44 16.44 8.8 16 8.8Z" fill="#808080"/>
</svg>
