<svg width="24" height="24" viewBox="0 0 24 24" fill="none" xmlns="http://www.w3.org/2000/svg">
<path fill-rule="evenodd" clip-rule="evenodd" d="M11.682 5.92199V9.16199L17.602 15.082C18.522 12.778 18.074 10.058 16.202 8.19399L12.25 4.23399C12.1005 4.08419 11.8976 4 11.686 4C11.4744 4 11.2715 4.08419 11.122 4.23399L8.92999 6.40999L10.058 7.53799L11.682 5.92199ZM5.03399 5.90599C4.72199 6.21799 4.72199 6.72199 5.03399 7.03399L6.69799 8.69799C4.66599 11.21 4.81799 14.898 7.15399 17.242C8.40199 18.482 10.042 19.106 11.682 19.106C13.106 19.106 14.53 18.634 15.698 17.69L17.298 19.29C17.61 19.602 18.114 19.602 18.426 19.29C18.738 18.978 18.738 18.474 18.426 18.162L6.16999 5.90599C5.85799 5.59399 5.34599 5.59399 5.03399 5.90599ZM11.682 17.514C10.402 17.514 9.19399 17.018 8.28999 16.106C7.37799 15.194 6.88199 13.994 6.88199 12.714C6.88199 11.658 7.22599 10.666 7.84999 9.84199L11.682 13.674V17.514Z" fill="#808080"/>
</svg>
