<svg width="24" height="24" viewBox="0 0 24 24" fill="none" xmlns="http://www.w3.org/2000/svg">
<path fill-rule="evenodd" clip-rule="evenodd" d="M7.47201 8.99398C4.97601 11.49 4.97601 15.546 7.47201 18.042C8.72001 19.29 10.36 19.914 12 19.914C13.64 19.914 15.28 19.29 16.528 18.042C19.024 15.546 19.024 11.49 16.528 8.99398L12.568 5.03398C12.4185 4.88417 12.2156 4.79999 12.004 4.79999C11.7924 4.79999 11.5895 4.88417 11.44 5.03398L7.47201 8.99398ZM12 18.322C10.72 18.322 9.51201 17.826 8.60801 16.914C7.69601 16.002 7.20001 14.802 7.20001 13.522C7.20001 12.242 7.69601 11.034 8.60801 10.13L12 6.72998V18.322Z" fill="#808080"/>
</svg>
