<svg width="24" height="24" viewBox="0 0 24 24" fill="none" xmlns="http://www.w3.org/2000/svg">
<path fill-rule="evenodd" clip-rule="evenodd" d="M12.1571 4.62331C13.2318 3.20686 14.7258 3.19995 14.7258 3.19995C14.7258 3.19995 14.9481 4.53166 13.8804 5.81451C12.7405 7.18432 11.4448 6.96017 11.4448 6.96017C11.4448 6.96017 11.2014 5.88287 12.1571 4.62331ZM11.5814 7.89303C12.1343 7.89303 13.1604 7.13305 14.496 7.13305C16.795 7.13305 17.6994 8.76894 17.6994 8.76894C17.6994 8.76894 15.9305 9.67334 15.9305 11.8678C15.9305 14.3434 18.1341 15.1966 18.1341 15.1966C18.1341 15.1966 16.5937 19.5321 14.5131 19.5321C13.5575 19.5321 12.8146 18.8881 11.8077 18.8881C10.7816 18.8881 9.76334 19.5561 9.10015 19.5561C7.20024 19.5562 4.79999 15.4435 4.79999 12.1375C4.79999 8.88489 6.83164 7.17862 8.73725 7.17862C9.97607 7.17862 10.9374 7.89303 11.5814 7.89303Z" fill="#808080"/>
</svg>
