<svg width="24" height="24" viewBox="0 0 24 24" fill="none" xmlns="http://www.w3.org/2000/svg">
<path fill-rule="evenodd" clip-rule="evenodd" d="M17.6 4.79999H6.40005C5.52005 4.79999 4.80005 5.51999 4.80005 6.39999V17.6C4.80005 18.48 5.52005 19.2 6.40005 19.2H17.6C18.48 19.2 19.2 18.48 19.2 17.6V6.39999C19.2 5.51999 18.48 4.79999 17.6 4.79999ZM7.40005 8.39999H8.40005V7.39999C8.40005 7.07199 8.67205 6.79999 9.00005 6.79999C9.32805 6.79999 9.60005 7.07199 9.60005 7.39999V8.39999H10.6C10.928 8.39999 11.2 8.67199 11.2 8.99999C11.2 9.32799 10.928 9.59999 10.6 9.59999H9.60005V10.6C9.60005 10.928 9.32805 11.2 9.00005 11.2C8.67205 11.2 8.40005 10.928 8.40005 10.6V9.59999H7.40005C7.07205 9.59999 6.80005 9.32799 6.80005 8.99999C6.80005 8.67199 7.07205 8.39999 7.40005 8.39999ZM16.8 17.6H6.40005L17.6 6.39999V16.8C17.6 17.24 17.24 17.6 16.8 17.6ZM16 15.4C16 15.072 15.728 14.8 15.4 14.8H12.6C12.272 14.8 12 15.072 12 15.4C12 15.728 12.272 16 12.6 16H15.4C15.728 16 16 15.728 16 15.4Z" fill="#808080"/>
</svg>
