<svg width="24" height="24" viewBox="0 0 24 24" fill="none" xmlns="http://www.w3.org/2000/svg">
<path fill-rule="evenodd" clip-rule="evenodd" d="M18.1213 15.4335C17.6415 13.8956 16.529 10.8872 14.7303 9.12982C12.9492 7.38969 10.0717 6.33497 8.57474 5.87478C8.04176 5.71093 7.71017 5.15963 7.84541 4.61868L7.96148 4.1544C8.09388 3.6248 8.62406 3.30275 9.14729 3.45844C10.8435 3.96317 14.4252 5.2251 16.6001 7.40002C18.775 9.57494 20.0369 13.1566 20.5417 14.8528C20.6973 15.376 20.3753 15.9062 19.8457 16.0386L19.3738 16.1566C18.8355 16.2912 18.2865 15.9633 18.1213 15.4335ZM4.4043 18.3831C4.22121 19.1155 4.8846 19.7789 5.61698 19.5958L15.8457 17.0386C16.3753 16.9062 16.6971 16.376 16.5352 15.8547C16.1118 14.4918 15.1669 11.9668 13.6001 10.4C12.0333 8.83322 9.5083 7.8883 8.14538 7.46492C7.62406 7.30298 7.09388 7.6248 6.96148 8.1544L4.4043 18.3831ZM9.20008 10.4C8.53733 10.4 8.00008 10.9373 8.00008 11.6C8.00008 12.2628 8.53733 12.8 9.20008 12.8C9.86282 12.8 10.4001 12.2628 10.4001 11.6C10.4001 10.9373 9.86282 10.4 9.20008 10.4ZM11.2001 14C11.2001 13.3373 11.7373 12.8 12.4001 12.8C13.0628 12.8 13.6001 13.3373 13.6001 14C13.6001 14.6628 13.0628 15.2 12.4001 15.2C11.7373 15.2 11.2001 14.6628 11.2001 14ZM7.20008 15.6C7.20008 14.9373 7.73733 14.4 8.40008 14.4C9.06282 14.4 9.60008 14.9373 9.60008 15.6C9.60008 16.2628 9.06282 16.8 8.40008 16.8C7.73733 16.8 7.20008 16.2628 7.20008 15.6Z" fill="#808080"/>
</svg>
