<svg width="24" height="24" viewBox="0 0 24 24" fill="none" xmlns="http://www.w3.org/2000/svg">
<path fill-rule="evenodd" clip-rule="evenodd" d="M18.2763 15.5C20.2032 15.5 21.3472 14.3701 21.3472 12.5228V11.6929H18.4497V12.8744H19.6875L19.6828 12.9776C19.6359 13.6574 19.0921 14.1169 18.3138 14.1169C17.3245 14.1169 16.6868 13.3058 16.6868 11.9648C16.6868 10.6474 17.2635 9.88312 18.2387 9.88312C18.8998 9.88312 19.4062 10.2488 19.575 10.849H21.2769C21.1034 9.47053 19.875 8.5 18.2341 8.5C16.1898 8.5 14.9333 9.79404 14.9333 11.9883C14.9333 14.2106 16.1898 15.5 18.2763 15.5ZM2.65234 13.11H4.3074C4.31209 13.6492 4.62622 13.9867 5.11852 13.9867C5.62488 13.9867 5.90151 13.6632 5.90151 13.0631V8.54801H7.61751V13.0725C7.61751 14.5915 6.68918 15.4402 5.13727 15.4402C3.61818 15.4402 2.65234 14.5447 2.65234 13.11ZM11.7669 8.60564H8.83652V15.3712H10.5572V13.388H11.6637C13.1687 13.388 14.2049 12.4456 14.2049 11.0015C14.2049 9.54803 13.2203 8.60564 11.7669 8.60564ZM10.5573 12.0939V9.92311H11.3122C12.0342 9.92311 12.4656 10.3029 12.4656 11.0062C12.4656 11.7141 12.0342 12.0939 11.3028 12.0939H10.5573Z" fill="#808080"/>
</svg>
