<svg width="24" height="24" viewBox="0 0 24 24" fill="none" xmlns="http://www.w3.org/2000/svg">
<path fill-rule="evenodd" clip-rule="evenodd" d="M18.4 6.40002H5.6C4.72 6.40002 4.008 7.12002 4.008 8.00002L4 16C4 16.88 4.72 17.6 5.6 17.6H18.4C19.28 17.6 20 16.88 20 16V8.00002C20 7.12002 19.28 6.40002 18.4 6.40002ZM11.2 8.80002H12.8V10.4H11.2V8.80002ZM11.2 11.2H12.8V12.8H11.2V11.2ZM8.8 8.80002H10.4V10.4H8.8V8.80002ZM8.8 11.2H10.4V12.8H8.8V11.2ZM8 12.8H6.4V11.2H8V12.8ZM8 10.4H6.4V8.80002H8V10.4ZM14.4 16H9.6C9.16 16 8.8 15.64 8.8 15.2C8.8 14.76 9.16 14.4 9.6 14.4H14.4C14.84 14.4 15.2 14.76 15.2 15.2C15.2 15.64 14.84 16 14.4 16ZM15.2 12.8H13.6V11.2H15.2V12.8ZM15.2 10.4H13.6V8.80002H15.2V10.4ZM17.6 12.8H16V11.2H17.6V12.8ZM17.6 10.4H16V8.80002H17.6V10.4Z" fill="#808080"/>
</svg>
