<svg width="24" height="24" viewBox="0 0 24 24" fill="none" xmlns="http://www.w3.org/2000/svg">
<path fill-rule="evenodd" clip-rule="evenodd" d="M18.066 8.466V10.866H7.53005L9.83405 8.562C10.146 8.25 10.146 7.746 9.83405 7.434C9.68458 7.2842 9.48166 7.20001 9.27005 7.20001C9.05843 7.20001 8.85551 7.2842 8.70605 7.434L5.03405 11.106C4.72205 11.418 4.72205 11.922 5.03405 12.234L8.70605 15.906C9.01805 16.218 9.52205 16.218 9.83405 15.906C10.146 15.594 10.146 15.09 9.83405 14.778L7.53005 12.466H18.866C19.306 12.466 19.666 12.106 19.666 11.666V8.466C19.666 8.026 19.306 7.666 18.866 7.666C18.426 7.666 18.066 8.026 18.066 8.466Z" fill="#808080"/>
</svg>
