<svg width="24" height="24" viewBox="0 0 24 24" fill="none" xmlns="http://www.w3.org/2000/svg">
<path fill-rule="evenodd" clip-rule="evenodd" d="M18.4 4H5.6C4.72 4 4.008 4.72 4.008 5.6L4 13.6C4 14.48 4.72 15.2 5.6 15.2H18.4C19.28 15.2 20 14.48 20 13.6V5.6C20 4.72 19.28 4 18.4 4ZM11.2 6.4H12.8V8H11.2V6.4ZM11.2 8.8H12.8V10.4H11.2V8.8ZM8.8 6.4H10.4V8H8.8V6.4ZM8.8 8.8H10.4V10.4H8.8V8.8ZM8 10.4H6.4V8.8H8V10.4ZM8 8H6.4V6.4H8V8ZM14.4 13.6H9.6C9.16 13.6 8.8 13.24 8.8 12.8C8.8 12.36 9.16 12 9.6 12H14.4C14.84 12 15.2 12.36 15.2 12.8C15.2 13.24 14.84 13.6 14.4 13.6ZM15.2 10.4H13.6V8.8H15.2V10.4ZM15.2 8H13.6V6.4H15.2V8ZM17.6 10.4H16V8.8H17.6V10.4ZM17.6 8H16V6.4H17.6V8ZM12.28 19.72L14.512 17.488C14.76 17.24 14.584 16.808 14.232 16.808H9.768C9.408 16.808 9.232 17.24 9.488 17.488L11.72 19.72C11.872 19.872 12.128 19.872 12.28 19.72Z" fill="#808080"/>
</svg>
