<svg width="24" height="24" viewBox="0 0 24 24" fill="none" xmlns="http://www.w3.org/2000/svg">
<path fill-rule="evenodd" clip-rule="evenodd" d="M11.8 8.92199L14.912 12.034C15.224 12.346 15.728 12.346 16.04 12.034C16.352 11.722 16.352 11.218 16.04 10.906L12.368 7.23399C12.2185 7.08419 12.0156 7 11.804 7C11.5924 7 11.3895 7.08419 11.24 7.23399L7.56 10.906C7.248 11.218 7.248 11.722 7.56 12.034C7.872 12.346 8.376 12.346 8.688 12.034L11.8 8.92199ZM7.8 16.594H15.8C16.24 16.594 16.6 16.234 16.6 15.794C16.6 15.354 16.24 14.994 15.8 14.994H7.8C7.36 14.994 7 15.354 7 15.794C7 16.234 7.36 16.594 7.8 16.594Z" fill="#808080"/>
</svg>
