<svg width="24" height="24" viewBox="0 0 24 24" fill="none" xmlns="http://www.w3.org/2000/svg">
<path fill-rule="evenodd" clip-rule="evenodd" d="M13.032 8.89601L15.336 11.2H4.8C4.36 11.2 4 11.56 4 12C4 12.44 4.36 12.8 4.8 12.8H15.336L13.032 15.104C12.72 15.416 12.72 15.92 13.032 16.232C13.344 16.544 13.848 16.544 14.16 16.232L17.832 12.56C18.144 12.248 18.144 11.744 17.832 11.432L14.16 7.76001C14.0105 7.61021 13.8076 7.52602 13.596 7.52602C13.3844 7.52602 13.1815 7.61021 13.032 7.76001C12.728 8.07201 12.72 8.58401 13.032 8.89601ZM19.2 8.00001V16C19.2 16.44 19.56 16.8 20 16.8C20.44 16.8 20.8 16.44 20.8 16V8.00001C20.8 7.56001 20.44 7.20001 20 7.20001C19.56 7.20001 19.2 7.56001 19.2 8.00001Z" fill="#808080"/>
</svg>
