<svg width="24" height="24" viewBox="0 0 24 24" fill="none" xmlns="http://www.w3.org/2000/svg">
<path fill-rule="evenodd" clip-rule="evenodd" d="M11.9503 14.4C13.2783 14.4 14.3423 13.328 14.3423 12L14.3503 7.19999C14.3503 5.87199 13.2783 4.79999 11.9503 4.79999C10.6223 4.79999 9.55028 5.87199 9.55028 7.19999V12C9.55028 13.328 10.6223 14.4 11.9503 14.4ZM16.8143 12C16.4783 12 16.1983 12.24 16.1503 12.568C15.8543 14.656 13.9743 16.08 11.9503 16.08C9.92628 16.08 8.04628 14.664 7.75028 12.568C7.70228 12.24 7.41428 12 7.08628 12C6.67028 12 6.35028 12.368 6.40628 12.776C6.77428 15.152 8.77428 17.016 11.1503 17.376V19.2C11.1503 19.64 11.5103 20 11.9503 20C12.3903 20 12.7503 19.64 12.7503 19.2V17.376C15.1183 17.032 17.1263 15.152 17.4943 12.776C17.5503 12.368 17.2303 12 16.8143 12Z" fill="#808080"/>
</svg>
