<svg width="24" height="24" viewBox="0 0 24 24" fill="none" xmlns="http://www.w3.org/2000/svg">
<path fill-rule="evenodd" clip-rule="evenodd" d="M16.8001 4.008L7.2001 4C6.3201 4 5.6001 4.712 5.6001 5.6V18.4C5.6001 19.28 6.3201 20 7.2001 20H16.8001C17.6801 20 18.4001 19.28 18.4001 18.4V5.6C18.4001 4.712 17.6801 4.008 16.8001 4.008ZM16.0001 18.4H8.0001C7.5601 18.4 7.2001 18.04 7.2001 17.6V11.984C7.2001 11.544 7.5601 11.184 8.0001 11.184H16.0001C16.4401 11.184 16.8001 11.544 16.8001 11.984V17.6C16.8001 18.04 16.4401 18.4 16.0001 18.4ZM16.0001 9.6H8.0001C7.5601 9.6 7.2001 9.24 7.2001 8.8V6.4C7.2001 5.96 7.5601 5.6 8.0001 5.6H16.0001C16.4401 5.6 16.8001 5.96 16.8001 6.4V8.8C16.8001 9.24 16.4401 9.6 16.0001 9.6ZM9.6001 6.4C10.0401 6.4 10.4001 6.76 10.4001 7.2V8C10.4001 8.44 10.0401 8.8 9.6001 8.8C9.1601 8.8 8.8001 8.44 8.8001 8V7.2C8.8001 6.76 9.1601 6.4 9.6001 6.4ZM9.6001 12C10.0401 12 10.4001 12.36 10.4001 12.8V15.2C10.4001 15.64 10.0401 16 9.6001 16C9.1601 16 8.8001 15.64 8.8001 15.2V12.8C8.8001 12.36 9.1601 12 9.6001 12Z" fill="#808080"/>
</svg>
