<svg width="24" height="24" viewBox="0 0 24 24" fill="none" xmlns="http://www.w3.org/2000/svg">
<path fill-rule="evenodd" clip-rule="evenodd" d="M16.504 7.07202C16.216 6.66402 15.736 6.40002 15.2 6.40002L6.4 6.40802C5.52 6.40802 4.8 7.12002 4.8 8.00002V16C4.8 16.88 5.52 17.592 6.4 17.592L15.2 17.6C15.736 17.6 16.216 17.336 16.504 16.928L19.672 12.464C19.872 12.184 19.872 11.816 19.672 11.536L16.504 7.07202ZM15.2 16H7.2C6.76 16 6.4 15.64 6.4 15.2V8.80002C6.4 8.36002 6.76 8.00002 7.2 8.00002H15.2L18.04 12L15.2 16Z" fill="#808080"/>
</svg>
