<svg width="24" height="24" viewBox="0 0 24 24" fill="none" xmlns="http://www.w3.org/2000/svg">
<path fill-rule="evenodd" clip-rule="evenodd" d="M19.328 12.448C19.528 12.168 19.528 11.8 19.328 11.52L16.16 7.05603C15.872 6.64803 15.392 6.38403 14.856 6.38403H8.98404L17.544 14.968L19.328 12.448ZM4.23204 6.16003L4.92804 6.85603C4.64004 7.14403 4.45604 7.54403 4.45604 7.98403V15.984C4.45604 16.864 5.17604 17.584 6.05604 17.584H15.656L16.688 18.616C17 18.928 17.504 18.928 17.816 18.616C18.128 18.304 18.128 17.8 17.816 17.488L5.36804 5.03203C5.06404 4.72803 4.56004 4.72003 4.24804 5.02403C3.92004 5.32803 3.92004 5.84803 4.23204 6.16003Z" fill="#808080"/>
</svg>
