<svg width="24" height="24" viewBox="0 0 24 24" fill="none" xmlns="http://www.w3.org/2000/svg">
<path fill-rule="evenodd" clip-rule="evenodd" d="M3.79506 14.9321C2.92189 15.9216 2.47538 17.2163 2.55288 18.5338L2.68863 20.8416C2.70352 21.0947 2.90538 21.2965 3.15841 21.3114L5.46626 21.4472C6.78372 21.5247 8.07839 21.0782 9.06798 20.205L11.9323 17.6776C12.1486 17.4868 12.159 17.1531 11.955 16.9492L10.0686 15.0628L17.4226 7.70886C18.0663 8.00233 19.3539 8.58142 20.1539 8.31475C20.6498 8.14944 21.1117 7.84757 21.3911 7.64196C21.5601 7.51764 21.6148 7.29655 21.5287 7.10527C21.2663 6.52233 20.6325 5.26191 19.6853 4.31475C18.7381 3.36759 17.4777 2.73369 16.8948 2.47133C16.7035 2.38524 16.4824 2.43999 16.3581 2.60895C16.1525 2.88838 15.8506 3.3502 15.6853 3.84612C15.4186 4.64612 15.9977 5.9337 16.2912 6.57749L8.93727 13.9314L7.05087 12.045C6.84693 11.8411 6.51321 11.8515 6.3224 12.0677L3.79506 14.9321ZM17.7054 6.29465C16.574 5.16328 16.8569 4.31475 16.8569 4.31475C16.8569 4.31475 17.1397 3.46622 18.8368 5.16328C20.5338 6.86033 19.6853 7.14318 19.6853 7.14318C19.6853 7.14318 18.8368 7.42602 17.7054 6.29465Z" fill="#808080"/>
</svg>
