<svg width="24" height="24" viewBox="0 0 24 24" fill="none" xmlns="http://www.w3.org/2000/svg">
<path fill-rule="evenodd" clip-rule="evenodd" d="M20.7999 17.6H19.9999V7.19998C19.9999 6.31998 19.2799 5.59998 18.3999 5.59998H5.5999C4.7199 5.59998 3.9999 6.31998 3.9999 7.19998V17.6H3.1999C2.7599 17.6 2.3999 17.96 2.3999 18.4C2.3999 18.84 2.7599 19.2 3.1999 19.2H20.7999C21.2399 19.2 21.5999 18.84 21.5999 18.4C21.5999 17.96 21.2399 17.6 20.7999 17.6ZM13.1999 17.6H10.7999C10.5759 17.6 10.3999 17.424 10.3999 17.2C10.3999 16.976 10.5759 16.8 10.7999 16.8H13.1999C13.4239 16.8 13.5999 16.976 13.5999 17.2C13.5999 17.424 13.4239 17.6 13.1999 17.6ZM18.3999 15.2H5.5999V7.99998C5.5999 7.55998 5.9599 7.19998 6.3999 7.19998H17.5999C18.0399 7.19998 18.3999 7.55998 18.3999 7.99998V15.2Z" fill="#808080"/>
</svg>
