<svg width="24" height="24" viewBox="0 0 24 24" fill="none" xmlns="http://www.w3.org/2000/svg">
<path fill-rule="evenodd" clip-rule="evenodd" d="M18.3999 17.6C19.2799 17.6 19.9919 16.88 19.9919 16L19.9999 7.19998C19.9999 6.31998 19.2799 5.59998 18.3999 5.59998H5.5999C4.7199 5.59998 3.9999 6.31998 3.9999 7.19998V16C3.9999 16.88 4.7199 17.6 5.5999 17.6H2.3999C2.3999 18.48 3.1199 19.2 3.9999 19.2H19.9999C20.8799 19.2 21.5999 18.48 21.5999 17.6H18.3999ZM6.3999 7.19998H17.5999C18.0399 7.19998 18.3999 7.55998 18.3999 7.99998V15.2C18.3999 15.64 18.0399 16 17.5999 16H6.3999C5.9599 16 5.5999 15.64 5.5999 15.2V7.99998C5.5999 7.55998 5.9599 7.19998 6.3999 7.19998ZM11.9999 18.4C11.5599 18.4 11.1999 18.04 11.1999 17.6C11.1999 17.16 11.5599 16.8 11.9999 16.8C12.4399 16.8 12.7999 17.16 12.7999 17.6C12.7999 18.04 12.4399 18.4 11.9999 18.4Z" fill="#808080"/>
</svg>
