<svg width="24" height="24" viewBox="0 0 24 24" fill="none" xmlns="http://www.w3.org/2000/svg">
<path fill-rule="evenodd" clip-rule="evenodd" d="M7.43395 8.88801L10.546 12L7.43395 15.112C7.12195 15.424 7.12195 15.928 7.43395 16.24C7.74595 16.552 8.24995 16.552 8.56195 16.24L12.234 12.568C12.546 12.256 12.546 11.752 12.234 11.44L8.56195 7.76001C8.41249 7.61021 8.20957 7.52602 7.99795 7.52602C7.78634 7.52602 7.58342 7.61021 7.43395 7.76001C7.12995 8.07201 7.12995 8.58401 7.43395 8.88801ZM16.002 7.20001C16.442 7.20001 16.802 7.56001 16.802 8.00001V16C16.802 16.44 16.442 16.8 16.002 16.8C15.562 16.8 15.202 16.44 15.202 16V8.00001C15.202 7.56001 15.562 7.20001 16.002 7.20001Z" fill="#808080"/>
</svg>
