<svg width="24" height="24" viewBox="0 0 24 24" fill="none" xmlns="http://www.w3.org/2000/svg">
<path fill-rule="evenodd" clip-rule="evenodd" d="M12.7861 17.232C12.4981 17.456 12.0901 17.456 11.8021 17.232L6.8821 13.408C6.59532 13.1841 6.19288 13.1841 5.9061 13.408C5.4981 13.728 5.4981 14.344 5.9061 14.664L11.3141 18.872C11.8901 19.32 12.6981 19.32 13.2821 18.872L18.6901 14.664C19.0981 14.344 19.0981 13.728 18.6901 13.408L18.6821 13.4C18.3953 13.1761 17.9929 13.1761 17.7061 13.4L12.7861 17.232ZM13.2901 14.816L18.6981 10.608C19.1061 10.288 19.1061 9.66405 18.6981 9.34405L13.2901 5.13605C12.7141 4.68805 11.9061 4.68805 11.3221 5.13605L5.9141 9.35205C5.5061 9.67205 5.5061 10.296 5.9141 10.616L11.3221 14.824C11.8981 15.272 12.7141 15.272 13.2901 14.816Z" fill="#808080"/>
</svg>
