<svg width="24" height="24" viewBox="0 0 24 24" fill="none" xmlns="http://www.w3.org/2000/svg">
<path fill-rule="evenodd" clip-rule="evenodd" d="M18.058 10.818C18.466 10.498 18.466 9.87399 18.058 9.55399L12.65 5.34599C12.074 4.89799 11.266 4.89799 10.682 5.34599L9.594 6.20199L15.898 12.506L18.058 10.818ZM18.058 13.61L18.05 13.602C17.7632 13.378 17.3608 13.378 17.074 13.602L17.034 13.634L18.154 14.754C18.45 14.426 18.426 13.898 18.058 13.61ZM19.218 18.09L5.362 4.23399C5.21253 4.08419 5.00961 4 4.798 4C4.58639 4 4.38347 4.08419 4.234 4.23399C3.922 4.54599 3.922 5.04999 4.234 5.36199L7.05 8.17799L5.274 9.55399C4.866 9.87399 4.866 10.498 5.274 10.818L10.682 15.026C11.258 15.474 12.066 15.474 12.65 15.026L13.346 14.482L14.482 15.618L12.146 17.434C11.858 17.658 11.45 17.658 11.162 17.434L6.242 13.61C5.95522 13.386 5.55278 13.386 5.266 13.61C4.858 13.93 4.858 14.546 5.266 14.866L10.674 19.074C11.25 19.522 12.058 19.522 12.642 19.074L15.618 16.762L18.074 19.218C18.386 19.53 18.89 19.53 19.202 19.218C19.53 18.906 19.53 18.402 19.218 18.09Z" fill="#808080"/>
</svg>
