<svg width="24" height="24" viewBox="0 0 24 24" fill="none" xmlns="http://www.w3.org/2000/svg">
<path fill-rule="evenodd" clip-rule="evenodd" d="M18.472 12.016C18.872 11.976 19.176 11.632 19.176 11.224C19.176 10.752 18.768 10.376 18.296 10.424C17.096 10.544 15.976 10.912 14.968 11.464L16.152 12.648C16.872 12.32 17.648 12.096 18.472 12.016ZM19.176 14.456C19.176 13.968 18.744 13.584 18.264 13.656C17.96 13.704 17.664 13.784 17.376 13.88L18.672 15.176C18.968 15.056 19.176 14.784 19.176 14.456ZM13.552 5.69599C13.6 5.22399 13.232 4.80799 12.752 4.80799C12.352 4.80799 12 5.10399 11.96 5.50399C11.88 6.32799 11.656 7.11199 11.328 7.83199L12.512 9.01599C13.064 8.00799 13.432 6.88799 13.552 5.69599ZM10.32 5.71199C10.4 5.23199 10.008 4.79999 9.52005 4.79999C9.19205 4.79999 8.92005 5.00799 8.80005 5.29599L10.096 6.59199C10.2 6.31199 10.272 6.01599 10.32 5.71199ZM18.728 17.488L6.47205 5.23199C6.32258 5.08219 6.11966 4.998 5.90805 4.998C5.69643 4.998 5.49351 5.08219 5.34405 5.23199C5.03205 5.54399 5.03205 6.04799 5.34405 6.35999L7.06405 8.07999C6.59205 8.40799 6.05605 8.63999 5.47205 8.73599C5.08805 8.81599 4.80005 9.13599 4.80005 9.53599C4.80005 10.024 5.23205 10.408 5.71205 10.336C6.64805 10.184 7.49605 9.79199 8.21605 9.23999L9.36005 10.384C8.28805 11.264 6.96005 11.84 5.51205 11.976C5.11205 12.016 4.80805 12.36 4.80805 12.768C4.80805 13.24 5.21605 13.616 5.68805 13.568C7.51205 13.384 9.17605 12.648 10.496 11.52L12.48 13.504C11.36 14.824 10.616 16.48 10.432 18.304C10.384 18.776 10.752 19.192 11.232 19.192C11.632 19.192 11.984 18.896 12.024 18.496C12.168 17.04 12.744 15.712 13.616 14.64L14.76 15.784C14.208 16.504 13.816 17.352 13.664 18.288C13.584 18.768 13.976 19.2 14.464 19.2C14.856 19.2 15.184 18.912 15.248 18.52C15.344 17.936 15.584 17.4 15.904 16.928L17.608 18.632C17.92 18.944 18.424 18.944 18.736 18.632C19.04 18.304 19.04 17.8 18.728 17.488Z" fill="#808080"/>
</svg>
