<svg width="24" height="24" viewBox="0 0 24 24" fill="none" xmlns="http://www.w3.org/2000/svg">
<path fill-rule="evenodd" clip-rule="evenodd" d="M11.224 19.184C11.624 19.184 11.976 18.888 12.016 18.488C12.344 15.072 15.064 12.352 18.48 12.024C18.88 11.984 19.184 11.64 19.184 11.232C19.184 10.76 18.776 10.384 18.304 10.432C14.152 10.848 10.848 14.152 10.432 18.296C10.384 18.768 10.752 19.184 11.224 19.184ZM16.784 19.184H19.184V16.784C17.856 16.784 16.784 17.856 16.784 19.184ZM14.456 19.184C14.848 19.184 15.176 18.896 15.24 18.504C15.528 16.84 16.84 15.528 18.504 15.24C18.896 15.176 19.184 14.848 19.184 14.456C19.184 13.968 18.752 13.584 18.272 13.656C15.904 14.04 14.04 15.904 13.656 18.272C13.576 18.752 13.968 19.184 14.456 19.184ZM12.76 4.79999C12.36 4.79999 12.008 5.09599 11.968 5.49599C11.64 8.91199 8.92005 11.632 5.50405 11.96C5.10405 12 4.80005 12.344 4.80005 12.752C4.80005 13.224 5.20805 13.6 5.68005 13.552C9.83205 13.136 13.136 9.83199 13.552 5.68799C13.608 5.22399 13.24 4.79999 12.76 4.79999ZM7.20805 4.79999H4.80805V7.19999C6.13605 7.19999 7.20805 6.12799 7.20805 4.79999ZM9.53605 4.79999C9.14405 4.79999 8.81605 5.08799 8.75205 5.47999C8.46405 7.14399 7.15205 8.45599 5.48805 8.74399C5.09605 8.81599 4.80805 9.13599 4.80805 9.53599C4.80805 10.024 5.24005 10.408 5.72005 10.336C8.08805 9.95199 9.95205 8.08799 10.336 5.71999C10.408 5.23199 10.016 4.79999 9.53605 4.79999Z" fill="#808080"/>
</svg>
