<svg width="24" height="24" viewBox="0 0 24 24" fill="none" xmlns="http://www.w3.org/2000/svg">
<path fill-rule="evenodd" clip-rule="evenodd" d="M18.4 4H8.8C7.92 4 7.2 4.72 7.2 5.6V15.2C7.2 16.08 7.92 16.8 8.8 16.8H18.4C19.28 16.8 20 16.08 20 15.2V5.6C20 4.72 19.28 4 18.4 4ZM16 8H14.4V12.296C14.4 13.312 13.68 14.248 12.672 14.376C11.32 14.56 10.184 13.376 10.432 12.016C10.592 11.136 11.376 10.456 12.272 10.4C12.776 10.368 13.232 10.528 13.6 10.808V7.2C13.6 6.76 13.96 6.4 14.4 6.4H16C16.44 6.4 16.8 6.76 16.8 7.2C16.8 7.64 16.44 8 16 8ZM4.8 7.2C4.36 7.2 4 7.56 4 8V18.4C4 19.28 4.72 20 5.6 20H16C16.44 20 16.8 19.64 16.8 19.2C16.8 18.76 16.44 18.4 16 18.4H6.4C5.96 18.4 5.6 18.04 5.6 17.6V8C5.6 7.56 5.24 7.2 4.8 7.2Z" fill="#808080"/>
</svg>
