<svg width="24" height="24" viewBox="0 0 24 24" fill="none" xmlns="http://www.w3.org/2000/svg">
<path fill-rule="evenodd" clip-rule="evenodd" d="M9.59999 19.2C9.59999 19.64 9.95999 20 10.4 20H13.6C14.04 20 14.4 19.64 14.4 19.2V18.4H9.59999V19.2ZM12 4C8.91199 4 6.39999 6.512 6.39999 9.6C6.39999 11.504 7.35199 13.176 8.79999 14.192V16C8.79999 16.44 9.15999 16.8 9.59999 16.8H14.4C14.84 16.8 15.2 16.44 15.2 16V14.192C16.648 13.176 17.6 11.504 17.6 9.6C17.6 6.512 15.088 4 12 4ZM14.28 12.88L13.6 13.36V15.2H10.4V13.36L9.71999 12.88C8.63999 12.128 7.99999 10.904 7.99999 9.6C7.99999 7.392 9.79199 5.6 12 5.6C14.208 5.6 16 7.392 16 9.6C16 10.904 15.36 12.128 14.28 12.88Z" fill="#808080"/>
</svg>
