<svg width="24" height="24" viewBox="0 0 24 24" fill="none" xmlns="http://www.w3.org/2000/svg">
<path fill-rule="evenodd" clip-rule="evenodd" d="M5.59999 15.2H7.99999C8.43999 15.2 8.79999 14.84 8.79999 14.4C8.79999 13.96 8.43999 13.6 7.99999 13.6H5.59999C5.15999 13.6 4.79999 13.96 4.79999 14.4C4.79999 14.84 5.15999 15.2 5.59999 15.2ZM10.8 15.2H13.2C13.64 15.2 14 14.84 14 14.4C14 13.96 13.64 13.6 13.2 13.6H10.8C10.36 13.6 9.99999 13.96 9.99999 14.4C9.99999 14.84 10.36 15.2 10.8 15.2ZM16 15.2H18.4C18.84 15.2 19.2 14.84 19.2 14.4C19.2 13.96 18.84 13.6 18.4 13.6H16C15.56 13.6 15.2 13.96 15.2 14.4C15.2 14.84 15.56 15.2 16 15.2ZM5.59999 18.4C6.03999 18.4 6.39999 18.04 6.39999 17.6C6.39999 17.16 6.03999 16.8 5.59999 16.8C5.15999 16.8 4.79999 17.16 4.79999 17.6C4.79999 18.04 5.15999 18.4 5.59999 18.4ZM8.79999 18.4C9.23999 18.4 9.59999 18.04 9.59999 17.6C9.59999 17.16 9.23999 16.8 8.79999 16.8C8.35999 16.8 7.99999 17.16 7.99999 17.6C7.99999 18.04 8.35999 18.4 8.79999 18.4ZM12 18.4C12.44 18.4 12.8 18.04 12.8 17.6C12.8 17.16 12.44 16.8 12 16.8C11.56 16.8 11.2 17.16 11.2 17.6C11.2 18.04 11.56 18.4 12 18.4ZM15.2 18.4C15.64 18.4 16 18.04 16 17.6C16 17.16 15.64 16.8 15.2 16.8C14.76 16.8 14.4 17.16 14.4 17.6C14.4 18.04 14.76 18.4 15.2 18.4ZM18.4 18.4C18.84 18.4 19.2 18.04 19.2 17.6C19.2 17.16 18.84 16.8 18.4 16.8C17.96 16.8 17.6 17.16 17.6 17.6C17.6 18.04 17.96 18.4 18.4 18.4ZM5.59999 12H10.4C10.84 12 11.2 11.64 11.2 11.2C11.2 10.76 10.84 10.4 10.4 10.4H5.59999C5.15999 10.4 4.79999 10.76 4.79999 11.2C4.79999 11.64 5.15999 12 5.59999 12ZM13.6 12H18.4C18.84 12 19.2 11.64 19.2 11.2C19.2 10.76 18.84 10.4 18.4 10.4H13.6C13.16 10.4 12.8 10.76 12.8 11.2C12.8 11.64 13.16 12 13.6 12ZM4.79999 6.39998V7.99998C4.79999 8.43998 5.15999 8.79998 5.59999 8.79998H18.4C18.84 8.79998 19.2 8.43998 19.2 7.99998V6.39998C19.2 5.95998 18.84 5.59998 18.4 5.59998H5.59999C5.15999 5.59998 4.79999 5.95998 4.79999 6.39998Z" fill="#808080"/>
</svg>
