<svg width="24" height="24" viewBox="0 0 24 24" fill="none" xmlns="http://www.w3.org/2000/svg">
<path fill-rule="evenodd" clip-rule="evenodd" d="M18 10.4C17.176 10.4 16.48 10.896 16.168 11.6H13.832C13.52 10.896 12.824 10.4 12 10.4C11.176 10.4 10.48 10.896 10.168 11.6H7.832C7.52 10.896 6.824 10.4 6 10.4C4.896 10.4 4 11.296 4 12.4C4 13.504 4.896 14.4 6 14.4C6.824 14.4 7.52 13.904 7.832 13.2H10.168C10.48 13.904 11.176 14.4 12 14.4C12.824 14.4 13.52 13.904 13.832 13.2H16.168C16.48 13.904 17.176 14.4 18 14.4C19.104 14.4 20 13.504 20 12.4C20 11.296 19.104 10.4 18 10.4Z" fill="#808080"/>
</svg>
