<svg width="24" height="24" viewBox="0 0 24 24" fill="none" xmlns="http://www.w3.org/2000/svg">
<path fill-rule="evenodd" clip-rule="evenodd" d="M18.4 14.4H5.59999C5.15999 14.4 4.79999 14.76 4.79999 15.2C4.79999 15.64 5.15999 16 5.59999 16H18.4C18.84 16 19.2 15.64 19.2 15.2C19.2 14.76 18.84 14.4 18.4 14.4ZM18.4 10.4H5.59999C5.15999 10.4 4.79999 10.76 4.79999 11.2V12C4.79999 12.44 5.15999 12.8 5.59999 12.8H18.4C18.84 12.8 19.2 12.44 19.2 12V11.2C19.2 10.76 18.84 10.4 18.4 10.4ZM18.4 5.59998H5.59999C5.15999 5.59998 4.79999 5.95998 4.79999 6.39998V7.99998C4.79999 8.43998 5.15999 8.79998 5.59999 8.79998H18.4C18.84 8.79998 19.2 8.43998 19.2 7.99998V6.39998C19.2 5.95998 18.84 5.59998 18.4 5.59998ZM18.8 17.6H5.19999C4.97599 17.6 4.79999 17.776 4.79999 18C4.79999 18.224 4.97599 18.4 5.19999 18.4H18.8C19.024 18.4 19.2 18.224 19.2 18C19.2 17.776 19.024 17.6 18.8 17.6Z" fill="#808080"/>
</svg>
