<svg width="24" height="24" viewBox="0 0 24 24" fill="none" xmlns="http://www.w3.org/2000/svg">
<path fill-rule="evenodd" clip-rule="evenodd" d="M19.949 11.17C19.653 9.19399 17.853 7.78599 15.853 7.78599H13.557C13.141 7.78599 12.797 8.12999 12.797 8.54599C12.797 8.96199 13.141 9.30599 13.557 9.30599H15.877C17.157 9.30599 18.309 10.218 18.453 11.49C18.589 12.634 17.941 13.642 16.973 14.066L18.093 15.186C19.397 14.37 20.205 12.858 19.949 11.17ZM5.69303 5.03399C5.38103 4.72199 4.87703 4.72199 4.56503 5.03399C4.25303 5.34599 4.25303 5.84999 4.56503 6.16199L6.48503 8.08199C4.93303 8.72199 3.86903 10.298 4.01303 12.114C4.18103 14.226 6.06903 15.786 8.18103 15.786H10.437C10.853 15.786 11.197 15.442 11.197 15.026C11.197 14.61 10.853 14.266 10.437 14.266H8.12503C6.82103 14.266 5.64503 13.314 5.52503 12.01C5.40503 10.634 6.41303 9.47399 7.72503 9.32999L9.40503 11.01C9.06103 11.082 8.79703 11.378 8.79703 11.746V11.826C8.79703 12.242 9.14103 12.586 9.55703 12.586H10.981L12.797 14.402V15.786H14.181L16.821 18.426C17.133 18.738 17.637 18.738 17.949 18.426C18.261 18.114 18.261 17.61 17.949 17.298L5.69303 5.03399ZM15.197 11.746C15.197 11.33 14.853 10.986 14.437 10.986H13.909L15.101 12.178C15.157 12.074 15.197 11.954 15.197 11.826V11.746Z" fill="#808080"/>
</svg>
