<svg width="24" height="24" viewBox="0 0 24 24" fill="none" xmlns="http://www.w3.org/2000/svg">
<path fill-rule="evenodd" clip-rule="evenodd" d="M12 11.1641C11.1426 11.1641 10.3503 11.6216 9.92154 12.3641C9.49282 13.1067 9.49282 14.0216 9.92154 14.7641C10.3503 15.5067 11.1426 15.9641 12 15.9641C12.8574 15.9641 13.6497 15.5067 14.0785 14.7641C14.5072 14.0216 14.5072 13.1067 14.0785 12.3641C13.6497 11.6216 12.8574 11.1641 12 11.1641ZM15.68 5.06013C17.36 5.27613 18.696 6.60413 18.904 8.28413C18.936 8.55613 19.16 8.76413 19.432 8.76413C19.744 8.76413 20 8.49213 19.96 8.18013C19.696 6.00413 17.96 4.26813 15.784 4.00413C15.472 3.96413 15.2 4.22013 15.2 4.53213C15.2 4.80413 15.408 5.02813 15.68 5.06013ZM17.784 8.11613C17.5438 7.1639 16.8002 6.42038 15.848 6.18013C15.52 6.10013 15.2 6.35613 15.2 6.70013C15.2 6.93213 15.352 7.15613 15.584 7.21213C16.16 7.35613 16.616 7.80413 16.752 8.38013C16.808 8.61213 17.024 8.76413 17.264 8.76413C17.608 8.76413 17.864 8.44413 17.784 8.11613ZM16 9.56413C16 8.68413 15.28 7.96413 14.4 7.96413V6.36413C14.4 5.92413 14.04 5.56413 13.6 5.56413H10.304C9.856 5.56413 9.424 5.75613 9.12 6.08413L8.136 7.16413H5.6C4.72 7.16413 4 7.88413 4 8.76413V18.3641C4 19.2441 4.72 19.9641 5.6 19.9641H18.4C19.28 19.9641 20 19.2441 20 18.3641V11.1641C20 10.2841 19.28 9.56413 18.4 9.56413H16ZM12 17.5641C9.792 17.5641 8 15.7721 8 13.5641C8 11.3561 9.792 9.56413 12 9.56413C14.208 9.56413 16 11.3561 16 13.5641C16 15.7721 14.208 17.5641 12 17.5641Z" fill="#808080"/>
</svg>
