<svg width="24" height="24" viewBox="0 0 24 24" fill="none" xmlns="http://www.w3.org/2000/svg">
<path fill-rule="evenodd" clip-rule="evenodd" d="M16 8H13.6C13.16 8 12.8 8.36 12.8 8.8C12.8 9.24 13.16 9.6 13.6 9.6H16C17.32 9.6 18.4 10.68 18.4 12C18.4 13.32 17.32 14.4 16 14.4H13.6C13.16 14.4 12.8 14.76 12.8 15.2C12.8 15.64 13.16 16 13.6 16H16C18.208 16 20 14.208 20 12C20 9.792 18.208 8 16 8ZM8.8 12C8.8 12.44 9.16 12.8 9.6 12.8H14.4C14.84 12.8 15.2 12.44 15.2 12C15.2 11.56 14.84 11.2 14.4 11.2H9.6C9.16 11.2 8.8 11.56 8.8 12ZM10.4 14.4H8C6.68 14.4 5.6 13.32 5.6 12C5.6 10.68 6.68 9.6 8 9.6H10.4C10.84 9.6 11.2 9.24 11.2 8.8C11.2 8.36 10.84 8 10.4 8H8C5.792 8 4 9.792 4 12C4 14.208 5.792 16 8 16H10.4C10.84 16 11.2 15.64 11.2 15.2C11.2 14.76 10.84 14.4 10.4 14.4Z" fill="#808080"/>
</svg>
