<svg width="24" height="24" viewBox="0 0 24 24" fill="none" xmlns="http://www.w3.org/2000/svg">
<path fill-rule="evenodd" clip-rule="evenodd" d="M12 9.59999H15.2C15.64 9.59999 16 9.23999 16 8.79999C16 8.35999 15.64 7.99999 15.2 7.99999H12C11.56 7.99999 11.2 8.35999 11.2 8.79999C11.2 9.23999 11.56 9.59999 12 9.59999ZM12 12.8H15.2C15.64 12.8 16 12.44 16 12C16 11.56 15.64 11.2 15.2 11.2H12C11.56 11.2 11.2 11.56 11.2 12C11.2 12.44 11.56 12.8 12 12.8ZM12 16H15.2C15.64 16 16 15.64 16 15.2C16 14.76 15.64 14.4 15.2 14.4H12C11.56 14.4 11.2 14.76 11.2 15.2C11.2 15.64 11.56 16 12 16ZM7.99999 7.99999H9.59999V9.59999H7.99999V7.99999ZM7.99999 11.2H9.59999V12.8H7.99999V11.2ZM7.99999 14.4H9.59999V16H7.99999V14.4ZM18.4 4.79999H5.59999C5.15999 4.79999 4.79999 5.15999 4.79999 5.59999V18.4C4.79999 18.84 5.15999 19.2 5.59999 19.2H18.4C18.84 19.2 19.2 18.84 19.2 18.4V5.59999C19.2 5.15999 18.84 4.79999 18.4 4.79999ZM17.6 17.6H6.39999V6.39999H17.6V17.6Z" fill="#808080"/>
</svg>
