<svg width="24" height="24" viewBox="0 0 24 24" fill="none" xmlns="http://www.w3.org/2000/svg">
<path fill-rule="evenodd" clip-rule="evenodd" d="M5.59999 9.6C6.03999 9.6 6.39999 9.24 6.39999 8.8C6.39999 8.36 6.03999 8 5.59999 8C5.15999 8 4.79999 8.36 4.79999 8.8C4.79999 9.24 5.15999 9.6 5.59999 9.6ZM6.39999 12C6.39999 12.44 6.03999 12.8 5.59999 12.8C5.15999 12.8 4.79999 12.44 4.79999 12C4.79999 11.56 5.15999 11.2 5.59999 11.2C6.03999 11.2 6.39999 11.56 6.39999 12ZM6.39999 15.2C6.39999 15.64 6.03999 16 5.59999 16C5.15999 16 4.79999 15.64 4.79999 15.2C4.79999 14.76 5.15999 14.4 5.59999 14.4C6.03999 14.4 6.39999 14.76 6.39999 15.2ZM19.2 12C19.2 12.44 18.84 12.8 18.4 12.8H8.79999C8.35999 12.8 7.99999 12.44 7.99999 12C7.99999 11.56 8.35999 11.2 8.79999 11.2H18.4C18.84 11.2 19.2 11.56 19.2 12ZM18.4 16C18.84 16 19.2 15.64 19.2 15.2C19.2 14.76 18.84 14.4 18.4 14.4H8.79999C8.35999 14.4 7.99999 14.76 7.99999 15.2C7.99999 15.64 8.35999 16 8.79999 16H18.4ZM8.79999 9.6C8.35999 9.6 7.99999 9.24 7.99999 8.8C7.99999 8.36 8.35999 8 8.79999 8H18.4C18.84 8 19.2 8.36 19.2 8.8C19.2 9.24 18.84 9.6 18.4 9.6H8.79999Z" fill="#808080"/>
</svg>
