<svg width="24" height="24" viewBox="0 0 24 24" fill="none" xmlns="http://www.w3.org/2000/svg">
<path fill-rule="evenodd" clip-rule="evenodd" d="M10.8 15.96L13.984 14.136C14.52 13.832 14.52 13.056 13.984 12.744L10.8 10.92C10.264 10.616 9.59995 11.008 9.59995 11.616V15.256C9.59995 15.872 10.264 16.264 10.8 15.96ZM19.2 7.04H13.128L15.48 4.688C15.64 4.528 15.64 4.28 15.48 4.12C15.32 3.96 15.072 3.96 14.912 4.12L12 7.032L9.08795 4.12C8.92795 3.96 8.67995 3.96 8.51995 4.12C8.35995 4.28 8.35995 4.528 8.51995 4.688L10.872 7.04H4.79995C3.91995 7.04 3.19995 7.752 3.19995 8.64V18.24C3.19995 19.12 3.91995 19.84 4.79995 19.84H19.2C20.08 19.84 20.8 19.12 20.8 18.24V8.64C20.8 7.752 20.08 7.04 19.2 7.04ZM18.4 18.24H5.59995C5.15995 18.24 4.79995 17.88 4.79995 17.44V9.44C4.79995 9 5.15995 8.64 5.59995 8.64H18.4C18.84 8.64 19.2 9 19.2 9.44V17.44C19.2 17.88 18.84 18.24 18.4 18.24Z" fill="#808080"/>
</svg>
