<svg width="24" height="24" viewBox="0 0 24 24" fill="none" xmlns="http://www.w3.org/2000/svg">
<path fill-rule="evenodd" clip-rule="evenodd" d="M17.6 4H6.39999C5.51199 4 4.79999 4.72 4.79999 5.6V16.8C4.79999 17.68 5.51999 18.4 6.39999 18.4H9.59999L11.432 20.232C11.744 20.544 12.248 20.544 12.56 20.232L14.4 18.4H17.6C18.48 18.4 19.2 17.68 19.2 16.8V5.6C19.2 4.72 18.48 4 17.6 4ZM12.8 16.8H11.2V15.2H12.8V16.8ZM14.456 10.6L13.736 11.336C13.272 11.808 12.944 12.216 12.84 12.984C12.792 13.328 12.512 13.592 12.16 13.592H11.912C11.496 13.592 11.176 13.224 11.232 12.808C11.32 12.08 11.656 11.432 12.144 10.936L13.136 9.928C13.424 9.64 13.6 9.24 13.6 8.8C13.6 7.92 12.88 7.2 12 7.2C11.304 7.2 10.704 7.656 10.488 8.28C10.384 8.576 10.136 8.792 9.82399 8.792H9.58399C9.11999 8.792 8.79999 8.344 8.92799 7.896C9.31999 6.568 10.544 5.6 12 5.6C13.768 5.6 15.2 7.032 15.2 8.8C15.2 9.504 14.912 10.144 14.456 10.6Z" fill="#808080"/>
</svg>
