<svg width="24" height="24" viewBox="0 0 24 24" fill="none" xmlns="http://www.w3.org/2000/svg">
<path fill-rule="evenodd" clip-rule="evenodd" d="M12.3944 4.80005C10.0024 4.80005 7.81842 5.66405 6.13042 7.10405C5.56242 7.59205 5.44242 8.42405 5.81042 9.07205L11.6984 19.5601C12.0024 20.104 12.7864 20.104 13.0904 19.5601L18.9784 9.07205C19.3464 8.42405 19.2264 7.58405 18.6584 7.10405C16.9784 5.67205 14.7864 4.80005 12.3944 4.80005ZM8.39442 8.80005C8.39442 7.92005 9.11442 7.20005 9.99442 7.20005C10.8744 7.20005 11.5944 7.92005 11.5944 8.80005C11.5944 9.68005 10.8744 10.4 9.99442 10.4C9.11442 10.4 8.39442 9.68005 8.39442 8.80005ZM12.3944 15.2C11.5144 15.2 10.7944 14.48 10.7944 13.6C10.7944 12.72 11.5144 12 12.3944 12C13.2744 12 13.9944 12.72 13.9944 13.6C13.9944 14.48 13.2744 15.2 12.3944 15.2Z" fill="#808080"/>
</svg>
