<svg width="24" height="24" viewBox="0 0 24 24" fill="none" xmlns="http://www.w3.org/2000/svg">
<path fill-rule="evenodd" clip-rule="evenodd" d="M12 11.64C10.544 10.28 8.70405 9.328 6.65605 8.96C5.68805 8.792 4.80005 9.56 4.80005 10.544V15.536C4.80005 16.88 5.37605 17.584 6.16805 17.688C8.16805 17.944 9.98405 18.768 11.472 19.984C11.752 20.216 12.208 20.24 12.488 20.016C13.984 18.792 15.816 17.952 17.832 17.696C18.584 17.592 19.2 16.848 19.2 16.08V10.544C19.2 9.56 18.312 8.792 17.344 8.96C15.296 9.328 13.456 10.28 12 11.64ZM12 8.8C13.328 8.8 14.4 7.728 14.4 6.4C14.4 5.072 13.328 4 12 4C10.672 4 9.60005 5.072 9.60005 6.4C9.60005 7.728 10.672 8.8 12 8.8Z" fill="#808080"/>
</svg>
