<svg width="24" height="24" viewBox="0 0 24 24" fill="none" xmlns="http://www.w3.org/2000/svg">
<path fill-rule="evenodd" clip-rule="evenodd" d="M18 8.79998H16V7.19998C16 6.31998 15.28 5.59998 14.4 5.59998H4.79995C3.91995 5.59998 3.19995 6.31998 3.19995 7.19998V14.4C3.19995 15.28 3.91995 16 4.79995 16C4.79995 17.328 5.87195 18.4 7.19995 18.4C8.52795 18.4 9.59995 17.328 9.59995 16H14.4C14.4 17.328 15.472 18.4 16.8 18.4C18.128 18.4 19.2 17.328 19.2 16H20C20.44 16 20.8 15.64 20.8 15.2V12.536C20.8 12.192 20.688 11.856 20.48 11.576L18.64 9.11998C18.488 8.91998 18.248 8.79998 18 8.79998ZM7.19995 16.8C6.75995 16.8 6.39995 16.44 6.39995 16C6.39995 15.56 6.75995 15.2 7.19995 15.2C7.63995 15.2 7.99995 15.56 7.99995 16C7.99995 16.44 7.63995 16.8 7.19995 16.8ZM18 9.99998L19.568 12H16V9.99998H18ZM16.8 16.8C16.36 16.8 16 16.44 16 16C16 15.56 16.36 15.2 16.8 15.2C17.24 15.2 17.6 15.56 17.6 16C17.6 16.44 17.24 16.8 16.8 16.8Z" fill="#808080"/>
</svg>
