<svg width="24" height="24" viewBox="0 0 24 24" fill="none" xmlns="http://www.w3.org/2000/svg">
<path fill-rule="evenodd" clip-rule="evenodd" d="M18.4 5.59998H5.6C4.712 5.59998 4.008 6.31198 4.008 7.19998L4 16.8C4 17.688 4.712 18.4 5.6 18.4H18.4C19.288 18.4 20 17.688 20 16.8V7.19998C20 6.31198 19.288 5.59998 18.4 5.59998ZM18.4 16C18.4 16.44 18.04 16.8 17.6 16.8H6.4C5.96 16.8 5.6 16.44 5.6 16V7.99998C5.6 7.55998 5.96 7.19998 6.4 7.19998H17.6C18.04 7.19998 18.4 7.55998 18.4 7.99998V16ZM13.6 10.4C14.04 10.4 14.4 10.04 14.4 9.59998C14.4 9.15998 14.04 8.79998 13.6 8.79998H12.8V8.79198C12.8 8.35198 12.44 7.99198 12 7.99198C11.56 7.99198 11.2 8.35198 11.2 8.79198V8.79998H10.4C9.96 8.79998 9.6 9.15998 9.6 9.59998V12C9.6 12.44 9.96 12.8 10.4 12.8H12.8V13.6H10.4C9.96 13.6 9.6 13.96 9.6 14.4C9.6 14.84 9.96 15.2 10.4 15.2H11.2C11.2 15.64 11.56 16 12 16C12.44 16 12.8 15.64 12.8 15.2H13.6C14.04 15.2 14.4 14.84 14.4 14.4V12C14.4 11.56 14.04 11.2 13.6 11.2H11.2V10.4H13.6Z" fill="#808080"/>
</svg>
