<svg width="24" height="24" viewBox="0 0 24 24" fill="none" xmlns="http://www.w3.org/2000/svg">
<path fill-rule="evenodd" clip-rule="evenodd" d="M17.763 14.6L15.731 14.368C15.243 14.312 14.763 14.48 14.419 14.824L12.947 16.296C10.683 15.144 8.82699 13.296 7.67499 11.024L9.15499 9.54405C9.49899 9.20005 9.66699 8.72005 9.61099 8.23205L9.37899 6.21605C9.28299 5.40805 8.60299 4.80005 7.78699 4.80005H6.40299C5.49899 4.80005 4.74699 5.55205 4.80299 6.45605C5.22699 13.288 10.691 18.744 17.515 19.168C18.419 19.224 19.171 18.472 19.171 17.568V16.184C19.179 15.376 18.571 14.696 17.763 14.6Z" fill="#808080"/>
</svg>
