<svg width="24" height="24" viewBox="0 0 24 24" fill="none" xmlns="http://www.w3.org/2000/svg">
<path fill-rule="evenodd" clip-rule="evenodd" d="M18.4 4.80005H7.2C6.32 4.80005 5.6 5.52005 5.6 6.40005V12.8C5.6 14.568 7.032 16 8.8 16H13.6C15.368 16 16.8 14.568 16.8 12.8V10.4H18.4C19.28 10.4 20 9.68005 20 8.80005V6.40005C20 5.52005 19.28 4.80005 18.4 4.80005ZM18.4 8.80005H16.8V6.40005H18.4V8.80005ZM4.8 19.2H17.6C18.04 19.2 18.4 18.84 18.4 18.4C18.4 17.96 18.04 17.6 17.6 17.6H4.8C4.36 17.6 4 17.96 4 18.4C4 18.84 4.36 19.2 4.8 19.2Z" fill="#808080"/>
</svg>
