<svg width="24" height="24" viewBox="0 0 24 24" fill="none" xmlns="http://www.w3.org/2000/svg">
<path fill-rule="evenodd" clip-rule="evenodd" d="M17.6 8H16C16 5.792 14.208 4 12 4C9.79205 4 8.00005 5.792 8.00005 8H6.40005C5.52005 8 4.80005 8.72 4.80005 9.6V19.2C4.80005 20.08 5.52005 20.8 6.40005 20.8H17.6C18.48 20.8 19.2 20.08 19.2 19.2V9.6C19.2 8.72 18.48 8 17.6 8ZM12 5.6C13.328 5.6 14.4 6.672 14.4 8H9.60005C9.60005 6.672 10.672 5.6 12 5.6ZM12 13.6C10.136 13.6 8.56805 12.328 8.12805 10.6C7.99205 10.096 8.38405 9.6 8.90405 9.6C9.28005 9.6 9.58405 9.872 9.68805 10.24C9.96805 11.256 10.896 12 12 12C13.104 12 14.032 11.256 14.312 10.24C14.416 9.872 14.72 9.6 15.096 9.6C15.616 9.6 16 10.096 15.872 10.6C15.432 12.328 13.864 13.6 12 13.6Z" fill="#808080"/>
</svg>
