<svg width="24" height="24" viewBox="0 0 24 24" fill="none" xmlns="http://www.w3.org/2000/svg">
<path fill-rule="evenodd" clip-rule="evenodd" d="M7.99995 12.8C9.32795 12.8 10.4 11.728 10.4 10.4C10.4 9.07202 9.32795 8.00002 7.99995 8.00002C6.67195 8.00002 5.59995 9.07202 5.59995 10.4C5.59995 11.728 6.67195 12.8 7.99995 12.8ZM17.6 8.00002H12.8C11.92 8.00002 11.2 8.72002 11.2 9.60002V13.6H4.79995V7.20002C4.79995 6.76002 4.43995 6.40002 3.99995 6.40002C3.55995 6.40002 3.19995 6.76002 3.19995 7.20002V17.6C3.19995 18.04 3.55995 18.4 3.99995 18.4C4.43995 18.4 4.79995 18.04 4.79995 17.6V16H19.2V17.6C19.2 18.04 19.56 18.4 20 18.4C20.44 18.4 20.8 18.04 20.8 17.6V11.2C20.8 9.43202 19.368 8.00002 17.6 8.00002Z" fill="#808080"/>
</svg>
