<svg width="24" height="24" viewBox="0 0 24 24" fill="none" xmlns="http://www.w3.org/2000/svg">
<path fill-rule="evenodd" clip-rule="evenodd" d="M14.4 11.666V7.53004C14.4 7.10604 14.232 6.69804 13.928 6.40204L12.56 5.03404C12.4106 4.88424 12.2077 4.80005 11.996 4.80005C11.7844 4.80005 11.5815 4.88424 11.432 5.03404L10.072 6.39404C9.76805 6.69804 9.60005 7.10604 9.60005 7.53004V8.46604H6.40005C5.52005 8.46604 4.80005 9.18604 4.80005 10.066V18.066C4.80005 18.946 5.52005 19.666 6.40005 19.666H17.6C18.48 19.666 19.2 18.946 19.2 18.066V13.266C19.2 12.386 18.48 11.666 17.6 11.666H14.4ZM8.00005 18.066H6.40005V16.466H8.00005V18.066ZM8.00005 14.866H6.40005V13.266H8.00005V14.866ZM8.00005 11.666H6.40005V10.066H8.00005V11.666ZM12.8 18.066H11.2V16.466H12.8V18.066ZM12.8 14.866H11.2V13.266H12.8V14.866ZM12.8 11.666H11.2V10.066H12.8V11.666ZM12.8 8.46604H11.2V6.86604H12.8V8.46604ZM17.6 18.066H16V16.466H17.6V18.066ZM17.6 14.866H16V13.266H17.6V14.866Z" fill="#808080"/>
</svg>
