<svg width="24" height="24" viewBox="0 0 24 24" fill="none" xmlns="http://www.w3.org/2000/svg">
<path fill-rule="evenodd" clip-rule="evenodd" d="M17.536 7.20805C17.376 6.73605 16.928 6.40005 16.4 6.40005H14.4V5.60005C14.4 5.16005 14.04 4.80005 13.6 4.80005H10.4C9.96005 4.80005 9.60005 5.16005 9.60005 5.60005V6.40005H7.60005C7.07205 6.40005 6.63205 6.73605 6.46405 7.20805L4.88805 11.744C4.83205 11.912 4.80005 12.088 4.80005 12.272V18C4.80005 18.664 5.33605 19.2 6.00005 19.2C6.66405 19.2 7.20005 18.664 7.20005 18V17.6H16.8V18C16.8 18.656 17.336 19.2 18 19.2C18.656 19.2 19.2 18.664 19.2 18V12.272C19.2 12.096 19.168 11.912 19.112 11.744L17.536 7.20805ZM7.60005 15.2C6.93605 15.2 6.40005 14.664 6.40005 14C6.40005 13.336 6.93605 12.8 7.60005 12.8C8.26405 12.8 8.80005 13.336 8.80005 14C8.80005 14.664 8.26405 15.2 7.60005 15.2ZM16.4 15.2C15.736 15.2 15.2 14.664 15.2 14C15.2 13.336 15.736 12.8 16.4 12.8C17.064 12.8 17.6 13.336 17.6 14C17.6 14.664 17.064 15.2 16.4 15.2ZM6.40005 11.2L7.60005 7.60005H16.4L17.6 11.2H6.40005Z" fill="#808080"/>
</svg>
