<svg width="24" height="24" viewBox="0 0 24 24" fill="none" xmlns="http://www.w3.org/2000/svg">
<path fill-rule="evenodd" clip-rule="evenodd" d="M17.435 6.91765H17.011L17.579 5.34165C17.771 4.82165 17.499 4.24565 16.979 4.06165C16.459 3.86965 15.883 4.14165 15.691 4.66165L14.875 6.91765H6.40303C5.30703 6.91765 4.53903 7.98965 4.88303 9.02165L6.32303 13.3177L4.89103 17.6137C4.53903 18.6457 5.31503 19.7177 6.40303 19.7177H17.427C18.515 19.7177 19.291 18.6457 18.947 17.6137L17.523 13.3177L18.947 9.02165C19.291 7.98965 18.523 6.91765 17.435 6.91765ZM14.323 14.1177H12.723V15.7177C12.723 16.1577 12.363 16.5177 11.923 16.5177C11.483 16.5177 11.123 16.1577 11.123 15.7177V14.1177H9.52303C9.08303 14.1177 8.72303 13.7577 8.72303 13.3177C8.72303 12.8777 9.08303 12.5177 9.52303 12.5177H11.123V10.9177C11.123 10.4777 11.483 10.1177 11.923 10.1177C12.363 10.1177 12.723 10.4777 12.723 10.9177V12.5177H14.323C14.763 12.5177 15.123 12.8777 15.123 13.3177C15.123 13.7577 14.763 14.1177 14.323 14.1177Z" fill="#808080"/>
</svg>
