<svg width="24" height="24" viewBox="0 0 24 24" fill="none" xmlns="http://www.w3.org/2000/svg">
<path fill-rule="evenodd" clip-rule="evenodd" d="M17.6 4.80005H6.40005C5.52005 4.80005 4.80805 5.52005 4.80805 6.40005L4.80005 17.6C4.80005 18.48 5.52005 19.2 6.40005 19.2H17.6C18.48 19.2 19.2 18.48 19.2 17.6V6.40005C19.2 5.52005 18.48 4.80005 17.6 4.80005ZM16 13.6H13.6V16C13.6 16.44 13.24 16.8 12.8 16.8H11.2C10.76 16.8 10.4 16.44 10.4 16V13.6H8.00005C7.56005 13.6 7.20005 13.24 7.20005 12.8V11.2C7.20005 10.76 7.56005 10.4 8.00005 10.4H10.4V8.00005C10.4 7.56005 10.76 7.20005 11.2 7.20005H12.8C13.24 7.20005 13.6 7.56005 13.6 8.00005V10.4H16C16.44 10.4 16.8 10.76 16.8 11.2V12.8C16.8 13.24 16.44 13.6 16 13.6Z" fill="#808080"/>
</svg>
