<svg width="24" height="24" viewBox="0 0 24 24" fill="none" xmlns="http://www.w3.org/2000/svg">
<path fill-rule="evenodd" clip-rule="evenodd" d="M12 10.24C10.5862 10.24 9.44 11.3862 9.44 12.8C9.44 14.2139 10.5862 15.36 12 15.36C13.4138 15.36 14.56 14.2139 14.56 12.8C14.56 11.3862 13.4138 10.24 12 10.24ZM18.4 6.40005H15.864L14.872 5.32005C14.576 4.99205 14.144 4.80005 13.696 4.80005H10.304C9.856 4.80005 9.424 4.99205 9.12 5.32005L8.136 6.40005H5.6C4.72 6.40005 4 7.12005 4 8.00005V17.6C4 18.48 4.72 19.2 5.6 19.2H18.4C19.28 19.2 20 18.48 20 17.6V8.00005C20 7.12005 19.28 6.40005 18.4 6.40005ZM12 16.8C9.792 16.8 8 15.008 8 12.8C8 10.592 9.792 8.80005 12 8.80005C14.208 8.80005 16 10.592 16 12.8C16 15.008 14.208 16.8 12 16.8Z" fill="#808080"/>
</svg>
