<svg width="24" height="24" viewBox="0 0 24 24" fill="none" xmlns="http://www.w3.org/2000/svg">
<path fill-rule="evenodd" clip-rule="evenodd" d="M5.03399 5.248C4.72199 5.56 4.72199 6.064 5.03399 6.376L7.00999 8.352C6.92199 8.76 6.86599 9.176 6.86599 9.6C6.86599 12.936 10.402 17.536 11.85 19.288C12.17 19.672 12.754 19.672 13.074 19.288C13.594 18.664 14.37 17.68 15.162 16.52L17.282 18.64C17.594 18.952 18.098 18.952 18.41 18.64C18.722 18.328 18.722 17.824 18.41 17.512L6.16199 5.248C6.01252 5.0982 5.8096 5.01401 5.59799 5.01401C5.38637 5.01401 5.18345 5.0982 5.03399 5.248ZM12.466 4C10.994 4 9.66599 4.568 8.66599 5.488L11.218 8.04C11.562 7.768 11.994 7.6 12.466 7.6C13.57 7.6 14.466 8.496 14.466 9.6C14.466 10.072 14.298 10.504 14.018 10.848L16.858 13.688C17.562 12.288 18.066 10.856 18.066 9.6C18.066 6.504 15.562 4 12.466 4Z" fill="#808080"/>
</svg>
