<svg width="24" height="24" viewBox="0 0 24 24" fill="none" xmlns="http://www.w3.org/2000/svg">
<path fill-rule="evenodd" clip-rule="evenodd" d="M18.4 12C18.4 11.392 18.744 10.864 19.248 10.592C19.728 10.328 20 9.78398 20 9.23198V7.19998C20 6.31998 19.28 5.59998 18.4 5.59998H5.6C4.72 5.59998 4.008 6.31198 4.008 7.19198V9.23198C4.008 9.78398 4.272 10.328 4.76 10.584C5.264 10.864 5.6 11.392 5.6 12C5.6 12.608 5.256 13.144 4.752 13.408C4.272 13.672 4 14.216 4 14.768V16.568C4 17.68 4.72 18.4 5.6 18.4H18.4C19.28 18.4 20 17.68 20 16.8V14.768C20 14.216 19.728 13.672 19.248 13.408C18.744 13.136 18.4 12.608 18.4 12ZM14 15.28L12 14L10 15.288C9.696 15.48 9.304 15.2 9.4 14.848L10 12.544L8.16 11.04C7.88 10.808 8.024 10.352 8.392 10.328L10.76 10.192L11.624 7.99198C11.76 7.65598 12.24 7.65598 12.368 7.99198L13.232 10.2L15.6 10.336C15.96 10.36 16.112 10.816 15.832 11.048L13.992 12.552L14.6 14.84C14.696 15.2 14.304 15.48 14 15.28Z" fill="#808080"/>
</svg>
