<svg width="24" height="24" viewBox="0 0 24 24" fill="none" xmlns="http://www.w3.org/2000/svg">
<path fill-rule="evenodd" clip-rule="evenodd" d="M19.2 5.96005C19.2 5.32005 18.68 4.80005 18.04 4.80005H5.96005C5.32005 4.80005 4.80005 5.32005 4.80005 5.96005C4.80005 6.24005 4.90405 6.52005 5.09605 6.72805L11.2 13.6V17.6H8.00005C7.56005 17.6 7.20005 17.96 7.20005 18.4C7.20005 18.84 7.56005 19.2 8.00005 19.2H16C16.44 19.2 16.8 18.84 16.8 18.4C16.8 17.96 16.44 17.6 16 17.6H12.8V13.6L18.904 6.72805C19.096 6.52005 19.2 6.24005 19.2 5.96005ZM8.34405 8.00005L6.92805 6.40005H17.08L15.656 8.00005H8.34405Z" fill="#808080"/>
</svg>
