<svg width="24" height="24" viewBox="0 0 24 24" fill="none" xmlns="http://www.w3.org/2000/svg">
<path fill-rule="evenodd" clip-rule="evenodd" d="M19.528 11.664L12.328 4.464C12.04 4.176 11.64 4 11.2 4H5.6C4.72 4 4 4.72 4 5.6V11.2C4 11.64 4.176 12.04 4.472 12.336L11.672 19.536C11.96 19.824 12.36 20 12.8 20C13.24 20 13.64 19.824 13.928 19.528L19.528 13.928C19.824 13.64 20 13.24 20 12.8C20 12.36 19.816 11.952 19.528 11.664ZM6.8 8C6.136 8 5.6 7.464 5.6 6.8C5.6 6.136 6.136 5.6 6.8 5.6C7.464 5.6 8 6.136 8 6.8C8 7.464 7.464 8 6.8 8Z" fill="#808080"/>
</svg>
