<svg width="24" height="24" viewBox="0 0 24 24" fill="none" xmlns="http://www.w3.org/2000/svg">
<path fill-rule="evenodd" clip-rule="evenodd" d="M11.9436 20.8C15.5916 20.8 18.6076 18.08 19.0796 14.56C19.1516 14.048 18.6956 13.592 18.1836 13.664C14.6636 14.136 11.9436 17.152 11.9436 20.8ZM6.82357 11.4C6.82357 12.504 7.71957 13.4 8.82357 13.4C9.24757 13.4 9.63157 13.272 9.95957 13.048L9.94357 13.2C9.94357 14.304 10.8396 15.2 11.9436 15.2C13.0476 15.2 13.9436 14.304 13.9436 13.2L13.9276 13.048C14.2476 13.272 14.6396 13.4 15.0636 13.4C16.1676 13.4 17.0636 12.504 17.0636 11.4C17.0636 10.6 16.5916 9.92 15.9196 9.6C16.5916 9.28 17.0636 8.6 17.0636 7.8C17.0636 6.696 16.1676 5.8 15.0636 5.8C14.6396 5.8 14.2556 5.928 13.9276 6.152L13.9436 6C13.9436 4.896 13.0476 4 11.9436 4C10.8396 4 9.94357 4.896 9.94357 6L9.95957 6.152C9.63957 5.928 9.24757 5.8 8.82357 5.8C7.71957 5.8 6.82357 6.696 6.82357 7.8C6.82357 8.6 7.29557 9.28 7.96757 9.6C7.29557 9.92 6.82357 10.6 6.82357 11.4ZM11.9436 7.6C13.0476 7.6 13.9436 8.496 13.9436 9.6C13.9436 10.704 13.0476 11.6 11.9436 11.6C10.8396 11.6 9.94357 10.704 9.94357 9.6C9.94357 8.496 10.8396 7.6 11.9436 7.6ZM4.80757 14.56C5.27957 18.08 8.29557 20.8 11.9436 20.8C11.9436 17.152 9.22357 14.136 5.70357 13.664C5.19157 13.592 4.73557 14.048 4.80757 14.56Z" fill="#808080"/>
</svg>
