<svg width="24" height="24" viewBox="0 0 24 24" fill="none" xmlns="http://www.w3.org/2000/svg">
<path fill-rule="evenodd" clip-rule="evenodd" d="M18.2161 8.18405L18.2241 8.17605L15.6721 5.62405C15.4401 5.39205 15.0561 5.39205 14.8241 5.62405C14.5921 5.85605 14.5921 6.24005 14.8241 6.47205L16.0881 7.73605C15.2481 8.05605 14.6801 8.91205 14.8241 9.90405C14.9521 10.784 15.7041 11.496 16.5841 11.592C16.9601 11.632 17.2881 11.568 17.6001 11.432V17.2C17.6001 17.64 17.2401 18 16.8001 18C16.3601 18 16.0001 17.64 16.0001 17.2V13.6C16.0001 12.72 15.2801 12 14.4001 12H13.6001V6.40005C13.6001 5.52005 12.8801 4.80005 12.0001 4.80005H7.2001C6.3201 4.80005 5.6001 5.52005 5.6001 6.40005V18.4C5.6001 18.84 5.9601 19.2 6.4001 19.2H12.8001C13.2401 19.2 13.6001 18.84 13.6001 18.4V13.2H14.8001V17.088C14.8001 18.136 15.5521 19.088 16.5921 19.192C17.7921 19.312 18.8001 18.376 18.8001 17.2V9.60005C18.8001 9.04805 18.5761 8.54405 18.2161 8.18405ZM12.0001 10.4H7.2001V7.20005C7.2001 6.76005 7.5601 6.40005 8.0001 6.40005H11.2001C11.6401 6.40005 12.0001 6.76005 12.0001 7.20005V10.4ZM16.8001 10.4C16.3601 10.4 16.0001 10.04 16.0001 9.60005C16.0001 9.16005 16.3601 8.80005 16.8001 8.80005C17.2401 8.80005 17.6001 9.16005 17.6001 9.60005C17.6001 10.04 17.2401 10.4 16.8001 10.4Z" fill="#808080"/>
</svg>
