<svg width="24" height="24" viewBox="0 0 24 24" fill="none" xmlns="http://www.w3.org/2000/svg">
<path fill-rule="evenodd" clip-rule="evenodd" d="M10.0401 15.56C9.8801 15.72 9.8721 16 10.0561 16.144C11.3121 17.104 13.1201 17.008 14.2641 15.864C15.4081 14.72 15.5041 12.912 14.5441 11.656C14.4001 11.472 14.1201 11.472 13.9601 11.64L10.0401 15.56ZM16.8001 4.008L7.2001 4C6.3121 4 5.6001 4.712 5.6001 5.6V18.4C5.6001 19.288 6.3121 20 7.2001 20H16.8001C17.6881 20 18.4001 19.288 18.4001 18.4V5.6C18.4001 4.712 17.6881 4.008 16.8001 4.008ZM10.4001 5.6C10.8401 5.6 11.2001 5.96 11.2001 6.4C11.2001 6.84 10.8401 7.2 10.4001 7.2C9.9601 7.2 9.6001 6.84 9.6001 6.4C9.6001 5.96 9.9601 5.6 10.4001 5.6ZM8.0001 5.6C8.4401 5.6 8.8001 5.96 8.8001 6.4C8.8001 6.84 8.4401 7.2 8.0001 7.2C7.5601 7.2 7.2001 6.84 7.2001 6.4C7.2001 5.96 7.5601 5.6 8.0001 5.6ZM12.0001 18.4C9.3521 18.4 7.2001 16.248 7.2001 13.6C7.2001 10.952 9.3521 8.8 12.0001 8.8C14.6481 8.8 16.8001 10.952 16.8001 13.6C16.8001 16.248 14.6481 18.4 12.0001 18.4Z" fill="#808080"/>
</svg>
