<svg width="24" height="24" viewBox="0 0 24 24" fill="none" xmlns="http://www.w3.org/2000/svg">
<path fill-rule="evenodd" clip-rule="evenodd" d="M16 6.33195C16.664 6.33195 17.2 5.79595 17.2 5.13195C17.2 4.60395 16.672 3.81995 16.312 3.35595C16.152 3.14795 15.84 3.14795 15.68 3.35595C15.328 3.81995 14.8 4.60395 14.8 5.13195C14.8 5.79595 15.336 6.33195 16 6.33195ZM12 6.33195C12.664 6.33195 13.2 5.79595 13.2 5.13195C13.2 4.60395 12.672 3.81995 12.312 3.35595C12.152 3.14795 11.84 3.14795 11.68 3.35595C11.328 3.81995 10.8 4.60395 10.8 5.13195C10.8 5.79595 11.336 6.33195 12 6.33195ZM8.00005 6.33195C8.66405 6.33195 9.20005 5.79595 9.20005 5.13195C9.20005 4.60395 8.67205 3.81995 8.31205 3.35595C8.15205 3.14795 7.84005 3.14795 7.68005 3.35595C7.32805 3.81995 6.80005 4.60395 6.80005 5.13195C6.80005 5.79595 7.33605 6.33195 8.00005 6.33195ZM17.536 8.73995C17.376 8.26795 16.928 7.93195 16.4 7.93195H7.60005C7.07205 7.93195 6.63205 8.26795 6.46405 8.73995L4.88805 13.276C4.83205 13.444 4.80005 13.62 4.80005 13.804V19.532C4.80005 20.196 5.33605 20.732 6.00005 20.732C6.66405 20.732 7.20005 20.196 7.20005 19.532V19.132H16.8V19.532C16.8 20.188 17.336 20.732 18 20.732C18.656 20.732 19.2 20.196 19.2 19.532V13.804C19.2 13.628 19.168 13.444 19.112 13.276L17.536 8.73995ZM7.60005 16.732C6.93605 16.732 6.40005 16.196 6.40005 15.532C6.40005 14.868 6.93605 14.332 7.60005 14.332C8.26405 14.332 8.80005 14.868 8.80005 15.532C8.80005 16.196 8.26405 16.732 7.60005 16.732ZM16.4 16.732C15.736 16.732 15.2 16.196 15.2 15.532C15.2 14.868 15.736 14.332 16.4 14.332C17.064 14.332 17.6 14.868 17.6 15.532C17.6 16.196 17.064 16.732 16.4 16.732ZM6.40005 12.732L7.41605 9.67595C7.52805 9.35595 7.83205 9.13195 8.17605 9.13195H15.824C16.168 9.13195 16.472 9.35595 16.584 9.67595L17.6 12.732H6.40005Z" fill="#808080"/>
</svg>
