<svg width="24" height="24" viewBox="0 0 24 24" fill="none" xmlns="http://www.w3.org/2000/svg">
<path fill-rule="evenodd" clip-rule="evenodd" d="M6.40177 4C5.44977 4 4.70577 4.832 4.80977 5.776L6.22577 18.584C6.32177 19.384 6.99377 20 7.81777 20H15.8178C16.6418 20 17.3138 19.384 17.4098 18.584L18.8258 5.776C18.9298 4.832 18.1858 4 17.2338 4H6.40177ZM11.8178 17.6C10.4898 17.6 9.41777 16.528 9.41777 15.2C9.41777 13.96 10.8658 12.04 11.5138 11.248C11.6738 11.048 11.9698 11.048 12.1298 11.248C12.7778 12.048 14.2258 13.96 14.2258 15.2C14.2178 16.528 13.1458 17.6 11.8178 17.6ZM16.8818 8.8H6.75377L6.49777 6.488C6.44977 6.016 6.81777 5.6 7.29777 5.6H16.3378C16.8098 5.6 17.1858 6.016 17.1298 6.488L16.8818 8.8Z" fill="#808080"/>
</svg>
