<svg width="24" height="24" viewBox="0 0 24 24" fill="none" xmlns="http://www.w3.org/2000/svg">
<path fill-rule="evenodd" clip-rule="evenodd" d="M19.2 7.99998H17.6V6.39998C17.6 5.95998 17.24 5.59998 16.8 5.59998H7.2C6.76 5.59998 6.4 5.95998 6.4 6.39998V7.99998H4.8C4.36 7.99998 4 8.35998 4 8.79998V17.6C4 18.04 4.36 18.4 4.8 18.4H9.6C10.04 18.4 10.4 18.04 10.4 17.6V15.2H13.6V17.6C13.6 18.04 13.96 18.4 14.4 18.4H19.2C19.64 18.4 20 18.04 20 17.6V8.79998C20 8.35998 19.64 7.99998 19.2 7.99998ZM11.2 9.59998C11.2 10.04 10.84 10.4 10.4 10.4H9.6V11.2H10.8C11.024 11.2 11.2 11.376 11.2 11.6C11.2 11.824 11.024 12 10.8 12H9.6C9.16 12 8.8 11.64 8.8 11.2V10.4C8.8 9.95998 9.16 9.59998 9.6 9.59998H10.4V8.79998H9.2C8.976 8.79998 8.8 8.62398 8.8 8.39998C8.8 8.17598 8.976 7.99998 9.2 7.99998H10.4C10.84 7.99998 11.2 8.35998 11.2 8.79998V9.59998ZM15.2 11.6C15.2 11.824 15.024 12 14.8 12C14.576 12 14.4 11.824 14.4 11.6V10.4H13.6C13.16 10.4 12.8 10.04 12.8 9.59998V8.39998C12.8 8.17598 12.976 7.99998 13.2 7.99998C13.424 7.99998 13.6 8.17598 13.6 8.39998V9.59998H14.4V8.39998C14.4 8.17598 14.576 7.99998 14.8 7.99998C15.024 7.99998 15.2 8.17598 15.2 8.39998V11.6Z" fill="#808080"/>
</svg>
