<svg width="24" height="24" viewBox="0 0 24 24" fill="none" xmlns="http://www.w3.org/2000/svg">
<path fill-rule="evenodd" clip-rule="evenodd" d="M16.8001 5.60005V6.40005H15.2001V5.60005C15.2001 5.16005 14.8401 4.80005 14.4001 4.80005H9.6001C9.1601 4.80005 8.8001 5.16005 8.8001 5.60005V6.40005H7.2001V5.60005C7.2001 5.16005 6.8401 4.80005 6.4001 4.80005C5.9601 4.80005 5.6001 5.16005 5.6001 5.60005V18.4C5.6001 18.84 5.9601 19.2 6.4001 19.2C6.8401 19.2 7.2001 18.84 7.2001 18.4V17.6H8.8001V18.4C8.8001 18.84 9.1601 19.2 9.6001 19.2H14.4001C14.8401 19.2 15.2001 18.84 15.2001 18.4V17.6H16.8001V18.4C16.8001 18.84 17.1601 19.2 17.6001 19.2C18.0401 19.2 18.4001 18.84 18.4001 18.4V5.60005C18.4001 5.16005 18.0401 4.80005 17.6001 4.80005C17.1601 4.80005 16.8001 5.16005 16.8001 5.60005ZM8.8001 16H7.2001V14.4H8.8001V16ZM8.8001 12.8H7.2001V11.2H8.8001V12.8ZM8.8001 9.60005H7.2001V8.00005H8.8001V9.60005ZM16.8001 16H15.2001V14.4H16.8001V16ZM16.8001 12.8H15.2001V11.2H16.8001V12.8ZM16.8001 9.60005H15.2001V8.00005H16.8001V9.60005Z" fill="#808080"/>
</svg>
