<svg width="24" height="24" viewBox="0 0 24 24" fill="none" xmlns="http://www.w3.org/2000/svg">
<path fill-rule="evenodd" clip-rule="evenodd" d="M16.8 9.6H16V8C16 5.792 14.208 4 12 4C9.792 4 8 5.792 8 8V9.6H7.2C6.32 9.6 5.6 10.32 5.6 11.2V19.2C5.6 20.08 6.32 20.8 7.2 20.8H16.8C17.68 20.8 18.4 20.08 18.4 19.2V11.2C18.4 10.32 17.68 9.6 16.8 9.6ZM9.6 8C9.6 6.672 10.672 5.6 12 5.6C13.328 5.6 14.4 6.672 14.4 8V9.6H9.6V8ZM16 19.2H8C7.56 19.2 7.2 18.84 7.2 18.4V12C7.2 11.56 7.56 11.2 8 11.2H16C16.44 11.2 16.8 11.56 16.8 12V18.4C16.8 18.84 16.44 19.2 16 19.2ZM12 16.8C12.88 16.8 13.6 16.08 13.6 15.2C13.6 14.32 12.88 13.6 12 13.6C11.12 13.6 10.4 14.32 10.4 15.2C10.4 16.08 11.12 16.8 12 16.8Z" fill="#808080"/>
</svg>
