<svg width="24" height="24" viewBox="0 0 24 24" fill="none" xmlns="http://www.w3.org/2000/svg">
<path fill-rule="evenodd" clip-rule="evenodd" d="M12 13.6C11.12 13.6 10.4 14.32 10.4 15.2C10.4 16.08 11.12 16.8 12 16.8C12.88 16.8 13.6 16.08 13.6 15.2C13.6 14.32 12.88 13.6 12 13.6ZM16.8 9.6H16V8C16 5.792 14.208 4 12 4C10.176 4 8.58398 5.232 8.12798 7C8.01598 7.432 8.27198 7.864 8.70398 7.976C9.12798 8.088 9.56798 7.832 9.67998 7.4C9.95198 6.344 10.904 5.6 12 5.6C13.32 5.6 14.4 6.68 14.4 8V9.6H7.19998C6.31998 9.6 5.59998 10.32 5.59998 11.2V19.2C5.59998 20.08 6.31998 20.8 7.19998 20.8H16.8C17.68 20.8 18.4 20.08 18.4 19.2V11.2C18.4 10.32 17.68 9.6 16.8 9.6ZM16.8 18.4C16.8 18.84 16.44 19.2 16 19.2H7.99998C7.55998 19.2 7.19998 18.84 7.19998 18.4V12C7.19998 11.56 7.55998 11.2 7.99998 11.2H16C16.44 11.2 16.8 11.56 16.8 12V18.4Z" fill="#808080"/>
</svg>
