<svg width="24" height="24" viewBox="0 0 24 24" fill="none" xmlns="http://www.w3.org/2000/svg">
<path fill-rule="evenodd" clip-rule="evenodd" d="M12.6773 14.7168L14.2628 13.1314L13.9799 11.1515H15.677V9.45444H17.374V7.75739L19.0711 7.75739L18.7883 4.64612H15.9598L9.28322 11.3227C7.68186 10.8951 5.90242 11.3094 4.64612 12.5657C2.7716 14.4402 2.7716 17.4794 4.64612 19.3539C6.52064 21.2285 9.55983 21.2285 11.4343 19.3539C12.6906 18.0976 13.105 16.3182 12.6773 14.7168ZM6.90886 17.0912C6.28402 16.4664 6.28402 15.4533 6.90886 14.8285C7.5337 14.2036 8.54677 14.2036 9.1716 14.8285C9.79644 15.4533 9.79644 16.4664 9.17161 17.0912C8.54677 17.716 7.5337 17.716 6.90886 17.0912Z" fill="#808080"/>
</svg>
