<svg width="24" height="24" viewBox="0 0 24 24" fill="none" xmlns="http://www.w3.org/2000/svg">
<path fill-rule="evenodd" clip-rule="evenodd" d="M17.6 4.79999H6.40005C5.52005 4.79999 4.80005 5.51999 4.80005 6.39999V17.6C4.80005 18.48 5.52005 19.2 6.40005 19.2H17.6C18.48 19.2 19.2 18.48 19.2 17.6V6.39999C19.2 5.51999 18.48 4.79999 17.6 4.79999ZM13.6 16C13.16 16 12.8 15.64 12.8 15.2V12.8H10.4C9.96005 12.8 9.60005 12.44 9.60005 12V8.79999C9.60005 8.35999 9.96005 7.99999 10.4 7.99999C10.84 7.99999 11.2 8.35999 11.2 8.79999V11.2H12.8V8.79999C12.8 8.35999 13.16 7.99999 13.6 7.99999C14.04 7.99999 14.4 8.35999 14.4 8.79999V15.2C14.4 15.64 14.04 16 13.6 16Z" fill="#808080"/>
</svg>
