<svg width="24" height="24" viewBox="0 0 24 24" fill="none" xmlns="http://www.w3.org/2000/svg">
<path fill-rule="evenodd" clip-rule="evenodd" d="M11.9629 11.2C9.18693 11.2 6.87493 13.232 6.43493 15.888C6.35493 16.368 6.74693 16.8 7.23493 16.8C7.62693 16.8 7.95493 16.512 8.01893 16.12C8.34693 14.232 9.98693 12.8 11.9629 12.8C13.9389 12.8 15.5789 14.232 15.9069 16.12C15.9709 16.512 16.2989 16.8 16.6909 16.8C17.1789 16.8 17.5629 16.368 17.4829 15.888C17.0509 13.232 14.7389 11.2 11.9629 11.2ZM11.9629 8C7.40293 8 3.65093 11.472 3.20293 15.92C3.16293 16.392 3.53093 16.8 4.01093 16.8C4.41893 16.8 4.76293 16.496 4.80293 16.096C5.15493 12.456 8.23493 9.6 11.9629 9.6C15.6909 9.6 18.7709 12.456 19.1309 16.096C19.1709 16.496 19.5149 16.8 19.9229 16.8C20.3949 16.8 20.7709 16.392 20.7229 15.92C20.2749 11.472 16.5229 8 11.9629 8Z" fill="#808080"/>
</svg>
