<svg width="24" height="24" viewBox="0 0 24 24" fill="none" xmlns="http://www.w3.org/2000/svg">
<path fill-rule="evenodd" clip-rule="evenodd" d="M17.6 4.79999H6.40005C5.52005 4.79999 4.80005 5.51999 4.80005 6.39999V17.6C4.80005 18.48 5.52005 19.2 6.40005 19.2H17.6C18.48 19.2 19.2 18.48 19.2 17.6V6.39999C19.2 5.51999 18.48 4.79999 17.6 4.79999ZM12.8 16C12.36 16 12 15.64 12 15.2V9.59999H11.2C10.76 9.59999 10.4 9.23999 10.4 8.79999C10.4 8.35999 10.76 7.99999 11.2 7.99999H12.8C13.24 7.99999 13.6 8.35999 13.6 8.79999V15.2C13.6 15.64 13.24 16 12.8 16Z" fill="#808080"/>
</svg>
