<svg width="24" height="24" viewBox="0 0 24 24" fill="none" xmlns="http://www.w3.org/2000/svg">
<path fill-rule="evenodd" clip-rule="evenodd" d="M17.592 4.79999H6.40005C5.52005 4.79999 4.80005 5.51999 4.80005 6.39999V17.6C4.80005 18.48 5.52005 19.2 6.40005 19.2H17.592C18.472 19.2 19.192 18.48 19.192 17.6V6.39999C19.192 5.51999 18.472 4.79999 17.592 4.79999ZM14.4 10.8C14.4 11.464 13.864 12 13.2 12C13.864 12 14.4 12.536 14.4 13.2V14.4C14.4 15.288 13.68 16 12.8 16H10.392C9.95205 16 9.59205 15.64 9.59205 15.2C9.59205 14.76 9.95205 14.4 10.392 14.4H12.8L12.792 12.8H11.992C11.552 12.8 11.192 12.44 11.192 12C11.192 11.56 11.552 11.2 11.992 11.2H12.792L12.8 9.59999H10.392C9.95205 9.59999 9.60005 9.23999 9.60005 8.79999C9.60005 8.35999 9.95205 7.99999 10.392 7.99999H12.8C13.68 7.99999 14.4 8.71999 14.4 9.59999V10.8Z" fill="#808080"/>
</svg>
