<svg width="24" height="24" viewBox="0 0 24 24" fill="none" xmlns="http://www.w3.org/2000/svg">
<path fill-rule="evenodd" clip-rule="evenodd" d="M17.6 4.79999H6.40005C5.52005 4.79999 4.80005 5.51999 4.80005 6.39999V17.6C4.80005 18.48 5.52005 19.2 6.40005 19.2H17.6C18.48 19.2 19.2 18.48 19.2 17.6V6.39999C19.2 5.51999 18.48 4.79999 17.6 4.79999ZM14.4 11.2C14.4 12.08 13.68 12.8 12.8 12.8H11.2V14.4H13.6C14.04 14.4 14.4 14.76 14.4 15.2C14.4 15.64 14.04 16 13.6 16H10.4C9.96005 16 9.60005 15.64 9.60005 15.2V12.8C9.60005 11.92 10.32 11.2 11.2 11.2H12.8V9.59999H10.4C9.96005 9.59999 9.60005 9.23999 9.60005 8.79999C9.60005 8.35999 9.96005 7.99999 10.4 7.99999H12.8C13.68 7.99999 14.4 8.71999 14.4 9.59999V11.2Z" fill="#808080"/>
</svg>
