<svg width="24" height="24" viewBox="0 0 24 24" fill="none" xmlns="http://www.w3.org/2000/svg">
<path fill-rule="evenodd" clip-rule="evenodd" d="M11.2 14.4H12.8V12.8H11.2V14.4ZM17.6 4.79999H6.40005C5.52005 4.79999 4.80005 5.51999 4.80005 6.39999V17.6C4.80005 18.48 5.52005 19.2 6.40005 19.2H17.6C18.48 19.2 19.2 18.48 19.2 17.6V6.39999C19.2 5.51999 18.48 4.79999 17.6 4.79999ZM13.6 9.59999H11.2V11.2H12.8C13.68 11.2 14.4 11.92 14.4 12.8V14.4C14.4 15.288 13.68 16 12.8 16H11.2C10.32 16 9.60005 15.288 9.60005 14.4V9.59999C9.60005 8.71999 10.32 7.99999 11.2 7.99999H13.6C14.04 7.99999 14.4 8.35999 14.4 8.79999C14.4 9.23999 14.04 9.59999 13.6 9.59999Z" fill="#808080"/>
</svg>
