<svg width="24" height="24" viewBox="0 0 24 24" fill="none" xmlns="http://www.w3.org/2000/svg">
<path fill-rule="evenodd" clip-rule="evenodd" d="M12 5.83323V4.40123C12 4.04123 11.568 3.86523 11.32 4.12123L9.07998 6.35323C8.91998 6.51323 8.91998 6.76123 9.07998 6.92123L11.312 9.15323C11.568 9.40123 12 9.22523 12 8.86523V7.43323C14.648 7.43323 16.8 9.58523 16.8 12.2332C16.8 12.8652 16.68 13.4812 16.448 14.0332C16.328 14.3212 16.416 14.6492 16.632 14.8652C17.04 15.2732 17.728 15.1292 17.944 14.5932C18.24 13.8652 18.4 13.0652 18.4 12.2332C18.4 8.69723 15.536 5.83323 12 5.83323ZM12 17.0332C9.35198 17.0332 7.19998 14.8812 7.19998 12.2332C7.19998 11.6012 7.31998 10.9852 7.55198 10.4332C7.67198 10.1452 7.58398 9.81723 7.36798 9.60123C6.95998 9.19323 6.27198 9.33723 6.05598 9.87323C5.75998 10.6012 5.59998 11.4012 5.59998 12.2332C5.59998 15.7692 8.46398 18.6332 12 18.6332V20.0652C12 20.4252 12.432 20.6012 12.68 20.3452L14.912 18.1132C15.072 17.9532 15.072 17.7052 14.912 17.5452L12.68 15.3132C12.432 15.0652 12 15.2412 12 15.6012V17.0332Z" fill="#808080"/>
</svg>
