<svg width="24" height="24" viewBox="0 0 24 24" fill="none" xmlns="http://www.w3.org/2000/svg">
<path fill-rule="evenodd" clip-rule="evenodd" d="M14.3977 6.39999H19.1977C19.6377 6.39999 19.9977 6.75999 19.9977 7.19999C19.9977 7.63999 19.6377 7.99999 19.1977 7.99999H14.3977C13.9577 7.99999 13.5977 7.63999 13.5977 7.19999C13.5977 6.75999 13.9577 6.39999 14.3977 6.39999ZM14.3977 10.8H19.1977C19.6377 10.8 19.9977 11.16 19.9977 11.6C19.9977 12.04 19.6377 12.4 19.1977 12.4H14.3977C13.9577 12.4 13.5977 12.04 13.5977 11.6C13.5977 11.16 13.9577 10.8 14.3977 10.8ZM14.3977 15.2H19.1977C19.6377 15.2 19.9977 15.56 19.9977 16C19.9977 16.44 19.6377 16.8 19.1977 16.8H14.3977C13.9577 16.8 13.5977 16.44 13.5977 16C13.5977 15.56 13.9577 15.2 14.3977 15.2ZM10.2777 17.72L11.7097 16.288C11.8697 16.128 11.8697 15.88 11.7097 15.72L10.2777 14.288C10.0297 14.032 9.5977 14.208 9.5977 14.568V17.44C9.5977 17.792 10.0297 17.968 10.2777 17.72ZM9.5977 15.2H9.3577C7.4777 15.2 5.7977 13.832 5.6137 11.96C5.4057 9.81599 7.0937 7.99999 9.1977 7.99999H11.1977C11.6377 7.99999 11.9977 7.63999 11.9977 7.19999C11.9977 6.75999 11.6377 6.39999 11.1977 6.39999H9.1977C6.1097 6.39999 3.6297 9.11999 4.0457 12.288C4.3817 14.912 6.7417 16.8 9.3817 16.8H9.5977V15.2Z" fill="#808080"/>
</svg>
