<svg width="24" height="24" viewBox="0 0 24 24" fill="none" xmlns="http://www.w3.org/2000/svg">
<path fill-rule="evenodd" clip-rule="evenodd" d="M18.4 5.59998H5.6C4.72 5.59998 4.008 6.31998 4.008 7.19998L4 16.8C4 17.68 4.72 18.4 5.6 18.4H18.4C19.28 18.4 20 17.68 20 16.8V7.19998C20 6.31998 19.28 5.59998 18.4 5.59998ZM17.6 16.8H6.4C5.96 16.8 5.6 16.44 5.6 16V8.79998L11.152 12.272C11.672 12.6 12.328 12.6 12.848 12.272L18.4 8.79998V16C18.4 16.44 18.04 16.8 17.6 16.8ZM12 11.2L5.6 7.19998H18.4L12 11.2Z" fill="#808080"/>
</svg>
