<svg width="24" height="24" viewBox="0 0 24 24" fill="none" xmlns="http://www.w3.org/2000/svg">
<path fill-rule="evenodd" clip-rule="evenodd" d="M14.12 6.29107L10.12 4.89107C9.78405 4.77107 9.41605 4.77107 9.08005 4.88307L5.88805 5.95507C5.24005 6.17907 4.80005 6.78707 4.80005 7.47507V16.9551C4.80005 18.0831 5.92805 18.8511 6.97605 18.4431L9.32005 17.5311C9.49605 17.4591 9.69605 17.4591 9.87205 17.5231L13.872 18.9231C14.208 19.0431 14.576 19.0431 14.912 18.9311L18.104 17.8591C18.752 17.6431 19.192 17.0271 19.192 16.3391V6.85907C19.192 5.73107 18.064 4.96307 17.016 5.37107L14.672 6.28307C14.496 6.34707 14.304 6.35507 14.12 6.29107ZM14.4 17.4191L9.60005 15.7311V6.39507L14.4 8.08307V17.4191Z" fill="#808080"/>
</svg>
