<svg width="24" height="24" viewBox="0 0 24 24" fill="none" xmlns="http://www.w3.org/2000/svg">
<path fill-rule="evenodd" clip-rule="evenodd" d="M18.4 8.00001H10.4V12C10.4 12.44 10.04 12.8 9.6 12.8C9.16 12.8 8.8 12.44 8.8 12V6.40001H12.8C13.24 6.40001 13.6 6.04001 13.6 5.60001V4.00001C13.6 3.56001 13.24 3.20001 12.8 3.20001H8C7.56 3.20001 7.2 3.56001 7.2 4.00001V8.00001H5.6C4.72 8.00001 4 8.72001 4 9.60001V19.2C4 20.08 4.72 20.8 5.6 20.8H18.4C19.28 20.8 20 20.08 20 19.2V9.60001C20 8.72001 19.28 8.00001 18.4 8.00001Z" fill="#808080"/>
</svg>
