<svg width="24" height="24" viewBox="0 0 24 24" fill="none" xmlns="http://www.w3.org/2000/svg">
<path fill-rule="evenodd" clip-rule="evenodd" d="M18.4 5.60001H5.6C4.72 5.60001 4 6.32001 4 7.20001V16.8C4 17.68 4.72 18.4 5.6 18.4H18.4C19.28 18.4 20 17.68 20 16.8V7.20001C20 6.32001 19.28 5.60001 18.4 5.60001ZM18.08 9.00001L12.848 12.272C12.328 12.6 11.672 12.6 11.152 12.272L5.92 9.00001C5.72 8.87201 5.6 8.65601 5.6 8.42401C5.6 7.88801 6.184 7.56801 6.64 7.84801L12 11.2L17.36 7.84801C17.816 7.56801 18.4 7.88801 18.4 8.42401C18.4 8.65601 18.28 8.87201 18.08 9.00001Z" fill="#808080"/>
</svg>
