<svg width="24" height="24" viewBox="0 0 24 24" fill="none" xmlns="http://www.w3.org/2000/svg">
<path fill-rule="evenodd" clip-rule="evenodd" d="M12.7999 4.79995C12.7999 5.68361 12.0836 6.39995 11.1999 6.39995C10.3162 6.39995 9.5999 5.68361 9.5999 4.79995C9.5999 3.9163 10.3162 3.19995 11.1999 3.19995C12.0836 3.19995 12.7999 3.9163 12.7999 4.79995ZM18.3999 14.4C19.2836 14.4 19.9999 13.6836 19.9999 12.8C19.9999 11.9163 19.2836 11.2 18.3999 11.2C17.5162 11.2 16.7999 11.9163 16.7999 12.8C16.7999 13.6836 17.5162 14.4 18.3999 14.4ZM3.5999 15.2H13.9888C14.7785 15.2 15.5505 15.4337 16.2076 15.8718L16.566 16.1107C17.228 16.552 18.0397 16.7188 18.8086 16.5142C19.95 16.2105 21.4525 15.7052 21.1999 15.2C20.8488 14.4977 18.9565 15.0283 18.4994 15.1685C18.4366 15.1877 18.3686 15.1765 18.3161 15.1371L16.6881 13.9161C15.7281 13.1961 14.5412 12.8454 13.3441 12.9279L3.5999 13.6C3.5999 13.6 2.3999 13.6 2.3999 14.4C2.3999 15.2 3.5999 15.2 3.5999 15.2ZM3.6999 16C3.42376 16 3.1999 16.2238 3.1999 16.5V17.1C3.1999 17.3761 3.42376 17.6 3.6999 17.6H4.5999C4.71036 17.6 4.7999 17.6895 4.7999 17.8V19.8C4.7999 19.9104 4.88945 20 4.9999 20H6.1999C6.31036 20 6.3999 19.9104 6.3999 19.8V17.8C6.3999 17.6895 6.48945 17.6 6.5999 17.6H11.7999C11.9104 17.6 11.9999 17.6895 11.9999 17.8V19.8C11.9999 19.9104 12.0894 20 12.1999 20H13.3999C13.5104 20 13.5999 19.9104 13.5999 19.8V17.8C13.5999 17.6895 13.6894 17.6 13.7999 17.6H14.6999C14.976 17.6 15.1999 17.3761 15.1999 17.1V16.5C15.1999 16.2238 14.976 16 14.6999 16H3.6999ZM7.84137 12.7287C7.51652 12.7648 7.24554 12.4859 7.29542 12.1629C7.43769 11.2414 7.7188 9.52437 7.9999 8.39995C8.0301 8.27915 8.05802 8.16519 8.08435 8.05773C8.40674 6.74183 8.4905 6.39995 9.5999 6.39995C10.5494 6.39995 10.9981 6.90086 11.5404 7.50632C11.6834 7.66601 11.8329 7.83298 11.9999 7.99995C12.7999 8.79995 14.3999 10.8 14.3999 10.8C14.3999 10.8 14.7999 11.6 14.3999 12C13.9999 12.4 13.1999 12 13.1999 12L10.7999 9.99995V11.9524C10.7999 12.2072 10.6083 12.4212 10.3551 12.4494L7.84137 12.7287Z" fill="#808080"/>
</svg>
