<svg width="24" height="24" viewBox="0 0 24 24" fill="none" xmlns="http://www.w3.org/2000/svg">
<path fill-rule="evenodd" clip-rule="evenodd" d="M4.39971 13.9907V13.061L4.30674 11.1552L5.27197 13.9907H5.90635L6.86885 11.1579L6.77588 13.061V13.9907H7.73838V10.0094H6.4751L5.58916 12.7794L4.70049 10.0094H3.43994V13.9907H4.39971ZM9.06455 13.9907L9.29424 13.2469H10.6095L10.8419 13.9907H11.8728L10.4017 10.0094H9.49932L8.03916 13.9907H9.06455ZM10.3798 12.5059H9.52393L9.95049 11.1251L10.3798 12.5059ZM14.0931 13.9907V10.7505H15.288V10.0094H11.9603V10.7505H13.1333V13.9907H14.0931ZM16.7153 13.9907V10.0094H15.7583V13.9907H16.7153ZM18.9575 14.0454C19.2747 14.0454 19.5568 13.9871 19.8038 13.8704C20.0508 13.7537 20.2427 13.5892 20.3794 13.3768C20.5161 13.1645 20.5909 12.9197 20.6036 12.6427H19.6493C19.642 12.8687 19.58 13.0337 19.4634 13.1376C19.3467 13.2415 19.1781 13.2934 18.9575 13.2934C18.6968 13.2934 18.5132 13.2023 18.4065 13.02C18.2999 12.8377 18.2466 12.5342 18.2466 12.1094V11.8278C18.2521 11.4359 18.3104 11.1506 18.4216 10.9719C18.5328 10.7933 18.7078 10.704 18.9466 10.704C19.1817 10.704 19.3567 10.7568 19.4716 10.8626C19.5864 10.9683 19.6475 11.1424 19.6548 11.3848H20.6118C20.5717 10.9382 20.4049 10.5878 20.1114 10.3335C19.8179 10.0792 19.4297 9.95203 18.9466 9.95203C18.6112 9.95203 18.3159 10.0318 18.0606 10.1913C17.8054 10.3508 17.6099 10.5768 17.4741 10.8694C17.3383 11.162 17.2704 11.5033 17.2704 11.8934V12.0903C17.2704 12.7119 17.4208 13.1932 17.7216 13.5341C18.0224 13.8749 18.4343 14.0454 18.9575 14.0454Z" fill="#808080"/>
</svg>
