<svg width="24" height="24" viewBox="0 0 24 24" fill="none" xmlns="http://www.w3.org/2000/svg">
<path fill-rule="evenodd" clip-rule="evenodd" d="M18.4 17.6H17.6V6.39999C17.6 5.95999 17.24 5.59999 16.8 5.59999H13.6C13.6 5.15999 13.24 4.79999 12.8 4.79999H7.20005C6.76005 4.79999 6.40005 5.15999 6.40005 5.59999V17.6H5.60005C5.16005 17.6 4.80005 17.96 4.80005 18.4C4.80005 18.84 5.16005 19.2 5.60005 19.2H12.8C13.24 19.2 13.6 18.84 13.6 18.4V7.19999H16V18.4C16 18.84 16.36 19.2 16.8 19.2H18.4C18.84 19.2 19.2 18.84 19.2 18.4C19.2 17.96 18.84 17.6 18.4 17.6ZM12 12.8H10.4V11.2H12V12.8Z" fill="#808080"/>
</svg>
