<svg width="24" height="24" viewBox="0 0 24 24" fill="none" xmlns="http://www.w3.org/2000/svg">
<path fill-rule="evenodd" clip-rule="evenodd" d="M13.6 9.59999H10.4C9.96005 9.59999 9.60005 9.95999 9.60005 10.4V13.6C9.60005 14.04 9.96005 14.4 10.4 14.4H13.6C14.04 14.4 14.4 14.04 14.4 13.6V10.4C14.4 9.95999 14.04 9.59999 13.6 9.59999ZM12.8 12.8H11.2V11.2H12.8V12.8ZM19.2 10.4C19.2 9.95999 18.84 9.59999 18.4 9.59999H17.6V7.99999C17.6 7.11999 16.88 6.39999 16 6.39999H14.4V5.59999C14.4 5.15999 14.04 4.79999 13.6 4.79999C13.16 4.79999 12.8 5.15999 12.8 5.59999V6.39999H11.2V5.59999C11.2 5.15999 10.84 4.79999 10.4 4.79999C9.96005 4.79999 9.60005 5.15999 9.60005 5.59999V6.39999H8.00005C7.12005 6.39999 6.40005 7.11999 6.40005 7.99999V9.59999H5.60005C5.16005 9.59999 4.80005 9.95999 4.80005 10.4C4.80005 10.84 5.16005 11.2 5.60005 11.2H6.40005V12.8H5.60005C5.16005 12.8 4.80005 13.16 4.80005 13.6C4.80005 14.04 5.16005 14.4 5.60005 14.4H6.40005V16C6.40005 16.88 7.12005 17.6 8.00005 17.6H9.60005V18.4C9.60005 18.84 9.96005 19.2 10.4 19.2C10.84 19.2 11.2 18.84 11.2 18.4V17.6H12.8V18.4C12.8 18.84 13.16 19.2 13.6 19.2C14.04 19.2 14.4 18.84 14.4 18.4V17.6H16C16.88 17.6 17.6 16.88 17.6 16V14.4H18.4C18.84 14.4 19.2 14.04 19.2 13.6C19.2 13.16 18.84 12.8 18.4 12.8H17.6V11.2H18.4C18.84 11.2 19.2 10.84 19.2 10.4ZM15.2 16H8.80005C8.36005 16 8.00005 15.64 8.00005 15.2V8.79999C8.00005 8.35999 8.36005 7.99999 8.80005 7.99999H15.2C15.64 7.99999 16 8.35999 16 8.79999V15.2C16 15.64 15.64 16 15.2 16Z" fill="#808080"/>
</svg>
