<svg width="24" height="24" viewBox="0 0 24 24" fill="none" xmlns="http://www.w3.org/2000/svg">
<path fill-rule="evenodd" clip-rule="evenodd" d="M16.562 18.392C16.874 18.08 16.874 17.576 16.562 17.264L14.402 15.104L13.274 16.232L15.434 18.392C15.746 18.704 16.258 18.704 16.562 18.392ZM9.36995 9.03201H11.202V13.504L7.43395 17.264C7.12195 17.576 7.12195 18.08 7.43395 18.392C7.74595 18.704 8.24995 18.704 8.56195 18.392L12.33 14.632C12.634 14.328 12.802 13.928 12.802 13.504V9.03201H14.634C14.994 9.03201 15.17 8.60001 14.914 8.35201L12.282 5.72001C12.122 5.56001 11.874 5.56001 11.714 5.72001L9.08195 8.35201C8.83395 8.60001 9.00995 9.03201 9.36995 9.03201Z" fill="#808080"/>
</svg>
