<svg width="24" height="24" viewBox="0 0 24 24" fill="none" xmlns="http://www.w3.org/2000/svg">
<path fill-rule="evenodd" clip-rule="evenodd" d="M20 8.79998C18.4 9.59998 19.2 11.2 19.2 11.2L17.6 10.4C17.6 10.4 16.8 8.79998 18.4 7.99998C20 7.19998 20.8 5.59998 20.8 5.59998C20.8 5.59998 21.6 7.99998 20 8.79998ZM11.2 18.4C5.59995 18.4 3.19995 12 3.19995 12C3.19995 12 7.99995 14.4 11.2 14.4C13.3302 14.4 14.7515 12.6273 15.4636 11.4421C15.7807 10.9142 16.4788 10.6873 17.0068 11.0041L19.1605 12.2963C19.627 12.5762 19.7792 13.1725 19.4586 13.612C18.3267 15.1643 15.4567 18.4 11.2 18.4Z" fill="#808080"/>
</svg>
