<svg width="24" height="24" viewBox="0 0 24 24" fill="none" xmlns="http://www.w3.org/2000/svg">
<path fill-rule="evenodd" clip-rule="evenodd" d="M14.066 11.68V7.19999C14.066 5.87199 12.994 4.79999 11.666 4.79999C10.434 4.79999 9.43399 5.72799 9.29799 6.91999L14.066 11.68ZM16.53 12C16.202 12 15.914 12.24 15.866 12.568C15.826 12.824 15.77 13.08 15.69 13.312L16.706 14.328C16.946 13.848 17.122 13.328 17.21 12.776C17.266 12.368 16.946 12 16.53 12ZM5.03399 6.04799C4.72199 6.35999 4.72199 6.86399 5.03399 7.17599L9.26599 11.416V11.76C9.26599 12.712 9.74599 13.616 10.57 14.088C11.17 14.432 11.698 14.44 12.186 14.336L13.514 15.664C12.946 15.928 12.314 16.08 11.666 16.08C9.63399 16.08 7.76199 14.664 7.46599 12.568C7.41799 12.24 7.12999 12 6.80199 12C6.38599 12 6.06599 12.368 6.12199 12.776C6.48999 15.144 8.48999 17.016 10.866 17.376V19.2C10.866 19.64 11.226 20 11.666 20C12.106 20 12.466 19.64 12.466 19.2V17.376C13.194 17.272 13.882 17.016 14.506 16.656L17.298 19.448C17.61 19.76 18.114 19.76 18.426 19.448C18.738 19.136 18.738 18.632 18.426 18.32L6.16199 6.04799C6.01252 5.89819 5.8096 5.814 5.59799 5.814C5.38637 5.814 5.18345 5.89819 5.03399 6.04799Z" fill="#808080"/>
</svg>
