<svg width="24" height="24" viewBox="0 0 24 24" fill="none" xmlns="http://www.w3.org/2000/svg">
<path fill-rule="evenodd" clip-rule="evenodd" d="M11.9367 14.4C13.2647 14.4 14.3367 13.328 14.3367 12V7.19999C14.3367 5.87199 13.2647 4.79999 11.9367 4.79999C10.6087 4.79999 9.53673 5.87199 9.53673 7.19999V12C9.53673 13.328 10.6087 14.4 11.9367 14.4ZM11.1367 7.19999C11.1367 6.75999 11.4967 6.39999 11.9367 6.39999C12.3767 6.39999 12.7367 6.75999 12.7367 7.19999V12C12.7367 12.44 12.3767 12.8 11.9367 12.8C11.4967 12.8 11.1367 12.44 11.1367 12V7.19999ZM16.6647 12C16.2727 12 15.9447 12.288 15.8807 12.68C15.5527 14.56 13.9127 16 11.9367 16C9.96073 16 8.32073 14.56 7.99273 12.68C7.92873 12.288 7.60073 12 7.20873 12C6.72073 12 6.33673 12.432 6.40873 12.912C6.80073 15.312 8.72073 17.192 11.1367 17.536V19.2C11.1367 19.64 11.4967 20 11.9367 20C12.3767 20 12.7367 19.64 12.7367 19.2V17.536C15.1527 17.192 17.0727 15.312 17.4647 12.912C17.5447 12.432 17.1527 12 16.6647 12Z" fill="#808080"/>
</svg>
