<svg width="24" height="24" viewBox="0 0 24 24" fill="none" xmlns="http://www.w3.org/2000/svg">
<path fill-rule="evenodd" clip-rule="evenodd" d="M16 10.8V8.00001C16 7.56001 15.64 7.20001 15.2 7.20001H5.59999C5.15999 7.20001 4.79999 7.56001 4.79999 8.00001V16C4.79999 16.44 5.15999 16.8 5.59999 16.8H15.2C15.64 16.8 16 16.44 16 16V13.2L17.832 15.032C18.336 15.536 19.2 15.176 19.2 14.464V9.52801C19.2 8.81601 18.336 8.45601 17.832 8.96001L16 10.8ZM10.968 13.832C10.656 14.144 10.152 14.144 9.83999 13.832L7.29599 11.288V13.328H6.39999V10.176C6.39999 9.95201 6.57599 9.77601 6.79999 9.77601H9.95199V10.664H7.91199L10.4 13.144L13.776 9.76801L14.4 10.4L10.968 13.832Z" fill="#808080"/>
</svg>
