<svg width="24" height="24" viewBox="0 0 24 24" fill="none" xmlns="http://www.w3.org/2000/svg">
<path fill-rule="evenodd" clip-rule="evenodd" d="M17.154 3.20001H9.15405C8.27405 3.20001 7.55405 3.92001 7.55405 4.80001V6.40001C7.55405 6.84001 7.91405 7.20001 8.35405 7.20001C8.79405 7.20001 9.15405 6.84001 9.15405 6.40001V5.60001H17.154V18.4H9.15405V17.6C9.15405 17.16 8.79405 16.8 8.35405 16.8C7.91405 16.8 7.55405 17.16 7.55405 17.6V19.2C7.55405 20.08 8.27405 20.8 9.15405 20.8H17.154C18.034 20.8 18.754 20.08 18.754 19.2V4.80001C18.754 3.92001 18.034 3.20001 17.154 3.20001ZM7.56205 13.176L6.02605 11.64C5.74605 11.36 5.29005 11.36 5.01005 11.64C4.73005 11.92 4.73005 12.376 5.01005 12.656L6.98605 14.632C7.29805 14.944 7.80205 14.944 8.11405 14.632L12.794 9.95201C13.074 9.67201 13.074 9.21601 12.794 8.93601C12.514 8.65601 12.058 8.65601 11.778 8.93601L7.56205 13.176Z" fill="#808080"/>
</svg>
