<svg width="24" height="24" viewBox="0 0 24 24" fill="none" xmlns="http://www.w3.org/2000/svg">
<path fill-rule="evenodd" clip-rule="evenodd" d="M16.074 15.552L5.362 4.84001C5.21253 4.69021 5.00961 4.60602 4.798 4.60602C4.58639 4.60602 4.38347 4.69021 4.234 4.84001C3.922 5.15201 3.922 5.65601 4.234 5.96801L6.474 8.21601V19.2C6.474 20.08 7.194 20.8 8.074 20.8H16.074C16.89 20.8 17.554 20.184 17.658 19.4L18.474 20.216C18.786 20.528 19.29 20.528 19.602 20.216C19.914 19.904 19.914 19.4 19.602 19.088L17.674 17.152L16.074 15.552ZM8.074 17.6V9.81601L15.858 17.6H8.074ZM16.074 6.40001V13.288L17.674 14.888V4.80001C17.674 3.92001 16.954 3.20001 16.074 3.20001H8.074C7.506 3.20001 7.01 3.49601 6.73 3.94401L9.186 6.40001H16.074Z" fill="#808080"/>
</svg>
