<svg width="24" height="24" viewBox="0 0 24 24" fill="none" xmlns="http://www.w3.org/2000/svg">
<path fill-rule="evenodd" clip-rule="evenodd" d="M15.992 3.20001H7.99202C7.11202 3.20001 6.40002 3.92001 6.40002 4.80001V19.2C6.40002 20.08 7.11202 20.8 7.99202 20.8H15.992C16.872 20.8 17.592 20.08 17.592 19.2V4.80001C17.592 3.92001 16.872 3.20001 15.992 3.20001ZM15.992 17.6H7.99202V6.40001H15.992V17.6ZM12.632 12.976V14.376L14.88 12.28C15.048 12.12 15.048 11.856 14.88 11.696L12.632 9.60001V10.96C10.144 11.304 9.15202 13.008 8.79202 14.72C9.68002 13.52 10.856 12.976 12.632 12.976Z" fill="#808080"/>
</svg>
