<svg width="24" height="24" viewBox="0 0 24 24" fill="none" xmlns="http://www.w3.org/2000/svg">
<path fill-rule="evenodd" clip-rule="evenodd" d="M12 4C7.584 4 4 7.584 4 12C4 16.416 7.584 20 12 20C16.416 20 20 16.416 20 12C20 7.584 16.416 4 12 4ZM13.128 16.872V17.336C13.128 17.92 12.648 18.4 12.064 18.4H12.056C11.472 18.4 10.992 17.92 10.992 17.336V16.856C9.928 16.632 8.984 16.048 8.584 15.064C8.4 14.624 8.744 14.136 9.224 14.136H9.416C9.712 14.136 9.952 14.336 10.064 14.616C10.296 15.216 10.904 15.632 12.072 15.632C13.64 15.632 13.992 14.848 13.992 14.36C13.992 13.696 13.64 13.072 11.856 12.648C9.872 12.168 8.512 11.352 8.512 9.712C8.512 8.336 9.624 7.44 11 7.144V6.664C11 6.08 11.48 5.6 12.064 5.6H12.072C12.656 5.6 13.136 6.08 13.136 6.664V7.16C14.24 7.432 14.936 8.12 15.24 8.968C15.4 9.408 15.064 9.872 14.592 9.872H14.384C14.088 9.872 13.848 9.664 13.768 9.376C13.584 8.768 13.08 8.376 12.072 8.376C10.872 8.376 10.152 8.92 10.152 9.688C10.152 10.36 10.672 10.8 12.288 11.216C13.904 11.632 15.632 12.328 15.632 14.344C15.616 15.808 14.52 16.608 13.128 16.872Z" fill="#808080"/>
</svg>
