<svg width="24" height="24" viewBox="0 0 24 24" fill="none" xmlns="http://www.w3.org/2000/svg">
<path fill-rule="evenodd" clip-rule="evenodd" d="M14.4 15.2H16.8C17.24 15.2 17.6 14.84 17.6 14.4V9.59998C17.6 9.15998 17.24 8.79998 16.8 8.79998H14.4C13.96 8.79998 13.6 9.15998 13.6 9.59998V14.4C13.6 14.84 13.96 15.2 14.4 15.2ZM15.2 10.4H16V13.6H15.2V10.4ZM9.6 15.2H12C12.44 15.2 12.8 14.84 12.8 14.4V9.59998C12.8 9.15998 12.44 8.79998 12 8.79998H9.6C9.16 8.79998 8.8 9.15998 8.8 9.59998V14.4C8.8 14.84 9.16 15.2 9.6 15.2ZM10.4 10.4H11.2V13.6H10.4V10.4ZM7.2 8.79998C6.76 8.79998 6.4 9.15998 6.4 9.59998V14.4C6.4 14.84 6.76 15.2 7.2 15.2C7.64 15.2 8 14.84 8 14.4V9.59998C8 9.15998 7.64 8.79998 7.2 8.79998ZM4 7.19998V16.8C4 17.68 4.72 18.4 5.6 18.4H18.4C19.28 18.4 20 17.68 20 16.8V7.19998C20 6.31998 19.28 5.59998 18.4 5.59998H5.6C4.72 5.59998 4 6.31998 4 7.19998ZM17.6 16.8H6.4C5.96 16.8 5.6 16.44 5.6 16V7.99998C5.6 7.55998 5.96 7.19998 6.4 7.19998H17.6C18.04 7.19998 18.4 7.55998 18.4 7.99998V16C18.4 16.44 18.04 16.8 17.6 16.8Z" fill="#808080"/>
</svg>
