<svg width="24" height="24" viewBox="0 0 24 24" fill="none" xmlns="http://www.w3.org/2000/svg">
<path fill-rule="evenodd" clip-rule="evenodd" d="M12.0181 7.91999C13.1541 7.91999 13.7221 8.35199 13.9301 9.03999C14.0341 9.38399 14.3781 9.59999 14.7381 9.59999H14.7861C15.3461 9.59999 15.7621 9.03199 15.5621 8.51199C15.2101 7.59199 14.4341 6.84799 13.2181 6.55199V5.99999C13.2181 5.33599 12.6821 4.79999 12.0181 4.79999C11.3541 4.79999 10.8181 5.33599 10.8181 5.99999V6.52799C10.5061 6.59199 10.2181 6.69599 9.9381 6.81599L11.1461 8.02399C11.4021 7.95999 11.6981 7.91999 12.0181 7.91999ZM5.8341 6.09599C5.5221 6.40799 5.5221 6.91199 5.8341 7.22399L8.0181 9.41599C8.0181 11.08 9.2661 11.992 11.1461 12.544L13.9541 15.352C13.6821 15.744 13.1141 16.08 12.0181 16.08C10.6981 16.08 10.0181 15.608 9.7541 14.936C9.6341 14.624 9.3621 14.4 9.0341 14.4H8.8981C8.3221 14.4 7.9061 14.992 8.1381 15.512C8.6101 16.576 9.6501 17.208 10.8261 17.464V18C10.8261 18.664 11.3621 19.2 12.0261 19.2C12.6901 19.2 13.2261 18.664 13.2261 18V17.48C13.9941 17.336 14.6901 17.04 15.1941 16.584L16.4021 17.792C16.7141 18.104 17.2181 18.104 17.5301 17.792C17.8421 17.48 17.8421 16.976 17.5301 16.664L6.9621 6.09599C6.81263 5.94619 6.60971 5.862 6.3981 5.862C6.18648 5.862 5.98356 5.94619 5.8341 6.09599Z" fill="#808080"/>
</svg>
