<svg width="24" height="24" viewBox="0 0 24 24" fill="none" xmlns="http://www.w3.org/2000/svg">
<path fill-rule="evenodd" clip-rule="evenodd" d="M18.4 6.39999H15.84L14.88 5.32799C14.576 4.99199 14.144 4.79999 13.688 4.79999H10.312C9.856 4.79999 9.424 4.99199 9.12 5.32799L8.16 6.39999H5.6C4.72 6.39999 4 7.11999 4 7.99999V17.6C4 18.48 4.72 19.2 5.6 19.2H18.4C19.28 19.2 20 18.48 20 17.6V7.99999C20 7.11999 19.28 6.39999 18.4 6.39999ZM18.4 16.8C18.4 17.24 18.04 17.6 17.6 17.6H12V16.8C9.76 16.8 8 15.04 8 12.8C8 10.56 9.76 8.79999 12 8.79999V7.99999H17.6C18.04 7.99999 18.4 8.35999 18.4 8.79999V16.8ZM16 12.8C16 10.56 14.24 8.79999 12 8.79999V10.24C13.44 10.24 14.56 11.36 14.56 12.8C14.56 14.24 13.44 15.36 12 15.36V16.8C14.24 16.8 16 15.04 16 12.8ZM9.44 12.8C9.44 14.24 10.56 15.36 12 15.36V10.24C10.56 10.24 9.44 11.36 9.44 12.8Z" fill="#808080"/>
</svg>
