<svg width="24" height="24" viewBox="0 0 24 24" fill="none" xmlns="http://www.w3.org/2000/svg">
<path fill-rule="evenodd" clip-rule="evenodd" d="M11.992 4C7.576 4 4 7.584 4 12C4 16.416 7.576 20 11.992 20C16.416 20 20 16.416 20 12C20 7.584 16.416 4 11.992 4ZM12 18.4C8.464 18.4 5.6 15.536 5.6 12C5.6 8.464 8.464 5.6 12 5.6C15.536 5.6 18.4 8.464 18.4 12C18.4 15.536 15.536 18.4 12 18.4ZM14.8 11.2C15.464 11.2 16 10.664 16 10C16 9.336 15.464 8.8 14.8 8.8C14.136 8.8 13.6 9.336 13.6 10C13.6 10.664 14.136 11.2 14.8 11.2ZM9.2 11.2C9.864 11.2 10.4 10.664 10.4 10C10.4 9.336 9.864 8.8 9.2 8.8C8.536 8.8 8 9.336 8 10C8 10.664 8.536 11.2 9.2 11.2ZM12 13.2C10.376 13.2 8.96 14.088 8.2 15.4C8.048 15.664 8.248 16 8.552 16H15.448C15.752 16 15.952 15.664 15.8 15.4C15.04 14.088 13.624 13.2 12 13.2Z" fill="#808080"/>
</svg>
