<svg width="24" height="24" viewBox="0 0 24 24" fill="none" xmlns="http://www.w3.org/2000/svg">
<path fill-rule="evenodd" clip-rule="evenodd" d="M19.8359 4.79999H7.8359C7.2839 4.79999 6.8519 5.07999 6.5639 5.50399L2.5319 11.56C2.3559 11.832 2.3559 12.176 2.5319 12.448L6.5639 18.496C6.8519 18.912 7.3399 19.2 7.8919 19.2H19.8359C20.7159 19.2 21.4359 18.48 21.4359 17.6V6.39999C21.4359 5.51999 20.7159 4.79999 19.8359 4.79999ZM9.4359 13.2C8.7719 13.2 8.2359 12.664 8.2359 12C8.2359 11.336 8.7719 10.8 9.4359 10.8C10.0999 10.8 10.6359 11.336 10.6359 12C10.6359 12.664 10.0999 13.2 9.4359 13.2ZM13.4359 13.2C12.7719 13.2 12.2359 12.664 12.2359 12C12.2359 11.336 12.7719 10.8 13.4359 10.8C14.0999 10.8 14.6359 11.336 14.6359 12C14.6359 12.664 14.0999 13.2 13.4359 13.2ZM17.4359 13.2C16.7719 13.2 16.2359 12.664 16.2359 12C16.2359 11.336 16.7719 10.8 17.4359 10.8C18.0999 10.8 18.6359 11.336 18.6359 12C18.6359 12.664 18.0999 13.2 17.4359 13.2Z" fill="#808080"/>
</svg>
