<svg width="24" height="24" viewBox="0 0 24 24" fill="none" xmlns="http://www.w3.org/2000/svg">
<path fill-rule="evenodd" clip-rule="evenodd" d="M7.2001 10.4C6.3201 10.4 5.6001 11.12 5.6001 12C5.6001 12.88 6.3201 13.6 7.2001 13.6C8.0801 13.6 8.8001 12.88 8.8001 12C8.8001 11.12 8.0801 10.4 7.2001 10.4ZM16.8001 10.4C15.9201 10.4 15.2001 11.12 15.2001 12C15.2001 12.88 15.9201 13.6 16.8001 13.6C17.6801 13.6 18.4001 12.88 18.4001 12C18.4001 11.12 17.6801 10.4 16.8001 10.4ZM12.0001 10.4C11.1201 10.4 10.4001 11.12 10.4001 12C10.4001 12.88 11.1201 13.6 12.0001 13.6C12.8801 13.6 13.6001 12.88 13.6001 12C13.6001 11.12 12.8801 10.4 12.0001 10.4Z" fill="#808080"/>
</svg>
