<svg width="24" height="24" viewBox="0 0 24 24" fill="none" xmlns="http://www.w3.org/2000/svg">
<path fill-rule="evenodd" clip-rule="evenodd" d="M11.9999 8.80001C12.8799 8.80001 13.5999 8.08001 13.5999 7.20001C13.5999 6.32001 12.8799 5.60001 11.9999 5.60001C11.1199 5.60001 10.3999 6.32001 10.3999 7.20001C10.3999 8.08001 11.1199 8.80001 11.9999 8.80001ZM11.9999 10.4C11.1199 10.4 10.3999 11.12 10.3999 12C10.3999 12.88 11.1199 13.6 11.9999 13.6C12.8799 13.6 13.5999 12.88 13.5999 12C13.5999 11.12 12.8799 10.4 11.9999 10.4ZM11.9999 15.2C11.1199 15.2 10.3999 15.92 10.3999 16.8C10.3999 17.68 11.1199 18.4 11.9999 18.4C12.8799 18.4 13.5999 17.68 13.5999 16.8C13.5999 15.92 12.8799 15.2 11.9999 15.2Z" fill="#808080"/>
</svg>
