<svg width="24" height="24" viewBox="0 0 24 24" fill="none" xmlns="http://www.w3.org/2000/svg">
<path fill-rule="evenodd" clip-rule="evenodd" d="M17.952 9.62402L16.248 7.92002L14.968 6.64002C14.816 6.48802 14.608 6.40002 14.4 6.40002H12C11.56 6.40002 11.2 6.76002 11.2 7.20002C11.2 7.64002 11.56 8.00002 12 8.00002H14.072L15.672 9.60002H6.39999C4.15999 9.60002 2.39999 11.36 2.39999 13.6C2.39999 15.84 4.15999 17.6 6.39999 17.6C8.36799 17.6 9.95999 16.248 10.32 14.4H10.976C11.4 14.4 11.808 14.232 12.104 13.928L13.848 12.184C13.688 12.616 13.6 13.096 13.6 13.6C13.6 15.84 15.36 17.6 17.6 17.6C19.84 17.6 21.6 15.84 21.6 13.6C21.6 11.48 20.024 9.78402 17.952 9.62402ZM6.39999 14.4H8.65599C8.31999 15.32 7.42399 16 6.39999 16C5.09599 16 3.99999 14.904 3.99999 13.6C3.99999 12.296 5.09599 11.2 6.39999 11.2C7.42399 11.2 8.31999 11.88 8.65599 12.8H6.39999C5.95999 12.8 5.59999 13.16 5.59999 13.6C5.59999 14.04 5.95999 14.4 6.39999 14.4ZM17.6 16C16.272 16 15.2 14.928 15.2 13.6C15.2 12.272 16.272 11.2 17.6 11.2C18.928 11.2 20 12.272 20 13.6C20 14.928 18.928 16 17.6 16Z" fill="#808080"/>
</svg>
