<svg width="24" height="24" viewBox="0 0 24 24" fill="none" xmlns="http://www.w3.org/2000/svg">
<path fill-rule="evenodd" clip-rule="evenodd" d="M17.6 4.79999H6.39205C5.50405 4.79999 4.80005 5.51999 4.80005 6.39999V17.6C4.80005 18.48 5.50405 19.2 6.39205 19.2H17.6C18.48 19.2 19.2 18.48 19.2 17.6V6.39999C19.2 5.51999 18.48 4.79999 17.6 4.79999ZM17.6 14.4H15.096C14.72 14.4 14.416 14.672 14.312 15.04C14.032 16.056 13.096 16.8 12 16.8C10.904 16.8 9.96805 16.056 9.68805 15.04C9.58405 14.672 9.28005 14.4 8.90405 14.4H6.39205V7.19999C6.39205 6.75999 6.75205 6.39999 7.19205 6.39999H16.8C17.24 6.39999 17.6 6.75999 17.6 7.19999V14.4ZM15.2 10.4H13.6V7.99999H10.4V10.4H8.80005L11.72 13.32C11.88 13.48 12.128 13.48 12.288 13.32L15.2 10.4Z" fill="#808080"/>
</svg>
