<svg width="24" height="24" viewBox="0 0 24 24" fill="none" xmlns="http://www.w3.org/2000/svg">
<path fill-rule="evenodd" clip-rule="evenodd" d="M7.74333 6.89123C7.66474 6.62178 7.82329 6.34044 8.0945 6.26812L13.1093 4.93083C13.3791 4.85889 13.6555 5.02182 13.7232 5.29268L14.2788 7.5149C14.3457 7.7828 14.6172 7.94568 14.8851 7.8787L17.115 7.32124C17.3829 7.25426 17.6543 7.41715 17.7213 7.68504L19.0813 13.1251C19.1473 13.389 18.9902 13.6572 18.7278 13.7288L10.874 15.8707C10.6109 15.9425 10.3388 15.7901 10.2625 15.5283L7.74333 6.89123ZM4.95776 7.86402L7.40914 16.4439C6.79837 16.879 6.40004 17.5929 6.40004 18.4C6.40004 19.7255 7.47456 20.8 8.80004 20.8C9.99497 20.8 10.9859 19.9267 11.1696 18.7836L21.0198 15.9692C21.4446 15.8478 21.6906 15.405 21.5693 14.9802C21.4479 14.5554 21.0051 14.3094 20.5803 14.4308L10.8802 17.2022C10.4887 16.5236 9.7747 16.0546 8.94762 16.0044L6.36926 6.98019C6.29072 6.70529 6.07144 6.4932 5.79407 6.42386L2.59407 5.62386C2.16544 5.5167 1.73109 5.77731 1.62393 6.20594C1.51677 6.63458 1.77738 7.06893 2.20601 7.17609L4.95776 7.86402Z" fill="#808080"/>
</svg>
