<svg width="24" height="24" viewBox="0 0 24 24" fill="none" xmlns="http://www.w3.org/2000/svg">
<path fill-rule="evenodd" clip-rule="evenodd" d="M16.8 5.59998L18.256 8.51198C18.32 8.63998 18.224 8.79998 18.08 8.79998H16.496C16.192 8.79998 15.912 8.63198 15.784 8.35998L14.4 5.59998H12.8L14.256 8.51198C14.32 8.63998 14.224 8.79998 14.08 8.79998H12.496C12.192 8.79998 11.912 8.63198 11.784 8.35998L10.4 5.59998H8.8L10.256 8.51198C10.32 8.63998 10.224 8.79998 10.08 8.79998H8.496C8.192 8.79998 7.912 8.63198 7.776 8.35998L6.4 5.59998H5.6C4.72 5.59998 4 6.31998 4 7.19998V16.8C4 17.68 4.72 18.4 5.6 18.4H18.4C19.28 18.4 20 17.68 20 16.8V6.39998C20 5.95998 19.64 5.59998 19.2 5.59998H16.8Z" fill="#808080"/>
</svg>
