<svg width="24" height="24" viewBox="0 0 24 24" fill="none" xmlns="http://www.w3.org/2000/svg">
<path fill-rule="evenodd" clip-rule="evenodd" d="M19.6 5.59998H16.8L18.192 7.68798C18.28 7.82398 18.184 7.99998 18.024 7.99998H16.424C16.16 7.99998 15.904 7.86398 15.76 7.63998L14.4 5.59998H12.8L14.192 7.68798C14.28 7.82398 14.184 7.99998 14.024 7.99998H12.424C12.16 7.99998 11.904 7.86398 11.76 7.63998L10.4 5.59998H8.8L10.192 7.68798C10.28 7.82398 10.184 7.99998 10.024 7.99998H8.424C8.16 7.99998 7.912 7.86398 7.76 7.63998L6.4 5.59998H5.6C4.72 5.59998 4.008 6.31998 4.008 7.19998L4 16.8C4 17.68 4.72 18.4 5.6 18.4H18.4C19.28 18.4 20 17.68 20 16.8V5.99998C20 5.77598 19.824 5.59998 19.6 5.59998ZM11.4 14.6L10.4 16.8L9.4 14.6L7.2 13.6L9.4 12.6L10.4 10.4L11.4 12.6L13.6 13.6L11.4 14.6ZM15.952 11.952L15.2 13.6L14.448 11.952L12.8 11.2L14.448 10.448L15.2 8.79998L15.952 10.448L17.6 11.2L15.952 11.952Z" fill="#808080"/>
</svg>
