<svg width="24" height="24" viewBox="0 0 24 24" fill="none" xmlns="http://www.w3.org/2000/svg">
<path fill-rule="evenodd" clip-rule="evenodd" d="M16.8 5.60001L18.256 8.51201C18.32 8.64001 18.224 8.80001 18.08 8.80001H16.496C16.192 8.80001 15.912 8.63201 15.784 8.36001L14.4 5.60001H12.8L14.256 8.51201C14.32 8.64001 14.224 8.80001 14.08 8.80001H12.496C12.192 8.80001 11.912 8.63201 11.784 8.36001L10.4 5.60001H8.8L10.256 8.51201C10.32 8.64001 10.224 8.80001 10.08 8.80001H8.496C8.192 8.80001 7.912 8.63201 7.776 8.36001L6.4 5.60001H5.6C4.72 5.60001 4 6.32001 4 7.20001V16.8C4 17.68 4.72 18.4 5.6 18.4H18.4C19.28 18.4 20 17.68 20 16.8V6.40001C20 5.96001 19.64 5.60001 19.2 5.60001H16.8Z" fill="#808080"/>
</svg>
