<svg width="24" height="24" viewBox="0 0 24 24" fill="none" xmlns="http://www.w3.org/2000/svg">
<path fill-rule="evenodd" clip-rule="evenodd" d="M18.0372 11.337V12.4875H18.7626C19.5019 12.4875 19.9177 12.7924 19.9177 13.3469C19.9177 13.8366 19.4972 14.1693 18.892 14.1693C18.2359 14.1693 17.8339 13.8366 17.7923 13.3838H16.1751C16.2398 14.6637 17.321 15.5 18.892 15.5C20.5646 15.5 21.6411 14.696 21.6411 13.4485C21.6411 12.5475 21.0035 11.9792 19.9963 11.8776V11.8452C20.7586 11.6927 21.3778 11.1475 21.3778 10.2927C21.3778 9.16073 20.3289 8.5 18.8827 8.5C17.4088 8.5 16.3923 9.30396 16.3322 10.5792H17.8708C17.9078 10.0756 18.2959 9.76139 18.8827 9.76139C19.451 9.76139 19.8022 10.0479 19.8022 10.533C19.8022 11.0182 19.4048 11.337 18.7534 11.337H18.0372ZM9.67819 15.3565H8.18578V11.1935H8.15343L6.50393 15.3565H5.53363L3.88875 11.1935H3.85178V15.3565H2.35938V8.68922H4.31845L6.0003 13.0463H6.03726L7.71911 8.68922H9.67819V15.3565ZM13.4323 8.68922H10.5445V15.3565H12.2402V13.4021H13.3307C14.8138 13.4021 15.835 12.4734 15.835 11.0503C15.835 9.61794 14.8647 8.68922 13.4323 8.68922ZM12.2403 12.1269V9.98759H12.9842C13.6958 9.98759 14.1209 10.3618 14.1209 11.0549C14.1209 11.7526 13.6958 12.1269 12.975 12.1269H12.2403Z" fill="#808080"/>
</svg>
