<svg width="24" height="24" viewBox="0 0 24 24" fill="none" xmlns="http://www.w3.org/2000/svg">
<path fill-rule="evenodd" clip-rule="evenodd" d="M19.166 7.42399L19.118 7.37599C18.806 7.06399 18.294 7.07999 18.006 7.40799L16.262 9.36799C14.622 7.51999 12.342 6.39999 9.766 6.39999C7.766 6.39999 5.902 7.09599 4.366 8.23999C3.99 8.51999 3.95 9.07199 4.278 9.39999L4.326 9.44799C4.59 9.71199 5.014 9.75999 5.31 9.53599C6.582 8.57599 8.11 7.99999 9.766 7.99999C11.958 7.99999 13.838 9.00799 15.182 10.592L12.878 13.184L10.246 10.552C10.0965 10.4022 9.89361 10.318 9.682 10.318C9.47039 10.318 9.26747 10.4022 9.118 10.552L4.222 15.456C3.926 15.752 3.926 16.24 4.222 16.536L4.342 16.656C4.638 16.952 5.126 16.952 5.422 16.656L9.678 12.392L12.278 14.992C12.606 15.32 13.134 15.304 13.438 14.96L16.118 11.952C16.614 12.848 16.982 13.864 17.174 14.936C17.238 15.312 17.55 15.592 17.934 15.592H18.006C18.486 15.592 18.846 15.152 18.758 14.68C18.502 13.2 17.974 11.848 17.246 10.68L19.198 8.47999C19.47 8.17599 19.454 7.71199 19.166 7.42399Z" fill="#808080"/>
</svg>
