<svg width="24" height="24" viewBox="0 0 24 24" fill="none" xmlns="http://www.w3.org/2000/svg">
<path fill-rule="evenodd" clip-rule="evenodd" d="M12.3918 6.41592C14.6848 6.41592 15.2472 6.22124 16.4584 7.19464C17.6697 8.16805 18.3617 10.396 18.0157 11.5208C17.6697 12.6456 16.7165 12.9485 15.9824 12.9485C15.2483 12.9485 14.5968 12.1049 14.9225 11.9752C15.2483 11.8454 16.1772 11.8454 16.1772 11.8454C16.1772 11.8454 16.177 10.7636 15.5498 10.3527C14.9225 9.94181 14.1654 10.0499 14.1654 10.2013C14.1654 10.3527 14.3386 14.333 14.3386 14.8954C14.3386 15.4578 14.4465 17.1233 13.3217 17.1233C12.197 17.1233 10.9435 17.2106 10.446 16.8429C9.9486 16.4753 10.0988 15.9337 10.0988 14.8954C10.0988 13.8571 10.099 11.9103 10.2719 11.3478C10.4448 10.7854 10.4665 9.96344 10.0988 9.96344C9.73103 9.96344 9.16862 10.1149 8.82252 10.5908C8.47642 11.0666 8.08723 11.6782 8.45487 11.7618C8.82252 11.8454 9.53644 11.5209 9.53644 11.8454C9.53644 12.1698 9.6876 12.6456 8.69265 12.7971C7.69769 12.9485 6.3999 12.1267 6.3999 10.872C6.3999 9.61726 6.39982 8.57904 7.80585 7.49748C9.21188 6.41592 10.0988 6.41592 12.3918 6.41592Z" fill="#808080"/>
</svg>
