<svg width="24" height="24" viewBox="0 0 24 24" fill="none" xmlns="http://www.w3.org/2000/svg">
<path fill-rule="evenodd" clip-rule="evenodd" d="M19.2 4.79999H4.79995C3.91995 4.79999 3.19995 5.51999 3.19995 6.39999V17.6C3.19995 18.48 3.91995 19.2 4.79995 19.2H19.2C20.08 19.2 20.8 18.48 20.8 17.6V6.39999C20.8 5.51999 20.08 4.79999 19.2 4.79999ZM18.4 17.6H5.59995C5.15995 17.6 4.79995 17.24 4.79995 16.8V7.19999C4.79995 6.75999 5.15995 6.39999 5.59995 6.39999H18.4C18.84 6.39999 19.2 6.75999 19.2 7.19999V16.8C19.2 17.24 18.84 17.6 18.4 17.6ZM8.83995 14.832C8.57595 13.312 9.72795 12 11.2 12C11.48 12 11.752 12.056 12 12.144V8.79999C12 7.91999 12.72 7.19999 13.6 7.19999H15.2C15.64 7.19999 16 7.55999 16 7.99999C16 8.43999 15.64 8.79999 15.2 8.79999H13.6V14.424C13.584 15.88 12.272 17.032 10.76 16.76C9.79195 16.592 8.99995 15.8 8.83995 14.832Z" fill="#808080"/>
</svg>
