<svg width="24" height="24" viewBox="0 0 24 24" fill="none" xmlns="http://www.w3.org/2000/svg">
<path fill-rule="evenodd" clip-rule="evenodd" d="M13.266 10.088V7.99999H14.866C15.746 7.99999 16.466 7.27999 16.466 6.39999C16.466 5.51999 15.746 4.79999 14.866 4.79999H12.466C12.026 4.79999 11.666 5.15999 11.666 5.59999V8.48799L13.266 10.088ZM6.16205 5.24799C6.01258 5.09819 5.80966 5.014 5.59805 5.014C5.38643 5.014 5.18351 5.09819 5.03405 5.24799C4.72205 5.55999 4.72205 6.06399 5.03405 6.37599L11.666 13.016V13.24C10.914 12.808 9.98605 12.64 9.00205 12.984C7.93005 13.368 7.10605 14.32 6.91405 15.44C6.54605 17.632 8.40205 19.504 10.586 19.16C12.154 18.912 13.266 17.472 13.266 15.88V14.616L17.282 18.632C17.594 18.944 18.098 18.944 18.41 18.632C18.722 18.32 18.722 17.816 18.41 17.504L6.16205 5.24799Z" fill="#808080"/>
</svg>
