<svg width="24" height="24" viewBox="0 0 24 24" fill="none" xmlns="http://www.w3.org/2000/svg">
<path fill-rule="evenodd" clip-rule="evenodd" d="M6 8.66467C5.33726 8.66467 4.8 9.20193 4.8 9.86467C4.8 10.5274 5.33726 11.0647 6 11.0647C6.66274 11.0647 7.2 10.5274 7.2 9.86467C7.2 9.20193 6.66274 8.66467 6 8.66467ZM20.136 9.60067C20.136 6.47267 17.584 3.95267 14.448 4.00067C11.384 4.04867 8.856 6.69667 8.944 9.75267C9.016 12.4567 11.008 14.6807 13.608 15.1127V18.2647H7.2V15.8647H7.6C7.824 15.8647 8 15.6887 8 15.4647V12.6647C8 12.2247 7.64 11.8647 7.2 11.8647H4.8C4.36 11.8647 4 12.2247 4 12.6647V15.4647C4 15.6887 4.176 15.8647 4.4 15.8647H4.8V19.0647C4.8 19.5047 5.16 19.8647 5.6 19.8647H16.8C17.24 19.8647 17.6 19.5047 17.6 19.0647C17.6 18.6247 17.24 18.2647 16.8 18.2647H15.2V15.1607C17.976 14.8327 20.136 12.4727 20.136 9.60067Z" fill="#808080"/>
</svg>
