<svg width="24" height="24" viewBox="0 0 24 24" fill="none" xmlns="http://www.w3.org/2000/svg">
<path fill-rule="evenodd" clip-rule="evenodd" d="M15.406 6.02816C15.27 6.02816 15.15 6.10016 15.078 6.21216L15.022 6.33216L10.878 15.6522C10.75 15.8842 10.67 16.1402 10.67 16.4202C10.67 17.3082 11.39 18.0282 12.278 18.0282C13.046 18.0282 13.694 17.4842 13.846 16.7562L13.854 16.7322L15.806 6.42816C15.806 6.20416 15.63 6.02816 15.406 6.02816ZM4.33403 10.0762C4.74203 10.4842 5.39803 10.5162 5.84603 10.1482C8.05403 8.34016 10.838 7.60416 13.51 7.94016L14.462 5.79616C10.982 5.17216 7.29403 6.03616 4.40603 8.39616C3.89403 8.82016 3.86203 9.60416 4.33403 10.0762ZM20.238 10.0762C20.71 9.60416 20.678 8.82016 20.158 8.39616C19.07 7.50816 17.87 6.83616 16.606 6.37216L16.182 8.62816C17.086 9.00416 17.934 9.50016 18.718 10.1402C19.182 10.5082 19.83 10.4842 20.238 10.0762ZM17.014 13.3002C17.494 12.8202 17.462 11.9962 16.902 11.6042C16.534 11.3402 16.15 11.1162 15.75 10.9162L15.31 13.2522C15.398 13.3082 15.486 13.3642 15.566 13.4282C16.022 13.7482 16.63 13.6842 17.014 13.3002ZM7.55003 13.2922C7.95003 13.6922 8.56603 13.7242 9.03003 13.3962C9.78203 12.8682 10.638 12.5482 11.51 12.4202L12.534 10.1162C10.83 10.0682 9.11003 10.5482 7.66203 11.5882C7.11003 11.9962 7.07003 12.8122 7.55003 13.2922Z" fill="#808080"/>
</svg>
