<svg width="24" height="24" viewBox="0 0 24 24" fill="none" xmlns="http://www.w3.org/2000/svg">
<path fill-rule="evenodd" clip-rule="evenodd" d="M19.6692 14.8752V14.4752C19.6692 13.3712 18.7732 12.4752 17.6692 12.4752C16.5652 12.4752 15.6692 13.3712 15.6692 14.4752V14.8752C15.2292 14.8752 14.8692 15.2352 14.8692 15.6752V18.8752C14.8692 19.3152 15.2292 19.6752 15.6692 19.6752H19.6692C20.1092 19.6752 20.4692 19.3152 20.4692 18.8752V15.6752C20.4692 15.2352 20.1092 14.8752 19.6692 14.8752ZM18.8692 14.8752H16.4692V14.4752C16.4692 13.8112 17.0052 13.2752 17.6692 13.2752C18.3332 13.2752 18.8692 13.8112 18.8692 14.4752V14.8752ZM17.6692 10.8752C17.8052 10.8752 17.9332 10.8992 18.0692 10.9152V4.80321C18.0692 4.09121 17.2052 3.73121 16.7012 4.23521L4.23718 16.7072C3.73318 17.2112 4.08518 18.0752 4.79718 18.0752H13.2692V15.6752C13.2692 14.9392 13.6052 14.2832 14.1252 13.8352C14.4292 12.1552 15.9012 10.8752 17.6692 10.8752Z" fill="#808080"/>
</svg>
