<svg width="24" height="24" viewBox="0 0 24 24" fill="none" xmlns="http://www.w3.org/2000/svg">
<path fill-rule="evenodd" clip-rule="evenodd" d="M20.07 11.6412L18.582 9.94519L18.79 7.69719C18.83 7.29719 18.558 6.92919 18.174 6.84119L15.966 6.33719L14.814 4.39319C14.606 4.04919 14.182 3.90519 13.814 4.06519L11.734 4.96919L9.66195 4.08119C9.29395 3.92119 8.86195 4.06519 8.66195 4.40919L7.50195 6.34519L5.30195 6.84119C4.90995 6.92919 4.63795 7.28919 4.67795 7.69719L4.88595 9.93719L3.39795 11.6412C3.13395 11.9452 3.13395 12.3932 3.39795 12.6972L4.88595 14.3932L4.67795 16.6492C4.63795 17.0492 4.90995 17.4172 5.29395 17.5052L7.50195 18.0092L8.65395 19.9452C8.86195 20.2892 9.28595 20.4332 9.66195 20.2732L11.734 19.3692L13.806 20.2572C14.174 20.4172 14.606 20.2732 14.806 19.9292L15.958 17.9852L18.166 17.4812C18.558 17.3932 18.822 17.0252 18.782 16.6252L18.574 14.3772L20.062 12.6812C20.334 12.3932 20.334 11.9452 20.07 11.6412ZM12.534 16.1692H10.934V14.5692H12.534V16.1692ZM11.734 12.9692C11.294 12.9692 10.934 12.6092 10.934 12.1692V8.96919C10.934 8.52919 11.294 8.16919 11.734 8.16919C12.174 8.16919 12.534 8.52919 12.534 8.96919V12.1692C12.534 12.6092 12.174 12.9692 11.734 12.9692Z" fill="#808080"/>
</svg>
