<svg width="24" height="24" viewBox="0 0 24 24" fill="none" xmlns="http://www.w3.org/2000/svg">
<path fill-rule="evenodd" clip-rule="evenodd" d="M18.4 7.99999H15.2V6.39999C15.2 5.95999 15.024 5.55999 14.728 5.27199C14.44 4.97599 14.04 4.79999 13.6 4.79999H10.4C9.52 4.79999 8.8 5.51999 8.8 6.39999V7.99999H5.6C4.72 7.99999 4 8.71999 4 9.59999V18.4C4 19.28 4.72 20 5.6 20H18.4C19.28 20 20 19.28 20 18.4V9.59999C20 8.71999 19.28 7.99999 18.4 7.99999ZM10.4 6.39999H13.6V7.99999H10.4V6.39999ZM10.8 16.8C10.576 16.576 10.576 16.224 10.8 16L12.8 14L10.8 12C10.576 11.776 10.576 11.424 10.8 11.2C11.024 10.976 11.376 10.976 11.6 11.2L14.12 13.72C14.28 13.88 14.28 14.128 14.12 14.288L11.6 16.8C11.376 17.024 11.024 17.024 10.8 16.8Z" fill="#808080"/>
</svg>
