<svg width="24" height="24" viewBox="0 0 24 24" fill="none" xmlns="http://www.w3.org/2000/svg">
<path fill-rule="evenodd" clip-rule="evenodd" d="M18.4 4H5.6C4.72 4 4 4.72 4 5.6V18.4C4 19.28 4.72 20 5.6 20H18.4C19.28 20 20 19.28 20 18.4V5.6C20 4.72 19.28 4 18.4 4ZM17.6 18.4H6.4C5.96 18.4 5.6 18.04 5.6 17.6V6.4C5.6 5.96 5.96 5.6 6.4 5.6H17.6C18.04 5.6 18.4 5.96 18.4 6.4V17.6C18.4 18.04 18.04 18.4 17.6 18.4ZM15.2 7.2H12.8C11.92 7.2 11.2 7.92 11.2 8.8V10.624C10.72 10.904 10.4 11.408 10.4 12C10.4 12.88 11.12 13.6 12 13.6C12.88 13.6 13.6 12.88 13.6 12C13.6 11.408 13.28 10.896 12.8 10.624V8.8H15.2V14.4C15.2 14.84 14.84 15.2 14.4 15.2H9.6C9.16 15.2 8.8 14.84 8.8 14.4V8.8H9.6C10.04 8.8 10.4 8.44 10.4 8C10.4 7.56 10.04 7.2 9.6 7.2H8.8C7.92 7.2 7.2 7.92 7.2 8.8V15.2C7.2 16.08 7.92 16.8 8.8 16.8H15.2C16.08 16.8 16.8 16.08 16.8 15.2V8.8C16.8 7.92 16.08 7.2 15.2 7.2Z" fill="#808080"/>
</svg>
