<svg width="24" height="24" viewBox="0 0 24 24" fill="none" xmlns="http://www.w3.org/2000/svg">
<path fill-rule="evenodd" clip-rule="evenodd" d="M9.18605 7.20001C9.18605 5.83201 10.298 4.72001 11.666 4.72001C13.034 4.72001 14.146 5.83201 14.146 7.20001V8.80001H10.418L18.066 16.448V10.4C18.066 9.52001 17.346 8.80001 16.466 8.80001H15.666V7.20001C15.666 4.99201 13.874 3.20001 11.666 3.20001C9.81005 3.20001 8.25805 4.47201 7.81005 6.19201L9.18605 7.56801V7.20001ZM6.16205 6.80801C6.01258 6.65821 5.80966 6.57402 5.59805 6.57402C5.38643 6.57402 5.18351 6.65821 5.03405 6.80801C4.72205 7.12001 4.72205 7.62401 5.03405 7.93601L6.09805 9.00001C5.60205 9.28001 5.26605 9.80001 5.26605 10.4V18.4C5.26605 19.28 5.98605 20 6.86605 20H17.09L17.322 20.232C17.634 20.544 18.138 20.544 18.45 20.232C18.762 19.92 18.762 19.416 18.45 19.104L6.16205 6.80801Z" fill="#808080"/>
</svg>
