<svg width="24" height="24" viewBox="0 0 24 24" fill="none" xmlns="http://www.w3.org/2000/svg">
<path fill-rule="evenodd" clip-rule="evenodd" d="M14.066 6.76999H16.466V13.074L18.066 14.674V5.96999C18.066 5.52999 17.706 5.16999 17.266 5.16999H14.066C14.066 4.72999 13.706 4.36999 13.266 4.36999H7.762L14.066 10.674V6.76999ZM19.802 18.674L12.466 11.338V12.37H10.866V10.77H11.898L5.362 4.23399C5.21253 4.08419 5.00961 4 4.798 4C4.58639 4 4.38347 4.08419 4.234 4.23399C3.922 4.54599 3.922 5.04999 4.234 5.36199L6.866 8.00199V17.17H6.066C5.626 17.17 5.266 17.53 5.266 17.97C5.266 18.41 5.626 18.77 6.066 18.77H13.266C13.706 18.77 14.066 18.41 14.066 17.97V15.202L18.666 19.802C18.978 20.114 19.482 20.114 19.794 19.802C20.114 19.49 20.114 18.986 19.802 18.674Z" fill="#808080"/>
</svg>
