<svg width="24" height="24" viewBox="0 0 24 24" fill="none" xmlns="http://www.w3.org/2000/svg">
<path fill-rule="evenodd" clip-rule="evenodd" d="M5.03405 5.152C4.72205 5.464 4.72205 5.968 5.03405 6.28L6.65805 7.904L6.56205 8.008V16.8C6.56205 17.68 7.28205 18.4 8.16205 18.4H16.162C16.442 18.4 16.706 18.32 16.938 18.192L17.874 19.128C18.186 19.44 18.69 19.44 19.002 19.128C19.314 18.816 19.314 18.312 19.002 18L6.16205 5.152C6.01258 5.0022 5.80966 4.91801 5.59805 4.91801C5.38643 4.91801 5.18351 5.0022 5.03405 5.152ZM17.762 14.488V5.6C17.762 4.72 17.042 4 16.162 4H10.57L8.92205 5.648L17.762 14.488Z" fill="#808080"/>
</svg>
