<svg width="24" height="24" viewBox="0 0 24 24" fill="none" xmlns="http://www.w3.org/2000/svg">
<path fill-rule="evenodd" clip-rule="evenodd" d="M14.072 4.472C13.768 4.168 13.36 4 12.936 4H7.20001C6.32001 4 5.60001 4.72 5.60001 5.6V18.4C5.60001 19.28 6.31201 20 7.19201 20H16.8C17.68 20 18.4 19.28 18.4 18.4V9.464C18.4 9.04 18.232 8.632 17.928 8.336L14.072 4.472ZM14.4 15.2H12.8V16.8C12.8 17.24 12.44 17.6 12 17.6C11.56 17.6 11.2 17.24 11.2 16.8V15.2H9.60001C9.16001 15.2 8.80001 14.84 8.80001 14.4C8.80001 13.96 9.16001 13.6 9.60001 13.6H11.2V12C11.2 11.56 11.56 11.2 12 11.2C12.44 11.2 12.8 11.56 12.8 12V13.6H14.4C14.84 13.6 15.2 13.96 15.2 14.4C15.2 14.84 14.84 15.2 14.4 15.2ZM12.8 8.8V5.2L17.2 9.6H13.6C13.16 9.6 12.8 9.24 12.8 8.8Z" fill="#808080"/>
</svg>
