<svg width="24" height="24" viewBox="0 0 24 24" fill="none" xmlns="http://www.w3.org/2000/svg">
<path fill-rule="evenodd" clip-rule="evenodd" d="M16.6969 14.8V10.8C16.6969 8.344 15.3849 6.288 13.0969 5.744V5.2C13.0969 4.536 12.5529 4 11.8889 4C11.2249 4 10.6969 4.536 10.6969 5.2V5.744C8.40086 6.288 7.09686 8.336 7.09686 10.8V14.8L6.05686 15.832C5.55286 16.336 5.90486 17.2 6.61686 17.2H17.1529C17.8649 17.2 18.2249 16.336 17.7209 15.832L16.6969 14.8ZM11.8889 19.6C12.7689 19.6 13.4889 18.88 13.4889 18H10.2889C10.2889 18.88 11.0009 19.6 11.8889 19.6ZM7.71286 5.784C8.04886 5.48 8.05686 4.96 7.73686 4.64C7.43286 4.336 6.93686 4.328 6.62486 4.624C5.25686 5.872 4.31286 7.568 4.00886 9.472C3.93686 9.96 4.31286 10.4 4.80886 10.4C5.19286 10.4 5.52886 10.12 5.59286 9.736C5.83286 8.184 6.60086 6.8 7.71286 5.784ZM17.1769 4.624C16.8569 4.328 16.3609 4.336 16.0569 4.64C15.7369 4.96 15.7529 5.472 16.0809 5.776C17.1849 6.792 17.9609 8.176 18.2009 9.728C18.2569 10.112 18.5929 10.392 18.9849 10.392C19.4729 10.392 19.8569 9.952 19.7769 9.464C19.4729 7.568 18.5369 5.88 17.1769 4.624Z" fill="#808080"/>
</svg>
