<svg width="24" height="24" viewBox="0 0 24 24" fill="none" xmlns="http://www.w3.org/2000/svg">
<path fill-rule="evenodd" clip-rule="evenodd" d="M11.2 19.6C12.08 19.6 12.8 18.88 12.8 18H9.60005C9.60005 18.88 10.312 19.6 11.2 19.6ZM16 10.8C16 8.344 14.688 6.288 12.4 5.744V5.2C12.4 4.536 11.864 4 11.2 4C10.536 4 10 4.536 10 5.2V5.744C9.80805 5.792 9.62405 5.864 9.44805 5.928L16 12.48V10.8ZM5.92805 4.68L4.80005 5.808L7.04805 8.056C6.63205 8.856 6.40005 9.784 6.40005 10.8V14.8L5.36805 15.832C4.86405 16.336 5.21605 17.2 5.92805 17.2H16.192L17.584 18.592L18.712 17.464L5.92805 4.68Z" fill="#808080"/>
</svg>
