<svg width="24" height="24" viewBox="0 0 24 24" fill="none" xmlns="http://www.w3.org/2000/svg">
<path fill-rule="evenodd" clip-rule="evenodd" d="M11.6693 19.6C12.5493 19.6 13.2693 18.88 13.2693 18H10.0693C10.0693 18.88 10.7813 19.6 11.6693 19.6ZM16.4693 14.8V10.8C16.4693 8.344 15.1573 6.288 12.8693 5.744V5.2C12.8693 4.536 12.3333 4 11.6693 4C11.0053 4 10.4693 4.536 10.4693 5.2V5.744C8.17328 6.288 6.86928 8.336 6.86928 10.8V14.8L5.83728 15.832C5.33328 16.336 5.68528 17.2 6.39728 17.2H16.9333C17.6453 17.2 18.0053 16.336 17.5013 15.832L16.4693 14.8Z" fill="#808080"/>
</svg>
