<svg width="24" height="24" viewBox="0 0 24 24" fill="none" xmlns="http://www.w3.org/2000/svg">
<path fill-rule="evenodd" clip-rule="evenodd" d="M11.6692 20.4C12.5492 20.4 13.2612 19.688 13.2612 18.808H10.0772C10.0772 19.688 10.7892 20.4 11.6692 20.4ZM18.3012 16.632L17.2692 15.6V10.8C17.2692 8.12 15.3812 5.88 12.8692 5.336V4.4C12.8692 3.736 12.3332 3.2 11.6692 3.2C11.0052 3.2 10.4692 3.736 10.4692 4.4V5.336C7.95717 5.88 6.06917 8.12 6.06917 10.8V15.6L5.03717 16.632C4.53317 17.136 4.88517 18 5.59717 18H17.7332C18.4532 18 18.8052 17.136 18.3012 16.632ZM12.4692 14.8H10.8692V13.2H12.4692V14.8ZM12.4692 10.8C12.4692 11.24 12.1092 11.6 11.6692 11.6C11.2292 11.6 10.8692 11.24 10.8692 10.8V9.2C10.8692 8.76 11.2292 8.4 11.6692 8.4C12.1092 8.4 12.4692 8.76 12.4692 9.2V10.8Z" fill="#808080"/>
</svg>
