<svg width="24" height="24" viewBox="0 0 24 24" fill="none" xmlns="http://www.w3.org/2000/svg">
<path fill-rule="evenodd" clip-rule="evenodd" d="M11.6692 20.4C12.5492 20.4 13.2612 19.688 13.2612 18.808H10.0772C10.0772 19.688 10.7892 20.4 11.6692 20.4ZM17.2692 15.6V10.8C17.2692 8.12 15.3812 5.88 12.8692 5.336V4.4C12.8692 3.736 12.3332 3.2 11.6692 3.2C11.0052 3.2 10.4692 3.736 10.4692 4.4V5.336C7.95717 5.88 6.06917 8.12 6.06917 10.8V15.6L5.03717 16.632C4.53317 17.136 4.88517 18 5.59717 18H17.7332C18.4452 18 18.8052 17.136 18.3012 16.632L17.2692 15.6ZM14.0692 12.408H12.4692V14.008C12.4692 14.448 12.1092 14.808 11.6692 14.808C11.2292 14.808 10.8692 14.448 10.8692 14.008V12.408H9.26917C8.82917 12.408 8.46917 12.048 8.46917 11.608V11.6C8.46917 11.16 8.82917 10.8 9.26917 10.8H10.8692V9.2C10.8692 8.76 11.2292 8.4 11.6692 8.4C12.1092 8.4 12.4692 8.76 12.4692 9.2V10.8H14.0692C14.5092 10.8 14.8692 11.16 14.8692 11.6V11.608C14.8692 12.048 14.5092 12.408 14.0692 12.408Z" fill="#808080"/>
</svg>
