<svg width="24" height="24" viewBox="0 0 24 24" fill="none" xmlns="http://www.w3.org/2000/svg">
<path fill-rule="evenodd" clip-rule="evenodd" d="M11.6693 19.6C12.5493 19.6 13.2693 18.88 13.2693 18H10.0693C10.0693 18.88 10.7813 19.6 11.6693 19.6ZM17.5013 15.832L16.4693 14.8V10.8C16.4693 8.344 15.1573 6.288 12.8693 5.744V5.2C12.8693 4.536 12.3333 4 11.6693 4C11.0053 4 10.4693 4.536 10.4693 5.2V5.744C8.17328 6.288 6.86928 8.336 6.86928 10.8V14.8L5.83728 15.832C5.33328 16.336 5.68528 17.2 6.39728 17.2H16.9333C17.6533 17.2 18.0053 16.336 17.5013 15.832ZM13.6693 9.464C13.6693 9.712 13.5813 9.944 13.4293 10.136L11.4293 12.56H12.9493C13.3493 12.56 13.6693 12.88 13.6693 13.28C13.6693 13.68 13.3493 14 12.9493 14H10.7253C10.1413 14 9.66928 13.528 9.66928 12.944V12.936C9.66928 12.688 9.75728 12.456 9.90928 12.264L11.9093 9.84H10.3893C9.98928 9.84 9.66928 9.52 9.66928 9.12C9.66928 8.72 9.98928 8.4 10.3893 8.4H12.6133C13.1973 8.4 13.6693 8.872 13.6693 9.464Z" fill="#808080"/>
</svg>
