<svg width="24" height="24" viewBox="0 0 24 24" fill="none" xmlns="http://www.w3.org/2000/svg">
<path fill-rule="evenodd" clip-rule="evenodd" d="M12 4C7.6 4 4 7.6 4 12C4 16.4 7.6 20 12 20C16.4 20 20 16.4 20 12C20 7.6 16.4 4 12 4ZM15.2 16.8H8.8C8.36 16.8 8 16.44 8 16C8 15.56 8.36 15.2 8.8 15.2H15.2C15.64 15.2 16 15.56 16 16C16 16.44 15.64 16.8 15.2 16.8ZM10.072 13.032L8.56 11.52C8.41028 11.3721 8.32601 11.1704 8.32601 10.96C8.32601 10.7496 8.41028 10.5479 8.56 10.4C8.872 10.088 9.368 10.088 9.68 10.4L10.64 11.36L14.32 7.68C14.632 7.368 15.128 7.368 15.44 7.68C15.752 7.992 15.752 8.488 15.44 8.8L11.208 13.032C10.896 13.344 10.384 13.344 10.072 13.032Z" fill="#808080"/>
</svg>
