<svg width="24" height="24" viewBox="0 0 24 24" fill="none" xmlns="http://www.w3.org/2000/svg">
<path fill-rule="evenodd" clip-rule="evenodd" d="M11.984 4C7.576 4 4 7.576 4 11.984C4 16.392 7.576 19.968 11.984 19.968C16.392 19.968 19.968 16.392 19.968 11.984C19.968 7.576 16.392 4 11.984 4ZM11.568 16.688V13.376H9.44C9.144 13.376 8.944 13.056 9.088 12.792L12.032 7.056C12.216 6.68 12.784 6.816 12.784 7.24V10.592H14.816C15.112 10.592 15.304 10.904 15.176 11.168L12.328 16.864C12.136 17.248 11.568 17.112 11.568 16.688Z" fill="#808080"/>
</svg>
