<svg width="24" height="24" viewBox="0 0 24 24" fill="none" xmlns="http://www.w3.org/2000/svg">
<path fill-rule="evenodd" clip-rule="evenodd" d="M16.528 8.98598L12.568 5.03398C12.4185 4.88417 12.2156 4.79999 12.004 4.79999C11.7924 4.79999 11.5894 4.88417 11.44 5.03398L7.47198 8.98598C6.22398 10.234 5.59998 11.898 5.59998 13.498C5.59998 15.098 6.22398 16.786 7.47198 18.034C8.71998 19.282 10.36 19.914 12 19.914C13.64 19.914 15.28 19.282 16.528 18.034C17.776 16.786 18.4 15.098 18.4 13.498C18.4 11.898 17.776 10.234 16.528 8.98598ZM7.19998 13.786C7.20798 12.186 7.69598 11.17 8.60798 10.266L12 6.80198L15.392 10.306C16.304 11.202 16.792 12.186 16.8 13.786H7.19998Z" fill="#808080"/>
</svg>
