<svg width="24" height="24" viewBox="0 0 24 24" fill="none" xmlns="http://www.w3.org/2000/svg">
<path fill-rule="evenodd" clip-rule="evenodd" d="M16.8 17.6H7.2C6.76 17.6 6.4 17.24 6.4 16.8V7.19999C6.4 6.75999 6.76 6.39999 7.2 6.39999H11.2C11.64 6.39999 12 6.03999 12 5.59999C12 5.15999 11.64 4.79999 11.2 4.79999H6.4C5.512 4.79999 4.8 5.51999 4.8 6.39999V17.6C4.8 18.48 5.52 19.2 6.4 19.2H17.6C18.48 19.2 19.2 18.48 19.2 17.6V12.8C19.2 12.36 18.84 12 18.4 12C17.96 12 17.6 12.36 17.6 12.8V16.8C17.6 17.24 17.24 17.6 16.8 17.6ZM13.6 5.59999C13.6 6.03999 13.96 6.39999 14.4 6.39999H16.472L9.168 13.704C8.856 14.016 8.856 14.52 9.168 14.832C9.48 15.144 9.984 15.144 10.296 14.832L17.6 7.52799V9.59999C17.6 10.04 17.96 10.4 18.4 10.4C18.84 10.4 19.2 10.04 19.2 9.59999V5.59999C19.2 5.15999 18.84 4.79999 18.4 4.79999H14.4C13.96 4.79999 13.6 5.15999 13.6 5.59999Z" fill="#808080"/>
</svg>
