<svg width="24" height="24" viewBox="0 0 24 24" fill="none" xmlns="http://www.w3.org/2000/svg">
<path fill-rule="evenodd" clip-rule="evenodd" d="M17.6 5.59998H6.4C5.512 5.59998 4.8 6.31998 4.8 7.19998V16.8C4.8 17.68 5.52 18.4 6.4 18.4H8.8C9.24 18.4 9.6 18.04 9.6 17.6C9.6 17.16 9.24 16.8 8.8 16.8H6.4V8.79998H17.6V16.8H15.2C14.76 16.8 14.4 17.16 14.4 17.6C14.4 18.04 14.76 18.4 15.2 18.4H17.6C18.48 18.4 19.2 17.68 19.2 16.8V7.19998C19.2 6.31998 18.488 5.59998 17.6 5.59998ZM11.72 10.68L9.488 12.912C9.232 13.168 9.408 13.6 9.768 13.6H11.2V17.6C11.2 18.04 11.56 18.4 12 18.4C12.44 18.4 12.8 18.04 12.8 17.6V13.6H14.232C14.592 13.6 14.768 13.168 14.512 12.92L12.28 10.688C12.128 10.528 11.872 10.528 11.72 10.68Z" fill="#808080"/>
</svg>
