<svg width="24" height="24" viewBox="0 0 24 24" fill="none" xmlns="http://www.w3.org/2000/svg">
<path fill-rule="evenodd" clip-rule="evenodd" d="M10.632 9.43201H13.032C13.256 9.43201 13.432 9.25601 13.432 9.03201V7.03201H14.864C15.224 7.03201 15.4 6.60001 15.144 6.35201L12.112 3.32001C11.952 3.16001 11.704 3.16001 11.544 3.32001L8.512 6.35201C8.264 6.60001 8.44 7.03201 8.8 7.03201H10.232V9.03201C10.232 9.25601 10.408 9.43201 10.632 9.43201ZM9.032 10.232H7.032V8.80001C7.032 8.44001 6.6 8.26401 6.352 8.52001L3.32 11.552C3.16 11.712 3.16 11.96 3.32 12.12L6.352 15.152C6.6 15.4 7.032 15.224 7.032 14.864V13.432H9.032C9.256 13.432 9.432 13.256 9.432 13.032V10.632C9.432 10.408 9.256 10.232 9.032 10.232ZM20.352 11.552L17.32 8.52001C17.064 8.26401 16.632 8.44001 16.632 8.80001V10.232H14.632C14.408 10.232 14.232 10.408 14.232 10.632V13.032C14.232 13.256 14.408 13.432 14.632 13.432H16.632V14.864C16.632 15.224 17.064 15.4 17.312 15.144L20.344 12.112C20.504 11.96 20.504 11.704 20.352 11.552ZM13.032 14.232H10.632C10.408 14.232 10.232 14.408 10.232 14.632V16.632H8.8C8.44 16.632 8.264 17.064 8.52 17.312L11.552 20.344C11.712 20.504 11.96 20.504 12.12 20.344L15.152 17.312C15.4 17.064 15.224 16.632 14.872 16.632H13.432V14.632C13.432 14.408 13.256 14.232 13.032 14.232Z" fill="#808080"/>
</svg>
