<svg width="24" height="24" viewBox="0 0 24 24" fill="none" xmlns="http://www.w3.org/2000/svg">
<path fill-rule="evenodd" clip-rule="evenodd" d="M13.6 7.20001L13.024 6.04001C12.888 5.76801 12.608 5.60001 12.304 5.60001H7.20002C6.76002 5.60001 6.40002 5.96001 6.40002 6.40001V18.4C6.40002 18.84 6.76002 19.2 7.20002 19.2C7.64002 19.2 8.00002 18.84 8.00002 18.4V13.6H12L12.576 14.76C12.712 15.032 12.992 15.2 13.288 15.2H17.6C18.04 15.2 18.4 14.84 18.4 14.4V8.00001C18.4 7.56001 18.04 7.20001 17.6 7.20001H13.6ZM16.8 13.6H13.6L12.8 12H8.00002V7.20001H12L12.8 8.80001H16.8V13.6Z" fill="#808080"/>
</svg>
