<svg width="24" height="24" viewBox="0 0 24 24" fill="none" xmlns="http://www.w3.org/2000/svg">
<path fill-rule="evenodd" clip-rule="evenodd" d="M4.80005 6.40005V11.2H8.80005L8.32005 9.29605C8.17605 8.70405 8.70405 8.17605 9.29605 8.32005L11.2 8.80005V4.80005H6.40005C5.52005 4.80005 4.80005 5.52005 4.80005 6.40005ZM8.80005 12.8H4.80005V17.6C4.80005 18.48 5.52005 19.2 6.40005 19.2H11.2V15.2L9.29605 15.68C8.71205 15.824 8.17605 15.296 8.32805 14.712L8.80005 12.8ZM14.704 15.68L12.8 15.2V19.2H17.6C18.48 19.2 19.2 18.48 19.2 17.6V12.8H15.2L15.68 14.704C15.824 15.296 15.296 15.824 14.704 15.68ZM17.6 4.80005H12.8V8.80005L14.704 8.32005C15.288 8.17605 15.824 8.70405 15.672 9.28805L15.2 11.2H19.2V6.40005C19.2 5.52005 18.48 4.80005 17.6 4.80005Z" fill="#808080"/>
</svg>
