<svg width="24" height="24" viewBox="0 0 24 24" fill="none" xmlns="http://www.w3.org/2000/svg">
<path fill-rule="evenodd" clip-rule="evenodd" d="M11.6 9.59998C10.496 9.59998 9.6 10.496 9.6 11.6C9.6 12.704 10.496 13.6 11.6 13.6C12.704 13.6 13.6 12.704 13.6 11.6C13.6 10.496 12.704 9.59998 11.6 9.59998ZM18.4 5.59998H5.6C4.72 5.59998 4 6.31998 4 7.19998V16.8C4 17.68 4.72 18.4 5.6 18.4H18.4C19.28 18.4 20 17.68 20 16.8V7.19998C20 6.31998 19.28 5.59998 18.4 5.59998ZM15.264 16.4L13.504 14.64C12.784 15.104 11.88 15.312 10.928 15.136C9.424 14.856 8.224 13.592 8.032 12.072C7.728 9.66398 9.776 7.65598 12.2 8.03998C13.704 8.27998 14.912 9.51198 15.16 11.008C15.312 11.936 15.096 12.792 14.648 13.504L16.408 15.256C16.72 15.568 16.72 16.08 16.408 16.392C16.088 16.712 15.576 16.712 15.264 16.4Z" fill="#808080"/>
</svg>
