<svg width="24" height="24" viewBox="0 0 24 24" fill="none" xmlns="http://www.w3.org/2000/svg">
<path fill-rule="evenodd" clip-rule="evenodd" d="M12 4.79999C8.02405 4.79999 4.80005 8.02399 4.80005 12C4.80005 15.976 8.02405 19.2 12 19.2C12.664 19.2 13.2 18.664 13.2 18C13.2 17.688 13.08 17.408 12.888 17.192C12.704 16.984 12.584 16.704 12.584 16.4C12.584 15.736 13.12 15.2 13.784 15.2H15.2C17.408 15.2 19.2 13.408 19.2 11.2C19.2 7.66399 15.976 4.79999 12 4.79999ZM7.60005 12C6.93605 12 6.40005 11.464 6.40005 10.8C6.40005 10.136 6.93605 9.59999 7.60005 9.59999C8.26405 9.59999 8.80005 10.136 8.80005 10.8C8.80005 11.464 8.26405 12 7.60005 12ZM10 8.79999C9.33605 8.79999 8.80005 8.26399 8.80005 7.59999C8.80005 6.93599 9.33605 6.39999 10 6.39999C10.664 6.39999 11.2 6.93599 11.2 7.59999C11.2 8.26399 10.664 8.79999 10 8.79999ZM14 8.79999C13.336 8.79999 12.8 8.26399 12.8 7.59999C12.8 6.93599 13.336 6.39999 14 6.39999C14.664 6.39999 15.2 6.93599 15.2 7.59999C15.2 8.26399 14.664 8.79999 14 8.79999ZM16.4 12C15.736 12 15.2 11.464 15.2 10.8C15.2 10.136 15.736 9.59999 16.4 9.59999C17.064 9.59999 17.6 10.136 17.6 10.8C17.6 11.464 17.064 12 16.4 12Z" fill="#808080"/>
</svg>
