<svg width="24" height="24" viewBox="0 0 24 24" fill="none" xmlns="http://www.w3.org/2000/svg">
<path fill-rule="evenodd" clip-rule="evenodd" d="M19.0892 5.60002C18.4252 5.60002 17.8892 6.13602 17.8892 6.80002V10.8C17.8892 11.024 17.7132 11.2 17.4892 11.2C17.2652 11.2 17.0892 11.024 17.0892 10.8V4.40002C17.0892 3.73602 16.5532 3.20002 15.8892 3.20002C15.2252 3.20002 14.6892 3.73602 14.6892 4.40002V10.8C14.6892 11.024 14.5132 11.2 14.2892 11.2C14.0652 11.2 13.8892 11.024 13.8892 10.8V3.60002C13.8892 2.93602 13.3532 2.40002 12.6892 2.40002C12.0252 2.40002 11.4892 2.93602 11.4892 3.60002V10.792C11.4892 11.016 11.3132 11.192 11.0892 11.192C10.8652 11.192 10.6892 11.016 10.6892 10.792V6.00002C10.6892 5.33602 10.1532 4.80002 9.48917 4.80002C8.82517 4.80002 8.28917 5.33602 8.28917 6.00002V15.128L4.99317 13.248C4.52917 12.984 3.95317 13.056 3.56917 13.424C3.08917 13.888 3.07317 14.656 3.54517 15.128L8.96917 20.64C9.56917 21.256 10.3852 21.6 11.2492 21.6H17.0892C18.8572 21.6 20.2892 20.168 20.2892 18.4V6.80002C20.2892 6.13602 19.7532 5.60002 19.0892 5.60002Z" fill="#808080"/>
</svg>
