<svg width="24" height="24" viewBox="0 0 24 24" fill="none" xmlns="http://www.w3.org/2000/svg">
<path fill-rule="evenodd" clip-rule="evenodd" d="M20.8 16.8V7.19998C20.8 6.31998 20.08 5.59998 19.2 5.59998H4.79995C3.91995 5.59998 3.19995 6.31998 3.19995 7.19998V16.8C3.19995 17.68 3.91995 18.4 4.79995 18.4H19.2C20.08 18.4 20.8 17.68 20.8 16.8ZM9.51995 12.784L11.2 14.808L13.6799 11.616C13.84 11.408 14.16 11.408 14.32 11.624L17.128 15.368C17.328 15.632 17.136 16.008 16.808 16.008H7.21595C6.87995 16.008 6.69595 15.624 6.90395 15.36L8.89595 12.8C9.04795 12.592 9.35195 12.584 9.51995 12.784Z" fill="#808080"/>
</svg>
