<svg width="24" height="24" viewBox="0 0 24 24" fill="none" xmlns="http://www.w3.org/2000/svg">
<path fill-rule="evenodd" clip-rule="evenodd" d="M12 7.19998C13.96 7.19998 15.768 7.35998 17.832 7.71198C18.208 9.13598 18.4 10.576 18.4 12C18.4 13.424 18.208 14.864 17.832 16.288C15.768 16.64 13.96 16.8 12 16.8C10.04 16.8 8.232 16.64 6.168 16.288C5.792 14.864 5.6 13.424 5.6 12C5.6 10.576 5.792 9.13598 6.168 7.71198C8.232 7.35998 10.04 7.19998 12 7.19998ZM12 5.59998C9.816 5.59998 7.824 5.79198 5.64 6.17598L4.896 6.30398L4.696 7.02398C4.232 8.67998 4 10.344 4 12C4 13.656 4.232 15.32 4.696 16.976L4.896 17.688L5.64 17.816C7.824 18.208 9.816 18.4 12 18.4C14.184 18.4 16.176 18.208 18.36 17.824L19.104 17.696L19.304 16.984C19.768 15.32 20 13.656 20 12C20 10.344 19.768 8.67998 19.304 7.02398L19.104 6.31198L18.36 6.18398C16.176 5.79198 14.184 5.59998 12 5.59998Z" fill="#808080"/>
</svg>
