<svg width="24" height="24" viewBox="0 0 24 24" fill="none" xmlns="http://www.w3.org/2000/svg">
<path fill-rule="evenodd" clip-rule="evenodd" d="M18.3521 19.296C17.4721 16.944 17.0401 14.472 17.0401 12C17.0401 9.528 17.4801 7.056 18.3521 4.704C18.3841 4.616 18.4001 4.528 18.4001 4.456C18.4001 4.184 18.2161 4 17.8961 4H6.1041C5.7841 4 5.6001 4.184 5.6001 4.456C5.6001 4.536 5.6161 4.616 5.6481 4.704C6.5281 7.056 6.9681 9.528 6.9681 12C6.9681 14.472 6.5281 16.944 5.6561 19.296C5.6161 19.384 5.6001 19.472 5.6001 19.544C5.6001 19.808 5.7841 20 6.1041 20H17.9041C18.2161 20 18.4081 19.808 18.4081 19.544C18.4001 19.464 18.3841 19.384 18.3521 19.296ZM7.6321 18.4C8.2481 16.32 8.5601 14.176 8.5601 12C8.5601 9.824 8.2481 7.68 7.6321 5.6H16.3601C15.7441 7.68 15.4321 9.824 15.4321 12C15.4321 14.176 15.7441 16.32 16.3601 18.4H7.6321Z" fill="#808080"/>
</svg>
