<svg width="24" height="24" viewBox="0 0 24 24" fill="none" xmlns="http://www.w3.org/2000/svg">
<path fill-rule="evenodd" clip-rule="evenodd" d="M18.4 7.63198V16.36C16.32 15.744 14.176 15.432 12 15.432C9.824 15.432 7.68 15.744 5.6 16.36V7.63198C7.68 8.24798 9.824 8.55998 12 8.55998C14.176 8.56798 16.32 8.25598 18.4 7.63198ZM19.544 5.59998C19.464 5.59998 19.384 5.61598 19.296 5.64798C16.944 6.52798 14.472 6.95998 12 6.95998C9.528 6.95998 7.056 6.51998 4.704 5.64798C4.616 5.61598 4.528 5.59998 4.456 5.59998C4.184 5.59998 4 5.78398 4 6.10398V17.904C4 18.216 4.184 18.4 4.456 18.4C4.536 18.4 4.616 18.384 4.704 18.352C7.056 17.472 9.528 17.04 12 17.04C14.472 17.04 16.944 17.48 19.296 18.352C19.384 18.384 19.464 18.4 19.544 18.4C19.808 18.4 20 18.216 20 17.896V6.10398C20 5.78398 19.808 5.59998 19.544 5.59998Z" fill="#808080"/>
</svg>
