<svg width="24" height="24" viewBox="0 0 24 24" fill="none" xmlns="http://www.w3.org/2000/svg">
<path fill-rule="evenodd" clip-rule="evenodd" d="M18.4 6.40005H15.864L14.872 5.32005C14.576 4.99205 14.144 4.80005 13.696 4.80005H10.304C9.856 4.80005 9.424 4.99205 9.12 5.32005L8.136 6.40005H5.6C4.72 6.40005 4 7.12005 4 8.00005V17.6C4 18.48 4.72 19.2 5.6 19.2H18.4C19.28 19.2 20 18.48 20 17.6V8.00005C20 7.12005 19.28 6.40005 18.4 6.40005ZM12 8.80005C13.304 8.80005 14.448 9.43205 15.184 10.4H12C10.672 10.4 9.6 11.472 9.6 12.8C9.6 13.08 9.656 13.352 9.744 13.6H8.08C8.032 13.344 8 13.072 8 12.8C8 10.592 9.792 8.80005 12 8.80005ZM12 16.8C10.696 16.8 9.552 16.168 8.816 15.2H12C13.328 15.2 14.4 14.128 14.4 12.8C14.4 12.52 14.344 12.248 14.256 12H15.92C15.976 12.256 16 12.528 16 12.8C16 15.008 14.208 16.8 12 16.8Z" fill="#808080"/>
</svg>
