<svg width="24" height="24" viewBox="0 0 24 24" fill="none" xmlns="http://www.w3.org/2000/svg">
<path fill-rule="evenodd" clip-rule="evenodd" d="M17.6 4.80001H14.256C13.92 3.87201 13.04 3.20001 12 3.20001C10.96 3.20001 10.08 3.87201 9.74405 4.80001H6.40005C5.52005 4.80001 4.80005 5.52001 4.80005 6.40001V19.2C4.80005 20.08 5.52005 20.8 6.40005 20.8H17.6C18.48 20.8 19.2 20.08 19.2 19.2V6.40001C19.2 5.52001 18.48 4.80001 17.6 4.80001ZM12 4.80001C12.44 4.80001 12.8 5.16001 12.8 5.60001C12.8 6.04001 12.44 6.40001 12 6.40001C11.56 6.40001 11.2 6.04001 11.2 5.60001C11.2 5.16001 11.56 4.80001 12 4.80001ZM16.8 19.2H7.20005C6.76005 19.2 6.40005 18.84 6.40005 18.4V7.20001C6.40005 6.76001 6.76005 6.40001 7.20005 6.40001H8.00005V7.20001C8.00005 8.08001 8.72005 8.80001 9.60005 8.80001H14.4C15.28 8.80001 16 8.08001 16 7.20001V6.40001H16.8C17.24 6.40001 17.6 6.76001 17.6 7.20001V18.4C17.6 18.84 17.24 19.2 16.8 19.2Z" fill="#808080"/>
</svg>
