<svg width="24" height="24" viewBox="0 0 24 24" fill="none" xmlns="http://www.w3.org/2000/svg">
<path fill-rule="evenodd" clip-rule="evenodd" d="M19.2 4.79999H4.79995C3.91995 4.79999 3.19995 5.51999 3.19995 6.39999V17.6C3.19995 18.48 3.91995 19.2 4.79995 19.2H19.2C20.08 19.2 20.8 18.48 20.8 17.6V6.39999C20.8 5.51999 20.08 4.79999 19.2 4.79999ZM19.2 16.8C19.2 17.24 18.84 17.6 18.4 17.6H5.59995C5.15995 17.6 4.79995 17.24 4.79995 16.8V7.19999C4.79995 6.75999 5.15995 6.39999 5.59995 6.39999H18.4C18.84 6.39999 19.2 6.75999 19.2 7.19999V16.8ZM10.4 8.79999C9.95995 8.79999 9.59995 9.15999 9.59995 9.59999V14.4C9.59995 14.84 9.95995 15.2 10.4 15.2C10.84 15.2 11.2 14.84 11.2 14.4V9.59999C11.2 9.15999 10.84 8.79999 10.4 8.79999ZM13.6 8.79999C13.16 8.79999 12.8 9.15999 12.8 9.59999V14.4C12.8 14.84 13.16 15.2 13.6 15.2C14.04 15.2 14.4 14.84 14.4 14.4V9.59999C14.4 9.15999 14.04 8.79999 13.6 8.79999Z" fill="#808080"/>
</svg>
