<svg width="24" height="24" viewBox="0 0 24 24" fill="none" xmlns="http://www.w3.org/2000/svg">
<path fill-rule="evenodd" clip-rule="evenodd" d="M12 4C7.584 4 4 7.584 4 12C4 16.416 7.584 20 12 20C16.416 20 20 16.416 20 12C20 7.584 16.416 4 12 4ZM10.4 15.2C9.96 15.2 9.6 14.84 9.6 14.4V9.6C9.6 9.16 9.96 8.8 10.4 8.8C10.84 8.8 11.2 9.16 11.2 9.6V14.4C11.2 14.84 10.84 15.2 10.4 15.2ZM13.6 15.2C13.16 15.2 12.8 14.84 12.8 14.4V9.6C12.8 9.16 13.16 8.8 13.6 8.8C14.04 8.8 14.4 9.16 14.4 9.6V14.4C14.4 14.84 14.04 15.2 13.6 15.2Z" fill="#808080"/>
</svg>
