<svg width="24" height="24" viewBox="0 0 24 24" fill="none" xmlns="http://www.w3.org/2000/svg">
<path fill-rule="evenodd" clip-rule="evenodd" d="M18.4 5.59998H5.6C4.712 5.59998 4.008 6.31198 4.008 7.19998L4 16.8C4 17.688 4.712 18.4 5.6 18.4H18.4C19.288 18.4 20 17.688 20 16.8V7.19998C20 6.31198 19.288 5.59998 18.4 5.59998ZM17.6 16.8H6.4C5.96 16.8 5.6 16.44 5.6 16V12H18.4V16C18.4 16.44 18.04 16.8 17.6 16.8ZM18.4 8.79998H5.6V7.99998C5.6 7.55998 5.96 7.19998 6.4 7.19998H17.6C18.04 7.19998 18.4 7.55998 18.4 7.99998V8.79998Z" fill="#808080"/>
</svg>
