<svg width="24" height="24" viewBox="0 0 24 24" fill="none" xmlns="http://www.w3.org/2000/svg">
<path fill-rule="evenodd" clip-rule="evenodd" d="M2.91406 8.5H5.94594C7.44975 8.5 8.46846 9.47505 8.46846 10.9789C8.46846 12.473 7.39639 13.448 5.83922 13.448H4.69438V15.5H2.91406V8.5ZM4.69438 9.86313V12.1091H5.46569C6.22245 12.1091 6.66874 11.7162 6.66874 10.9837C6.66874 10.2561 6.22245 9.86313 5.47539 9.86313H4.69438ZM9.25918 8.5H12.1019C14.2169 8.5 15.4588 9.7273 15.4588 11.9588C15.4588 14.1951 14.2121 15.5 12.1019 15.5H9.25918V8.5ZM11.0395 9.9359V14.0641H11.869C13.0284 14.0641 13.6493 13.3607 13.6493 11.9636C13.6493 10.649 12.9945 9.9359 11.869 9.9359H11.0395ZM18.1026 15.5H16.3222V8.5H21.0859V9.9359H18.1026V11.527H20.8143V12.8902H18.1026V15.5Z" fill="#808080"/>
</svg>
