<svg width="24" height="24" viewBox="0 0 24 24" fill="none" xmlns="http://www.w3.org/2000/svg">
<path fill-rule="evenodd" clip-rule="evenodd" d="M15.2 11.2C16.528 11.2 17.592 10.128 17.592 8.80002C17.592 7.47202 16.528 6.40002 15.2 6.40002C13.872 6.40002 12.8 7.47202 12.8 8.80002C12.8 10.128 13.872 11.2 15.2 11.2ZM8.79995 11.2C10.128 11.2 11.192 10.128 11.192 8.80002C11.192 7.47202 10.128 6.40002 8.79995 6.40002C7.47195 6.40002 6.39995 7.47202 6.39995 8.80002C6.39995 10.128 7.47195 11.2 8.79995 11.2ZM8.79995 12.8C6.93595 12.8 3.19995 13.736 3.19995 15.6V16.8C3.19995 17.24 3.55995 17.6 3.99995 17.6H13.6C14.04 17.6 14.4 17.24 14.4 16.8V15.6C14.4 13.736 10.664 12.8 8.79995 12.8ZM15.2 12.8C14.968 12.8 14.704 12.816 14.424 12.84C14.44 12.848 14.448 12.864 14.456 12.872C15.368 13.536 16 14.424 16 15.6V16.8C16 17.08 15.944 17.352 15.856 17.6H20C20.44 17.6 20.8 17.24 20.8 16.8V15.6C20.8 13.736 17.064 12.8 15.2 12.8Z" fill="#808080"/>
</svg>
