<svg width="24" height="24" viewBox="0 0 24 24" fill="none" xmlns="http://www.w3.org/2000/svg">
<path fill-rule="evenodd" clip-rule="evenodd" d="M9.6 12C11.144 12 12.4 10.744 12.4 9.20002C12.4 7.65602 11.144 6.40002 9.6 6.40002C8.056 6.40002 6.8 7.65602 6.8 9.20002C6.8 10.744 8.056 12 9.6 12ZM9.6 8.00002C10.264 8.00002 10.8 8.53602 10.8 9.20002C10.8 9.86402 10.264 10.4 9.6 10.4C8.936 10.4 8.4 9.86402 8.4 9.20002C8.4 8.53602 8.936 8.00002 9.6 8.00002ZM9.6 13.4C7.728 13.4 4 14.336 4 16.2V16.8C4 17.24 4.36 17.6 4.8 17.6H14.4C14.84 17.6 15.2 17.24 15.2 16.8V16.2C15.2 14.336 11.472 13.4 9.6 13.4ZM5.872 16C6.544 15.536 8.168 15 9.6 15C11.032 15 12.656 15.536 13.328 16H5.872ZM15.232 13.448C16.16 14.12 16.8 15.016 16.8 16.2V17.6H19.2C19.64 17.6 20 17.24 20 16.8V16.2C20 14.584 17.2 13.664 15.232 13.448ZM14.4 12C15.944 12 17.2 10.744 17.2 9.20002C17.2 7.65602 15.944 6.40002 14.4 6.40002C13.968 6.40002 13.568 6.50402 13.2 6.68002C13.704 7.39202 14 8.26402 14 9.20002C14 10.136 13.704 11.008 13.2 11.72C13.568 11.896 13.968 12 14.4 12Z" fill="#808080"/>
</svg>
