<svg width="24" height="24" viewBox="0 0 24 24" fill="none" xmlns="http://www.w3.org/2000/svg">
<path fill-rule="evenodd" clip-rule="evenodd" d="M12.8 8.00001H11.2V9.60001H12.8V8.00001ZM12 11.2C11.56 11.2 11.2 11.56 11.2 12V15.2C11.2 15.64 11.56 16 12 16C12.44 16 12.8 15.64 12.8 15.2V12C12.8 11.56 12.44 11.2 12 11.2ZM16 3.20801L8.00002 3.20001C7.12002 3.20001 6.40002 3.92001 6.40002 4.80001V19.2C6.40002 20.08 7.12002 20.8 8.00002 20.8H16C16.88 20.8 17.6 20.08 17.6 19.2V4.80001C17.6 3.92001 16.88 3.20801 16 3.20801ZM16 17.6H8.00002V6.40001H16V17.6Z" fill="#808080"/>
</svg>
