<svg width="24" height="24" viewBox="0 0 24 24" fill="none" xmlns="http://www.w3.org/2000/svg">
<path fill-rule="evenodd" clip-rule="evenodd" d="M17.6 5.6H16.8V4.8C16.8 4.36 16.44 4 16 4C15.56 4 15.2 4.36 15.2 4.8V5.6H8.79999V4.8C8.79999 4.36 8.43999 4 7.99999 4C7.55999 4 7.19999 4.36 7.19999 4.8V5.6H6.39999C5.51199 5.6 4.79999 6.32 4.79999 7.2V18.4C4.79999 19.28 5.51999 20 6.39999 20H17.6C18.48 20 19.2 19.28 19.2 18.4V7.2C19.2 6.32 18.48 5.6 17.6 5.6ZM12 8C13.328 8 14.4 9.072 14.4 10.4C14.4 11.728 13.328 12.8 12 12.8C10.672 12.8 9.59999 11.728 9.59999 10.4C9.59999 9.072 10.672 8 12 8ZM16.8 17.6H7.19999V16.8C7.19999 15.2 10.4 14.32 12 14.32C13.6 14.32 16.8 15.2 16.8 16.8V17.6Z" fill="#808080"/>
</svg>
