<svg width="24" height="24" viewBox="0 0 24 24" fill="none" xmlns="http://www.w3.org/2000/svg">
<path fill-rule="evenodd" clip-rule="evenodd" d="M18.3789 4.79999H12.7789C12.3389 4.79999 11.9789 5.15999 11.9789 5.59999V12.8L14.3789 10.4H18.3789C18.8189 10.4 19.1789 10.04 19.1789 9.59999V5.59999C19.1789 5.15999 18.8189 4.79999 18.3789 4.79999ZM17.7629 14.608L15.7309 14.376C15.2429 14.32 14.7629 14.488 14.4189 14.832L12.9469 16.304C10.6829 15.152 8.82694 13.304 7.67494 11.032L9.15494 9.55199C9.49894 9.20799 9.66694 8.72799 9.61094 8.23999L9.37894 6.22399C9.28294 5.41599 8.60294 4.80799 7.78694 4.80799H6.40294C5.49894 4.80799 4.74694 5.55999 4.80294 6.46399C5.22694 13.296 10.6909 18.752 17.5149 19.176C18.4189 19.232 19.1709 18.48 19.1709 17.576V16.192C19.1789 15.384 18.5709 14.704 17.7629 14.608Z" fill="#808080"/>
</svg>
