<svg width="24" height="24" viewBox="0 0 24 24" fill="none" xmlns="http://www.w3.org/2000/svg">
<path fill-rule="evenodd" clip-rule="evenodd" d="M11.6429 4.79999C7.97087 4.79999 5.13087 6.02399 2.75487 7.67199C2.36287 7.93599 2.28287 8.47199 2.57887 8.83999L10.4029 18.472C11.0429 19.256 12.2429 19.264 12.8829 18.472L20.7069 8.85599C21.0029 8.48799 20.9229 7.95199 20.5309 7.68799C18.1549 6.03199 15.3149 4.79999 11.6429 4.79999ZM11.6429 15.2C11.2029 15.2 10.8429 14.84 10.8429 14.4V11.2C10.8429 10.76 11.2029 10.4 11.6429 10.4C12.0829 10.4 12.4429 10.76 12.4429 11.2V14.4C12.4429 14.84 12.0829 15.2 11.6429 15.2ZM10.8429 8.79999V7.19999H12.4429V8.79999H10.8429Z" fill="#808080"/>
</svg>
