<svg width="24" height="24" viewBox="0 0 24 24" fill="none" xmlns="http://www.w3.org/2000/svg">
<path fill-rule="evenodd" clip-rule="evenodd" d="M3.19999 7.2C2.75999 7.2 2.39999 7.56 2.39999 8V11.2H2.40799L2.39999 18.4C2.39999 19.28 3.11999 20 3.99999 20H17.6C18.04 20 18.4 19.64 18.4 19.2C18.4 18.76 18.04 18.4 17.6 18.4H4.79999C4.35999 18.4 3.99999 18.04 3.99999 17.6V8C3.99999 7.56 3.63999 7.2 3.19999 7.2ZM20 5.6H13.6L12.472 4.472C12.168 4.168 11.76 4 11.336 4H7.19999C6.31999 4 5.60799 4.72 5.60799 5.6L5.59999 15.2C5.59999 16.08 6.31999 16.8 7.19999 16.8H20C20.88 16.8 21.6 16.08 21.6 15.2V7.2C21.6 6.32 20.88 5.6 20 5.6ZM8.47999 13.76L11.288 10.016C11.448 9.808 11.76 9.8 11.928 10.008L14.408 13.2L16.088 11.176C16.248 10.976 16.552 10.984 16.712 11.184L18.704 13.744C18.912 14.008 18.72 14.392 18.392 14.392H8.79999C8.47199 14.4 8.27999 14.024 8.47999 13.76Z" fill="#808080"/>
</svg>
