<svg width="24" height="24" viewBox="0 0 24 24" fill="none" xmlns="http://www.w3.org/2000/svg">
<path fill-rule="evenodd" clip-rule="evenodd" d="M18.4 6.39999H15.864L14.872 5.31999C14.576 4.99199 14.144 4.79999 13.696 4.79999H10.304C9.856 4.79999 9.424 4.99199 9.12 5.31999L8.136 6.39999H5.6C4.72 6.39999 4 7.11999 4 7.99999V17.6C4 18.48 4.72 19.2 5.6 19.2H11.2V17.528C9.24 17.192 7.672 15.672 7.288 13.728C7.192 13.24 7.592 12.8 8.08 12.8C8.472 12.8 8.784 13.08 8.864 13.464C9.176 14.912 10.456 16 12 16C13.544 16 14.824 14.912 15.128 13.464C15.208 13.08 15.528 12.8 15.912 12.8C16.4 12.8 16.8 13.24 16.704 13.728C16.32 15.672 14.752 17.2 12.792 17.528V19.2H18.392C19.272 19.2 19.992 18.48 19.992 17.6V7.99999C20 7.11999 19.28 6.39999 18.4 6.39999ZM13.6 12.8C13.6 13.68 12.88 14.4 12 14.4C11.12 14.4 10.4 13.68 10.4 12.8V9.59999C10.4 8.71999 11.12 7.99999 12 7.99999C12.88 7.99999 13.6 8.71999 13.6 9.59999V12.8Z" fill="#808080"/>
</svg>
