<svg width="24" height="24" viewBox="0 0 24 24" fill="none" xmlns="http://www.w3.org/2000/svg">
<path fill-rule="evenodd" clip-rule="evenodd" d="M11.9999 4C8.9119 4 6.3999 6.512 6.3999 9.6C6.3999 12.936 9.9359 17.536 11.3919 19.288C11.7119 19.672 12.2959 19.672 12.6159 19.288C14.0639 17.536 17.5999 12.936 17.5999 9.6C17.5999 6.512 15.0879 4 11.9999 4ZM11.9999 5.6C12.8799 5.6 13.5999 6.32 13.5999 7.2C13.5999 8.088 12.8799 8.8 11.9999 8.8C11.1199 8.8 10.3999 8.088 10.3999 7.2C10.3999 6.32 11.1199 5.6 11.9999 5.6ZM11.9999 13.6C10.6639 13.6 9.4879 12.92 8.7999 11.88C8.8159 10.824 10.9359 10.24 11.9999 10.24C13.0639 10.24 15.1839 10.824 15.1999 11.88C14.5119 12.92 13.3359 13.6 11.9999 13.6Z" fill="#808080"/>
</svg>
