<svg width="24" height="24" viewBox="0 0 24 24" fill="none" xmlns="http://www.w3.org/2000/svg">
<path fill-rule="evenodd" clip-rule="evenodd" d="M14.4 12C16.168 12 17.6 10.568 17.6 8.79998C17.6 7.03198 16.168 5.59998 14.4 5.59998C12.632 5.59998 11.2 7.03198 11.2 8.79998C11.2 10.568 12.632 12 14.4 12ZM7.19995 10.4V8.79998C7.19995 8.35998 6.83995 7.99998 6.39995 7.99998C5.95995 7.99998 5.59995 8.35998 5.59995 8.79998V10.4H3.99995C3.55995 10.4 3.19995 10.76 3.19995 11.2C3.19995 11.64 3.55995 12 3.99995 12H5.59995V13.6C5.59995 14.04 5.95995 14.4 6.39995 14.4C6.83995 14.4 7.19995 14.04 7.19995 13.6V12H8.79995C9.23995 12 9.59995 11.64 9.59995 11.2C9.59995 10.76 9.23995 10.4 8.79995 10.4H7.19995ZM14.4 13.6C12.264 13.6 7.99995 14.672 7.99995 16.8V17.6C7.99995 18.04 8.35995 18.4 8.79995 18.4H20C20.44 18.4 20.8 18.04 20.8 17.6V16.8C20.8 14.672 16.536 13.6 14.4 13.6Z" fill="#808080"/>
</svg>
