<svg width="24" height="24" viewBox="0 0 24 24" fill="none" xmlns="http://www.w3.org/2000/svg">
<path fill-rule="evenodd" clip-rule="evenodd" d="M12.0001 7.11998C12.9281 7.11998 13.6801 7.87198 13.6801 8.79998C13.6801 9.72798 12.9281 10.48 12.0001 10.48C11.0721 10.48 10.3201 9.72798 10.3201 8.79998C10.3201 7.87198 11.0721 7.11998 12.0001 7.11998ZM12.0001 14.32C14.3761 14.32 16.8801 15.488 16.8801 16V16.88H7.1201V16C7.1201 15.488 9.6241 14.32 12.0001 14.32ZM12.0001 5.59998C10.2321 5.59998 8.8001 7.03198 8.8001 8.79998C8.8001 10.568 10.2321 12 12.0001 12C13.7681 12 15.2001 10.568 15.2001 8.79998C15.2001 7.03198 13.7681 5.59998 12.0001 5.59998ZM12.0001 12.8C9.8641 12.8 5.6001 13.872 5.6001 16V17.6C5.6001 18.04 5.9601 18.4 6.4001 18.4H17.6001C18.0401 18.4 18.4001 18.04 18.4001 17.6V16C18.4001 13.872 14.1361 12.8 12.0001 12.8Z" fill="#808080"/>
</svg>
