<svg width="24" height="24" viewBox="0 0 24 24" fill="none" xmlns="http://www.w3.org/2000/svg">
<path fill-rule="evenodd" clip-rule="evenodd" d="M14.45 11.0579C14.586 11.0739 14.722 11.0979 14.866 11.0979C16.634 11.0979 18.066 9.66594 18.066 7.89794C18.066 6.12994 16.634 4.69794 14.866 4.69794C13.098 4.69794 11.666 6.12994 11.666 7.89794C11.666 8.04194 11.69 8.17794 11.706 8.31394L14.45 11.0579ZM16.218 12.8259L20.81 17.4179C21.074 17.2819 21.266 17.0179 21.266 16.6979V15.8979C21.266 14.1859 18.418 13.0979 16.218 12.8259ZM4.56201 3.43394C4.41255 3.28414 4.20963 3.19995 3.99801 3.19995C3.7864 3.19995 3.58348 3.28414 3.43401 3.43394C3.12201 3.74594 3.12201 4.24994 3.43401 4.56194L6.06601 7.19394V9.49794H4.46601C4.02601 9.49794 3.66601 9.85794 3.66601 10.2979C3.66601 10.7379 4.02601 11.0979 4.46601 11.0979H6.06601V12.6979C6.06601 13.1379 6.42601 13.4979 6.86601 13.4979C7.30601 13.4979 7.66601 13.1379 7.66601 12.6979V11.0979H9.97001L11.978 13.1059C10.218 13.5859 8.46601 14.5379 8.46601 15.8979V16.6979C8.46601 17.1379 8.82601 17.4979 9.26601 17.4979H16.37L19.002 20.1299C19.314 20.4419 19.818 20.4419 20.13 20.1299C20.442 19.8179 20.442 19.3139 20.13 19.0019L4.56201 3.43394ZM7.66601 9.49794V8.79394L8.37001 9.49794H7.66601Z" fill="#808080"/>
</svg>
