<svg width="24" height="24" viewBox="0 0 24 24" fill="none" xmlns="http://www.w3.org/2000/svg">
<path fill-rule="evenodd" clip-rule="evenodd" d="M17.6 4H6.40005C5.51205 4 4.80005 4.72 4.80005 5.6V16.8C4.80005 17.68 5.52005 18.4 6.40005 18.4H9.60005L11.432 20.232C11.744 20.544 12.248 20.544 12.56 20.232L14.4 18.4H17.6C18.48 18.4 19.2 17.68 19.2 16.8V5.6C19.2 4.72 18.48 4 17.6 4ZM12 6.64C13.192 6.64 14.16 7.608 14.16 8.8C14.16 9.992 13.192 10.96 12 10.96C10.808 10.96 9.84005 9.992 9.84005 8.8C9.84005 7.608 10.808 6.64 12 6.64ZM16.8 15.2H7.20005V14.48C7.20005 12.88 10.4 12 12 12C13.6 12 16.8 12.88 16.8 14.48V15.2Z" fill="#808080"/>
</svg>
