<svg width="24" height="24" viewBox="0 0 24 24" fill="none" xmlns="http://www.w3.org/2000/svg">
<path fill-rule="evenodd" clip-rule="evenodd" d="M6 7.2C4.89543 7.2 4 8.09543 4 9.2C4 10.3046 4.89543 11.2 6 11.2C7.10457 11.2 8 10.3046 8 9.2C8 8.09543 7.10457 7.2 6 7.2ZM9.6 4C8.49543 4 7.6 4.89543 7.6 6C7.6 7.10457 8.49543 8 9.6 8C10.7046 8 11.6 7.10457 11.6 6C11.6 4.89543 10.7046 4 9.6 4ZM14.4 4C13.2954 4 12.4 4.89543 12.4 6C12.4 7.10457 13.2954 8 14.4 8C15.5046 8 16.4 7.10457 16.4 6C16.4 4.89543 15.5046 4 14.4 4ZM18 7.2C16.8954 7.2 16 8.09543 16 9.2C16 10.3046 16.8954 11.2 18 11.2C19.1046 11.2 20 10.3046 20 9.2C20 8.09543 19.1046 7.2 18 7.2ZM16.272 13.488C15.576 12.672 14.992 11.976 14.288 11.16C13.92 10.728 13.448 10.296 12.888 10.104C12.8 10.072 12.712 10.048 12.624 10.032C12.424 10 12.208 10 12 10C11.792 10 11.576 10 11.368 10.04C11.28 10.056 11.192 10.08 11.104 10.112C10.544 10.304 10.08 10.736 9.704 11.168C9.008 11.984 8.424 12.68 7.72 13.496C6.672 14.544 5.384 15.704 5.624 17.328C5.856 18.144 6.44 18.952 7.488 19.184C8.072 19.304 9.936 18.832 11.92 18.832H12.064C14.048 18.832 15.912 19.296 16.496 19.184C17.544 18.952 18.128 18.136 18.36 17.328C18.608 15.696 17.32 14.536 16.272 13.488Z" fill="#808080"/>
</svg>
