<svg width="24" height="24" viewBox="0 0 24 24" fill="none" xmlns="http://www.w3.org/2000/svg">
<path fill-rule="evenodd" clip-rule="evenodd" d="M17.763 14.618L15.731 14.386C15.243 14.33 14.763 14.498 14.419 14.842L12.947 16.314C10.683 15.162 8.82699 13.314 7.67499 11.042L9.15499 9.56199C9.49899 9.21799 9.66699 8.73799 9.61099 8.24999L9.37899 6.23399C9.28299 5.42599 8.60299 4.81799 7.78699 4.81799H6.40299C5.49899 4.81799 4.74699 5.56999 4.80299 6.47399C5.22699 13.306 10.691 18.762 17.515 19.186C18.419 19.242 19.171 18.49 19.171 17.586V16.202C19.179 15.394 18.571 14.714 17.763 14.618ZM12.779 11.21H15.979C16.419 11.21 16.779 10.85 16.779 10.41C16.779 9.96999 16.419 9.60999 15.979 9.60999H14.707L18.155 6.16199C18.467 5.84999 18.467 5.34599 18.155 5.03399C17.843 4.72199 17.339 4.72199 17.027 5.03399L13.579 8.48199V7.20999C13.579 6.76999 13.219 6.40999 12.779 6.40999C12.339 6.40999 11.979 6.76999 11.979 7.20999V10.41C11.979 10.85 12.339 11.21 12.779 11.21Z" fill="#808080"/>
</svg>
