<svg width="24" height="24" viewBox="0 0 24 24" fill="none" xmlns="http://www.w3.org/2000/svg">
<path fill-rule="evenodd" clip-rule="evenodd" d="M15.6 3.20001H9.19995C8.09595 3.20001 7.19995 4.09601 7.19995 5.20001V18.8C7.19995 19.904 8.09595 20.8 9.19995 20.8H15.6C16.704 20.8 17.6 19.904 17.6 18.8V5.20001C17.6 4.09601 16.704 3.20001 15.6 3.20001ZM12.4 20C11.736 20 11.2 19.464 11.2 18.8C11.2 18.136 11.736 17.6 12.4 17.6C13.064 17.6 13.6 18.136 13.6 18.8C13.6 19.464 13.064 20 12.4 20ZM16 16.8H8.79995V5.60001H16V16.8Z" fill="#808080"/>
</svg>
