<svg width="24" height="24" viewBox="0 0 24 24" fill="none" xmlns="http://www.w3.org/2000/svg">
<path fill-rule="evenodd" clip-rule="evenodd" d="M17.6 3.19995H9.59998C8.71998 3.19995 7.99998 3.91995 7.99998 4.79995V6.39995C7.99998 6.83995 8.35998 7.19995 8.79998 7.19995C9.23998 7.19995 9.59998 6.83995 9.59998 6.39995V5.59995H17.6V18.4H9.59998V17.6C9.59998 17.16 9.23998 16.8 8.79998 16.8C8.35998 16.8 7.99998 17.16 7.99998 17.6V19.2C7.99998 20.08 8.71998 20.8 9.59998 20.8H17.6C18.48 20.8 19.2 20.08 19.2 19.2V4.79995C19.2 3.91995 18.48 3.19995 17.6 3.19995ZM11.04 11.2V9.99995C11.04 8.87995 9.91998 7.99995 8.79998 7.99995C7.67998 7.99995 6.55998 8.87995 6.55998 9.99995V11.2C6.07998 11.2 5.59998 11.68 5.59998 12.16V14.96C5.59998 15.52 6.07998 16 6.55998 16H10.96C11.52 16 12 15.52 12 15.04V12.24C12 11.68 11.52 11.2 11.04 11.2ZM9.99998 11.2H7.59998V9.99995C7.59998 9.35995 8.15998 8.95995 8.79998 8.95995C9.43998 8.95995 9.99998 9.35995 9.99998 9.99995V11.2Z" fill="#808080"/>
</svg>
