<svg width="24" height="24" viewBox="0 0 24 24" fill="none" xmlns="http://www.w3.org/2000/svg">
<path fill-rule="evenodd" clip-rule="evenodd" d="M15.179 4.79999C14.739 4.79999 14.379 5.15999 14.379 5.59999V9.59999C14.379 10.04 14.739 10.4 15.179 10.4C15.619 10.4 15.979 10.04 15.979 9.59999V5.59999C15.979 5.15999 15.619 4.79999 15.179 4.79999ZM17.579 5.59999V9.59999C17.579 10.04 17.939 10.4 18.379 10.4C18.819 10.4 19.179 10.04 19.179 9.59999V5.59999C19.179 5.15999 18.819 4.79999 18.379 4.79999C17.939 4.79999 17.579 5.15999 17.579 5.59999ZM17.763 14.608L15.731 14.376C15.243 14.32 14.763 14.488 14.419 14.832L12.947 16.304C10.683 15.152 8.82699 13.304 7.67499 11.032L9.15499 9.55199C9.49899 9.20799 9.66699 8.72799 9.61099 8.23999L9.37899 6.22399C9.28299 5.41599 8.60299 4.80799 7.78699 4.80799H6.40299C5.49899 4.80799 4.74699 5.55999 4.80299 6.46399C5.22699 13.296 10.691 18.752 17.515 19.176C18.419 19.232 19.171 18.48 19.171 17.576V16.192C19.179 15.384 18.571 14.704 17.763 14.608Z" fill="#808080"/>
</svg>
