<svg width="24" height="24" viewBox="0 0 24 24" fill="none" xmlns="http://www.w3.org/2000/svg">
<path fill-rule="evenodd" clip-rule="evenodd" d="M17.763 15.408L15.731 15.176C15.243 15.12 14.763 15.288 14.419 15.632L12.947 17.104C10.683 15.952 8.82699 14.104 7.67499 11.832L9.15499 10.352C9.49899 10.008 9.66699 9.528 9.61099 9.04L9.37899 7.024C9.28299 6.216 8.60299 5.608 7.78699 5.608H6.40299C5.49899 5.608 4.74699 6.36 4.80299 7.264C5.22699 14.096 10.691 19.552 17.515 19.976C18.419 20.032 19.171 19.28 19.171 18.376V16.992C19.179 16.184 18.571 15.504 17.763 15.408ZM18.379 6.4V6C18.379 4.896 17.483 4 16.379 4C15.275 4 14.379 4.896 14.379 6V6.4C13.939 6.4 13.579 6.76 13.579 7.2V10.4C13.579 10.84 13.939 11.2 14.379 11.2H18.379C18.819 11.2 19.179 10.84 19.179 10.4V7.2C19.179 6.76 18.819 6.4 18.379 6.4ZM17.579 6.4H15.179V6C15.179 5.336 15.715 4.8 16.379 4.8C17.043 4.8 17.579 5.336 17.579 6V6.4Z" fill="#808080"/>
</svg>
