<svg width="24" height="24" viewBox="0 0 24 24" fill="none" xmlns="http://www.w3.org/2000/svg">
<path fill-rule="evenodd" clip-rule="evenodd" d="M12.168 8.55995C11.944 8.33595 11.592 8.33595 11.368 8.55995L8.56799 11.36L5.76799 8.55995C5.54399 8.33595 5.19199 8.33595 4.96799 8.55995C4.74399 8.78395 4.74399 9.13595 4.96799 9.35995L7.76799 12.16L4.96799 14.96C4.74399 15.184 4.74399 15.536 4.96799 15.76C5.19199 15.984 5.54399 15.984 5.76799 15.76L8.56799 12.96L11.368 15.76C11.592 15.984 11.944 15.984 12.168 15.76C12.392 15.536 12.392 15.184 12.168 14.96L9.36799 12.16L12.168 9.35995C12.392 9.13595 12.392 8.78395 12.168 8.55995ZM17.368 3.19995H9.36799C8.48799 3.19995 7.76799 3.91995 7.76799 4.79995V6.39995C7.76799 6.83995 8.12799 7.19995 8.56799 7.19995C9.00799 7.19995 9.36799 6.83995 9.36799 6.39995V5.59995H17.368V18.4H9.36799V17.6C9.36799 17.16 9.00799 16.8 8.56799 16.8C8.12799 16.8 7.76799 17.16 7.76799 17.6V19.2C7.76799 20.08 8.48799 20.8 9.36799 20.8H17.368C18.248 20.8 18.968 20.08 18.968 19.2V4.79995C18.968 3.91995 18.248 3.19995 17.368 3.19995Z" fill="#808080"/>
</svg>
