<svg width="24" height="24" viewBox="0 0 24 24" fill="none" xmlns="http://www.w3.org/2000/svg">
<path fill-rule="evenodd" clip-rule="evenodd" d="M5.5999 7.99998C5.5999 7.55998 5.9599 7.19998 6.3999 7.19998H19.1999C19.6399 7.19998 19.9999 6.83998 19.9999 6.39998C19.9999 5.95998 19.6399 5.59998 19.1999 5.59998H5.5999C4.7199 5.59998 3.9999 6.31998 3.9999 7.19998V16H3.5999C2.9359 16 2.3999 16.536 2.3999 17.2C2.3999 17.864 2.9359 18.4 3.5999 18.4H12.3999C13.0639 18.4 13.5999 17.864 13.5999 17.2C13.5999 16.536 13.0639 16 12.3999 16H5.5999V7.99998ZM20.7999 8.79998H15.9999C15.5599 8.79998 15.1999 9.15998 15.1999 9.59998V17.6C15.1999 18.04 15.5599 18.4 15.9999 18.4H20.7999C21.2399 18.4 21.5999 18.04 21.5999 17.6V9.59998C21.5999 9.15998 21.2399 8.79998 20.7999 8.79998ZM19.9999 16H16.7999V10.4H19.9999V16Z" fill="#808080"/>
</svg>
