<svg width="24" height="24" viewBox="0 0 24 24" fill="none" xmlns="http://www.w3.org/2000/svg">
<path fill-rule="evenodd" clip-rule="evenodd" d="M21.5999 17.666V9.66599C21.5999 9.22599 21.2399 8.86599 20.7999 8.86599H15.9999C15.5599 8.86599 15.1999 9.22599 15.1999 9.66599V12.554L16.7999 14.154V10.466H19.9999V16.066H18.7119L21.0559 18.41C21.3679 18.306 21.5999 18.018 21.5999 17.666ZM19.1999 7.26599C19.6399 7.26599 19.9999 6.90599 19.9999 6.46599C19.9999 6.02599 19.6399 5.66599 19.1999 5.66599H8.3119L9.9119 7.26599H19.1999ZM3.4879 4.23399C3.1759 4.54599 3.1759 5.04999 3.4879 5.36199L4.3759 6.24999C4.1439 6.52999 3.9999 6.88199 3.9999 7.26599V16.066H3.5999C2.9359 16.066 2.3999 16.602 2.3999 17.266C2.3999 17.93 2.9359 18.466 3.5999 18.466H16.5839L17.8959 19.778C18.2079 20.09 18.7119 20.09 19.0239 19.778C19.3359 19.466 19.3359 18.962 19.0239 18.65L4.6159 4.23399C4.46644 4.08419 4.26352 4 4.0519 4C3.84029 4 3.63737 4.08419 3.4879 4.23399ZM5.5999 16.066V7.48199L14.1839 16.066H5.5999Z" fill="#808080"/>
</svg>
