<svg width="24" height="24" viewBox="0 0 24 24" fill="none" xmlns="http://www.w3.org/2000/svg">
<path fill-rule="evenodd" clip-rule="evenodd" d="M12.683 6.43199C15.227 6.75199 17.219 8.74399 17.539 11.288C17.587 11.696 17.931 11.992 18.331 11.992C18.363 11.992 18.395 11.992 18.427 11.984C18.867 11.928 19.179 11.528 19.123 11.088C18.715 7.81599 16.147 5.24799 12.875 4.83999C12.435 4.79199 12.035 5.10399 11.987 5.54399C11.931 5.98399 12.243 6.38399 12.683 6.43199ZM12.987 8.11999C12.563 8.00799 12.123 8.26399 12.011 8.69599C11.899 9.12799 12.155 9.55999 12.587 9.67199C13.427 9.88799 14.083 10.544 14.307 11.392C14.403 11.752 14.723 11.992 15.083 11.992C15.147 11.992 15.219 11.984 15.283 11.968C15.707 11.856 15.963 11.416 15.859 10.992C15.483 9.57599 14.387 8.47999 12.987 8.11999ZM17.763 14.6L15.731 14.368C15.243 14.312 14.763 14.48 14.419 14.824L12.947 16.296C10.683 15.144 8.82699 13.296 7.67499 11.024L9.15499 9.54399C9.49899 9.19999 9.66699 8.71999 9.61099 8.23199L9.37899 6.21599C9.28299 5.40799 8.60299 4.79999 7.78699 4.79999H6.40299C5.49899 4.79999 4.74699 5.55199 4.80299 6.45599C5.22699 13.288 10.691 18.744 17.515 19.168C18.419 19.224 19.171 18.472 19.171 17.568V16.184C19.179 15.376 18.571 14.696 17.763 14.6Z" fill="#808080"/>
</svg>
