<svg width="24" height="24" viewBox="0 0 24 24" fill="none" xmlns="http://www.w3.org/2000/svg">
<path fill-rule="evenodd" clip-rule="evenodd" d="M15.2 3.20001H8.80002C7.47202 3.20001 6.40002 4.27201 6.40002 5.60001V18.4C6.40002 19.728 7.47202 20.8 8.80002 20.8H15.2C16.528 20.8 17.6 19.728 17.6 18.4V5.60001C17.6 4.27201 16.528 3.20001 15.2 3.20001ZM13.2 19.2H10.8C10.576 19.2 10.4 19.024 10.4 18.8C10.4 18.576 10.576 18.4 10.8 18.4H13.2C13.424 18.4 13.6 18.576 13.6 18.8C13.6 19.024 13.424 19.2 13.2 19.2ZM16 16.8H8.00002V5.60001H16V16.8Z" fill="#808080"/>
</svg>
