<svg width="24" height="24" viewBox="0 0 24 24" fill="none" xmlns="http://www.w3.org/2000/svg">
<path fill-rule="evenodd" clip-rule="evenodd" d="M7.85192 4.79995V6.39995C7.85192 6.83995 8.21192 7.19995 8.65192 7.19995C9.09192 7.19995 9.45192 6.83995 9.45192 6.39995V5.59995H17.4519V18.4H9.45192V17.6C9.45192 17.16 9.09192 16.8 8.65192 16.8C8.21192 16.8 7.85192 17.16 7.85192 17.6V19.2C7.85192 20.08 8.57192 20.8 9.45192 20.8H17.4519C18.3319 20.8 19.0519 20.08 19.0519 19.2V4.79995C19.0519 3.91995 18.3319 3.19995 17.4519 3.19995H9.45192C8.57192 3.19995 7.85192 3.91995 7.85192 4.79995ZM9.85192 14.8C10.0839 14.704 10.2919 14.568 10.4919 14.416L10.4759 14.44L11.2839 14.752C11.4679 14.824 11.6759 14.752 11.7719 14.576L12.4439 13.408C12.5399 13.24 12.4999 13.016 12.3479 12.896L11.6679 12.352L11.6519 12.376C11.6679 12.248 11.6919 12.12 11.6919 11.992C11.6919 11.864 11.6679 11.736 11.6519 11.608L11.6679 11.632L12.3479 11.088C12.4999 10.968 12.5399 10.744 12.4439 10.576L11.7719 9.40795C11.6759 9.23995 11.4679 9.15995 11.2839 9.23195L10.4759 9.54395L10.4919 9.56795C10.2919 9.43195 10.0839 9.29595 9.85192 9.19995L9.71592 8.33595C9.69192 8.14395 9.52392 7.99995 9.32392 7.99995H7.97992C7.77992 7.99995 7.61192 8.14395 7.58792 8.33595L7.45192 9.19995C7.21992 9.29595 7.01192 9.43195 6.81192 9.58395L6.82792 9.55995L6.01192 9.24795C5.82792 9.17595 5.61992 9.24795 5.52392 9.42395L4.85192 10.592C4.75592 10.76 4.79592 10.984 4.94792 11.104L5.62792 11.648L5.64392 11.624C5.62792 11.744 5.60392 11.872 5.60392 12C5.60392 12.128 5.62792 12.256 5.64392 12.384L5.62792 12.36L4.94792 12.904C4.79592 13.024 4.75592 13.248 4.85192 13.416L5.52392 14.584C5.61992 14.752 5.82792 14.832 6.01192 14.76L6.81992 14.448L6.81192 14.416C7.01192 14.568 7.21992 14.704 7.45192 14.8L7.58792 15.656C7.61192 15.856 7.77992 16 7.97992 16H9.32392C9.52392 16 9.69192 15.856 9.71592 15.664L9.85192 14.8ZM7.05192 12C7.05192 11.12 7.77192 10.4 8.65192 10.4C9.53192 10.4 10.2519 11.12 10.2519 12C10.2519 12.88 9.53192 13.6 8.65192 13.6C7.77192 13.6 7.05192 12.88 7.05192 12Z" fill="#808080"/>
</svg>
