<svg width="24" height="24" viewBox="0 0 24 24" fill="none" xmlns="http://www.w3.org/2000/svg">
<path fill-rule="evenodd" clip-rule="evenodd" d="M17.763 15.2945L15.731 15.0625C15.243 15.0065 14.763 15.1745 14.419 15.5185L12.947 16.9905C10.683 15.8385 8.82699 13.9905 7.67499 11.7185L9.15499 10.2385C9.49899 9.89454 9.66699 9.41454 9.61099 8.92654L9.37899 6.91054C9.28299 6.10254 8.60299 5.49454 7.78699 5.49454H6.40299C5.49899 5.49454 4.74699 6.24654 4.80299 7.15054C5.22699 13.9825 10.691 19.4385 17.515 19.8625C18.419 19.9185 19.171 19.1665 19.171 18.2625V16.8785C19.179 16.0705 18.571 15.3905 17.763 15.2945ZM15.811 7.89454L13.851 9.85454C13.691 10.0145 13.691 10.2705 13.851 10.4225C14.011 10.5825 14.267 10.5825 14.419 10.4225L15.979 8.87054V11.3905C15.979 11.5505 16.075 11.7025 16.227 11.7665C16.275 11.7905 16.331 11.7985 16.379 11.7985C16.483 11.7985 16.587 11.7585 16.667 11.6785L18.411 9.93454C18.571 9.77454 18.571 9.51854 18.411 9.36654L16.947 7.90254L18.411 6.43854C18.483 6.36654 18.531 6.26254 18.531 6.15054C18.531 6.03854 18.491 5.94254 18.411 5.86254L16.667 4.11854C16.555 4.00654 16.379 3.96654 16.227 4.03054C16.075 4.09454 15.979 4.23854 15.979 4.39854V6.91854L14.419 5.35854C14.259 5.19854 14.003 5.19854 13.851 5.35854C13.691 5.51854 13.691 5.77454 13.851 5.92654L15.811 7.89454ZM16.787 5.37454L17.555 6.14254L16.787 6.91054V5.37454ZM16.787 8.87054L17.555 9.63854L16.787 10.4065V8.87054Z" fill="#808080"/>
</svg>
