<svg width="24" height="24" viewBox="0 0 24 24" fill="none" xmlns="http://www.w3.org/2000/svg">
<path fill-rule="evenodd" clip-rule="evenodd" d="M19.6989 7.15323L16.6669 4.12123C16.4109 3.86523 15.9789 4.04123 15.9789 4.40123V5.83323H13.1789C12.9549 5.83323 12.7789 6.00923 12.7789 6.23323V8.63323C12.7789 8.85723 12.9549 9.03323 13.1789 9.03323H15.9789V10.4652C15.9789 10.8252 16.4109 11.0012 16.6589 10.7452L19.6909 7.71323C19.8509 7.56123 19.8509 7.30523 19.6989 7.15323ZM16.9629 14.8412L14.9309 14.6092C14.4429 14.5532 13.9629 14.7212 13.6189 15.0652L12.1469 16.5372C9.88294 15.3852 8.02694 13.5372 6.87494 11.2652L8.35494 9.78523C8.69894 9.44123 8.86694 8.96123 8.81094 8.47323L8.57894 6.45723C8.48294 5.64923 7.80294 5.04123 6.98694 5.04123H5.60294C4.69894 5.04123 3.94694 5.79323 4.00294 6.69723C4.42694 13.5292 9.89094 18.9852 16.7149 19.4092C17.6189 19.4652 18.3709 18.7132 18.3709 17.8092V16.4252C18.3789 15.6172 17.7709 14.9372 16.9629 14.8412Z" fill="#808080"/>
</svg>
