<svg width="24" height="24" viewBox="0 0 24 24" fill="none" xmlns="http://www.w3.org/2000/svg">
<path fill-rule="evenodd" clip-rule="evenodd" d="M13.6 3H5.6C4.72 3 4 3.72 4 4.6V19C4 19.88 4.72 20.6 5.6 20.6H13.6C14.48 20.6 15.2 19.88 15.2 19V4.6C15.2 3.72 14.48 3 13.6 3ZM13.6 18.2H5.6V5.4H13.6V18.2ZM18.904 8.808C18.696 8.552 18.312 8.52 18.072 8.76L18.048 8.784C17.848 8.984 17.84 9.304 18.008 9.528C19.016 10.84 19.008 12.624 17.992 13.984C17.824 14.208 17.84 14.52 18.032 14.72L18.072 14.76C18.304 14.992 18.68 14.968 18.896 14.72C20.336 13.016 20.336 10.568 18.904 8.808ZM16.336 10.496L16.288 10.544C16.128 10.704 16.08 10.944 16.168 11.152C16.336 11.544 16.336 11.976 16.168 12.368C16.08 12.576 16.128 12.816 16.288 12.976L16.352 13.04C16.608 13.296 17.048 13.24 17.224 12.92C17.616 12.208 17.616 11.368 17.216 10.632C17.1357 10.4751 16.9849 10.3662 16.8107 10.3393C16.6365 10.3124 16.46 10.3707 16.336 10.496Z" fill="#808080"/>
</svg>
