<svg width="24" height="24" viewBox="0 0 24 24" fill="none" xmlns="http://www.w3.org/2000/svg">
<path fill-rule="evenodd" clip-rule="evenodd" d="M20.653 15.36C15.589 10.888 7.96502 10.888 2.90902 15.36C2.23702 15.952 2.23702 17 2.86902 17.632L3.82902 18.592C4.39702 19.16 5.30102 19.208 5.92502 18.712L7.50102 17.456C7.87702 17.16 8.10102 16.704 8.10102 16.216V14.16C10.485 13.384 13.069 13.376 15.461 14.16V16.224C15.461 16.704 15.685 17.16 16.061 17.464L17.629 18.712C18.261 19.208 19.157 19.16 19.725 18.592L20.685 17.632C21.325 17 21.317 15.952 20.653 15.36ZM6.98102 9.59999C7.42102 9.59999 7.78102 9.23999 7.78102 8.79999V7.54399L11.173 10.936C11.485 11.248 11.989 11.248 12.301 10.936L16.829 6.40799C17.141 6.09599 17.141 5.59199 16.829 5.27999C16.6796 5.13019 16.4766 5.046 16.265 5.046C16.0534 5.046 15.8505 5.13019 15.701 5.27999L11.741 9.23999L8.90102 6.39999H10.181C10.621 6.39999 10.981 6.03999 10.981 5.59999C10.981 5.15999 10.621 4.79999 10.181 4.79999H6.98102C6.54102 4.79999 6.18102 5.15999 6.18102 5.59999V8.79999C6.18102 9.23999 6.54102 9.59999 6.98102 9.59999Z" fill="#808080"/>
</svg>
