<svg width="24" height="24" viewBox="0 0 24 24" fill="none" xmlns="http://www.w3.org/2000/svg">
<path fill-rule="evenodd" clip-rule="evenodd" d="M20.8 14.4H19.2V16H20.8V14.4ZM20.8 11.2H19.2V12.8H20.8V11.2ZM20.8 17.6H19.2V19.2C20 19.2 20.8 18.4 20.8 17.6ZM14.4 4.79999H12.8V6.39999H14.4V4.79999ZM20.8 7.99999H19.2V9.59999H20.8V7.99999ZM19.2 4.79999V6.39999H20.8C20.8 5.59999 20 4.79999 19.2 4.79999ZM4.79995 19.2H11.2V16C11.2 15.12 10.48 14.4 9.59995 14.4H3.19995V17.6C3.19995 18.48 3.91995 19.2 4.79995 19.2ZM4.79995 7.99999H3.19995V9.59999H4.79995V7.99999ZM14.4 17.6H12.8V19.2H14.4V17.6ZM17.6 4.79999H16V6.39999H17.6V4.79999ZM17.6 17.6H16V19.2H17.6V17.6ZM4.79995 4.79999C3.99995 4.79999 3.19995 5.59999 3.19995 6.39999H4.79995V4.79999ZM4.79995 11.2H3.19995V12.8H4.79995V11.2ZM11.2 4.79999H9.59995V6.39999H11.2V4.79999ZM7.99995 4.79999H6.39995V6.39999H7.99995V4.79999Z" fill="#808080"/>
</svg>
