<svg width="24" height="24" viewBox="0 0 24 24" fill="none" xmlns="http://www.w3.org/2000/svg">
<path fill-rule="evenodd" clip-rule="evenodd" d="M19.2 4.79999H4.79995C3.99995 4.79999 3.19995 5.59999 3.19995 6.39999V17.6C3.19995 18.48 3.91995 19.2 4.79995 19.2H19.2C20 19.2 20.8 18.4 20.8 17.6V6.39999C20.8 5.59999 20 4.79999 19.2 4.79999ZM6.90395 15.352L8.89595 12.792C9.05595 12.592 9.35995 12.584 9.51995 12.784L11.2 14.808L13.68 11.616C13.84 11.408 14.16 11.408 14.32 11.624L17.128 15.368C17.328 15.632 17.136 16.008 16.808 16.008H7.21595C6.88795 16 6.69595 15.616 6.90395 15.352Z" fill="#808080"/>
</svg>
