<svg width="24" height="24" viewBox="0 0 24 24" fill="none" xmlns="http://www.w3.org/2000/svg">
<path fill-rule="evenodd" clip-rule="evenodd" d="M12 10.4C10.6745 10.4 9.6 11.4745 9.6 12.8C9.6 14.1255 10.6745 15.2 12 15.2C13.3255 15.2 14.4 14.1255 14.4 12.8C14.4 11.4745 13.3255 10.4 12 10.4ZM18.4 6.39999H15.864L14.872 5.31999C14.576 4.99199 14.144 4.79999 13.696 4.79999H10.304C9.856 4.79999 9.424 4.99199 9.12 5.31999L8.136 6.39999H5.6C4.72 6.39999 4 7.11999 4 7.99999V17.6C4 18.48 4.72 19.2 5.6 19.2H18.4C19.28 19.2 20 18.48 20 17.6V7.99999C20 7.11999 19.28 6.39999 18.4 6.39999ZM12 16.8C9.792 16.8 8 15.008 8 12.8C8 10.592 9.792 8.79999 12 8.79999C14.208 8.79999 16 10.592 16 12.8C16 15.008 14.208 16.8 12 16.8Z" fill="#808080"/>
</svg>
