<svg width="24" height="24" viewBox="0 0 24 24" fill="none" xmlns="http://www.w3.org/2000/svg">
<path fill-rule="evenodd" clip-rule="evenodd" d="M16.8001 4H7.2001C6.3201 4 5.6001 4.72 5.6001 5.6V18.4C5.6001 19.28 6.3201 20 7.2001 20H16.8001C17.6801 20 18.4001 19.28 18.4001 18.4V5.6C18.4001 4.72 17.6801 4 16.8001 4ZM7.2001 5.6H11.2001V12L9.2001 10.8L7.2001 12V5.6ZM7.7041 16.952L9.2961 14.904C9.4561 14.704 9.7601 14.696 9.9201 14.896L11.3121 16.576L13.3921 13.904C13.5521 13.696 13.8721 13.696 14.0241 13.912L16.3201 16.968C16.5201 17.232 16.3281 17.608 16.0001 17.608H8.0161C7.6881 17.6 7.4961 17.216 7.7041 16.952Z" fill="#808080"/>
</svg>
