<svg width="24" height="24" viewBox="0 0 24 24" fill="none" xmlns="http://www.w3.org/2000/svg">
<path fill-rule="evenodd" clip-rule="evenodd" d="M19.2 14.4H20.8V16H19.2V14.4ZM19.2 11.2H20.8V12.8H19.2V11.2ZM20.8 17.6H19.2V19.2C20 19.2 20.8 18.4 20.8 17.6ZM12.8 4.79999H14.4V6.39999H12.8V4.79999ZM19.2 7.99999H20.8V9.59999H19.2V7.99999ZM19.2 4.79999V6.39999H20.8C20.8 5.59999 20 4.79999 19.2 4.79999ZM3.19995 7.99999H4.79995V9.59999H3.19995V7.99999ZM16 4.79999H17.6V6.39999H16V4.79999ZM16 17.6H17.6V19.2H16V17.6ZM4.79995 4.79999C3.99995 4.79999 3.19995 5.59999 3.19995 6.39999H4.79995V4.79999ZM9.59995 4.79999H11.2V6.39999H9.59995V4.79999ZM6.39995 4.79999H7.99995V6.39999H6.39995V4.79999ZM3.19995 11.2V17.6C3.19995 18.48 3.91995 19.2 4.79995 19.2H14.4V12.8C14.4 11.92 13.68 11.2 12.8 11.2H3.19995ZM5.30395 16.952L6.49595 15.424C6.65595 15.224 6.95195 15.216 7.11995 15.416L8.23195 16.752L9.91195 14.592C10.072 14.384 10.392 14.384 10.544 14.6L12.32 16.968C12.52 17.232 12.328 17.608 12 17.608H5.61595C5.28795 17.6 5.09595 17.216 5.30395 16.952Z" fill="#808080"/>
</svg>
