<svg width="24" height="24" viewBox="0 0 24 24" fill="none" xmlns="http://www.w3.org/2000/svg">
<path fill-rule="evenodd" clip-rule="evenodd" d="M17.6 11.192V16.8C17.6 17.24 17.24 17.6 16.8 17.6H7.18405C6.74405 17.6 6.38405 17.24 6.38405 16.8V7.19999C6.38405 6.75999 6.74405 6.39999 7.18405 6.39999H12.784C13.224 6.39999 13.584 6.03999 13.584 5.59999C13.584 5.15999 13.224 4.79999 12.784 4.79999H6.40005C5.52005 4.79999 4.80005 5.51999 4.80005 6.39999V17.6C4.80005 18.48 5.52005 19.2 6.40005 19.2H17.584C18.464 19.2 19.184 18.488 19.184 17.6V11.192C19.184 10.752 18.832 10.4 18.392 10.4C17.952 10.4 17.6 10.752 17.6 11.192ZM12.984 11L12.352 9.59999C12.208 9.28799 11.768 9.28799 11.624 9.59999L10.992 11L9.58405 11.632C9.27205 11.776 9.27205 12.216 9.58405 12.36L10.984 12.992L11.616 14.4C11.76 14.712 12.2 14.712 12.344 14.4L12.976 13L14.384 12.368C14.696 12.224 14.696 11.784 14.384 11.64L12.984 11ZM16.736 7.24799L16.256 6.19199C16.152 5.95999 15.816 5.95999 15.704 6.19199L15.224 7.24799L14.168 7.72799C13.936 7.83199 13.936 8.16799 14.168 8.27999L15.224 8.75999L15.704 9.81599C15.808 10.048 16.144 10.048 16.256 9.81599L16.736 8.75999L17.792 8.27999C18.024 8.17599 18.024 7.83999 17.792 7.72799L16.736 7.24799Z" fill="#808080"/>
</svg>
