<svg width="24" height="24" viewBox="0 0 24 24" fill="none" xmlns="http://www.w3.org/2000/svg">
<path fill-rule="evenodd" clip-rule="evenodd" d="M19.2 17.6V6.39999C19.2 5.51999 18.48 4.79999 17.6 4.79999H6.40005C5.52005 4.79999 4.80005 5.51999 4.80005 6.39999V17.6C4.80005 18.48 5.52005 19.2 6.40005 19.2H17.6C18.48 19.2 19.2 18.48 19.2 17.6ZM9.52005 13.584L11.2 15.608L13.68 12.416C13.84 12.208 14.16 12.208 14.32 12.424L17.128 16.168C17.328 16.432 17.136 16.808 16.808 16.808H7.21605C6.88005 16.808 6.69605 16.424 6.90405 16.16L8.89605 13.6C9.04805 13.392 9.35205 13.384 9.52005 13.584Z" fill="#808080"/>
</svg>
