<svg width="24" height="24" viewBox="0 0 24 24" fill="none" xmlns="http://www.w3.org/2000/svg">
<path fill-rule="evenodd" clip-rule="evenodd" d="M18.4 4H8.8C7.92 4 7.2 4.72 7.2 5.6V15.2C7.2 16.08 7.92 16.8 8.8 16.8H18.4C19.28 16.8 20 16.08 20 15.2V5.6C20 4.72 19.28 4 18.4 4ZM11.6 10C11.6 10.664 11.064 11.2 10.4 11.2H9.6V12.2C9.6 12.528 9.328 12.8 9 12.8C8.672 12.8 8.4 12.528 8.4 12.2V8.8C8.4 8.36 8.76 8 9.2 8H10.4C11.064 8 11.6 8.536 11.6 9.2V10ZM15.6 11.6C15.6 12.264 15.064 12.8 14.4 12.8H12.8C12.576 12.8 12.4 12.624 12.4 12.4V8.4C12.4 8.176 12.576 8 12.8 8H14.4C15.064 8 15.6 8.536 15.6 9.2V11.6ZM18.8 8.6C18.8 8.928 18.528 9.2 18.2 9.2H17.6V10H18.2C18.528 10 18.8 10.272 18.8 10.6C18.8 10.928 18.528 11.2 18.2 11.2H17.6V12.2C17.6 12.528 17.328 12.8 17 12.8C16.672 12.8 16.4 12.528 16.4 12.2V8.8C16.4 8.36 16.76 8 17.2 8H18.2C18.528 8 18.8 8.272 18.8 8.6ZM9.6 10H10.4V9.2H9.6V10ZM4.8 7.2C4.36 7.2 4 7.56 4 8V18.4C4 19.28 4.72 20 5.6 20H16C16.44 20 16.8 19.64 16.8 19.2C16.8 18.76 16.44 18.4 16 18.4H6.4C5.96 18.4 5.6 18.04 5.6 17.6V8C5.6 7.56 5.24 7.2 4.8 7.2ZM13.6 11.6H14.4V9.2H13.6V11.6Z" fill="#808080"/>
</svg>
