<svg width="24" height="24" viewBox="0 0 24 24" fill="none" xmlns="http://www.w3.org/2000/svg">
<path fill-rule="evenodd" clip-rule="evenodd" d="M16.8 7.99999H12C11.56 7.99999 11.2 8.35999 11.2 8.79999V12C11.2 12.44 11.56 12.8 12 12.8H16.8C17.24 12.8 17.6 12.44 17.6 12V8.79999C17.6 8.35999 17.24 7.99999 16.8 7.99999ZM19.2 4.79999H4.80001C3.92001 4.79999 3.20001 5.51999 3.20001 6.39999V17.6C3.20001 18.48 3.92001 19.184 4.80001 19.184H19.2C20.08 19.184 20.8 18.48 20.8 17.6V6.39999C20.8 5.51999 20.08 4.79999 19.2 4.79999ZM18.4 17.608H5.60001C5.16001 17.608 4.80001 17.248 4.80001 16.808V7.18399C4.80001 6.74399 5.16001 6.38399 5.60001 6.38399H18.4C18.84 6.38399 19.2 6.74399 19.2 7.18399V16.808C19.2 17.248 18.84 17.608 18.4 17.608Z" fill="#808080"/>
</svg>
