<svg width="24" height="24" viewBox="0 0 24 24" fill="none" xmlns="http://www.w3.org/2000/svg">
<path fill-rule="evenodd" clip-rule="evenodd" d="M16.8 11.2H12C11.56 11.2 11.2 11.56 11.2 12V15.2C11.2 15.64 11.56 16 12 16H16.8C17.24 16 17.6 15.64 17.6 15.2V12C17.6 11.56 17.24 11.2 16.8 11.2ZM20.8 17.6V6.38399C20.8 5.50399 20.08 4.79999 19.2 4.79999H4.80001C3.92001 4.79999 3.20001 5.50399 3.20001 6.38399V17.6C3.20001 18.48 3.92001 19.2 4.80001 19.2H19.2C20.08 19.2 20.8 18.48 20.8 17.6ZM18.4 17.616H5.60001C5.16001 17.616 4.80001 17.256 4.80001 16.816V7.17599C4.80001 6.73599 5.16001 6.37599 5.60001 6.37599H18.4C18.84 6.37599 19.2 6.73599 19.2 7.17599V16.816C19.2 17.256 18.84 17.616 18.4 17.616Z" fill="#808080"/>
</svg>
