<svg width="24" height="24" viewBox="0 0 24 24" fill="none" xmlns="http://www.w3.org/2000/svg">
<path fill-rule="evenodd" clip-rule="evenodd" d="M12 4C7.6 4 4 7.6 4 12C4 16.4 7.6 20 12 20C16.4 20 20 16.4 20 12C20 7.6 16.4 4 12 4ZM12.8 5.656C15.688 6.016 17.984 8.32 18.344 11.2H13.6C13.16 11.2 12.8 10.84 12.8 10.4V5.656ZM5.6 12C5.6 8.752 8.056 6.048 11.2 5.656V18.352C8.056 17.952 5.6 15.248 5.6 12ZM12.8 18.344V13.6C12.8 13.16 13.16 12.8 13.6 12.8H18.344C17.984 15.688 15.688 17.984 12.8 18.344Z" fill="#808080"/>
</svg>
