<svg width="24" height="24" viewBox="0 0 24 24" fill="none" xmlns="http://www.w3.org/2000/svg">
<path fill-rule="evenodd" clip-rule="evenodd" d="M11.2 4.80353V18.9155C11.2 19.4275 10.728 19.8115 10.232 19.6995C6.656 18.8995 4 15.6915 4 11.8595C4 8.02753 6.656 4.81953 10.232 4.01953C10.728 3.90753 11.2 4.29153 11.2 4.80353ZM12.824 4.80353V10.2515C12.824 10.6915 13.184 11.0515 13.624 11.0515H19.056C19.568 11.0515 19.952 10.5795 19.84 10.0755C19.16 7.06753 16.8 4.69953 13.8 4.01953C13.296 3.90753 12.824 4.29153 12.824 4.80353ZM12.824 13.4675V18.9155C12.824 19.4275 13.296 19.8115 13.8 19.6995C16.808 19.0195 19.168 16.6435 19.848 13.6355C19.96 13.1395 19.568 12.6595 19.064 12.6595H13.632C13.184 12.6675 12.824 13.0275 12.824 13.4675Z" fill="#808080"/>
</svg>
