<svg width="24" height="24" viewBox="0 0 24 24" fill="none" xmlns="http://www.w3.org/2000/svg">
<path fill-rule="evenodd" clip-rule="evenodd" d="M16.7999 8.8C16.7999 6.152 14.6479 4 11.9999 4C9.3519 4 7.1999 6.152 7.1999 8.8C7.1999 11.592 10.0959 15.352 11.3839 16.896C11.7039 17.28 12.2879 17.28 12.6079 16.896C13.9039 15.352 16.7999 11.592 16.7999 8.8ZM10.3999 8.8C10.3999 7.92 11.1199 7.2 11.9999 7.2C12.8799 7.2 13.5999 7.92 13.5999 8.8C13.5999 9.68 12.8879 10.4 11.9999 10.4C11.1199 10.4 10.3999 9.68 10.3999 8.8ZM6.3999 19.2C6.3999 19.64 6.7599 20 7.1999 20H16.7999C17.2399 20 17.5999 19.64 17.5999 19.2C17.5999 18.76 17.2399 18.4 16.7999 18.4H7.1999C6.7599 18.4 6.3999 18.76 6.3999 19.2Z" fill="#808080"/>
</svg>
