<svg width="24" height="24" viewBox="0 0 24 24" fill="none" xmlns="http://www.w3.org/2000/svg">
<path fill-rule="evenodd" clip-rule="evenodd" d="M11.9999 4C8.9039 4 6.3999 6.504 6.3999 9.6C6.3999 12.936 9.9359 17.536 11.3919 19.288C11.7119 19.672 12.2959 19.672 12.6159 19.288C14.0639 17.536 17.5999 12.936 17.5999 9.6C17.5999 6.504 15.0959 4 11.9999 4ZM11.9999 11.6C10.8959 11.6 9.9999 10.704 9.9999 9.6C9.9999 8.496 10.8959 7.6 11.9999 7.6C13.1039 7.6 13.9999 8.496 13.9999 9.6C13.9999 10.704 13.1039 11.6 11.9999 11.6Z" fill="#808080"/>
</svg>
