<svg width="24" height="24" viewBox="0 0 24 24" fill="none" xmlns="http://www.w3.org/2000/svg">
<path fill-rule="evenodd" clip-rule="evenodd" d="M7.20002 9.60002H15.2C15.64 9.60002 16 9.96002 16 10.4C16 10.84 15.64 11.2 15.2 11.2H7.20002C6.76002 11.2 6.40002 10.84 6.40002 10.4C6.40002 9.96002 6.76002 9.60002 7.20002 9.60002ZM7.20002 6.40002H15.2C15.64 6.40002 16 6.76002 16 7.20002C16 7.64002 15.64 8.00002 15.2 8.00002H7.20002C6.76002 8.00002 6.40002 7.64002 6.40002 7.20002C6.40002 6.76002 6.76002 6.40002 7.20002 6.40002ZM7.20002 12.8H12C12.44 12.8 12.8 13.16 12.8 13.6C12.8 14.04 12.44 14.4 12 14.4H7.20002C6.76002 14.4 6.40002 14.04 6.40002 13.6C6.40002 13.16 6.76002 12.8 7.20002 12.8ZM14.4 13.504V16.888C14.4 17.2 14.736 17.392 15.008 17.232L17.832 15.536C18.088 15.384 18.088 15.008 17.832 14.848L15.008 13.152C14.736 13 14.4 13.192 14.4 13.504Z" fill="#808080"/>
</svg>
