<svg width="24" height="24" viewBox="0 0 24 24" fill="none" xmlns="http://www.w3.org/2000/svg">
<path fill-rule="evenodd" clip-rule="evenodd" d="M12.8 9.60002H4.8C4.36 9.60002 4 9.96002 4 10.4C4 10.84 4.36 11.2 4.8 11.2H12.8C13.24 11.2 13.6 10.84 13.6 10.4C13.6 9.96002 13.24 9.60002 12.8 9.60002ZM12.8 6.40002H4.8C4.36 6.40002 4 6.76002 4 7.20002C4 7.64002 4.36 8.00002 4.8 8.00002H12.8C13.24 8.00002 13.6 7.64002 13.6 7.20002C13.6 6.76002 13.24 6.40002 12.8 6.40002ZM4.8 14.4H9.6C10.04 14.4 10.4 14.04 10.4 13.6C10.4 13.16 10.04 12.8 9.6 12.8H4.8C4.36 12.8 4 13.16 4 13.6C4 14.04 4.36 14.4 4.8 14.4ZM20.168 11.368L20.24 11.44C20.552 11.752 20.552 12.256 20.24 12.568L15.776 17.04C15.464 17.352 14.96 17.352 14.648 17.04L12.176 14.568C12.0262 14.4186 11.942 14.2156 11.942 14.004C11.942 13.7924 12.0262 13.5895 12.176 13.44L12.248 13.368C12.56 13.056 13.064 13.056 13.376 13.368L15.216 15.208L19.04 11.376C19.344 11.056 19.856 11.056 20.168 11.368Z" fill="#808080"/>
</svg>
