<svg width="24" height="24" viewBox="0 0 24 24" fill="none" xmlns="http://www.w3.org/2000/svg">
<path fill-rule="evenodd" clip-rule="evenodd" d="M11.1263 7.20002V10.872H9.29434C8.93434 10.872 8.75834 11.304 9.01434 11.552L11.6463 14.184C11.8063 14.344 12.0543 14.344 12.2143 14.184L14.8463 11.552C15.0943 11.304 14.9183 10.872 14.5663 10.872H12.7263V7.20002C12.7263 6.76002 12.3663 6.40002 11.9263 6.40002C11.4863 6.40002 11.1263 6.76002 11.1263 7.20002ZM8.00634 13.6C7.51834 13.6 7.11834 14.04 7.21434 14.52C7.64634 16.728 9.59034 18.4 11.9263 18.4C14.2623 18.4 16.2063 16.728 16.6383 14.52C16.7343 14.04 16.3343 13.6 15.8463 13.6C15.4543 13.6 15.1423 13.88 15.0623 14.264C14.7503 15.712 13.4703 16.8 11.9263 16.8C10.3823 16.8 9.10234 15.712 8.79834 14.264C8.71834 13.88 8.39834 13.6 8.00634 13.6Z" fill="#808080"/>
</svg>
