<svg width="24" height="24" viewBox="0 0 24 24" fill="none" xmlns="http://www.w3.org/2000/svg">
<path fill-rule="evenodd" clip-rule="evenodd" d="M12.8 9.60002H4.8C4.36 9.60002 4 9.96002 4 10.4C4 10.84 4.36 11.2 4.8 11.2H12.8C13.24 11.2 13.6 10.84 13.6 10.4C13.6 9.96002 13.24 9.60002 12.8 9.60002ZM12.8 6.40002H4.8C4.36 6.40002 4 6.76002 4 7.20002C4 7.64002 4.36 8.00002 4.8 8.00002H12.8C13.24 8.00002 13.6 7.64002 13.6 7.20002C13.6 6.76002 13.24 6.40002 12.8 6.40002ZM16.8 12.8V10.4C16.8 9.96002 16.44 9.60002 16 9.60002C15.56 9.60002 15.2 9.96002 15.2 10.4V12.8H12.8C12.36 12.8 12 13.16 12 13.6C12 14.04 12.36 14.4 12.8 14.4H15.2V16.8C15.2 17.24 15.56 17.6 16 17.6C16.44 17.6 16.8 17.24 16.8 16.8V14.4H19.2C19.64 14.4 20 14.04 20 13.6C20 13.16 19.64 12.8 19.2 12.8H16.8ZM4.8 14.4H9.6C10.04 14.4 10.4 14.04 10.4 13.6C10.4 13.16 10.04 12.8 9.6 12.8H4.8C4.36 12.8 4 13.16 4 13.6C4 14.04 4.36 14.4 4.8 14.4Z" fill="#808080"/>
</svg>
