<svg width="24" height="24" viewBox="0 0 24 24" fill="none" xmlns="http://www.w3.org/2000/svg">
<path fill-rule="evenodd" clip-rule="evenodd" d="M9.9 16.8C10.1761 16.8 10.4 16.5762 10.4 16.3V14.9C10.4 14.6239 10.1761 14.4 9.9 14.4H8.8C8.8 14.4 8.8 12 11.2 12H19.5033C19.7794 12 20 11.7762 20 11.5V9.30001C20 9.02387 19.7761 8.80001 19.5 8.80001H16.8C16.8 8.80001 16.5543 7.75434 16 7.20001C15.6597 6.85967 15.1341 6.63568 14.7791 6.51347C14.5596 6.43792 14.4 6.23596 14.4 6.00387V5.30001C14.4 5.02387 14.6239 4.80001 14.9 4.80001H16.3C16.5761 4.80001 16.8 4.57615 16.8 4.30001V3.70001C16.8 3.42387 16.5761 3.20001 16.3 3.20001H10.9C10.6239 3.20001 10.4 3.42387 10.4 3.70001V4.30001C10.4 4.57615 10.6239 4.80001 10.9 4.80001H12.3C12.5761 4.80001 12.8 5.02387 12.8 5.30001V5.97437C12.8 6.21971 12.6218 6.43045 12.3886 6.50662C12.0529 6.61629 11.5745 6.82549 11.2 7.20001C10.5543 7.84568 10.4 8.80001 10.4 8.80001C10.4 8.80001 8.8 8.80001 7.2 10C5.6 11.2 5.6 14.4 5.6 14.4H4.5C4.22386 14.4 4 14.6239 4 14.9V16.3C4 16.5762 4.22386 16.8 4.5 16.8H9.9ZM8.8 20C8.8 19.2317 8.49477 18.4948 7.95147 17.9515L7.27071 17.2707C7.23166 17.2317 7.16834 17.2317 7.12929 17.2707L6.44853 17.9515C5.90522 18.4948 5.6 19.2317 5.6 20C5.6 20.8837 6.31634 21.6 7.2 21.6C8.08366 21.6 8.8 20.8837 8.8 20Z" fill="#808080"/>
</svg>
