<svg width="24" height="24" viewBox="0 0 24 24" fill="none" xmlns="http://www.w3.org/2000/svg">
<path fill-rule="evenodd" clip-rule="evenodd" d="M10.3999 9.38239C9.9599 9.38239 9.5999 9.74239 9.5999 10.1824V12.5824H7.1999C6.7599 12.5824 6.3999 12.9424 6.3999 13.3824C6.3999 13.8224 6.7599 14.1824 7.1999 14.1824H9.5999V16.5824C9.5999 17.0224 9.9599 17.3824 10.3999 17.3824C10.8399 17.3824 11.1999 17.0224 11.1999 16.5824V14.1824H13.5999C14.0399 14.1824 14.3999 13.8224 14.3999 13.3824C14.3999 12.9424 14.0399 12.5824 13.5999 12.5824H11.1999V10.1824C11.1999 9.74239 10.8399 9.38239 10.3999 9.38239ZM14.7999 8.41439C14.7999 8.87039 15.2159 9.21439 15.6639 9.12639L16.7999 8.90239V16.5824C16.7999 17.0224 17.1599 17.3824 17.5999 17.3824C18.0399 17.3824 18.3999 17.0224 18.3999 16.5824V7.99839C18.3999 7.47839 17.9199 7.10239 17.4159 7.22239L15.3599 7.71839C15.0319 7.79039 14.7999 8.08639 14.7999 8.41439Z" fill="#808080"/>
</svg>
