<svg width="24" height="24" viewBox="0 0 24 24" fill="none" xmlns="http://www.w3.org/2000/svg">
<path fill-rule="evenodd" clip-rule="evenodd" d="M5.32829 8.5H2.39795V15.2656H4.11865V13.2823H5.22514C6.73017 13.2823 7.76634 12.3399 7.76634 10.8958C7.76634 9.4424 6.78174 8.5 5.32829 8.5ZM4.11862 11.9883V9.81749H4.87347C5.59551 9.81749 6.02686 10.1973 6.02686 10.9005C6.02686 11.6085 5.59551 11.9883 4.8641 11.9883H4.11862ZM10.1751 15.2656H8.5435V8.5H9.91724L12.7866 12.4337H12.8241V8.5H14.4558V15.2656H13.0961L10.2126 11.2944H10.1751V15.2656ZM18.531 15.5C20.458 15.5 21.602 14.3701 21.602 12.5228V11.6929H18.7045V12.8744H19.9423L19.9376 12.9776C19.8907 13.6574 19.3468 14.1169 18.5685 14.1169C17.5793 14.1169 16.9416 13.3058 16.9416 11.9648C16.9416 10.6474 17.5183 9.88312 18.4935 9.88312C19.1546 9.88312 19.661 10.2488 19.8298 10.849H21.5317C21.3582 9.47053 20.1298 8.5 18.4888 8.5C16.4446 8.5 15.1881 9.79404 15.1881 11.9883C15.1881 14.2106 16.4446 15.5 18.531 15.5Z" fill="#808080"/>
</svg>
