<svg width="24" height="24" viewBox="0 0 24 24" fill="none" xmlns="http://www.w3.org/2000/svg">
<path fill-rule="evenodd" clip-rule="evenodd" d="M17.6 4.80005H6.40005C5.52005 4.80005 4.80005 5.52005 4.80005 6.40005V17.6C4.80005 18.48 5.52005 19.2 6.40005 19.2H17.6C18.48 19.2 19.2 18.48 19.2 17.6V6.40005C19.2 5.52005 18.48 4.80005 17.6 4.80005ZM8.80005 16C8.36005 16 8.00005 15.64 8.00005 15.2V11.2C8.00005 10.76 8.36005 10.4 8.80005 10.4C9.24005 10.4 9.60005 10.76 9.60005 11.2V15.2C9.60005 15.64 9.24005 16 8.80005 16ZM12 16C11.56 16 11.2 15.64 11.2 15.2V8.80005C11.2 8.36005 11.56 8.00005 12 8.00005C12.44 8.00005 12.8 8.36005 12.8 8.80005V15.2C12.8 15.64 12.44 16 12 16ZM15.2 16C14.76 16 14.4 15.64 14.4 15.2V13.6C14.4 13.16 14.76 12.8 15.2 12.8C15.64 12.8 16 13.16 16 13.6V15.2C16 15.64 15.64 16 15.2 16Z" fill="#808080"/>
</svg>
