<svg width="24" height="24" viewBox="0 0 24 24" fill="none" xmlns="http://www.w3.org/2000/svg">
<path fill-rule="evenodd" clip-rule="evenodd" d="M7.288 6.84799C8.24 6.95999 8.912 7.31199 9.6 7.99999L10.4 8.79999L7.8 11.4C8.048 11.496 8.248 11.616 8.416 11.712C8.712 11.896 8.888 12 9.336 12C9.784 12 9.96 11.896 10.256 11.712C10.624 11.496 11.12 11.2 12.008 11.2C12.896 11.2 13.392 11.496 13.752 11.712C14.048 11.888 14.232 12 14.672 12C15.112 12 15.296 11.896 15.592 11.712C15.688 11.656 15.8 11.592 15.92 11.528L10.784 6.39999C9.776 5.39199 8.832 4.95999 7.44 4.83999C6.88 4.79199 6.4 5.24799 6.4 5.80799V5.87999C6.4 6.38399 6.792 6.78399 7.288 6.84799ZM19.48 17.528C19.344 17.48 19.224 17.408 19.08 17.312C18.72 17.096 18.224 16.8 17.336 16.8C16.448 16.8 15.952 17.096 15.592 17.312C15.296 17.496 15.112 17.6 14.672 17.6C14.232 17.6 14.048 17.488 13.752 17.312C13.392 17.096 12.896 16.8 12.008 16.8C11.12 16.8 10.624 17.096 10.256 17.312C9.96 17.496 9.784 17.6 9.336 17.6C8.888 17.6 8.712 17.496 8.416 17.312C8.056 17.096 7.56 16.8 6.672 16.8C5.784 16.8 5.288 17.096 4.92 17.312C4.776 17.4 4.656 17.472 4.52 17.528C4.216 17.632 4 17.888 4 18.208V18.304C4 18.84 4.528 19.208 5.04 19.032C5.336 18.928 5.56 18.792 5.752 18.68C6.048 18.504 6.232 18.4 6.672 18.4C7.112 18.4 7.296 18.504 7.592 18.688C7.952 18.904 8.448 19.2 9.336 19.2C10.224 19.2 10.72 18.904 11.088 18.688C11.384 18.504 11.56 18.4 12.008 18.4C12.448 18.4 12.632 18.512 12.928 18.688C13.288 18.904 13.784 19.2 14.672 19.2C15.56 19.2 16.048 18.904 16.416 18.688C16.712 18.504 16.888 18.4 17.336 18.4C17.776 18.4 17.96 18.512 18.256 18.688C18.44 18.8 18.664 18.936 18.96 19.04C19.464 19.216 20 18.848 20 18.312V18.216C20 17.888 19.784 17.632 19.48 17.528ZM4.888 15.48C5.264 15.376 5.536 15.216 5.76 15.088C6.056 14.904 6.24 14.8 6.68 14.8C7.12 14.8 7.304 14.912 7.6 15.088C7.96 15.304 8.456 15.6 9.344 15.6C10.232 15.6 10.728 15.304 11.088 15.088C11.384 14.904 11.56 14.8 12.008 14.8C12.448 14.8 12.632 14.912 12.928 15.088C13.288 15.304 13.784 15.6 14.672 15.6C15.56 15.6 16.056 15.304 16.416 15.088C16.712 14.904 16.888 14.8 17.336 14.8C17.776 14.8 17.96 14.912 18.256 15.088C18.44 15.2 18.656 15.328 18.936 15.432C19.44 15.616 19.984 15.24 19.984 14.704V14.608C19.984 14.288 19.768 14.032 19.472 13.92C19.336 13.872 19.216 13.8 19.064 13.712C18.704 13.496 18.208 13.2 17.32 13.2C16.432 13.2 15.936 13.496 15.576 13.712C15.28 13.896 15.096 14 14.656 14C14.216 14 14.032 13.888 13.736 13.712C13.376 13.496 12.88 13.2 11.992 13.2C11.104 13.2 10.608 13.496 10.248 13.712C9.952 13.896 9.776 14 9.328 14C8.888 14 8.704 13.888 8.408 13.712C8.048 13.496 7.552 13.2 6.664 13.2C5.776 13.2 5.28 13.496 4.92 13.712C4.776 13.8 4.656 13.872 4.52 13.928C4.216 14.032 4 14.288 4 14.608V14.792C4 15.256 4.44 15.608 4.888 15.48ZM15.6 4.79999C14.4954 4.79999 13.6 5.69542 13.6 6.79999C13.6 7.90456 14.4954 8.79999 15.6 8.79999C16.7046 8.79999 17.6 7.90456 17.6 6.79999C17.6 5.69542 16.7046 4.79999 15.6 4.79999Z" fill="#808080"/>
</svg>
