<svg width="24" height="24" viewBox="0 0 24 24" fill="none" xmlns="http://www.w3.org/2000/svg">
<path fill-rule="evenodd" clip-rule="evenodd" d="M4.568 4.856C4.256 5.168 4.256 5.672 4.568 5.984L5.68 7.096C4.632 8.456 4 10.152 4 12C4 14.64 5.28 16.976 7.248 18.432C7.632 18.712 8.176 18.6 8.416 18.184C8.616 17.84 8.528 17.392 8.208 17.152C6.632 15.984 5.6 14.12 5.6 12C5.6 10.592 6.056 9.296 6.824 8.248L7.968 9.4C7.488 10.144 7.2 11.04 7.2 12C7.2 13.44 7.84 14.728 8.848 15.608C9.216 15.928 9.8 15.808 10.048 15.384L10.056 15.376C10.248 15.04 10.16 14.624 9.872 14.368C9.216 13.784 8.8 12.944 8.8 12C8.8 11.48 8.936 11 9.152 10.568L10.416 11.832L10.4 12C10.4 12.88 11.12 13.6 12 13.6L12.168 13.584L17.616 19.032C17.928 19.344 18.432 19.344 18.744 19.032C19.056 18.72 19.056 18.216 18.744 17.904L5.704 4.856C5.392 4.544 4.88 4.544 4.568 4.856ZM16.568 13.456C16.712 13 16.8 12.504 16.8 12C16.8 9.352 14.648 7.2 12 7.2C11.496 7.2 11 7.288 10.544 7.432L11.92 8.808C11.944 8.808 11.968 8.8 12 8.8C13.768 8.8 15.2 10.232 15.2 12C15.2 12.032 15.192 12.056 15.192 12.088L16.568 13.456ZM12 5.6C15.536 5.6 18.4 8.464 18.4 12C18.4 12.96 18.168 13.856 17.784 14.68L18.976 15.872C19.624 14.72 20 13.408 20 12C20 7.584 16.416 4 12 4C10.592 4 9.28 4.384 8.128 5.024L9.312 6.208C10.128 5.824 11.04 5.6 12 5.6Z" fill="#808080"/>
</svg>
