<svg width="24" height="24" viewBox="0 0 24 24" fill="none" xmlns="http://www.w3.org/2000/svg">
<path fill-rule="evenodd" clip-rule="evenodd" d="M12 12.2C12.992 12.2 13.8 11.392 13.8 10.4C13.8 9.40799 12.992 8.59999 12 8.59999C11.008 8.59999 10.2 9.40799 10.2 10.4C10.2 11.392 11.008 12.2 12 12.2ZM15.6 15.4C15.6 14.2 13.2 13.6 12 13.6C10.8 13.6 8.40005 14.2 8.40005 15.4V16H15.6V15.4ZM17.6 4.79999H6.40005C5.52005 4.79999 4.80005 5.51999 4.80005 6.39999V17.6C4.80005 18.48 5.52005 19.2 6.40005 19.2H17.6C18.48 19.2 19.2 18.48 19.2 17.6V6.39999C19.2 5.51999 18.48 4.79999 17.6 4.79999ZM16.8 17.6H7.20005C6.76005 17.6 6.40005 17.24 6.40005 16.8V7.19999C6.40005 6.75999 6.76005 6.39999 7.20005 6.39999H16.8C17.24 6.39999 17.6 6.75999 17.6 7.19999V16.8C17.6 17.24 17.24 17.6 16.8 17.6Z" fill="#808080"/>
</svg>
