<svg width="24" height="24" viewBox="0 0 24 24" fill="none" xmlns="http://www.w3.org/2000/svg">
<path fill-rule="evenodd" clip-rule="evenodd" d="M4.80005 10.4C4.80005 10.84 5.16005 11.2 5.60005 11.2H19.2C19.64 11.2 20 10.84 20 10.4C20 9.95998 19.64 9.59998 19.2 9.59998H5.60005C5.16005 9.59998 4.80005 9.95998 4.80005 10.4ZM5.60005 14.4H8.00005C8.44005 14.4 8.80005 14.04 8.80005 13.6C8.80005 13.16 8.44005 12.8 8.00005 12.8H5.60005C5.16005 12.8 4.80005 13.16 4.80005 13.6C4.80005 14.04 5.16005 14.4 5.60005 14.4ZM11.2 14.4H13.6C14.04 14.4 14.4 14.04 14.4 13.6C14.4 13.16 14.04 12.8 13.6 12.8H11.2C10.76 12.8 10.4 13.16 10.4 13.6C10.4 14.04 10.76 14.4 11.2 14.4ZM16.8 14.4H19.2C19.64 14.4 20 14.04 20 13.6C20 13.16 19.64 12.8 19.2 12.8H16.8C16.36 12.8 16 13.16 16 13.6C16 14.04 16.36 14.4 16.8 14.4Z" fill="#808080"/>
</svg>
