<svg width="24" height="24" viewBox="0 0 24 24" fill="none" xmlns="http://www.w3.org/2000/svg">
<path fill-rule="evenodd" clip-rule="evenodd" d="M16.698 13.328V9.59199C16.698 8.79199 15.89 7.99199 15.098 7.99999V5.59999C15.098 5.15999 14.738 4.79999 14.298 4.79999C13.858 4.79999 13.498 5.15999 13.498 5.59999V7.99999H10.394L16.498 14.104C16.618 13.864 16.698 13.6 16.698 13.328ZM10.298 5.59999C10.298 5.15999 9.93805 4.79999 9.49805 4.79999C9.05805 4.79999 8.69805 5.15999 8.69805 5.59999V6.30399L10.298 7.90399V5.59999ZM18.418 18.288L12.29 12.16L8.21005 8.07999L6.16205 6.03199C6.01258 5.88219 5.80966 5.798 5.59805 5.798C5.38643 5.798 5.18351 5.88219 5.03405 6.03199C4.72205 6.34399 4.72205 6.84799 5.03405 7.15999L7.13805 9.26399C7.11405 9.36799 7.09805 9.47999 7.09805 9.59199V13.32C7.09805 13.744 7.26605 14.152 7.56205 14.448L9.89805 16.8V18.4C9.89805 18.84 10.258 19.2 10.698 19.2H13.098C13.538 19.2 13.898 18.84 13.898 18.4V16.8L14.282 16.416L17.29 19.424C17.602 19.736 18.106 19.736 18.418 19.424C18.73 19.112 18.73 18.6 18.418 18.288Z" fill="#808080"/>
</svg>
