<svg width="24" height="24" viewBox="0 0 24 24" fill="none" xmlns="http://www.w3.org/2000/svg">
<path fill-rule="evenodd" clip-rule="evenodd" d="M12.0029 4.79999C11.5629 4.79999 11.2029 5.15999 11.2029 5.59999V12C11.2029 12.44 11.5629 12.8 12.0029 12.8C12.4429 12.8 12.8029 12.44 12.8029 12V5.59999C12.8029 5.15999 12.4429 4.79999 12.0029 4.79999ZM16.1149 7.08799C15.8029 7.39999 15.8109 7.88799 16.1069 8.19999C17.0109 9.15999 17.5709 10.44 17.6029 11.856C17.6749 14.92 15.1389 17.56 12.0749 17.592C8.94686 17.64 6.40286 15.12 6.40286 12C6.40286 10.528 6.97086 9.19199 7.89886 8.19199C8.19486 7.87999 8.19486 7.39199 7.89086 7.08799C7.57086 6.76799 7.05086 6.77599 6.74686 7.10399C5.58686 8.33599 4.85886 9.97599 4.80286 11.792C4.69086 15.696 7.86686 19.072 11.7709 19.192C15.8509 19.32 19.2029 16.048 19.2029 11.992C19.2029 10.096 18.4669 8.38399 17.2669 7.10399C16.9629 6.77599 16.4349 6.76799 16.1149 7.08799Z" fill="#808080"/>
</svg>
