<svg width="24" height="24" viewBox="0 0 24 24" fill="none" xmlns="http://www.w3.org/2000/svg">
<path fill-rule="evenodd" clip-rule="evenodd" d="M15.208 7.99999L15.2 5.59999C15.2 5.15999 14.84 4.79999 14.4 4.79999C13.96 4.79999 13.6 5.15999 13.6 5.59999V7.99999H10.4V5.59999C10.4 5.15999 10.04 4.79999 9.59995 4.79999C9.15995 4.79999 8.79995 5.15999 8.79995 5.59999V7.99999H8.79195C7.91995 7.99999 7.19995 8.71999 7.19995 9.59199V13.32C7.19995 13.744 7.36795 14.152 7.66395 14.448L9.99995 16.8V18.4C9.99995 18.84 10.36 19.2 10.8 19.2H13.2C13.64 19.2 14 18.84 14 18.4V16.8L16.336 14.464C16.632 14.16 16.8 13.752 16.8 13.328V9.59199C16.8 8.71199 16.088 7.99999 15.208 7.99999Z" fill="#808080"/>
</svg>
