<svg width="24" height="24" viewBox="0 0 24 24" fill="none" xmlns="http://www.w3.org/2000/svg">
<path fill-rule="evenodd" clip-rule="evenodd" d="M9.6 5.6C9.6 4.712 10.312 4 11.2 4C12.088 4 12.8 4.712 12.8 5.6C12.8 6.488 12.088 7.2 11.2 7.2C10.312 7.2 9.6 6.488 9.6 5.6ZM15.2 12.8C15.192 11.728 14.536 10.792 13.6 10.4C13.6 9.032 12.464 7.936 11.072 8C9.776 8.072 8.8 9.232 8.8 10.528V15.2C8.8 15.64 9.16 16 9.6 16H10.4V18.8C10.4 19.464 10.936 20 11.6 20C12.264 20 12.8 19.464 12.8 18.8V16H14.4C14.84 16 15.2 15.64 15.2 15.2V12.8Z" fill="#808080"/>
</svg>
