<svg width="24" height="24" viewBox="0 0 24 24" fill="none" xmlns="http://www.w3.org/2000/svg">
<path fill-rule="evenodd" clip-rule="evenodd" d="M19.2 4.80005H4.79995C3.91195 4.80005 3.19995 5.51205 3.19995 6.40005V17.6C3.19995 18.488 3.91195 19.2 4.79995 19.2H19.2C20.088 19.2 20.8 18.488 20.8 17.6V6.40005C20.8 5.51205 20.088 4.80005 19.2 4.80005ZM18.4 17.616H5.59995C5.15995 17.616 4.79995 17.256 4.79995 16.816V7.18405C4.79995 6.74405 5.15995 6.38405 5.59995 6.38405H18.4C18.84 6.38405 19.2 6.74405 19.2 7.18405V16.816C19.2 17.256 18.84 17.616 18.4 17.616ZM10.4 12H8.79995L11.72 9.08005C11.88 8.92005 12.128 8.92005 12.288 9.08005L15.2 12H13.6V15.2H10.4V12Z" fill="#808080"/>
</svg>
