<svg width="24" height="24" viewBox="0 0 24 24" fill="none" xmlns="http://www.w3.org/2000/svg">
<path fill-rule="evenodd" clip-rule="evenodd" d="M17.6 8.79999H6.4C5.072 8.79999 4 9.87199 4 11.2V14.4C4 15.28 4.72 16 5.6 16H7.2V17.6C7.2 18.48 7.92 19.2 8.8 19.2H15.2C16.08 19.2 16.8 18.48 16.8 17.6V16H18.4C19.28 16 20 15.28 20 14.4V11.2C20 9.87199 18.928 8.79999 17.6 8.79999ZM14.4 17.6H9.6C9.16 17.6 8.8 17.24 8.8 16.8V13.6H15.2V16.8C15.2 17.24 14.84 17.6 14.4 17.6ZM17.6 12C17.16 12 16.8 11.64 16.8 11.2C16.8 10.76 17.16 10.4 17.6 10.4C18.04 10.4 18.4 10.76 18.4 11.2C18.4 11.64 18.04 12 17.6 12ZM16 4.79999H8C7.56 4.79999 7.2 5.15999 7.2 5.59999V7.19999C7.2 7.63999 7.56 7.99999 8 7.99999H16C16.44 7.99999 16.8 7.63999 16.8 7.19999V5.59999C16.8 5.15999 16.44 4.79999 16 4.79999Z" fill="#808080"/>
</svg>
