<svg width="24" height="24" viewBox="0 0 24 24" fill="none" xmlns="http://www.w3.org/2000/svg">
<path fill-rule="evenodd" clip-rule="evenodd" d="M4.56195 3.43394C4.41249 3.28414 4.20957 3.19995 3.99795 3.19995C3.78634 3.19995 3.58342 3.28414 3.43395 3.43394C3.12195 3.74594 3.12195 4.24994 3.43395 4.56194L6.84995 7.97794C5.52995 7.98594 4.46595 9.05794 4.46595 10.3779V13.5779C4.46595 14.4579 5.18595 15.1779 6.06595 15.1779H7.66595V16.7779C7.66595 17.6579 8.38595 18.3779 9.26595 18.3779H15.666C16.106 18.3779 16.498 18.2019 16.786 17.9139L19.05 20.1779C19.362 20.4899 19.866 20.4899 20.178 20.1779C20.49 19.8659 20.49 19.3619 20.178 19.0499L4.56195 3.43394ZM14.866 16.7779H10.066C9.62595 16.7779 9.26595 16.4179 9.26595 15.9779V12.7779H11.65L15.426 16.5539C15.274 16.6899 15.082 16.7779 14.866 16.7779ZM18.066 7.97794H11.37L18.57 15.1779H18.866C19.746 15.1779 20.466 14.4579 20.466 13.5779V10.3779C20.466 9.04994 19.394 7.97794 18.066 7.97794ZM18.066 11.1779C17.626 11.1779 17.266 10.8179 17.266 10.3779C17.266 9.93794 17.626 9.57794 18.066 9.57794C18.506 9.57794 18.866 9.93794 18.866 10.3779C18.866 10.8179 18.506 11.1779 18.066 11.1779ZM16.466 7.17794C16.906 7.17794 17.266 6.81794 17.266 6.37794V4.77794C17.266 4.33794 16.906 3.97794 16.466 3.97794H8.46595C8.16995 3.97794 7.92195 4.14594 7.78595 4.38594L10.57 7.17794H16.466Z" fill="#808080"/>
</svg>
