<svg width="24" height="24" viewBox="0 0 24 24" fill="none" xmlns="http://www.w3.org/2000/svg">
<path fill-rule="evenodd" clip-rule="evenodd" d="M2.81274 8.61723H5.74309C7.19653 8.61723 8.18113 9.55962 8.18113 11.0131C8.18113 12.4571 7.14496 13.3995 5.63994 13.3995H4.53344V15.3828H2.81274V8.61723ZM4.53335 9.93469V12.1055H5.27883C6.01024 12.1055 6.44159 11.7257 6.44159 11.0177C6.44159 10.3145 6.01024 9.93469 5.28821 9.93469H4.53335ZM8.72496 13.3902H10.3238C10.4035 13.8731 10.9239 14.1544 11.585 14.1544C12.2554 14.1544 12.6915 13.8543 12.6915 13.4417C12.6915 13.0666 12.4008 12.8744 11.599 12.7197L10.9051 12.5884C9.55484 12.3352 8.85624 11.6741 8.85624 10.6427C8.85624 9.33925 9.98618 8.5 11.5428 8.5C13.2447 8.5 14.2481 9.33456 14.2668 10.6239H12.668C12.6399 10.1363 12.1804 9.84561 11.5568 9.84561C10.9333 9.84561 10.5629 10.1269 10.5629 10.5255C10.5629 10.8818 10.8723 11.0787 11.6084 11.2194L12.3023 11.3506C13.7464 11.6273 14.4028 12.2133 14.4028 13.2776C14.4028 14.6373 13.3385 15.5 11.5522 15.5C9.86428 15.5 8.74841 14.7217 8.72496 13.3902ZM15.1952 8.61723H17.9427C19.9869 8.61723 21.1871 9.80343 21.1871 11.9602C21.1871 14.1216 19.9822 15.3828 17.9427 15.3828H15.1952V8.61723ZM16.9158 10.005V13.995H17.7175C18.8381 13.995 19.4382 13.3151 19.4382 11.9648C19.4382 10.6942 18.8053 10.005 17.7175 10.005H16.9158Z" fill="#808080"/>
</svg>
