<svg width="24" height="24" viewBox="0 0 24 24" fill="none" xmlns="http://www.w3.org/2000/svg">
<path fill-rule="evenodd" clip-rule="evenodd" d="M6.3999 6.40001C6.3999 6.84001 6.7599 7.20001 7.1999 7.20001H16.7999C17.2399 7.20001 17.5999 6.84001 17.5999 6.40001C17.5999 5.96001 17.2399 5.60001 16.7999 5.60001H7.1999C6.7599 5.60001 6.3999 5.96001 6.3999 6.40001ZM8.3279 13.6H9.5999V17.6C9.5999 18.04 9.9599 18.4 10.3999 18.4H13.5999C14.0399 18.4 14.3999 18.04 14.3999 17.6V13.6H15.6719C16.3839 13.6 16.7439 12.736 16.2399 12.232L12.5679 8.56001C12.4184 8.4102 12.2155 8.32602 12.0039 8.32602C11.7923 8.32602 11.5894 8.4102 11.4399 8.56001L7.7679 12.232C7.2639 12.736 7.6159 13.6 8.3279 13.6Z" fill="#808080"/>
</svg>
