<svg width="24" height="24" viewBox="0 0 24 24" fill="none" xmlns="http://www.w3.org/2000/svg">
<path fill-rule="evenodd" clip-rule="evenodd" d="M12 4C7.584 4 4 7.584 4 12C4 16.416 7.584 20 12 20C16.416 20 20 16.416 20 12C20 7.584 16.416 4 12 4ZM11.2 18.344C8.04 17.952 5.6 15.264 5.6 12C5.6 11.504 5.664 11.032 5.768 10.568L9.6 14.4V15.2C9.6 16.08 10.32 16.8 11.2 16.8V18.344ZM16.72 16.312C16.512 15.664 15.92 15.2 15.2 15.2H14.4V12.8C14.4 12.36 14.04 12 13.6 12H8.8V10.4H10.4C10.84 10.4 11.2 10.04 11.2 9.6V8H12.8C13.68 8 14.4 7.28 14.4 6.4V6.072C16.744 7.024 18.4 9.32 18.4 12C18.4 13.664 17.76 15.176 16.72 16.312Z" fill="#808080"/>
</svg>
