<svg width="24" height="24" viewBox="0 0 24 24" fill="none" xmlns="http://www.w3.org/2000/svg">
<path fill-rule="evenodd" clip-rule="evenodd" d="M11.992 4C7.576 4 4 7.584 4 12C4 16.416 7.576 20 11.992 20C16.416 20 20 16.416 20 12C20 7.584 16.416 4 11.992 4ZM12 18.4C8.464 18.4 5.6 15.536 5.6 12C5.6 8.464 8.464 5.6 12 5.6C15.536 5.6 18.4 8.464 18.4 12C18.4 15.536 15.536 18.4 12 18.4ZM11.824 8H11.776C11.456 8 11.2 8.256 11.2 8.576V12.352C11.2 12.632 11.344 12.896 11.592 13.04L14.912 15.032C15.184 15.192 15.536 15.112 15.696 14.84C15.864 14.568 15.776 14.208 15.496 14.048L12.4 12.208V8.576C12.4 8.256 12.144 8 11.824 8Z" fill="#808080"/>
</svg>
