<svg width="24" height="24" viewBox="0 0 24 24" fill="none" xmlns="http://www.w3.org/2000/svg">
<path fill-rule="evenodd" clip-rule="evenodd" d="M12.8 6H4.8C4.36 6 4 6.36 4 6.8C4 7.24 4.36 7.6 4.8 7.6H12.8C13.24 7.6 13.6 7.24 13.6 6.8C13.6 6.36 13.24 6 12.8 6ZM12.8 9.2H4.8C4.36 9.2 4 9.56 4 10C4 10.44 4.36 10.8 4.8 10.8H12.8C13.24 10.8 13.6 10.44 13.6 10C13.6 9.56 13.24 9.2 12.8 9.2ZM4.8 14H9.6C10.04 14 10.4 13.64 10.4 13.2C10.4 12.76 10.04 12.4 9.6 12.4H4.8C4.36 12.4 4 12.76 4 13.2C4 13.64 4.36 14 4.8 14ZM16.8 6C15.92 6 15.2 6.72 15.2 7.6V12.544C14.952 12.456 14.68 12.4 14.4 12.4C12.928 12.4 11.776 13.712 12.04 15.232C12.208 16.2 13 16.992 13.968 17.16C15.488 17.424 16.8 16.272 16.8 14.8V7.6H18.4C18.84 7.6 19.2 7.24 19.2 6.8C19.2 6.36 18.84 6 18.4 6H16.8Z" fill="#808080"/>
</svg>
