<svg width="24" height="24" viewBox="0 0 24 24" fill="none" xmlns="http://www.w3.org/2000/svg">
<path fill-rule="evenodd" clip-rule="evenodd" d="M4.8 7.2C4.36 7.2 4 7.56 4 8V18.4C4 19.28 4.72 20 5.6 20H16C16.44 20 16.8 19.64 16.8 19.2C16.8 18.76 16.44 18.4 16 18.4H6.4C5.96 18.4 5.6 18.04 5.6 17.6V8C5.6 7.56 5.24 7.2 4.8 7.2ZM18.4 4H8.8C7.92 4 7.2 4.72 7.2 5.6V15.2C7.2 16.08 7.92 16.8 8.8 16.8H18.4C19.28 16.8 20 16.08 20 15.2V5.6C20 4.72 19.28 4 18.4 4ZM16.8 11.2H14.4V13.6C14.4 14.04 14.04 14.4 13.6 14.4C13.16 14.4 12.8 14.04 12.8 13.6V11.2H10.4C9.96 11.2 9.6 10.84 9.6 10.4C9.6 9.96 9.96 9.6 10.4 9.6H12.8V7.2C12.8 6.76 13.16 6.4 13.6 6.4C14.04 6.4 14.4 6.76 14.4 7.2V9.6H16.8C17.24 9.6 17.6 9.96 17.6 10.4C17.6 10.84 17.24 11.2 16.8 11.2Z" fill="#808080"/>
</svg>
