<svg width="24" height="24" viewBox="0 0 24 24" fill="none" xmlns="http://www.w3.org/2000/svg">
<path fill-rule="evenodd" clip-rule="evenodd" d="M19.2 4H4.80001C3.92001 4 3.20001 4.72 3.20001 5.6V15.2C3.20001 16.08 3.92001 16.8 4.80001 16.8H8.80001V17.6C8.80001 18.04 9.16001 18.4 9.60001 18.4H14.4C14.84 18.4 15.2 18.04 15.2 17.6V16.8H16C16.44 16.8 16.8 16.44 16.8 16C16.8 15.56 16.44 15.2 16 15.2H5.60001C5.16001 15.2 4.80001 14.84 4.80001 14.4V6.4C4.80001 5.96 5.16001 5.6 5.60001 5.6H18.4C18.84 5.6 19.2 5.96 19.2 6.4V11.2C19.2 11.64 19.56 12 20 12C20.44 12 20.8 11.64 20.8 11.2V5.6C20.8 4.72 20.08 4 19.2 4ZM12.8 9.6V8C12.8 7.56 12.44 7.2 12 7.2C11.56 7.2 11.2 7.56 11.2 8V9.6H9.60001C9.16001 9.6 8.80001 9.96 8.80001 10.4C8.80001 10.84 9.16001 11.2 9.60001 11.2H11.2V12.8C11.2 13.24 11.56 13.6 12 13.6C12.44 13.6 12.8 13.24 12.8 12.8V11.2H14.4C14.84 11.2 15.2 10.84 15.2 10.4C15.2 9.96 14.84 9.6 14.4 9.6H12.8ZM21.032 16.568L18.6 19C18.272 19.328 17.728 19.328 17.4 19C17.072 18.672 17.072 18.128 17.4 17.8L19.2 16L17.4 14.2C17.072 13.872 17.072 13.328 17.4 13C17.728 12.672 18.272 12.672 18.6 13L21.032 15.432C21.344 15.744 21.344 16.256 21.032 16.568Z" fill="#808080"/>
</svg>
