<svg width="24" height="24" viewBox="0 0 24 24" fill="none" xmlns="http://www.w3.org/2000/svg">
<path fill-rule="evenodd" clip-rule="evenodd" d="M12 4C7.584 4 4 7.584 4 12C4 16.416 7.584 20 12 20C16.416 20 20 16.416 20 12C20 7.584 16.416 4 12 4ZM12 18.4C8.464 18.4 5.6 15.536 5.6 12C5.6 8.464 8.464 5.6 12 5.6C15.536 5.6 18.4 8.464 18.4 12C18.4 15.536 15.536 18.4 12 18.4ZM12 8C9.79086 8 8 9.79086 8 12C8 14.2091 9.79086 16 12 16C14.2091 16 16 14.2091 16 12C16 9.79086 14.2091 8 12 8Z" fill="#808080"/>
</svg>
