<svg width="24" height="24" viewBox="0 0 24 24" fill="none" xmlns="http://www.w3.org/2000/svg">
<path fill-rule="evenodd" clip-rule="evenodd" d="M4.992 7.90266C4.408 8.12666 4 8.71866 4 9.38266V18.9827C4 19.8627 4.72 20.5827 5.6 20.5827H18.4C19.288 20.5827 20 19.8627 20 18.9827V9.38266C20 8.50266 19.28 7.78266 18.4 7.78266H9.04L14.984 5.38266C15.352 5.23066 15.528 4.81466 15.376 4.44666C15.224 4.07866 14.808 3.90266 14.44 4.05466L4.992 7.90266ZM8 18.9827C6.672 18.9827 5.6 17.9107 5.6 16.5827C5.6 15.2547 6.672 14.1827 8 14.1827C9.328 14.1827 10.4 15.2547 10.4 16.5827C10.4 17.9107 9.328 18.9827 8 18.9827ZM18.4 12.5827H16.8V11.7827C16.8 11.3427 16.44 10.9827 16 10.9827C15.56 10.9827 15.2 11.3427 15.2 11.7827V12.5827H5.6V10.1827C5.6 9.74266 5.96 9.38266 6.4 9.38266H17.6C18.04 9.38266 18.4 9.74266 18.4 10.1827V12.5827Z" fill="#808080"/>
</svg>
