<svg width="24" height="24" viewBox="0 0 24 24" fill="none" xmlns="http://www.w3.org/2000/svg">
<path fill-rule="evenodd" clip-rule="evenodd" d="M4.08012 15.5V13.0502H4.98726L6.19031 15.5H8.18892L6.78698 12.7883C7.55344 12.4536 7.98518 11.6677 7.98518 10.8091C7.98518 9.36348 7.04409 8.5 5.29773 8.5H2.2998V15.5H4.08012ZM4.08012 11.8326V9.84373H5.11824C5.75372 9.84373 6.16606 10.2464 6.16606 10.843C6.16606 11.4494 5.77798 11.8326 5.12309 11.8326H4.08012ZM13.1091 13.9622L13.5505 15.5H15.4424L13.0897 8.5H10.9116L8.55881 15.5H10.3731L10.8194 13.9622H13.1091ZM11.1638 12.6816L11.9448 9.98441H11.9836L12.7598 12.6816H11.1638ZM17.5914 13.0502V15.5H15.8111V8.5H18.809C20.5553 8.5 21.4964 9.36348 21.4964 10.8091C21.4964 11.6677 21.0647 12.4536 20.2982 12.7883L21.7002 15.5H19.7016L18.4985 13.0502H17.5914ZM17.5914 9.84373V11.8326H18.6344C19.2893 11.8326 19.6773 11.4494 19.6773 10.843C19.6773 10.2464 19.265 9.84373 18.6295 9.84373H17.5914Z" fill="#808080"/>
</svg>
