<svg width="24" height="24" viewBox="0 0 24 24" fill="none" xmlns="http://www.w3.org/2000/svg">
<path fill-rule="evenodd" clip-rule="evenodd" d="M3.75981 15.5V13.0502H4.66695L5.87 15.5H7.24526H7.86861H9.05953L9.50583 13.9622H11.7955L12.2369 15.5H14.1288L11.7761 8.5H9.59799L7.49085 14.7693L6.46667 12.7883C7.23313 12.4536 7.66487 11.6677 7.66487 10.8091C7.66487 9.36348 6.72377 8.5 4.97741 8.5H1.97949V15.5H3.75981ZM3.75981 11.8326V9.84373H4.79793C5.43341 9.84373 5.84574 10.2464 5.84574 10.843C5.84574 11.4494 5.45766 11.8326 4.80278 11.8326H3.75981ZM9.85039 12.6816L10.6314 9.98441H10.6702L11.4464 12.6816H9.85039ZM16.1171 15.5L17.2959 11.1292H17.3347L18.5135 15.5H20.192L22.0208 8.5H20.1823L19.2363 13.2297H19.1975L18.0284 8.5H16.6022L15.4331 13.2297H15.3943L14.4484 8.5H12.6099L14.4387 15.5H16.1171Z" fill="#808080"/>
</svg>
