<svg width="24" height="24" viewBox="0 0 24 24" fill="none" xmlns="http://www.w3.org/2000/svg">
<path fill-rule="evenodd" clip-rule="evenodd" d="M19.2 4.008C19.096 4.008 18.992 4.048 18.92 4.128L18.288 4.76C18.128 4.92 17.88 4.92 17.72 4.76L17.088 4.128C16.928 3.968 16.68 3.968 16.52 4.128L15.888 4.76C15.728 4.92 15.48 4.92 15.32 4.76L14.688 4.128C14.528 3.968 14.28 3.968 14.12 4.128L13.488 4.76C13.328 4.92 13.08 4.92 12.92 4.76L12.288 4.128C12.128 3.968 11.88 3.968 11.72 4.128L11.088 4.76C10.928 4.92 10.68 4.92 10.52 4.76L9.87999 4.12C9.71999 3.96 9.47199 3.96 9.31199 4.12L8.67999 4.76C8.51999 4.92 8.27199 4.92 8.11199 4.76L7.47999 4.12C7.31999 3.96 7.07199 3.96 6.91199 4.12L6.27999 4.76C6.11999 4.92 5.87199 4.92 5.71199 4.76L5.07999 4.12C5.00799 4.048 4.90399 4.008 4.79999 4.008V19.68C4.90399 19.68 5.00799 19.64 5.07999 19.56L5.71199 18.928C5.87199 18.768 6.11999 18.768 6.27999 18.928L6.91199 19.56C7.07199 19.72 7.31999 19.72 7.47999 19.56L8.11199 18.928C8.27199 18.768 8.51999 18.768 8.67999 18.928L9.31199 19.56C9.47199 19.72 9.71999 19.72 9.87999 19.56L10.512 18.928C10.672 18.768 10.92 18.768 11.08 18.928L11.712 19.56C11.872 19.72 12.12 19.72 12.28 19.56L12.912 18.928C13.072 18.768 13.32 18.768 13.48 18.928L14.112 19.56C14.272 19.72 14.52 19.72 14.68 19.56L15.312 18.928C15.472 18.768 15.72 18.768 15.88 18.928L16.512 19.56C16.672 19.72 16.92 19.72 17.08 19.56L17.712 18.928C17.872 18.768 18.12 18.768 18.28 18.928L18.912 19.56C18.992 19.64 19.096 19.68 19.192 19.68V4.008H19.2ZM16 15.84H7.99999C7.55999 15.84 7.19999 15.48 7.19999 15.04C7.19999 14.6 7.55999 14.24 7.99999 14.24H16C16.44 14.24 16.8 14.6 16.8 15.04C16.8 15.48 16.44 15.84 16 15.84ZM16 12.64H7.99999C7.55999 12.64 7.19999 12.28 7.19999 11.84C7.19999 11.4 7.55999 11.04 7.99999 11.04H16C16.44 11.04 16.8 11.4 16.8 11.84C16.8 12.28 16.44 12.64 16 12.64ZM16 9.44H7.99999C7.55999 9.44 7.19999 9.08 7.19999 8.64C7.19999 8.2 7.55999 7.84 7.99999 7.84H16C16.44 7.84 16.8 8.2 16.8 8.64C16.8 9.08 16.44 9.44 16 9.44Z" fill="#808080"/>
</svg>
