<svg width="24" height="24" viewBox="0 0 24 24" fill="none" xmlns="http://www.w3.org/2000/svg">
<path fill-rule="evenodd" clip-rule="evenodd" d="M19.2 7.20002V16.8C19.2 17.24 19.56 17.6 20 17.6C20.44 17.6 20.8 17.24 20.8 16.8V7.20002C20.8 6.76002 20.44 6.40002 20 6.40002C19.56 6.40002 19.2 6.76002 19.2 7.20002ZM16.8 17.6C17.24 17.6 17.6 17.24 17.6 16.8V7.20002C17.6 6.76002 17.24 6.40002 16.8 6.40002C16.36 6.40002 16 6.76002 16 7.20002V16.8C16 17.24 16.36 17.6 16.8 17.6ZM13.6 6.40002H4.00001C3.56001 6.40002 3.20001 6.76002 3.20001 7.20002V16.8C3.20001 17.24 3.56001 17.6 4.00001 17.6H13.6C14.04 17.6 14.4 17.24 14.4 16.8V7.20002C14.4 6.76002 14.04 6.40002 13.6 6.40002ZM8.80001 8.60002C9.79201 8.60002 10.6 9.40802 10.6 10.4C10.6 11.392 9.79201 12.2 8.80001 12.2C7.80801 12.2 7.00001 11.392 7.00001 10.4C7.00001 9.40802 7.80801 8.60002 8.80001 8.60002ZM12.4 16H5.20001V15.4C5.20001 14.2 7.60001 13.6 8.80001 13.6C10 13.6 12.4 14.2 12.4 15.4V16Z" fill="#808080"/>
</svg>
