<svg width="24" height="24" viewBox="0 0 24 24" fill="none" xmlns="http://www.w3.org/2000/svg">
<path fill-rule="evenodd" clip-rule="evenodd" d="M9.60001 6.7614C7.8327 6.7614 6.40001 8.19409 6.40001 9.9614C6.40001 11.7287 7.8327 13.1614 9.60001 13.1614C11.3673 13.1614 12.8 11.7287 12.8 9.9614C12.8 8.19409 11.3673 6.7614 9.60001 6.7614ZM9.60001 14.7614C7.46401 14.7614 3.20001 15.8334 3.20001 17.9614V18.7614C3.20001 19.2014 3.56001 19.5614 4.00001 19.5614H15.2C15.64 19.5614 16 19.2014 16 18.7614V17.9614C16 15.8334 11.736 14.7614 9.60001 14.7614ZM14.776 8.9774C15.032 9.6094 15.032 10.3134 14.776 10.9454C14.624 11.3214 14.688 11.7454 14.976 12.0334L15 12.0574C15.464 12.5214 16.256 12.4254 16.56 11.8414C17.168 10.6814 17.168 9.3214 16.544 8.1134C16.24 7.5214 15.44 7.4094 14.968 7.8814L14.96 7.8894C14.688 8.1694 14.624 8.6014 14.776 8.9774ZM17.744 5.0734C17.424 5.3934 17.376 5.8894 17.64 6.2574C19.216 8.4494 19.208 11.3854 17.616 13.6574C17.36 14.0174 17.416 14.5134 17.728 14.8254L17.752 14.8494C18.144 15.2414 18.808 15.2094 19.144 14.7694C21.344 11.9374 21.352 8.0734 19.144 5.1534C18.808 4.7134 18.136 4.6814 17.744 5.0734Z" fill="#808080"/>
</svg>
