<svg width="24" height="24" viewBox="0 0 24 24" fill="none" xmlns="http://www.w3.org/2000/svg">
<path fill-rule="evenodd" clip-rule="evenodd" d="M17.1661 10.88C15.6861 9.59199 13.7661 8.79999 11.6461 8.79999C8.31812 8.79999 5.45413 10.736 4.09413 13.544C3.83813 14.08 4.12613 14.72 4.69413 14.912C5.16613 15.072 5.67813 14.848 5.89413 14.4C6.93413 12.272 9.11812 10.8 11.6461 10.8C13.2061 10.8 14.6301 11.376 15.7421 12.304L14.2141 13.832C13.7101 14.336 14.0621 15.2 14.7741 15.2H19.2461C19.6861 15.2 20.0461 14.84 20.0461 14.4V9.92799C20.0461 9.21599 19.1821 8.85599 18.6781 9.35999L17.1661 10.88Z" fill="#808080"/>
</svg>
