<svg width="24" height="24" viewBox="0 0 24 24" fill="none" xmlns="http://www.w3.org/2000/svg">
<path fill-rule="evenodd" clip-rule="evenodd" d="M16.507 7.48234C15.203 6.17834 13.355 5.42634 11.323 5.63434C8.38703 5.93034 5.97103 8.31434 5.64303 11.2503C5.20303 15.1303 8.20303 18.4023 11.987 18.4023C14.539 18.4023 16.731 16.9063 17.755 14.7543C18.011 14.2183 17.627 13.6023 17.035 13.6023C16.739 13.6023 16.459 13.7623 16.331 14.0263C15.427 15.9703 13.259 17.2023 10.891 16.6743C9.11503 16.2823 7.68303 14.8343 7.30703 13.0583C6.63503 9.95434 8.99503 7.20234 11.987 7.20234C13.315 7.20234 14.499 7.75434 15.363 8.62634L14.155 9.83434C13.651 10.3383 14.003 11.2023 14.715 11.2023H17.587C18.027 11.2023 18.387 10.8423 18.387 10.4023V7.53034C18.387 6.81834 17.523 6.45834 17.019 6.96234L16.507 7.48234Z" fill="#808080"/>
</svg>
