<svg width="24" height="24" viewBox="0 0 24 24" fill="none" xmlns="http://www.w3.org/2000/svg">
<path fill-rule="evenodd" clip-rule="evenodd" d="M12 6.40002C7.99995 6.40002 4.58395 8.88802 3.19995 12.4C4.58395 15.912 7.99995 18.4 12 18.4C16 18.4 19.416 15.912 20.8 12.4C19.416 8.88802 16 6.40002 12 6.40002ZM12 16.4C9.79195 16.4 7.99995 14.608 7.99995 12.4C7.99995 10.192 9.79195 8.40002 12 8.40002C14.208 8.40002 16 10.192 16 12.4C16 14.608 14.208 16.4 12 16.4ZM12 10C10.672 10 9.59995 11.072 9.59995 12.4C9.59995 13.728 10.672 14.8 12 14.8C13.328 14.8 14.4 13.728 14.4 12.4C14.4 11.072 13.328 10 12 10Z" fill="#808080"/>
</svg>
