<svg width="24" height="24" viewBox="0 0 24 24" fill="none" xmlns="http://www.w3.org/2000/svg">
<path fill-rule="evenodd" clip-rule="evenodd" d="M3.43401 3.434C3.12201 3.746 3.12201 4.25 3.43401 4.562L6.37801 7.506L8.14601 11.234L7.06601 13.194C6.91401 13.458 6.84201 13.778 6.87401 14.114C6.95401 14.962 7.72201 15.57 8.57001 15.57H14.434L15.538 16.674C15.138 16.962 14.874 17.434 14.874 17.97C14.874 18.85 15.586 19.57 16.466 19.57C17.002 19.57 17.474 19.306 17.762 18.898L19.466 20.602C19.778 20.914 20.282 20.914 20.594 20.602C20.906 20.29 20.906 19.786 20.594 19.474L4.56201 3.434C4.41255 3.2842 4.20963 3.20001 3.99801 3.20001C3.7864 3.20001 3.58348 3.2842 3.43401 3.434ZM8.46601 13.97L9.34601 12.37H11.234L12.834 13.97H8.46601ZM15.706 12.322C16.138 12.21 16.498 11.93 16.706 11.546L19.57 6.354C19.866 5.826 19.474 5.17 18.866 5.17H8.56201L15.706 12.322ZM8.46601 16.37C7.58601 16.37 6.87401 17.09 6.87401 17.97C6.87401 18.85 7.58601 19.57 8.46601 19.57C9.34601 19.57 10.066 18.85 10.066 17.97C10.066 17.09 9.34601 16.37 8.46601 16.37Z" fill="#808080"/>
</svg>
