<svg width="24" height="24" viewBox="0 0 24 24" fill="none" xmlns="http://www.w3.org/2000/svg">
<path fill-rule="evenodd" clip-rule="evenodd" d="M19.2 4.79999H4.80001C3.92001 4.79999 3.20001 5.51999 3.20001 6.39999V16C3.20001 16.88 3.92001 17.6 4.80001 17.6H8.80001V18.4C8.80001 18.84 9.16001 19.2 9.60001 19.2H14.4C14.84 19.2 15.2 18.84 15.2 18.4V17.6H19.2C20.08 17.6 20.8 16.88 20.8 16V6.39999C20.8 5.51199 20.08 4.79999 19.2 4.79999ZM18.4 16H5.60001C5.16001 16 4.80001 15.64 4.80001 15.2V7.19999C4.80001 6.75999 5.16001 6.39999 5.60001 6.39999H18.4C18.84 6.39999 19.2 6.75999 19.2 7.19999V15.2C19.2 15.64 18.84 16 18.4 16ZM15.2 11.2C15.2 11.64 14.84 12 14.4 12H9.60001C9.16001 12 8.80001 11.64 8.80001 11.2C8.80001 10.76 9.16001 10.4 9.60001 10.4H14.4C14.84 10.4 15.2 10.76 15.2 11.2Z" fill="#808080"/>
</svg>
