<svg width="24" height="24" viewBox="0 0 24 24" fill="none" xmlns="http://www.w3.org/2000/svg">
<path fill-rule="evenodd" clip-rule="evenodd" d="M5.59999 14.4H18.4C18.84 14.4 19.2 14.04 19.2 13.6C19.2 13.16 18.84 12.8 18.4 12.8H5.59999C5.15999 12.8 4.79999 13.16 4.79999 13.6C4.79999 14.04 5.15999 14.4 5.59999 14.4ZM5.59999 17.6H18.4C18.84 17.6 19.2 17.24 19.2 16.8C19.2 16.36 18.84 16 18.4 16H5.59999C5.15999 16 4.79999 16.36 4.79999 16.8C4.79999 17.24 5.15999 17.6 5.59999 17.6ZM5.59999 11.2H18.4C18.84 11.2 19.2 10.84 19.2 10.4C19.2 9.96002 18.84 9.60002 18.4 9.60002H5.59999C5.15999 9.60002 4.79999 9.96002 4.79999 10.4C4.79999 10.84 5.15999 11.2 5.59999 11.2ZM4.79999 7.20002C4.79999 7.64002 5.15999 8.00002 5.59999 8.00002H18.4C18.84 8.00002 19.2 7.64002 19.2 7.20002C19.2 6.76002 18.84 6.40002 18.4 6.40002H5.59999C5.15999 6.40002 4.79999 6.76002 4.79999 7.20002Z" fill="#808080"/>
</svg>
