<svg width="24" height="24" viewBox="0 0 24 24" fill="none" xmlns="http://www.w3.org/2000/svg">
<path fill-rule="evenodd" clip-rule="evenodd" d="M7.83205 8.23568H15.832V9.66768C15.832 10.0277 16.264 10.2037 16.512 9.94768L18.744 7.71568C18.904 7.55568 18.904 7.30768 18.744 7.14768L16.512 4.91568C16.264 4.66768 15.832 4.84368 15.832 5.20368V6.63568H7.03205C6.59205 6.63568 6.23205 6.99568 6.23205 7.43568V10.6357C6.23205 11.0757 6.59205 11.4357 7.03205 11.4357C7.47205 11.4357 7.83205 11.0757 7.83205 10.6357V8.23568ZM15.832 16.2357H7.83205V14.8037C7.83205 14.4437 7.40005 14.2677 7.15205 14.5237L4.92005 16.7557C4.76005 16.9157 4.76005 17.1637 4.92005 17.3237L7.15205 19.5557C7.40005 19.8037 7.83205 19.6277 7.83205 19.2677V17.8357H16.632C17.072 17.8357 17.432 17.4757 17.432 17.0357V13.8357C17.432 13.3957 17.072 13.0357 16.632 13.0357C16.192 13.0357 15.832 13.3957 15.832 13.8357V16.2357Z" fill="#808080"/>
</svg>
