<svg width="24" height="24" viewBox="0 0 24 24" fill="none" xmlns="http://www.w3.org/2000/svg">
<path fill-rule="evenodd" clip-rule="evenodd" d="M11.943 6.63323V4.40123C11.943 4.04123 11.511 3.86523 11.263 4.12123L8.22297 7.15323C8.06297 7.31323 8.06297 7.56123 8.22297 7.72123L11.255 10.7532C11.511 11.0012 11.943 10.8252 11.943 10.4652V8.23323C14.927 8.23323 17.287 10.9692 16.631 14.0652C16.255 15.8812 14.783 17.3452 12.975 17.7212C10.119 18.3212 7.57497 16.3612 7.19097 13.7132C7.13497 13.3292 6.79897 13.0332 6.40697 13.0332C5.92697 13.0332 5.54297 13.4572 5.60697 13.9372C6.10297 17.4492 9.44697 20.0492 13.231 19.3132C15.727 18.8252 17.735 16.8172 18.223 14.3212C19.015 10.2172 15.895 6.63323 11.943 6.63323ZM9.99097 13.4252H10.351C10.519 13.4252 10.647 13.3852 10.735 13.2972C10.823 13.2092 10.863 13.0972 10.863 12.9532C10.863 12.8892 10.855 12.8332 10.831 12.7772C10.807 12.7212 10.783 12.6812 10.743 12.6412C10.703 12.6012 10.655 12.5692 10.599 12.5532C10.543 12.5372 10.471 12.5212 10.399 12.5212C10.335 12.5212 10.279 12.5292 10.223 12.5452C10.167 12.5612 10.119 12.5852 10.079 12.6252C10.039 12.6652 10.007 12.6972 9.98297 12.7452C9.95897 12.7932 9.94297 12.8492 9.94297 12.9052H9.26297C9.26297 12.7612 9.29497 12.6332 9.35097 12.5212C9.40697 12.4092 9.48697 12.3052 9.59097 12.2252C9.69497 12.1452 9.80697 12.0812 9.94297 12.0412C10.079 12.0012 10.223 11.9772 10.375 11.9772C10.543 11.9772 10.703 12.0012 10.847 12.0412C10.991 12.0812 11.111 12.1452 11.215 12.2252C11.319 12.3052 11.399 12.4092 11.455 12.5292C11.511 12.6492 11.543 12.7932 11.543 12.9532C11.543 13.0252 11.535 13.0972 11.511 13.1692C11.487 13.2412 11.455 13.3052 11.407 13.3692C11.359 13.4332 11.311 13.4892 11.247 13.5452C11.183 13.6012 11.111 13.6412 11.023 13.6812C11.215 13.7532 11.359 13.8492 11.455 13.9932C11.551 14.1372 11.599 14.2972 11.599 14.4812C11.599 14.6412 11.567 14.7852 11.503 14.9052C11.439 15.0252 11.359 15.1372 11.247 15.2172C11.135 15.2972 11.015 15.3692 10.863 15.4092C10.711 15.4492 10.559 15.4732 10.383 15.4732C10.239 15.4732 10.095 15.4572 9.95897 15.4172C9.82297 15.3772 9.69497 15.3212 9.59097 15.2332C9.48697 15.1452 9.39097 15.0492 9.32697 14.9292C9.26297 14.8092 9.23097 14.6572 9.23097 14.4892H9.91097C9.91097 14.5532 9.92697 14.6092 9.95097 14.6652C9.97497 14.7212 10.007 14.7612 10.055 14.8012C10.103 14.8412 10.151 14.8732 10.215 14.8892C10.279 14.9052 10.343 14.9212 10.415 14.9212C10.495 14.9212 10.567 14.9132 10.631 14.8892C10.695 14.8652 10.751 14.8332 10.791 14.7932C10.831 14.7532 10.871 14.7052 10.895 14.6492C10.919 14.5932 10.927 14.5292 10.927 14.4572C10.927 14.3692 10.911 14.2892 10.887 14.2252C10.863 14.1612 10.823 14.1052 10.775 14.0652C10.727 14.0252 10.671 13.9932 10.599 13.9772C10.527 13.9612 10.455 13.9452 10.367 13.9452H9.99097V13.4252ZM14.583 14.0252C14.583 14.2812 14.559 14.5052 14.503 14.6812C14.447 14.8572 14.367 15.0172 14.271 15.1372C14.175 15.2572 14.047 15.3452 13.911 15.4012C13.775 15.4572 13.615 15.4812 13.439 15.4812C13.263 15.4812 13.111 15.4572 12.967 15.4012C12.823 15.3452 12.703 15.2572 12.599 15.1372C12.495 15.0172 12.415 14.8652 12.359 14.6812C12.303 14.4972 12.271 14.2812 12.271 14.0252V13.4332C12.271 13.1772 12.295 12.9532 12.351 12.7772C12.407 12.6012 12.487 12.4412 12.583 12.3212C12.679 12.2012 12.807 12.1132 12.943 12.0572C13.079 12.0012 13.239 11.9772 13.415 11.9772C13.591 11.9772 13.743 12.0012 13.887 12.0572C14.031 12.1132 14.151 12.2012 14.255 12.3212C14.359 12.4412 14.439 12.5932 14.495 12.7772C14.551 12.9612 14.583 13.1772 14.583 13.4332V14.0252ZM13.903 13.3372C13.903 13.1852 13.895 13.0572 13.871 12.9532C13.847 12.8492 13.815 12.7692 13.775 12.7052C13.735 12.6412 13.687 12.5932 13.623 12.5692C13.559 12.5452 13.495 12.5292 13.423 12.5292C13.351 12.5292 13.279 12.5452 13.223 12.5692C13.167 12.5932 13.111 12.6412 13.071 12.7052C13.031 12.7692 12.999 12.8492 12.975 12.9532C12.951 13.0572 12.943 13.1852 12.943 13.3372V14.1132C12.943 14.2652 12.951 14.3932 12.975 14.4972C12.999 14.6012 13.031 14.6892 13.071 14.7532C13.111 14.8172 13.159 14.8652 13.223 14.8892C13.287 14.9132 13.351 14.9292 13.423 14.9292C13.495 14.9292 13.567 14.9132 13.623 14.8892C13.679 14.8652 13.735 14.8172 13.775 14.7532C13.815 14.6892 13.847 14.6012 13.863 14.4972C13.887 14.3932 13.895 14.2652 13.895 14.1132V13.3372H13.903Z" fill="#808080"/>
</svg>
