<svg width="24" height="24" viewBox="0 0 24 24" fill="none" xmlns="http://www.w3.org/2000/svg">
<path fill-rule="evenodd" clip-rule="evenodd" d="M7.66602 7.3232C7.66602 6.5712 6.75402 6.1872 6.21802 6.7232L2.63402 10.3072C2.32202 10.6192 2.32202 11.1232 2.63402 11.4352L6.21802 15.0192C6.75402 15.5632 7.66602 15.1792 7.66602 14.4272C7.66602 14.2032 7.57802 13.9872 7.41802 13.8272L4.46602 10.8752L7.41802 7.9232C7.57802 7.7632 7.66602 7.5472 7.66602 7.3232ZM12.466 8.4752V7.2032C12.466 6.4912 11.602 6.1312 11.098 6.6352L7.42602 10.3072C7.11402 10.6192 7.11402 11.1232 7.42602 11.4352L11.098 15.1072C11.602 15.6112 12.466 15.2512 12.466 14.5392V13.1952C16.466 13.1952 19.266 14.4752 21.266 17.2752C20.466 13.2752 18.066 9.2752 12.466 8.4752Z" fill="#808080"/>
</svg>
