<svg width="24" height="24" viewBox="0 0 24 24" fill="none" xmlns="http://www.w3.org/2000/svg">
<path fill-rule="evenodd" clip-rule="evenodd" d="M12.343 6.63323V4.40123C12.343 4.04123 11.911 3.86523 11.663 4.12123L8.62299 7.15323C8.46299 7.31323 8.46299 7.56123 8.62299 7.72123L11.655 10.7532C11.911 11.0012 12.343 10.8252 12.343 10.4652V8.23323C15.327 8.23323 17.687 10.9692 17.031 14.0652C16.655 15.8732 15.319 17.2572 13.519 17.6892C10.607 18.3932 7.97499 16.4092 7.58299 13.7212C7.53499 13.3292 7.19899 13.0332 6.80699 13.0332C6.32699 13.0332 5.94299 13.4572 6.00699 13.9372C6.51099 17.5132 9.95899 20.1372 13.823 19.2732C16.295 18.7212 18.135 16.8092 18.615 14.3212C19.415 10.2172 16.295 6.63323 12.343 6.63323ZM11.295 13.7532L11.495 12.0172H13.407V12.5852H12.047L11.959 13.3212C11.983 13.3052 12.015 13.2972 12.047 13.2812C12.079 13.2652 12.119 13.2492 12.167 13.2412C12.215 13.2332 12.263 13.2172 12.311 13.2092C12.359 13.2012 12.415 13.1932 12.471 13.1932C12.639 13.1932 12.783 13.2172 12.911 13.2732C13.039 13.3292 13.151 13.4012 13.239 13.4972C13.327 13.5932 13.399 13.7132 13.439 13.8572C13.479 14.0012 13.511 14.1612 13.511 14.3372C13.511 14.4892 13.487 14.6332 13.439 14.7692C13.391 14.9052 13.319 15.0252 13.223 15.1292C13.127 15.2332 13.007 15.3212 12.863 15.3772C12.719 15.4332 12.551 15.4732 12.351 15.4732C12.207 15.4732 12.063 15.4492 11.927 15.4092C11.791 15.3692 11.671 15.2972 11.559 15.2172C11.447 15.1372 11.367 15.0252 11.303 14.9052C11.239 14.7852 11.199 14.6412 11.199 14.4812H11.871C11.887 14.6252 11.935 14.7372 12.023 14.8092C12.111 14.8812 12.223 14.9292 12.359 14.9292C12.447 14.9292 12.519 14.9132 12.575 14.8812C12.631 14.8492 12.687 14.8012 12.719 14.7452C12.751 14.6892 12.783 14.6252 12.807 14.5452C12.831 14.4652 12.831 14.3852 12.831 14.2972C12.831 14.2092 12.823 14.1292 12.799 14.0492C12.775 13.9692 12.743 13.9132 12.695 13.8572C12.647 13.8012 12.591 13.7612 12.527 13.7372C12.463 13.7132 12.375 13.6972 12.287 13.6972C12.223 13.6972 12.167 13.7052 12.127 13.7132C12.087 13.7212 12.039 13.7372 12.007 13.7532C11.975 13.7692 11.943 13.7932 11.911 13.8092C11.879 13.8252 11.855 13.8572 11.831 13.8812L11.295 13.7532Z" fill="#808080"/>
</svg>
