<svg width="24" height="24" viewBox="0 0 24 24" fill="none" xmlns="http://www.w3.org/2000/svg">
<path fill-rule="evenodd" clip-rule="evenodd" d="M11.943 6.63323V4.40123C11.943 4.04123 11.511 3.86523 11.263 4.12123L8.22297 7.15323C8.06297 7.31323 8.06297 7.56123 8.22297 7.72123L11.255 10.7532C11.511 11.0012 11.943 10.8252 11.943 10.4652V8.23323C14.927 8.23323 17.287 10.9692 16.631 14.0652C16.255 15.8812 14.783 17.3452 12.975 17.7212C10.119 18.3212 7.57497 16.3612 7.19097 13.7132C7.13497 13.3292 6.79897 13.0332 6.40697 13.0332C5.92697 13.0332 5.54297 13.4572 5.60697 13.9372C6.10297 17.4492 9.44697 20.0492 13.231 19.3132C15.727 18.8252 17.735 16.8172 18.223 14.3212C19.015 10.2172 15.895 6.63323 11.943 6.63323Z" fill="#808080"/>
</svg>
