<svg width="24" height="24" viewBox="0 0 24 24" fill="none" xmlns="http://www.w3.org/2000/svg">
<path fill-rule="evenodd" clip-rule="evenodd" d="M11.943 6.63323V4.40123C11.943 4.04123 11.511 3.86523 11.263 4.12123L8.23097 7.15323C8.07097 7.31323 8.07097 7.56123 8.23097 7.72123L11.263 10.7532C11.511 11.0012 11.943 10.8252 11.943 10.4732V8.23323C14.927 8.23323 17.287 10.9692 16.631 14.0652C16.255 15.8812 14.783 17.3452 12.975 17.7212C10.119 18.3212 7.57497 16.3612 7.19097 13.7132C7.14297 13.3292 6.80697 13.0332 6.40697 13.0332C5.92697 13.0332 5.54297 13.4572 5.60697 13.9372C6.10297 17.4492 9.44697 20.0492 13.231 19.3132C15.727 18.8252 17.735 16.8172 18.223 14.3212C19.015 10.2172 15.903 6.63323 11.943 6.63323ZM11.063 15.4332H10.383V12.8252L9.57497 13.0732V12.5212L10.991 12.0172H11.063V15.4332ZM14.487 14.0252C14.487 14.2812 14.463 14.5052 14.407 14.6812C14.351 14.8572 14.271 15.0172 14.175 15.1372C14.079 15.2572 13.951 15.3452 13.815 15.4012C13.679 15.4572 13.519 15.4812 13.343 15.4812C13.167 15.4812 13.015 15.4572 12.871 15.4012C12.727 15.3452 12.607 15.2572 12.503 15.1372C12.399 15.0172 12.319 14.8652 12.263 14.6812C12.207 14.4972 12.175 14.2812 12.175 14.0252V13.4332C12.175 13.1772 12.199 12.9532 12.255 12.7772C12.311 12.6012 12.391 12.4412 12.487 12.3212C12.583 12.2012 12.711 12.1132 12.847 12.0572C12.983 12.0012 13.143 11.9772 13.319 11.9772C13.495 11.9772 13.647 12.0012 13.791 12.0572C13.935 12.1132 14.055 12.2012 14.159 12.3212C14.263 12.4412 14.343 12.5932 14.399 12.7772C14.455 12.9612 14.487 13.1772 14.487 13.4332V14.0252ZM13.807 13.3372C13.807 13.1852 13.799 13.0572 13.775 12.9532C13.751 12.8492 13.719 12.7692 13.679 12.7052C13.639 12.6412 13.591 12.5932 13.527 12.5692C13.463 12.5452 13.399 12.5292 13.327 12.5292C13.255 12.5292 13.183 12.5452 13.127 12.5692C13.071 12.5932 13.015 12.6412 12.975 12.7052C12.935 12.7692 12.903 12.8492 12.879 12.9532C12.855 13.0572 12.847 13.1852 12.847 13.3372V14.1132C12.847 14.2652 12.855 14.3932 12.879 14.4972C12.903 14.6012 12.935 14.6892 12.975 14.7532C13.015 14.8172 13.063 14.8652 13.127 14.8892C13.191 14.9132 13.255 14.9292 13.327 14.9292C13.399 14.9292 13.471 14.9132 13.527 14.8892C13.583 14.8652 13.639 14.8172 13.679 14.7532C13.719 14.6892 13.751 14.6012 13.767 14.4972C13.783 14.3932 13.799 14.2652 13.799 14.1132V13.3372H13.807Z" fill="#808080"/>
</svg>
