<svg width="24" height="24" viewBox="0 0 24 24" fill="none" xmlns="http://www.w3.org/2000/svg">
<path fill-rule="evenodd" clip-rule="evenodd" d="M12 7.53601C12.44 7.53601 12.8 7.89601 12.8 8.33601V9.40001L18.5599 15.16L18.9679 14.752C19.12 14.6 19.2 14.4 19.2 14.184V8.88001C19.2 8.66401 19.1119 8.46401 18.9679 8.31201L15.224 4.56801C15.072 4.42401 14.864 4.33601 14.656 4.33601H9.34395C9.13595 4.33601 8.92795 4.42401 8.78395 4.56801L8.37595 4.97601L11.328 7.92801C11.464 7.69601 11.712 7.53601 12 7.53601ZM4.32795 3.20001L3.19995 4.32801L6.11195 7.24001L5.03195 8.32001C4.88795 8.46401 4.79995 8.67201 4.79995 8.88001V14.184C4.79995 14.4 4.88795 14.6 5.03195 14.752L8.77595 18.496C8.92795 18.648 9.13595 18.736 9.34395 18.736H14.648C14.864 18.736 15.064 18.648 15.216 18.504L16.296 17.424L19.208 20.336L20.336 19.208L4.32795 3.20001ZM12 15.776C11.424 15.776 10.96 15.312 10.96 14.736C10.96 14.16 11.424 13.696 12 13.696C12.576 13.696 13.04 14.16 13.04 14.736C13.04 15.312 12.576 15.776 12 15.776Z" fill="#808080"/>
</svg>
