<svg width="24" height="24" viewBox="0 0 24 24" fill="none" xmlns="http://www.w3.org/2000/svg">
<path fill-rule="evenodd" clip-rule="evenodd" d="M18.968 8.78399L15.224 5.03999C15.072 4.88799 14.864 4.79999 14.656 4.79999H9.34405C9.13605 4.79999 8.92805 4.88799 8.78405 5.03199L5.03205 8.78399C4.88805 8.92799 4.80005 9.13599 4.80005 9.34399V14.648C4.80005 14.864 4.88805 15.064 5.03205 15.216L8.77605 18.96C8.92805 19.112 9.13605 19.2 9.34405 19.2H14.648C14.864 19.2 15.064 19.112 15.216 18.968L18.96 15.224C19.1121 15.072 19.192 14.872 19.192 14.656V9.34399C19.2 9.13599 19.112 8.92799 18.968 8.78399ZM17.6 14.32L14.32 17.6H9.68005L6.40005 14.32V9.67999L9.68005 6.39999H14.32L17.6 9.67999V14.32ZM12 14.4C11.5582 14.4 11.2 14.7582 11.2 15.2C11.2 15.6418 11.5582 16 12 16C12.4419 16 12.8 15.6418 12.8 15.2C12.8 14.7582 12.4419 14.4 12 14.4ZM12 7.99999C11.56 7.99999 11.2 8.35999 11.2 8.79999V12.8C11.2 13.24 11.56 13.6 12 13.6C12.44 13.6 12.8 13.24 12.8 12.8V8.79999C12.8 8.35999 12.44 7.99999 12 7.99999Z" fill="#808080"/>
</svg>
