<svg width="24" height="24" viewBox="0 0 24 24" fill="none" xmlns="http://www.w3.org/2000/svg">
<path fill-rule="evenodd" clip-rule="evenodd" d="M4.8023 19.202H19.6263C20.2423 19.202 20.6263 18.538 20.3223 18.002L12.9063 5.20199C12.5943 4.66599 11.8263 4.66599 11.5223 5.20199L4.1063 18.002C3.8023 18.538 4.1863 19.202 4.8023 19.202ZM13.0183 16.802H11.4183V15.202H13.0183V16.802ZM12.2183 13.602C11.7783 13.602 11.4183 13.242 11.4183 12.802V11.202C11.4183 10.762 11.7783 10.402 12.2183 10.402C12.6583 10.402 13.0183 10.762 13.0183 11.202V12.802C13.0183 13.242 12.6583 13.602 12.2183 13.602Z" fill="#808080"/>
</svg>
