<svg width="24" height="24" viewBox="0 0 24 24" fill="none" xmlns="http://www.w3.org/2000/svg">
<path fill-rule="evenodd" clip-rule="evenodd" d="M14.656 4.79999H9.34405C9.13605 4.79999 8.92805 4.88799 8.78405 5.03199L5.03205 8.78399C4.88805 8.92799 4.80005 9.13599 4.80005 9.34399V14.648C4.80005 14.864 4.88805 15.064 5.03205 15.216L8.77605 18.96C8.92805 19.112 9.13605 19.2 9.34405 19.2H14.648C14.864 19.2 15.064 19.112 15.216 18.968L18.96 15.224C19.1121 15.072 19.192 14.872 19.192 14.656V9.34399C19.192 9.12799 19.104 8.92799 18.96 8.77599L15.216 5.03199C15.072 4.88799 14.864 4.79999 14.656 4.79999ZM12 16.24C11.424 16.24 10.96 15.776 10.96 15.2C10.96 14.624 11.424 14.16 12 14.16C12.576 14.16 13.04 14.624 13.04 15.2C13.04 15.776 12.576 16.24 12 16.24ZM12 12.8C11.56 12.8 11.2 12.44 11.2 12V8.79999C11.2 8.35999 11.56 7.99999 12 7.99999C12.44 7.99999 12.8 8.35999 12.8 8.79999V12C12.8 12.44 12.44 12.8 12 12.8Z" fill="#808080"/>
</svg>
