<svg width="24" height="24" viewBox="0 0 24 24" fill="none" xmlns="http://www.w3.org/2000/svg">
<path fill-rule="evenodd" clip-rule="evenodd" d="M17.928 8.328L14.064 4.464C13.768 4.168 13.36 4 12.936 4H7.20001C6.32001 4 5.60801 4.72 5.60801 5.6L5.60001 18.4C5.60001 19.28 6.31201 20 7.19201 20H16.8C17.68 20 18.4 19.28 18.4 18.4V9.464C18.4 9.04 18.232 8.632 17.928 8.328ZM12 16.8C10.68 16.8 9.44801 16.152 8.70401 15.064C8.52001 14.792 8.58401 14.416 8.85601 14.232C9.12801 14.04 9.50401 14.112 9.68801 14.384C10.208 15.144 11.072 15.6 11.992 15.6C13.536 15.6 14.792 14.344 14.792 12.8C14.792 11.256 13.544 10 12 10C10.936 10 9.98401 10.592 9.51201 11.512L10.8 12.8H8.00001C7.77601 12.8 7.60001 12.624 7.60001 12.4V9.6L8.64001 10.64C9.36801 9.512 10.608 8.8 12 8.8C14.208 8.8 16 10.592 16 12.8C16 15.008 14.208 16.8 12 16.8Z" fill="#808080"/>
</svg>
