<svg width="24" height="24" viewBox="0 0 24 24" fill="none" xmlns="http://www.w3.org/2000/svg">
<path fill-rule="evenodd" clip-rule="evenodd" d="M15.2 7.2V12C15.2 12.88 15.92 13.6 16.8 13.6H17.6V19.2C17.6 19.64 17.96 20 18.4 20C18.84 20 19.2 19.64 19.2 19.2V4.904C19.2 4.384 18.712 4 18.208 4.12C16.48 4.544 15.2 6.008 15.2 7.2ZM11.2 9.6H9.60005V4.8C9.60005 4.36 9.24005 4 8.80005 4C8.36005 4 8.00005 4.36 8.00005 4.8V9.6H6.40005V4.8C6.40005 4.36 6.04005 4 5.60005 4C5.16005 4 4.80005 4.36 4.80005 4.8V9.6C4.80005 11.368 6.23205 12.8 8.00005 12.8V19.2C8.00005 19.64 8.36005 20 8.80005 20C9.24005 20 9.60005 19.64 9.60005 19.2V12.8C11.368 12.8 12.8 11.368 12.8 9.6V4.8C12.8 4.36 12.44 4 12 4C11.56 4 11.2 4.36 11.2 4.8V9.6Z" fill="#808080"/>
</svg>
