<svg width="24" height="24" viewBox="0 0 24 24" fill="none" xmlns="http://www.w3.org/2000/svg">
<path fill-rule="evenodd" clip-rule="evenodd" d="M8.28781 12.9654L10.5518 10.7014L5.59981 5.75737C5.21581 5.37337 4.55181 5.47737 4.31181 5.97337C3.74381 7.16537 3.95181 8.62937 4.93581 9.62137L8.28781 12.9654ZM13.7118 11.5174C14.9358 12.0854 16.6558 11.6854 17.9278 10.4134C19.4558 8.88537 19.7518 6.69337 18.5758 5.51737C17.4078 4.34937 15.2158 4.63737 13.6798 6.16537C12.4078 7.43737 12.0078 9.15737 12.5758 10.3814L5.32781 17.6294C5.01581 17.9414 5.01581 18.4454 5.32781 18.7574C5.63981 19.0694 6.14381 19.0694 6.45581 18.7574L11.4078 13.8214L16.3518 18.7654C16.6638 19.0774 17.1678 19.0774 17.4798 18.7654C17.7918 18.4534 17.7918 17.9494 17.4798 17.6374L12.5358 12.6934L13.7118 11.5174Z" fill="#808080"/>
</svg>
