<svg width="24" height="24" viewBox="0 0 24 24" fill="none" xmlns="http://www.w3.org/2000/svg">
<path fill-rule="evenodd" clip-rule="evenodd" d="M11.8511 8.80005H11.8751C12.3151 8.80005 12.6671 8.44805 12.6671 8.01605V5.58405C12.6671 5.15205 12.3151 4.80005 11.8831 4.80005H11.8591C11.4191 4.80005 11.0671 5.15205 11.0671 5.58405V8.00805C11.0671 8.44805 11.4191 8.80005 11.8511 8.80005ZM15.7871 10.488C16.0991 10.8 16.5951 10.8 16.9071 10.488C17.4031 9.98405 18.1231 9.25605 18.6271 8.75205C18.9391 8.44805 18.9391 7.94405 18.6271 7.64005C18.3231 7.33605 17.8191 7.33605 17.5151 7.64005L15.7791 9.36005C15.4671 9.66405 15.4671 10.168 15.7791 10.472L15.7871 10.488ZM6.83514 10.48C7.13914 10.792 7.64314 10.792 7.95514 10.48C8.25914 10.176 8.25914 9.67205 7.95514 9.36805L6.23514 7.63205C5.93114 7.32005 5.42714 7.32005 5.12314 7.63205L5.10714 7.64005C4.79514 7.95205 4.79514 8.44805 5.10714 8.75205C5.61114 9.24805 6.33914 9.97605 6.83514 10.48ZM20.8991 16.184C15.7711 11.656 8.04314 11.656 2.91514 16.184C2.23514 16.784 2.23514 17.848 2.87514 18.488L3.85114 19.464C4.42714 20.04 5.33914 20.088 5.97914 19.584L7.57914 18.312C7.96314 18.008 8.18714 17.544 8.18714 17.056V14.976C10.6031 14.192 13.2191 14.184 15.6431 14.976V17.064C15.6431 17.552 15.8671 18.016 16.2511 18.32L17.8431 19.584C18.4831 20.088 19.3951 20.04 19.9711 19.464L20.9471 18.488C21.5791 17.848 21.5791 16.784 20.8991 16.184Z" fill="#808080"/>
</svg>
