<svg width="24" height="24" viewBox="0 0 24 24" fill="none" xmlns="http://www.w3.org/2000/svg">
<path fill-rule="evenodd" clip-rule="evenodd" d="M4.8 16H19.2C19.64 16 20 16.36 20 16.8C20 17.24 19.64 17.6 19.2 17.6H4.8C4.36 17.6 4 17.24 4 16.8C4 16.36 4.36 16 4.8 16ZM13.472 8.63202C13.552 8.44002 13.6 8.22402 13.6 8.00002C13.6 7.12002 12.88 6.40002 12 6.40002C11.12 6.40002 10.4 7.12002 10.4 8.00002C10.4 8.22402 10.448 8.44002 10.528 8.63202C7.4 9.28002 5.016 11.944 4.8 15.2H19.2C18.984 11.944 16.6 9.28002 13.472 8.63202Z" fill="#808080"/>
</svg>
