<svg width="24" height="24" viewBox="0 0 24 24" fill="none" xmlns="http://www.w3.org/2000/svg">
<path fill-rule="evenodd" clip-rule="evenodd" d="M7.388 8.53121L4.468 11.4592C3.844 12.0832 3.844 13.0992 4.468 13.7232L7.396 16.6512C8.02 17.2752 9.036 17.2752 9.66 16.6512L12.588 13.7312C13.212 13.1072 13.212 12.0912 12.588 11.4672L9.652 8.52321C9.02 7.89921 8.012 7.89921 7.388 8.53121ZM6.164 12.0192L7.964 10.2192C8.276 9.90721 8.78 9.90721 9.1 10.2192L10.892 12.0112C11.204 12.3232 11.204 12.8272 10.892 13.1392L9.092 14.9392C8.78 15.2512 8.276 15.2512 7.956 14.9392L6.164 13.1552C5.852 12.8432 5.852 12.3312 6.164 12.0192ZM18.132 7.57921C16.732 6.17121 14.884 5.46721 13.044 5.46721V4.80321C13.044 4.09121 12.18 3.73121 11.676 4.23521L10.22 5.69921C9.908 6.01121 9.908 6.51521 10.22 6.82721L11.684 8.29121C12.18 8.79521 13.044 8.44321 13.044 7.73121V7.06721C14.66 7.06721 16.268 7.75521 17.404 9.15521C19.044 11.1712 19.044 14.1712 17.404 16.1872C16.268 17.5792 14.66 18.2672 13.044 18.2672C12.42 18.2672 11.804 18.1632 11.212 17.9552C10.924 17.8592 10.612 17.9472 10.396 18.1632C9.996 18.5632 10.124 19.2752 10.668 19.4592C11.436 19.7312 12.236 19.8672 13.044 19.8672C14.884 19.8672 16.732 19.1632 18.132 17.7552C20.948 14.9472 20.948 10.3872 18.132 7.57921Z" fill="#808080"/>
</svg>
