<svg width="24" height="24" viewBox="0 0 24 24" fill="none" xmlns="http://www.w3.org/2000/svg">
<path fill-rule="evenodd" clip-rule="evenodd" d="M14.2641 6.73564L12.5601 5.03164C12.0641 4.53564 11.2001 4.88764 11.2001 5.59964V6.12764C8.0481 6.51964 5.6001 9.20764 5.6001 12.4716C5.6001 15.3836 7.5441 17.8396 10.2161 18.6156C10.7121 18.7596 11.2001 18.3596 11.2001 17.8476V17.8236C11.2001 17.4796 10.9841 17.1676 10.6561 17.0716C8.6561 16.4956 7.2001 14.6556 7.2001 12.4716C7.2001 10.0956 8.9281 8.12764 11.2001 7.74364V8.96764C11.2001 9.67964 12.0561 10.0316 12.5601 9.53564L14.2641 7.87164C14.5841 7.56764 14.5841 7.05564 14.2641 6.73564ZM18.1361 10.6796C18.0081 10.2396 17.8321 9.81564 17.6081 9.40764C17.3601 8.95164 16.7281 8.87964 16.3601 9.24764L16.3521 9.25564C16.1041 9.50364 16.0481 9.87964 16.2161 10.1836C16.3761 10.4796 16.5041 10.7916 16.6001 11.1116C16.6961 11.4476 17.0081 11.6716 17.3521 11.6716H17.3681C17.8881 11.6716 18.2881 11.1756 18.1361 10.6796ZM12.8001 17.8156V17.8316C12.8001 18.3516 13.2961 18.7436 13.7921 18.5996C14.2321 18.4716 14.6561 18.2956 15.0641 18.0716C15.5201 17.8236 15.5921 17.1916 15.2241 16.8236L15.2081 16.8076C14.9601 16.5596 14.5841 16.5036 14.2801 16.6716C13.9841 16.8396 13.6721 16.9676 13.3521 17.0636C13.0241 17.1596 12.8001 17.4716 12.8001 17.8156ZM16.3521 15.6956C16.7201 16.0636 17.3521 15.9916 17.6001 15.5356C17.8241 15.1276 18.0001 14.7036 18.1361 14.2636C18.2801 13.7676 17.8881 13.2716 17.3681 13.2716H17.3521C17.0001 13.2716 16.6961 13.4956 16.6001 13.8316C16.5041 14.1516 16.3761 14.4636 16.2161 14.7676C16.0481 15.0716 16.1121 15.4556 16.3521 15.6956Z" fill="#808080"/>
</svg>
