<svg width="24" height="24" viewBox="0 0 24 24" fill="none" xmlns="http://www.w3.org/2000/svg">
<path fill-rule="evenodd" clip-rule="evenodd" d="M7.41672 9.2592C7.04872 8.8912 6.41672 8.9552 6.16872 9.4112C5.94472 9.8192 5.76872 10.2352 5.63272 10.6752C5.48072 11.1792 5.88072 11.6752 6.40072 11.6752H6.40872C6.75272 11.6752 7.06472 11.4512 7.16072 11.1152C7.25672 10.7952 7.38472 10.4832 7.54472 10.1792C7.72072 9.8832 7.66472 9.5072 7.41672 9.2592ZM6.41672 13.2752H6.40072C5.88072 13.2752 5.48072 13.7712 5.63272 14.2752C5.76072 14.7072 5.93672 15.1312 6.16072 15.5392C6.40872 15.9952 7.04872 16.0672 7.41672 15.6992C7.65672 15.4512 7.72072 15.0832 7.55272 14.7792C7.39272 14.4832 7.26472 14.1712 7.16872 13.8512C7.07272 13.4992 6.76072 13.2752 6.41672 13.2752ZM8.69672 18.0912C9.10472 18.3152 9.52872 18.4912 9.96872 18.6192C10.4647 18.7632 10.9607 18.3632 10.9607 17.8512V17.8272C10.9607 17.4832 10.7367 17.1712 10.4007 17.0752C10.0807 16.9792 9.77672 16.8512 9.48072 16.6912C9.17672 16.5232 8.79272 16.5792 8.55272 16.8272L8.52872 16.8512C8.16872 17.2112 8.24072 17.8432 8.69672 18.0912ZM12.5687 6.1312V5.6032C12.5687 4.8912 11.7047 4.5312 11.2007 5.0352L9.50472 6.7392C9.18472 7.0592 9.18472 7.5712 9.50472 7.8832L11.2087 9.5472C11.7127 10.0432 12.5687 9.6832 12.5687 8.9712V7.7472C14.8407 8.1312 16.5687 10.0992 16.5687 12.4752C16.5687 14.6592 15.1127 16.4912 13.1127 17.0752C12.7847 17.1712 12.5687 17.4832 12.5687 17.8272V17.8432C12.5687 18.3632 13.0567 18.7552 13.5527 18.6112C16.2247 17.8432 18.1687 15.3872 18.1687 12.4752C18.1687 9.2112 15.7287 6.5232 12.5687 6.1312Z" fill="#808080"/>
</svg>
