<svg width="24" height="24" viewBox="0 0 24 24" fill="none" xmlns="http://www.w3.org/2000/svg">
<path fill-rule="evenodd" clip-rule="evenodd" d="M17.6 17.6H19.2V19.2H17.6V17.6ZM17.6 16H19.2V14.4H17.6V16ZM4.79999 12.8H6.39999V11.2H4.79999V12.8ZM4.79999 16H6.39999V14.4H4.79999V16ZM4.79999 9.59999H6.39999V7.99999H4.79999V9.59999ZM4.79999 6.39999H6.39999V4.79999H4.79999V6.39999ZM7.99999 6.39999H9.59999V4.79999H7.99999V6.39999ZM14.4 19.2H16V17.6H14.4V19.2ZM11.2 19.2H12.8V17.6H11.2V19.2ZM14.4 19.2H16V17.6H14.4V19.2ZM7.99999 19.2H9.59999V17.6H7.99999V19.2ZM4.79999 19.2H6.39999V17.6H4.79999V19.2ZM19.2 8.79999C19.2 6.59199 17.408 4.79999 15.2 4.79999H11.2V6.39999H15.2C16.52 6.39999 17.6 7.47999 17.6 8.79999V12.8H19.2V8.79999Z" fill="#808080"/>
</svg>
