<svg width="24" height="24" viewBox="0 0 24 24" fill="none" xmlns="http://www.w3.org/2000/svg">
<path fill-rule="evenodd" clip-rule="evenodd" d="M11.56 6.83999C11.712 6.99199 11.96 7.00799 12.136 6.87199C13.04 6.15199 14.12 5.75999 15.2 5.75999C16.28 5.75999 17.36 6.15199 18.272 6.87199C18.44 7.00799 18.688 6.99199 18.848 6.83999L18.88 6.79999C19.056 6.62399 19.048 6.32799 18.856 6.15999C17.792 5.25599 16.496 4.79999 15.2 4.79999C13.904 4.79999 12.608 5.25599 11.544 6.15999C11.352 6.32799 11.336 6.61599 11.52 6.79999L11.56 6.83999ZM12.92 7.44799C12.72 7.60799 12.712 7.91199 12.888 8.08799L12.92 8.11999C13.08 8.27999 13.32 8.27999 13.496 8.15199C14 7.76799 14.6 7.59999 15.2 7.59999C15.8 7.59999 16.4 7.76799 16.904 8.14399C17.08 8.27999 17.328 8.27199 17.48 8.11199L17.512 8.07999C17.696 7.89599 17.68 7.59999 17.48 7.43999C16.816 6.92799 16.008 6.63999 15.2 6.63999C14.392 6.63999 13.584 6.92799 12.92 7.44799ZM17.6 12.8H16V10.4C16 9.95999 15.64 9.59999 15.2 9.59999C14.76 9.59999 14.4 9.95999 14.4 10.4V12.8H6.40005C5.52005 12.8 4.80005 13.52 4.80005 14.4V17.6C4.80005 18.48 5.52005 19.2 6.40005 19.2H17.6C18.48 19.2 19.2 18.48 19.2 17.6V14.4C19.2 13.52 18.48 12.8 17.6 12.8ZM8.80005 16.8H7.20005V15.2H8.80005V16.8ZM11.6 16.8H10V15.2H11.6V16.8ZM14.4 16.8H12.8V15.2H14.4V16.8Z" fill="#808080"/>
</svg>
