<svg width="24" height="24" viewBox="0 0 24 24" fill="none" xmlns="http://www.w3.org/2000/svg">
<path fill-rule="evenodd" clip-rule="evenodd" d="M5.84601 17C5.51801 17.328 5.51801 17.872 5.84601 18.2C6.17401 18.528 6.71801 18.528 7.04601 18.2L9.24601 16H10.846L8.84601 14L5.84601 17ZM14.046 6.40001C14.926 6.40001 15.646 5.68001 15.646 4.80001C15.646 3.92001 14.926 3.20001 14.046 3.20001C13.166 3.20001 12.446 3.92001 12.446 4.80001C12.446 5.68001 13.166 6.40001 14.046 6.40001ZM18.278 18.64L16.678 17.032C16.534 16.888 16.326 16.8 16.11 16.8H15.246L10.214 11.768C10.846 11.504 11.542 11.072 12.046 10.656V12.472L14.91 15.336C15.366 14.896 15.646 14.28 15.646 13.608V9.00801C15.646 8.01601 14.83 7.20001 13.838 7.20001H13.822C13.55 7.20001 13.286 7.27201 13.054 7.38401C12.846 7.48001 12.654 7.61601 12.502 7.78401L11.382 9.02401C10.534 9.96001 8.97401 10.68 7.64601 10.656C7.16601 10.656 6.78201 11.04 6.78201 11.52C6.78201 12 7.16601 12.384 7.64601 12.384C7.89401 12.384 8.13401 12.36 8.36601 12.328L14.054 18V18.864C14.054 19.072 14.134 19.28 14.286 19.424L15.878 21.032C16.19 21.344 16.694 21.344 17.014 21.032L18.278 19.768C18.59 19.464 18.59 18.952 18.278 18.64Z" fill="#808080"/>
</svg>
