<svg width="24" height="24" viewBox="0 0 24 24" fill="none" xmlns="http://www.w3.org/2000/svg">
<path fill-rule="evenodd" clip-rule="evenodd" d="M18.4 15.4122H17.6V10.6122C17.6 9.73223 16.88 9.01223 16 9.01223H7.20005V8.42023C7.20005 8.05223 6.75205 7.86023 6.48805 8.12423L5.09605 9.51623C4.93605 9.67623 4.93605 9.94023 5.09605 10.1082L6.48805 11.5002C6.75205 11.7642 7.20005 11.5802 7.20005 11.2042V10.6122H10.4V13.0122H5.60005C5.16005 13.0122 4.80005 13.3722 4.80005 13.8122V15.4122C4.80005 16.2922 5.52005 17.0122 6.40005 17.0122H8.00005C8.00005 18.3402 9.07205 19.4122 10.4 19.4122C11.728 19.4122 12.8 18.3402 12.8 17.0122H18.4C18.84 17.0122 19.2 16.6522 19.2 16.2122C19.2 15.7722 18.84 15.4122 18.4 15.4122ZM10.4 17.8122C9.96005 17.8122 9.60005 17.4522 9.60005 17.0122C9.60005 16.5722 9.96005 16.2122 10.4 16.2122C10.84 16.2122 11.2 16.5722 11.2 17.0122C11.2 17.4522 10.84 17.8122 10.4 17.8122ZM16 13.0122H12.8V10.6122H15.2C15.64 10.6122 16 10.9722 16 11.4122V13.0122ZM9.60005 6.61223H15.2V7.20423C15.2 7.57223 15.648 7.76423 15.912 7.50023L17.304 6.10823C17.464 5.94823 17.464 5.68423 17.304 5.51623L15.912 4.12423C15.648 3.86023 15.2 4.04423 15.2 4.42023V5.01223H9.60005C9.16005 5.01223 8.80005 5.37223 8.80005 5.81223C8.80005 6.25223 9.16005 6.61223 9.60005 6.61223Z" fill="#808080"/>
</svg>
