<svg width="24" height="24" viewBox="0 0 24 24" fill="none" xmlns="http://www.w3.org/2000/svg">
<path fill-rule="evenodd" clip-rule="evenodd" d="M17.6 4.80005H6.40005C5.52005 4.80005 4.80005 5.52005 4.80005 6.40005V17.6C4.80005 18.48 5.52005 19.2 6.40005 19.2H17.6C18.48 19.2 19.2 18.48 19.2 17.6V6.40005C19.2 5.52005 18.48 4.80005 17.6 4.80005ZM6.40005 6.40005H8.80005C8.80005 7.72805 7.72805 8.80005 6.40005 8.80005V6.40005ZM6.40005 11.128C6.40005 10.736 6.68805 10.408 7.08005 10.344C8.74405 10.056 10.056 8.74405 10.344 7.08005C10.408 6.68805 10.736 6.40005 11.128 6.40005C11.616 6.40005 12 6.82405 11.928 7.30405C11.544 9.67205 9.68005 11.544 7.31205 11.928C6.83205 12.008 6.40005 11.616 6.40005 11.128ZM6.90405 16.152L8.89605 13.592C9.05605 13.392 9.36005 13.384 9.52005 13.584L11.2 15.608L13.68 12.416C13.84 12.208 14.16 12.208 14.32 12.424L17.128 16.168C17.328 16.432 17.136 16.808 16.808 16.808H7.21605C6.88805 16.8 6.69605 16.416 6.90405 16.152Z" fill="#808080"/>
</svg>
