<svg width="24" height="24" viewBox="0 0 24 24" fill="none" xmlns="http://www.w3.org/2000/svg">
<path fill-rule="evenodd" clip-rule="evenodd" d="M16.472 5.27199C16.168 4.96799 15.76 4.79999 15.336 4.79999H6.40005C5.51205 4.79999 4.80005 5.51999 4.80005 6.39999V17.6C4.80005 18.48 5.52005 19.2 6.40005 19.2H17.6C18.48 19.2 19.2 18.48 19.2 17.6V8.66399C19.2 8.23999 19.032 7.83199 18.728 7.53599L16.472 5.27199ZM12 17.6C10.672 17.6 9.60005 16.528 9.60005 15.2C9.60005 13.872 10.672 12.8 12 12.8C13.328 12.8 14.4 13.872 14.4 15.2C14.4 16.528 13.328 17.6 12 17.6ZM12.8 9.59999H8.00005C7.12005 9.59999 6.40005 8.87999 6.40005 7.99999C6.40005 7.11999 7.12005 6.39999 8.00005 6.39999H12.8C13.68 6.39999 14.4 7.11999 14.4 7.99999C14.4 8.87999 13.68 9.59999 12.8 9.59999Z" fill="#808080"/>
</svg>
