<svg width="24" height="24" viewBox="0 0 24 24" fill="none" xmlns="http://www.w3.org/2000/svg">
<path fill-rule="evenodd" clip-rule="evenodd" d="M17.6 12.8V16.8C17.6 17.24 17.24 17.6 16.8 17.6H7.20005C6.76005 17.6 6.40005 17.24 6.40005 16.8V12.8C6.40005 12.36 6.04005 12 5.60005 12C5.16005 12 4.80005 12.36 4.80005 12.8V17.6C4.80005 18.48 5.52005 19.2 6.40005 19.2H17.6C18.48 19.2 19.2 18.48 19.2 17.6V12.8C19.2 12.36 18.84 12 18.4 12C17.96 12 17.6 12.36 17.6 12.8ZM12.8 12.536L14.304 11.032C14.616 10.72 15.12 10.72 15.432 11.032C15.744 11.344 15.744 11.848 15.432 12.16L12.56 15.032C12.248 15.344 11.744 15.344 11.432 15.032L8.56005 12.16C8.41025 12.0105 8.32606 11.8076 8.32606 11.596C8.32606 11.3844 8.41025 11.1815 8.56005 11.032C8.87205 10.72 9.37605 10.72 9.68805 11.032L11.2 12.536V5.59999C11.2 5.15999 11.56 4.79999 12 4.79999C12.44 4.79999 12.8 5.15999 12.8 5.59999V12.536Z" fill="#808080"/>
</svg>
