<svg width="24" height="24" viewBox="0 0 24 24" fill="none" xmlns="http://www.w3.org/2000/svg">
<path fill-rule="evenodd" clip-rule="evenodd" d="M18.24 10.7287L6.52005 6.44871C6.10405 6.29671 5.64005 6.51271 5.48005 6.92871C5.32805 7.35271 5.54405 7.81671 5.96005 7.96871L16.48 11.7687H6.40005C5.52005 11.7687 4.80005 12.4887 4.80005 13.3687V16.5687C4.80005 17.4487 5.52005 18.1687 6.40005 18.1687H17.6C18.48 18.1687 19.2 17.4487 19.2 16.5687V12.1687C19.2 11.5287 18.8 10.8887 18.24 10.7287ZM8.00005 15.7687H6.40005V14.1687H8.00005V15.7687ZM16.8 15.7687H10.4C9.96005 15.7687 9.60005 15.4087 9.60005 14.9687C9.60005 14.5287 9.96005 14.1687 10.4 14.1687H16.8C17.24 14.1687 17.6 14.5287 17.6 14.9687C17.6 15.4087 17.24 15.7687 16.8 15.7687Z" fill="#808080"/>
</svg>
