<svg width="24" height="24" viewBox="0 0 24 24" fill="none" xmlns="http://www.w3.org/2000/svg">
<path fill-rule="evenodd" clip-rule="evenodd" d="M8.0001 11.2C7.14266 11.2 6.35036 11.6574 5.92164 12.4C5.49292 13.1426 5.49292 14.0574 5.92164 14.8C6.35036 15.5426 7.14266 16 8.0001 16C8.85754 16 9.64984 15.5426 10.0786 14.8C10.5073 14.0574 10.5073 13.1426 10.0786 12.4C9.64984 11.6574 8.85754 11.2 8.0001 11.2ZM11.2001 4.79999C9.87461 4.79999 8.8001 5.8745 8.8001 7.19999C8.8001 8.52547 9.87461 9.59999 11.2001 9.59999C12.5256 9.59999 13.6001 8.52547 13.6001 7.19999C13.6001 5.8745 12.5256 4.79999 11.2001 4.79999ZM15.6801 14.08C14.3546 14.08 13.2801 15.1545 13.2801 16.48C13.2801 17.8055 14.3546 18.88 15.6801 18.88C17.0056 18.88 18.0801 17.8055 18.0801 16.48C18.0801 15.1545 17.0056 14.08 15.6801 14.08Z" fill="#808080"/>
</svg>
