<svg width="24" height="24" viewBox="0 0 24 24" fill="none" xmlns="http://www.w3.org/2000/svg">
<path fill-rule="evenodd" clip-rule="evenodd" d="M6.326 12.72V14.968C6.326 15.552 6.646 16.096 7.158 16.376L11.158 18.56C11.638 18.824 12.214 18.824 12.694 18.56L16.694 16.376C17.206 16.096 17.526 15.552 17.526 14.968V12.72L12.694 15.36C12.214 15.624 11.638 15.624 11.158 15.36L6.326 12.72ZM11.158 4.99205L4.414 8.67205C3.862 8.97605 3.862 9.77605 4.414 10.08L11.158 13.76C11.638 14.024 12.214 14.024 12.694 13.76L19.126 10.248V14.976C19.126 15.416 19.486 15.776 19.926 15.776C20.366 15.776 20.726 15.416 20.726 14.976V9.84805C20.726 9.55205 20.566 9.28805 20.31 9.14405L12.694 4.99205C12.214 4.73605 11.638 4.73605 11.158 4.99205Z" fill="#808080"/>
</svg>
