<svg width="24" height="24" viewBox="0 0 24 24" fill="none" xmlns="http://www.w3.org/2000/svg">
<path fill-rule="evenodd" clip-rule="evenodd" d="M17.6 4.79999H6.40005C5.52005 4.79999 4.80005 5.51999 4.80005 6.39999V17.6C4.80005 18.48 5.52005 19.2 6.40005 19.2H17.6C18.48 19.2 19.2 18.48 19.2 17.6V6.39999C19.2 5.51999 18.48 4.79999 17.6 4.79999ZM12 6.99999C12 6.67199 12.272 6.39999 12.6 6.39999C12.928 6.39999 13.2 6.67199 13.2 6.99999V8.79999L14.632 6.64799C14.736 6.49599 14.912 6.39999 15.104 6.39999C15.552 6.39999 15.824 6.90399 15.576 7.27999L14.56 8.79999L15.576 10.32C15.824 10.696 15.56 11.2 15.104 11.2C14.912 11.2 14.736 11.104 14.632 10.952L13.2 8.79999V10.6C13.2 10.928 12.928 11.2 12.6 11.2C12.272 11.2 12 10.928 12 10.6V6.99999ZM8.00005 8.99999C8.00005 8.55999 8.36005 8.19999 8.80005 8.19999H10V7.59999H8.60005C8.27205 7.59999 8.00005 7.32799 8.00005 6.99999C8.00005 6.67199 8.27205 6.39999 8.60005 6.39999H10.4C10.84 6.39999 11.2 6.75999 11.2 7.19999V8.59999C11.2 9.03999 10.84 9.39999 10.4 9.39999H9.20005V9.99999H10.6C10.928 9.99999 11.2 10.272 11.2 10.6C11.2 10.928 10.928 11.2 10.6 11.2H8.80005C8.36005 11.2 8.00005 10.84 8.00005 10.4V8.99999ZM17.392 13.008L13.368 17.032C13.056 17.344 12.552 17.344 12.24 17.032L9.60005 14.4L7.60805 16.392C7.16005 16.84 6.40005 16.52 6.40005 15.896C6.40005 15.712 6.47205 15.528 6.60805 15.4L9.03205 12.976C9.34405 12.664 9.84805 12.664 10.16 12.976L12.8 15.6L16.392 12.008C16.84 11.56 17.6 11.88 17.6 12.504C17.6 12.696 17.528 12.872 17.392 13.008Z" fill="#808080"/>
</svg>
