<svg width="24" height="24" viewBox="0 0 24 24" fill="none" xmlns="http://www.w3.org/2000/svg">
<path fill-rule="evenodd" clip-rule="evenodd" d="M10.4 15.2H13.6C14.04 15.2 14.4 14.84 14.4 14.4V12C14.4 11.56 14.04 11.2 13.6 11.2V10.4C13.6 9.51201 12.88 8.80001 12 8.80001C11.112 8.80001 10.4 9.52001 10.4 10.4V11.2C9.96002 11.2 9.60002 11.56 9.60002 12V14.4C9.60002 14.84 9.96002 15.2 10.4 15.2ZM11.04 10.4C11.04 9.87201 11.472 9.44001 12 9.44001C12.528 9.44001 12.96 9.87201 12.96 10.4V11.2H11.04V10.4ZM16 3.20001H8.00002C7.12002 3.20001 6.40002 3.92001 6.40002 4.80001V19.2C6.40002 20.08 7.12002 20.8 8.00002 20.8H16C16.88 20.8 17.6 20.08 17.6 19.2V4.80001C17.6 3.92001 16.88 3.20001 16 3.20001ZM16 17.6H8.00002V6.40001H16V17.6Z" fill="#808080"/>
</svg>
