<svg width="24" height="24" viewBox="0 0 24 24" fill="none" xmlns="http://www.w3.org/2000/svg">
<path fill-rule="evenodd" clip-rule="evenodd" d="M19.2 6.40002H4.79995C3.91995 6.40002 3.19995 7.12002 3.19995 8.00002V16C3.19995 16.88 3.91995 17.6 4.79995 17.6H19.2C20.08 17.6 20.8 16.88 20.8 16V8.00002C20.8 7.12002 20.08 6.40002 19.2 6.40002ZM17.6 16H6.39995V8.00002H17.6V16ZM10.4 15.2H13.6C14.04 15.2 14.4 14.84 14.4 14.4V12C14.4 11.56 14.04 11.2 13.6 11.2V10.4C13.6 9.51202 12.88 8.80002 12 8.80002C11.112 8.80002 10.4 9.52002 10.4 10.4V11.2C9.95995 11.2 9.59995 11.56 9.59995 12V14.4C9.59995 14.84 9.95995 15.2 10.4 15.2ZM11.04 10.4C11.04 9.87202 11.472 9.44002 12 9.44002C12.528 9.44002 12.96 9.87202 12.96 10.4V11.2H11.04V10.4Z" fill="#808080"/>
</svg>
