<svg width="24" height="24" viewBox="0 0 24 24" fill="none" xmlns="http://www.w3.org/2000/svg">
<path fill-rule="evenodd" clip-rule="evenodd" d="M10.4726 3.78618C10.0006 3.31424 9.24061 3.31424 8.77661 3.78618L3.68861 8.87357C3.21661 9.34551 3.21661 10.1054 3.68861 10.5694L13.3046 20.1842C13.7766 20.6561 14.5366 20.6561 15.0006 20.1842L20.0886 15.0968C20.5606 14.6249 20.5606 13.865 20.0886 13.401L10.4726 3.78618ZM13.5846 18.7684L5.10461 10.2894C4.95481 10.1399 4.87062 9.93705 4.87062 9.72546C4.87062 9.51388 4.95481 9.31098 5.10461 9.16153L9.06461 5.20201C9.37661 4.89005 9.88061 4.89005 10.1926 5.20201L18.6806 13.689C18.9926 14.0009 18.9926 14.5049 18.6806 14.8168L14.7206 18.7764C14.4086 19.0803 13.8966 19.0803 13.5846 18.7684ZM16.3766 3.50622C15.1206 2.8423 13.5366 2.36236 11.7366 2.40235C11.5926 2.40235 11.5286 2.57833 11.6246 2.68232L14.4086 5.46598L15.4726 4.40211C17.9446 5.56997 19.7446 7.89769 20.1846 10.6893C20.2326 11.0173 20.5366 11.2413 20.8726 11.1853C21.2006 11.1373 21.4246 10.8253 21.3686 10.4974C20.8886 7.45774 19.0006 4.89805 16.3766 3.50622ZM9.36861 18.5124L8.30461 19.5763C5.83261 18.4084 4.03261 16.0807 3.59261 13.289C3.54461 12.9611 3.24061 12.7371 2.90461 12.7931C2.57661 12.8411 2.35261 13.153 2.40861 13.481C2.88861 16.5286 4.77661 19.0883 7.40061 20.4802C8.65661 21.1441 10.2406 21.624 12.0406 21.584C12.1846 21.584 12.2486 21.408 12.1526 21.3041L9.36861 18.5124Z" fill="#808080"/>
</svg>
