<svg width="24" height="24" viewBox="0 0 24 24" fill="none" xmlns="http://www.w3.org/2000/svg">
<path fill-rule="evenodd" clip-rule="evenodd" d="M20.9285 13.416L19.4405 11.92C19.2911 11.7702 19.0882 11.686 18.8765 11.686C18.6649 11.686 18.462 11.7702 18.3125 11.92C18.0005 12.232 18.0005 12.736 18.3125 13.048L19.5205 14.264L14.9925 18.792L5.93654 9.73601L10.4645 5.20801L11.5845 6.32801C11.8965 6.64001 12.4005 6.64001 12.7125 6.32801C13.0245 6.01601 13.0245 5.51201 12.7125 5.20001L11.3125 3.80001C10.8405 3.32801 10.0805 3.32801 9.61654 3.80001L4.52854 8.88801C4.05654 9.36001 4.05654 10.12 4.52854 10.584L14.1445 20.2C14.6165 20.672 15.3765 20.672 15.8405 20.2L20.9285 15.112C21.4005 14.64 21.4005 13.88 20.9285 13.416ZM15.1285 10.4H19.1285C19.5685 10.4 19.9285 10.04 19.9285 9.60001V6.40001C19.9285 5.96001 19.5685 5.60001 19.1285 5.60001V5.20001C19.1285 4.09601 18.2325 3.20001 17.1285 3.20001C16.0245 3.20001 15.1285 4.09601 15.1285 5.20001V5.60001C14.6885 5.60001 14.3285 5.96001 14.3285 6.40001V9.60001C14.3285 10.04 14.6885 10.4 15.1285 10.4ZM15.7685 5.20001C15.7685 4.44801 16.3765 3.84001 17.1285 3.84001C17.8805 3.84001 18.4885 4.44801 18.4885 5.20001V5.60001H15.7685V5.20001ZM10.1685 18.52L9.10454 19.584C6.63254 18.416 4.83254 16.088 4.39254 13.296C4.34454 12.968 4.04054 12.744 3.70454 12.8C3.37654 12.848 3.15254 13.16 3.20854 13.488C3.68854 16.536 5.57654 19.096 8.20054 20.488C9.45654 21.152 11.0405 21.632 12.8405 21.592C12.9845 21.592 13.0485 21.416 12.9525 21.312L10.1685 18.52Z" fill="#808080"/>
</svg>
