<svg width="24" height="24" viewBox="0 0 24 24" fill="none" xmlns="http://www.w3.org/2000/svg">
<path fill-rule="evenodd" clip-rule="evenodd" d="M18.4 16.8C19.28 16.8 20 16.08 20 15.2V7.19998C20 6.31998 19.28 5.59998 18.4 5.59998H5.60002C4.72002 5.59998 4.00002 6.31998 4.00002 7.19998V15.2C4.00002 16.08 4.71202 16.8 5.60002 16.8H3.20002C2.76002 16.8 2.40002 17.16 2.40002 17.6C2.40002 18.04 2.76002 18.4 3.20002 18.4H20.8C21.24 18.4 21.6 18.04 21.6 17.6C21.6 17.16 21.24 16.8 20.8 16.8H18.4ZM12.8 13.976V12.224C10.576 12.224 9.11202 12.904 8.00002 14.4C8.44802 12.264 9.68802 10.136 12.8 9.70398V7.99998L15.688 10.688C15.856 10.848 15.856 11.112 15.688 11.272L12.8 13.976Z" fill="#808080"/>
</svg>
