<svg width="24" height="24" viewBox="0 0 24 24" fill="none" xmlns="http://www.w3.org/2000/svg">
<path fill-rule="evenodd" clip-rule="evenodd" d="M16.8001 4H11.0641C10.6401 4 10.2321 4.168 9.9281 4.472L6.0801 8.336C5.7841 8.632 5.6001 9.04 5.6001 9.456V18.4C5.6001 19.28 6.3201 20 7.2001 20H16.8001C17.6801 20 18.4001 19.28 18.4001 18.4V5.6C18.4001 4.72 17.6801 4 16.8001 4ZM11.2001 8.8C10.7601 8.8 10.4001 8.44 10.4001 8V6.4C10.4001 5.96 10.7601 5.6 11.2001 5.6C11.6401 5.6 12.0001 5.96 12.0001 6.4V8C12.0001 8.44 11.6401 8.8 11.2001 8.8ZM13.6001 8.8C13.1601 8.8 12.8001 8.44 12.8001 8V6.4C12.8001 5.96 13.1601 5.6 13.6001 5.6C14.0401 5.6 14.4001 5.96 14.4001 6.4V8C14.4001 8.44 14.0401 8.8 13.6001 8.8ZM16.0001 8.8C15.5601 8.8 15.2001 8.44 15.2001 8V6.4C15.2001 5.96 15.5601 5.6 16.0001 5.6C16.4401 5.6 16.8001 5.96 16.8001 6.4V8C16.8001 8.44 16.4401 8.8 16.0001 8.8Z" fill="#808080"/>
</svg>
