<svg width="24" height="24" viewBox="0 0 24 24" fill="none" xmlns="http://www.w3.org/2000/svg">
<path fill-rule="evenodd" clip-rule="evenodd" d="M16.8001 4H11.0641C10.6401 4 10.2321 4.168 9.9281 4.472L6.0801 8.336C5.7841 8.632 5.6161 9.04 5.6161 9.456L5.6001 18.4C5.6001 19.28 6.3201 20 7.2001 20H16.8001C17.6801 20 18.4001 19.28 18.4001 18.4V5.6C18.4001 4.72 17.6801 4 16.8001 4ZM12.8001 16H11.2001V14.4H12.8001V16ZM12.0001 12.8C11.5601 12.8 11.2001 12.44 11.2001 12V9.6C11.2001 9.16 11.5601 8.8 12.0001 8.8C12.4401 8.8 12.8001 9.16 12.8001 9.6V12C12.8001 12.44 12.4401 12.8 12.0001 12.8Z" fill="#808080"/>
</svg>
