<svg width="24" height="24" viewBox="0 0 24 24" fill="none" xmlns="http://www.w3.org/2000/svg">
<path fill-rule="evenodd" clip-rule="evenodd" d="M16.8 4H11.064C10.64 4 10.232 4.168 9.92798 4.472L6.07998 8.336C5.78398 8.632 5.59998 9.04 5.59998 9.456V18.4C5.59998 19.28 6.31998 20 7.19998 20H16.8C17.68 20 18.4 19.28 18.4 18.4V5.6C18.4 4.72 17.68 4 16.8 4ZM11.2 8.8C10.76 8.8 10.4 8.44 10.4 8V6.4C10.4 5.96 10.76 5.6 11.2 5.6C11.64 5.6 12 5.96 12 6.4V8C12 8.44 11.64 8.8 11.2 8.8ZM13.6 8.8C13.16 8.8 12.8 8.44 12.8 8V6.4C12.8 5.96 13.16 5.6 13.6 5.6C14.04 5.6 14.4 5.96 14.4 6.4V8C14.4 8.44 14.04 8.8 13.6 8.8ZM16 8.8C15.56 8.8 15.2 8.44 15.2 8V6.4C15.2 5.96 15.56 5.6 16 5.6C16.44 5.6 16.8 5.96 16.8 6.4V8C16.8 8.44 16.44 8.8 16 8.8Z" fill="#808080"/>
</svg>
