<svg width="24" height="24" viewBox="0 0 24 24" fill="none" xmlns="http://www.w3.org/2000/svg">
<path fill-rule="evenodd" clip-rule="evenodd" d="M4.80005 6.39999H6.40005V4.79999C5.52005 4.79999 4.80005 5.51999 4.80005 6.39999ZM4.80005 12.8H6.40005V11.2H4.80005V12.8ZM8.00005 19.2H9.60005V17.6H8.00005V19.2ZM4.80005 9.59999H6.40005V7.99999H4.80005V9.59999ZM12.8 4.79999H11.2V6.39999H12.8V4.79999ZM17.6 4.79999V6.39999H19.2C19.2 5.51999 18.48 4.79999 17.6 4.79999ZM6.40005 19.2V17.6H4.80005C4.80005 18.48 5.52005 19.2 6.40005 19.2ZM4.80005 16H6.40005V14.4H4.80005V16ZM9.60005 4.79999H8.00005V6.39999H9.60005V4.79999ZM11.2 19.2H12.8V17.6H11.2V19.2ZM17.6 12.8H19.2V11.2H17.6V12.8ZM17.6 19.2C18.48 19.2 19.2 18.48 19.2 17.6H17.6V19.2ZM17.6 9.59999H19.2V7.99999H17.6V9.59999ZM17.6 16H19.2V14.4H17.6V16ZM14.4 19.2H16V17.6H14.4V19.2ZM14.4 6.39999H16V4.79999H14.4V6.39999ZM8.80005 16H15.2C15.64 16 16 15.64 16 15.2V8.79999C16 8.35999 15.64 7.99999 15.2 7.99999H8.80005C8.36005 7.99999 8.00005 8.35999 8.00005 8.79999V15.2C8.00005 15.64 8.36005 16 8.80005 16ZM9.60005 9.59999H14.4V14.4H9.60005V9.59999Z" fill="#808080"/>
</svg>
