<svg width="24" height="24" viewBox="0 0 24 24" fill="none" xmlns="http://www.w3.org/2000/svg">
<path fill-rule="evenodd" clip-rule="evenodd" d="M9.504 10.352L9.928 10.776C10.16 11.008 10.544 11.008 10.776 10.776C11.008 10.544 11.008 10.16 10.776 9.928L10.072 9.224C9.92253 9.0742 9.71961 8.99001 9.508 8.99001C9.29639 8.99001 9.09347 9.0742 8.944 9.224L8.232 9.928C8 10.16 8 10.544 8.232 10.776C8.464 11.008 8.848 11.008 9.08 10.776L9.504 10.352ZM12 16.4C13.624 16.4 15.04 15.512 15.8 14.2C15.952 13.936 15.76 13.6 15.448 13.6H8.552C8.248 13.6 8.048 13.936 8.2 14.2C8.96 15.512 10.376 16.4 12 16.4ZM13.224 10.776C13.456 11.008 13.84 11.008 14.072 10.776L14.496 10.352L14.92 10.776C15.152 11.008 15.536 11.008 15.768 10.776C16 10.544 16 10.16 15.768 9.928L15.064 9.224C14.9145 9.0742 14.7116 8.99001 14.5 8.99001C14.2884 8.99001 14.0855 9.0742 13.936 9.224L13.232 9.928C12.992 10.16 12.992 10.544 13.224 10.776ZM11.992 4C7.576 4 4 7.576 4 12C4 16.424 7.576 20 11.992 20C16.408 20 20 16.424 20 12C20 7.576 16.416 4 11.992 4ZM12 18.4C8.464 18.4 5.6 15.536 5.6 12C5.6 8.464 8.464 5.6 12 5.6C15.536 5.6 18.4 8.464 18.4 12C18.4 15.536 15.536 18.4 12 18.4Z" fill="#808080"/>
</svg>
