<svg width="24" height="24" viewBox="0 0 24 24" fill="none" xmlns="http://www.w3.org/2000/svg">
<path fill-rule="evenodd" clip-rule="evenodd" d="M12 13.2C10.376 13.2 8.96 14.088 8.2 15.4C8.048 15.664 8.248 16 8.552 16H15.448C15.752 16 15.952 15.664 15.8 15.4C15.04 14.088 13.624 13.2 12 13.2ZM9.08 11.576L9.504 11.152L9.928 11.576C10.16 11.808 10.544 11.808 10.776 11.576C11.008 11.344 11.008 10.96 10.776 10.728L10.352 10.304L10.776 9.88C11.008 9.648 11.008 9.264 10.776 9.032C10.544 8.8 10.16 8.8 9.928 9.032L9.504 9.456L9.08 9.032C8.848 8.8 8.464 8.8 8.232 9.032C8 9.264 8 9.648 8.232 9.88L8.656 10.304L8.232 10.728C8 10.96 8 11.344 8.232 11.576C8.464 11.808 8.848 11.808 9.08 11.576ZM11.992 4C7.576 4 4 7.576 4 12C4 16.424 7.576 20 11.992 20C16.408 20 20 16.424 20 12C20 7.576 16.416 4 11.992 4ZM12 18.4C8.464 18.4 5.6 15.536 5.6 12C5.6 8.464 8.464 5.6 12 5.6C15.536 5.6 18.4 8.464 18.4 12C18.4 15.536 15.536 18.4 12 18.4ZM14.92 9.032L14.496 9.456L14.072 9.032C13.84 8.8 13.456 8.8 13.224 9.032C12.992 9.264 12.992 9.648 13.224 9.88L13.648 10.304L13.224 10.728C12.992 10.96 12.992 11.344 13.224 11.576C13.456 11.808 13.84 11.808 14.072 11.576L14.496 11.152L14.92 11.576C15.152 11.808 15.536 11.808 15.768 11.576C16 11.344 16 10.96 15.768 10.728L15.344 10.304L15.768 9.88C16 9.648 16 9.264 15.768 9.032C15.536 8.8 15.152 8.8 14.92 9.032Z" fill="#808080"/>
</svg>
