<svg width="24" height="24" viewBox="0 0 24 24" fill="none" xmlns="http://www.w3.org/2000/svg">
<path fill-rule="evenodd" clip-rule="evenodd" d="M14.8 8.8C14.1373 8.8 13.6 9.33726 13.6 10C13.6 10.6627 14.1373 11.2 14.8 11.2C15.4627 11.2 16 10.6627 16 10C16 9.33726 15.4627 8.8 14.8 8.8ZM9.2 8.8C8.53726 8.8 8 9.33726 8 10C8 10.6627 8.53726 11.2 9.2 11.2C9.86274 11.2 10.4 10.6627 10.4 10C10.4 9.33726 9.86274 8.8 9.2 8.8ZM11.992 4C7.576 4 4 7.584 4 12C4 16.416 7.576 20 11.992 20C16.416 20 20 16.416 20 12C20 7.584 16.416 4 11.992 4ZM12 18.4C8.464 18.4 5.6 15.536 5.6 12C5.6 8.464 8.464 5.6 12 5.6C15.536 5.6 18.4 8.464 18.4 12C18.4 15.536 15.536 18.4 12 18.4ZM12 13.6C10.48 13.6 9.096 14.376 8.28 15.664C8.104 15.944 8.192 16.312 8.472 16.488C8.752 16.664 9.12 16.576 9.296 16.296C9.888 15.352 10.896 14.792 12 14.792C13.104 14.792 14.112 15.352 14.704 16.296C14.816 16.48 15.016 16.576 15.216 16.576C15.328 16.576 15.432 16.544 15.536 16.488C15.816 16.312 15.904 15.944 15.728 15.664C14.904 14.368 13.52 13.6 12 13.6Z" fill="#808080"/>
</svg>
