<svg width="24" height="24" viewBox="0 0 24 24" fill="none" xmlns="http://www.w3.org/2000/svg">
<path fill-rule="evenodd" clip-rule="evenodd" d="M14.8 8.8C14.1373 8.8 13.6 9.33726 13.6 10C13.6 10.6627 14.1373 11.2 14.8 11.2C15.4627 11.2 16 10.6627 16 10C16 9.33726 15.4627 8.8 14.8 8.8ZM9.2 8.8C8.53726 8.8 8 9.33726 8 10C8 10.6627 8.53726 11.2 9.2 11.2C9.86274 11.2 10.4 10.6627 10.4 10C10.4 9.33726 9.86274 8.8 9.2 8.8ZM11.992 4C7.576 4 4 7.584 4 12C4 16.416 7.576 20 11.992 20C16.416 20 20 16.416 20 12C20 7.584 16.416 4 11.992 4ZM12 18.4C8.464 18.4 5.6 15.536 5.6 12C5.6 8.464 8.464 5.6 12 5.6C15.536 5.6 18.4 8.464 18.4 12C18.4 15.536 15.536 18.4 12 18.4ZM15.528 13.512C15.248 13.336 14.872 13.424 14.704 13.704C14.112 14.64 13.104 15.2 12 15.2C10.896 15.2 9.888 14.64 9.296 13.696C9.12 13.416 8.752 13.328 8.472 13.504C8.192 13.68 8.104 14.048 8.28 14.328C9.096 15.632 10.48 16.4 12 16.4C13.52 16.4 14.904 15.624 15.72 14.336C15.896 14.056 15.808 13.688 15.528 13.512Z" fill="#808080"/>
</svg>
