<svg width="24" height="24" viewBox="0 0 24 24" fill="none" xmlns="http://www.w3.org/2000/svg">
<path fill-rule="evenodd" clip-rule="evenodd" d="M16.8 8V5.6C16.8 4.72 16.08 4 15.2 4H8.79999C7.91999 4 7.19999 4.72 7.19999 5.6V8C6.75999 8 6.39999 8.36 6.39999 8.8V12.56C6.39999 12.72 6.44799 12.872 6.53599 13L8.79999 17.6V19.2C8.79999 19.64 9.15999 20 9.59999 20H14.4C14.84 20 15.2 19.64 15.2 19.2V17.6L17.464 13C17.552 12.872 17.6 12.712 17.6 12.56V8.8C17.6 8.36 17.24 8 16.8 8ZM15.2 8H13.6V6.8C13.6 6.576 13.424 6.4 13.2 6.4C12.976 6.4 12.8 6.576 12.8 6.8V8H11.2V6.8C11.2 6.576 11.024 6.4 10.8 6.4C10.576 6.4 10.4 6.576 10.4 6.8V8H8.79999V5.6H15.2V8Z" fill="#808080"/>
</svg>
