<svg width="24" height="24" viewBox="0 0 24 24" fill="none" xmlns="http://www.w3.org/2000/svg">
<path fill-rule="evenodd" clip-rule="evenodd" d="M11.696 7.19205L10.4 8.80005H13.6L12.32 7.19205C12.16 6.99205 11.856 6.99205 11.696 7.19205ZM16.8 10.4V13.6L18.408 12.32C18.608 12.16 18.608 11.856 18.408 11.696L16.8 10.4ZM7.2 10.4L5.592 11.696C5.392 11.856 5.392 12.16 5.592 12.32L7.2 13.6V10.4ZM13.6 15.2H10.4L11.696 16.808C11.856 17.008 12.16 17.008 12.32 16.808L13.6 15.2ZM19.2 4.80005H4.8C3.92 4.80005 3.2 5.52005 3.2 6.40005V17.6C3.2 18.48 3.92 19.2 4.8 19.2H19.2C20.08 19.2 20.8 18.48 20.8 17.6V6.40005C20.8 5.52005 20.08 4.80005 19.2 4.80005ZM18.4 17.608H5.6C5.16 17.608 4.8 17.248 4.8 16.808V7.19205C4.8 6.75205 5.16 6.39205 5.6 6.39205H18.4C18.84 6.39205 19.2 6.75205 19.2 7.19205V16.808C19.2 17.248 18.84 17.608 18.4 17.608Z" fill="#808080"/>
</svg>
