<svg width="24" height="24" viewBox="0 0 24 24" fill="none" xmlns="http://www.w3.org/2000/svg">
<path fill-rule="evenodd" clip-rule="evenodd" d="M11.963 7.2C9.17899 7.2 6.86699 9.232 6.43499 11.896C6.35499 12.368 6.74699 12.8 7.23499 12.8C7.62699 12.8 7.95499 12.512 8.01899 12.12C8.34699 10.232 9.98699 8.8 11.963 8.8C13.939 8.8 15.579 10.232 15.907 12.12C15.971 12.512 16.299 12.8 16.691 12.8C17.179 12.8 17.563 12.368 17.483 11.896C17.059 9.232 14.747 7.2 11.963 7.2ZM12.763 14.632C13.619 14.248 14.171 13.304 13.891 12.24C13.715 11.592 13.195 11.064 12.547 10.88C11.195 10.496 9.96299 11.504 9.96299 12.8C9.96299 13.616 10.459 14.32 11.163 14.632V17.272L8.99499 19.432C8.68299 19.744 8.68299 20.248 8.99499 20.56C9.30699 20.872 9.81099 20.872 10.123 20.56L11.963 18.72L13.803 20.56C14.115 20.872 14.619 20.872 14.931 20.56C15.243 20.248 15.243 19.744 14.931 19.432L12.763 17.272V14.632ZM11.963 4C7.40299 4 3.65099 7.472 3.20299 11.92C3.16299 12.392 3.53099 12.8 4.00299 12.8C4.41099 12.8 4.75499 12.496 4.79499 12.096C5.14699 8.448 8.22699 5.6 11.963 5.6C15.699 5.6 18.779 8.448 19.131 12.096C19.171 12.496 19.515 12.8 19.923 12.8C20.395 12.8 20.771 12.392 20.723 11.92C20.275 7.472 16.523 4 11.963 4Z" fill="#808080"/>
</svg>
