<svg width="24" height="24" viewBox="0 0 24 24" fill="none" xmlns="http://www.w3.org/2000/svg">
<path fill-rule="evenodd" clip-rule="evenodd" d="M8.80001 11.6C8.80001 10.936 8.26401 10.4 7.60001 10.4C6.93601 10.4 6.40001 10.936 6.40001 11.6C6.40001 12.264 6.93601 12.8 7.60001 12.8C8.26401 12.8 8.80001 12.264 8.80001 11.6ZM14.4 7.60001C14.4 6.93601 13.864 6.40001 13.2 6.40001H10.8C10.136 6.40001 9.60001 6.93601 9.60001 7.60001C9.60001 8.26401 10.136 8.80001 10.8 8.80001H13.2C13.864 8.80001 14.4 8.26401 14.4 7.60001ZM9.20001 14.4C8.53601 14.4 8.00001 14.936 8.00001 15.6C8.00001 16.264 8.53601 16.8 9.20001 16.8C9.86401 16.8 10.4 16.264 10.4 15.6C10.4 14.936 9.86401 14.4 9.20001 14.4ZM12 3.20001C7.14401 3.20001 3.20001 7.14401 3.20001 12C3.20001 16.856 7.14401 20.8 12 20.8C16.856 20.8 20.8 16.856 20.8 12C20.8 7.14401 16.856 3.20001 12 3.20001ZM12 19.2C8.03201 19.2 4.80001 15.968 4.80001 12C4.80001 8.03201 8.03201 4.80001 12 4.80001C15.968 4.80001 19.2 8.03201 19.2 12C19.2 15.968 15.968 19.2 12 19.2ZM16.4 10.4C15.736 10.4 15.2 10.936 15.2 11.6C15.2 12.264 15.736 12.8 16.4 12.8C17.064 12.8 17.6 12.264 17.6 11.6C17.6 10.936 17.064 10.4 16.4 10.4ZM14.8 14.4C14.136 14.4 13.6 14.936 13.6 15.6C13.6 16.264 14.136 16.8 14.8 16.8C15.464 16.8 16 16.264 16 15.6C16 14.936 15.464 14.4 14.8 14.4Z" fill="#808080"/>
</svg>
