<svg width="24" height="24" viewBox="0 0 24 24" fill="none" xmlns="http://www.w3.org/2000/svg">
<path fill-rule="evenodd" clip-rule="evenodd" d="M14.6332 12.0028C14.6332 11.1228 13.9132 10.4028 13.0332 10.4028C12.1532 10.4028 11.4332 11.1228 11.4332 12.0028C11.4332 12.8828 12.1532 13.6028 13.0332 13.6028C13.9132 13.6028 14.6332 12.8828 14.6332 12.0028ZM13.2412 4.80278C9.16923 4.69078 5.83323 7.96278 5.83323 12.0028H4.40123C4.04123 12.0028 3.86523 12.4348 4.12123 12.6828L6.35323 14.9148C6.51323 15.0748 6.76123 15.0748 6.92123 14.9148L9.15323 12.6828C9.40123 12.4348 9.22523 12.0028 8.86523 12.0028H7.43323C7.43323 8.88278 9.97723 6.36278 13.1132 6.40278C16.0892 6.44278 18.5932 8.94678 18.6332 11.9228C18.6732 15.0508 16.1532 17.6028 13.0332 17.6028C12.0332 17.6028 11.0972 17.3308 10.2812 16.8748C9.96923 16.6988 9.58523 16.7628 9.33723 17.0188C8.96923 17.3868 9.04123 18.0188 9.49723 18.2748C10.5452 18.8588 11.7452 19.2028 13.0332 19.2028C17.0732 19.2028 20.3452 15.8668 20.2332 11.7948C20.1292 8.04278 16.9932 4.90678 13.2412 4.80278Z" fill="#808080"/>
</svg>
