<svg width="24" height="24" viewBox="0 0 24 24" fill="none" xmlns="http://www.w3.org/2000/svg">
<path fill-rule="evenodd" clip-rule="evenodd" d="M19.2 4.79999H4.8C3.92 4.79999 3.2 5.51999 3.2 6.39999V17.6C3.2 18.48 3.92 19.2 4.8 19.2H19.2C20.08 19.2 20.8 18.48 20.8 17.6V6.39999C20.8 5.51999 20.08 4.79999 19.2 4.79999ZM18.4 17.608H5.6C5.16 17.608 4.8 17.248 4.8 16.808V7.19199C4.8 6.75199 5.16 6.39199 5.6 6.39199H18.4C18.84 6.39199 19.2 6.75199 19.2 7.19199V16.808C19.2 17.248 18.84 17.608 18.4 17.608ZM9.2 15.2H10.8L11.72 16.12C11.88 16.28 12.128 16.28 12.288 16.12L13.2 15.2H14.8C15.024 15.2 15.2 15.024 15.2 14.8V13.2L16.12 12.28C16.28 12.12 16.28 11.872 16.12 11.712L15.2 10.8V9.19999C15.2 8.97599 15.024 8.79999 14.8 8.79999H13.2L12.28 7.87999C12.12 7.71999 11.872 7.71999 11.712 7.87999L10.8 8.79999H9.2C8.976 8.79999 8.8 8.97599 8.8 9.19999V10.8L7.88 11.72C7.72 11.88 7.72 12.128 7.88 12.288L8.8 13.2V14.8C8.8 15.024 8.976 15.2 9.2 15.2ZM12 9.59999C13.328 9.59999 14.4 10.672 14.4 12C14.4 13.328 13.328 14.4 12 14.4V9.59999Z" fill="#808080"/>
</svg>
