<svg width="24" height="24" viewBox="0 0 24 24" fill="none" xmlns="http://www.w3.org/2000/svg">
<path fill-rule="evenodd" clip-rule="evenodd" d="M9.59995 15.2H14.8C15.904 15.2 16.8 14.304 16.8 13.2C16.8 12.096 15.904 11.2 14.8 11.2H14.76C14.568 9.84799 13.408 8.79999 12 8.79999C10.88 8.79999 9.91995 9.46399 9.47195 10.416H9.34395C8.13595 10.544 7.19995 11.56 7.19995 12.8C7.19995 14.128 8.27195 15.2 9.59995 15.2ZM19.2 4.79999H4.79995C3.91995 4.79999 3.19995 5.51999 3.19995 6.39999V17.6C3.19995 18.48 3.91995 19.2 4.79995 19.2H19.2C20.08 19.2 20.8 18.48 20.8 17.6V6.39999C20.8 5.51999 20.08 4.79999 19.2 4.79999ZM18.4 17.608H5.59995C5.15995 17.608 4.79995 17.248 4.79995 16.808V7.19199C4.79995 6.75199 5.15995 6.39199 5.59995 6.39199H18.4C18.84 6.39199 19.2 6.75199 19.2 7.19199V16.808C19.2 17.248 18.84 17.608 18.4 17.608Z" fill="#808080"/>
</svg>
