<svg width="24" height="24" viewBox="0 0 24 24" fill="none" xmlns="http://www.w3.org/2000/svg">
<path fill-rule="evenodd" clip-rule="evenodd" d="M6.40001 4.00001C6.40001 3.56001 6.04001 3.20001 5.60001 3.20001C5.16001 3.20001 4.80001 3.56001 4.80001 4.00001V7.20001H4.00001C3.56001 7.20001 3.20001 7.56001 3.20001 8.00001V12H8.00001V8.00001C8.00001 7.56001 7.64001 7.20001 7.20001 7.20001H6.40001V4.00001ZM9.60001 15.2C9.60001 16.24 10.272 17.12 11.2 17.456V20C11.2 20.44 11.56 20.8 12 20.8C12.44 20.8 12.8 20.44 12.8 20V17.456C13.728 17.128 14.4 16.248 14.4 15.2V13.6H9.60001V15.2ZM3.20001 15.2C3.20001 16.24 3.87201 17.12 4.80001 17.456V20C4.80001 20.44 5.16001 20.8 5.60001 20.8C6.04001 20.8 6.40001 20.44 6.40001 20V17.456C7.32801 17.12 8.00001 16.24 8.00001 15.2V13.6H3.20001V15.2ZM19.2 7.20001V4.00001C19.2 3.56001 18.84 3.20001 18.4 3.20001C17.96 3.20001 17.6 3.56001 17.6 4.00001V7.20001H16.8C16.36 7.20001 16 7.56001 16 8.00001V12H20.8V8.00001C20.8 7.56001 20.44 7.20001 20 7.20001H19.2ZM12.8 4.00001C12.8 3.56001 12.44 3.20001 12 3.20001C11.56 3.20001 11.2 3.56001 11.2 4.00001V7.20001H10.4C9.96001 7.20001 9.60001 7.56001 9.60001 8.00001V12H14.4V8.00001C14.4 7.56001 14.04 7.20001 13.6 7.20001H12.8V4.00001ZM16 15.2C16 16.24 16.672 17.12 17.6 17.456V20C17.6 20.44 17.96 20.8 18.4 20.8C18.84 20.8 19.2 20.44 19.2 20V17.456C20.128 17.128 20.8 16.248 20.8 15.2V13.6H16V15.2Z" fill="#808080"/>
</svg>
