<svg width="24" height="24" viewBox="0 0 24 24" fill="none" xmlns="http://www.w3.org/2000/svg">
<path fill-rule="evenodd" clip-rule="evenodd" d="M8.00376 20.8H9.60376V19.2H8.00376V20.8ZM11.2038 20.8H12.8038V19.2H11.2038V20.8ZM12.0038 3.19995C11.5638 3.19995 11.2038 3.55995 11.2038 3.99995V10.4C11.2038 10.84 11.5638 11.2 12.0038 11.2C12.4438 11.2 12.8038 10.84 12.8038 10.4V3.99995C12.8038 3.55995 12.4438 3.19995 12.0038 3.19995ZM15.1558 5.64795L15.1398 5.66395C14.8118 5.99195 14.8518 6.52795 15.2038 6.83195C16.4118 7.90395 17.0678 9.57595 16.7078 11.392C16.3398 13.216 14.8758 14.704 13.0598 15.088C9.94776 15.752 7.20376 13.392 7.20376 10.4C7.20376 8.97595 7.82776 7.70395 8.81176 6.82395C9.15576 6.51195 9.18776 5.99195 8.86776 5.66395L8.85176 5.64795C8.55576 5.35195 8.08376 5.33595 7.76376 5.61595C6.15576 7.03195 5.26776 9.23995 5.71576 11.632C6.18776 14.152 8.20376 16.192 10.7238 16.68C14.8198 17.472 18.4038 14.36 18.4038 10.4C18.4038 8.49595 17.5638 6.78395 16.2358 5.60795C15.9238 5.33595 15.4518 5.35195 15.1558 5.64795ZM14.4038 20.8H16.0038V19.2H14.4038V20.8Z" fill="#808080"/>
</svg>
