<svg width="24" height="24" viewBox="0 0 24 24" fill="none" xmlns="http://www.w3.org/2000/svg">
<path fill-rule="evenodd" clip-rule="evenodd" d="M11.65 19.7153H13.25V21.3153H11.65V19.7153ZM8.45 19.7153H10.05V21.3153H8.45V19.7153ZM14.85 19.7153H16.45V21.3153H14.85V19.7153ZM13.578 10.1153L16.474 7.21929C16.626 7.06729 16.706 6.86729 16.706 6.65129C16.706 6.43529 16.618 6.23529 16.474 6.08329L13.01 2.63529C12.778 2.40329 12.434 2.33929 12.138 2.45929C11.842 2.57929 11.65 2.87529 11.65 3.19529V8.17929L8.562 5.09929C8.25 4.78729 7.746 4.78729 7.434 5.09929C7.122 5.41129 7.122 5.91529 7.434 6.22729L11.314 10.1153L7.434 13.9953C7.122 14.3073 7.122 14.8113 7.434 15.1233C7.746 15.4353 8.25 15.4353 8.562 15.1233L11.65 12.0433V17.0273C11.65 17.3473 11.842 17.6433 12.146 17.7633C12.242 17.8033 12.346 17.8273 12.45 17.8273C12.658 17.8273 12.866 17.7473 13.018 17.5953L16.474 14.1393C16.626 13.9873 16.706 13.7873 16.706 13.5713C16.706 13.3553 16.618 13.1553 16.474 13.0033L13.578 10.1153ZM13.25 5.13129L14.778 6.65929L13.25 8.17929V5.13129ZM13.25 15.0993V12.0433L14.778 13.5713L13.25 15.0993Z" fill="#808080"/>
</svg>
