<svg width="24" height="24" viewBox="0 0 24 24" fill="none" xmlns="http://www.w3.org/2000/svg">
<path fill-rule="evenodd" clip-rule="evenodd" d="M12 10.4C11.12 10.4 10.4 11.12 10.4 12C10.4 12.88 11.12 13.6 12 13.6C12.88 13.6 13.6 12.88 13.6 12C13.6 11.12 12.88 10.4 12 10.4ZM17.6 4.79999H6.39999C5.51199 4.79999 4.79999 5.51999 4.79999 6.39999V17.6C4.79999 18.48 5.51199 19.2 6.39999 19.2H17.6C18.488 19.2 19.2 18.48 19.2 17.6V6.39999C19.2 5.51999 18.488 4.79999 17.6 4.79999ZM16.2 12C16.2 12.184 16.184 12.368 16.16 12.544L17.344 13.472C17.448 13.56 17.48 13.712 17.408 13.832L16.288 15.768C16.216 15.888 16.072 15.936 15.944 15.888L14.552 15.328C14.264 15.552 13.944 15.736 13.608 15.88L13.4 17.36C13.376 17.496 13.256 17.6 13.12 17.6H10.88C10.744 17.6 10.624 17.496 10.6 17.368L10.392 15.888C10.048 15.744 9.73599 15.56 9.44799 15.336L8.05599 15.896C7.92799 15.944 7.78399 15.896 7.71199 15.776L6.59199 13.84C6.51999 13.72 6.55199 13.568 6.65599 13.48L7.83999 12.552C7.81599 12.368 7.79999 12.184 7.79999 12C7.79999 11.816 7.81599 11.632 7.83999 11.456L6.65599 10.528C6.55199 10.44 6.51999 10.288 6.59199 10.168L7.71199 8.23199C7.78399 8.11199 7.92799 8.06399 8.05599 8.11199L9.44799 8.67199C9.73599 8.44799 10.056 8.26399 10.392 8.11999L10.6 6.63999C10.624 6.50399 10.744 6.39999 10.88 6.39999H13.12C13.256 6.39999 13.376 6.50399 13.4 6.63199L13.608 8.11199C13.952 8.25599 14.264 8.43999 14.552 8.66399L15.944 8.10399C16.072 8.05599 16.216 8.10399 16.288 8.22399L17.408 10.16C17.48 10.28 17.448 10.432 17.344 10.52L16.16 11.448C16.184 11.632 16.2 11.816 16.2 12Z" fill="#808080"/>
</svg>
