<svg width="24" height="24" viewBox="0 0 24 24" fill="none" xmlns="http://www.w3.org/2000/svg">
<path fill-rule="evenodd" clip-rule="evenodd" d="M11.1789 9.59205H12.7789V11.192H11.1789V9.59205ZM14.3789 9.59205H15.9789V11.192H14.3789V9.59205ZM17.5789 9.59205H19.1789V11.192H17.5789V9.59205ZM17.7629 14.6L15.7309 14.368C15.2429 14.312 14.7629 14.48 14.4189 14.824L12.9469 16.296C10.6829 15.144 8.82694 13.296 7.67494 11.024L9.15494 9.54405C9.49894 9.20005 9.66694 8.72005 9.61094 8.23205L9.37894 6.21605C9.28294 5.40805 8.60294 4.80005 7.78694 4.80005H6.40294C5.49894 4.80005 4.74694 5.55205 4.80294 6.45605C5.22694 13.288 10.6909 18.744 17.5149 19.168C18.4189 19.224 19.1709 18.472 19.1709 17.568V16.184C19.1789 15.376 18.5709 14.696 17.7629 14.6Z" fill="#808080"/>
</svg>
