<svg width="24" height="24" viewBox="0 0 24 24" fill="none" xmlns="http://www.w3.org/2000/svg">
<path fill-rule="evenodd" clip-rule="evenodd" d="M14.6572 10.4H9.85722C9.41722 10.4 9.05722 10.76 9.05722 11.2V20.8C9.05722 21.24 9.41722 21.6 9.85722 21.6H14.6572C15.0972 21.6 15.4572 21.24 15.4572 20.8V11.2C15.4572 10.76 15.0972 10.4 14.6572 10.4ZM12.2572 15.2C11.3772 15.2 10.6572 14.48 10.6572 13.6C10.6572 12.72 11.3772 12 12.2572 12C13.1372 12 13.8572 12.72 13.8572 13.6C13.8572 14.48 13.1372 15.2 12.2572 15.2ZM8.91322 8.65595C9.19322 8.93595 9.63322 8.95995 9.95322 8.73595C10.6012 8.27195 11.4012 7.99995 12.2572 7.99995C13.1132 7.99995 13.9132 8.27195 14.5612 8.72795C14.8812 8.95195 15.3212 8.93595 15.6012 8.65595C15.9452 8.31195 15.9132 7.74395 15.5292 7.45595C14.6092 6.79195 13.4812 6.39995 12.2572 6.39995C11.0332 6.39995 9.90522 6.79195 8.98522 7.45595C8.59322 7.73595 8.56922 8.31195 8.91322 8.65595ZM12.2572 3.19995C10.1452 3.19995 8.20922 3.94395 6.69722 5.17595C6.32922 5.47995 6.29722 6.03195 6.63322 6.36795C6.92122 6.65595 7.37722 6.67995 7.68922 6.42395C8.92922 5.41595 10.5212 4.79995 12.2572 4.79995C13.9932 4.79995 15.5852 5.41595 16.8172 6.43195C17.1292 6.68795 17.5852 6.66395 17.8732 6.37595C18.2092 6.03995 18.1772 5.48795 17.8092 5.18395C16.3052 3.94395 14.3692 3.19995 12.2572 3.19995Z" fill="#808080"/>
</svg>
