<svg width="24" height="24" viewBox="0 0 24 24" fill="none" xmlns="http://www.w3.org/2000/svg">
<path fill-rule="evenodd" clip-rule="evenodd" d="M17.7275 12.784C17.7595 12.528 17.7835 12.272 17.7835 12C17.7835 11.728 17.7595 11.472 17.7275 11.216L19.4155 9.896C19.5675 9.776 19.6075 9.56 19.5115 9.384L17.9115 6.616C17.8155 6.44 17.5995 6.376 17.4235 6.44L15.4315 7.24C15.0155 6.92 14.5675 6.656 14.0795 6.456L13.7755 4.336C13.7515 4.144 13.5835 4 13.3835 4H10.1835C9.98347 4 9.81547 4.144 9.79147 4.336L9.48747 6.456C8.99947 6.656 8.55147 6.928 8.13547 7.24L6.14347 6.44C5.95947 6.368 5.75147 6.44 5.65547 6.616L4.05547 9.384C3.95147 9.56 3.99947 9.776 4.15147 9.896L5.83947 11.216C5.80747 11.472 5.78347 11.736 5.78347 12C5.78347 12.264 5.80747 12.528 5.83947 12.784L4.15147 14.104C3.99947 14.224 3.95947 14.44 4.05547 14.616L5.65547 17.384C5.75147 17.56 5.96747 17.624 6.14347 17.56L8.13547 16.76C8.55147 17.08 8.99947 17.344 9.48747 17.544L9.79147 19.664C9.81547 19.856 9.98347 20 10.1835 20H13.3835C13.5835 20 13.7515 19.856 13.7755 19.664L14.0795 17.544C14.5675 17.344 15.0155 17.072 15.4315 16.76L17.4235 17.56C17.6075 17.632 17.8155 17.56 17.9115 17.384L19.5115 14.616C19.6075 14.44 19.5675 14.224 19.4155 14.104L17.7275 12.784ZM11.7835 14.8C10.2395 14.8 8.98347 13.544 8.98347 12C8.98347 10.456 10.2395 9.2 11.7835 9.2C13.3275 9.2 14.5835 10.456 14.5835 12C14.5835 13.544 13.3275 14.8 11.7835 14.8Z" fill="#808080"/>
</svg>
