<svg width="24" height="24" viewBox="0 0 24 24" fill="none" xmlns="http://www.w3.org/2000/svg">
<path fill-rule="evenodd" clip-rule="evenodd" d="M7.90601 7.38512C7.56201 7.10512 7.05801 7.14512 6.77801 7.48912L3.38601 11.5771C3.13801 11.8731 3.13801 12.3051 3.38601 12.6011L6.77801 16.6891C7.05801 17.0331 7.56201 17.0731 7.90601 16.7931C8.25001 16.5131 8.29001 16.0091 8.01001 15.6651L5.04201 12.0891L8.01001 8.51312C8.29001 8.16912 8.25001 7.66512 7.90601 7.38512ZM7.90601 12.8891H9.50601V11.2891H7.90601V12.8891ZM15.906 11.2891H14.306V12.8891H15.906V11.2891ZM11.106 12.8891H12.706V11.2891H11.106V12.8891ZM15.906 7.38512C15.562 7.66512 15.522 8.16912 15.802 8.51312L18.77 12.0891L15.802 15.6651C15.522 16.0091 15.57 16.5131 15.906 16.7931C16.25 17.0731 16.754 17.0331 17.034 16.6891L20.426 12.6011C20.674 12.3051 20.674 11.8731 20.426 11.5771L17.034 7.48912C16.754 7.15312 16.242 7.10512 15.906 7.38512Z" fill="#808080"/>
</svg>
