<svg width="24" height="24" viewBox="0 0 24 24" fill="none" xmlns="http://www.w3.org/2000/svg">
<path fill-rule="evenodd" clip-rule="evenodd" d="M7.95037 21.6H9.55037V20H7.95037V21.6ZM11.9504 12.8C13.2784 12.8 14.3424 11.728 14.3424 10.4L14.3504 5.59995C14.3504 4.27195 13.2784 3.19995 11.9504 3.19995C10.6224 3.19995 9.55037 4.27195 9.55037 5.59995V10.4C9.55037 11.728 10.6224 12.8 11.9504 12.8ZM11.1504 21.6H12.7504V20H11.1504V21.6ZM14.3504 21.6H15.9504V20H14.3504V21.6ZM16.8144 10.4C16.4784 10.4 16.1984 10.64 16.1504 10.968C15.8544 13.056 13.9744 14.48 11.9504 14.48C9.92637 14.48 8.04637 13.064 7.75037 10.968C7.70237 10.64 7.41437 10.4 7.08637 10.4C6.67037 10.4 6.35037 10.768 6.40637 11.176C6.77437 13.544 8.77437 15.416 11.1504 15.776V17.6C11.1504 18.04 11.5104 18.4 11.9504 18.4C12.3904 18.4 12.7504 18.04 12.7504 17.6V15.776C15.1184 15.424 17.1264 13.544 17.4944 11.176C17.5504 10.768 17.2304 10.4 16.8144 10.4Z" fill="#808080"/>
</svg>
