<svg width="24" height="24" viewBox="0 0 24 24" fill="none" xmlns="http://www.w3.org/2000/svg">
<path fill-rule="evenodd" clip-rule="evenodd" d="M16.8 15.264C16.192 15.264 15.648 15.504 15.232 15.88L9.52805 12.56C9.56805 12.376 9.60005 12.192 9.60005 12C9.60005 11.808 9.56805 11.624 9.52805 11.44L15.168 8.152C15.6 8.552 16.168 8.8 16.8 8.8C18.128 8.8 19.2 7.728 19.2 6.4C19.2 5.072 18.128 4 16.8 4C15.472 4 14.4 5.072 14.4 6.4C14.4 6.592 14.432 6.776 14.472 6.96L8.83205 10.248C8.40005 9.848 7.83205 9.6 7.20005 9.6C5.87205 9.6 4.80005 10.672 4.80005 12C4.80005 13.328 5.87205 14.4 7.20005 14.4C7.83205 14.4 8.40005 14.152 8.83205 13.752L14.528 17.08C14.488 17.248 14.464 17.424 14.464 17.6C14.464 18.888 15.512 19.936 16.8 19.936C18.088 19.936 19.136 18.888 19.136 17.6C19.136 16.312 18.088 15.264 16.8 15.264Z" fill="#808080"/>
</svg>
