<svg width="24" height="24" viewBox="0 0 24 24" fill="none" xmlns="http://www.w3.org/2000/svg">
<path fill-rule="evenodd" clip-rule="evenodd" d="M15.2 8.00005V6.40005C15.2 5.52005 14.48 4.80005 13.6 4.80005H10.4C9.52 4.80005 8.8 5.52005 8.8 6.40005V8.00005H5.6C4.72 8.00005 4 8.72005 4 9.60005V18.4C4 19.28 4.72 20 5.6 20H18.4C19.28 20 20 19.28 20 18.4V9.60005C20 8.72005 19.28 8.00005 18.4 8.00005H15.2ZM10.4 6.40005H13.6V8.00005H10.4V6.40005ZM9.6 16.856V11.064C9.6 10.76 9.92 10.568 10.192 10.712L15.016 13.28C15.28 13.424 15.304 13.8 15.048 13.968L10.224 17.184C9.96 17.36 9.6 17.176 9.6 16.856Z" fill="#808080"/>
</svg>
