<svg width="24" height="24" viewBox="0 0 24 24" fill="none" xmlns="http://www.w3.org/2000/svg">
<path fill-rule="evenodd" clip-rule="evenodd" d="M8.8 16.8C7.92 16.8 7.208 17.52 7.208 18.4C7.208 19.28 7.92 20 8.8 20C9.68 20 10.4 19.28 10.4 18.4C10.4 17.52 9.68 16.8 8.8 16.8ZM4 4.8C4 5.24 4.36 5.6 4.8 5.6H5.6L8.48 11.672L7.4 13.624C6.816 14.696 7.584 16 8.8 16H17.6C18.04 16 18.4 15.64 18.4 15.2C18.4 14.76 18.04 14.4 17.6 14.4H8.8L9.68 12.8H15.64C16.24 12.8 16.768 12.472 17.04 11.976L19.904 6.784C20.2 6.256 19.816 5.6 19.208 5.6H7.368L6.832 4.456C6.704 4.176 6.416 4 6.112 4H4.8C4.36 4 4 4.36 4 4.8ZM16.8 16.8C15.92 16.8 15.208 17.52 15.208 18.4C15.208 19.28 15.92 20 16.8 20C17.68 20 18.4 19.28 18.4 18.4C18.4 17.52 17.68 16.8 16.8 16.8Z" fill="#808080"/>
</svg>
