<svg width="24" height="24" viewBox="0 0 24 24" fill="none" xmlns="http://www.w3.org/2000/svg">
<path fill-rule="evenodd" clip-rule="evenodd" d="M20 9.61H16.168L12.656 4.354C12.336 3.882 11.64 3.882 11.328 4.354L7.81601 9.61H4.00001C3.56001 9.61 3.20001 9.97 3.20001 10.41C3.20001 10.482 3.20801 10.554 3.23201 10.626L5.26401 18.042C5.44801 18.714 6.06401 19.21 6.80001 19.21H17.2C17.936 19.21 18.552 18.714 18.744 18.042L20.776 10.626L20.8 10.41C20.8 9.97 20.44 9.61 20 9.61ZM11.992 6.242L14.24 9.61H9.74401L11.992 6.242ZM12 16.01C11.12 16.01 10.4 15.29 10.4 14.41C10.4 13.53 11.12 12.81 12 12.81C12.88 12.81 13.6 13.53 13.6 14.41C13.6 15.29 12.88 16.01 12 16.01Z" fill="#808080"/>
</svg>
