<svg width="24" height="24" viewBox="0 0 24 24" fill="none" xmlns="http://www.w3.org/2000/svg">
<path fill-rule="evenodd" clip-rule="evenodd" d="M4.00001 10.4C3.56001 10.4 3.20001 10.76 3.20001 11.2V19.2C3.20001 20.08 3.92001 20.8 4.80001 20.8H16C16.888 20.8 17.6 20.088 17.6 19.2H5.60001C5.16001 19.2 4.80001 18.84 4.80001 18.4V11.2C4.80001 10.76 4.44001 10.4 4.00001 10.4ZM16.8 7.2V5.6C16.8 4.72 16.08 4 15.2 4H12C11.12 4 10.4 4.72 10.4 5.6V7.2H8.00001C7.12001 7.2 6.40001 7.92 6.40001 8.8V16C6.40001 16.88 7.12001 17.6 8.00001 17.6H19.2C20.08 17.6 20.8 16.88 20.8 16V8.8C20.8 7.92 20.08 7.2 19.2 7.2H16.8ZM12 5.6H15.2V7.2H12V5.6ZM12 14.416V10.272C12 9.968 12.328 9.776 12.592 9.92L15.848 11.696C16.104 11.84 16.128 12.2 15.888 12.368L12.632 14.736C12.368 14.928 12 14.744 12 14.416Z" fill="#808080"/>
</svg>
