<svg width="24" height="24" viewBox="0 0 24 24" fill="none" xmlns="http://www.w3.org/2000/svg">
<path fill-rule="evenodd" clip-rule="evenodd" d="M5.434 16.6572L9.674 12.4172L12.274 15.0172C12.602 15.3452 13.13 15.3292 13.434 14.9852L19.17 8.52924C19.45 8.21724 19.434 7.73724 19.138 7.43324C18.818 7.11324 18.282 7.12124 17.978 7.46524L12.866 13.2092L10.234 10.5772C10.0845 10.4274 9.88161 10.3432 9.67 10.3432C9.45839 10.3432 9.25547 10.4274 9.106 10.5772L4.234 15.4572C3.922 15.7692 3.922 16.2732 4.234 16.5852L4.306 16.6572C4.618 16.9692 5.13 16.9692 5.434 16.6572Z" fill="#808080"/>
</svg>
