<svg width="24" height="24" viewBox="0 0 24 24" fill="none" xmlns="http://www.w3.org/2000/svg">
<path fill-rule="evenodd" clip-rule="evenodd" d="M10.546 9.73598L6.96998 6.15998C6.82051 6.01017 6.61759 5.92599 6.40598 5.92599C6.19436 5.92599 5.99144 6.01017 5.84198 6.15998C5.52998 6.47198 5.52998 6.97598 5.84198 7.28798L9.40998 10.856L10.546 9.73598ZM14.354 6.27998L15.306 7.23198L5.83398 16.704C5.52198 17.016 5.52198 17.52 5.83398 17.832C6.14598 18.144 6.64998 18.144 6.96198 17.832L16.442 8.36798L17.394 9.31998C17.642 9.56798 18.074 9.39198 18.074 9.03198V5.99998C18.074 5.77598 17.898 5.59998 17.674 5.59998H14.642C14.282 5.59998 14.106 6.03198 14.354 6.27998ZM13.938 13.128L12.81 14.256L15.314 16.76L14.354 17.72C14.106 17.968 14.282 18.4 14.642 18.4H17.674C17.898 18.4 18.074 18.224 18.074 18V14.968C18.074 14.608 17.642 14.432 17.394 14.688L16.442 15.64L13.938 13.128Z" fill="#808080"/>
</svg>
