<svg width="24" height="24" viewBox="0 0 24 24" fill="none" xmlns="http://www.w3.org/2000/svg">
<path fill-rule="evenodd" clip-rule="evenodd" d="M10.4025 5.6H13.6025C14.0425 5.6 14.4025 5.24 14.4025 4.8C14.4025 4.36 14.0425 4 13.6025 4H10.4025C9.96247 4 9.60247 4.36 9.60247 4.8C9.60247 5.24 9.96247 5.6 10.4025 5.6ZM17.6265 9.112L18.2265 8.512C18.5305 8.208 18.5385 7.704 18.2265 7.392L18.2185 7.384C17.9065 7.072 17.4105 7.08 17.0985 7.384L16.4985 7.984C15.2585 6.992 13.6985 6.4 12.0025 6.4C8.16247 6.4 4.89847 9.568 4.80247 13.408C4.69847 17.472 7.95447 20.8 12.0025 20.8C15.9865 20.8 19.2025 17.576 19.2025 13.6C19.2025 11.904 18.6105 10.344 17.6265 9.112ZM12.0025 19.2C8.90647 19.2 6.40247 16.696 6.40247 13.6C6.40247 10.504 8.90647 8 12.0025 8C15.0985 8 17.6025 10.504 17.6025 13.6C17.6025 16.696 15.0985 19.2 12.0025 19.2ZM11.0505 15.2H8.09047C7.78647 15.2 7.59447 15.52 7.73047 15.792C8.17847 16.688 8.88247 17.4 9.78647 17.848C9.97047 17.936 10.2025 17.864 10.3065 17.68L11.4025 15.8C11.5545 15.536 11.3625 15.2 11.0505 15.2ZM14.1865 9.32C14.0025 9.224 13.7705 9.304 13.6665 9.48L12.5625 11.392C12.4025 11.664 12.5945 12 12.9065 12H15.9145C16.2185 12 16.4105 11.68 16.2745 11.416C15.8105 10.512 15.0825 9.784 14.1865 9.32ZM13.5065 14.96C13.3545 14.688 12.9625 14.68 12.8105 14.952L11.1785 17.768C11.0345 18.024 11.1945 18.344 11.4905 18.368C12.5625 18.48 13.6425 18.224 14.5545 17.656C14.7305 17.544 14.7785 17.312 14.6825 17.128L13.5065 14.96ZM10.6505 13.784L8.74647 10.856C8.58647 10.616 8.23447 10.616 8.07447 10.856C7.42647 11.784 7.13847 12.912 7.23447 14.04C7.25047 14.248 7.42647 14.4 7.63447 14.4H10.3145C10.6265 14.4 10.8185 14.048 10.6505 13.784ZM13.5785 13.392L15.1945 16.384C15.3385 16.648 15.7065 16.664 15.8825 16.424C16.5705 15.48 16.8745 14.328 16.7785 13.16C16.7625 12.952 16.5785 12.8 16.3785 12.8H13.9385C13.6265 12.8 13.4345 13.12 13.5785 13.392ZM10.5385 12.136C10.6985 12.384 11.0665 12.376 11.2185 12.12L12.7705 9.44C12.9225 9.184 12.7465 8.864 12.4505 8.832C11.3625 8.736 10.2665 9 9.34647 9.608C9.17047 9.728 9.13047 9.976 9.24247 10.152L10.5385 12.136Z" fill="#808080"/>
</svg>
