<svg width="24" height="24" viewBox="0 0 24 24" fill="none" xmlns="http://www.w3.org/2000/svg">
<path fill-rule="evenodd" clip-rule="evenodd" d="M13.9053 12.8167C13.9053 10.7007 15.5594 8.98333 17.5976 8.98333C18.2253 8.98333 18.8086 9.15967 19.3256 9.451L20.9797 7.312C20.6253 7.036 17.0511 4 11.6899 4C6.32864 4 2.75449 7.036 2.40002 7.312L10.5379 17.846C11.1286 18.6127 12.2511 18.6127 12.8419 17.846L14.8062 15.3007C14.2523 14.6337 13.9053 13.7673 13.9053 12.8167ZM16.896 17.8383H18.2991V19.295H16.896V17.8383ZM17.5976 10.1333C16.4677 10.1333 15.5077 10.8847 15.1533 11.935C15.0056 12.3643 15.3305 12.8167 15.7662 12.8167C16.032 12.8167 16.2831 12.648 16.3717 12.3873C16.5268 11.912 16.9403 11.544 17.4351 11.4827C18.0776 11.406 18.6979 11.843 18.8456 12.4947C19.0966 13.5603 18.048 14.1277 17.5016 14.8407C17.2505 15.1703 17.0806 15.5537 16.9994 15.9677C16.992 15.9983 16.992 16.0213 16.9846 16.052C16.9182 16.466 17.2283 16.8493 17.6345 16.8493C17.952 16.8493 18.2326 16.6117 18.2769 16.2897C18.3139 16.029 18.3951 15.776 18.528 15.546C18.6831 15.2853 18.8973 15.0707 19.104 14.8483C19.2813 14.6643 19.4585 14.4803 19.6283 14.2887C19.9828 13.8977 20.1822 13.3687 20.1822 12.832C20.1822 11.337 19.0228 10.1333 17.5976 10.1333Z" fill="#808080"/>
</svg>
