<svg width="24" height="24" viewBox="0 0 24 24" fill="none" xmlns="http://www.w3.org/2000/svg">
<path fill-rule="evenodd" clip-rule="evenodd" d="M21.024 9.02598C20.664 8.75398 17.08 5.82598 11.712 5.82598C10.656 5.82598 9.67202 5.93798 8.76002 6.12998L16.856 14.226L21.024 9.02598ZM5.40802 5.03398C5.25856 4.88417 5.05564 4.79999 4.84402 4.79999C4.63241 4.79999 4.42949 4.88417 4.28002 5.03398C3.96802 5.34598 3.96802 5.84998 4.28002 6.16198L5.36002 7.24198C3.64002 8.03398 2.58402 8.88198 2.40002 9.02598L10.464 19.074C11.104 19.874 12.32 19.874 12.96 19.074L14.84 16.73L16.928 18.818C17.24 19.13 17.744 19.13 18.056 18.818C18.368 18.506 18.368 18.002 18.056 17.69L5.40802 5.03398Z" fill="#808080"/>
</svg>
