<svg width="24" height="24" viewBox="0 0 24 24" fill="none" xmlns="http://www.w3.org/2000/svg">
<path fill-rule="evenodd" clip-rule="evenodd" d="M17.762 5.6C17.762 4.72 17.042 4 16.162 4H11.226C10.802 4 10.394 4.168 10.09 4.472L8.92205 5.648L17.762 14.488V5.6ZM5.03405 5.152C4.72205 5.464 4.72205 5.968 5.03405 6.28L6.56205 7.824V16.8C6.56205 17.688 7.28205 18.4 8.16205 18.4H17.146L17.874 19.128C18.186 19.44 18.69 19.44 19.002 19.128C19.314 18.816 19.314 18.312 19.002 18L6.16205 5.152C6.01258 5.0022 5.80966 4.91801 5.59805 4.91801C5.38643 4.91801 5.18351 5.0022 5.03405 5.152Z" fill="#808080"/>
</svg>
