<svg width="24" height="24" viewBox="0 0 24 24" fill="none" xmlns="http://www.w3.org/2000/svg">
<path fill-rule="evenodd" clip-rule="evenodd" d="M17.2 5.59998C17.864 5.59998 18.4 6.13598 18.4 6.79998V17.2C18.4 17.864 17.864 18.4 17.2 18.4C16.536 18.4 16 17.864 16 17.2V6.79998C16 6.13598 16.536 5.59998 17.2 5.59998ZM7.60002 13.6C8.26402 13.6 8.80002 14.136 8.80002 14.8V17.2C8.80002 17.864 8.26402 18.4 7.60002 18.4C6.93602 18.4 6.40002 17.864 6.40002 17.2V14.8C6.40002 14.136 6.93602 13.6 7.60002 13.6ZM12.4 9.59998C13.064 9.59998 13.6 10.136 13.6 10.8V17.2C13.6 17.864 13.064 18.4 12.4 18.4C11.736 18.4 11.2 17.864 11.2 17.2V10.8C11.2 10.136 11.736 9.59998 12.4 9.59998Z" fill="#808080"/>
</svg>
