<svg width="24" height="24" viewBox="0 0 24 24" fill="none" xmlns="http://www.w3.org/2000/svg">
<path fill-rule="evenodd" clip-rule="evenodd" d="M16.8591 10.9C16.8591 9.62733 17.8486 8.6 19.0745 8.6H19.9828L20.9797 7.312C20.6253 7.036 17.0511 4 11.6899 4C6.32864 4 2.75449 7.036 2.40002 7.312L10.5379 17.846C11.1286 18.6127 12.2511 18.6127 12.8419 17.846L16.8591 12.648V10.9ZM18.336 10.9V15.5C18.336 15.9217 18.6683 16.2667 19.0745 16.2667C19.4806 16.2667 19.8129 15.9217 19.8129 15.5V10.9C19.8129 10.4783 19.4806 10.1333 19.0745 10.1333C18.6683 10.1333 18.336 10.4783 18.336 10.9ZM18.336 17.8H19.8129V19.3333H18.336V17.8Z" fill="#808080"/>
</svg>
