<svg width="24" height="24" viewBox="0 0 24 24" fill="none" xmlns="http://www.w3.org/2000/svg">
<path fill-rule="evenodd" clip-rule="evenodd" d="M18.8692 4.80321C18.8692 4.09121 18.0052 3.73121 17.5012 4.23521L12.2212 9.51521L18.8692 16.1632V4.80321ZM19.2212 18.7792L6.56518 6.12321C6.41572 5.97341 6.2128 5.88922 6.00118 5.88922C5.78957 5.88922 5.58665 5.97341 5.43718 6.12321C5.12518 6.43521 5.12518 6.93921 5.43718 7.25121L9.96518 11.7792L4.23718 17.5072C3.73318 18.0112 4.08518 18.8752 4.79718 18.8752H17.0532L18.0852 19.9072C18.3972 20.2192 18.9012 20.2192 19.2132 19.9072C19.5332 19.5952 19.5332 19.0912 19.2212 18.7792Z" fill="#808080"/>
</svg>
