<svg width="24" height="24" viewBox="0 0 24 24" fill="none" xmlns="http://www.w3.org/2000/svg">
<path fill-rule="evenodd" clip-rule="evenodd" d="M18.8692 16.4752C19.3092 16.4752 19.6692 16.1152 19.6692 15.6752V10.8752C19.6692 10.4352 19.3092 10.0752 18.8692 10.0752C18.4292 10.0752 18.0692 10.4352 18.0692 10.8752V15.6752C18.0692 16.1152 18.4292 16.4752 18.8692 16.4752ZM18.0692 19.6752H19.6692V18.0752H18.0692V19.6752ZM5.59723 19.6752H16.4692V10.8752C16.4692 9.5472 17.5412 8.4752 18.8692 8.4752H19.6692V5.6032C19.6692 4.8912 18.8052 4.5312 18.3012 5.0352L5.03723 18.3072C4.53323 18.8112 4.88523 19.6752 5.59723 19.6752Z" fill="#808080"/>
</svg>
