<svg width="24" height="24" viewBox="0 0 24 24" fill="none" xmlns="http://www.w3.org/2000/svg">
<path fill-rule="evenodd" clip-rule="evenodd" d="M18.3921 5.6C18.3921 4.72 17.6801 4 16.8001 4H11.0641C10.6401 4 10.2321 4.168 9.9281 4.472L6.0721 8.328C5.7681 8.632 5.6001 9.04 5.6001 9.464V18.4C5.6001 19.28 6.3201 20 7.2001 20H16.8081C17.6881 20 18.4001 19.28 18.4001 18.4L18.3921 5.6ZM8.8001 17.6C8.3601 17.6 8.0001 17.24 8.0001 16.8C8.0001 16.36 8.3601 16 8.8001 16C9.2401 16 9.6001 16.36 9.6001 16.8C9.6001 17.24 9.2401 17.6 8.8001 17.6ZM15.2001 17.6C14.7601 17.6 14.4001 17.24 14.4001 16.8C14.4001 16.36 14.7601 16 15.2001 16C15.6401 16 16.0001 16.36 16.0001 16.8C16.0001 17.24 15.6401 17.6 15.2001 17.6ZM8.8001 14.4C8.3601 14.4 8.0001 14.04 8.0001 13.6V12C8.0001 11.56 8.3601 11.2 8.8001 11.2C9.2401 11.2 9.6001 11.56 9.6001 12V13.6C9.6001 14.04 9.2401 14.4 8.8001 14.4ZM12.0001 17.6C11.5601 17.6 11.2001 17.24 11.2001 16.8V15.2C11.2001 14.76 11.5601 14.4 12.0001 14.4C12.4401 14.4 12.8001 14.76 12.8001 15.2V16.8C12.8001 17.24 12.4401 17.6 12.0001 17.6ZM12.0001 12.8C11.5601 12.8 11.2001 12.44 11.2001 12C11.2001 11.56 11.5601 11.2 12.0001 11.2C12.4401 11.2 12.8001 11.56 12.8001 12C12.8001 12.44 12.4401 12.8 12.0001 12.8ZM15.2001 14.4C14.7601 14.4 14.4001 14.04 14.4001 13.6V12C14.4001 11.56 14.7601 11.2 15.2001 11.2C15.6401 11.2 16.0001 11.56 16.0001 12V13.6C16.0001 14.04 15.6401 14.4 15.2001 14.4Z" fill="#808080"/>
</svg>
