<svg width="24" height="24" viewBox="0 0 24 24" fill="none" xmlns="http://www.w3.org/2000/svg">
<path fill-rule="evenodd" clip-rule="evenodd" d="M4.81714 13.3902H6.41593C6.49564 13.8731 7.01607 14.1544 7.67715 14.1544C8.34761 14.1544 8.78365 13.8543 8.78365 13.4417C8.78365 13.0666 8.49296 12.8744 7.69122 12.7197L6.99731 12.5884C5.64701 12.3352 4.94842 11.6741 4.94842 10.6427C4.94842 9.33925 6.07836 8.5 7.63496 8.5C9.3369 8.5 10.3402 9.33456 10.359 10.6239H8.76021C8.73207 10.1363 8.2726 9.84561 7.64902 9.84561C7.02544 9.84561 6.65505 10.1269 6.65505 10.5255C6.65505 10.8818 6.96449 11.0787 7.70059 11.2194L8.3945 11.3506C9.83857 11.6273 10.495 12.2133 10.495 13.2776C10.495 14.6373 9.43067 15.5 7.64433 15.5C5.95646 15.5 4.84058 14.7217 4.81714 13.3902ZM13.008 15.3828H11.2873V8.61721H13.008V15.3828ZM17.3168 15.3828H15.6008V10.005H13.7348V8.61721H19.1828V10.005H17.3168V15.3828Z" fill="#808080"/>
</svg>
