<svg width="24" height="24" viewBox="0 0 24 24" fill="none" xmlns="http://www.w3.org/2000/svg">
<path fill-rule="evenodd" clip-rule="evenodd" d="M10.2272 9.02723V14.6272C10.2272 14.9552 10.6032 15.1472 10.8672 14.9472L14.6032 12.1472C14.8192 11.9872 14.8192 11.6672 14.6032 11.5072L10.8672 8.70723C10.6032 8.50723 10.2272 8.69923 10.2272 9.02723ZM11.0272 4.81123C11.0272 4.29923 10.5552 3.90723 10.0592 4.01923C9.16323 4.22723 8.31523 4.57923 7.56323 5.05923C7.13923 5.33123 7.07523 5.93923 7.43523 6.29923C7.69123 6.55523 8.09923 6.61923 8.40323 6.42723C9.01923 6.03523 9.69923 5.74723 10.4352 5.58723C10.7872 5.50723 11.0272 5.17923 11.0272 4.81123ZM6.30723 7.43523C5.93923 7.07523 5.33923 7.13123 5.06723 7.56323C4.58723 8.31523 4.23523 9.16323 4.02723 10.0592C3.91523 10.5552 4.29923 11.0272 4.81123 11.0272C5.17123 11.0272 5.50723 10.7872 5.57923 10.4352C5.73923 9.70723 6.03523 9.01923 6.41923 8.41123C6.62723 8.09923 6.56323 7.69123 6.30723 7.43523ZM4.81123 12.6272C4.29923 12.6272 3.90723 13.0992 4.01923 13.5952C4.22723 14.4912 4.57923 15.3312 5.05923 16.0912C5.33123 16.5232 5.93923 16.5792 6.29923 16.2192C6.55523 15.9632 6.61923 15.5552 6.41923 15.2512C6.02723 14.6432 5.73923 13.9632 5.57923 13.2272C5.50723 12.8672 5.17923 12.6272 4.81123 12.6272ZM7.56323 18.5872C8.32323 19.0672 9.16323 19.4192 10.0592 19.6272C10.5552 19.7392 11.0272 19.3472 11.0272 18.8432C11.0272 18.4832 10.7872 18.1472 10.4352 18.0752C9.70723 17.9152 9.01923 17.6192 8.41123 17.2352C8.09923 17.0432 7.69923 17.0992 7.44323 17.3632C7.07523 17.7152 7.13123 18.3152 7.56323 18.5872ZM19.8272 11.8272C19.8272 15.6112 17.1872 18.7952 13.6432 19.6192C13.1472 19.7392 12.6672 19.3472 12.6672 18.8352C12.6672 18.4672 12.9152 18.1472 13.2672 18.0592C16.1072 17.4032 18.2272 14.8592 18.2272 11.8272C18.2272 8.79523 16.1072 6.25123 13.2672 5.59523C12.9152 5.51523 12.6672 5.18723 12.6672 4.81923C12.6672 4.30723 13.1472 3.91523 13.6432 4.03523C17.1872 4.85923 19.8272 8.04323 19.8272 11.8272Z" fill="#808080"/>
</svg>
