<svg width="24" height="24" viewBox="0 0 24 24" fill="none" xmlns="http://www.w3.org/2000/svg">
<path fill-rule="evenodd" clip-rule="evenodd" d="M14.8 16.7124H5.2C4.536 16.7124 4 17.2484 4 17.9124C4 18.5764 4.536 19.1124 5.2 19.1124H14.8C15.464 19.1124 16 18.5764 16 17.9124C16 17.2484 15.464 16.7124 14.8 16.7124ZM17.48 10.0964C17.976 9.60835 18.28 8.93635 18.28 8.19235C18.28 6.98435 17.48 5.96035 16.376 5.62435C15.992 5.51235 15.6 5.80035 15.6 6.20035C15.6 6.46435 15.768 6.69635 16.016 6.76835C16.632 6.95235 17.08 7.52035 17.08 8.19235C17.08 8.84835 16.656 9.40035 16.064 9.60035C15.8 9.68835 15.6 9.91235 15.6 10.1924V10.3124C15.6 10.6084 15.816 10.8644 16.112 10.9124C17.656 11.1604 18.8 12.5124 18.8 14.1284V15.3124C18.8 15.6404 19.072 15.9124 19.4 15.9124C19.728 15.9124 20 15.6404 20 15.3124V14.1204C20 12.3444 18.976 10.8084 17.48 10.0964ZM15.224 12.0724H14.184C13.368 12.0724 12.632 11.4884 12.528 10.6724C12.432 9.91235 12.896 9.31235 13.568 9.12835C13.824 9.05635 14 8.82435 14 8.55235C14 8.16035 13.632 7.86435 13.256 7.97635C12.12 8.30435 11.296 9.36035 11.32 10.6004C11.344 12.0724 12.616 13.2324 14.088 13.2324H15.224C16.064 13.2324 16.8 13.8244 16.8 14.8724V15.3124C16.8 15.6404 17.064 15.9124 17.4 15.9124H17.408C17.736 15.9124 18.008 15.6484 18.008 15.3124V14.6004C18 13.1524 16.72 12.0724 15.224 12.0724ZM16.8 16.7124H18V19.1124H16.8V16.7124ZM18.8 16.7124H20V19.1124H18.8V16.7124Z" fill="#808080"/>
</svg>
