<svg width="24" height="24" viewBox="0 0 24 24" fill="none" xmlns="http://www.w3.org/2000/svg">
<path fill-rule="evenodd" clip-rule="evenodd" d="M18.8 12.7599H20V15.1599H18.8V12.7599ZM16.8 12.7599H18V15.1599H16.8V12.7599ZM16 13.9599C16 13.2959 15.464 12.7599 14.8 12.7599H14.128L15.872 14.5039C15.952 14.3359 16 14.1519 16 13.9599ZM17.568 4.23994H17.6H17.568ZM17.48 6.14394C17.784 5.83994 18.016 5.47194 18.152 5.06394C18.28 4.66394 18 4.25594 17.584 4.24794C17.312 4.25594 17.096 4.44794 17.008 4.71194C16.864 5.15194 16.512 5.50394 16.072 5.64794C15.8 5.73594 15.6 5.95994 15.6 6.23994V6.35994C15.6 6.65594 15.816 6.91194 16.112 6.95994C17.656 7.20794 18.8 8.55994 18.8 10.1759V11.3599C18.8 11.6879 19.072 11.9599 19.4 11.9599C19.728 11.9599 20 11.6879 20 11.3599V10.1679C20 8.39194 18.976 6.85594 17.48 6.14394ZM14.088 9.27994H15.224C16.064 9.27994 16.8 9.87194 16.8 10.9199V11.3599C16.8 11.6879 17.064 11.9599 17.4 11.9599H17.408C17.736 11.9599 18.008 11.6959 18.008 11.3599V10.6479C18.008 9.19994 16.728 8.11994 15.232 8.11994H14.192C13.376 8.11994 12.64 7.53594 12.536 6.71994C12.44 5.95994 12.904 5.35994 13.576 5.17594C13.832 5.10394 14.008 4.87194 14.008 4.59994C14.008 4.20794 13.64 3.91194 13.264 4.02394C12.128 4.35194 11.304 5.40794 11.328 6.64794C11.344 8.12794 12.616 9.27994 14.088 9.27994ZM5.696 6.59194C5.54653 6.44213 5.34361 6.35795 5.132 6.35795C4.92039 6.35795 4.71747 6.44213 4.568 6.59194C4.256 6.90394 4.256 7.40794 4.568 7.71994L9.6 12.7599H5.2C4.536 12.7599 4 13.2959 4 13.9599C4 14.6239 4.536 15.1599 5.2 15.1599H12L17.032 20.1919C17.344 20.5039 17.848 20.5039 18.16 20.1919C18.472 19.8799 18.472 19.3759 18.16 19.0639L5.696 6.59194Z" fill="#808080"/>
</svg>
