<svg width="24" height="24" viewBox="0 0 24 24" fill="none" xmlns="http://www.w3.org/2000/svg">
<path fill-rule="evenodd" clip-rule="evenodd" d="M10.0291 11.0251H12.1331L9.15711 14.5051C8.71711 15.0251 9.08511 15.8251 9.76511 15.8251H13.2291C13.6691 15.8251 14.0291 15.4651 14.0291 15.0251C14.0291 14.5851 13.6691 14.2251 13.2291 14.2251H11.1251L14.1011 10.7451C14.5411 10.2251 14.1731 9.42511 13.4931 9.42511H10.0291C9.58911 9.42511 9.22911 9.78511 9.22911 10.2251C9.22911 10.6651 9.58911 11.0251 10.0291 11.0251ZM19.0691 7.36111C18.7891 7.69711 18.2851 7.74511 17.9411 7.46511L15.4851 5.41711C15.1491 5.12911 15.1011 4.62511 15.3891 4.28911C15.6691 3.95311 16.1731 3.90511 16.5171 4.18511L18.9731 6.23311C19.3091 6.52111 19.3571 7.02511 19.0691 7.36111ZM4.18911 7.36111C4.46911 7.70511 4.97311 7.74511 5.30911 7.46511L7.76511 5.41711C8.10911 5.12911 8.15711 4.62511 7.86911 4.28911C7.58911 3.94511 7.08511 3.90511 6.74911 4.18511L4.28511 6.23311C3.94911 6.52111 3.90111 7.02511 4.18911 7.36111ZM11.6291 7.02511C14.7171 7.02511 17.2291 9.53711 17.2291 12.6251C17.2291 15.7131 14.7171 18.2251 11.6291 18.2251C8.54111 18.2251 6.02911 15.7131 6.02911 12.6251C6.02911 9.53711 8.54111 7.02511 11.6291 7.02511ZM11.6291 5.42511C7.65311 5.42511 4.42911 8.64911 4.42911 12.6251C4.42911 16.6011 7.65311 19.8251 11.6291 19.8251C15.6051 19.8251 18.8291 16.6011 18.8291 12.6251C18.8291 8.64911 15.6051 5.42511 11.6291 5.42511Z" fill="#808080"/>
</svg>
