<svg width="24" height="24" viewBox="0 0 24 24" fill="none" xmlns="http://www.w3.org/2000/svg">
<path fill-rule="evenodd" clip-rule="evenodd" d="M16.8 14.4V11.2C16.8 10.7582 17.1582 10.4 17.6 10.4H19.2C19.6418 10.4 20 10.7582 20 11.2V16.8C20 17.2103 19.6912 17.5484 19.2933 17.5946L19.2 17.6H18.4V18.4H16.8V17.6H7.2V18.4H5.6V17.6H4.8C4.35817 17.6 4 17.2419 4 16.8V11.2C4 10.7582 4.35817 10.4 4.8 10.4H6.4C6.84183 10.4 7.2 10.7582 7.2 11.2V14.4H16.8ZM15.2 6.40002C16.9673 6.40002 18.4 7.83271 18.4 9.60002H17.6C16.7565 9.60002 16.0655 10.2527 16.0044 11.0806L16 11.2V13.6H8V11.2C8 10.3565 7.3473 9.66549 6.51941 9.60441L6.4 9.60002H5.6C5.6 7.83271 7.03269 6.40002 8.8 6.40002H15.2Z" fill="#808080"/>
</svg>
