<svg width="24" height="24" viewBox="0 0 24 24" fill="none" xmlns="http://www.w3.org/2000/svg">
<path fill-rule="evenodd" clip-rule="evenodd" d="M5.60005 16.8H8.80005C9.24005 16.8 9.60005 16.44 9.60005 16C9.60005 15.56 9.24005 15.2 8.80005 15.2H5.60005C5.16005 15.2 4.80005 15.56 4.80005 16C4.80005 16.44 5.16005 16.8 5.60005 16.8ZM4.80005 8.00001C4.80005 8.44001 5.16005 8.80001 5.60005 8.80001H18.4C18.84 8.80001 19.2 8.44001 19.2 8.00001C19.2 7.56001 18.84 7.20001 18.4 7.20001H5.60005C5.16005 7.20001 4.80005 7.56001 4.80005 8.00001ZM5.60005 12.8H13.6C14.04 12.8 14.4 12.44 14.4 12C14.4 11.56 14.04 11.2 13.6 11.2H5.60005C5.16005 11.2 4.80005 11.56 4.80005 12C4.80005 12.44 5.16005 12.8 5.60005 12.8Z" fill="#808080"/>
</svg>
