<svg width="24" height="24" viewBox="0 0 24 24" fill="none" xmlns="http://www.w3.org/2000/svg">
<path fill-rule="evenodd" clip-rule="evenodd" d="M12.7442 4.91999C12.5842 4.75999 12.3362 4.75999 12.1762 4.91999L10.5682 6.52799H14.3442L12.7442 4.91999ZM12.1842 19.88C12.3442 20.04 12.5922 20.04 12.7522 19.88L14.3362 18.296H10.6082L12.1842 19.88ZM11.1842 16.984C11.6642 16.984 11.9922 16.504 11.8162 16.056L8.83216 8.42399C8.68816 8.05599 8.32816 7.81599 7.93616 7.81599C7.54416 7.81599 7.18416 8.05599 7.04016 8.42399L4.04816 16.048C3.87216 16.496 4.20016 16.976 4.68016 16.976C4.96016 16.976 5.21616 16.8 5.32016 16.536L5.88816 15.016H9.97616L10.5442 16.536C10.6482 16.808 10.9042 16.984 11.1842 16.984ZM6.37616 13.712L7.92816 9.56799L9.48017 13.712H6.37616ZM19.2402 15.712H14.9762L19.5522 9.07999C19.9202 8.55199 19.5362 7.82399 18.8962 7.82399H13.7122C13.3602 7.82399 13.0802 8.11199 13.0802 8.46399V8.47199C13.0802 8.82399 13.3682 9.11199 13.7122 9.11199H17.7842L13.2002 15.736C12.8322 16.264 13.2162 16.992 13.8562 16.992H19.2322C19.5842 16.992 19.8642 16.704 19.8642 16.36C19.8802 16 19.5922 15.712 19.2402 15.712Z" fill="#808080"/>
</svg>
