<svg width="24" height="24" viewBox="0 0 24 24" fill="none" xmlns="http://www.w3.org/2000/svg">
<path fill-rule="evenodd" clip-rule="evenodd" d="M14.7477 9.708C14.6197 7.772 13.9237 5.876 12.6357 4.3C12.3077 3.9 11.7077 3.9 11.3797 4.3C10.0597 5.884 9.32371 7.78 9.16371 9.708C10.1877 10.252 11.1317 10.956 11.9557 11.812C12.7797 10.964 13.7237 10.26 14.7477 9.708ZM9.54771 11.828C9.43571 11.748 9.30771 11.676 9.18771 11.596C9.30771 11.684 9.43571 11.748 9.54771 11.828ZM14.6837 11.628C14.5797 11.7 14.4677 11.756 14.3637 11.836C14.4677 11.756 14.5797 11.7 14.6837 11.628ZM11.9557 14.364C10.3957 11.988 7.84371 10.34 4.89171 10.052C4.37971 10.004 3.95571 10.428 4.00371 10.94C4.36371 14.78 6.92371 17.964 10.3877 19.204C10.8917 19.388 11.4197 19.524 11.9637 19.612C12.5077 19.516 13.0277 19.38 13.5397 19.204C17.0037 17.964 19.5637 14.788 19.9237 10.94C19.9717 10.428 19.5397 10.004 19.0357 10.052C16.0677 10.34 13.5157 11.988 11.9557 14.364Z" fill="#808080"/>
</svg>
