<svg width="24" height="24" viewBox="0 0 24 24" fill="none" xmlns="http://www.w3.org/2000/svg">
<path fill-rule="evenodd" clip-rule="evenodd" d="M16.96 3.19995H10.24C9.44798 3.19995 8.79998 3.84795 8.79998 4.63995V16.16C8.79998 16.952 9.44798 17.592 10.24 17.592L16.96 17.5999C17.752 17.5999 18.4 16.952 18.4 16.16V4.63995C18.4 3.84795 17.752 3.19995 16.96 3.19995ZM13.6 4.79995C14.48 4.79995 15.2 5.51195 15.2 6.39995C15.2 7.28795 14.48 7.99995 13.6 7.99995C12.72 7.99995 12 7.28795 12 6.39995C12 5.51195 12.72 4.79995 13.6 4.79995ZM13.6 15.6C11.832 15.6 10.4 14.168 10.4 12.4C10.4 10.632 11.832 9.19995 13.6 9.19995C15.368 9.19995 16.8 10.632 16.8 12.4C16.8 14.168 15.368 15.6 13.6 15.6ZM13.6 10.4C12.4954 10.4 11.6 11.2954 11.6 12.4C11.6 13.5045 12.4954 14.4 13.6 14.4C14.7045 14.4 15.6 13.5045 15.6 12.4C15.6 11.2954 14.7045 10.4 13.6 10.4ZM6.39998 6.39995C5.95998 6.39995 5.59998 6.75995 5.59998 7.19995V19.2C5.59998 20.08 6.31198 20.7999 7.19998 20.7999H14.4C14.84 20.7999 15.2 20.44 15.2 20C15.2 19.5599 14.84 19.2 14.4 19.2H7.99998C7.55998 19.2 7.19998 18.84 7.19998 18.4V7.19995C7.19998 6.75995 6.83998 6.39995 6.39998 6.39995Z" fill="#808080"/>
</svg>
