<svg width="24" height="24" viewBox="0 0 24 24" fill="none" xmlns="http://www.w3.org/2000/svg">
<path fill-rule="evenodd" clip-rule="evenodd" d="M18.4 4H5.6C4.72 4 4.008 4.72 4.008 5.6L4 20L7.2 16.8H18.4C19.28 16.8 20 16.08 20 15.2V5.6C20 4.72 19.28 4 18.4 4ZM8.8 13.6H7.2V12H8.8V13.6ZM8.8 11.2H7.2V9.6H8.8V11.2ZM8.8 8.8H7.2V7.2H8.8V8.8ZM13.6 13.6H11.2C10.76 13.6 10.4 13.24 10.4 12.8C10.4 12.36 10.76 12 11.2 12H13.6C14.04 12 14.4 12.36 14.4 12.8C14.4 13.24 14.04 13.6 13.6 13.6ZM16 11.2H11.2C10.76 11.2 10.4 10.84 10.4 10.4C10.4 9.96 10.76 9.6 11.2 9.6H16C16.44 9.6 16.8 9.96 16.8 10.4C16.8 10.84 16.44 11.2 16 11.2ZM16 8.8H11.2C10.76 8.8 10.4 8.44 10.4 8C10.4 7.56 10.76 7.2 11.2 7.2H16C16.44 7.2 16.8 7.56 16.8 8C16.8 8.44 16.44 8.8 16 8.8Z" fill="#808080"/>
</svg>
