<svg width="24" height="24" viewBox="0 0 24 24" fill="none" xmlns="http://www.w3.org/2000/svg">
<path fill-rule="evenodd" clip-rule="evenodd" d="M16 4H8.00002C7.12002 4 6.40002 4.72 6.40002 5.6V18.4C6.40002 19.28 7.12002 19.992 8.00002 19.992L16 20C16.88 20 17.6 19.28 17.6 18.4V5.6C17.6 4.72 16.88 4 16 4ZM12 5.6C12.88 5.6 13.6 6.32 13.6 7.2C13.6 8.08 12.88 8.8 12 8.8C11.112 8.8 10.4 8.08 10.4 7.2C10.4 6.32 11.112 5.6 12 5.6ZM12 18.4C9.79202 18.4 8.00002 16.608 8.00002 14.4C8.00002 12.192 9.79202 10.4 12 10.4C14.208 10.4 16 12.192 16 14.4C16 16.608 14.208 18.4 12 18.4ZM12 12C10.672 12 9.60002 13.072 9.60002 14.4C9.60002 15.728 10.672 16.8 12 16.8C13.328 16.8 14.4 15.728 14.4 14.4C14.4 13.072 13.328 12 12 12Z" fill="#808080"/>
</svg>
