<svg width="24" height="24" viewBox="0 0 24 24" fill="none" xmlns="http://www.w3.org/2000/svg">
<path fill-rule="evenodd" clip-rule="evenodd" d="M4.426 3.48795C4.146 3.20795 3.69 3.20795 3.41 3.48795C3.13 3.76795 3.13 4.22395 3.41 4.50395L4.514 5.60795L4.498 19.2L7.698 16H14.898L18.97 20.072C19.25 20.352 19.706 20.352 19.986 20.072C20.266 19.792 20.266 19.336 19.986 19.056L4.426 3.48795ZM8.498 12.8C8.058 12.8 7.698 12.44 7.698 12C7.698 11.56 8.058 11.2 8.498 11.2C8.938 11.2 9.298 11.56 9.298 12C9.298 12.44 8.938 12.8 8.498 12.8ZM8.498 10.4C8.058 10.4 7.698 10.04 7.698 9.59995C7.698 9.15995 8.058 8.79995 8.498 8.79995C8.938 8.79995 9.298 9.15995 9.298 9.59995C9.298 10.04 8.938 10.4 8.498 10.4ZM18.898 3.19995H6.162L11.762 8.79995H16.498C16.938 8.79995 17.298 9.15995 17.298 9.59995C17.298 10.04 16.938 10.4 16.498 10.4H13.362L18.954 15.992C19.81 15.96 20.498 15.264 20.498 14.4V4.79995C20.498 3.91995 19.778 3.19995 18.898 3.19995ZM16.498 7.99995H11.698C11.258 7.99995 10.898 7.63995 10.898 7.19995C10.898 6.75995 11.258 6.39995 11.698 6.39995H16.498C16.938 6.39995 17.298 6.75995 17.298 7.19995C17.298 7.63995 16.938 7.99995 16.498 7.99995Z" fill="#808080"/>
</svg>
