<svg width="24" height="24" viewBox="0 0 24 24" fill="none" xmlns="http://www.w3.org/2000/svg">
<path fill-rule="evenodd" clip-rule="evenodd" d="M8.84445 9.464L8.86045 9.48C9.14045 9.76 9.57245 9.784 9.90045 9.552C10.5644 9.096 11.3724 8.816 12.2364 8.816C13.1004 8.816 13.9084 9.096 14.5724 9.56C14.8924 9.792 15.3324 9.768 15.6124 9.488L15.6284 9.472C15.9644 9.136 15.9404 8.56 15.5564 8.28C14.6204 7.6 13.4764 7.2 12.2364 7.2C10.9964 7.2 9.85245 7.6 8.92445 8.272C8.53245 8.552 8.50845 9.128 8.84445 9.464ZM12.2364 4C10.1404 4 8.21245 4.744 6.70045 5.976C6.33245 6.272 6.29245 6.824 6.63645 7.168C6.92445 7.456 7.38045 7.48 7.69245 7.224C8.92445 6.208 10.5164 5.6 12.2364 5.6C13.9564 5.6 15.5484 6.208 16.7884 7.224C17.1004 7.48 17.5564 7.456 17.8444 7.168C18.1804 6.832 18.1484 6.28 17.7804 5.976C16.2604 4.744 14.3324 4 12.2364 4ZM14.5244 11.208L9.94845 11.2C9.44445 11.2 9.03645 11.608 9.03645 12.112V19.88C9.03645 20.384 9.44445 20.792 9.94845 20.792H14.5164C15.0204 20.792 15.4284 20.384 15.4284 19.88V12.112C15.4364 11.608 15.0284 11.208 14.5244 11.208ZM14.6364 19.2H9.83645V12.8H14.6364V19.2Z" fill="#808080"/>
</svg>
