<svg width="24" height="24" viewBox="0 0 24 24" fill="none" xmlns="http://www.w3.org/2000/svg">
<path fill-rule="evenodd" clip-rule="evenodd" d="M12.1664 14.4C12.7184 14.4 13.0864 13.848 12.8864 13.344L9.48644 4.696C9.31844 4.272 8.91844 4 8.47044 4C8.02244 4 7.62244 4.272 7.45444 4.696L4.05444 13.344C3.85444 13.848 4.23044 14.4 4.77444 14.4C5.09444 14.4 5.38244 14.2 5.50244 13.896L6.20644 12H10.7184L11.4384 13.904C11.5584 14.2 11.8464 14.4 12.1664 14.4ZM6.81444 10.4L8.47044 5.984L10.1264 10.4H6.81444ZM18.3824 11.432L12.4704 17.344L10.0944 14.968C9.94498 14.8182 9.74206 14.734 9.53044 14.734C9.31883 14.734 9.11591 14.8182 8.96644 14.968C8.65444 15.28 8.65444 15.784 8.96644 16.096L11.9104 19.04C12.2224 19.352 12.7264 19.352 13.0384 19.04L19.5024 12.568C19.8144 12.256 19.8144 11.752 19.5024 11.44C19.1984 11.128 18.6864 11.128 18.3824 11.432Z" fill="#808080"/>
</svg>
