<svg width="24" height="24" viewBox="0 0 24 24" fill="none" xmlns="http://www.w3.org/2000/svg">
<path fill-rule="evenodd" clip-rule="evenodd" d="M11.992 4C7.576 4 4 7.584 4 12C4 16.416 7.576 20 11.992 20C16.416 20 20 16.416 20 12C20 7.584 16.416 4 11.992 4ZM14.576 16.312L12 14.76L9.424 16.312C9.12 16.496 8.744 16.224 8.824 15.88L9.504 12.952L7.24 10.992C6.976 10.76 7.12 10.32 7.472 10.288L10.464 10.032L11.632 7.272C11.768 6.944 12.232 6.944 12.368 7.272L13.536 10.024L16.528 10.28C16.88 10.312 17.024 10.752 16.752 10.984L14.488 12.944L15.168 15.88C15.248 16.224 14.88 16.496 14.576 16.312Z" fill="#808080"/>
</svg>
