<svg width="24" height="24" viewBox="0 0 24 24" fill="none" xmlns="http://www.w3.org/2000/svg">
<path fill-rule="evenodd" clip-rule="evenodd" d="M17.7656 9.98198L13.8936 9.64598L12.3816 6.08598C12.1096 5.43798 11.1816 5.43798 10.9096 6.08598L9.39761 9.65398L5.53361 9.98198C4.82961 10.038 4.54161 10.918 5.07761 11.382L8.01361 13.926L7.13361 17.702C6.97361 18.39 7.71761 18.934 8.32561 18.566L11.6456 16.566L14.9656 18.574C15.5736 18.942 16.3176 18.398 16.1576 17.71L15.2776 13.926L18.2136 11.382C18.7496 10.918 18.4696 10.038 17.7656 9.98198ZM11.6456 15.07L8.63761 16.886L9.43761 13.462L6.78161 11.158L10.2856 10.854L11.6456 7.62998L13.0136 10.862L16.5176 11.166L13.8616 13.47L14.6616 16.894L11.6456 15.07Z" fill="#808080"/>
</svg>
