<svg width="24" height="24" viewBox="0 0 24 24" fill="none" xmlns="http://www.w3.org/2000/svg">
<path fill-rule="evenodd" clip-rule="evenodd" d="M20.8 16.81H19.84L21.272 18.242C21.464 18.098 21.6 17.874 21.6 17.61C21.6 17.17 21.24 16.81 20.8 16.81ZM4.98402 4.234C4.67202 3.922 4.16002 3.922 3.84802 4.234C3.53602 4.546 3.53602 5.05 3.84802 5.362L4.52002 6.05C4.52002 6.05 3.99202 6.506 3.99202 7.226C4.00002 7.946 4.00002 15.21 4.00002 15.21L4.00802 15.218C4.00802 16.09 4.71202 16.802 5.58402 16.81H3.20002C2.76002 16.81 2.40002 17.17 2.40002 17.61C2.40002 18.05 2.76002 18.41 3.20002 18.41H16.904L18.504 20.01C18.816 20.322 19.32 20.322 19.632 20.01C19.944 19.698 19.944 19.194 19.632 18.882L4.98402 4.234ZM8.00002 14.41C8.24802 13.226 8.75202 12.066 9.66402 11.17L10.936 12.442C9.70402 12.746 8.76802 13.378 8.00002 14.41ZM12.8 9.714V8.93C12.8 8.578 13.216 8.402 13.472 8.634L14.4 9.506L15.688 10.706C15.856 10.866 15.856 11.13 15.688 11.29L14.976 11.954L19.44 16.418C19.784 16.122 20 15.698 20 15.21V7.21C20 6.338 19.288 5.626 18.416 5.626H8.64002L12.752 9.73C12.768 9.722 12.784 9.714 12.8 9.714Z" fill="#808080"/>
</svg>
