<svg width="24" height="24" viewBox="0 0 24 24" fill="none" xmlns="http://www.w3.org/2000/svg">
<path fill-rule="evenodd" clip-rule="evenodd" d="M18.528 8.63998C18.456 8.27198 18.128 7.99998 17.744 7.99998H6.25605C5.87205 7.99998 5.54405 8.27198 5.47205 8.63998L4.80005 12V12.8C4.80005 13.24 5.16005 13.6 5.60005 13.6V17.6C5.60005 18.04 5.96005 18.4 6.40005 18.4H12.8C13.24 18.4 13.6 18.04 13.6 17.6V13.6H16.8V17.6C16.8 18.04 17.16 18.4 17.6 18.4C18.04 18.4 18.4 18.04 18.4 17.6V13.6C18.84 13.6 19.2 13.24 19.2 12.8V12L18.528 8.63998ZM12 16.8H7.20005V13.6H12V16.8ZM6.40005 7.19998H17.6C18.04 7.19998 18.4 6.83998 18.4 6.39998C18.4 5.95998 18.04 5.59998 17.6 5.59998H6.40005C5.96005 5.59998 5.60005 5.95998 5.60005 6.39998C5.60005 6.83998 5.96005 7.19998 6.40005 7.19998Z" fill="#808080"/>
</svg>
