<svg width="24" height="24" viewBox="0 0 24 24" fill="none" xmlns="http://www.w3.org/2000/svg">
<path fill-rule="evenodd" clip-rule="evenodd" d="M6.54302 7.19998H17.743C18.183 7.19998 18.543 6.83998 18.543 6.39998C18.543 5.95998 18.183 5.59998 17.743 5.59998H6.54302C6.10302 5.59998 5.74302 5.95998 5.74302 6.39998C5.74302 6.83998 6.10302 7.19998 6.54302 7.19998ZM18.671 8.63998C18.599 8.27198 18.271 7.99998 17.887 7.99998H6.39902C6.01502 7.99998 5.68702 8.27198 5.61502 8.63998L4.81502 12.64C4.71902 13.136 5.09502 13.6 5.59902 13.6H5.74302V17.6C5.74302 18.04 6.10302 18.4 6.54302 18.4H12.943C13.383 18.4 13.743 18.04 13.743 17.6V13.6H16.943V17.6C16.943 18.04 17.303 18.4 17.743 18.4C18.183 18.4 18.543 18.04 18.543 17.6V13.6H18.687C19.191 13.6 19.567 13.136 19.471 12.64L18.671 8.63998ZM12.143 16.8H7.34302V13.6H12.143V16.8Z" fill="#808080"/>
</svg>
