<svg width="24" height="24" viewBox="0 0 24 24" fill="none" xmlns="http://www.w3.org/2000/svg">
<path fill-rule="evenodd" clip-rule="evenodd" d="M5.6 18.4H18.4C19.28 18.4 20 17.68 20 16.8C20 15.92 19.28 15.2 18.4 15.2H5.6C4.72 15.2 4 15.92 4 16.8C4 17.68 4.72 18.4 5.6 18.4ZM5.6 16H7.2V17.6H5.6V16ZM4 7.19998C4 8.07998 4.72 8.79998 5.6 8.79998H18.4C19.28 8.79998 20 8.07998 20 7.19998C20 6.31998 19.28 5.59998 18.4 5.59998H5.6C4.72 5.59998 4 6.31998 4 7.19998ZM7.2 7.99998H5.6V6.39998H7.2V7.99998ZM5.6 13.6H18.4C19.28 13.6 20 12.88 20 12C20 11.12 19.28 10.4 18.4 10.4H5.6C4.72 10.4 4 11.12 4 12C4 12.88 4.72 13.6 5.6 13.6ZM5.6 11.2H7.2V12.8H5.6V11.2Z" fill="#808080"/>
</svg>
