<svg width="24" height="24" viewBox="0 0 24 24" fill="none" xmlns="http://www.w3.org/2000/svg">
<path fill-rule="evenodd" clip-rule="evenodd" d="M19.2 7.20001H4.79995C3.91995 7.20001 3.19995 7.92001 3.19995 8.80001V15.2C3.19995 16.08 3.91995 16.8 4.79995 16.8H19.2C20.08 16.8 20.8 16.08 20.8 15.2V8.80001C20.8 7.92001 20.08 7.20001 19.2 7.20001ZM18.4 15.2H5.59995C5.15995 15.2 4.79995 14.84 4.79995 14.4V9.60001C4.79995 9.16001 5.15995 8.80001 5.59995 8.80001H6.39995V11.2C6.39995 11.64 6.75995 12 7.19995 12C7.63995 12 7.99995 11.64 7.99995 11.2V8.80001H9.59995V11.2C9.59995 11.64 9.95995 12 10.4 12C10.84 12 11.2 11.64 11.2 11.2V8.80001H12.8V11.2C12.8 11.64 13.16 12 13.6 12C14.04 12 14.4 11.64 14.4 11.2V8.80001H16V11.2C16 11.64 16.36 12 16.8 12C17.24 12 17.6 11.64 17.6 11.2V8.80001H18.4C18.84 8.80001 19.2 9.16001 19.2 9.60001V14.4C19.2 14.84 18.84 15.2 18.4 15.2Z" fill="#808080"/>
</svg>
