<svg width="24" height="24" viewBox="0 0 24 24" fill="none" xmlns="http://www.w3.org/2000/svg">
<path fill-rule="evenodd" clip-rule="evenodd" d="M11.648 14.664C11.376 14.88 11.2 15.224 11.2 15.6V20H16.8C17.68 20 18.4 19.28 18.4 18.4V13.616C17.648 13.352 16.84 13.2 16 13.2C14.376 13.2 12.856 13.76 11.648 14.664ZM16 4C13.7909 4 12 5.79086 12 8C12 10.2091 13.7909 12 16 12C18.2091 12 20 10.2091 20 8C20 5.79086 18.2091 4 16 4ZM10.8 8C10.8 7.136 11.016 6.32 11.392 5.6H5.6C4.72 5.6 4 6.32 4 7.2V18.4C4 18.84 4.184 19.24 4.472 19.528L12.328 11.672C11.384 10.736 10.8 9.44 10.8 8Z" fill="#808080"/>
</svg>
