<svg width="24" height="24" viewBox="0 0 24 24" fill="none" xmlns="http://www.w3.org/2000/svg">
<path fill-rule="evenodd" clip-rule="evenodd" d="M14.072 9.21601C14.072 8.96801 14.032 8.74401 13.952 8.53601C13.88 8.32001 13.76 8.14401 13.6 7.99201C13.44 7.84001 13.24 7.72801 13 7.64001C12.76 7.56001 12.472 7.51201 12.152 7.51201C11.84 7.51201 11.56 7.54401 11.328 7.61601C11.096 7.68801 10.904 7.78401 10.752 7.90401C10.6 8.03201 10.48 8.17601 10.4 8.34401C10.32 8.51201 10.28 8.68801 10.28 8.87201C10.28 9.25601 10.48 9.57601 10.872 9.84001C11.176 10.04 11.488 10.224 12 10.4H8.31205C8.27205 10.336 8.22405 10.264 8.19205 10.2C7.98405 9.81601 7.88005 9.37601 7.88005 8.86401C7.88005 8.37601 7.98405 7.93601 8.20005 7.52801C8.40805 7.12801 8.70405 6.78401 9.08805 6.49601C9.47205 6.21601 9.92805 5.99201 10.448 5.83201C10.976 5.68001 11.56 5.60001 12.192 5.60001C12.84 5.60001 13.424 5.68801 13.96 5.87201C14.488 6.04801 14.944 6.30401 15.312 6.62401C15.688 6.94401 15.976 7.32801 16.176 7.76801C16.376 8.20801 16.48 8.68801 16.48 9.21601H14.072ZM18.4 11.2H5.60005C5.16005 11.2 4.80005 11.56 4.80005 12C4.80005 12.44 5.16005 12.8 5.60005 12.8H12.496C12.64 12.856 12.816 12.912 12.936 12.96C13.232 13.096 13.464 13.232 13.632 13.368C13.8 13.504 13.912 13.656 13.976 13.824C14.032 13.984 14.064 14.168 14.064 14.376C14.064 14.56 14.024 14.736 13.952 14.904C13.88 15.064 13.768 15.208 13.616 15.328C13.464 15.448 13.28 15.536 13.048 15.608C12.816 15.672 12.544 15.712 12.24 15.712C11.896 15.712 11.576 15.68 11.296 15.608C11.016 15.536 10.768 15.424 10.568 15.272C10.368 15.12 10.208 14.92 10.096 14.672C9.98405 14.424 9.89605 14.064 9.89605 13.704H7.52005C7.52005 14.144 7.58405 14.608 7.71205 14.968C7.84005 15.328 8.00805 15.648 8.23205 15.936C8.45605 16.216 8.71205 16.464 9.01605 16.672C9.31205 16.88 9.64005 17.056 9.99205 17.192C10.344 17.328 10.712 17.432 11.096 17.504C11.48 17.568 11.864 17.608 12.248 17.608C12.888 17.608 13.472 17.536 13.992 17.384C14.512 17.232 14.96 17.024 15.328 16.752C15.696 16.48 15.984 16.136 16.184 15.736C16.384 15.336 16.488 14.88 16.488 14.368C16.488 13.888 16.408 13.456 16.24 13.08C16.2 12.992 16.152 12.896 16.104 12.816H18.4C18.84 12.816 19.2 12.456 19.2 12.016V12C19.2 11.56 18.84 11.2 18.4 11.2Z" fill="#808080"/>
</svg>
