<svg width="24" height="24" viewBox="0 0 24 24" fill="none" xmlns="http://www.w3.org/2000/svg">
<path fill-rule="evenodd" clip-rule="evenodd" d="M4.98795 17.52L6.05995 17.968V10.744L4.11595 15.432C3.78795 16.248 4.17995 17.184 4.98795 17.52ZM20.5879 14.56L16.6199 4.984C16.3719 4.384 15.7879 4.016 15.1719 4C14.9639 4 14.7479 4.032 14.5399 4.12L8.64395 6.56C8.04395 6.808 7.67595 7.384 7.65995 8C7.65195 8.216 7.69195 8.432 7.77995 8.64L11.7479 18.216C11.9959 18.824 12.5879 19.192 13.2119 19.2C13.4199 19.2 13.6279 19.16 13.8279 19.08L19.7159 16.64C20.5319 16.304 20.9239 15.368 20.5879 14.56ZM9.26795 8.8C8.82795 8.8 8.46795 8.44 8.46795 8C8.46795 7.56 8.82795 7.2 9.26795 7.2C9.70795 7.2 10.0679 7.56 10.0679 8C10.0679 8.44 9.70795 8.8 9.26795 8.8ZM7.66795 17.6C7.66795 18.48 8.38795 19.2 9.26795 19.2H10.4279L7.66795 12.528V17.6Z" fill="#808080"/>
</svg>
