<svg width="24" height="24" viewBox="0 0 24 24" fill="none" xmlns="http://www.w3.org/2000/svg">
<path fill-rule="evenodd" clip-rule="evenodd" d="M17.8319 14.968L14.1679 18.632C13.8559 18.944 13.3439 18.944 13.0319 18.632C12.7199 18.32 12.7199 17.808 13.0319 17.496L15.3359 15.2H7.1999C6.7599 15.2 6.3999 14.84 6.3999 14.4V6.40001C6.3999 5.96001 6.7599 5.60001 7.1999 5.60001C7.6399 5.60001 7.9999 5.96001 7.9999 6.40001V13.6H15.3359L13.0319 11.304C12.7199 10.992 12.7199 10.48 13.0319 10.168C13.3439 9.85601 13.8559 9.85601 14.1679 10.168L17.8319 13.832C18.1439 14.144 18.1439 14.656 17.8319 14.968Z" fill="#808080"/>
</svg>
