<svg width="24" height="24" viewBox="0 0 24 24" fill="none" xmlns="http://www.w3.org/2000/svg">
<path fill-rule="evenodd" clip-rule="evenodd" d="M6.6339 14.968L10.2979 18.632C10.6099 18.944 11.1219 18.944 11.4339 18.632C11.7459 18.32 11.7459 17.808 11.4339 17.496L9.1299 15.2H17.2659C17.7059 15.2 18.0659 14.84 18.0659 14.4V6.40001C18.0659 5.96001 17.7059 5.60001 17.2659 5.60001C16.8259 5.60001 16.4659 5.96001 16.4659 6.40001V13.6H9.1299L11.4339 11.304C11.7459 10.992 11.7459 10.48 11.4339 10.168C11.1219 9.85601 10.6099 9.85601 10.2979 10.168L6.6339 13.832C6.3219 14.144 6.3219 14.656 6.6339 14.968Z" fill="#808080"/>
</svg>
