<svg width="24" height="24" viewBox="0 0 24 24" fill="none" xmlns="http://www.w3.org/2000/svg">
<path fill-rule="evenodd" clip-rule="evenodd" d="M12.8 16H6.40001C5.96001 16 5.60001 16.36 5.60001 16.8C5.60001 17.24 5.96001 17.6 6.40001 17.6H12.8C13.24 17.6 13.6 17.24 13.6 16.8C13.6 16.36 13.24 16 12.8 16ZM17.6 9.60002H6.40001C5.96001 9.60002 5.60001 9.96002 5.60001 10.4C5.60001 10.84 5.96001 11.2 6.40001 11.2H17.6C18.04 11.2 18.4 10.84 18.4 10.4C18.4 9.96002 18.04 9.60002 17.6 9.60002ZM6.40001 14.4H17.6C18.04 14.4 18.4 14.04 18.4 13.6C18.4 13.16 18.04 12.8 17.6 12.8H6.40001C5.96001 12.8 5.60001 13.16 5.60001 13.6C5.60001 14.04 5.96001 14.4 6.40001 14.4ZM5.60001 7.20002C5.60001 7.64002 5.96001 8.00002 6.40001 8.00002H17.6C18.04 8.00002 18.4 7.64002 18.4 7.20002C18.4 6.76002 18.04 6.40002 17.6 6.40002H6.40001C5.96001 6.40002 5.60001 6.76002 5.60001 7.20002Z" fill="#808080"/>
</svg>
