<svg width="24" height="24" viewBox="0 0 24 24" fill="none" xmlns="http://www.w3.org/2000/svg">
<path fill-rule="evenodd" clip-rule="evenodd" d="M17.6 8.8H6.4C5.96 8.8 5.6 8.44 5.6 8C5.6 7.56 5.96 7.2 6.4 7.2H17.6C18.04 7.2 18.4 7.56 18.4 8C18.4 8.44 18.04 8.8 17.6 8.8ZM16 4H8C7.56 4 7.2 4.36 7.2 4.8C7.2 5.24 7.56 5.6 8 5.6H16C16.44 5.6 16.8 5.24 16.8 4.8C16.8 4.36 16.44 4 16 4ZM20 12V18.4C20 19.28 19.28 20 18.4 20H5.6C4.72 20 4 19.28 4 18.4V12C4 11.12 4.72 10.4 5.6 10.4H18.4C19.28 10.4 20 11.12 20 12ZM14.552 14.848L10.4 12.584V17.808L14.552 15.552C14.832 15.4 14.832 15 14.552 14.848Z" fill="#808080"/>
</svg>
