<svg width="24" height="24" viewBox="0 0 24 24" fill="none" xmlns="http://www.w3.org/2000/svg">
<path fill-rule="evenodd" clip-rule="evenodd" d="M18.4 5.59998H5.6C4.72 5.59998 4 6.31998 4 7.19998V16.8C4 17.68 4.72 18.4 5.6 18.4H18.4C19.28 18.4 20 17.68 20 16.8V7.19998C20 6.31998 19.28 5.59998 18.4 5.59998ZM6.4 12H8C8.44 12 8.8 12.36 8.8 12.8C8.8 13.24 8.44 13.6 8 13.6H6.4C5.96 13.6 5.6 13.24 5.6 12.8C5.6 12.36 5.96 12 6.4 12ZM12.8 16.8H6.4C5.96 16.8 5.6 16.44 5.6 16C5.6 15.56 5.96 15.2 6.4 15.2H12.8C13.24 15.2 13.6 15.56 13.6 16C13.6 16.44 13.24 16.8 12.8 16.8ZM17.6 16.8H16C15.56 16.8 15.2 16.44 15.2 16C15.2 15.56 15.56 15.2 16 15.2H17.6C18.04 15.2 18.4 15.56 18.4 16C18.4 16.44 18.04 16.8 17.6 16.8ZM17.6 13.6H11.2C10.76 13.6 10.4 13.24 10.4 12.8C10.4 12.36 10.76 12 11.2 12H17.6C18.04 12 18.4 12.36 18.4 12.8C18.4 13.24 18.04 13.6 17.6 13.6Z" fill="#808080"/>
</svg>
