<svg width="24" height="24" viewBox="0 0 24 24" fill="none" xmlns="http://www.w3.org/2000/svg">
<path fill-rule="evenodd" clip-rule="evenodd" d="M9.2 14.4C8.75817 14.4 8.4 14.7582 8.4 15.2C8.4 15.6418 8.75817 16 9.2 16C9.64183 16 10 15.6418 10 15.2C10 14.7582 9.64183 14.4 9.2 14.4ZM14.8 14.4C14.3582 14.4 14 14.7582 14 15.2C14 15.6418 14.3582 16 14.8 16C15.2418 16 15.6 15.6418 15.6 15.2C15.6 14.7582 15.2418 14.4 14.8 14.4ZM8.008 9.6H16.008V13.6H8.008V9.6ZM16.64 4.64C15.2 4.072 13.488 4 12 4C10.512 4 8.8 4.072 7.36 4.64C5.224 5.472 4 7.24 4 9.488V20H20V9.488C20 7.24 18.776 5.472 16.64 4.64ZM16.8 14.8C16.8 16.032 15.872 17.032 14.68 17.168L15.6 18.096V18.4H14.264L13.064 17.2H10.936L9.736 18.4H8.4V18.096L9.32 17.168C8.128 17.032 7.2 16.032 7.2 14.8V9.6C7.2 7.496 9.6 7.2 12 7.2C14.4 7.2 16.8 7.496 16.8 9.6V14.8Z" fill="#808080"/>
</svg>
