<svg width="24" height="24" viewBox="0 0 24 24" fill="none" xmlns="http://www.w3.org/2000/svg">
<path fill-rule="evenodd" clip-rule="evenodd" d="M15.6 12C16.704 12 17.592 11.104 17.592 10C17.592 8.89602 16.704 8.00002 15.6 8.00002C14.496 8.00002 13.6 8.89602 13.6 10C13.6 11.104 14.496 12 15.6 12ZM9.6 11.2C10.928 11.2 11.992 10.128 11.992 8.80002C11.992 7.47202 10.928 6.40002 9.6 6.40002C8.272 6.40002 7.2 7.47202 7.2 8.80002C7.2 10.128 8.272 11.2 9.6 11.2ZM15.6 13.6C14.136 13.6 11.2 14.336 11.2 15.8V16.8C11.2 17.24 11.56 17.6 12 17.6H19.2C19.64 17.6 20 17.24 20 16.8V15.8C20 14.336 17.064 13.6 15.6 13.6ZM9.6 12.8C7.736 12.8 4 13.736 4 15.6V16.8C4 17.24 4.36 17.6 4.8 17.6H9.6V15.8C9.6 15.12 9.864 13.928 11.496 13.024C10.8 12.88 10.128 12.8 9.6 12.8Z" fill="#808080"/>
</svg>
