<svg width="24" height="24" viewBox="0 0 24 24" fill="none" xmlns="http://www.w3.org/2000/svg">
<path fill-rule="evenodd" clip-rule="evenodd" d="M18.4 5.59998H5.6C4.72 5.59998 4 6.31998 4 7.19998V16.8C4 17.68 4.72 18.4 5.6 18.4H18.4C19.28 18.4 20 17.68 20 16.8V7.19998C20 6.31998 19.28 5.59998 18.4 5.59998ZM8.088 15.912C7.744 16.256 7.176 16.224 6.88 15.84C6.024 14.712 5.6 13.352 5.6 12C5.6 10.648 6.024 9.29598 6.872 8.15998C7.168 7.77598 7.736 7.73598 8.08 8.07998C8.36 8.35998 8.392 8.79998 8.16 9.11198C7.52 9.96798 7.2 10.984 7.2 12C7.2 13.016 7.52 14.024 8.16 14.88C8.4 15.192 8.368 15.632 8.088 15.912ZM12 15.2C10.232 15.2 8.8 13.768 8.8 12C8.8 10.232 10.232 8.79998 12 8.79998C13.768 8.79998 15.2 10.232 15.2 12C15.2 13.768 13.768 15.2 12 15.2ZM15.92 15.92C15.64 15.64 15.608 15.2 15.848 14.888C16.48 14.032 16.8 13.016 16.8 12C16.8 10.984 16.48 9.97598 15.84 9.11998C15.6 8.80798 15.632 8.35998 15.912 8.07998C16.256 7.73598 16.824 7.76798 17.12 8.15198C17.976 9.27998 18.4 10.632 18.4 11.992C18.4 13.344 17.976 14.696 17.128 15.832C16.832 16.224 16.264 16.264 15.92 15.92ZM12 10.4C11.12 10.4 10.4 11.12 10.4 12C10.4 12.88 11.12 13.6 12 13.6C12.88 13.6 13.6 12.88 13.6 12C13.6 11.12 12.88 10.4 12 10.4Z" fill="#808080"/>
</svg>
