<svg width="24" height="24" viewBox="0 0 24 24" fill="none" xmlns="http://www.w3.org/2000/svg">
<path fill-rule="evenodd" clip-rule="evenodd" d="M17.814 15.5C19.741 15.5 20.885 14.3701 20.885 12.5228V11.6929H17.9875V12.8744H19.2253L19.2206 12.9776C19.1737 13.6574 18.6298 14.1169 17.8515 14.1169C16.8622 14.1169 16.2246 13.3058 16.2246 11.9648C16.2246 10.6474 16.8013 9.88312 17.7765 9.88312C18.4376 9.88312 18.944 10.2488 19.1128 10.849H20.8147C20.6412 9.47053 19.4128 8.5 17.7718 8.5C15.7276 8.5 14.4711 9.79404 14.4711 11.9883C14.4711 14.2106 15.7276 15.5 17.814 15.5ZM12.0723 15.3616H9.9062L7.74947 8.59601H9.7046L11.008 13.6784H11.0455L12.3442 8.59601H14.229L12.0723 15.3616ZM3.11426 13.3444H4.35118C4.41284 13.8114 4.81548 14.0834 5.32693 14.0834C5.84564 14.0834 6.18298 13.7933 6.18298 13.3942C6.18298 13.0315 5.95809 12.8456 5.33781 12.696L4.80097 12.569C3.7563 12.3242 3.21582 11.6849 3.21582 10.6873C3.21582 9.42685 4.09001 8.61524 5.29429 8.61524C6.61101 8.61524 7.38726 9.42232 7.40177 10.6692H6.16485C6.14308 10.1977 5.7876 9.91654 5.30517 9.91654C4.82273 9.91654 4.53617 10.1886 4.53617 10.574C4.53617 10.9186 4.77558 11.109 5.34507 11.2451L5.88191 11.372C6.99913 11.6395 7.50696 12.2063 7.50696 13.2356C7.50696 14.5505 6.68355 15.3847 5.30154 15.3847C3.9957 15.3847 3.13239 14.6321 3.11426 13.3444Z" fill="#808080"/>
</svg>
