<svg width="24" height="24" viewBox="0 0 24 24" fill="none" xmlns="http://www.w3.org/2000/svg">
<path fill-rule="evenodd" clip-rule="evenodd" d="M16.7533 6.67936L14.5213 8.91136C14.2653 9.16736 14.4413 9.59936 14.8013 9.59936H16.2333V15.1034C16.2333 15.9034 15.6973 16.6474 14.9053 16.7754C13.9053 16.9434 13.0333 16.1674 13.0333 15.1994V9.73536C13.0333 8.06336 11.8093 6.57536 10.1453 6.41536C8.24128 6.23136 6.63328 7.72736 6.63328 9.59936V15.1994H5.20128C4.84128 15.1994 4.66528 15.6314 4.92128 15.8794L7.15328 18.1114C7.31328 18.2714 7.56128 18.2714 7.72128 18.1114L9.95328 15.8794C10.2013 15.6314 10.0253 15.1994 9.66528 15.1994H8.23328V9.69536C8.23328 8.89536 8.76928 8.15136 9.56128 8.02336C10.5613 7.85536 11.4333 8.63136 11.4333 9.59936V15.0634C11.4333 16.7354 12.6573 18.2234 14.3213 18.3834C16.2253 18.5674 17.8333 17.0714 17.8333 15.1994V9.59936H19.2653C19.6253 9.59936 19.8013 9.16736 19.5453 8.91936L17.3133 6.68736C17.1613 6.52736 16.9053 6.52736 16.7533 6.67936Z" fill="#808080"/>
</svg>
