<svg width="24" height="24" viewBox="0 0 24 24" fill="none" xmlns="http://www.w3.org/2000/svg">
<path fill-rule="evenodd" clip-rule="evenodd" d="M7.13799 12.1195L4.91399 14.3515C4.76199 14.5115 4.76199 14.7595 4.91399 14.9195L7.13799 17.1515C7.38599 17.4075 7.81799 17.2235 7.81799 16.8715V15.4315H12.626C13.066 15.4315 13.426 15.0715 13.426 14.6315C13.426 14.1915 13.066 13.8315 12.626 13.8315H7.81799V12.3995C7.81799 12.0395 7.38599 11.8635 7.13799 12.1195ZM18.746 9.55147L16.522 7.31947C16.274 7.06347 15.842 7.24747 15.842 7.59947V9.03147H11.026C10.586 9.03147 10.226 9.39147 10.226 9.83147C10.226 10.2715 10.586 10.6315 11.026 10.6315H15.834V12.0635C15.834 12.4235 16.266 12.5995 16.514 12.3435L18.738 10.1115C18.898 9.95947 18.898 9.70347 18.746 9.55147Z" fill="#808080"/>
</svg>
