<svg width="24" height="24" viewBox="0 0 24 24" fill="none" xmlns="http://www.w3.org/2000/svg">
<path fill-rule="evenodd" clip-rule="evenodd" d="M18.4 6.39999H15.864L14.872 5.31999C14.576 4.99199 14.144 4.79999 13.696 4.79999H10.304C9.856 4.79999 9.424 4.99199 9.12 5.31999L8.136 6.39999H5.6C4.72 6.39999 4 7.11999 4 7.99999V17.6C4 18.48 4.72 19.2 5.6 19.2H18.4C19.28 19.2 20 18.48 20 17.6V7.99999C20 7.11999 19.28 6.39999 18.4 6.39999ZM14.4 15.6V13.6H9.6V15.6L7.08 13.08C6.92 12.92 6.92 12.672 7.08 12.512L9.6 9.99999V12H14.4V9.99999L16.92 12.52C17.08 12.68 17.08 12.928 16.92 13.088L14.4 15.6Z" fill="#808080"/>
</svg>
