<svg width="24" height="24" viewBox="0 0 24 24" fill="none" xmlns="http://www.w3.org/2000/svg">
<path fill-rule="evenodd" clip-rule="evenodd" d="M16.8 10V7.20002C16.8 6.76002 16.44 6.40002 16 6.40002H4.8C4.36 6.40002 4 6.76002 4 7.20002V16.8C4 17.24 4.36 17.6 4.8 17.6H16C16.44 17.6 16.8 17.24 16.8 16.8V14L18.632 15.832C19.136 16.336 20 15.976 20 15.264V8.72802C20 8.01602 19.136 7.65602 18.632 8.16002L16.8 10ZM12.8 14.8V12.8H8V14.8L5.48 12.28C5.32 12.12 5.32 11.872 5.48 11.712L8 9.20002V11.2H12.8V9.20002L15.32 11.72C15.48 11.88 15.48 12.128 15.32 12.288L12.8 14.8Z" fill="#808080"/>
</svg>
