<svg width="24" height="24" viewBox="0 0 24 24" fill="none" xmlns="http://www.w3.org/2000/svg">
<path fill-rule="evenodd" clip-rule="evenodd" d="M12.0001 5.83323V4.40123C12.0001 4.04123 11.5681 3.86523 11.3201 4.12123L9.0801 6.35323C8.9201 6.51323 8.9201 6.76123 9.0801 6.92123L11.3121 9.15323C11.5681 9.40123 12.0001 9.22523 12.0001 8.86523V7.43323C14.6481 7.43323 16.8001 9.58523 16.8001 12.2332C16.8001 12.8652 16.6801 13.4812 16.4481 14.0332C16.3281 14.3212 16.4161 14.6492 16.6321 14.8652C17.0401 15.2732 17.7281 15.1292 17.9441 14.5932C18.2401 13.8652 18.4001 13.0652 18.4001 12.2332C18.4001 8.69723 15.5361 5.83323 12.0001 5.83323ZM12.0001 17.0332C9.3521 17.0332 7.2001 14.8812 7.2001 12.2332C7.2001 11.6012 7.3201 10.9852 7.5521 10.4332C7.6721 10.1452 7.5841 9.81723 7.3681 9.60123C6.9601 9.19323 6.2721 9.33723 6.0561 9.87323C5.7601 10.6012 5.6001 11.4012 5.6001 12.2332C5.6001 15.7692 8.4641 18.6332 12.0001 18.6332V20.0652C12.0001 20.4252 12.4321 20.6012 12.6801 20.3452L14.9121 18.1132C15.0721 17.9532 15.0721 17.7052 14.9121 17.5452L12.6801 15.3132C12.4321 15.0652 12.0001 15.2412 12.0001 15.6012V17.0332Z" fill="#808080"/>
</svg>
