<svg width="24" height="24" viewBox="0 0 24 24" fill="none" xmlns="http://www.w3.org/2000/svg">
<path fill-rule="evenodd" clip-rule="evenodd" d="M10.9781 6.99198V6.83998C10.9781 6.29598 10.4101 5.95198 9.9221 6.18398C9.7701 6.25598 9.6341 6.34398 9.4901 6.42398L10.6581 7.59198C10.8501 7.44798 10.9781 7.23198 10.9781 6.99198ZM18.9781 12C18.9781 10.232 18.2501 8.63998 17.0901 7.48798L18.2981 6.27998C18.5461 6.03198 18.3701 5.59998 18.0101 5.59998H14.1781V9.43198C14.1781 9.79198 14.6101 9.96798 14.8581 9.71198L15.9701 8.59998C16.8341 9.47998 17.3781 10.672 17.3781 12C17.3781 12.68 17.2341 13.328 16.9781 13.912L18.1621 15.096C18.6741 14.176 18.9781 13.128 18.9781 12ZM5.8341 6.15998C5.5221 6.47198 5.5221 6.97598 5.8341 7.28798L7.1541 8.60798C6.5381 9.59998 6.1781 10.752 6.1781 12C6.1781 13.768 6.9061 15.36 8.0661 16.512L6.8581 17.72C6.6101 17.968 6.7861 18.4 7.1461 18.4H10.5781C10.8021 18.4 10.9781 18.224 10.9781 18V14.568C10.9781 14.208 10.5461 14.032 10.2981 14.288L9.1861 15.4C8.3221 14.52 7.7781 13.328 7.7781 12C7.7781 11.2 7.9861 10.456 8.3301 9.79198L14.7861 16.248C14.7781 16.264 14.7781 16.264 14.7781 16.28C14.4341 16.376 14.1781 16.664 14.1781 17.008V17.152C14.1781 17.696 14.7461 18.04 15.2341 17.808C15.4821 17.696 15.7221 17.56 15.9541 17.416L17.4501 18.912C17.7621 19.224 18.2661 19.224 18.5781 18.912C18.8901 18.6 18.8901 18.096 18.5781 17.784L6.9621 6.15998C6.81263 6.01017 6.60971 5.92599 6.3981 5.92599C6.18648 5.92599 5.98356 6.01017 5.8341 6.15998Z" fill="#808080"/>
</svg>
