<svg width="24" height="24" viewBox="0 0 24 24" fill="none" xmlns="http://www.w3.org/2000/svg">
<path fill-rule="evenodd" clip-rule="evenodd" d="M4.80005 12C4.80005 13.768 5.52805 15.36 6.68805 16.512L5.48005 17.72C5.23205 17.968 5.40805 18.4 5.76805 18.4H9.20005C9.42405 18.4 9.60005 18.224 9.60005 18V14.568C9.60005 14.208 9.16805 14.032 8.92005 14.288L7.80805 15.4C6.94405 14.52 6.40005 13.328 6.40005 12C6.40005 10.088 7.52005 8.43198 9.14405 7.66398C9.41605 7.53598 9.60005 7.28798 9.60005 6.99198V6.83998C9.60005 6.29598 9.03205 5.95198 8.54405 6.18398C6.33605 7.19198 4.80005 9.41598 4.80005 12ZM11.2 16H12.8V14.4H11.2V16ZM18.232 5.59998H14.8C14.576 5.59998 14.4 5.77598 14.4 5.99998V9.43198C14.4 9.79198 14.832 9.96798 15.08 9.71198L16.192 8.59998C17.056 9.47998 17.6 10.672 17.6 12C17.6 13.912 16.48 15.568 14.856 16.336C14.584 16.464 14.4 16.712 14.4 17.008V17.152C14.4 17.696 14.968 18.04 15.456 17.808C17.664 16.808 19.2 14.584 19.2 12C19.2 10.232 18.472 8.63998 17.312 7.48798L18.52 6.27998C18.768 6.03198 18.592 5.59998 18.232 5.59998ZM12 12.8C12.44 12.8 12.8 12.44 12.8 12V8.79998C12.8 8.35998 12.44 7.99998 12 7.99998C11.56 7.99998 11.2 8.35998 11.2 8.79998V12C11.2 12.44 11.56 12.8 12 12.8Z" fill="#808080"/>
</svg>
