<svg width="24" height="24" viewBox="0 0 24 24" fill="none" xmlns="http://www.w3.org/2000/svg">
<path fill-rule="evenodd" clip-rule="evenodd" d="M12.28 14.92L14.512 12.688C14.76 12.44 14.584 12.008 14.232 12.008H12.8V5.60005C12.8 5.16005 12.44 4.80005 12 4.80005C11.56 4.80005 11.2 5.16005 11.2 5.60005V12H9.768C9.408 12 9.232 12.432 9.488 12.68L11.72 14.912C11.872 15.072 12.128 15.072 12.28 14.92ZM19.2 4.80005H15.192C14.76 4.80005 14.4 5.16005 14.4 5.59205C14.4 6.03205 14.76 6.38405 15.192 6.38405H18.4C18.84 6.38405 19.2 6.74405 19.2 7.18405V16.808C19.2 17.248 18.84 17.608 18.4 17.608H5.6C5.16 17.608 4.8 17.248 4.8 16.808V7.19205C4.8 6.75205 5.16 6.39205 5.6 6.39205H8.808C9.24 6.39205 9.6 6.03205 9.6 5.60005C9.6 5.16005 9.24 4.80005 8.808 4.80005H4.8C3.92 4.80005 3.2 5.52005 3.2 6.40005V17.6C3.2 18.48 3.92 19.2 4.8 19.2H19.2C20.08 19.2 20.8 18.48 20.8 17.6V6.40005C20.8 5.52005 20.08 4.80005 19.2 4.80005Z" fill="#808080"/>
</svg>
