<svg width="24" height="24" viewBox="0 0 24 24" fill="none" xmlns="http://www.w3.org/2000/svg">
<path fill-rule="evenodd" clip-rule="evenodd" d="M15.9999 3.20801L7.9999 3.20001C7.1199 3.20001 6.3999 3.92001 6.3999 4.80001V19.2C6.3999 20.08 7.1199 20.8 7.9999 20.8H15.9999C16.8799 20.8 17.5999 20.08 17.5999 19.2V4.80001C17.5999 3.92001 16.8799 3.20801 15.9999 3.20801ZM15.9999 17.6H7.9999V6.40001H15.9999V17.6ZM14.2319 12.8H12.7999V9.60001C12.7999 9.16001 12.4399 8.80001 11.9999 8.80001C11.5599 8.80001 11.1999 9.16001 11.1999 9.60001V12.8H9.7679C9.4079 12.8 9.2319 13.232 9.4879 13.48L11.7199 15.712C11.8799 15.872 12.1279 15.872 12.2879 15.712L14.5199 13.48C14.7679 13.232 14.5919 12.8 14.2319 12.8Z" fill="#808080"/>
</svg>
