<svg width="24" height="24" viewBox="0 0 24 24" fill="none" xmlns="http://www.w3.org/2000/svg">
<path fill-rule="evenodd" clip-rule="evenodd" d="M19.2 4.80005H4.80001C3.92001 4.80005 3.20001 5.52005 3.20001 6.40005V17.6C3.20001 18.48 3.92001 19.2 4.80001 19.2H19.2C20.08 19.2 20.8 18.48 20.8 17.6V6.40005C20.8 5.52005 20.08 4.80005 19.2 4.80005ZM18.4 17.6H5.60001C5.16001 17.6 4.80001 17.24 4.80001 16.8V7.20005C4.80001 6.76005 5.16001 6.40005 5.60001 6.40005H12.8V8.80005C12.8 9.24005 13.16 9.60005 13.6 9.60005H19.2V16.8C19.2 17.24 18.84 17.6 18.4 17.6Z" fill="#808080"/>
</svg>
