<svg width="24" height="24" viewBox="0 0 24 24" fill="none" xmlns="http://www.w3.org/2000/svg">
<path fill-rule="evenodd" clip-rule="evenodd" d="M3.20001 9.60005H4.80001V8.00005H3.20001V9.60005ZM3.20001 12.8H4.80001V11.2H3.20001V12.8ZM3.20001 6.40005H4.80001V4.80005C3.92001 4.80005 3.20001 5.52005 3.20001 6.40005ZM9.60001 19.2H11.2V17.6H9.60001V19.2ZM3.20001 16H4.80001V14.4H3.20001V16ZM4.80001 19.2V17.6H3.20001C3.20001 18.48 3.92001 19.2 4.80001 19.2ZM19.2 4.80005H12.8V8.80005C12.8 9.24005 13.16 9.60005 13.6 9.60005H20.8V6.40005C20.8 5.52005 20.08 4.80005 19.2 4.80005ZM19.2 16H20.8V14.4H19.2V16ZM9.60001 6.40005H11.2V4.80005H9.60001V6.40005ZM6.40001 19.2H8.00001V17.6H6.40001V19.2ZM6.40001 6.40005H8.00001V4.80005H6.40001V6.40005ZM19.2 19.2C20.08 19.2 20.8 18.48 20.8 17.6H19.2V19.2ZM19.2 12.8H20.8V11.2H19.2V12.8ZM12.8 19.2H14.4V17.6H12.8V19.2ZM16 19.2H17.6V17.6H16V19.2Z" fill="#808080"/>
</svg>
