<svg width="24" height="24" viewBox="0 0 24 24" fill="none" xmlns="http://www.w3.org/2000/svg">
<path fill-rule="evenodd" clip-rule="evenodd" d="M16.8 2.40002H7.20005C5.87205 2.40002 4.80005 3.47202 4.80005 4.80002V19.2C4.80005 20.528 5.87205 21.6 7.20005 21.6H16.8C18.128 21.6 19.2 20.528 19.2 19.2V4.80002C19.2 3.47202 18.128 2.40002 16.8 2.40002ZM13.2 20H10.8C10.576 20 10.4 19.824 10.4 19.6C10.4 19.376 10.576 19.2 10.8 19.2H13.2C13.424 19.2 13.6 19.376 13.6 19.6C13.6 19.824 13.424 20 13.2 20ZM17.8 17.6H6.20005V4.80002H17.8V17.6Z" fill="#808080"/>
</svg>
