<svg width="24" height="24" viewBox="0 0 24 24" fill="none" xmlns="http://www.w3.org/2000/svg">
<path fill-rule="evenodd" clip-rule="evenodd" d="M18 2.40002H6.80005C5.69605 2.40002 4.80005 3.29602 4.80005 4.40002V19.6C4.80005 20.704 5.69605 21.6 6.80005 21.6H18C19.104 21.6 20 20.704 20 19.6V4.40002C20 3.29602 19.104 2.40002 18 2.40002ZM12.4 20.8C11.736 20.8 11.2 20.264 11.2 19.6C11.2 18.936 11.736 18.4 12.4 18.4C13.064 18.4 13.6 18.936 13.6 19.6C13.6 20.264 13.064 20.8 12.4 20.8ZM18.4 17.6H6.40005V4.80002H18.4V17.6Z" fill="#808080"/>
</svg>
