<svg width="24" height="24" viewBox="0 0 24 24" fill="none" xmlns="http://www.w3.org/2000/svg">
<path fill-rule="evenodd" clip-rule="evenodd" d="M6.5121 15.272C6.0321 15.192 5.6001 15.584 5.6001 16.072C5.6001 16.464 5.8881 16.792 6.2801 16.856C7.9441 17.144 9.2561 18.456 9.5441 20.12C9.6081 20.512 9.9361 20.8 10.3281 20.8C10.8161 20.8 11.2001 20.368 11.1281 19.888C10.7441 17.528 8.8801 15.656 6.5121 15.272ZM5.6001 18.4V20.8H8.0001C8.0001 19.472 6.9281 18.4 5.6001 18.4ZM6.4881 12.048C6.0161 12 5.6001 12.368 5.6001 12.84C5.6001 13.24 5.8961 13.592 6.2961 13.632C9.7121 13.96 12.4321 16.68 12.7601 20.096C12.8001 20.496 13.1441 20.8 13.5521 20.8C14.0241 20.8 14.4001 20.392 14.3521 19.92C13.9441 15.76 10.6481 12.464 6.4881 12.048ZM17.6001 3.20801L9.6001 3.20001C8.7201 3.20001 8.0001 3.92001 8.0001 4.80001V10.696C8.5521 10.824 9.0881 10.992 9.6001 11.208V6.40001H17.6001V16.8H15.1761C15.5921 17.8 15.8481 18.872 15.9361 20H17.6001C18.4801 20 19.2001 19.28 19.2001 18.4V4.80001C19.2001 3.92001 18.4801 3.20801 17.6001 3.20801Z" fill="#808080"/>
</svg>
