<svg width="24" height="24" viewBox="0 0 24 24" fill="none" xmlns="http://www.w3.org/2000/svg">
<path fill-rule="evenodd" clip-rule="evenodd" d="M19.2 2.40002H5.6C4.71634 2.40002 4 3.11637 4 4.00002V17.6C4 18.4837 4.71634 19.2 5.6 19.2H19.2C20.0837 19.2 20.8 18.4837 20.8 17.6V4.00002C20.8 3.11637 20.0837 2.40002 19.2 2.40002ZM5.6 4.00002H19.2V17.6H5.6V4.00002ZM12.4 4.80002C9.08629 4.80002 6.4 7.48632 6.4 10.8C6.4 14.1137 9.08629 16.8 12.4 16.8C15.7137 16.8 18.4 14.1137 18.4 10.8C18.4 7.48632 15.7137 4.80002 12.4 4.80002ZM12.4 6.40002C14.8301 6.40002 16.8 8.36997 16.8 10.8C16.8 13.2301 14.8301 15.2 12.4 15.2C9.96995 15.2 8 13.2301 8 10.8C8 8.36997 9.96995 6.40002 12.4 6.40002ZM14.4 10.8C14.4 11.9046 13.5046 12.8 12.4 12.8C11.2954 12.8 10.4 11.9046 10.4 10.8C10.4 9.69546 11.2954 8.80002 12.4 8.80002C13.5046 8.80002 14.4 9.69546 14.4 10.8ZM20.8 20.8C20.8 20.3582 20.4418 20 20 20H4.8C4.35817 20 4 20.3582 4 20.8C4 21.2419 4.35817 21.6 4.8 21.6H20C20.4418 21.6 20.8 21.2419 20.8 20.8Z" fill="#808080"/>
</svg>
