<svg width="24" height="24" viewBox="0 0 24 24" fill="none" xmlns="http://www.w3.org/2000/svg">
<path fill-rule="evenodd" clip-rule="evenodd" d="M18.12 16.52L16.688 15.088C16.432 14.832 16 15.008 16 15.368V16H6.4C5.96 16 5.6 16.36 5.6 16.8C5.6 17.24 5.96 17.6 6.4 17.6H16V18.232C16 18.592 16.432 18.768 16.68 18.512L18.112 17.08C18.272 16.928 18.272 16.672 18.12 16.52ZM9.2 11.84H13.2L13.728 13.12C13.848 13.408 14.128 13.6 14.44 13.6C14.992 13.6 15.36 13.032 15.144 12.528L12.04 5.35205C11.896 5.01605 11.568 4.80005 11.2 4.80005C10.832 4.80005 10.504 5.01605 10.36 5.35205L7.256 12.528C7.04 13.032 7.416 13.6 7.968 13.6C8.28 13.6 8.56 13.408 8.68 13.12L9.2 11.84ZM11.2 6.38405L12.696 10.4H9.704L11.2 6.38405Z" fill="#808080"/>
</svg>
