<svg width="24" height="24" viewBox="0 0 24 24" fill="none" xmlns="http://www.w3.org/2000/svg">
<path fill-rule="evenodd" clip-rule="evenodd" d="M14.882 18.2416V16.2096C14.882 15.8496 14.45 15.6736 14.202 15.9296L13.754 16.3776L6.96201 9.58558C6.81254 9.43577 6.60962 9.35159 6.39801 9.35159C6.18639 9.35159 5.98347 9.43577 5.83401 9.58558C5.52201 9.89758 5.52201 10.4016 5.83401 10.7136L12.626 17.5056L12.178 17.9536C11.922 18.2096 12.098 18.6416 12.45 18.6416H14.482C14.706 18.6416 14.882 18.4576 14.882 18.2416ZM11.882 8.62558L14.714 11.4576L14.178 12.7376C14.058 13.0256 14.122 13.3536 14.346 13.5776C14.738 13.9696 15.394 13.8336 15.602 13.3216L18.49 6.04958C18.626 5.71358 18.546 5.32158 18.29 5.06558C18.034 4.80958 17.65 4.72958 17.306 4.86558L10.026 7.74558C9.51401 7.94558 9.37801 8.60958 9.77001 9.00158C9.98601 9.21758 10.314 9.28158 10.602 9.16158L11.882 8.62558ZM17.154 6.18558L15.37 10.0816L13.258 7.96958L17.154 6.18558Z" fill="#808080"/>
</svg>
