<svg width="24" height="24" viewBox="0 0 24 24" fill="none" xmlns="http://www.w3.org/2000/svg">
<path fill-rule="evenodd" clip-rule="evenodd" d="M18.008 4.86399L4.86405 18.008C4.93605 18.28 5.08005 18.528 5.27205 18.728C5.47205 18.92 5.72005 19.064 5.99205 19.136L19.144 5.99199C18.992 5.43999 18.56 5.00799 18.008 4.86399ZM11.904 4.79999L4.80005 11.904V14.168L14.168 4.79999H11.904ZM6.40005 4.79999C5.52005 4.79999 4.80005 5.51999 4.80005 6.39999V7.99999L8.00005 4.79999H6.40005ZM17.6 19.2C18.04 19.2 18.44 19.024 18.728 18.728C19.024 18.44 19.2 18.04 19.2 17.6V16L16 19.2H17.6ZM9.83205 19.2H12.096L19.2 12.096V9.83199L9.83205 19.2Z" fill="#808080"/>
</svg>
