<svg width="24" height="24" viewBox="0 0 24 24" fill="none" xmlns="http://www.w3.org/2000/svg">
<path fill-rule="evenodd" clip-rule="evenodd" d="M6.91322 18.12L8.34522 16.688C8.60122 16.432 8.42522 16 8.06522 16H7.43322V6.39998C7.43322 5.95998 7.07322 5.59998 6.63322 5.59998C6.19322 5.59998 5.83322 5.95998 5.83322 6.39998V16H5.20122C4.84122 16 4.66522 16.432 4.92122 16.68L6.35322 18.112C6.50522 18.272 6.76122 18.272 6.91322 18.12ZM11.5932 9.19998V13.2L10.3132 13.728C10.0252 13.848 9.83322 14.128 9.83322 14.44C9.83322 14.992 10.4012 15.36 10.9052 15.144L18.0812 12.04C18.4172 11.896 18.6332 11.568 18.6332 11.2C18.6332 10.832 18.4172 10.504 18.0812 10.36L10.9052 7.25598C10.4012 7.03998 9.83322 7.41598 9.83322 7.96798C9.83322 8.27998 10.0252 8.55998 10.3132 8.67998L11.5932 9.19998ZM17.0492 11.2L13.0332 12.696V9.70398L17.0492 11.2Z" fill="#808080"/>
</svg>
