<svg width="24" height="24" viewBox="0 0 24 24" fill="none" xmlns="http://www.w3.org/2000/svg">
<path fill-rule="evenodd" clip-rule="evenodd" d="M4.80005 7.60002C4.80005 8.26402 5.33605 8.80002 6.00005 8.80002H8.80005V17.2C8.80005 17.864 9.33605 18.4 10 18.4C10.664 18.4 11.2 17.864 11.2 17.2V8.80002H14C14.664 8.80002 15.2 8.26402 15.2 7.60002C15.2 6.93602 14.664 6.40002 14 6.40002H6.00005C5.33605 6.40002 4.80005 6.93602 4.80005 7.60002ZM18.8 10.4H14C13.336 10.4 12.8 10.936 12.8 11.6C12.8 12.264 13.336 12.8 14 12.8H15.2V17.2C15.2 17.864 15.736 18.4 16.4 18.4C17.064 18.4 17.6 17.864 17.6 17.2V12.8H18.8C19.464 12.8 20 12.264 20 11.6C20 10.936 19.464 10.4 18.8 10.4Z" fill="#808080"/>
</svg>
