<svg width="24" height="24" viewBox="0 0 24 24" fill="none" xmlns="http://www.w3.org/2000/svg">
<path fill-rule="evenodd" clip-rule="evenodd" d="M15.9295 9.94002L16.3775 10.388L9.59352 17.18C9.28152 17.492 9.28152 17.996 9.59352 18.308C9.90552 18.62 10.4095 18.62 10.7215 18.308L17.5135 11.516L17.9615 11.964C18.2095 12.22 18.6415 12.044 18.6415 11.692V9.66002C18.6415 9.43602 18.4655 9.26002 18.2415 9.26002H16.2095C15.8575 9.26002 15.6815 9.69202 15.9295 9.94002ZM8.62552 12.26L11.4575 9.42802L12.7375 9.96402C13.0255 10.084 13.3535 10.02 13.5775 9.79602C13.9695 9.40402 13.8335 8.74802 13.3215 8.54002L6.04952 5.66002C5.70552 5.53202 5.32152 5.61202 5.06552 5.86802C4.80952 6.12402 4.72952 6.50802 4.86552 6.85202L7.75352 14.124C7.95352 14.636 8.61752 14.772 9.00952 14.38C9.23352 14.156 9.29752 13.828 9.17752 13.54L8.62552 12.26ZM7.96952 10.884L6.18552 6.98802L10.0815 8.77202L7.96952 10.884Z" fill="#808080"/>
</svg>
