<svg width="24" height="24" viewBox="0 0 24 24" fill="none" xmlns="http://www.w3.org/2000/svg">
<path fill-rule="evenodd" clip-rule="evenodd" d="M6.40002 17.6C6.40002 18.04 6.76002 18.4 7.20002 18.4H16.8C17.24 18.4 17.6 18.04 17.6 17.6C17.6 17.16 17.24 16.8 16.8 16.8H7.20002C6.76002 16.8 6.40002 17.16 6.40002 17.6ZM10 13.44H14L14.528 14.72C14.648 15.008 14.928 15.2 15.24 15.2C15.792 15.2 16.16 14.632 15.944 14.128L12.84 6.95199C12.696 6.61599 12.368 6.39999 12 6.39999C11.632 6.39999 11.304 6.61599 11.16 6.95199L8.05602 14.128C7.84002 14.632 8.21602 15.2 8.76802 15.2C9.08002 15.2 9.36002 15.008 9.48002 14.72L10 13.44ZM12 7.98399L13.496 12H10.504L12 7.98399Z" fill="#808080"/>
</svg>
