<svg width="24" height="24" viewBox="0 0 24 24" fill="none" xmlns="http://www.w3.org/2000/svg">
<path fill-rule="evenodd" clip-rule="evenodd" d="M14.6332 6.39998C14.2652 6.39998 13.9372 6.61598 13.7932 6.95198L10.6892 14.128C10.4732 14.632 10.8492 15.2 11.4012 15.2C11.7132 15.2 11.9932 15.008 12.1132 14.72L12.6412 13.44H16.6412L17.1692 14.72C17.2892 15.008 17.5692 15.2 17.8812 15.2C18.4332 15.2 18.8012 14.632 18.5852 14.128L15.4812 6.95198C15.3292 6.61598 15.0012 6.39998 14.6332 6.39998ZM13.1372 12L14.6332 7.98398L16.1292 12H13.1372ZM7.71323 18.112L9.14523 16.68C9.40123 16.432 9.22523 16 8.86523 16H8.23323V6.39998C8.23323 5.95998 7.87323 5.59998 7.43323 5.59998C6.99323 5.59998 6.63323 5.95198 6.63323 6.39998V16H6.00123C5.64123 16 5.46523 16.432 5.72123 16.68L7.15323 18.112C7.30523 18.272 7.56123 18.272 7.71323 18.112Z" fill="#808080"/>
</svg>
