<svg width="24" height="24" viewBox="0 0 24 24" fill="none" xmlns="http://www.w3.org/2000/svg">
<path fill-rule="evenodd" clip-rule="evenodd" d="M17.08 5.71998C16.92 5.55998 16.672 5.55998 16.512 5.71998L15.08 7.15198C14.832 7.40798 15.008 7.83998 15.368 7.83998H16V17.44C16 17.88 16.36 18.24 16.8 18.24C17.24 18.24 17.6 17.88 17.6 17.44V7.83998H18.232C18.592 7.83998 18.768 7.40798 18.512 7.15998L17.08 5.71998ZM11.84 14.64V10.64L13.12 10.112C13.408 9.99998 13.6 9.71998 13.6 9.40798C13.6 8.85598 13.032 8.48798 12.528 8.70398L5.35199 11.808C5.01599 11.944 4.79999 12.272 4.79999 12.64C4.79999 13.008 5.01599 13.336 5.35199 13.48L12.528 16.584C13.032 16.8 13.6 16.424 13.6 15.872C13.6 15.56 13.408 15.28 13.12 15.16L11.84 14.64ZM6.38399 12.64L10.4 11.144V14.136L6.38399 12.64Z" fill="#808080"/>
</svg>
