<svg width="24" height="24" viewBox="0 0 24 24" fill="none" xmlns="http://www.w3.org/2000/svg">
<path fill-rule="evenodd" clip-rule="evenodd" d="M15.0633 11.2H17.9635L20.9573 4.61381C21.2582 3.95171 20.7742 3.20001 20.0469 3.20001H19.8438C19.4517 3.20001 19.0957 3.42921 18.9334 3.78621L16.9913 8.05896C16.1701 6.59179 14.6008 5.60001 12.7999 5.60001C12.1935 5.60001 11.6133 5.71247 11.0791 5.91768C10.2457 5.22 9.17183 4.80001 7.9999 4.80001C5.34894 4.80001 3.1999 6.94905 3.1999 9.60001C3.1999 10.161 3.29615 10.6996 3.47303 11.2H6.21102C5.83099 10.7754 5.5999 10.2147 5.5999 9.60001C5.5999 8.27453 6.67442 7.20001 7.9999 7.20001C9.32539 7.20001 10.3999 8.27453 10.3999 9.60001C10.3999 10.2147 10.1688 10.7754 9.78879 11.2H12.5268C12.7037 10.6996 12.7999 10.161 12.7999 9.60001C12.7999 9.04452 12.7055 8.51106 12.532 8.0148C12.6199 8.00503 12.7093 8.00001 12.7999 8.00001C14.1254 8.00001 15.1999 9.07453 15.1999 10.4C15.1999 10.6805 15.1518 10.9498 15.0633 11.2ZM20.7999 12H2.3999C2.3999 12 2.3999 14.4 3.9999 16.8C5.5999 19.2 7.9999 19.2 7.9999 19.2L8.52351 20.2472C8.6929 20.586 9.03916 20.8 9.41794 20.8H13.7819C14.1606 20.8 14.5069 20.586 14.6763 20.2472L15.1999 19.2C15.1999 19.2 17.5999 19.2 19.1999 16.8C20.7999 14.4 20.7999 12 20.7999 12Z" fill="#808080"/>
</svg>
