<svg width="24" height="24" viewBox="0 0 24 24" fill="none" xmlns="http://www.w3.org/2000/svg">
<path fill-rule="evenodd" clip-rule="evenodd" d="M16.8 5.60005V6.40005H15.2V5.60005C15.2 5.16005 14.84 4.80005 14.4 4.80005H9.60001C9.16001 4.80005 8.80001 5.16005 8.80001 5.60005V6.40005H7.20001V5.60005C7.20001 5.16005 6.84001 4.80005 6.40001 4.80005C5.96001 4.80005 5.60001 5.16005 5.60001 5.60005V18.4C5.60001 18.84 5.96001 19.2 6.40001 19.2C6.84001 19.2 7.20001 18.84 7.20001 18.4V17.6H8.80001V18.4C8.80001 18.84 9.16001 19.2 9.60001 19.2H14.4C14.84 19.2 15.2 18.84 15.2 18.4V17.6H16.8V18.4C16.8 18.84 17.16 19.2 17.6 19.2C18.04 19.2 18.4 18.84 18.4 18.4V5.60005C18.4 5.16005 18.04 4.80005 17.6 4.80005C17.16 4.80005 16.8 5.16005 16.8 5.60005ZM8.80001 16H7.20001V14.4H8.80001V16ZM8.80001 12.8H7.20001V11.2H8.80001V12.8ZM8.80001 9.60005H7.20001V8.00005H8.80001V9.60005ZM16.8 16H15.2V14.4H16.8V16ZM16.8 12.8H15.2V11.2H16.8V12.8ZM16.8 9.60005H15.2V8.00005H16.8V9.60005Z" fill="#808080"/>
</svg>
