<svg width="24" height="24" viewBox="0 0 24 24" fill="none" xmlns="http://www.w3.org/2000/svg">
<path fill-rule="evenodd" clip-rule="evenodd" d="M14.4 12.8V6.4C14.4 5.072 13.328 4 12 4C10.672 4 9.6 5.072 9.6 6.4V12.8C8.632 13.528 8 14.696 8 16C8 18.208 9.792 20 12 20C14.208 20 16 18.208 16 16C16 14.696 15.368 13.528 14.4 12.8ZM12.8 11.2H11.2V6.4C11.2 5.96 11.56 5.6 12 5.6C12.44 5.6 12.8 5.96 12.8 6.4H12.4C12.176 6.4 12 6.576 12 6.8C12 7.024 12.176 7.2 12.4 7.2H12.8V8.8H12.4C12.176 8.8 12 8.976 12 9.2C12 9.424 12.176 9.6 12.4 9.6H12.8V11.2Z" fill="#808080"/>
</svg>
