<svg width="24" height="24" viewBox="0 0 24 24" fill="none" xmlns="http://www.w3.org/2000/svg">
<path fill-rule="evenodd" clip-rule="evenodd" d="M19.2002 20.4002C19.642 20.4002 20.0002 20.7584 20.0002 21.2002C20.0002 21.6105 19.6914 21.9486 19.2935 21.9948L19.2002 22.0002H4.0002C3.55837 22.0002 3.2002 21.642 3.2002 21.2002C3.2002 20.7899 3.50903 20.4518 3.9069 20.4056L4.0002 20.4002H19.2002ZM4.03433 3.20073L4.12278 3.20943L4.20923 3.22781L4.27595 3.2492L4.33091 3.27169L4.4289 3.32459L4.48549 3.36396L4.56745 3.43573L4.6273 3.50315L4.69301 3.59971L4.71577 3.64242C4.78045 3.77177 4.93498 4.00356 5.16592 4.2345C5.52734 4.59593 5.93586 4.80019 6.40023 4.80019C7.10561 4.80019 7.6153 4.48979 8.00774 3.78801L8.11767 3.58161L8.16925 3.5081L8.22119 3.44786L8.26324 3.40691L8.32646 3.35535L8.3981 3.30851L8.45047 3.28001L8.53709 3.24461L8.62712 3.21895L8.71871 3.20425L8.77586 3.20038L8.86565 3.20274L8.91259 3.20791L8.97345 3.21914L9.02929 3.23354L9.12445 3.26881L9.20727 3.31121L9.28092 3.36049L9.33894 3.40848L9.40051 3.47103L9.45303 3.53747L9.49272 3.59946L9.51577 3.64242C9.58045 3.77177 9.73498 4.00356 9.96592 4.2345C10.3273 4.59593 10.7359 4.80019 11.2002 4.80019C11.9056 4.80019 12.4153 4.48979 12.8077 3.78801L12.9177 3.58161L12.9692 3.5081L13.0227 3.44629L13.0632 3.40691L13.1265 3.35535L13.1981 3.30851L13.2505 3.28001L13.3371 3.24461L13.4271 3.21895L13.5187 3.20425L13.5759 3.20036L13.6657 3.20274L13.7126 3.20791L13.7735 3.21914L13.8293 3.23354L13.9245 3.26881L14.0073 3.31121L14.0809 3.36049L14.1497 3.41841L14.2131 3.48574L14.253 3.53747L14.2927 3.59946L14.3158 3.64242C14.3805 3.77177 14.535 4.00356 14.7659 4.2345C15.1273 4.59593 15.5359 4.80019 16.0002 4.80019C16.7526 4.80019 17.2824 4.44702 17.6847 3.64242C17.8565 3.29881 18.2422 3.13287 18.5997 3.22529C18.7117 3.19645 18.8317 3.19135 18.9528 3.2149C19.3555 3.2932 19.6285 3.6609 19.5979 4.06027L17.5854 18.5529L17.5619 18.6446C17.4666 18.9424 17.2051 19.1579 16.8946 19.1946L16.8001 19.2002H6.00023C5.64919 19.2002 5.34328 18.9721 5.23843 18.6446L5.21494 18.5529L3.20489 4.08676L3.20038 4.02112L3.20078 3.96599L3.2098 3.87551L3.22777 3.79149L3.25994 3.69668L3.29347 3.62531L3.34775 3.53729L3.39123 3.48135L3.45099 3.41836L3.52854 3.3538L3.5806 3.31902L3.65752 3.2771L3.72143 3.25024L3.8068 3.22376L3.86887 3.21121L3.94621 3.20193L4.03433 3.20073ZM13.6345 5.36587C12.9993 6.04279 12.1776 6.40019 11.2002 6.40019C10.2646 6.40019 9.47308 6.00445 8.83451 5.36587C8.19928 6.04279 7.37755 6.40019 6.4002 6.40019C5.9279 6.40019 5.49234 6.29935 5.09464 6.11734L6.6594 17.6002H16.1408L17.7303 5.93831C17.2287 6.24283 16.6487 6.40019 16.0002 6.40019C15.0646 6.40019 14.2731 6.00445 13.6345 5.36587ZM9.03714 9.18634C10.1621 9.18634 11.0235 9.66447 11.0235 10.568C11.0235 11.1843 10.6002 11.5813 10.0866 11.7212L9.98284 11.7457V11.7738C10.7563 11.8547 11.2344 12.2801 11.2344 12.9551C11.2344 13.9254 10.4012 14.5406 9.04417 14.5406C7.85487 14.5406 7.01427 13.9401 6.90296 12.9958L6.89261 12.8707H8.31292C8.34456 13.159 8.59769 13.384 9.04417 13.384C9.43792 13.384 9.71917 13.1695 9.71917 12.8461C9.71917 12.5119 9.48252 12.3214 9.03964 12.2941L8.92464 12.2906H8.40081V11.3098H8.92464C9.38519 11.3098 9.65238 11.1094 9.65238 10.7824C9.65238 10.452 9.39925 10.2727 9.03714 10.2727C8.66654 10.2727 8.42886 10.4558 8.37016 10.7409L8.35863 10.8211H7.01566C7.05433 9.81915 7.85941 9.18634 9.03714 9.18634ZM13.7471 9.18282C15.1288 9.18282 16.0147 10.1602 16.0147 11.8477C16.0147 13.5211 15.1393 14.5406 13.7471 14.5406C12.355 14.5406 11.476 13.5281 11.476 11.8512C11.476 10.1637 12.3655 9.18282 13.7471 9.18282ZM13.7471 10.3289C13.2901 10.3289 12.9948 10.7859 12.9948 11.8512C12.9948 12.9129 13.2901 13.3945 13.7471 13.3945C14.2042 13.3945 14.496 12.9129 14.496 11.8512C14.496 10.7859 14.2042 10.3289 13.7471 10.3289Z" fill="#808080"/>
</svg>
