<svg width="24" height="24" viewBox="0 0 24 24" fill="none" xmlns="http://www.w3.org/2000/svg">
<path fill-rule="evenodd" clip-rule="evenodd" d="M8.97321 14.4714C8.81301 14.4714 8.66125 14.4464 8.53478 14.4047C8.39989 14.3547 8.29028 14.2963 8.19754 14.2046C8.10479 14.1213 8.02891 14.0213 7.97833 13.8962C7.92774 13.7796 7.90245 13.6462 7.90245 13.5045H6.80639C6.80639 13.8046 6.86541 14.0713 6.98345 14.2963C7.10148 14.5214 7.26168 14.7131 7.45559 14.8715C7.65794 15.0215 7.88558 15.1382 8.14695 15.2132C8.39989 15.2965 8.66968 15.3382 8.95634 15.3382C9.2683 15.3382 9.56339 15.2965 9.82476 15.2132C10.0946 15.1298 10.3306 15.0048 10.5245 14.8465C10.7185 14.6881 10.8787 14.488 10.9883 14.2463C11.0979 14.0046 11.1569 13.7379 11.1569 13.4378C11.1569 13.2794 11.14 13.1211 11.0979 12.971C11.0557 12.821 10.9967 12.6793 10.9039 12.546C10.8196 12.4126 10.7016 12.2959 10.5667 12.1875C10.4234 12.0792 10.2547 11.9958 10.0524 11.9292C10.221 11.8541 10.3644 11.7625 10.4908 11.6541C10.6173 11.5457 10.7185 11.429 10.8028 11.304C10.8871 11.179 10.9461 11.054 10.9883 10.9206C11.0304 10.7872 11.0473 10.6539 11.0473 10.5205C11.0473 10.2204 10.9967 9.95373 10.8955 9.72034C10.7943 9.48696 10.651 9.29525 10.4655 9.14522C10.2969 8.98685 10.0693 8.87016 9.81632 8.78681C9.55496 8.71179 9.2683 8.67011 8.95634 8.67011C8.65282 8.67011 8.37459 8.71179 8.11323 8.80348C7.86029 8.89516 7.63265 9.02019 7.44716 9.17856C7.27011 9.33693 7.12678 9.5203 7.01717 9.73701C6.916 9.95373 6.86541 10.1871 6.86541 10.4455H7.96146C7.96146 10.3038 7.98676 10.1788 8.03734 10.0704C8.08793 9.96206 8.15538 9.86204 8.24812 9.78702C8.34087 9.71201 8.44204 9.64533 8.56851 9.60365C8.69498 9.56197 8.82144 9.53697 8.97321 9.53697C9.31045 9.53697 9.56339 9.62032 9.72358 9.79536C9.88377 9.96206 9.96809 10.2038 9.96809 10.5122C9.96809 10.6622 9.94279 10.7956 9.90064 10.9206C9.85848 11.0456 9.7826 11.1456 9.68986 11.229C9.59711 11.3124 9.47908 11.379 9.34418 11.429C9.20928 11.4791 9.04066 11.5041 8.85517 11.5041H8.20597V12.3626H8.85517C9.04066 12.3626 9.20928 12.3793 9.36104 12.4209C9.5128 12.4626 9.63927 12.5293 9.74044 12.6126C9.84162 12.7043 9.92593 12.8127 9.98495 12.946C10.044 13.0794 10.0693 13.2378 10.0693 13.4211C10.0693 13.7629 9.96809 14.0213 9.77417 14.1963C9.58025 14.388 9.31045 14.4714 8.97321 14.4714ZM16.8142 10.5372C16.6624 10.1454 16.4517 9.81203 16.1819 9.53697C15.9121 9.26191 15.5917 9.0452 15.2207 8.89516C14.8582 8.74513 14.445 8.67011 13.9898 8.67011H12V15.3382H13.9392C14.4029 15.3382 14.8329 15.2632 15.2123 15.1132C15.5917 14.9631 15.9205 14.7548 16.1903 14.4797C16.4601 14.2046 16.6709 13.8712 16.8142 13.4878C16.9575 13.0961 17.0334 12.6626 17.0334 12.1792V11.8458C17.0334 11.3624 16.9575 10.9289 16.8142 10.5372ZM15.8615 12.1709C15.8615 12.521 15.8193 12.8294 15.7434 13.1127C15.6591 13.3878 15.5411 13.6295 15.3809 13.8212C15.2207 14.0129 15.0184 14.163 14.7823 14.263C14.5378 14.363 14.2595 14.413 13.9476 14.413H13.1804V9.59532H13.9982C14.6052 9.59532 15.0689 9.78703 15.3809 10.1704C15.7013 10.5539 15.8615 11.104 15.8615 11.8291V12.1709ZM14.6558 5.2027L15.7772 4.09412C18.3824 5.31105 20.2794 7.73658 20.7431 10.6455C20.7937 10.9873 21.1141 11.2207 21.4682 11.1623C21.8139 11.1123 22.05 10.7872 21.9909 10.4455C21.4851 7.26981 19.4953 4.60257 16.7299 3.15225C15.3219 2.41042 13.5007 1.89364 11.4435 2.01867L14.6558 5.2027ZM9.34418 18.7973L8.22283 19.9059C5.61759 18.689 3.72058 16.2634 3.25686 13.3545C3.20628 13.0127 2.88589 12.7793 2.53178 12.8377C2.1861 12.8877 1.95003 13.2128 2.00905 13.5545C2.51492 16.7302 4.50468 19.3974 7.27011 20.8478C8.67811 21.5896 10.4992 22.1064 12.5565 21.9813L9.34418 18.7973Z" fill="#808080"/>
</svg>
