<svg width="24" height="24" viewBox="0 0 24 24" fill="none" xmlns="http://www.w3.org/2000/svg">
<path fill-rule="evenodd" clip-rule="evenodd" d="M12 7.19995C7.584 7.19995 4 8.99195 4 11.2C4 12.992 6.352 14.504 9.6 15.016V16.632C9.6 16.992 10.032 17.168 10.28 16.912L12.512 14.68C12.672 14.52 12.672 14.272 12.512 14.112L10.28 11.88C10.032 11.632 9.6 11.808 9.6 12.168V13.384C7.08 12.936 5.6 11.864 5.6 11.2C5.6 10.352 8.032 8.79995 12 8.79995C15.968 8.79995 18.4 10.352 18.4 11.2C18.4 11.728 17.44 12.544 15.744 13.072C15.416 13.176 15.2 13.48 15.2 13.824C15.2 14.36 15.72 14.752 16.224 14.592C18.488 13.888 20 12.632 20 11.2C20 8.99195 16.416 7.19995 12 7.19995Z" fill="#808080"/>
</svg>
