<svg width="24" height="24" viewBox="0 0 24 24" fill="none" xmlns="http://www.w3.org/2000/svg">
<path fill-rule="evenodd" clip-rule="evenodd" d="M4.90958 18.2548C4.5833 18.0916 4.33519 17.8056 4.21984 17.4595L4.10263 17.1079C4.03466 16.9039 4 16.6905 4 16.4755V14.4C4 13.846 4.57534 12.1414 4.92926 11.1452C5.08485 10.7073 4.92644 10.2176 4.53974 9.95981L4.4453 9.89684C4.1671 9.71138 4 9.39914 4 9.06479V8.88287C4 8.8277 4.00436 8.77313 4.01629 8.71926C4.07043 8.47501 4.27179 7.72818 4.8 7.19998C5.43969 6.56029 5.6 6.39998 6.4 6.39998H15.2L16 5.59998H17.6V6.39998H19.2V7.19998H20V9.19998H19.2V9.59998L18.4 10.4H13.6L13.106 11.8821C12.9067 12.4798 12.53 13.0025 12.026 13.3805C11.4898 13.7826 10.8377 14 10.1675 14H9.2L8.50132 17.1441C8.43515 17.4418 8.28544 17.7145 8.06975 17.9302C7.76898 18.231 7.36103 18.4 6.93567 18.4H5.5247C5.31117 18.4 5.10057 18.3503 4.90958 18.2548ZM10.2 12.4C9.64772 12.4 9.2 11.9523 9.2 11.4V11.2L9.3 11.1333L9.90718 11.5381C9.9677 11.5784 10.0388 11.6 10.1116 11.6C10.4058 11.6 10.5814 11.272 10.4181 11.0272L10.1231 10.5846L10.4 10.4H11.3528C11.7102 10.4 12 10.6897 12 11.0472C12 11.1477 11.9766 11.2468 11.9317 11.3366L11.7491 11.7018C11.6523 11.8954 11.4954 12.0523 11.3019 12.149L11.0111 12.2944C10.8723 12.3638 10.7192 12.4 10.5639 12.4H10.2Z" fill="#808080"/>
</svg>
