<svg width="24" height="24" viewBox="0 0 24 24" fill="none" xmlns="http://www.w3.org/2000/svg">
<path fill-rule="evenodd" clip-rule="evenodd" d="M11.3734 19.152L15.7974 14.72C16.0934 14.424 16.2614 14.016 16.2614 13.592V5.6C16.2614 4.72 15.5414 4 14.6614 4H7.46945C6.82945 4 6.25345 4.384 6.00545 4.968L3.39745 11.056C2.71745 12.64 3.87745 14.4 5.59745 14.4H10.1174L9.35745 18.064C9.27745 18.464 9.39745 18.872 9.68545 19.16C10.1574 19.624 10.9094 19.624 11.3734 19.152ZM19.4694 4C18.5894 4 17.8694 4.72 17.8694 5.6V12C17.8694 12.88 18.5894 13.6 19.4694 13.6C20.3494 13.6 21.0694 12.88 21.0694 12V5.6C21.0694 4.72 20.3494 4 19.4694 4Z" fill="#808080"/>
</svg>
