<svg width="24" height="24" viewBox="0 0 24 24" fill="none" xmlns="http://www.w3.org/2000/svg">
<path fill-rule="evenodd" clip-rule="evenodd" d="M12.896 4.35501L8.46401 8.78701C8.16801 9.08301 8.00001 9.49101 8.00001 9.91501V17.907C8.00001 18.787 8.72001 19.507 9.60001 19.507H16.8C17.44 19.507 18.016 19.123 18.272 18.539L20.88 12.451C21.552 10.867 20.392 9.10701 18.672 9.10701H14.152L14.912 5.44301C14.992 5.04301 14.872 4.63501 14.584 4.34701C14.112 3.88301 13.36 3.88301 12.896 4.35501ZM4.80001 19.507C5.68001 19.507 6.40001 18.787 6.40001 17.907V11.507C6.40001 10.627 5.68001 9.90701 4.80001 9.90701C3.92001 9.90701 3.20001 10.627 3.20001 11.507V17.907C3.20001 18.787 3.92001 19.507 4.80001 19.507Z" fill="#808080"/>
</svg>
