<svg width="24" height="24" viewBox="0 0 24 24" fill="none" xmlns="http://www.w3.org/2000/svg">
<path fill-rule="evenodd" clip-rule="evenodd" d="M10.448 6.02402H7.05599L7.58399 3.48002C7.64799 3.18402 7.55199 2.88002 7.34399 2.66402C6.99199 2.31202 6.42399 2.31202 6.07999 2.66402L2.87999 5.86402C2.56799 6.16002 2.39999 6.56802 2.39999 6.99202V11.624C2.39999 12.504 3.11999 13.224 3.99999 13.224H8.73599C9.37599 13.224 9.95199 12.84 10.208 12.256L11.92 8.25602C12.368 7.20002 11.592 6.02402 10.448 6.02402ZM20 10.024H15.264C14.624 10.024 14.048 10.408 13.792 10.992L12.08 14.992C11.632 16.048 12.4 17.224 13.552 17.224H16.944L16.416 19.768C16.352 20.064 16.448 20.368 16.656 20.584C17.008 20.936 17.576 20.936 17.92 20.584L21.12 17.384C21.424 17.08 21.592 16.68 21.592 16.256V11.624C21.6 10.744 20.88 10.024 20 10.024Z" fill="#808080"/>
</svg>
