<svg width="24" height="24" viewBox="0 0 24 24" fill="none" xmlns="http://www.w3.org/2000/svg">
<path fill-rule="evenodd" clip-rule="evenodd" d="M11.5361 12.856C11.4081 12.664 11.2481 12.488 11.0401 12.336C10.8401 12.184 10.5921 12.056 10.2961 11.952C10.5361 11.84 10.7521 11.712 10.9361 11.552C11.1201 11.392 11.2721 11.224 11.3921 11.04C11.5121 10.856 11.6081 10.672 11.6641 10.472C11.7281 10.28 11.7521 10.08 11.7521 9.88801C11.7521 9.44801 11.6801 9.05601 11.5281 8.72001C11.3841 8.38401 11.1761 8.10401 10.9041 7.87201C10.6401 7.64801 10.3201 7.47201 9.9441 7.36001C9.5841 7.25601 9.1681 7.20001 8.7201 7.20001C8.2801 7.20001 7.8721 7.26401 7.5041 7.39201C7.1281 7.52801 6.8081 7.71201 6.5441 7.94401C6.2801 8.17601 6.0641 8.44801 5.9201 8.76801C5.7601 9.08001 5.6881 9.43201 5.6881 9.80001H7.2721C7.2721 9.59201 7.3121 9.40801 7.3841 9.24801C7.4561 9.08801 7.5601 8.94401 7.6881 8.83201C7.8241 8.72001 7.9761 8.63201 8.1521 8.56801C8.3281 8.50401 8.5201 8.47201 8.7361 8.47201C9.2241 8.47201 9.5841 8.60001 9.8241 8.84801C10.0641 9.09601 10.1761 9.44801 10.1761 9.90401C10.1761 10.12 10.1441 10.32 10.0801 10.496C10.0161 10.672 9.9121 10.824 9.7761 10.952C9.6401 11.08 9.4721 11.176 9.2721 11.248C9.0721 11.32 8.8321 11.352 8.5601 11.352H7.6241V12.608H8.5681C8.8401 12.608 9.0801 12.64 9.2961 12.696C9.5121 12.76 9.6961 12.848 9.8481 12.976C10.0001 13.104 10.1201 13.264 10.2001 13.464C10.2801 13.656 10.3281 13.896 10.3281 14.16C10.3281 14.656 10.1841 15.032 9.9041 15.296C9.6241 15.56 9.2321 15.688 8.7441 15.688C8.5121 15.688 8.2961 15.656 8.1041 15.584C7.9121 15.52 7.7521 15.424 7.6161 15.296C7.4801 15.168 7.3761 15.024 7.3041 14.848C7.2321 14.672 7.1921 14.48 7.1921 14.272H5.6001C5.6001 14.712 5.6881 15.096 5.8561 15.432C6.0241 15.768 6.2561 16.048 6.5441 16.272C6.8321 16.496 7.1601 16.664 7.5361 16.776C7.9121 16.888 8.3041 16.944 8.7201 16.944C9.1761 16.944 9.5921 16.88 9.9841 16.76C10.3761 16.64 10.7121 16.456 10.9921 16.216C11.2801 15.976 11.5041 15.688 11.6641 15.336C11.8241 14.992 11.9041 14.592 11.9041 14.152C11.9041 13.92 11.8721 13.688 11.8161 13.464C11.7521 13.264 11.6641 13.056 11.5361 12.856ZM18.9441 13.976C18.8321 13.752 18.6641 13.552 18.4401 13.384C18.2161 13.216 17.9521 13.072 17.6321 12.96C17.3121 12.848 16.9521 12.744 16.5521 12.656C16.2721 12.6 16.0401 12.536 15.8561 12.472C15.6721 12.408 15.5281 12.344 15.4161 12.272C15.3041 12.2 15.2321 12.12 15.1921 12.032C15.1521 11.944 15.1281 11.84 15.1281 11.72C15.1281 11.6 15.1521 11.496 15.2001 11.392C15.2481 11.288 15.3201 11.192 15.4161 11.12C15.5121 11.04 15.6321 10.976 15.7761 10.928C15.9201 10.88 16.0961 10.856 16.2881 10.856C16.4881 10.856 16.6641 10.888 16.8161 10.944C16.9681 11 17.0961 11.08 17.2001 11.176C17.3041 11.272 17.3761 11.384 17.4321 11.512C17.4801 11.64 17.5121 11.768 17.5121 11.904H19.0721C19.0721 11.592 19.0081 11.304 18.8801 11.032C18.7521 10.76 18.5681 10.528 18.3281 10.328C18.0881 10.128 17.8001 9.97601 17.4561 9.85601C17.1121 9.73601 16.7201 9.68001 16.2881 9.68001C15.8801 9.68001 15.5041 9.73601 15.1761 9.84801C14.8481 9.96001 14.5601 10.112 14.3281 10.304C14.0961 10.496 13.9201 10.72 13.7921 10.976C13.6641 11.232 13.6081 11.496 13.6081 11.784C13.6081 12.072 13.6721 12.328 13.7921 12.552C13.9121 12.776 14.0881 12.968 14.3041 13.136C14.5201 13.304 14.7841 13.44 15.0881 13.56C15.3921 13.672 15.7361 13.768 16.1041 13.848C16.4161 13.912 16.6721 13.984 16.8641 14.056C17.0561 14.128 17.2081 14.208 17.3201 14.288C17.4241 14.368 17.4961 14.464 17.5361 14.56C17.5761 14.656 17.5921 14.76 17.5921 14.872C17.5921 15.128 17.4881 15.328 17.2721 15.488C17.0561 15.648 16.7441 15.72 16.3361 15.72C16.1601 15.72 15.9921 15.704 15.8241 15.656C15.6561 15.616 15.5041 15.552 15.3761 15.464C15.2401 15.376 15.1361 15.256 15.0481 15.112C14.9601 14.968 14.9121 14.784 14.9041 14.576H13.3921C13.3921 14.864 13.4561 15.144 13.5841 15.416C13.7121 15.688 13.8961 15.936 14.1441 16.16C14.3921 16.376 14.6961 16.552 15.0641 16.688C15.4321 16.824 15.8481 16.888 16.3281 16.888C16.7521 16.888 17.1361 16.84 17.4801 16.736C17.8241 16.632 18.1201 16.488 18.3681 16.304C18.6161 16.12 18.8001 15.896 18.9361 15.64C19.0721 15.384 19.1361 15.104 19.1361 14.792C19.1201 14.472 19.0641 14.2 18.9441 13.976Z" fill="#808080"/>
</svg>
