<svg width="24" height="24" viewBox="0 0 24 24" fill="none" xmlns="http://www.w3.org/2000/svg">
<path fill-rule="evenodd" clip-rule="evenodd" d="M12 15.2C11.5582 15.2 11.2 15.5582 11.2 16C11.2 16.4418 11.5582 16.8 12 16.8C12.4418 16.8 12.8 16.4418 12.8 16C12.8 15.5582 12.4418 15.2 12 15.2ZM7.99999 11.2C7.55816 11.2 7.19999 11.5582 7.19999 12C7.19999 12.4418 7.55816 12.8 7.99999 12.8C8.44182 12.8 8.79999 12.4418 8.79999 12C8.79999 11.5582 8.44182 11.2 7.99999 11.2ZM16 11.2C15.5582 11.2 15.2 11.5582 15.2 12C15.2 12.4418 15.5582 12.8 16 12.8C16.4418 12.8 16.8 12.4418 16.8 12C16.8 11.5582 16.4418 11.2 16 11.2ZM12 4.79999C11.56 4.79999 11.2 5.15999 11.2 5.59999V7.19999C11.2 7.63999 11.56 7.99999 12 7.99999C12.44 7.99999 12.8 7.63999 12.8 7.19999V6.46399C15.448 6.84799 17.496 9.06399 17.6 11.792C17.712 14.872 15.176 17.552 12.096 17.6C8.95199 17.648 6.39999 15.128 6.39999 12C6.39999 10.656 6.87199 9.42399 7.66399 8.46399L11.432 12.24C11.744 12.552 12.248 12.552 12.56 12.24C12.872 11.928 12.872 11.424 12.56 11.112L8.20799 6.76799C7.90399 6.46399 7.40799 6.45599 7.08799 6.75199C5.67999 8.05599 4.79999 9.91999 4.79999 12C4.79999 16.032 8.11199 19.296 12.168 19.2C15.928 19.112 19.072 15.992 19.192 12.232C19.328 8.15199 16.056 4.79999 12 4.79999Z" fill="#808080"/>
</svg>
