<svg width="24" height="24" viewBox="0 0 24 24" fill="none" xmlns="http://www.w3.org/2000/svg">
<path fill-rule="evenodd" clip-rule="evenodd" d="M13.6025 4H10.4025C9.96247 4 9.60247 4.36 9.60247 4.8C9.60247 5.24 9.96247 5.6 10.4025 5.6H13.6025C14.0425 5.6 14.4025 5.24 14.4025 4.8C14.4025 4.36 14.0425 4 13.6025 4ZM12.0025 14.4C12.4425 14.4 12.8025 14.04 12.8025 13.6V10.4C12.8025 9.96 12.4425 9.6 12.0025 9.6C11.5625 9.6 11.2025 9.96 11.2025 10.4V13.6C11.2025 14.04 11.5625 14.4 12.0025 14.4ZM17.6265 9.112L18.2265 8.512C18.5305 8.208 18.5385 7.704 18.2265 7.392L18.2185 7.384C17.9065 7.072 17.4105 7.08 17.0985 7.384L16.4985 7.984C15.2585 6.992 13.6985 6.4 12.0025 6.4C8.16247 6.4 4.89847 9.568 4.80247 13.408C4.69847 17.472 7.95447 20.8 12.0025 20.8C15.9865 20.8 19.2025 17.576 19.2025 13.6C19.2025 11.904 18.6105 10.344 17.6265 9.112ZM12.0025 19.2C8.90647 19.2 6.40247 16.696 6.40247 13.6C6.40247 10.504 8.90647 8 12.0025 8C15.0985 8 17.6025 10.504 17.6025 13.6C17.6025 16.696 15.0985 19.2 12.0025 19.2Z" fill="#808080"/>
</svg>
