<svg width="24" height="24" viewBox="0 0 24 24" fill="none" xmlns="http://www.w3.org/2000/svg">
<path fill-rule="evenodd" clip-rule="evenodd" d="M11.066 4.80001H14.266C14.706 4.80001 15.066 4.44001 15.066 4.00001C15.066 3.56001 14.706 3.20001 14.266 3.20001H11.066C10.626 3.20001 10.266 3.56001 10.266 4.00001C10.266 4.44001 10.626 4.80001 11.066 4.80001ZM12.666 8.80001C12.258 8.80001 11.93 9.11201 11.882 9.51201L13.466 11.088V9.60001C13.466 9.16001 13.106 8.80001 12.666 8.80001ZM12.666 7.20001C15.762 7.20001 18.266 9.70401 18.266 12.8C18.266 13.696 18.05 14.544 17.674 15.296L18.85 16.472C19.49 15.4 19.866 14.144 19.866 12.8C19.866 11.104 19.274 9.54401 18.29 8.31201L18.89 7.71201C19.194 7.40801 19.202 6.90401 18.89 6.59201L18.882 6.58401C18.57 6.27201 18.074 6.28001 17.762 6.58401L17.162 7.18401C15.922 6.19201 14.362 5.60001 12.666 5.60001C11.338 5.60001 10.09 5.98401 9.01005 6.63201L10.17 7.79201C10.922 7.41601 11.77 7.20001 12.666 7.20001ZM19.218 19.104L6.16205 6.04801C6.01258 5.89821 5.80966 5.81402 5.59805 5.81402C5.38643 5.81402 5.18351 5.89821 5.03405 6.04801C4.72205 6.36001 4.72205 6.86401 5.03405 7.17601L6.69005 8.83201C5.95405 9.93601 5.50605 11.224 5.46605 12.608C5.36205 16.672 8.61805 20 12.666 20C14.138 20 15.506 19.56 16.65 18.8L18.082 20.232C18.394 20.544 18.898 20.544 19.21 20.232C19.53 19.92 19.53 19.416 19.218 19.104ZM12.666 18.4C9.57005 18.4 7.06605 15.896 7.06605 12.8C7.06605 11.768 7.34605 10.808 7.83405 9.98401L15.49 17.64C14.658 18.12 13.698 18.4 12.666 18.4Z" fill="#808080"/>
</svg>
