<svg width="24" height="24" viewBox="0 0 24 24" fill="none" xmlns="http://www.w3.org/2000/svg">
<path fill-rule="evenodd" clip-rule="evenodd" d="M2.3999 8.65601V10L4.7979 9.20001V16.88H6.39657V7.28001H6.19674L2.3999 8.65601ZM21.4081 13.976C21.2962 13.752 21.1283 13.552 20.9045 13.384C20.6807 13.216 20.4169 13.072 20.0972 12.96C19.7774 12.848 19.4177 12.744 19.0181 12.656C18.7383 12.6 18.5065 12.536 18.3226 12.472C18.1388 12.408 17.9949 12.344 17.883 12.272C17.7711 12.2 17.6992 12.12 17.6592 12.032C17.6192 11.944 17.5952 11.84 17.5952 11.72C17.5952 11.608 17.6192 11.496 17.6672 11.392C17.7151 11.288 17.7871 11.192 17.883 11.12C17.9789 11.04 18.0988 10.976 18.2427 10.928C18.3866 10.88 18.5624 10.856 18.7543 10.856C18.9541 10.856 19.13 10.888 19.2818 10.944C19.4337 11 19.5616 11.08 19.6655 11.176C19.7694 11.272 19.8414 11.384 19.8973 11.512C19.9453 11.64 19.9773 11.768 19.9773 11.904H21.536C21.536 11.592 21.472 11.304 21.3441 11.032C21.2162 10.76 21.0324 10.528 20.7926 10.328C20.5528 10.128 20.265 9.97601 19.9213 9.85601C19.5776 9.73601 19.1859 9.68001 18.7543 9.68001C18.3466 9.68001 17.9709 9.73601 17.6432 9.84801C17.3155 9.96001 17.0277 10.112 16.7959 10.304C16.5641 10.496 16.3882 10.72 16.2604 10.976C16.1325 11.232 16.0765 11.496 16.0765 11.784C16.0765 12.072 16.1405 12.336 16.2604 12.552C16.3803 12.776 16.5481 12.968 16.7719 13.136C16.9877 13.304 17.2515 13.44 17.5553 13.56C17.859 13.672 18.2027 13.768 18.5704 13.848C18.8822 13.912 19.138 13.984 19.3298 14.056C19.5216 14.128 19.6735 14.208 19.7854 14.288C19.8893 14.368 19.9613 14.464 20.0012 14.56C20.0412 14.656 20.0572 14.76 20.0572 14.872C20.0572 15.128 19.9533 15.328 19.7375 15.488C19.5216 15.648 19.2099 15.72 18.8022 15.72C18.6264 15.72 18.4585 15.704 18.2907 15.656C18.1228 15.616 17.9709 15.552 17.843 15.464C17.7071 15.376 17.6032 15.256 17.5153 15.112C17.4274 14.968 17.3794 14.784 17.3714 14.576H15.8607C15.8607 14.864 15.9246 15.144 16.0525 15.416C16.1804 15.688 16.3643 15.936 16.6121 16.16C16.8599 16.376 17.1636 16.552 17.5313 16.688C17.899 16.824 18.3146 16.888 18.7942 16.888C19.2179 16.888 19.6016 16.84 19.9453 16.736C20.289 16.632 20.5847 16.488 20.8325 16.304C21.0803 16.12 21.2642 15.896 21.4001 15.64C21.536 15.384 21.5999 15.104 21.5999 14.792C21.5839 14.472 21.528 14.2 21.4081 13.976ZM13.4467 8.12001C13.1749 7.80001 12.8472 7.56001 12.4635 7.41601C12.0878 7.27201 11.6562 7.20001 11.1926 7.20001C10.729 7.20001 10.3053 7.27201 9.92163 7.41601C9.53795 7.56001 9.21023 7.79201 8.93845 8.12001C8.66668 8.44801 8.45885 8.86401 8.30698 9.39201C8.1631 9.91201 8.08317 10.552 8.08317 11.304V12.84C8.08317 13.592 8.15511 14.232 8.30698 14.752C8.45885 15.28 8.66668 15.704 8.94645 16.032C9.21822 16.36 9.54595 16.6 9.92963 16.744C10.3133 16.888 10.737 16.968 11.2006 16.968C11.6722 16.968 12.0958 16.896 12.4715 16.744C12.8552 16.6 13.1749 16.36 13.4467 16.032C13.7185 15.704 13.9263 15.28 14.0702 14.752C14.2141 14.232 14.294 13.592 14.294 12.84V11.304C14.294 10.552 14.222 9.91201 14.0702 9.39201C13.9263 8.86401 13.7185 8.44001 13.4467 8.12001ZM12.7113 13.056C12.7113 13.536 12.6793 13.944 12.6154 14.28C12.5514 14.616 12.4555 14.888 12.3276 15.096C12.1997 15.304 12.0399 15.456 11.856 15.552C11.6722 15.648 11.4484 15.696 11.2006 15.696C10.9608 15.696 10.737 15.648 10.5451 15.552C10.3533 15.456 10.1934 15.304 10.0655 15.096C9.93762 14.888 9.83371 14.616 9.76177 14.28C9.68983 13.944 9.65785 13.536 9.65785 13.056V11.056C9.65785 10.576 9.68983 10.168 9.76177 9.84001C9.83371 9.51201 9.92963 9.24801 10.0655 9.04001C10.1934 8.84001 10.3533 8.69601 10.5451 8.60001C10.737 8.51201 10.9528 8.46401 11.1926 8.46401C11.4404 8.46401 11.6562 8.51201 11.84 8.60001C12.0319 8.68801 12.1917 8.83201 12.3196 9.04001C12.4475 9.24001 12.5514 9.50401 12.6154 9.83201C12.6793 10.16 12.7193 10.568 12.7193 11.048V13.056H12.7113Z" fill="#808080"/>
</svg>
