<svg width="24" height="24" viewBox="0 0 24 24" fill="none" xmlns="http://www.w3.org/2000/svg">
<path fill-rule="evenodd" clip-rule="evenodd" d="M19.2 10.4C20.08 10.4 20.8 9.67995 20.8 8.79995C20.8 7.91995 20.08 7.19995 19.2 7.19995C18.32 7.19995 17.6 7.91995 17.6 8.79995C17.6 8.94395 17.616 9.07995 17.656 9.20795L14.816 12.056C14.688 12.016 14.544 12 14.4 12C14.256 12 14.112 12.016 13.984 12.056L11.944 10.016C11.984 9.88795 12 9.74395 12 9.59995C12 8.71995 11.28 7.99995 10.4 7.99995C9.52001 7.99995 8.80001 8.71995 8.80001 9.59995C8.80001 9.74395 8.81601 9.88795 8.85601 10.016L5.20801 13.656C5.08001 13.616 4.94401 13.6 4.80001 13.6C3.92001 13.6 3.20001 14.32 3.20001 15.2C3.20001 16.08 3.92001 16.8 4.80001 16.8C5.68001 16.8 6.40001 16.08 6.40001 15.2C6.40001 15.056 6.38401 14.92 6.34401 14.792L9.98401 11.144C10.112 11.184 10.256 11.2 10.4 11.2C10.544 11.2 10.688 11.184 10.816 11.144L12.856 13.184C12.816 13.312 12.8 13.456 12.8 13.6C12.8 14.48 13.52 15.2 14.4 15.2C15.28 15.2 16 14.48 16 13.6C16 13.456 15.984 13.312 15.944 13.184L18.792 10.344C18.92 10.384 19.056 10.4 19.2 10.4Z" fill="#808080"/>
</svg>
