<svg width="24" height="24" viewBox="0 0 24 24" fill="none" xmlns="http://www.w3.org/2000/svg">
<path fill-rule="evenodd" clip-rule="evenodd" d="M5.59999 9.6H15.2C15.64 9.6 16 9.24 16 8.8C16 8.36 15.64 8 15.2 8H5.59999C5.15999 8 4.79999 8.36 4.79999 8.8C4.79999 9.24 5.15999 9.6 5.59999 9.6ZM5.59999 12.8H15.2C15.64 12.8 16 12.44 16 12C16 11.56 15.64 11.2 15.2 11.2H5.59999C5.15999 11.2 4.79999 11.56 4.79999 12C4.79999 12.44 5.15999 12.8 5.59999 12.8ZM5.59999 16H15.2C15.64 16 16 15.64 16 15.2C16 14.76 15.64 14.4 15.2 14.4H5.59999C5.15999 14.4 4.79999 14.76 4.79999 15.2C4.79999 15.64 5.15999 16 5.59999 16ZM17.6 16H19.2V14.4H17.6V16ZM17.6 8V9.6H19.2V8H17.6ZM17.6 12.8H19.2V11.2H17.6V12.8Z" fill="#808080"/>
</svg>
