<svg width="24" height="24" viewBox="0 0 24 24" fill="none" xmlns="http://www.w3.org/2000/svg">
<path fill-rule="evenodd" clip-rule="evenodd" d="M14.4 5.59998C10.864 5.59998 8.00001 8.46398 8.00001 12C8.00001 15.536 10.864 18.4 14.4 18.4C17.936 18.4 20.8 15.536 20.8 12C20.8 8.46398 17.936 5.59998 14.4 5.59998ZM14.4 16.8C11.752 16.8 9.60001 14.648 9.60001 12C9.60001 9.35198 11.752 7.19998 14.4 7.19998C17.048 7.19998 19.2 9.35198 19.2 12C19.2 14.648 17.048 16.8 14.4 16.8ZM4.80001 12C4.80001 10.088 5.92001 8.43198 7.54401 7.66398C7.81601 7.53598 8.00001 7.28798 8.00001 6.99198V6.83998C8.00001 6.29598 7.43201 5.95198 6.94401 6.18398C4.73601 7.19198 3.20001 9.41598 3.20001 12C3.20001 14.584 4.73601 16.808 6.94401 17.816C7.43201 18.04 8.00001 17.704 8.00001 17.16V17.016C8.00001 16.72 7.81601 16.464 7.54401 16.336C5.92001 15.568 4.80001 13.912 4.80001 12Z" fill="#808080"/>
</svg>
