<svg width="24" height="24" viewBox="0 0 24 24" fill="none" xmlns="http://www.w3.org/2000/svg">
<path fill-rule="evenodd" clip-rule="evenodd" d="M9.4184 6.89052C8.6584 6.59633 8.62168 5.35827 8.62168 5.35827C8.62168 5.35827 9.01393 6.00795 9.4184 6.11822C9.56694 6.15872 9.74526 6.16782 9.93877 6.1777C10.2722 6.19473 10.6507 6.21405 10.9997 6.4002C11.5513 6.69439 11.7229 7.07434 11.7229 7.07434C11.7229 7.07434 11.8455 6.4002 12.1274 6.00795C12.4094 5.61569 12.8874 4.95376 12.8874 4.95376C12.8874 4.95376 12.9977 4.83118 13.2675 4.83118C13.5372 4.83118 13.5493 4.95376 13.5493 4.95376C13.5493 4.95376 13.0836 5.50537 12.7894 6.00795C12.4951 6.51052 12.5074 7.1602 12.5074 7.1602C12.5074 7.1602 12.9977 6.71891 13.6719 6.53499C14.0951 6.41953 14.3493 6.48769 14.5982 6.55443C14.7457 6.59399 14.8914 6.63306 15.0693 6.63306C15.5473 6.63306 15.9152 6.4002 15.9152 6.4002C15.9152 6.4002 15.7313 6.69439 15.5597 6.97633C15.5547 6.98446 15.5498 6.99256 15.5449 7.00063C15.3799 7.27229 15.2377 7.5066 14.7139 7.61374C14.1746 7.72407 13.5493 7.61374 13.5493 7.61374C13.5493 7.61374 13.8558 7.68729 14.199 7.82213C14.5422 7.95697 14.7506 8.04278 15.0693 8.52079C15.388 8.9988 16.05 9.04793 16.05 9.04793C16.05 9.04793 15.8539 9.28083 15.2532 9.28083C14.6526 9.28083 14.0765 9.18277 13.5493 8.83955C13.0222 8.49632 12.3603 7.68729 12.3603 7.68729C12.3603 7.68729 12.4584 7.84665 12.6177 8.17761C12.7771 8.50858 12.9364 9.18277 12.9977 9.70986C13.059 10.237 12.7894 11.1563 12.7894 11.1563C12.7894 11.1563 12.4094 10.9234 12.1397 10.6415C11.8701 10.3595 11.7229 9.95502 11.5636 9.3789C11.4042 8.80277 11.7229 7.68729 11.7229 7.68729C11.7229 7.68729 11.4288 8.18987 11.2449 8.60664C11.061 9.02342 10.4849 9.3789 9.66356 9.45245C8.84223 9.52599 8.20486 9.18277 8.20486 9.18277C8.20486 9.18277 8.74421 9.01116 9.01393 8.83955C9.13375 8.76331 9.26563 8.59272 9.42143 8.39119C9.61634 8.13907 9.84868 7.83853 10.1417 7.61374C10.6689 7.20928 11.4288 7.42987 11.4288 7.42987C11.4288 7.42987 11.2448 7.33181 11.061 7.25826C10.9994 7.2336 10.8799 7.21721 10.7195 7.19522C10.4017 7.15164 9.92357 7.08607 9.4184 6.89052ZM9.14008 7.56185C8.93787 7.52002 8.73569 7.41545 8.53352 7.24813C8.41962 7.15387 8.36435 7.00651 8.36773 6.80604C8.13086 6.89249 7.90569 6.99473 7.69519 7.11459C4.95978 8.6721 4.80005 10.7287 4.80005 11.8668C4.80005 13.0049 5.31935 15.7005 6.73693 16.8985C8.15451 18.0965 9.40382 18.8796 11.7885 18.995C14.1732 19.1104 15.2029 18.8553 16.6405 17.3777C18.078 15.9001 19.1164 13.4842 19.1164 11.4275C19.1164 9.37086 17.9986 7.73372 16.8203 7.35427C16.7065 7.31762 16.555 7.27129 16.3718 7.21888C16.1669 7.60232 15.7641 7.83865 15.1634 7.92785C15.3028 8.02545 15.5224 8.15093 15.8222 8.30427C16.1219 8.45762 16.4496 8.51688 16.8052 8.48205C16.7564 8.8167 16.6414 9.13392 16.4601 9.43369C16.1883 9.88335 15.8327 10.0925 15.0589 10.0925C14.543 10.0925 14.0898 9.94261 13.6994 9.64284C13.7203 10.0263 13.6994 10.455 13.6366 10.9291C13.5739 11.4031 13.3299 11.797 12.9046 12.1107C12.4306 11.9225 12.0193 11.6959 11.6707 11.431C11.3222 11.1661 11.0886 10.6537 10.9701 9.89381C10.0638 10.1796 9.25158 10.2877 8.53352 10.218C7.81545 10.1483 7.34488 9.71604 7.12179 8.92129C7.53308 8.77486 7.88861 8.62845 8.18839 8.48205C8.48816 8.33564 8.80539 8.02891 9.14008 7.56185Z" fill="#808080"/>
</svg>
