<svg width="24" height="24" viewBox="0 0 24 24" fill="none" xmlns="http://www.w3.org/2000/svg">
<path fill-rule="evenodd" clip-rule="evenodd" d="M12 4C7.584 4 4 7.584 4 12C4 16.416 7.584 20 12 20C16.416 20 20 16.416 20 12C20 7.584 16.416 4 12 4ZM11.2 18.344C8.048 17.952 5.6 15.264 5.6 12C5.6 8.736 8.04 6.048 11.2 5.656V18.344ZM12.8 5.656C13.624 5.76 14.4 6.016 15.096 6.4H12.8V5.656ZM12.8 8H16.992C17.192 8.248 17.376 8.52 17.536 8.8H12.8V8ZM12.8 10.4H18.192C18.256 10.664 18.312 10.928 18.344 11.2H12.8V10.4ZM12.8 18.344V17.6H15.096C14.4 17.984 13.624 18.24 12.8 18.344ZM16.992 16H12.8V15.2H17.536C17.376 15.48 17.192 15.752 16.992 16ZM18.192 13.6H12.8V12.8H18.344C18.312 13.072 18.256 13.336 18.192 13.6Z" fill="#808080"/>
</svg>
