<svg width="24" height="24" viewBox="0 0 24 24" fill="none" xmlns="http://www.w3.org/2000/svg">
<path fill-rule="evenodd" clip-rule="evenodd" d="M9.43402 10.592V7.6C9.43402 6.496 10.33 5.6 11.434 5.6C12.538 5.6 13.434 6.496 13.434 7.6V10.592C14.402 9.944 15.034 8.848 15.034 7.6C15.034 5.608 13.426 4 11.434 4C9.44202 4 7.83402 5.608 7.83402 7.6C7.83402 8.848 8.46602 9.944 9.43402 10.592ZM13.834 12.568C13.61 12.456 13.37 12.4 13.122 12.4H12.634V7.6C12.634 6.936 12.098 6.4 11.434 6.4C10.77 6.4 10.234 6.936 10.234 7.6V16.192L7.48202 15.616C7.18602 15.552 6.87402 15.648 6.65802 15.864C6.31402 16.216 6.31402 16.776 6.65802 17.128L9.86602 20.336C10.17 20.632 10.578 20.8 11.002 20.8H15.882C16.682 20.8 17.354 20.216 17.466 19.424L17.97 15.848C18.066 15.168 17.714 14.496 17.098 14.192L13.834 12.568Z" fill="#808080"/>
</svg>
