<svg width="24" height="24" viewBox="0 0 24 24" fill="none" xmlns="http://www.w3.org/2000/svg">
<path fill-rule="evenodd" clip-rule="evenodd" d="M16.3999 2.40002C16.9279 2.40002 17.3759 2.73602 17.5359 3.20802L19.1119 7.74402C19.1679 7.91202 19.1999 8.09602 19.1999 8.27202V14C19.1999 14.664 18.6559 15.2 17.9999 15.2C17.3359 15.2 16.7999 14.656 16.7999 14V13.6H7.1999V14C7.1999 14.664 6.6639 15.2 5.9999 15.2C5.3359 15.2 4.7999 14.664 4.7999 14V8.27202C4.7999 8.08802 4.8319 7.91202 4.8879 7.74402L6.4639 3.20802C6.6319 2.73602 7.0719 2.40002 7.5999 2.40002H16.3999ZM6.3999 10C6.3999 10.664 6.9359 11.2 7.5999 11.2C8.2639 11.2 8.7999 10.664 8.7999 10C8.7999 9.33602 8.2639 8.80002 7.5999 8.80002C6.9359 8.80002 6.3999 9.33602 6.3999 10ZM15.1999 10C15.1999 10.664 15.7359 11.2 16.3999 11.2C17.0639 11.2 17.5999 10.664 17.5999 10C17.5999 9.33602 17.0639 8.80002 16.3999 8.80002C15.7359 8.80002 15.1999 9.33602 15.1999 10ZM7.4159 4.14402L6.3999 7.20002H17.5999L16.5839 4.14402C16.4719 3.82402 16.1679 3.60002 15.8239 3.60002H8.1759C7.8319 3.60002 7.5279 3.82402 7.4159 4.14402ZM3.9999 18.4H3.5999C2.93716 18.4 2.3999 17.8628 2.3999 17.2C2.3999 16.5373 2.93716 16 3.5999 16H20.3999C21.0626 16 21.5999 16.5373 21.5999 17.2C21.5999 17.8628 21.0626 18.4 20.3999 18.4H19.9999V20.4C19.9999 21.0628 19.4626 21.6 18.7999 21.6C18.1372 21.6 17.5999 21.0628 17.5999 20.4V18.4H6.3999V20.4C6.3999 21.0628 5.86264 21.6 5.1999 21.6C4.53716 21.6 3.9999 21.0628 3.9999 20.4V18.4Z" fill="#808080"/>
</svg>
