<svg width="24" height="24" viewBox="0 0 24 24" fill="none" xmlns="http://www.w3.org/2000/svg">
<path fill-rule="evenodd" clip-rule="evenodd" d="M11.9024 11.9024C11.9024 9.50239 13.9024 7.50239 16.3024 7.50239C18.3584 7.50239 20.1184 8.96639 20.5824 10.8944C20.7024 11.4064 20.3264 11.9024 19.8064 11.9024H11.9024ZM11.9024 11.9024C11.9024 14.3024 9.90239 16.3024 7.50239 16.3024C5.44639 16.3024 3.68639 14.8384 3.22239 12.9104C3.10239 12.3984 3.47839 11.9024 3.99839 11.9024H11.9024ZM11.9024 11.9024C9.50239 11.9024 7.50239 9.90239 7.50239 7.50239C7.50239 5.44639 8.96639 3.68639 10.8944 3.22239C11.4064 3.10239 11.9024 3.47839 11.9024 3.99839V11.9024ZM11.9024 11.9024C14.3024 11.9024 16.3024 13.9024 16.3024 16.3024C16.3024 18.3584 14.8384 20.1184 12.9104 20.5824C12.3984 20.7024 11.9024 20.3264 11.9024 19.8064V11.9024Z" fill="#808080"/>
</svg>
