<svg width="24" height="24" viewBox="0 0 24 24" fill="none" xmlns="http://www.w3.org/2000/svg">
<path fill-rule="evenodd" clip-rule="evenodd" d="M17.0528 6.94941C16.7648 7.23741 16.7408 7.68541 16.9968 8.00541C18.1568 9.46141 18.7648 11.4534 18.2208 13.5414C17.5888 15.9814 15.6768 17.8054 13.2528 18.2934C9.17279 19.1014 5.59679 15.9494 5.59679 12.0054C5.59679 8.74141 8.03679 6.05341 11.1968 5.66141V7.27741C8.69279 7.70141 6.85279 10.0454 7.25279 12.7414C7.56479 14.8294 9.30079 16.5094 11.3968 16.7654C14.3088 17.1254 16.7968 14.8534 16.7968 12.0054C16.7968 11.0054 16.4928 10.0854 15.9728 9.31741C15.7008 8.91741 15.1168 8.89341 14.7728 9.22941L14.7648 9.23741C14.4928 9.50941 14.4688 9.93341 14.6768 10.2534C15.1568 10.9894 15.3488 11.9334 15.0688 12.9094C14.7568 14.0054 13.8368 14.8774 12.7168 15.1254C10.6368 15.5814 8.79679 14.0134 8.79679 12.0054C8.79679 10.5174 9.82079 9.27741 11.1968 8.91741V10.6294C10.7168 10.9094 10.3968 11.4134 10.3968 12.0054C10.3968 12.8854 11.1168 13.6054 11.9968 13.6054C12.8768 13.6054 13.5968 12.8854 13.5968 12.0054C13.5968 11.4134 13.2768 10.9014 12.7968 10.6294V4.57341C12.7968 4.26141 12.5408 4.00541 12.2288 4.00541C7.94079 3.84541 4.24479 7.25341 4.01279 11.5254C3.72479 16.7654 8.34079 20.9814 13.6208 19.8454C16.7248 19.1814 19.1248 16.8054 19.8208 13.7094C20.3888 11.1814 19.6608 8.78141 18.2448 7.01341C17.9488 6.63741 17.3888 6.61341 17.0528 6.94941Z" fill="#808080"/>
</svg>
