<svg width="24" height="24" viewBox="0 0 24 24" fill="none" xmlns="http://www.w3.org/2000/svg">
<path fill-rule="evenodd" clip-rule="evenodd" d="M18.3397 10.872C18.3717 10.624 18.1877 10.4 17.9397 10.4H15.9717V9.48805C17.2037 9.16805 18.1477 8.14405 18.3397 6.87205C18.3717 6.62405 18.1877 6.40005 17.9397 6.40005H15.9717V5.60005C15.9717 5.16005 15.6117 4.80005 15.1717 4.80005H8.77172C8.33172 4.80005 7.97172 5.16005 7.97172 5.60005V6.40005H6.00372C5.75572 6.40005 5.57172 6.62405 5.60372 6.87205C5.79572 8.14405 6.73972 9.16805 7.97172 9.48805V10.4H6.00372C5.75572 10.4 5.57172 10.624 5.60372 10.872C5.79572 12.144 6.73972 13.168 7.97172 13.488V14.4H6.00372C5.75572 14.4 5.57172 14.624 5.60372 14.872C5.79572 16.144 6.73972 17.168 7.97172 17.488V18.4C7.97172 18.84 8.33172 19.2 8.77172 19.2H15.1717C15.6117 19.2 15.9717 18.84 15.9717 18.4V17.488C17.2037 17.168 18.1477 16.144 18.3397 14.872C18.3717 14.624 18.1877 14.4 17.9397 14.4H15.9717V13.488C17.2037 13.168 18.1477 12.144 18.3397 10.872ZM11.9717 17.6C11.0837 17.6 10.3717 16.88 10.3717 16C10.3717 15.12 11.0837 14.4 11.9717 14.4C12.8517 14.4 13.5717 15.12 13.5717 16C13.5717 16.88 12.8597 17.6 11.9717 17.6ZM11.9717 13.6C11.0837 13.6 10.3717 12.88 10.3717 12C10.3717 11.12 11.0837 10.4 11.9717 10.4C12.8517 10.4 13.5717 11.12 13.5717 12C13.5717 12.88 12.8597 13.6 11.9717 13.6ZM11.9717 9.60005C11.0837 9.60005 10.3717 8.88005 10.3717 8.00005C10.3717 7.11205 11.0837 6.40005 11.9717 6.40005C12.8517 6.40005 13.5717 7.11205 13.5717 8.00005C13.5717 8.88005 12.8597 9.60005 11.9717 9.60005Z" fill="#808080"/>
</svg>
