<svg width="24" height="24" viewBox="0 0 24 24" fill="none" xmlns="http://www.w3.org/2000/svg">
<path fill-rule="evenodd" clip-rule="evenodd" d="M12.7999 6.4L13.3999 5.2H15.9999V4H7.9999V5.2H11.7999L11.1999 6.4C8.6959 6.472 6.3999 6.984 6.3999 9.2V16C6.3999 17.2 7.2879 18.184 8.4399 18.36L7.4879 19.312C7.2319 19.568 7.4079 20 7.7679 20H8.6399C8.7439 20 8.8479 19.96 8.9199 19.88L10.3999 18.4H13.5999L15.0799 19.88C15.1519 19.952 15.2559 20 15.3599 20H16.2319C16.5919 20 16.7679 19.568 16.5119 19.32L15.5599 18.368C16.7119 18.184 17.5999 17.2 17.5999 16V9.2C17.5999 6.984 15.3039 6.472 12.7999 6.4ZM11.9999 17.2C11.3359 17.2 10.7999 16.664 10.7999 16C10.7999 15.336 11.3359 14.8 11.9999 14.8C12.6639 14.8 13.1999 15.336 13.1999 16C13.1999 16.664 12.6639 17.2 11.9999 17.2ZM15.9999 13.6H7.9999V9.6H15.9999V13.6Z" fill="#808080"/>
</svg>
