<svg width="24" height="24" viewBox="0 0 24 24" fill="none" xmlns="http://www.w3.org/2000/svg">
<path fill-rule="evenodd" clip-rule="evenodd" d="M20 14.4H15.584V13.784C15.584 13.496 15.232 13.352 15.032 13.552L13.824 14.768C13.696 14.896 13.696 15.096 13.824 15.224L15.032 16.44C15.24 16.648 15.584 16.504 15.584 16.208V15.6H20V14.4ZM19.776 18.168L18.568 16.952C18.36 16.744 18.016 16.888 18.016 17.184V17.8H13.6V19H18.016V19.616C18.016 19.904 18.368 20.048 18.568 19.848L19.776 18.632C19.904 18.504 19.904 18.296 19.776 18.168ZM10 6.39995C10.88 6.39995 11.6 5.67995 11.6 4.79995C11.6 3.91995 10.88 3.19995 10 3.19995C9.12 3.19995 8.4 3.91995 8.4 4.79995C8.4 5.67995 9.12 6.39995 10 6.39995ZM7 9.11995L4.984 19.448C4.888 19.944 5.264 20.4 5.768 20.4H5.84C6.216 20.4 6.544 20.136 6.624 19.768L7.88 14L9.6 15.6V19.6C9.6 20.04 9.96 20.4 10.4 20.4C10.84 20.4 11.2 20.04 11.2 19.6V15.024C11.2 14.6 11.032 14.192 10.728 13.896L9.56 12.72L10.04 10.32C10.896 11.376 12.104 12.104 13.488 12.328C13.968 12.408 14.4 12.016 14.4 11.528C14.4 11.136 14.112 10.808 13.728 10.744C12.536 10.544 11.528 9.82395 10.92 8.83995L10.16 7.55995C9.88 7.07995 9.36 6.79995 8.8 6.79995C8.6 6.79995 8.4 6.83995 8.2 6.91995L4.992 8.23195C4.392 8.47995 4 9.06395 4 9.71195V11.6C4 12.04 4.36 12.4 4.8 12.4C5.24 12.4 5.6 12.04 5.6 11.6V9.71995L7 9.11995Z" fill="#808080"/>
</svg>
