<svg width="24" height="24" viewBox="0 0 24 24" fill="none" xmlns="http://www.w3.org/2000/svg">
<path fill-rule="evenodd" clip-rule="evenodd" d="M12.52 14.936C12.632 14.648 12.56 14.32 12.336 14.096L10.664 12.448L10.688 12.424C12.08 10.872 13.072 9.088 13.656 7.2H15.208C15.64 7.2 16 6.84 16 6.408V6.392C16 5.96 15.64 5.6 15.208 5.6H10.4V4.8C10.4 4.36 10.04 4 9.6 4C9.16 4 8.8 4.36 8.8 4.8V5.6H3.992C3.56 5.6 3.2 5.96 3.2 6.392C3.2 6.832 3.56 7.184 3.992 7.184H12.136C11.6 8.736 10.752 10.2 9.6 11.48C8.952 10.768 8.408 9.992 7.952 9.176C7.824 8.944 7.592 8.8 7.328 8.8C6.776 8.8 6.424 9.4 6.696 9.88C7.2 10.784 7.816 11.648 8.536 12.448L5.04 15.896C4.72 16.208 4.72 16.72 5.04 17.032C5.352 17.344 5.856 17.344 6.176 17.032L9.6 13.6L11.216 15.216C11.624 15.624 12.32 15.472 12.52 14.936ZM16.4 10.4C15.92 10.4 15.488 10.696 15.32 11.152L12.384 18.992C12.192 19.48 12.56 20 13.08 20C13.392 20 13.672 19.808 13.784 19.512L14.496 17.6H18.296L19.016 19.512C19.128 19.8 19.408 20 19.72 20C20.24 20 20.608 19.48 20.424 18.992L17.488 11.152C17.312 10.696 16.88 10.4 16.4 10.4ZM15.104 16L16.4 12.536L17.696 16H15.104Z" fill="#808080"/>
</svg>
