<svg width="24" height="24" viewBox="0 0 24 24" fill="none" xmlns="http://www.w3.org/2000/svg">
<path fill-rule="evenodd" clip-rule="evenodd" d="M19.2 15.04H9.6C9.16 15.04 8.8 14.68 8.8 14.24V5.44001H9.432C9.792 5.44001 9.968 5.00801 9.712 4.76001L8.28 3.32001C8.12 3.16001 7.872 3.16001 7.712 3.32001L6.28 4.76001C6.032 5.00801 6.208 5.44001 6.568 5.44001H7.2V7.04001H4.8C4.36 7.04001 4 7.40001 4 7.84001C4 8.28001 4.36 8.64001 4.8 8.64001H7.2V15.04C7.2 15.92 7.92 16.64 8.8 16.64H15.2V18.24H14.568C14.208 18.24 14.032 18.672 14.288 18.92L15.72 20.352C15.88 20.512 16.128 20.512 16.288 20.352L17.72 18.92C17.976 18.672 17.792 18.24 17.44 18.24H16.8V16.64H19.2C19.64 16.64 20 16.28 20 15.84C20 15.4 19.64 15.04 19.2 15.04ZM15.2 13.44H16.8V8.64001C16.8 7.76001 16.08 7.04001 15.2 7.04001H10.4V8.64001H14.4C14.84 8.64001 15.2 9.00001 15.2 9.44001V13.44Z" fill="#808080"/>
</svg>
