<svg width="24" height="24" viewBox="0 0 24 24" fill="none" xmlns="http://www.w3.org/2000/svg">
<path fill-rule="evenodd" clip-rule="evenodd" d="M12.8 15.2L13.6 21.2H10.8V16L12.8 15.2ZM11.9778 2.40002C14.2729 2.40002 16.1334 4.25409 16.1334 6.5412L16.1327 6.61601C17.4783 7.30087 18.4 8.69612 18.4 10.3059C18.4 12.593 16.5395 14.4471 14.2445 14.4471C13.4387 14.4471 12.6866 14.2186 12.0496 13.823C11.2895 14.6681 10.1849 15.2 8.9556 15.2C6.66055 15.2 4.80005 13.346 4.80005 11.0588C4.80005 9.15139 6.09415 7.54514 7.85514 7.06444C7.83348 6.89362 7.82227 6.71872 7.82227 6.5412C7.82227 4.25409 9.68278 2.40002 11.9778 2.40002Z" fill="#808080"/>
</svg>
