<svg width="24" height="24" viewBox="0 0 24 24" fill="none" xmlns="http://www.w3.org/2000/svg">
<path fill-rule="evenodd" clip-rule="evenodd" d="M15.546 7.87995L16.698 9.03195L12.794 12.936L10.162 10.304C10.0125 10.1541 9.80961 10.07 9.598 10.07C9.38639 10.07 9.18347 10.1541 9.034 10.304L4.234 15.112C3.922 15.424 3.922 15.928 4.234 16.24C4.546 16.552 5.05 16.552 5.362 16.24L9.594 12L12.226 14.632C12.538 14.944 13.042 14.944 13.354 14.632L17.826 10.168L18.978 11.32C19.226 11.568 19.658 11.392 19.658 11.04V7.59995C19.666 7.37595 19.49 7.19995 19.266 7.19995H15.834C15.474 7.19995 15.298 7.63195 15.546 7.87995Z" fill="#808080"/>
</svg>
