<svg width="24" height="24" viewBox="0 0 24 24" fill="none" xmlns="http://www.w3.org/2000/svg">
<path fill-rule="evenodd" clip-rule="evenodd" d="M15.546 15.794L16.698 14.642L12.794 10.738L10.162 13.37C9.84999 13.682 9.34599 13.682 9.03399 13.37L4.23399 8.56195C4.08419 8.41249 4 8.20957 4 7.99795C4 7.78634 4.08419 7.58342 4.23399 7.43395C4.54599 7.12195 5.04999 7.12195 5.36199 7.43395L9.59399 11.674L12.226 9.04195C12.538 8.72995 13.042 8.72995 13.354 9.04195L17.826 13.506L18.978 12.354C19.226 12.106 19.658 12.282 19.658 12.634V16.066C19.658 16.29 19.482 16.466 19.258 16.466H15.826C15.474 16.474 15.298 16.042 15.546 15.794Z" fill="#808080"/>
</svg>
