<svg width="24" height="24" viewBox="0 0 24 24" fill="none" xmlns="http://www.w3.org/2000/svg">
<path fill-rule="evenodd" clip-rule="evenodd" d="M4.80005 16.8C4.80005 17.24 5.16005 17.6 5.60005 17.6H9.60005V16H5.60005C5.16005 16 4.80005 16.36 4.80005 16.8ZM4.80005 7.19999C4.80005 7.63999 5.16005 7.99999 5.60005 7.99999H12.8V6.39999H5.60005C5.16005 6.39999 4.80005 6.75999 4.80005 7.19999ZM12.8 18.4V17.6H18.4C18.84 17.6 19.2 17.24 19.2 16.8C19.2 16.36 18.84 16 18.4 16H12.8V15.2C12.8 14.76 12.44 14.4 12 14.4C11.56 14.4 11.2 14.76 11.2 15.2V18.4C11.2 18.84 11.56 19.2 12 19.2C12.44 19.2 12.8 18.84 12.8 18.4ZM8.00005 10.4V11.2H5.60005C5.16005 11.2 4.80005 11.56 4.80005 12C4.80005 12.44 5.16005 12.8 5.60005 12.8H8.00005V13.6C8.00005 14.04 8.36005 14.4 8.80005 14.4C9.24005 14.4 9.60005 14.04 9.60005 13.6V10.4C9.60005 9.95999 9.24005 9.59999 8.80005 9.59999C8.36005 9.59999 8.00005 9.95999 8.00005 10.4ZM19.2 12C19.2 11.56 18.84 11.2 18.4 11.2H11.2V12.8H18.4C18.84 12.8 19.2 12.44 19.2 12ZM15.2 9.59999C15.64 9.59999 16 9.23999 16 8.79999V7.99999H18.4C18.84 7.99999 19.2 7.63999 19.2 7.19999C19.2 6.75999 18.84 6.39999 18.4 6.39999H16V5.59999C16 5.15999 15.64 4.79999 15.2 4.79999C14.76 4.79999 14.4 5.15999 14.4 5.59999V8.79999C14.4 9.23999 14.76 9.59999 15.2 9.59999Z" fill="#808080"/>
</svg>
