<svg width="24" height="24" viewBox="0 0 24 24" fill="none" xmlns="http://www.w3.org/2000/svg">
<path fill-rule="evenodd" clip-rule="evenodd" d="M19.2 4.80005H4.79995C3.91995 4.80005 3.19995 5.52005 3.19995 6.40005V16C3.19995 16.88 3.91995 17.6 4.79995 17.6H8.79995V18.4C8.79995 18.84 9.15995 19.2 9.59995 19.2H14.4C14.84 19.2 15.2 18.84 15.2 18.4V17.6H19.2C20.08 17.6 20.792 16.88 20.792 16L20.8 6.40005C20.8 5.52005 20.08 4.80005 19.2 4.80005ZM18.4 16H5.59995C5.15995 16 4.79995 15.64 4.79995 15.2V7.20005C4.79995 6.76005 5.15995 6.40005 5.59995 6.40005H18.4C18.84 6.40005 19.2 6.76005 19.2 7.20005V15.2C19.2 15.64 18.84 16 18.4 16Z" fill="#808080"/>
</svg>
