<svg width="24" height="24" viewBox="0 0 24 24" fill="none" xmlns="http://www.w3.org/2000/svg">
<path fill-rule="evenodd" clip-rule="evenodd" d="M19.2 8.64001V16.544L20.68 18.024C20.76 17.848 20.7999 17.648 20.7999 17.44V7.84001C20.7999 6.95201 20.08 6.24001 19.2 6.24001H13.128L15.48 3.88801C15.64 3.72801 15.64 3.48001 15.48 3.32001C15.32 3.16001 15.072 3.16001 14.912 3.32001L12 6.23201L9.08795 3.32001C8.92795 3.16001 8.67995 3.16001 8.51995 3.32001C8.35995 3.48001 8.35995 3.72801 8.51995 3.88801L10.872 6.24001H8.89595L10.496 7.84001H18.4C18.84 7.84001 19.2 8.20001 19.2 8.64001ZM4.89595 4.50401C4.74649 4.35421 4.54357 4.27002 4.33195 4.27002C4.12034 4.27002 3.91742 4.35421 3.76795 4.50401C3.45595 4.81601 3.45595 5.32001 3.76795 5.63201L4.42395 6.28801C3.71995 6.46401 3.19995 7.08801 3.19995 7.84001V17.44C3.19995 18.32 3.91995 19.04 4.79995 19.04H17.168L18.2 20.072C18.512 20.384 19.016 20.384 19.328 20.072C19.616 19.784 19.624 19.336 19.384 19.024H19.408L4.89595 4.50401ZM4.79995 16.64V8.64001C4.79995 8.20001 5.15995 7.84001 5.59995 7.84001H5.96795L15.568 17.44H5.59995C5.15995 17.44 4.79995 17.08 4.79995 16.64Z" fill="#808080"/>
</svg>
