<svg width="24" height="24" viewBox="0 0 24 24" fill="none" xmlns="http://www.w3.org/2000/svg">
<path fill-rule="evenodd" clip-rule="evenodd" d="M18.84 6.57599L17.728 5.23199C17.504 4.96799 17.176 4.79999 16.8 4.79999H7.20005C6.82405 4.79999 6.49605 4.96799 6.28005 5.23999L5.16805 6.57599C4.93605 6.85599 4.80005 7.20799 4.80005 7.59999V17.6C4.80005 18.48 5.51205 19.2 6.40005 19.2H17.6C18.48 19.2 19.2 18.48 19.2 17.6V7.59999C19.2 7.20799 19.064 6.85599 18.84 6.57599ZM12.28 10.28L16.4 14.4H13.6V16H10.4V14.4H7.60005L11.72 10.28C11.872 10.128 12.128 10.128 12.28 10.28ZM6.49605 6.39999L7.15205 5.59999H16.752L17.496 6.39999H6.49605Z" fill="#808080"/>
</svg>
