<svg width="24" height="24" viewBox="0 0 24 24" fill="none" xmlns="http://www.w3.org/2000/svg">
<path fill-rule="evenodd" clip-rule="evenodd" d="M12.4 8.79999C10.28 8.79999 8.36 9.59199 6.88 10.88L5.368 9.36799C4.864 8.86399 4 9.21599 4 9.92799V14.4C4 14.84 4.36 15.2 4.8 15.2H9.272C9.984 15.2 10.344 14.336 9.84 13.832L8.312 12.304C9.424 11.376 10.84 10.8 12.408 10.8C14.936 10.8 17.12 12.272 18.16 14.4C18.376 14.848 18.888 15.072 19.36 14.912C19.928 14.728 20.216 14.08 19.96 13.536C18.584 10.736 15.72 8.79999 12.4 8.79999Z" fill="#808080"/>
</svg>
