<svg width="24" height="24" viewBox="0 0 24 24" fill="none" xmlns="http://www.w3.org/2000/svg">
<path fill-rule="evenodd" clip-rule="evenodd" d="M9.03405 17.514C9.34605 17.826 9.85005 17.826 10.162 17.514L12.138 15.538L14.114 17.514C14.426 17.826 14.93 17.826 15.242 17.514C15.554 17.202 15.554 16.698 15.242 16.386L12.706 13.85C12.5566 13.7002 12.3537 13.616 12.142 13.616C11.9304 13.616 11.7275 13.7002 11.578 13.85L9.04205 16.386C8.72205 16.69 8.72205 17.202 9.03405 17.514ZM15.242 5.83399C15.0926 5.68419 14.8897 5.60001 14.678 5.60001C14.4664 5.60001 14.2635 5.68419 14.114 5.83399L12.138 7.80999L10.162 5.83399C10.0126 5.68419 9.80966 5.60001 9.59805 5.60001C9.38643 5.60001 9.18351 5.68419 9.03405 5.83399C8.72205 6.14599 8.72205 6.65799 9.03405 6.96999L11.57 9.50599C11.882 9.81799 12.386 9.81799 12.698 9.50599L15.234 6.96999C15.554 6.65799 15.554 6.14599 15.242 5.83399Z" fill="#808080"/>
</svg>
