<svg width="24" height="24" viewBox="0 0 24 24" fill="none" xmlns="http://www.w3.org/2000/svg">
<path fill-rule="evenodd" clip-rule="evenodd" d="M12.138 6.73798L14.106 8.70598C14.418 9.01798 14.922 9.01798 15.234 8.70598C15.546 8.39398 15.546 7.88998 15.234 7.57798L12.698 5.03398C12.5486 4.88417 12.3457 4.79999 12.134 4.79999C11.9224 4.79999 11.7195 4.88417 11.57 5.03398L9.03405 7.57798C8.72205 7.88998 8.72205 8.39398 9.03405 8.70598C9.34605 9.01798 9.85005 9.01798 10.162 8.70598L12.138 6.73798ZM12.138 16.61L10.17 14.642C10.0206 14.4922 9.81766 14.408 9.60605 14.408C9.39443 14.408 9.19151 14.4922 9.04205 14.642C8.73005 14.954 8.73005 15.458 9.04205 15.77L11.578 18.314C11.89 18.626 12.394 18.626 12.706 18.314L15.242 15.778C15.554 15.466 15.554 14.962 15.242 14.65C15.0926 14.5002 14.8897 14.416 14.678 14.416C14.4664 14.416 14.2635 14.5002 14.114 14.65L12.138 16.61Z" fill="#808080"/>
</svg>
