<svg width="24" height="24" viewBox="0 0 24 24" fill="none" xmlns="http://www.w3.org/2000/svg">
<path fill-rule="evenodd" clip-rule="evenodd" d="M17.2 12.4C17.936 12.4 18.6 12.608 19.192 12.952V7.19998C19.192 6.31998 18.48 5.59998 17.6 5.59998H6.39999C5.51999 5.59998 4.79999 6.31998 4.79999 7.19998V15.2C4.79999 16.08 5.51999 16.8 6.39999 16.8H13.24C13.224 16.664 13.2 16.536 13.2 16.4C13.2 14.192 14.992 12.4 17.2 12.4ZM12.712 11.24C12.264 11.464 11.728 11.464 11.28 11.24L6.79199 8.99998C6.55199 8.87998 6.39999 8.63198 6.39999 8.35998C6.39999 7.83198 6.95999 7.47998 7.43199 7.71998L12 9.99998L16.568 7.71998C17.04 7.47998 17.6 7.82398 17.6 8.35998C17.6 8.63198 17.448 8.87998 17.208 8.99998L12.712 11.24ZM17.2 13.6C15.656 13.6 14.4 14.856 14.4 16.4C14.4 17.944 15.656 19.2 17.2 19.2C18.744 19.2 20 17.944 20 16.4C20 14.856 18.744 13.6 17.2 13.6ZM18.8 16.4C18.8 16.624 18.624 16.8 18.4 16.8H16C15.776 16.8 15.6 16.624 15.6 16.4C15.6 16.176 15.776 16 16 16H18.4C18.624 16 18.8 16.176 18.8 16.4Z" fill="#808080"/>
</svg>
