<svg width="24" height="24" viewBox="0 0 24 24" fill="none" xmlns="http://www.w3.org/2000/svg">
<path fill-rule="evenodd" clip-rule="evenodd" d="M11.1975 9.39751V12.3415C11.1975 12.6215 11.3495 12.8855 11.5895 13.0295L14.0855 14.5095C14.3735 14.6775 14.7415 14.5815 14.9095 14.3015C15.0775 14.0135 14.9895 13.6455 14.7015 13.4775L12.4055 12.1095V9.38951C12.3975 9.06951 12.1255 8.79751 11.7975 8.79751C11.4695 8.79751 11.1975 9.06951 11.1975 9.39751ZM19.1975 9.99751V5.76551C19.1975 5.40551 18.7655 5.22951 18.5175 5.48551L17.0935 6.90951C15.6455 5.46151 13.5815 4.62951 11.3255 4.82951C7.97345 5.13351 5.21345 7.82951 4.84545 11.1815C4.36545 15.5175 7.74945 19.1975 11.9975 19.1975C15.6695 19.1975 18.7015 16.4455 19.1415 12.8935C19.1975 12.4135 18.8215 11.9975 18.3415 11.9975C17.9415 11.9975 17.6055 12.2935 17.5575 12.6855C17.2135 15.4775 14.8055 17.6375 11.9175 17.5975C8.94945 17.5575 6.44545 15.0535 6.39745 12.0775C6.34945 8.95751 8.88545 6.39751 11.9975 6.39751C13.5415 6.39751 14.9415 7.02951 15.9575 8.03751L14.2855 9.70951C14.0295 9.96551 14.2055 10.3975 14.5655 10.3975H18.7975C19.0215 10.3975 19.1975 10.2215 19.1975 9.99751Z" fill="#808080"/>
</svg>
