<svg width="24" height="24" viewBox="0 0 24 24" fill="none" xmlns="http://www.w3.org/2000/svg">
<path fill-rule="evenodd" clip-rule="evenodd" d="M10.3999 15.674H13.5999C14.0399 15.674 14.3999 15.314 14.3999 14.874V10.874H15.6719C16.3839 10.874 16.7439 10.01 16.2399 9.50596L12.5679 5.83396C12.4184 5.68416 12.2155 5.59998 12.0039 5.59998C11.7923 5.59998 11.5894 5.68416 11.4399 5.83396L7.7679 9.50596C7.2639 10.01 7.6159 10.874 8.3279 10.874H9.5999V14.874C9.5999 15.314 9.9599 15.674 10.3999 15.674ZM7.1999 17.274H16.7999C17.2399 17.274 17.5999 17.634 17.5999 18.074C17.5999 18.514 17.2399 18.874 16.7999 18.874H7.1999C6.7599 18.874 6.3999 18.514 6.3999 18.074C6.3999 17.634 6.7599 17.274 7.1999 17.274Z" fill="#808080"/>
</svg>
