<svg width="24" height="24" viewBox="0 0 24 24" fill="none" xmlns="http://www.w3.org/2000/svg">
<path fill-rule="evenodd" clip-rule="evenodd" d="M16.96 8.538H15.36C14.92 8.538 14.56 8.898 14.56 9.338V10.938C14.56 11.378 14.92 11.738 15.36 11.738V13.338H12.96V6.938H13.76C14.088 6.938 14.28 6.562 14.08 6.298L12.48 4.162C12.32 3.946 12 3.946 11.84 4.162L10.24 6.298C10.04 6.562 10.232 6.938 10.56 6.938H11.36V13.338H8.96002V11.682C9.62402 11.33 10.064 10.594 9.87202 9.738C9.73602 9.122 9.25602 8.618 8.65602 8.45C7.48002 8.122 6.40002 9.01 6.40002 10.138C6.40002 10.818 6.80002 11.386 7.36002 11.682V13.338C7.36002 14.218 8.08002 14.938 8.96002 14.938H11.36V17.378C10.672 17.738 10.248 18.514 10.456 19.37C10.6 19.97 11.088 20.474 11.688 20.634C12.856 20.946 13.928 20.074 13.928 18.938C13.928 18.258 13.536 17.674 12.968 17.378V14.938H15.368C16.248 14.938 16.968 14.218 16.968 13.338V11.738C17.408 11.738 17.768 11.378 17.768 10.938V9.338C17.76 8.898 17.4 8.538 16.96 8.538Z" fill="#808080"/>
</svg>
