<svg width="24" height="24" viewBox="0 0 24 24" fill="none" xmlns="http://www.w3.org/2000/svg">
<path fill-rule="evenodd" clip-rule="evenodd" d="M11.352 3.33795L5.75199 5.82595C5.17599 6.08195 4.79999 6.65795 4.79999 7.28995V11.05C4.79999 15.49 7.87199 19.642 12 20.65C16.128 19.642 19.2 15.49 19.2 11.05V7.28995C19.2 6.65795 18.824 6.08195 18.248 5.82595L12.648 3.33795C12.24 3.15395 11.76 3.15395 11.352 3.33795ZM9.83199 15.282L7.75999 13.21C7.61019 13.0605 7.526 12.8576 7.526 12.646C7.526 12.4343 7.61019 12.2314 7.75999 12.082C8.07199 11.77 8.57599 11.77 8.88799 12.082L10.4 13.586L15.104 8.88195C15.416 8.56995 15.92 8.56995 16.232 8.88195C16.544 9.19395 16.544 9.69795 16.232 10.01L10.96 15.282C10.656 15.594 10.144 15.594 9.83199 15.282Z" fill="#808080"/>
</svg>
