<svg width="24" height="24" viewBox="0 0 24 24" fill="none" xmlns="http://www.w3.org/2000/svg">
<path fill-rule="evenodd" clip-rule="evenodd" d="M9.7681 17.6H11.2001V20C11.2001 20.44 11.5601 20.8 12.0001 20.8C12.4401 20.8 12.8001 20.44 12.8001 20V17.6H14.2321C14.5921 17.6 14.7681 17.168 14.5121 16.92L12.2801 14.688C12.1201 14.528 11.8721 14.528 11.7121 14.688L9.4801 16.92C9.2321 17.168 9.4081 17.6 9.7681 17.6ZM14.2321 6.40001H12.8001V4.00001C12.8001 3.56001 12.4401 3.20001 12.0001 3.20001C11.5601 3.20001 11.2001 3.56001 11.2001 4.00001V6.40001H9.7681C9.4081 6.40001 9.2321 6.83201 9.4801 7.08001L11.7121 9.31201C11.8721 9.47201 12.1201 9.47201 12.2801 9.31201L14.5121 7.08001C14.7681 6.83201 14.5921 6.40001 14.2321 6.40001ZM5.6001 12C5.6001 12.44 5.9601 12.8 6.4001 12.8H17.6001C18.0401 12.8 18.4001 12.44 18.4001 12C18.4001 11.56 18.0401 11.2 17.6001 11.2H6.4001C5.9601 11.2 5.6001 11.56 5.6001 12Z" fill="#808080"/>
</svg>
