<svg width="24" height="24" viewBox="0 0 24 24" fill="none" xmlns="http://www.w3.org/2000/svg">
<path fill-rule="evenodd" clip-rule="evenodd" d="M14.2321 12.8H12.8001V5.59999C12.8001 5.15999 12.4401 4.79999 12.0001 4.79999C11.5601 4.79999 11.2001 5.15999 11.2001 5.59999V12.8H9.7681C9.4081 12.8 9.2321 13.232 9.4881 13.48L11.7201 15.712C11.8801 15.872 12.1281 15.872 12.2881 15.712L14.5201 13.48C14.7681 13.232 14.5921 12.8 14.2321 12.8ZM5.6001 18.4C5.6001 18.84 5.9601 19.2 6.4001 19.2H17.6001C18.0401 19.2 18.4001 18.84 18.4001 18.4C18.4001 17.96 18.0401 17.6 17.6001 17.6H6.4001C5.9601 17.6 5.6001 17.96 5.6001 18.4Z" fill="#808080"/>
</svg>
