<svg width="24" height="24" viewBox="0 0 24 24" fill="none" xmlns="http://www.w3.org/2000/svg">
<path fill-rule="evenodd" clip-rule="evenodd" d="M9.7681 11.2H11.2001V18.4C11.2001 18.84 11.5601 19.2 12.0001 19.2C12.4401 19.2 12.8001 18.84 12.8001 18.4V11.2H14.2321C14.5921 11.2 14.7681 10.768 14.5121 10.52L12.2801 8.28799C12.1201 8.12799 11.8721 8.12799 11.7121 8.28799L9.4801 10.52C9.2321 10.768 9.4081 11.2 9.7681 11.2ZM5.6001 5.59999C5.6001 6.03999 5.9601 6.39999 6.4001 6.39999H17.6001C18.0401 6.39999 18.4001 6.03999 18.4001 5.59999C18.4001 5.15999 18.0401 4.79999 17.6001 4.79999H6.4001C5.9601 4.79999 5.6001 5.15999 5.6001 5.59999Z" fill="#808080"/>
</svg>
