<svg width="24" height="24" viewBox="0 0 24 24" fill="none" xmlns="http://www.w3.org/2000/svg">
<path fill-rule="evenodd" clip-rule="evenodd" d="M5.59999 14.4H10.4C10.84 14.4 11.2 14.04 11.2 13.6C11.2 13.16 10.84 12.8 10.4 12.8H5.59999C5.15999 12.8 4.79999 13.16 4.79999 13.6C4.79999 14.04 5.15999 14.4 5.59999 14.4ZM5.59999 17.6H10.4C10.84 17.6 11.2 17.24 11.2 16.8C11.2 16.36 10.84 16 10.4 16H5.59999C5.15999 16 4.79999 16.36 4.79999 16.8C4.79999 17.24 5.15999 17.6 5.59999 17.6ZM5.59999 11.2H10.4C10.84 11.2 11.2 10.84 11.2 10.4C11.2 9.96002 10.84 9.60002 10.4 9.60002H5.59999C5.15999 9.60002 4.79999 9.96002 4.79999 10.4C4.79999 10.84 5.15999 11.2 5.59999 11.2ZM4.79999 7.20002C4.79999 7.64002 5.15999 8.00002 5.59999 8.00002H10.4C10.84 8.00002 11.2 7.64002 11.2 7.20002C11.2 6.76002 10.84 6.40002 10.4 6.40002H5.59999C5.15999 6.40002 4.79999 6.76002 4.79999 7.20002ZM13.6 6.40002H18.4C18.84 6.40002 19.2 6.76002 19.2 7.20002V16.8C19.2 17.24 18.84 17.6 18.4 17.6H13.6C13.16 17.6 12.8 17.24 12.8 16.8V7.20002C12.8 6.76002 13.16 6.40002 13.6 6.40002Z" fill="#808080"/>
</svg>
