<svg width="24" height="24" viewBox="0 0 24 24" fill="none" xmlns="http://www.w3.org/2000/svg">
<path fill-rule="evenodd" clip-rule="evenodd" d="M3.1999 14.4C3.6399 14.4 3.9999 14.04 3.9999 13.6V10.4C3.9999 9.95999 3.6399 9.59999 3.1999 9.59999C2.7599 9.59999 2.3999 9.95999 2.3999 10.4V13.6C2.3999 14.04 2.7599 14.4 3.1999 14.4ZM5.5999 16C6.0399 16 6.3999 15.64 6.3999 15.2V8.79999C6.3999 8.35999 6.0399 7.99999 5.5999 7.99999C5.1599 7.99999 4.7999 8.35999 4.7999 8.79999V15.2C4.7999 15.64 5.1599 16 5.5999 16ZM19.9999 10.4V13.6C19.9999 14.04 20.3599 14.4 20.7999 14.4C21.2399 14.4 21.5999 14.04 21.5999 13.6V10.4C21.5999 9.95999 21.2399 9.59999 20.7999 9.59999C20.3599 9.59999 19.9999 9.95999 19.9999 10.4ZM18.3999 16C18.8399 16 19.1999 15.64 19.1999 15.2V8.79999C19.1999 8.35999 18.8399 7.99999 18.3999 7.99999C17.9599 7.99999 17.5999 8.35999 17.5999 8.79999V15.2C17.5999 15.64 17.9599 16 18.3999 16ZM15.5999 4.79999H8.3999C7.7359 4.79999 7.1999 5.33599 7.1999 5.99999V18C7.1999 18.664 7.7359 19.2 8.3999 19.2H15.5999C16.2639 19.2 16.7999 18.664 16.7999 18V5.99999C16.7999 5.33599 16.2639 4.79999 15.5999 4.79999ZM15.1999 17.6H8.7999V6.39999H15.1999V17.6Z" fill="#808080"/>
</svg>
