<svg width="24" height="24" viewBox="0 0 24 24" fill="none" xmlns="http://www.w3.org/2000/svg">
<path fill-rule="evenodd" clip-rule="evenodd" d="M19.2 7.19995H4.79995C3.91995 7.19995 3.19995 7.91995 3.19995 8.79995V15.2C3.19995 16.08 3.91995 16.8 4.79995 16.8H19.2C20.08 16.8 20.8 16.08 20.8 15.2V8.79995C20.8 7.91995 20.08 7.19995 19.2 7.19995ZM10.4 12.8H8.79995V14.4C8.79995 14.84 8.43995 15.2 7.99995 15.2C7.55995 15.2 7.19995 14.84 7.19995 14.4V12.8H5.59995C5.15995 12.8 4.79995 12.44 4.79995 12C4.79995 11.56 5.15995 11.2 5.59995 11.2H7.19995V9.59995C7.19995 9.15995 7.55995 8.79995 7.99995 8.79995C8.43995 8.79995 8.79995 9.15995 8.79995 9.59995V11.2H10.4C10.84 11.2 11.2 11.56 11.2 12C11.2 12.44 10.84 12.8 10.4 12.8ZM14.8 14.4C14.136 14.4 13.6 13.864 13.6 13.2C13.6 12.536 14.136 12 14.8 12C15.464 12 16 12.536 16 13.2C16 13.864 15.464 14.4 14.8 14.4ZM18 12C17.336 12 16.8 11.464 16.8 10.8C16.8 10.136 17.336 9.59995 18 9.59995C18.664 9.59995 19.2 10.136 19.2 10.8C19.2 11.464 18.664 12 18 12Z" fill="#808080"/>
</svg>
