<svg width="24" height="24" viewBox="0 0 24 24" fill="none" xmlns="http://www.w3.org/2000/svg">
<path fill-rule="evenodd" clip-rule="evenodd" d="M19.666 14.346V10.114C19.666 9.40198 18.802 9.04198 18.298 9.54598L16.466 11.386V8.58598C16.466 8.14598 16.106 7.78598 15.666 7.78598H11.178L18.306 14.914C18.802 15.418 19.666 15.058 19.666 14.346ZM5.03405 5.03398C4.72205 5.34598 4.72205 5.84998 5.03405 6.16198L6.65005 7.78598H6.06605C5.62605 7.78598 5.26605 8.14598 5.26605 8.58598V16.586C5.26605 17.026 5.62605 17.386 6.06605 17.386H15.666C15.834 17.386 15.978 17.322 16.106 17.242L18.09 19.226C18.402 19.538 18.906 19.538 19.218 19.226C19.53 18.914 19.53 18.41 19.218 18.098L6.16205 5.03398C6.01258 4.88417 5.80966 4.79999 5.59805 4.79999C5.38643 4.79999 5.18351 4.88417 5.03405 5.03398Z" fill="#808080"/>
</svg>
