<svg width="24" height="24" viewBox="0 0 24 24" fill="none" xmlns="http://www.w3.org/2000/svg">
<path fill-rule="evenodd" clip-rule="evenodd" d="M16 10.8V8.00001C16 7.56001 15.64 7.20001 15.2 7.20001H5.59999C5.15999 7.20001 4.79999 7.56001 4.79999 8.00001V16C4.79999 16.44 5.15999 16.8 5.59999 16.8H15.2C15.64 16.8 16 16.44 16 16V13.2L17.832 15.032C18.336 15.536 19.2 15.176 19.2 14.464V9.52801C19.2 8.81601 18.336 8.45601 17.832 8.96001L16 10.8ZM12.8 12.8H11.2V14.4C11.2 14.84 10.84 15.2 10.4 15.2C9.95999 15.2 9.59999 14.84 9.59999 14.4V12.8H7.99999C7.55999 12.8 7.19999 12.44 7.19999 12C7.19999 11.56 7.55999 11.2 7.99999 11.2H9.59999V9.60001C9.59999 9.16001 9.95999 8.80001 10.4 8.80001C10.84 8.80001 11.2 9.16001 11.2 9.60001V11.2H12.8C13.24 11.2 13.6 11.56 13.6 12C13.6 12.44 13.24 12.8 12.8 12.8Z" fill="#808080"/>
</svg>
