<svg width="24" height="24" viewBox="0 0 24 24" fill="none" xmlns="http://www.w3.org/2000/svg">
<path fill-rule="evenodd" clip-rule="evenodd" d="M4.80005 9.60002H8.00005V6.40002H6.40005C5.52005 6.40002 4.80005 7.12002 4.80005 8.00002V9.60002ZM4.80005 13.6H8.00005V10.4H4.80005V13.6ZM8.80005 13.6H12V10.4H8.80005V13.6ZM12.8 13.6H16V10.4H12.8V13.6ZM8.80005 9.60002H12V6.40002H8.80005V9.60002ZM12.8 6.40002V9.60002H16V6.40002H12.8ZM16.8 13.6H20V10.4H16.8V13.6ZM6.40005 17.6H8.00005V14.4H4.80005V16C4.80005 16.88 5.52005 17.6 6.40005 17.6ZM8.80005 17.6H12V14.4H8.80005V17.6ZM12.8 17.6H16V14.4H12.8V17.6ZM16.8 17.6H18.4C19.28 17.6 20 16.88 20 16V14.4H16.8V17.6ZM16.8 6.40002V9.60002H20V8.00002C20 7.12002 19.28 6.40002 18.4 6.40002H16.8Z" fill="#808080"/>
</svg>
