<svg width="24" height="24" viewBox="0 0 24 24" fill="none" xmlns="http://www.w3.org/2000/svg">
<path fill-rule="evenodd" clip-rule="evenodd" d="M6.40001 17.6H7.20001C7.64001 17.6 8.00001 17.24 8.00001 16.8V7.99995C8.00001 7.55995 7.64001 7.19995 7.20001 7.19995H6.40001C5.96001 7.19995 5.60001 7.55995 5.60001 7.99995V16.8C5.60001 17.24 5.96001 17.6 6.40001 17.6ZM16.8 7.99995V16.8C16.8 17.24 17.16 17.6 17.6 17.6H18.4C18.84 17.6 19.2 17.24 19.2 16.8V7.99995C19.2 7.55995 18.84 7.19995 18.4 7.19995H17.6C17.16 7.19995 16.8 7.55995 16.8 7.99995ZM9.60001 17.6H15.2C15.64 17.6 16 17.24 16 16.8V7.99995C16 7.55995 15.64 7.19995 15.2 7.19995H9.60001C9.16001 7.19995 8.80001 7.55995 8.80001 7.99995V16.8C8.80001 17.24 9.16001 17.6 9.60001 17.6Z" fill="#808080"/>
</svg>
