<svg width="24" height="24" viewBox="0 0 24 24" fill="none" xmlns="http://www.w3.org/2000/svg">
<path fill-rule="evenodd" clip-rule="evenodd" d="M6.39998 17.6H18.4C18.84 17.6 19.2 17.24 19.2 16.8V13.6C19.2 13.16 18.84 12.8 18.4 12.8H6.39998C5.95998 12.8 5.59998 13.16 5.59998 13.6V16.8C5.59998 17.24 5.95998 17.6 6.39998 17.6ZM5.59998 7.99995V11.2C5.59998 11.64 5.95998 12 6.39998 12H18.4C18.84 12 19.2 11.64 19.2 11.2V7.99995C19.2 7.55995 18.84 7.19995 18.4 7.19995H6.39998C5.95998 7.19995 5.59998 7.55995 5.59998 7.99995Z" fill="#808080"/>
</svg>
