<svg width="24" height="24" viewBox="0 0 24 24" fill="none" xmlns="http://www.w3.org/2000/svg">
<path fill-rule="evenodd" clip-rule="evenodd" d="M8 6.40002H5.6C5.16 6.40002 4.8 6.76002 4.8 7.20002V16.8C4.8 17.24 5.16 17.6 5.6 17.6H8C8.44 17.6 8.8 17.24 8.8 16.8V7.20002C8.8 6.76002 8.44 6.40002 8 6.40002ZM19.2 6.40002H16.8C16.36 6.40002 16 6.76002 16 7.20002V16.8C16 17.24 16.36 17.6 16.8 17.6H19.2C19.64 17.6 20 17.24 20 16.8V7.20002C20 6.76002 19.64 6.40002 19.2 6.40002ZM13.6 6.40002H11.2C10.76 6.40002 10.4 6.76002 10.4 7.20002V16.8C10.4 17.24 10.76 17.6 11.2 17.6H13.6C14.04 17.6 14.4 17.24 14.4 16.8V7.20002C14.4 6.76002 14.04 6.40002 13.6 6.40002Z" fill="#808080"/>
</svg>
