<svg width="24" height="24" viewBox="0 0 24 24" fill="none" xmlns="http://www.w3.org/2000/svg">
<path fill-rule="evenodd" clip-rule="evenodd" d="M18.4 13.6H6.39998C5.95998 13.6 5.59998 13.36 5.59998 13.0666V10.9333C5.59998 10.64 5.95998 10.4 6.39998 10.4H18.4C18.84 10.4 19.2 10.64 19.2 10.9333V13.0666C19.2 13.36 18.84 13.6 18.4 13.6ZM5.59998 8.26664V6.13331C5.59998 5.83998 5.95998 5.59998 6.39998 5.59998H18.4C18.84 5.59998 19.2 5.83998 19.2 6.13331V8.26664C19.2 8.55998 18.84 8.79998 18.4 8.79998H6.39998C5.95998 8.79998 5.59998 8.55998 5.59998 8.26664ZM18.4 18.4H6.39998C5.95998 18.4 5.59998 18.16 5.59998 17.8666V15.7333C5.59998 15.44 5.95998 15.2 6.39998 15.2H18.4C18.84 15.2 19.2 15.44 19.2 15.7333V17.8666C19.2 18.16 18.84 18.4 18.4 18.4Z" fill="#808080"/>
</svg>
