<svg width="24" height="24" viewBox="0 0 24 24" fill="none" xmlns="http://www.w3.org/2000/svg">
<path fill-rule="evenodd" clip-rule="evenodd" d="M6.40001 13.6H8.00001C8.44001 13.6 8.80001 13.24 8.80001 12.8V11.2C8.80001 10.76 8.44001 10.4 8.00001 10.4H6.40001C5.96001 10.4 5.60001 10.76 5.60001 11.2V12.8C5.60001 13.24 5.96001 13.6 6.40001 13.6ZM6.40001 17.6H8.00001C8.44001 17.6 8.80001 17.24 8.80001 16.8V15.2C8.80001 14.76 8.44001 14.4 8.00001 14.4H6.40001C5.96001 14.4 5.60001 14.76 5.60001 15.2V16.8C5.60001 17.24 5.96001 17.6 6.40001 17.6ZM6.40001 9.60002H8.00001C8.44001 9.60002 8.80001 9.24002 8.80001 8.80002V7.20002C8.80001 6.76002 8.44001 6.40002 8.00001 6.40002H6.40001C5.96001 6.40002 5.60001 6.76002 5.60001 7.20002V8.80002C5.60001 9.24002 5.96001 9.60002 6.40001 9.60002ZM10.4 13.6H18.4C18.84 13.6 19.2 13.24 19.2 12.8V11.2C19.2 10.76 18.84 10.4 18.4 10.4H10.4C9.96001 10.4 9.60001 10.76 9.60001 11.2V12.8C9.60001 13.24 9.96001 13.6 10.4 13.6ZM10.4 17.6H18.4C18.84 17.6 19.2 17.24 19.2 16.8V15.2C19.2 14.76 18.84 14.4 18.4 14.4H10.4C9.96001 14.4 9.60001 14.76 9.60001 15.2V16.8C9.60001 17.24 9.96001 17.6 10.4 17.6ZM9.60001 7.20002V8.80002C9.60001 9.24002 9.96001 9.60002 10.4 9.60002H18.4C18.84 9.60002 19.2 9.24002 19.2 8.80002V7.20002C19.2 6.76002 18.84 6.40002 18.4 6.40002H10.4C9.96001 6.40002 9.60001 6.76002 9.60001 7.20002Z" fill="#808080"/>
</svg>
