<svg width="24" height="24" viewBox="0 0 24 24" fill="none" xmlns="http://www.w3.org/2000/svg">
<path fill-rule="evenodd" clip-rule="evenodd" d="M11.2 17.6H13.6C14.04 17.6 14.4 17.24 14.4 16.8V13.6C14.4 13.16 14.04 12.8 13.6 12.8H11.2C10.76 12.8 10.4 13.16 10.4 13.6V16.8C10.4 17.24 10.76 17.6 11.2 17.6ZM6.40001 17.6H8.80001C9.24001 17.6 9.60001 17.24 9.60001 16.8V7.99995C9.60001 7.55995 9.24001 7.19995 8.80001 7.19995H6.40001C5.96001 7.19995 5.60001 7.55995 5.60001 7.99995V16.8C5.60001 17.24 5.96001 17.6 6.40001 17.6ZM16 17.6H18.4C18.84 17.6 19.2 17.24 19.2 16.8V13.6C19.2 13.16 18.84 12.8 18.4 12.8H16C15.56 12.8 15.2 13.16 15.2 13.6V16.8C15.2 17.24 15.56 17.6 16 17.6ZM10.4 7.99995V11.2C10.4 11.64 10.76 12 11.2 12H18.4C18.84 12 19.2 11.64 19.2 11.2V7.99995C19.2 7.55995 18.84 7.19995 18.4 7.19995H11.2C10.76 7.19995 10.4 7.55995 10.4 7.99995Z" fill="#808080"/>
</svg>
