<svg width="24" height="24" viewBox="0 0 24 24" fill="none" xmlns="http://www.w3.org/2000/svg">
<path fill-rule="evenodd" clip-rule="evenodd" d="M8.8 18.4H15.2C15.64 18.4 16 18.04 16 17.6V7.20002C16 6.76002 15.64 6.40002 15.2 6.40002H8.8C8.36 6.40002 8 6.76002 8 7.20002V17.6C8 18.04 8.36 18.4 8.8 18.4ZM4.8 16.8H6.4C6.84 16.8 7.2 16.44 7.2 16V8.80002C7.2 8.36002 6.84 8.00002 6.4 8.00002H4.8C4.36 8.00002 4 8.36002 4 8.80002V16C4 16.44 4.36 16.8 4.8 16.8ZM16.8 8.80002V16C16.8 16.44 17.16 16.8 17.6 16.8H19.2C19.64 16.8 20 16.44 20 16V8.80002C20 8.36002 19.64 8.00002 19.2 8.00002H17.6C17.16 8.00002 16.8 8.36002 16.8 8.80002Z" fill="#808080"/>
</svg>
