<svg width="24" height="24" viewBox="0 0 24 24" fill="none" xmlns="http://www.w3.org/2000/svg">
<path fill-rule="evenodd" clip-rule="evenodd" d="M5.59999 19.2H19.2C19.64 19.2 20 18.84 20 18.4V17.6C20 17.16 19.64 16.8 19.2 16.8H5.59999C5.15999 16.8 4.79999 17.16 4.79999 17.6V18.4C4.79999 18.84 5.15999 19.2 5.59999 19.2ZM19.2 8.80005H5.59999C5.15999 8.80005 4.79999 9.16005 4.79999 9.60005V14.4C4.79999 14.84 5.15999 15.2 5.59999 15.2H19.2C19.64 15.2 20 14.84 20 14.4V9.60005C20 9.16005 19.64 8.80005 19.2 8.80005ZM4.79999 5.60005V6.40005C4.79999 6.84005 5.15999 7.20005 5.59999 7.20005H19.2C19.64 7.20005 20 6.84005 20 6.40005V5.60005C20 5.16005 19.64 4.80005 19.2 4.80005H5.59999C5.15999 4.80005 4.79999 5.16005 4.79999 5.60005Z" fill="#808080"/>
</svg>
