<svg width="24" height="24" viewBox="0 0 24 24" fill="none" xmlns="http://www.w3.org/2000/svg">
<path fill-rule="evenodd" clip-rule="evenodd" d="M12 7.70605C14.208 7.70605 16 9.49805 16 11.706C16 12.114 15.92 12.506 15.808 12.874L18.256 15.322C19.368 14.338 20.248 13.106 20.8 11.698C19.416 8.19405 16 5.70605 12 5.70605C10.984 5.70605 10.008 5.86605 9.088 6.16205L10.824 7.89805C11.2 7.78605 11.592 7.70605 12 7.70605ZM4.568 5.03405C4.256 5.34605 4.256 5.85005 4.568 6.16205L6.144 7.73805C4.848 8.77005 3.816 10.13 3.2 11.706C4.584 15.218 8 17.706 12 17.706C13.216 17.706 14.376 17.466 15.448 17.05L17.624 19.226C17.936 19.538 18.44 19.538 18.752 19.226C19.064 18.914 19.064 18.41 18.752 18.098L5.704 5.03405C5.392 4.72205 4.88 4.72205 4.568 5.03405ZM12 15.706C9.792 15.706 8 13.914 8 11.706C8 11.09 8.144 10.506 8.392 9.99405L9.648 11.25C9.624 11.394 9.6 11.546 9.6 11.706C9.6 13.034 10.672 14.106 12 14.106C12.16 14.106 12.304 14.082 12.456 14.05L13.712 15.306C13.192 15.562 12.616 15.706 12 15.706ZM14.376 11.442C14.256 10.322 13.376 9.45005 12.264 9.33005L14.376 11.442Z" fill="#808080"/>
</svg>
