<svg width="24" height="24" viewBox="0 0 24 24" fill="none" xmlns="http://www.w3.org/2000/svg">
<path fill-rule="evenodd" clip-rule="evenodd" d="M17.2 8C14.768 8 12.8 9.968 12.8 12.4C12.8 13.464 13.176 14.44 13.808 15.2H10.192C10.824 14.44 11.2 13.464 11.2 12.4C11.2 9.968 9.23202 8 6.80002 8C4.36802 8 2.40002 9.968 2.40002 12.4C2.40002 14.832 4.36802 16.8 6.80002 16.8H17.2C19.632 16.8 21.6 14.832 21.6 12.4C21.6 9.968 19.632 8 17.2 8ZM6.80002 15.2C5.25602 15.2 4.00002 13.944 4.00002 12.4C4.00002 10.856 5.25602 9.6 6.80002 9.6C8.34402 9.6 9.60002 10.856 9.60002 12.4C9.60002 13.944 8.34402 15.2 6.80002 15.2ZM17.2 15.2C15.656 15.2 14.4 13.944 14.4 12.4C14.4 10.856 15.656 9.6 17.2 9.6C18.744 9.6 20 10.856 20 12.4C20 13.944 18.744 15.2 17.2 15.2Z" fill="#808080"/>
</svg>
