<svg width="24" height="24" viewBox="0 0 24 24" fill="none" xmlns="http://www.w3.org/2000/svg">
<path fill-rule="evenodd" clip-rule="evenodd" d="M14.976 7.88834C14.696 8.16834 14.624 8.59234 14.776 8.96834C15.016 9.56834 15.032 10.2323 14.816 10.8403C14.688 11.2083 14.768 11.6243 15.048 11.8963C15.528 12.3763 16.376 12.2723 16.664 11.6483C17.176 10.5363 17.144 9.25634 16.568 8.12034C16.248 7.52034 15.44 7.41634 14.976 7.88834ZM17.744 5.07234C17.424 5.39234 17.376 5.88834 17.64 6.25634C19.184 8.40034 19.2 11.2563 17.712 13.5123C17.464 13.8803 17.528 14.3763 17.84 14.6883C18.248 15.0963 18.944 15.0563 19.288 14.5843C21.344 11.7763 21.304 8.02434 19.152 5.16834C18.808 4.72034 18.144 4.67234 17.744 5.07234ZM9.94401 6.79234L12.768 9.61634C12.608 8.12834 11.432 6.95234 9.94401 6.79234ZM5.36801 5.60834C5.05601 5.92034 5.05601 6.42434 5.36801 6.73634L6.89601 8.26434C6.44801 8.97634 6.26401 9.87234 6.52001 10.8243C6.80801 11.8883 7.67201 12.7443 8.73601 13.0403C9.68801 13.3043 10.584 13.1123 11.296 12.6643L14.816 16.1843C13.392 15.2403 11.024 14.7603 9.60001 14.7603C7.46401 14.7603 3.20001 15.8323 3.20001 17.9603V18.7603C3.20001 19.2003 3.56001 19.5603 4.00001 19.5603H15.2C15.64 19.5603 16 19.2003 16 18.7603V17.9603C16 17.6643 15.912 17.4003 15.768 17.1443L17.616 18.9923C17.928 19.3043 18.432 19.3043 18.744 18.9923C19.056 18.6803 19.056 18.1763 18.744 17.8643L6.49601 5.60834C6.34655 5.45854 6.14363 5.37435 5.93201 5.37435C5.7204 5.37435 5.51748 5.45854 5.36801 5.60834Z" fill="#808080"/>
</svg>
