<svg width="24" height="24" viewBox="0 0 24 24" fill="none" xmlns="http://www.w3.org/2000/svg">
<path fill-rule="evenodd" clip-rule="evenodd" d="M18.4 4H5.6C4.72 4 4.008 4.72 4.008 5.6L4 20L7.2 16.8H18.4C19.28 16.8 20 16.08 20 15.2V5.6C20 4.72 19.28 4 18.4 4ZM15.504 12.56L13.6 11.04V12.8C13.6 13.24 13.24 13.6 12.8 13.6H8C7.56 13.6 7.2 13.24 7.2 12.8V8C7.2 7.56 7.56 7.2 8 7.2H12.8C13.24 7.2 13.6 7.56 13.6 8V9.76L15.504 8.24C16.024 7.824 16.8 8.192 16.8 8.864V11.936C16.8 12.608 16.024 12.976 15.504 12.56Z" fill="#808080"/>
</svg>
