<svg width="24" height="24" viewBox="0 0 24 24" fill="none" xmlns="http://www.w3.org/2000/svg">
<path fill-rule="evenodd" clip-rule="evenodd" d="M4.79999 10.7688V13.9688C4.79999 14.4088 5.15999 14.7688 5.59999 14.7688H7.99999L10.632 17.4008C11.136 17.9048 12 17.5448 12 16.8328V7.89679C12 7.18479 11.136 6.82479 10.632 7.32879L7.99999 9.96879H5.59999C5.15999 9.96879 4.79999 10.3288 4.79999 10.7688ZM15.6 12.3688C15.6 10.9528 14.784 9.73679 13.6 9.14479V15.5848C14.784 15.0008 15.6 13.7848 15.6 12.3688ZM13.6 6.32879V6.48879C13.6 6.79279 13.8 7.05679 14.08 7.16879C16.144 7.99279 17.6 10.0168 17.6 12.3688C17.6 14.7208 16.144 16.7448 14.08 17.5688C13.792 17.6808 13.6 17.9448 13.6 18.2488V18.4088C13.6 18.9128 14.104 19.2648 14.568 19.0888C17.28 18.0568 19.2 15.4408 19.2 12.3688C19.2 9.29679 17.28 6.68079 14.568 5.64879C14.104 5.46479 13.6 5.82479 13.6 6.32879Z" fill="#808080"/>
</svg>
