<svg width="24" height="24" viewBox="0 0 24 24" fill="none" xmlns="http://www.w3.org/2000/svg">
<path fill-rule="evenodd" clip-rule="evenodd" d="M5.30399 5.03399C4.99199 5.34599 4.99199 5.84999 5.30399 6.16199L8.23199 9.08999L7.99999 9.32999H5.59999C5.15999 9.32999 4.79999 9.68999 4.79999 10.13V13.33C4.79999 13.77 5.15999 14.13 5.59999 14.13H7.99999L10.632 16.762C11.136 17.266 12 16.906 12 16.194V12.858L15.344 16.202C14.952 16.498 14.528 16.746 14.064 16.93C13.776 17.05 13.6 17.354 13.6 17.666C13.6 18.242 14.184 18.61 14.712 18.394C15.352 18.13 15.952 17.778 16.488 17.346L17.56 18.418C17.872 18.73 18.376 18.73 18.688 18.418C19 18.106 19 17.602 18.688 17.29L6.43999 5.03399C6.12799 4.72199 5.62399 4.72199 5.30399 5.03399ZM17.6 11.73C17.6 12.386 17.48 13.018 17.272 13.602L18.496 14.826C18.944 13.89 19.2 12.842 19.2 11.73C19.2 8.66599 17.28 6.04199 14.576 5.00999C14.104 4.82599 13.6 5.19399 13.6 5.69799V5.84999C13.6 6.15399 13.8 6.41799 14.088 6.52999C16.144 7.36199 17.6 9.37799 17.6 11.73ZM10.632 6.69799L10.496 6.83399L12 8.33799V7.25799C12 6.54599 11.136 6.19399 10.632 6.69799ZM15.6 11.73C15.6 10.314 14.784 9.09799 13.6 8.50599V9.93799L15.584 11.922C15.592 11.858 15.6 11.794 15.6 11.73Z" fill="#808080"/>
</svg>
