<svg width="24" height="24" viewBox="0 0 24 24" fill="none" xmlns="http://www.w3.org/2000/svg">
<path fill-rule="evenodd" clip-rule="evenodd" d="M12.5186 10.4016C11.7586 8.24961 9.5186 6.80161 7.0146 7.29761C5.1826 7.66561 3.6946 9.12961 3.3106 10.9616C2.6546 14.0576 5.0066 16.8016 7.9986 16.8016C10.0866 16.8016 11.8626 15.4656 12.5186 13.6016H15.9986V15.2016C15.9986 16.0816 16.7186 16.8016 17.5986 16.8016C18.4786 16.8016 19.1986 16.0816 19.1986 15.2016V13.6016C20.0786 13.6016 20.7986 12.8816 20.7986 12.0016C20.7986 11.1216 20.0786 10.4016 19.1986 10.4016H12.5186ZM7.9986 13.6016C7.1186 13.6016 6.3986 12.8816 6.3986 12.0016C6.3986 11.1216 7.1186 10.4016 7.9986 10.4016C8.8786 10.4016 9.5986 11.1216 9.5986 12.0016C9.5986 12.8816 8.8786 13.6016 7.9986 13.6016Z" fill="#808080"/>
</svg>
