<svg width="24" height="24" viewBox="0 0 24 24" fill="none" xmlns="http://www.w3.org/2000/svg">
<path fill-rule="evenodd" clip-rule="evenodd" d="M17.536 12C17.568 12.264 17.6 12.528 17.6 12.8C17.6 14.464 16.96 15.976 15.92 17.112C15.712 16.464 15.12 16 14.4 16H13.6V13.6C13.6 13.16 13.24 12.8 12.8 12.8H7.99995V11.2H9.59995C10.04 11.2 10.4 10.84 10.4 10.4V8.80001H12C12.88 8.80001 13.6 8.08001 13.6 7.20001V5.16801C12.84 4.92801 12.04 4.80001 11.2 4.80001C6.78395 4.80001 3.19995 8.38401 3.19995 12.8C3.19995 17.216 6.78395 20.8 11.2 20.8C15.616 20.8 19.2 17.216 19.2 12.8C19.2 12.528 19.184 12.264 19.16 12H17.536ZM10.4 19.144C7.23995 18.752 4.79995 16.064 4.79995 12.8C4.79995 12.304 4.86395 11.832 4.96795 11.368L8.79995 15.2V16C8.79995 16.88 9.51995 17.6 10.4 17.6V19.144ZM20 5.60001V5.20001C20 4.09601 19.104 3.20001 18 3.20001C16.896 3.20001 16 4.09601 16 5.20001V5.60001C15.56 5.60001 15.2 5.96001 15.2 6.40001V9.60001C15.2 10.04 15.56 10.4 16 10.4H20C20.44 10.4 20.8 10.04 20.8 9.60001V6.40001C20.8 5.96001 20.44 5.60001 20 5.60001ZM19.2 5.60001H16.8V5.20001C16.8 4.53601 17.336 4.00001 18 4.00001C18.664 4.00001 19.2 4.53601 19.2 5.20001V5.60001Z" fill="#808080"/>
</svg>
