<svg width="24" height="24" viewBox="0 0 24 24" fill="none" xmlns="http://www.w3.org/2000/svg">
<path fill-rule="evenodd" clip-rule="evenodd" d="M5.6 6.4C5.6 5.96 5.96 5.6 6.4 5.6H10.4C10.84 5.6 11.2 5.24 11.2 4.8C11.2 4.36 10.84 4 10.4 4H5.6C4.72 4 4 4.72 4 5.6V10.4C4 10.84 4.36 11.2 4.8 11.2C5.24 11.2 5.6 10.84 5.6 10.4V6.4ZM10.088 13.192L7.72 16.152C7.512 16.416 7.696 16.8 8.032 16.8H16C16.328 16.8 16.52 16.424 16.32 16.16L14.72 14.024C14.56 13.808 14.24 13.808 14.08 14.024L12.776 15.768L10.712 13.192C10.552 12.992 10.248 12.992 10.088 13.192ZM16 9.2C16 8.536 15.464 8 14.8 8C14.136 8 13.6 8.536 13.6 9.2C13.6 9.864 14.136 10.4 14.8 10.4C15.464 10.4 16 9.864 16 9.2ZM18.4 4H13.6C13.16 4 12.8 4.36 12.8 4.8C12.8 5.24 13.16 5.6 13.6 5.6H17.6C18.04 5.6 18.4 5.96 18.4 6.4V10.4C18.4 10.84 18.76 11.2 19.2 11.2C19.64 11.2 20 10.84 20 10.4V5.6C20 4.72 19.28 4 18.4 4ZM18.4 17.6C18.4 18.04 18.04 18.4 17.6 18.4H13.6C13.16 18.4 12.8 18.76 12.8 19.2C12.8 19.64 13.16 20 13.6 20H18.4C19.28 20 20 19.28 20 18.4V13.6C20 13.16 19.64 12.8 19.2 12.8C18.76 12.8 18.4 13.16 18.4 13.6V17.6ZM4.8 12.8C4.36 12.8 4 13.16 4 13.6V18.4C4 19.28 4.72 20 5.6 20H10.4C10.84 20 11.2 19.64 11.2 19.2C11.2 18.76 10.84 18.4 10.4 18.4H6.4C5.96 18.4 5.6 18.04 5.6 17.6V13.6C5.6 13.16 5.24 12.8 4.8 12.8Z" fill="#808080"/>
</svg>
