<svg width="24" height="24" viewBox="0 0 24 24" fill="none" xmlns="http://www.w3.org/2000/svg">
<path fill-rule="evenodd" clip-rule="evenodd" d="M11.6251 6.398L17.6491 16.806H5.6011L11.6251 6.398ZM4.2171 16.006C3.6011 17.07 4.3691 18.406 5.6011 18.406H17.6491C18.8811 18.406 19.6491 17.07 19.0331 16.006L13.0091 5.598C12.3931 4.534 10.8571 4.534 10.2411 5.598L4.2171 16.006ZM10.8251 10.406V12.006C10.8251 12.446 11.1851 12.806 11.6251 12.806C12.0651 12.806 12.4251 12.446 12.4251 12.006V10.406C12.4251 9.966 12.0651 9.606 11.6251 9.606C11.1851 9.606 10.8251 9.966 10.8251 10.406ZM10.8251 14.406H12.4251V16.006H10.8251V14.406Z" fill="#808080"/>
</svg>
