<svg width="24" height="24" viewBox="0 0 24 24" fill="none" xmlns="http://www.w3.org/2000/svg">
<path fill-rule="evenodd" clip-rule="evenodd" d="M18.4001 12C18.4001 9.96802 17.4481 8.15202 15.9681 6.98402L15.4241 3.73602C15.2961 2.96802 14.6241 2.40002 13.8481 2.40002H10.1601C9.3761 2.40002 8.7041 2.96802 8.5761 3.73602L8.0401 6.98402C6.5521 8.15202 5.6001 9.96002 5.6001 12C5.6001 14.04 6.5521 15.848 8.0401 17.016L8.5761 20.264C8.7041 21.032 9.3761 21.6 10.1601 21.6H13.8481C14.6321 21.6 15.2961 21.032 15.4241 20.264L15.9681 17.016C17.4481 15.848 18.4001 14.032 18.4001 12ZM7.2001 12C7.2001 9.35202 9.3521 7.20002 12.0001 7.20002C14.6481 7.20002 16.8001 9.35202 16.8001 12C16.8001 14.648 14.6481 16.8 12.0001 16.8C9.3521 16.8 7.2001 14.648 7.2001 12Z" fill="#808080"/>
</svg>
