<svg width="24" height="24" viewBox="0 0 24 24" fill="none" xmlns="http://www.w3.org/2000/svg">
<path fill-rule="evenodd" clip-rule="evenodd" d="M6.2305 11.1292L5.05171 15.5H3.37326L1.54443 8.5H3.38296L4.32891 13.2297H4.36772L5.53681 8.5H6.96301L8.1321 13.2297H8.17091L9.11685 8.5H10.9554L9.12655 15.5H7.44811L6.26931 11.1292H6.2305ZM14.3405 13.9622L14.7819 15.5H16.6738L14.3211 8.5H12.143L9.79023 15.5H11.6045L12.0508 13.9622H14.3405ZM12.3952 12.6816L13.1762 9.98441H13.215L13.9912 12.6816H12.3952ZM17.983 15.5H20.2241L22.4556 8.5H20.5055L19.1618 13.7585H19.123L17.7744 8.5H15.7515L17.983 15.5Z" fill="#808080"/>
</svg>
