<svg width="24" height="24" viewBox="0 0 24 24" fill="none" xmlns="http://www.w3.org/2000/svg">
<path fill-rule="evenodd" clip-rule="evenodd" d="M16 16.264C14.92 16.264 14.24 16.6 13.64 16.904C13.12 17.168 12.696 17.384 12 17.384C11.28 17.384 10.88 17.184 10.36 16.904C9.76 16.6 9.104 16.264 8 16.264C6.896 16.264 6.24 16.6 5.64 16.904C5.296 17.08 4.992 17.232 4.624 17.32C4.264 17.4 4 17.688 4 18.048V18.128C4 18.608 4.448 18.952 4.912 18.856C5.504 18.736 5.952 18.512 6.36 18.304C6.88 18.04 7.296 17.824 8 17.824C8.704 17.824 9.12 18.024 9.64 18.304C10.24 18.608 10.896 18.944 12 18.944C13.104 18.944 13.76 18.608 14.36 18.304C14.88 18.04 15.304 17.824 16 17.824C16.72 17.824 17.12 18.024 17.64 18.304C18.056 18.512 18.504 18.744 19.104 18.864C19.568 18.952 20 18.6 20 18.136V18.064C20 17.696 19.728 17.408 19.368 17.328C19 17.248 18.704 17.096 18.36 16.912C17.76 16.6 17.08 16.264 16 16.264ZM16 12.704C14.92 12.704 14.24 13.048 13.64 13.344C13.12 13.6 12.696 13.824 12 13.824C11.28 13.824 10.88 13.624 10.36 13.344C9.76 13.04 9.104 12.704 8 12.704C6.896 12.704 6.24 13.048 5.64 13.344C5.296 13.512 4.992 13.672 4.616 13.76C4.264 13.84 4 14.128 4 14.488V14.568C4 15.04 4.432 15.392 4.896 15.296C5.496 15.176 5.944 14.944 6.36 14.744C6.88 14.464 7.28 14.264 8 14.264C8.72 14.264 9.12 14.464 9.64 14.744C10.24 15.048 10.896 15.384 12 15.384C13.104 15.384 13.76 15.04 14.36 14.744C14.88 14.464 15.28 14.264 16 14.264C16.72 14.264 17.12 14.464 17.64 14.744C18.056 14.952 18.504 15.184 19.104 15.304C19.568 15.392 20 15.04 20 14.568V14.496C20 14.128 19.728 13.84 19.368 13.76C19 13.68 18.704 13.528 18.36 13.344C17.76 13.04 17.08 12.704 16 12.704ZM18.36 6.24001C17.76 5.93601 17.096 5.60001 16 5.60001C14.904 5.60001 14.24 5.93601 13.64 6.24001C13.12 6.49601 12.696 6.72001 12 6.72001C11.28 6.72001 10.88 6.52001 10.36 6.24001C9.76 5.94401 9.104 5.60001 8 5.60001C6.896 5.60001 6.24 5.93601 5.64 6.24001C5.296 6.41601 4.992 6.56801 4.624 6.65601C4.264 6.73601 4 7.02401 4 7.38401V7.44001C4 7.92001 4.432 8.27201 4.896 8.17601C5.496 8.05601 5.944 7.82401 6.36 7.62401C6.88 7.36001 7.296 7.14401 8 7.14401C8.704 7.14401 9.12 7.34401 9.64 7.62401C10.24 7.92801 10.896 8.26401 12 8.26401C13.104 8.26401 13.76 7.92001 14.36 7.62401C14.88 7.36801 15.304 7.14401 16 7.14401C16.72 7.14401 17.12 7.34401 17.64 7.62401C18.056 7.83201 18.504 8.06401 19.104 8.18401C19.568 8.27201 20 7.92001 20 7.44801V7.37601C20 7.00801 19.728 6.72001 19.368 6.64001C19 6.56001 18.704 6.41601 18.36 6.24001ZM16 9.14401C14.92 9.14401 14.24 9.48801 13.64 9.78401C13.12 10.064 12.72 10.264 12 10.264C11.28 10.264 10.88 10.064 10.36 9.78401C9.76 9.48001 9.104 9.14401 8 9.14401C6.896 9.14401 6.24 9.48801 5.64 9.78401C5.296 9.96801 5 10.12 4.632 10.2C4.272 10.28 4 10.568 4 10.936V11.008C4 11.48 4.432 11.832 4.896 11.736C5.496 11.616 5.944 11.384 6.36 11.184C6.88 10.928 7.304 10.704 8 10.704C8.696 10.704 9.12 10.904 9.64 11.184C10.24 11.488 10.896 11.824 12 11.824C13.104 11.824 13.76 11.48 14.36 11.184C14.88 10.928 15.304 10.704 16 10.704C16.72 10.704 17.12 10.904 17.64 11.184C18.056 11.392 18.504 11.624 19.104 11.744C19.568 11.832 20 11.48 20 11.016V10.944C20 10.576 19.728 10.288 19.368 10.208C19 10.128 18.704 9.97601 18.36 9.79201C17.76 9.48001 17.08 9.14401 16 9.14401Z" fill="#808080"/>
</svg>
