<svg width="24" height="24" viewBox="0 0 24 24" fill="none" xmlns="http://www.w3.org/2000/svg">
<path fill-rule="evenodd" clip-rule="evenodd" d="M7.8799 12.52H9.7199L8.7999 9.59998L7.8799 12.52ZM20.5759 7.99998C20.2399 7.99998 19.9599 8.23998 19.8959 8.55998L19.0399 13.032L17.9919 8.62398C17.9039 8.25598 17.5759 7.99998 17.1999 7.99998C16.8239 7.99998 16.4959 8.25598 16.4159 8.62398L15.3679 13.032L14.5119 8.55998C14.4479 8.23998 14.1599 7.99998 13.8319 7.99998C13.8239 7.99998 13.8079 8.00798 13.7999 8.00798C12.6239 6.54398 10.8239 5.59998 8.7999 5.59998C5.2639 5.59998 2.3999 8.46398 2.3999 12C2.3999 15.536 5.2639 18.4 8.7999 18.4C11.3359 18.4 13.5199 16.92 14.5599 14.784C14.7199 15.04 14.9999 15.2 15.3119 15.2C15.7199 15.2 16.0719 14.92 16.1679 14.528L17.1999 10.32L18.2319 14.528C18.3279 14.92 18.6879 15.2 19.0879 15.2C19.5039 15.2 19.8559 14.912 19.9519 14.512L21.2399 8.84798C21.3439 8.41598 21.0159 7.99998 20.5759 7.99998ZM11.1439 15.2C10.8399 15.2 10.5679 15.008 10.4719 14.72L10.0799 13.6H7.5199L7.1279 14.72C7.0239 15.008 6.7599 15.2 6.4559 15.2C5.9599 15.2 5.6159 14.712 5.7839 14.248L7.7359 8.75998C7.8959 8.30398 8.3199 7.99998 8.7999 7.99998C9.2799 7.99998 9.7039 8.30398 9.8719 8.75198L11.8239 14.24C11.9839 14.712 11.6399 15.2 11.1439 15.2Z" fill="#808080"/>
</svg>
