<svg width="24" height="24" viewBox="0 0 24 24" fill="none" xmlns="http://www.w3.org/2000/svg">
<path fill-rule="evenodd" clip-rule="evenodd" d="M7.2281 14.4H16.8281C17.2681 14.4 17.6281 14.04 17.6281 13.6V10.44C17.6281 10 17.2681 9.64001 16.8281 9.64001H7.2281C6.7881 9.64001 6.4281 10 6.4281 10.44V13.6C6.4281 14.04 6.7881 14.4 7.2281 14.4ZM11.2281 4.00001V4.84001C11.2281 5.28001 11.5881 5.60001 12.0281 5.60001C12.4681 5.60001 12.8281 5.28001 12.8281 4.84001V4.00001C12.8281 3.56001 12.4681 3.20001 12.0281 3.20001C11.5881 3.20001 11.2281 3.56001 11.2281 4.00001ZM17.1001 5.84001L16.7961 6.14401C16.4841 6.45601 16.4841 6.96001 16.7961 7.27201C17.1081 7.58401 17.6121 7.58401 17.9241 7.27201L18.2281 6.96801C18.5401 6.65601 18.5401 6.15201 18.2281 5.84001C18.0786 5.69021 17.8757 5.60602 17.6641 5.60602C17.4525 5.60602 17.2496 5.69021 17.1001 5.84001ZM12.8281 20V19.232C12.8281 18.792 12.4681 18.432 12.0281 18.432C11.5881 18.432 11.2281 18.792 11.2281 19.232V20C11.2281 20.44 11.5881 20.8 12.0281 20.8C12.4681 20.8 12.8281 20.44 12.8281 20ZM18.2201 17.112L17.9081 16.8C17.7586 16.6502 17.5557 16.566 17.3441 16.566C17.1325 16.566 16.9296 16.6502 16.7801 16.8C16.4681 17.112 16.4681 17.616 16.7801 17.928L17.0841 18.24C17.3961 18.552 17.9001 18.552 18.2121 18.24L18.2201 18.232C18.5321 17.928 18.5321 17.416 18.2201 17.112ZM5.8281 6.96801L6.1401 7.28001C6.4521 7.59201 6.9561 7.59201 7.2681 7.28001C7.5801 6.96801 7.5801 6.46401 7.2681 6.15201L6.9561 5.84001C6.80663 5.69021 6.60371 5.60602 6.3921 5.60602C6.18048 5.60602 5.97756 5.69021 5.8281 5.84001C5.5241 6.15201 5.5241 6.66401 5.8281 6.96801ZM6.9641 18.232L7.2681 17.928C7.5801 17.616 7.5801 17.112 7.2681 16.8C7.11863 16.6502 6.91571 16.566 6.7041 16.566C6.49248 16.566 6.28956 16.6502 6.1401 16.8L5.8361 17.104C5.5241 17.416 5.5241 17.92 5.8361 18.232C6.1401 18.544 6.6521 18.544 6.9641 18.232Z" fill="#808080"/>
</svg>
