<svg width="24" height="24" viewBox="0 0 24 24" fill="none" xmlns="http://www.w3.org/2000/svg">
<path fill-rule="evenodd" clip-rule="evenodd" d="M5.79995 18.192C6.11195 18.504 6.61595 18.504 6.92795 18.192L7.23995 17.88C7.55195 17.568 7.54395 17.064 7.23995 16.76L7.23195 16.752C7.08249 16.6022 6.87957 16.518 6.66795 16.518C6.45634 16.518 6.25342 16.6022 6.10395 16.752L5.79195 17.064C5.48795 17.384 5.48795 17.88 5.79995 18.192ZM11.992 20.76H12C12.44 20.76 12.792 20.408 12.792 19.968V19.2C12.792 18.76 12.44 18.408 12 18.408H11.992C11.552 18.408 11.2 18.76 11.2 19.2V19.968C11.2 20.408 11.552 20.76 11.992 20.76ZM4.80795 11.2H3.99195C3.55195 11.2 3.19995 11.552 3.19995 11.992V12C3.19995 12.44 3.55195 12.792 3.99195 12.792H4.79995C5.23995 12.792 5.59195 12.44 5.59195 12V11.992C5.59995 11.552 5.24795 11.2 4.80795 11.2ZM14.4 7.848V4.8C14.4 4.36 14.04 4 13.6 4H10.4C9.95995 4 9.59995 4.36 9.59995 4.8V7.848C7.96795 8.792 6.94395 10.664 7.25595 12.752C7.57595 14.84 9.30395 16.512 11.4 16.768C14.312 17.12 16.8 14.848 16.8 12.008C16.8 10.224 15.832 8.68 14.4 7.848ZM18.4 11.992V12C18.4 12.44 18.752 12.792 19.192 12.792H20C20.44 12.792 20.792 12.44 20.792 12V11.992C20.792 11.552 20.44 11.2 20 11.2H19.192C18.752 11.2 18.4 11.552 18.4 11.992ZM16.752 17.888L17.064 18.2C17.376 18.512 17.88 18.512 18.192 18.2C18.504 17.888 18.504 17.384 18.192 17.072L17.88 16.76C17.568 16.448 17.064 16.456 16.76 16.76C16.44 17.08 16.44 17.576 16.752 17.888Z" fill="#808080"/>
</svg>
