<svg width="24" height="24" viewBox="0 0 24 24" fill="none" xmlns="http://www.w3.org/2000/svg">
<path fill-rule="evenodd" clip-rule="evenodd" d="M7.23995 6.07201L6.92795 5.76001C6.61595 5.44801 6.11195 5.45601 5.80795 5.76001L5.79995 5.76801C5.48795 6.08001 5.48795 6.58401 5.79995 6.88801L6.11195 7.20001C6.42395 7.51201 6.91995 7.51201 7.23195 7.20001L7.23995 7.19201C7.55195 6.88801 7.55195 6.37601 7.23995 6.07201ZM4.80795 11.16H3.99195C3.55195 11.16 3.19995 11.512 3.19995 11.952V11.96C3.19995 12.4 3.55195 12.752 3.99195 12.752H4.79995C5.24795 12.76 5.59995 12.408 5.59995 11.968V11.96C5.59995 11.512 5.24795 11.16 4.80795 11.16ZM12.008 3.20001H12C11.552 3.20001 11.2 3.55201 11.2 3.99201V4.76001C11.2 5.20001 11.552 5.55201 11.992 5.55201H12C12.448 5.56001 12.8 5.20801 12.8 4.76801V3.99201C12.8 3.55201 12.448 3.20001 12.008 3.20001ZM18.2 5.76801C17.888 5.45601 17.384 5.45601 17.072 5.76001L16.76 6.07201C16.448 6.38401 16.448 6.88801 16.76 7.19201L16.768 7.20001C17.08 7.51201 17.584 7.51201 17.888 7.20001L18.2 6.88801C18.512 6.57601 18.512 6.08001 18.2 5.76801ZM16.752 17.848L17.064 18.16C17.376 18.472 17.88 18.472 18.192 18.16C18.504 17.848 18.504 17.344 18.192 17.032L17.88 16.72C17.568 16.408 17.064 16.416 16.76 16.72C16.44 17.04 16.44 17.536 16.752 17.848ZM18.4 11.952V11.96C18.4 12.4 18.752 12.752 19.192 12.752H20C20.44 12.752 20.792 12.4 20.792 11.96V11.952C20.792 11.512 20.44 11.16 20 11.16H19.192C18.752 11.16 18.4 11.512 18.4 11.952ZM12 7.16001C9.35195 7.16001 7.19995 9.31201 7.19995 11.96C7.19995 14.608 9.35195 16.76 12 16.76C14.648 16.76 16.8 14.608 16.8 11.96C16.8 9.31201 14.648 7.16001 12 7.16001ZM11.992 20.72H12C12.44 20.72 12.792 20.368 12.792 19.928V19.16C12.792 18.72 12.44 18.368 12 18.368H11.992C11.552 18.368 11.2 18.72 11.2 19.16V19.928C11.2 20.368 11.552 20.72 11.992 20.72ZM5.79995 18.152C6.11195 18.464 6.61595 18.464 6.92795 18.152L7.23995 17.84C7.55195 17.528 7.54395 17.024 7.23995 16.72L7.23195 16.712C7.08249 16.5622 6.87957 16.478 6.66795 16.478C6.45634 16.478 6.25342 16.5622 6.10395 16.712L5.79195 17.024C5.48795 17.344 5.48795 17.84 5.79995 18.152Z" fill="#808080"/>
</svg>
