<svg width="24" height="24" viewBox="0 0 24 24" fill="none" xmlns="http://www.w3.org/2000/svg">
<path fill-rule="evenodd" clip-rule="evenodd" d="M6.8001 19.2V14H6.4001C5.9601 14 5.6001 13.64 5.6001 13.2V9.6C5.6001 8.72 6.3201 8 7.2001 8H9.6001C10.4801 8 11.2001 8.72 11.2001 9.6V13.2C11.2001 13.64 10.8401 14 10.4001 14H10.0001V19.2C10.0001 19.64 9.6401 20 9.2001 20H7.6001C7.1601 20 6.8001 19.64 6.8001 19.2ZM16.8001 19.2V15.2H18.0881C18.6321 15.2 19.0161 14.664 18.8481 14.144L17.1681 9.096C16.9441 8.44 16.3361 8 15.6481 8H15.5521C14.8641 8 14.2481 8.44 14.0321 9.096L12.3521 14.144C12.1761 14.664 12.5601 15.2 13.1121 15.2H14.4001V19.2C14.4001 19.64 14.7601 20 15.2001 20H16.0001C16.4401 20 16.8001 19.64 16.8001 19.2ZM8.4001 7.2C9.2881 7.2 10.0001 6.488 10.0001 5.6C10.0001 4.712 9.2881 4 8.4001 4C7.5121 4 6.8001 4.712 6.8001 5.6C6.8001 6.488 7.5121 7.2 8.4001 7.2ZM15.6001 7.2C16.4881 7.2 17.2001 6.488 17.2001 5.6C17.2001 4.712 16.4881 4 15.6001 4C14.7121 4 14.0001 4.712 14.0001 5.6C14.0001 6.488 14.7121 7.2 15.6001 7.2Z" fill="#808080"/>
</svg>
