<svg width="24" height="24" viewBox="0 0 24 24" fill="none" xmlns="http://www.w3.org/2000/svg">
<path fill-rule="evenodd" clip-rule="evenodd" d="M19.2 10.4C18.32 10.4 17.6 11.12 17.6 12V14.4H6.39995V12C6.39995 11.12 5.67995 10.4 4.79995 10.4C3.91995 10.4 3.19995 11.12 3.19995 12V16C3.19995 16.88 3.91995 17.6 4.79995 17.6H19.2C20.08 17.6 20.8 16.88 20.8 16V12C20.8 11.12 20.08 10.4 19.2 10.4ZM16.8 6.39999H7.19995C6.31995 6.39999 5.59995 7.11999 5.59995 7.99999V9.71999C6.52795 10.048 7.19995 10.928 7.19995 11.976V13.6H16.8V11.976C16.8 10.936 17.472 10.056 18.4 9.71999V7.99999C18.4 7.11999 17.68 6.39999 16.8 6.39999Z" fill="#808080"/>
</svg>
