<svg width="24" height="24" viewBox="0 0 24 24" fill="none" xmlns="http://www.w3.org/2000/svg">
<path fill-rule="evenodd" clip-rule="evenodd" d="M16.0721 6.39318C15.5121 5.56918 14.8721 4.80118 14.1521 4.11318C13.8721 3.84118 13.4001 4.09718 13.4801 4.48118C13.6321 5.23318 13.7921 6.22518 13.7921 7.11318C13.7921 8.76118 12.7121 10.0972 11.0641 10.0972C9.8321 10.0972 8.8241 9.35318 8.3841 8.28918C8.3041 8.12918 8.2721 8.03318 8.2241 7.85718C8.1361 7.52118 7.6961 7.41718 7.5041 7.71318C7.3601 7.92918 7.2241 8.14518 7.0961 8.37718C6.1441 10.0092 5.6001 11.9132 5.6001 13.9452C5.6001 17.4812 8.4641 20.3452 12.0001 20.3452C15.5361 20.3452 18.4001 17.4812 18.4001 13.9452C18.4001 11.1532 17.5361 8.56118 16.0721 6.39318ZM11.7681 17.9452C10.3441 17.9452 9.1921 16.8252 9.1921 15.4332C9.1921 14.1372 10.0321 13.2252 11.4401 12.9372C12.6161 12.6972 13.8241 12.1932 14.6641 11.4012C14.8881 11.1932 15.2561 11.2892 15.3201 11.5852C15.5041 12.4012 15.6001 13.2492 15.6001 14.1052C15.6081 16.2252 13.8881 17.9452 11.7681 17.9452Z" fill="#808080"/>
</svg>
