<svg width="24" height="24" viewBox="0 0 24 24" fill="none" xmlns="http://www.w3.org/2000/svg">
<path fill-rule="evenodd" clip-rule="evenodd" d="M12 4C8.91202 4 6.40002 6.512 6.40002 9.6C6.40002 12.936 9.93602 17.536 11.384 19.288C11.704 19.672 12.288 19.672 12.608 19.288C14.064 17.536 17.6 12.936 17.6 9.6C17.6 6.512 15.088 4 12 4ZM15.448 8.928L11.344 13.032C11.032 13.344 10.528 13.344 10.216 13.032L8.56002 11.376C8.24802 11.064 8.24802 10.552 8.56002 10.24C8.87202 9.928 9.38402 9.928 9.69602 10.24L10.784 11.328L14.32 7.792C14.632 7.48 15.144 7.48 15.456 7.792C15.76 8.112 15.76 8.616 15.448 8.928Z" fill="#808080"/>
</svg>
