<svg width="24" height="24" viewBox="0 0 24 24" fill="none" xmlns="http://www.w3.org/2000/svg">
<path fill-rule="evenodd" clip-rule="evenodd" d="M12.8 14.314V19.114C12.8 19.554 13.16 19.914 13.6 19.914H18.4C18.84 19.914 19.2 19.554 19.2 19.114V14.314C19.2 13.874 18.84 13.514 18.4 13.514H13.6C13.16 13.514 12.8 13.874 12.8 14.314ZM5.60005 19.914H10.4C10.84 19.914 11.2 19.554 11.2 19.114V14.314C11.2 13.874 10.84 13.514 10.4 13.514H5.60005C5.16005 13.514 4.80005 13.874 4.80005 14.314V19.114C4.80005 19.554 5.16005 19.914 5.60005 19.914ZM4.80005 6.31399V11.114C4.80005 11.554 5.16005 11.914 5.60005 11.914H10.4C10.84 11.914 11.2 11.554 11.2 11.114V6.31399C11.2 5.87399 10.84 5.51399 10.4 5.51399H5.60005C5.16005 5.51399 4.80005 5.87399 4.80005 6.31399ZM15.16 5.03399L11.76 8.42599C11.448 8.73799 11.448 9.24199 11.76 9.55399L15.16 12.954C15.472 13.266 15.976 13.266 16.288 12.954L19.688 9.55399C20 9.24199 20 8.73799 19.688 8.42599L16.296 5.03399C15.984 4.72199 15.472 4.72199 15.16 5.03399Z" fill="#808080"/>
</svg>
