<svg width="24" height="24" viewBox="0 0 24 24" fill="none" xmlns="http://www.w3.org/2000/svg">
<path fill-rule="evenodd" clip-rule="evenodd" d="M4.33635 10.082C4.74435 10.49 5.39235 10.53 5.83235 10.162C9.56835 7.08998 14.9923 7.08998 18.7363 10.154C19.1843 10.522 19.8403 10.49 20.2483 10.082C20.7203 9.60998 20.6883 8.82598 20.1683 8.40198C15.6003 4.66598 8.99235 4.66598 4.41635 8.40198C3.89635 8.81798 3.85635 9.60198 4.33635 10.082ZM10.5443 16.29L11.7203 17.466C12.0323 17.778 12.5363 17.778 12.8483 17.466L14.0243 16.29C14.4003 15.914 14.3203 15.266 13.8403 15.018C12.8643 14.514 11.6963 14.514 10.7123 15.018C10.2563 15.266 10.1683 15.914 10.5443 16.29ZM7.56035 13.306C7.95235 13.698 8.56835 13.738 9.02435 13.41C10.9763 12.026 13.6003 12.026 15.5523 13.41C16.0083 13.73 16.6243 13.698 17.0163 13.306L17.0243 13.298C17.5043 12.818 17.4723 12.002 16.9203 11.61C14.1683 9.61798 10.4163 9.61798 7.65635 11.61C7.10435 12.01 7.07235 12.818 7.56035 13.306Z" fill="#808080"/>
</svg>
