<svg width="24" height="24" viewBox="0 0 24 24" fill="none" xmlns="http://www.w3.org/2000/svg">
<path fill-rule="evenodd" clip-rule="evenodd" d="M19.448 10.064L21.6 7.2C18.928 5.192 15.6 4 12 4C8.40002 4 5.07202 5.192 2.40002 7.2L10.72 18.296C11.36 19.152 12.64 19.152 13.28 18.296L14.8 16.272V14C14.8 11.792 16.592 10 18.8 10C19.024 10 19.24 10.032 19.448 10.064ZM20.8 15.2V14C20.8 12.896 19.904 12 18.8 12C17.696 12 16.8 12.896 16.8 14V15.2C16.36 15.2 16 15.56 16 16V19.2C16 19.64 16.36 20 16.8 20H20.8C21.24 20 21.6 19.64 21.6 19.2V16C21.6 15.56 21.24 15.2 20.8 15.2ZM20 15.2H17.6V14C17.6 13.336 18.136 12.8 18.8 12.8C19.464 12.8 20 13.336 20 14V15.2Z" fill="#808080"/>
</svg>
