<svg width="24" height="24" viewBox="0 0 24 24" fill="none" xmlns="http://www.w3.org/2000/svg">
<path fill-rule="evenodd" clip-rule="evenodd" d="M18.7332 11.274C19.1812 11.642 19.8372 11.61 20.2452 11.202C20.7172 10.73 20.6852 9.94598 20.1652 9.52198C17.2932 7.16998 13.6052 6.29798 10.1252 6.91398L12.1972 8.98598C14.5092 8.96198 16.8372 9.72198 18.7332 11.274ZM16.9172 12.738C16.2932 12.282 15.6132 11.938 14.9012 11.698L17.2612 14.058C17.4532 13.594 17.3412 13.042 16.9172 12.738ZM13.8452 16.146C12.8692 15.642 11.7012 15.642 10.7172 16.146C10.2452 16.394 10.1572 17.042 10.5332 17.418L11.7092 18.594C12.0212 18.906 12.5252 18.906 12.8372 18.594L14.0132 17.418C14.4052 17.042 14.3252 16.394 13.8452 16.146ZM18.4292 17.482L5.98119 5.03398C5.83172 4.88417 5.6288 4.79999 5.41719 4.79999C5.20557 4.79999 5.00265 4.88417 4.85319 5.03398C4.54119 5.34598 4.54119 5.84998 4.85319 6.16198L6.72519 8.04198C5.91719 8.44198 5.13319 8.92998 4.41319 9.52198C3.89319 9.94598 3.86119 10.73 4.33319 11.202C4.74119 11.61 5.38919 11.65 5.82919 11.282C6.62919 10.626 7.50919 10.114 8.42919 9.73798L10.2132 11.522C9.30919 11.762 8.44519 12.162 7.66119 12.73C7.10919 13.13 7.07718 13.938 7.55718 14.418L7.56519 14.426C7.95719 14.818 8.57318 14.858 9.02919 14.53C9.98119 13.858 11.0932 13.522 12.2052 13.498L17.3012 18.594C17.6132 18.906 18.1172 18.906 18.4292 18.594C18.7412 18.298 18.7412 17.794 18.4292 17.482Z" fill="#808080"/>
</svg>
