<svg width="24" height="24" viewBox="0 0 24 24" fill="none" xmlns="http://www.w3.org/2000/svg">
<path fill-rule="evenodd" clip-rule="evenodd" d="M11.9969 11.1978C11.1169 11.1978 10.3969 11.9178 10.3969 12.7978C10.3969 13.6778 11.1169 14.3978 11.9969 14.3978C12.8769 14.3978 13.5969 13.6778 13.5969 12.7978C13.5969 11.9178 12.8769 11.1978 11.9969 11.1978ZM16.7969 12.7978C16.7969 9.9498 14.3089 7.6778 11.3969 8.0378C9.30092 8.2938 7.57292 9.9658 7.25292 12.0538C6.98892 13.7738 7.64492 15.3418 8.79692 16.3738C9.18092 16.7178 9.78092 16.6378 10.0449 16.1898L10.0529 16.1818C10.2449 15.8458 10.1649 15.4378 9.87692 15.1738C9.05292 14.4298 8.60492 13.2778 8.90092 12.0218C9.16492 10.8858 10.0849 9.9658 11.2209 9.6938C13.3169 9.1898 15.1969 10.7738 15.1969 12.7978C15.1969 13.7418 14.7809 14.5818 14.1329 15.1658C13.8449 15.4218 13.7569 15.8378 13.9489 16.1738L13.9569 16.1818C14.2049 16.6058 14.7809 16.7338 15.1569 16.4058C16.1569 15.5258 16.7969 14.2378 16.7969 12.7978ZM11.0609 4.8538C7.36492 5.2698 4.38092 8.3178 4.03692 12.0218C3.75692 14.9818 5.09292 17.6378 7.25292 19.2298C7.63692 19.5098 8.18092 19.3898 8.42092 18.9818C8.62092 18.6378 8.53292 18.1898 8.21292 17.9498C6.38892 16.5978 5.29292 14.3098 5.68492 11.7898C6.11692 8.9898 8.45292 6.7578 11.2689 6.4458C15.1249 6.0058 18.3969 9.0218 18.3969 12.7978C18.3969 14.9178 17.3649 16.7818 15.7809 17.9498C15.4609 18.1898 15.3729 18.6298 15.5729 18.9818C15.8129 19.3978 16.3569 19.5098 16.7409 19.2298C18.7169 17.7738 19.9969 15.4378 19.9969 12.7978C19.9969 8.0698 15.8929 4.3018 11.0609 4.8538Z" fill="#808080"/>
</svg>
