<svg width="24" height="24" viewBox="0 0 24 24" fill="none" xmlns="http://www.w3.org/2000/svg">
<path fill-rule="evenodd" clip-rule="evenodd" d="M13.6 8.2V6.6H10.4V8.2H13.6ZM5.6 10.6V17.8C5.6 18.24 5.96 18.6 6.4 18.6H17.6C18.04 18.6 18.4 18.24 18.4 17.8V10.6C18.4 10.16 18.04 9.8 17.6 9.8H6.4C5.96 9.8 5.6 10.16 5.6 10.6ZM18.4 8.2C19.288 8.2 20 8.912 20 9.8V18.6C20 19.488 19.288 20.2 18.4 20.2H5.6C4.712 20.2 4 19.488 4 18.6L4.008 9.8C4.008 8.912 4.712 8.2 5.6 8.2H8.8V6.6C8.8 5.712 9.512 5 10.4 5H13.6C14.488 5 15.2 5.712 15.2 6.6V8.2H18.4Z" fill="#808080"/>
</svg>
