<svg width="24" height="24" viewBox="0 0 24 24" fill="none" xmlns="http://www.w3.org/2000/svg">
<path fill-rule="evenodd" clip-rule="evenodd" d="M5.688 4.432C5.53853 4.2822 5.33561 4.19801 5.124 4.19801C4.91239 4.19801 4.70947 4.2822 4.56 4.432C4.248 4.744 4.248 5.248 4.56 5.56L6.192 7.2H5.6C4.712 7.2 4.008 7.912 4.008 8.8L4 17.6C4 18.488 4.712 19.2 5.6 19.2H18.192L19.224 20.232C19.536 20.544 20.04 20.544 20.352 20.232C20.664 19.92 20.664 19.416 20.352 19.104L5.688 4.432ZM10.4 5.6H13.6V7.2H10.72L20 16.48V8.8C20 7.912 19.288 7.2 18.4 7.2H15.2V5.6C15.2 4.712 14.488 4 13.6 4H10.4C9.608 4 8.96 4.56 8.832 5.312L10.4 6.88V5.6Z" fill="#808080"/>
</svg>
