<svg width="24" height="24" viewBox="0 0 24 24" fill="none" xmlns="http://www.w3.org/2000/svg">
<path fill-rule="evenodd" clip-rule="evenodd" d="M6.4001 7.19998H17.6001C18.0401 7.19998 18.4001 6.83998 18.4001 6.39998C18.4001 5.95998 18.0401 5.59998 17.6001 5.59998H6.4001C5.9601 5.59998 5.6001 5.95998 5.6001 6.39998C5.6001 6.83998 5.9601 7.19998 6.4001 7.19998ZM15.8641 10.4H6.4001C5.9601 10.4 5.6001 10.76 5.6001 11.2C5.6001 11.64 5.9601 12 6.4001 12H16.1041C16.9041 12 17.6481 12.536 17.7761 13.328C17.9441 14.328 17.1681 15.2 16.2001 15.2H14.4001V14.568C14.4001 14.208 13.9681 14.032 13.7201 14.288L12.2881 15.72C12.1281 15.88 12.1281 16.128 12.2881 16.288L13.7201 17.72C13.9761 17.976 14.4001 17.792 14.4001 17.44V16.8H16.0001C17.8721 16.8 19.3681 15.192 19.1841 13.288C19.0241 11.624 17.5361 10.4 15.8641 10.4ZM9.6001 15.2H6.4001C5.9601 15.2 5.6001 15.56 5.6001 16C5.6001 16.44 5.9601 16.8 6.4001 16.8H9.6001C10.0401 16.8 10.4001 16.44 10.4001 16C10.4001 15.56 10.0401 15.2 9.6001 15.2Z" fill="#808080"/>
</svg>
