<svg width="24" height="24" viewBox="0 0 24 24" fill="none" xmlns="http://www.w3.org/2000/svg">
<path fill-rule="evenodd" clip-rule="evenodd" d="M16.8784 13.3902H15.2796C15.303 14.7217 16.4189 15.5 18.1068 15.5C19.8931 15.5 20.9574 14.6373 20.9574 13.2776C20.9574 12.2133 20.301 11.6273 18.8569 11.3506L18.163 11.2194C17.4269 11.0787 17.1175 10.8818 17.1175 10.5255C17.1175 10.1269 17.4879 9.84561 18.1115 9.84561C18.735 9.84561 19.1945 10.1363 19.2227 10.6239H20.8214C20.8027 9.33456 19.7993 8.5 18.0974 8.5C16.5408 8.5 15.4109 9.33925 15.4109 10.6427C15.4109 11.6741 16.1095 12.3352 17.4598 12.5884L18.1537 12.7197C18.9554 12.8744 19.2461 13.0666 19.2461 13.4417C19.2461 13.8543 18.8101 14.1544 18.1396 14.1544C17.4785 14.1544 16.9581 13.8731 16.8784 13.3902ZM3.04248 15.3828L5.11013 11.993V11.9555L3.04717 8.61721H5.05387L6.29633 10.9052H6.32915L7.58099 8.61721H9.48923L7.33719 11.9742V12.007L9.47048 15.3828H7.5388L6.226 13.1885H6.1885L4.87101 15.3828H3.04248ZM14.9558 13.995V15.3828H10.436V8.61721H12.1567V13.995H14.9558Z" fill="#808080"/>
</svg>
