<svg width="24" height="24" viewBox="0 0 24 24" fill="none" xmlns="http://www.w3.org/2000/svg">
<path fill-rule="evenodd" clip-rule="evenodd" d="M16.0793 13.5944H15.4393L15.2233 13.3784C16.1433 12.3064 16.6313 10.8664 16.4313 9.30641C16.1593 7.19441 14.5513 5.41841 12.4713 4.93841C9.07927 4.15441 6.07927 6.81841 6.07927 9.99441H4.39927C4.02327 9.99441 3.85527 10.4664 4.15127 10.7064L6.87127 12.9064C7.02327 13.0664 7.27927 13.0744 7.43927 12.9144L9.75927 10.6824C10.0153 10.4344 9.83927 9.99441 9.47927 9.99441H7.67927C7.67927 8.00241 9.27927 6.41041 11.2473 6.39441C13.1993 6.37841 14.8793 8.03441 14.8793 9.98641C14.8793 11.9704 13.2633 13.5944 11.2793 13.5944C10.9193 13.5944 10.5673 13.5384 10.2393 13.4424C9.96727 13.3624 9.67127 13.4424 9.47127 13.6504C9.04727 14.0744 9.21527 14.8104 9.78327 14.9784C10.2553 15.1144 10.7593 15.1944 11.2793 15.1944C12.5673 15.1944 13.7433 14.7224 14.6553 13.9384L14.8713 14.1544V14.7864L18.2873 18.1864C18.6153 18.5144 19.1433 18.5144 19.4713 18.1864C19.7993 17.8584 19.7993 17.3224 19.4713 16.9944L16.0793 13.5944Z" fill="#808080"/>
</svg>
