<svg width="24" height="24" viewBox="0 0 24 24" fill="none" xmlns="http://www.w3.org/2000/svg">
<path fill-rule="evenodd" clip-rule="evenodd" d="M4.573 15.5V14.3697L7.90079 9.96985V9.9359H4.62636V8.5H9.99157V9.63028L6.67833 14.0301V14.0641H10.0983V15.5H4.573ZM12.8149 15.5H11.0345V8.5H12.8149V15.5ZM13.8724 8.5H16.9043C18.4081 8.5 19.4268 9.47505 19.4268 10.9789C19.4268 12.473 18.3547 13.448 16.7975 13.448H15.6527V15.5H13.8724V8.5ZM15.6527 9.86313V12.1091H16.424C17.1808 12.1091 17.6271 11.7162 17.6271 10.9837C17.6271 10.2561 17.1808 9.86313 16.4337 9.86313H15.6527Z" fill="#808080"/>
</svg>
