<svg width="24" height="24" viewBox="0 0 24 24" fill="none" xmlns="http://www.w3.org/2000/svg">
<path fill-rule="evenodd" clip-rule="evenodd" d="M14.7991 13.6005H14.1671L13.9431 13.3845C14.9031 12.2645 15.3991 10.7365 15.1271 9.11255C14.7511 6.88855 12.8951 5.11255 10.6551 4.84055C7.27112 4.42455 4.43112 7.27255 4.83912 10.6565C5.11112 12.8965 6.88712 14.7525 9.11112 15.1285C10.7351 15.4005 12.2631 14.9045 13.3831 13.9445L13.5991 14.1685V14.8005L17.0071 18.2005C17.3351 18.5285 17.8631 18.5285 18.1911 18.2005L18.1991 18.1925C18.5271 17.8645 18.5271 17.3365 18.1991 17.0085L14.7991 13.6005ZM9.99912 13.6005C8.00712 13.6005 6.39912 11.9925 6.39912 10.0005C6.39912 8.00855 8.00712 6.40055 9.99912 6.40055C11.9911 6.40055 13.5991 8.00855 13.5991 10.0005C13.5991 11.9925 11.9911 13.6005 9.99912 13.6005ZM9.99912 8.00055C9.77512 8.00055 9.59912 8.17655 9.59912 8.40055V9.60055H8.39912C8.17512 9.60055 7.99912 9.77655 7.99912 10.0005C7.99912 10.2245 8.17512 10.4005 8.39912 10.4005H9.59912V11.6005C9.59912 11.8245 9.77512 12.0005 9.99912 12.0005C10.2231 12.0005 10.3991 11.8245 10.3991 11.6005V10.4005H11.5991C11.8231 10.4005 11.9991 10.2245 11.9991 10.0005C11.9991 9.77655 11.8231 9.60055 11.5991 9.60055H10.3991V8.40055C10.3991 8.17655 10.2231 8.00055 9.99912 8.00055Z" fill="#808080"/>
</svg>
