<svg width="24" height="24" viewBox="0 0 24 24" fill="none" xmlns="http://www.w3.org/2000/svg">
<path fill-rule="evenodd" clip-rule="evenodd" d="M15.08 5.48005L16.24 6.64005L14.496 8.36805C14.184 8.68005 14.184 9.19205 14.496 9.50405C14.808 9.81605 15.32 9.81605 15.632 9.50405L17.36 7.76005L18.52 8.92005C18.768 9.16805 19.2 8.99205 19.2 8.63205V5.20005C19.2 4.97605 19.024 4.80005 18.8 4.80005H15.368C15.008 4.80005 14.832 5.23205 15.08 5.48005ZM5.48005 8.92005L6.64005 7.76005L8.36805 9.50405C8.68005 9.81605 9.19205 9.81605 9.50405 9.50405C9.81605 9.19205 9.81605 8.68005 9.50405 8.36805L7.76005 6.64005L8.92005 5.48005C9.16805 5.23205 8.99205 4.80005 8.63205 4.80005H5.20005C4.97605 4.80005 4.80005 4.97605 4.80005 5.20005V8.63205C4.80005 8.99205 5.23205 9.16805 5.48005 8.92005ZM8.92005 18.52L7.76005 17.36L9.50405 15.632C9.81605 15.32 9.81605 14.808 9.50405 14.496C9.19205 14.184 8.68005 14.184 8.36805 14.496L6.64005 16.24L5.48005 15.08C5.23205 14.832 4.80005 15.008 4.80005 15.368V18.8C4.80005 19.024 4.97605 19.2 5.20005 19.2H8.63205C8.99205 19.2 9.16805 18.768 8.92005 18.52ZM18.52 15.08L17.36 16.24L15.632 14.496C15.32 14.184 14.808 14.184 14.496 14.496C14.184 14.808 14.184 15.32 14.496 15.632L16.24 17.36L15.08 18.52C14.832 18.768 15.008 19.2 15.368 19.2H18.8C19.024 19.2 19.2 19.024 19.2 18.8V15.368C19.2 15.008 18.768 14.832 18.52 15.08Z" fill="#808080"/>
</svg>
