<svg width="24" height="24" viewBox="0 0 24 24" fill="none" xmlns="http://www.w3.org/2000/svg">
<path fill-rule="evenodd" clip-rule="evenodd" d="M14.8005 13.6005H14.1685L13.9445 13.3845C14.9045 12.2645 15.4005 10.7365 15.1285 9.11255C14.7525 6.88855 12.8965 5.11255 10.6565 4.84055C7.2725 4.42455 4.4245 7.27255 4.8405 10.6565C5.1125 12.8965 6.8885 14.7525 9.1125 15.1285C10.7365 15.4005 12.2645 14.9045 13.3845 13.9445L13.6005 14.1685V14.8005L17.0085 18.2005C17.3365 18.5285 17.8645 18.5285 18.1925 18.2005L18.2005 18.1925C18.5285 17.8645 18.5285 17.3365 18.2005 17.0085L14.8005 13.6005ZM10.0005 13.6005C8.0085 13.6005 6.4005 11.9925 6.4005 10.0005C6.4005 8.00855 8.0085 6.40055 10.0005 6.40055C11.9925 6.40055 13.6005 8.00855 13.6005 10.0005C13.6005 11.9925 11.9925 13.6005 10.0005 13.6005ZM8.4005 9.60055H11.6005C11.8245 9.60055 12.0005 9.77655 12.0005 10.0005C12.0005 10.2245 11.8245 10.4005 11.6005 10.4005H8.4005C8.1765 10.4005 8.0005 10.2245 8.0005 10.0005C8.0005 9.77655 8.1765 9.60055 8.4005 9.60055Z" fill="#808080"/>
</svg>
